<svg width="250" height="250" xmlns="http://www.w3.org/2000/svg" preserveAspectRatio="xMidYMid meet">
 <metadata>Created by potrace 1.14, written by Peter Selinger 2001-2017</metadata>

 <g>
  <title>background</title>
  <rect fill="none" id="canvas_background" height="402" width="582" y="-1" x="-1"/>
 </g>
 <g>
  <title>Layer 1</title>
  <g id="svg_1" fill="#000000" transform="translate(0,250) scale(0.10000000149011612,-0.10000000149011612) ">
   <path id="svg_2" d="m800,1772c-98,-50 -578,-328 -595,-344c-19,-18 -19,-18 0,-18c11,0 116,31 235,69c118,38 225,72 237,76c19,5 23,0 38,-52c8,-32 22,-78 29,-103c7,-25 32,-114 56,-197c31,-110 47,-153 58,-153c12,0 13,9 8,46c-3,26 -6,192 -6,370c0,355 3,339 -60,306z"/>
   <path id="svg_3" d="m1224,1730c-108,-22 -214,-111 -253,-213c-59,-160 11,-332 167,-405c52,-25 68,-27 177,-27c101,0 127,4 167,22c55,25 70,49 72,117c1,47 -1,51 -24,54c-21,2 -29,-5 -50,-45c-36,-69 -77,-93 -159,-93c-105,1 -175,42 -223,131c-20,38 -23,58 -23,144c0,83 4,107 22,140c43,80 107,118 203,119c85,1 125,-22 163,-92c22,-41 34,-52 53,-52c23,0 24,2 24,75l0,75l-38,19c-70,36 -187,49 -278,31z"/>
   <path id="svg_4" d="m1702,1711c-3,-8 8,-25 26,-40l32,-26l0,-243l0,-243l-30,-17c-16,-9 -30,-25 -30,-35c0,-16 11,-17 127,-15c110,3 128,5 131,20c3,16 -4,20 -60,32l-28,6l0,115l0,115l48,0c56,0 64,-5 86,-48c11,-21 23,-32 34,-30c14,3 17,19 20,106c3,103 3,103 -20,100c-13,-2 -24,-11 -26,-23c-7,-37 -23,-45 -83,-45l-59,0l0,110l0,111l87,-3l87,-3l24,-35c35,-53 55,-46 65,20c13,90 29,84 -212,84c-174,1 -215,-2 -219,-13z"/>
   <path id="svg_5" d="m445,1436c-22,-6 -40,-18 -40,-25c0,-19 315,-185 327,-173c10,10 -5,75 -24,99c-15,19 -187,113 -205,112c-10,0 -36,-6 -58,-13z"/>
   <path id="svg_6" d="m100,835l0,-155l1155,0l1155,0l0,155l0,155l-1155,0l-1155,0l0,-155zm2290,0l0,-135l-1135,0l-1135,0l0,135l0,135l1135,0l1135,0l0,-135z"/>
  </g>
  <text xml:space="preserve" text-anchor="start" font-family="Helvetica, Arial, sans-serif" font-size="19" id="svg_7" y="173.5" x="16.5" stroke-width="0" stroke="#000" fill="#000000">ARK COMMUNITY FUND</text>
 </g>
</svg>