<?xml version="1.0" encoding="UTF-8" standalone="no"?>
<!-- Generator: Adobe Illustrator 21.1.0, SVG Export Plug-In . SVG Version: 6.00 Build 0)  -->

<svg
   xmlns:dc="http://purl.org/dc/elements/1.1/"
   xmlns:cc="http://creativecommons.org/ns#"
   xmlns:rdf="http://www.w3.org/1999/02/22-rdf-syntax-ns#"
   xmlns:svg="http://www.w3.org/2000/svg"
   xmlns="http://www.w3.org/2000/svg"
   xmlns:sodipodi="http://sodipodi.sourceforge.net/DTD/sodipodi-0.dtd"
   xmlns:inkscape="http://www.inkscape.org/namespaces/inkscape"
   version="1.1"
   id="Layer_1"
   x="0px"
   y="0px"
   viewBox="0 0 536 536"
   xml:space="preserve"
   sodipodi:docname="ACF_FullColor.svg"
   width="536"
   height="536"
   inkscape:version="0.92.2 (5c3e80d, 2017-08-06)"><metadata
     id="metadata148"><rdf:RDF><cc:Work
         rdf:about=""><dc:format>image/svg+xml</dc:format><dc:type
           rdf:resource="http://purl.org/dc/dcmitype/StillImage" /><dc:title></dc:title></cc:Work></rdf:RDF></metadata><defs
     id="defs146" /><sodipodi:namedview
     pagecolor="#ffffff"
     bordercolor="#666666"
     borderopacity="1"
     objecttolerance="10"
     gridtolerance="10"
     guidetolerance="10"
     inkscape:pageopacity="0"
     inkscape:pageshadow="2"
     inkscape:window-width="2736"
     inkscape:window-height="1699"
     id="namedview144"
     showgrid="false"
     inkscape:zoom="0.44029851"
     inkscape:cx="254"
     inkscape:cy="268"
     inkscape:window-x="-13"
     inkscape:window-y="-13"
     inkscape:window-maximized="1"
     inkscape:current-layer="Layer_1" /><style
     type="text/css"
     id="style2">
	.st0{fill:#D90303;}
	.st1{fill:url(#SVGID_1_);}
	.st2{fill:url(#SVGID_2_);}
	.st3{fill:url(#SVGID_3_);}
	.st4{fill:url(#SVGID_4_);}
	.st5{fill:url(#SVGID_5_);}
	.st6{fill:url(#SVGID_6_);}
	.st7{fill:url(#SVGID_7_);}
	.st8{fill:url(#SVGID_8_);}
	.st9{fill:url(#SVGID_9_);}
	.st10{fill:url(#SVGID_10_);}
	.st11{fill:url(#SVGID_11_);}
	.st12{fill:url(#SVGID_12_);}
	.st13{fill:url(#SVGID_13_);}
	.st14{fill:url(#SVGID_14_);}
	.st15{fill:url(#SVGID_15_);}
</style><linearGradient
     id="SVGID_1_"
     gradientUnits="userSpaceOnUse"
     x1="139.4487"
     y1="444.93399"
     x2="233.1826"
     y2="335.6702"><stop
       offset="0"
       style="stop-color:#D90303"
       id="stop38" /><stop
       offset="1"
       style="stop-color:#AD0303"
       id="stop40" /></linearGradient><linearGradient
     id="SVGID_2_"
     gradientUnits="userSpaceOnUse"
     x1="267.16599"
     y1="331.25751"
     x2="347.58859"
     y2="453.27789"><stop
       offset="0"
       style="stop-color:#D90303"
       id="stop45" /><stop
       offset="1"
       style="stop-color:#AD0303"
       id="stop47" /></linearGradient><linearGradient
     id="SVGID_3_"
     gradientUnits="userSpaceOnUse"
     x1="238.507"
     y1="385.63959"
     x2="269.2561"
     y2="385.63959"><stop
       offset="0"
       style="stop-color:#D90303"
       id="stop52" /><stop
       offset="1"
       style="stop-color:#AD0303"
       id="stop54" /></linearGradient><linearGradient
     id="SVGID_4_"
     gradientUnits="userSpaceOnUse"
     x1="103.3658"
     y1="472.72229"
     x2="197.0997"
     y2="363.45859"
     gradientTransform="matrix(0.309,-0.9511,0.9511,0.309,-85.9187,377.743)"><stop
       offset="0"
       style="stop-color:#D90303"
       id="stop59" /><stop
       offset="1"
       style="stop-color:#AD0303"
       id="stop61" /></linearGradient><linearGradient
     id="SVGID_5_"
     gradientUnits="userSpaceOnUse"
     x1="231.08299"
     y1="359.04581"
     x2="311.50562"
     y2="481.06631"
     gradientTransform="matrix(0.309,-0.9511,0.9511,0.309,-85.9187,377.743)"><stop
       offset="0"
       style="stop-color:#D90303"
       id="stop66" /><stop
       offset="1"
       style="stop-color:#AD0303"
       id="stop68" /></linearGradient><linearGradient
     id="SVGID_6_"
     gradientUnits="userSpaceOnUse"
     x1="203.4816"
     y1="413.2034"
     x2="234.2308"
     y2="413.2034"
     gradientTransform="matrix(0.309,-0.9511,0.9511,0.309,-85.9187,377.743)"><stop
       offset="0"
       style="stop-color:#D90303"
       id="stop73" /><stop
       offset="1"
       style="stop-color:#AD0303"
       id="stop75" /></linearGradient><linearGradient
     id="SVGID_7_"
     gradientUnits="userSpaceOnUse"
     x1="65.923798"
     y1="446.81189"
     x2="159.6577"
     y2="337.5481"
     gradientTransform="matrix(-0.809,-0.5878,0.5878,-0.809,246.7859,576.1856)"><stop
       offset="0"
       style="stop-color:#D90303"
       id="stop80" /><stop
       offset="1"
       style="stop-color:#AD0303"
       id="stop82" /></linearGradient><linearGradient
     id="SVGID_8_"
     gradientUnits="userSpaceOnUse"
     x1="193.64101"
     y1="333.13531"
     x2="274.0636"
     y2="455.15579"
     gradientTransform="matrix(-0.809,-0.5878,0.5878,-0.809,246.7859,576.1856)"><stop
       offset="0"
       style="stop-color:#D90303"
       id="stop87" /><stop
       offset="1"
       style="stop-color:#AD0303"
       id="stop89" /></linearGradient><linearGradient
     id="SVGID_9_"
     gradientUnits="userSpaceOnUse"
     x1="164.8145"
     y1="385.64319"
     x2="195.56371"
     y2="385.64319"
     gradientTransform="matrix(-0.809,-0.5878,0.5878,-0.809,246.7859,576.1856)"><stop
       offset="0"
       style="stop-color:#D90303"
       id="stop94" /><stop
       offset="1"
       style="stop-color:#AD0303"
       id="stop96" /></linearGradient><linearGradient
     id="SVGID_10_"
     gradientUnits="userSpaceOnUse"
     x1="78.891098"
     y1="403.224"
     x2="172.625"
     y2="293.96021"
     gradientTransform="matrix(-0.809,0.5878,-0.5878,-0.809,538.3275,321.0868)"><stop
       offset="0"
       style="stop-color:#D90303"
       id="stop101" /><stop
       offset="1"
       style="stop-color:#AD0303"
       id="stop103" /></linearGradient><linearGradient
     id="SVGID_11_"
     gradientUnits="userSpaceOnUse"
     x1="206.60831"
     y1="289.54749"
     x2="287.03091"
     y2="411.5679"
     gradientTransform="matrix(-0.809,0.5878,-0.5878,-0.809,538.3275,321.0868)"><stop
       offset="0"
       style="stop-color:#D90303"
       id="stop108" /><stop
       offset="1"
       style="stop-color:#AD0303"
       id="stop110" /></linearGradient><linearGradient
     id="SVGID_12_"
     gradientUnits="userSpaceOnUse"
     x1="178.6703"
     y1="342.22061"
     x2="209.4194"
     y2="342.22061"
     gradientTransform="matrix(-0.809,0.5878,-0.5878,-0.809,538.3275,321.0868)"><stop
       offset="0"
       style="stop-color:#D90303"
       id="stop115" /><stop
       offset="1"
       style="stop-color:#AD0303"
       id="stop117" /></linearGradient><linearGradient
     id="SVGID_13_"
     gradientUnits="userSpaceOnUse"
     x1="124.4272"
     y1="402.02499"
     x2="218.1611"
     y2="292.7612"
     gradientTransform="matrix(0.309,0.9511,-0.9511,0.309,385.8053,-35.0155)"><stop
       offset="0"
       style="stop-color:#D90303"
       id="stop122" /><stop
       offset="1"
       style="stop-color:#AD0303"
       id="stop124" /></linearGradient><linearGradient
     id="SVGID_14_"
     gradientUnits="userSpaceOnUse"
     x1="252.1445"
     y1="288.34839"
     x2="332.56699"
     y2="410.3689"
     gradientTransform="matrix(0.309,0.9511,-0.9511,0.309,385.8053,-35.0155)"><stop
       offset="0"
       style="stop-color:#D90303"
       id="stop129" /><stop
       offset="1"
       style="stop-color:#AD0303"
       id="stop131" /></linearGradient><linearGradient
     id="SVGID_15_"
     gradientUnits="userSpaceOnUse"
     x1="223.47549"
     y1="340.27689"
     x2="254.22459"
     y2="340.27689"
     gradientTransform="matrix(0.309,0.9511,-0.9511,0.309,385.8053,-35.0155)"><stop
       offset="0"
       style="stop-color:#D90303"
       id="stop136" /><stop
       offset="1"
       style="stop-color:#AD0303"
       id="stop138" /></linearGradient><g
     id="g182"
     transform="translate(13.85,-0.1)"
     inkscape:export-xdpi="17.879135"
     inkscape:export-ydpi="17.879135"><g
       id="g36"><path
         style="fill:#d90303"
         inkscape:connector-curvature="0"
         id="path4"
         d="m 39.1,503.4 h 5.5 l 11.6,27.2 H 50 l -2.5,-6.1 H 36 l -2.5,6.1 h -6.1 z m 6.2,15.9 -3.6,-8.8 -3.6,8.8 z"
         class="st0" /><path
         style="fill:#d90303"
         inkscape:connector-curvature="0"
         id="path6"
         d="m 59.5,503.6 h 12.3 c 3.4,0 6.1,1 7.9,2.7 1.5,1.5 2.3,3.6 2.3,6.2 v 0.1 c 0,4.4 -2.4,7.1 -5.8,8.4 l 6.6,9.6 H 75.9 L 70.1,522 h -4.7 v 8.6 h -5.9 z m 12,13.1 c 2.9,0 4.6,-1.5 4.6,-3.8 v -0.1 c 0,-2.5 -1.8,-3.9 -4.7,-3.9 h -5.9 v 7.8 z"
         class="st0" /><path
         style="fill:#d90303"
         inkscape:connector-curvature="0"
         id="path8"
         d="m 87,503.6 h 6 v 11.8 l 11,-11.8 h 7.2 l -11,11.5 11.5,15.5 h -7.1 l -8.4,-11.5 -3.1,3.2 v 8.3 H 87 Z"
         class="st0" /><path
         inkscape:connector-curvature="0"
         id="path10"
         d="m 124.8,517.2 v 0 c 0,-7.8 5.8,-14 14.1,-14 5.1,0 8.1,1.7 10.6,4.2 l -3.8,4.4 c -2.1,-1.9 -4.2,-3 -6.9,-3 -4.6,0 -7.8,3.8 -7.8,8.4 v 0.1 c 0,4.6 3.2,8.5 7.8,8.5 3.1,0 5,-1.2 7.1,-3.2 l 3.8,3.8 c -2.8,3 -5.9,4.8 -11.1,4.8 -7.9,-0.1 -13.8,-6.3 -13.8,-14 z" /><path
         inkscape:connector-curvature="0"
         id="path12"
         d="m 151.6,517.2 v 0 c 0,-7.8 6.1,-14 14.4,-14 8.3,0 14.3,6.2 14.3,13.9 v 0.1 c 0,7.7 -6.1,14 -14.4,14 -8.3,0 -14.3,-6.3 -14.3,-14 z m 22.5,0 v 0 c 0,-4.7 -3.4,-8.6 -8.2,-8.6 -4.8,0 -8.1,3.8 -8.1,8.4 v 0.1 c 0,4.6 3.4,8.5 8.2,8.5 4.8,0 8.1,-3.8 8.1,-8.4 z" /><path
         inkscape:connector-curvature="0"
         id="path14"
         d="m 183.8,503.6 h 6.4 l 7.1,11.4 7.1,-11.4 h 6.4 v 27 h -5.9 V 513 l -7.6,11.5 h -0.2 l -7.5,-11.4 v 17.5 h -5.8 z" /><path
         inkscape:connector-curvature="0"
         id="path16"
         d="m 215.8,503.6 h 6.4 l 7.1,11.4 7.1,-11.4 h 6.4 v 27 h -5.9 V 513 l -7.6,11.5 h -0.2 l -7.5,-11.4 v 17.5 h -5.8 z" /><path
         inkscape:connector-curvature="0"
         id="path18"
         d="m 246.8,519 v -15.4 h 5.9 v 15.3 c 0,4.4 2.2,6.7 5.8,6.7 3.6,0 5.8,-2.2 5.8,-6.5 v -15.5 h 5.9 v 15.2 c 0,8.2 -4.6,12.2 -11.8,12.2 -7.2,0 -11.6,-4 -11.6,-12 z" /><path
         inkscape:connector-curvature="0"
         id="path20"
         d="m 274.3,503.6 h 5.5 l 12.7,16.6 v -16.6 h 5.9 v 27 h -5.1 l -13.1,-17.2 v 17.2 h -5.9 z" /><path
         inkscape:connector-curvature="0"
         id="path22"
         d="m 303.4,503.6 h 5.9 v 27 h -5.9 z" /><path
         inkscape:connector-curvature="0"
         id="path24"
         d="m 321.1,509.1 h -8.2 v -5.5 h 22.4 v 5.5 h -8.2 v 21.5 h -5.9 v -21.5 z" /><path
         inkscape:connector-curvature="0"
         id="path26"
         d="m 347.9,520 -10.4,-16.4 h 6.9 l 6.4,10.8 6.6,-10.8 h 6.8 l -10.4,16.2 v 10.8 h -5.9 z" /><path
         inkscape:connector-curvature="0"
         id="path28"
         d="m 378.7,503.6 h 20.6 v 5.4 h -14.6 v 5.7 h 12.9 v 5.4 h -12.9 v 10.5 h -5.9 v -27 z" /><path
         inkscape:connector-curvature="0"
         id="path30"
         d="m 403.1,519 v -15.4 h 5.9 v 15.3 c 0,4.4 2.2,6.7 5.8,6.7 3.6,0 5.8,-2.2 5.8,-6.5 v -15.5 h 5.9 v 15.2 c 0,8.2 -4.6,12.2 -11.8,12.2 -7.2,0 -11.6,-4 -11.6,-12 z" /><path
         inkscape:connector-curvature="0"
         id="path32"
         d="m 430.5,503.6 h 5.5 l 12.7,16.6 v -16.6 h 5.9 v 27 h -5.1 l -13.1,-17.2 v 17.2 h -5.9 z" /><path
         inkscape:connector-curvature="0"
         id="path34"
         d="m 458.8,503.6 h 10.5 c 8.5,0 14.3,5.8 14.3,13.4 v 0.1 c 0,7.6 -5.9,13.5 -14.3,13.5 h -10.5 z m 10.5,21.6 c 4.9,0 8.1,-3.3 8.1,-8.1 V 517 c 0,-4.8 -3.3,-8.1 -8.1,-8.1 h -4.6 v 16.3 z" /></g><polygon
       style="fill:url(#SVGID_1_)"
       id="polygon43"
       points="125.2,479.4 254,274.4 254,348.3 "
       class="st1" /><polygon
       style="fill:url(#SVGID_2_)"
       id="polygon50"
       points="382.9,479.4 254,274.4 254,348.3 "
       class="st2" /><circle
       style="fill:url(#SVGID_3_)"
       id="circle57"
       r="15.4"
       cy="385.60001"
       cx="253.89999"
       class="st3" /><polygon
       style="fill:url(#SVGID_4_)"
       id="polygon64"
       points="424,449.7 268.8,263.8 339.1,286.7 "
       class="st4" /><polygon
       style="fill:url(#SVGID_5_)"
       id="polygon71"
       points="503.6,204.6 268.8,263.8 339.1,286.7 "
       class="st5" /><circle
       style="fill:url(#SVGID_6_)"
       id="circle78"
       r="15.4"
       cy="297.29999"
       cx="374.70001"
       class="st6" /><polygon
       style="fill:url(#SVGID_7_)"
       id="polygon85"
       points="487.9,156.5 263.1,246.6 306.6,186.8 "
       class="st7" /><polygon
       style="fill:url(#SVGID_8_)"
       id="polygon92"
       points="279.4,5 263.1,246.6 306.6,186.8 "
       class="st8" /><circle
       style="fill:url(#SVGID_9_)"
       id="circle99"
       r="15.4"
       cy="158.3"
       cx="327.70001"
       class="st9" /><polygon
       style="fill:url(#SVGID_10_)"
       id="polygon106"
       points="228.8,5 245,246.6 201.6,186.8 "
       class="st10" /><polygon
       style="fill:url(#SVGID_11_)"
       id="polygon113"
       points="20.3,156.5 245,246.6 201.6,186.8 "
       class="st11" /><circle
       style="fill:url(#SVGID_12_)"
       id="circle120"
       r="15.4"
       cy="158.3"
       cx="180.2"
       class="st12" /><polygon
       style="fill:url(#SVGID_13_)"
       id="polygon127"
       points="4.7,204.6 239.5,263.8 169.2,286.7 "
       class="st13" /><polygon
       style="fill:url(#SVGID_14_)"
       id="polygon134"
       points="84.4,449.7 239.5,263.8 169.2,286.7 "
       class="st14" /><circle
       style="fill:url(#SVGID_15_)"
       id="circle141"
       r="15.4"
       cy="297.29999"
       cx="136"
       class="st15" /></g></svg>