<?xml version="1.0" encoding="UTF-8" standalone="no"?>
<!-- Created with Inkscape (http://www.inkscape.org/) -->

<svg
   xmlns:dc="http://purl.org/dc/elements/1.1/"
   xmlns:cc="http://creativecommons.org/ns#"
   xmlns:rdf="http://www.w3.org/1999/02/22-rdf-syntax-ns#"
   xmlns:svg="http://www.w3.org/2000/svg"
   xmlns="http://www.w3.org/2000/svg"
   xmlns:sodipodi="http://sodipodi.sourceforge.net/DTD/sodipodi-0.dtd"
   xmlns:inkscape="http://www.inkscape.org/namespaces/inkscape"
   id="svg4700"
   version="1.1"
   inkscape:version="0.91 r13725"
   xml:space="preserve"
   width="1052.3625"
   height="744.09998"
   viewBox="0 0 1052.3625 744.09998"
   sodipodi:docname="ark-logo.svg"
   inkscape:export-filename="F:\ark\acf\logo_contest\oisin-obrien\preview-svg.png"
   inkscape:export-xdpi="25.66"
   inkscape:export-ydpi="25.66"><metadata
     id="metadata4706"><rdf:RDF><cc:Work
         rdf:about=""><dc:format>image/svg+xml</dc:format><dc:type
           rdf:resource="http://purl.org/dc/dcmitype/StillImage" /><dc:title></dc:title></cc:Work></rdf:RDF></metadata><defs
     id="defs4704"><clipPath
       clipPathUnits="userSpaceOnUse"
       id="clipPath4714"><path
         d="m 0,595.28 841.89,0 L 841.89,0 0,0 0,595.28 Z"
         id="path4716"
         inkscape:connector-curvature="0" /></clipPath></defs><sodipodi:namedview
     pagecolor="#ffffff"
     bordercolor="#666666"
     borderopacity="1"
     objecttolerance="10"
     gridtolerance="10"
     guidetolerance="10"
     inkscape:pageopacity="0"
     inkscape:pageshadow="2"
     inkscape:window-width="1920"
     inkscape:window-height="1137"
     id="namedview4702"
     showgrid="false"
     inkscape:zoom="0.44853435"
     inkscape:cx="763.62287"
     inkscape:cy="330.49328"
     inkscape:window-x="-8"
     inkscape:window-y="-8"
     inkscape:window-maximized="1"
     inkscape:current-layer="g4708" /><g
     id="g4708"
     inkscape:groupmode="layer"
     inkscape:label="ark"
     transform="matrix(1.25,0,0,-1.25,0,744.1)"><g
       id="g4710"><g
         id="g4712"
         clip-path="url(#clipPath4714)"><g
           id="g4718"
           transform="translate(813.832,54.1611)"><path
             d="m 0,0 c 0,-6.378 -5.171,-11.549 -11.549,-11.549 l -359.298,0 c -6.378,0 -11.549,5.171 -11.549,11.549 l 0,488.903 c 0,6.378 5.171,11.549 11.549,11.549 l 359.298,0 C -5.171,500.452 0,495.281 0,488.903 L 0,0 Z"
             style="fill:#626262;fill-opacity:1;fill-rule:nonzero;stroke:none"
             id="path4720"
             inkscape:connector-curvature="0" /></g><g
           id="g4722"
           transform="translate(477.6152,375.3022)"><path
             d="m 0,0 c -0.718,-0.521 -1.628,-0.882 -2.729,-1.085 -1.1,-0.204 -2.274,-0.306 -3.518,-0.306 -1.508,0 -2.921,0.244 -4.237,0.73 -1.316,0.485 -2.465,1.225 -3.447,2.221 -0.981,0.994 -1.759,2.266 -2.333,3.815 -0.574,1.547 -0.862,3.384 -0.862,5.51 0,2.215 0.318,4.096 0.952,5.645 0.633,1.549 1.472,2.815 2.513,3.799 1.042,0.983 2.208,1.7 3.501,2.152 1.293,0.453 2.608,0.679 3.948,0.679 1.437,0 2.609,-0.074 3.52,-0.221 0.909,-0.147 1.687,-0.345 2.333,-0.593 l -0.718,-2.509 c -1.149,0.542 -2.788,0.813 -4.918,0.813 -0.983,0 -1.951,-0.169 -2.909,-0.508 -0.957,-0.34 -1.813,-0.893 -2.567,-1.662 -0.754,-0.769 -1.358,-1.775 -1.812,-3.018 -0.456,-1.243 -0.684,-2.769 -0.684,-4.577 0,-1.628 0.216,-3.052 0.648,-4.273 0.43,-1.22 1.022,-2.238 1.777,-3.052 0.754,-0.814 1.64,-1.424 2.656,-1.831 1.018,-0.407 2.123,-0.61 3.321,-0.61 1.078,0 2.016,0.101 2.819,0.305 0.802,0.203 1.477,0.463 2.028,0.78 L 0,0 Z"
             style="fill:#ffffff;fill-opacity:1;fill-rule:nonzero;stroke:none"
             id="path4724"
             inkscape:connector-curvature="0" /></g><g
           id="g4726"
           transform="translate(483.2168,386.187)"><path
             d="m 0,0 c 0,-1.312 0.138,-2.555 0.412,-3.73 0.275,-1.176 0.701,-2.21 1.275,-3.103 0.576,-0.893 1.311,-1.605 2.209,-2.136 0.897,-0.531 1.957,-0.797 3.177,-0.797 2.226,0 3.973,0.797 5.242,2.391 1.268,1.593 1.903,4.052 1.903,7.375 0,1.289 -0.138,2.526 -0.413,3.713 C 13.529,4.9 13.099,5.939 12.513,6.833 11.926,7.725 11.184,8.438 10.287,8.969 9.39,9.5 8.317,9.766 7.073,9.766 4.87,9.766 3.142,8.969 1.885,7.375 0.628,5.781 0,3.323 0,0 m -3.159,0 c 0,3.956 0.886,6.991 2.656,9.104 1.772,2.114 4.296,3.171 7.576,3.171 1.771,0 3.303,-0.294 4.595,-0.882 1.294,-0.588 2.363,-1.418 3.214,-2.492 0.849,-1.074 1.477,-2.362 1.885,-3.866 0.407,-1.504 0.61,-3.181 0.61,-5.035 0,-3.956 -0.892,-6.992 -2.675,-9.105 -1.782,-2.114 -4.326,-3.17 -7.629,-3.17 -1.748,0 -3.261,0.294 -4.542,0.881 -1.28,0.588 -2.345,1.418 -3.196,2.493 -0.849,1.073 -1.478,2.361 -1.884,3.865 -0.408,1.503 -0.61,3.182 -0.61,5.036"
             style="fill:#ffffff;fill-opacity:1;fill-rule:nonzero;stroke:none"
             id="path4728"
             inkscape:connector-curvature="0" /></g><g
           id="g4730"
           transform="translate(524.9717,390.2563)"><path
             d="m 0,0 0.358,3.56 -0.179,0 -1.364,-3.255 -6.534,-10.715 -0.897,0 -6.93,10.748 -1.292,3.222 -0.18,0 0.502,-3.526 0,-15.972 -2.799,0 0,23.737 2.226,0 7.862,-12.14 1.184,-2.645 0.073,0 1.113,2.713 7.503,12.072 2.333,0 0,-23.737 -2.979,0 L 0,0 Z"
             style="fill:#ffffff;fill-opacity:1;fill-rule:nonzero;stroke:none"
             id="path4732"
             inkscape:connector-curvature="0" /></g><g
           id="g4734"
           transform="translate(553.3711,390.2563)"><path
             d="m 0,0 0.359,3.56 -0.179,0 -1.365,-3.255 -6.534,-10.715 -0.898,0 -6.93,10.748 -1.292,3.222 -0.18,0 0.504,-3.526 0,-15.972 -2.8,0 0,23.737 2.225,0 7.863,-12.14 1.185,-2.645 0.071,0 1.114,2.713 7.503,12.072 2.334,0 0,-23.737 -2.98,0 L 0,0 Z"
             style="fill:#ffffff;fill-opacity:1;fill-rule:nonzero;stroke:none"
             id="path4736"
             inkscape:connector-curvature="0" /></g><g
           id="g4738"
           transform="translate(576.8877,398.0552)"><path
             d="m 0,0 2.872,0 0,-15.836 c 0,-1.424 -0.196,-2.656 -0.592,-3.696 -0.395,-1.04 -0.958,-1.893 -1.687,-2.56 -0.731,-0.667 -1.611,-1.158 -2.639,-1.475 -1.03,-0.316 -2.167,-0.475 -3.411,-0.475 -2.969,0 -5.206,0.633 -6.714,1.899 -1.509,1.266 -2.263,3.187 -2.263,5.765 l 0,16.378 2.982,0 0,-15.056 c 0,-1.198 0.125,-2.21 0.377,-3.035 0.251,-0.825 0.628,-1.492 1.13,-2 0.503,-0.509 1.132,-0.877 1.884,-1.102 0.754,-0.227 1.634,-0.34 2.64,-0.34 1.938,0 3.326,0.503 4.165,1.51 0.837,1.005 1.256,2.662 1.256,4.967 L 0,0 Z"
             style="fill:#ffffff;fill-opacity:1;fill-rule:nonzero;stroke:none"
             id="path4740"
             inkscape:connector-curvature="0" /></g><g
           id="g4742"
           transform="translate(590.3867,389.8491)"><path
             d="m 0,0 -1.937,3.425 -0.144,0 0.358,-3.425 0,-15.53 -2.799,0 0,24.109 1.579,0 12.027,-15.835 1.867,-3.256 0.18,0 -0.396,3.256 0,15.462 2.801,0 0,-24.11 -1.58,0 L 0,0 Z"
             style="fill:#ffffff;fill-opacity:1;fill-rule:nonzero;stroke:none"
             id="path4744"
             inkscape:connector-curvature="0" /></g><path
           d="m 610.708,398.055 2.981,0 0,-23.736 -2.981,0 0,23.736 z"
           style="fill:#ffffff;fill-opacity:1;fill-rule:nonzero;stroke:none"
           id="path4746"
           inkscape:connector-curvature="0" /><g
           id="g4748"
           transform="translate(636.7012,395.5454)"><path
             d="m 0,0 -7.826,0 0,-21.227 -2.981,0 0,21.227 -7.826,0 0,2.51 L 0,2.51 0,0 Z"
             style="fill:#ffffff;fill-opacity:1;fill-rule:nonzero;stroke:none"
             id="path4750"
             inkscape:connector-curvature="0" /></g><g
           id="g4752"
           transform="translate(645.498,383.7456)"><path
             d="m 0,0 -8.293,14.31 3.482,0 5.888,-10.377 0.621,-2.068 0.036,0 0.659,2.136 5.649,10.309 3.16,0 -8.223,-14.277 0,-9.46 L 0,-9.427 0,0 Z"
             style="fill:#ffffff;fill-opacity:1;fill-rule:nonzero;stroke:none"
             id="path4754"
             inkscape:connector-curvature="0" /></g><g
           id="g4756"
           transform="translate(594.8135,360.583)"><path
             d="m 0,0 11.74,0 0,-3.046 -8.117,0 0,-4.321 7.536,0 0,-3.046 -7.536,0 0,-7.068 -3.623,0 L 0,0 Z"
             style="fill:#ffffff;fill-opacity:1;fill-rule:nonzero;stroke:none"
             id="path4758"
             inkscape:connector-curvature="0" /></g><g
           id="g4760"
           transform="translate(619.5625,360.583)"><path
             d="m 0,0 3.438,0 0,-11.188 c 0,-1.132 -0.159,-2.11 -0.475,-2.934 -0.317,-0.824 -0.764,-1.507 -1.336,-2.048 -0.573,-0.541 -1.257,-0.945 -2.05,-1.211 -0.793,-0.266 -1.665,-0.4 -2.617,-0.4 -2.292,0 -3.988,0.525 -5.091,1.573 -1.101,1.049 -1.652,2.581 -1.652,4.596 l 0,11.612 3.623,0 0,-10.938 c 0,-1.332 0.256,-2.298 0.766,-2.897 0.511,-0.599 1.313,-0.899 2.407,-0.899 1.058,0 1.82,0.32 2.288,0.962 0.467,0.64 0.699,1.585 0.699,2.834 L 0,0 Z"
             style="fill:#ffffff;fill-opacity:1;fill-rule:nonzero;stroke:none"
             id="path4762"
             inkscape:connector-curvature="0" /></g><g
           id="g4764"
           transform="translate(629.2148,353.4404)"><path
             d="m 0,0 -0.133,0 0.159,-2.072 0,-8.266 -3.436,0 0,17.481 3.172,0 6.399,-10.689 0.132,0 -0.237,2.098 0,8.591 3.437,0 0,-17.481 -3.174,0 L 0,0 Z"
             style="fill:#ffffff;fill-opacity:1;fill-rule:nonzero;stroke:none"
             id="path4766"
             inkscape:connector-curvature="0" /></g><g
           id="g4768"
           transform="translate(646.8242,357.7861)"><path
             d="M 0,0 C -0.335,0 -0.66,-0.012 -0.978,-0.037 -1.295,-0.062 -1.533,-0.083 -1.692,-0.1 l 0,-11.712 c 0.071,-0.017 0.176,-0.03 0.318,-0.038 0.141,-0.008 0.285,-0.017 0.436,-0.025 0.149,-0.008 0.294,-0.016 0.436,-0.025 0.142,-0.008 0.256,-0.012 0.344,-0.012 1.022,0 1.838,0.179 2.445,0.537 0.608,0.357 1.063,0.828 1.362,1.411 0.3,0.583 0.494,1.24 0.581,1.973 0.089,0.732 0.134,1.465 0.134,2.198 0,0.632 -0.04,1.29 -0.12,1.972 C 4.165,-3.138 3.979,-2.514 3.689,-1.948 3.398,-1.382 2.962,-0.916 2.381,-0.549 1.799,-0.183 1.006,0 0,0 m -5.313,2.797 c 0.158,0.016 0.435,0.041 0.832,0.075 0.396,0.033 0.845,0.063 1.348,0.087 0.502,0.025 1.022,0.046 1.56,0.063 0.538,0.017 1.018,0.025 1.441,0.025 1.639,0 2.997,-0.224 4.072,-0.674 1.076,-0.45 1.926,-1.07 2.552,-1.861 0.625,-0.791 1.063,-1.723 1.309,-2.797 0.247,-1.073 0.37,-2.243 0.37,-3.508 0,-1.149 -0.123,-2.273 -0.37,-3.372 -0.246,-1.099 -0.692,-2.077 -1.334,-2.935 -0.645,-0.857 -1.534,-1.548 -2.672,-2.072 -1.138,-0.525 -2.596,-0.787 -4.376,-0.787 -0.282,0 -0.644,0.009 -1.084,0.025 -0.441,0.017 -0.891,0.038 -1.349,0.062 -0.459,0.026 -0.899,0.051 -1.321,0.076 -0.424,0.025 -0.75,0.054 -0.978,0.087 l 0,17.506 z"
             style="fill:#ffffff;fill-opacity:1;fill-rule:nonzero;stroke:none"
             id="path4770"
             inkscape:connector-curvature="0" /></g><g
           id="g4772"
           transform="translate(460.9492,367.5596)"><path
             d="M 0,0 195.515,0"
             style="fill:#ffffff;fill-opacity:1;fill-rule:nonzero;stroke:#ffffff;stroke-width:4;stroke-linecap:butt;stroke-linejoin:miter;stroke-miterlimit:10;stroke-dasharray:none;stroke-opacity:1"
             id="path4774"
             inkscape:connector-curvature="0" /></g><g
           id="g4776"
           transform="translate(775.2295,372.2124)"><path
             d="M 0,0 C 0.611,1.983 0.4,4.061 -0.965,5.996 -19.091,31.645 -23.123,66.227 -29.714,95.281 -2.317,90.402 18.41,67.714 18.41,40.446 18.41,24.523 11.333,10.169 0,0 m -40.747,-15.375 c -14.549,0 -27.861,4.965 -38.164,13.185 5.31,11.519 11.197,22.968 17.216,34.399 1.44,0.198 2.568,0.353 3.156,0.454 6.217,1.056 12.539,1.867 18.767,2.956 1.518,-0.305 3.317,-0.13 5.135,0.8 1.543,-10.608 3.309,-21.155 5.344,-31.591 -0.125,-0.433 -0.307,-0.855 -0.32,-1.313 -0.01,-0.359 -0.025,-0.721 -0.034,-1.079 -0.158,-4.957 2.079,-8.592 8.223,-10.583 0.558,-0.181 1.113,-0.361 1.671,-0.541 1.87,-0.607 3.825,-0.791 5.752,-0.651 -8.035,-3.85 -17.117,-6.036 -26.746,-6.036 m -59.158,55.821 c 0,30.526 25.975,55.313 58.201,55.797 -0.105,-0.411 -0.125,-0.843 -0.041,-1.292 -0.026,0.002 -0.044,0.005 -0.07,0.005 0.131,-1.192 0.27,-2.39 0.402,-3.582 -1.685,-3.858 -5.502,-13.763 -4.929,-12.457 -3.9,-8.863 -8.787,-17.605 -13.085,-26.388 -2.387,-4.876 -4.663,-9.777 -6.984,-14.666 -0.884,-0.222 -1.777,-0.425 -2.66,-0.656 -4.908,-1.289 -18.593,-3.688 -18.087,-9.123 0.201,-2.189 4.759,-2.463 5.781,-0.32 0.581,1.213 6.164,2.373 11.716,3.274 -4.594,-9.813 -9.097,-19.644 -13.486,-29.499 -10.364,10.055 -16.758,23.773 -16.758,38.907 m 64.009,4.942 c -0.771,-0.168 -1.464,-0.352 -2.086,-0.555 -6.427,-1.842 -13.029,-3.34 -19.613,-4.854 6.157,11.629 12.303,23.256 18.045,34.923 1.129,-9.824 2.322,-19.679 3.654,-29.514 m -187.21,5.469 0.091,21.202 10.015,-0.037 10.962,-21.165 -21.068,0 z m 0.205,48.189 9.097,-0.034 c 3.748,-0.014 6.532,-0.224 8.353,-0.627 1.82,-0.404 3.349,-1.352 4.587,-2.849 1.236,-1.496 1.85,-3.323 1.842,-5.48 -0.011,-2.539 -0.633,-4.561 -1.865,-6.062 -1.235,-1.502 -2.814,-2.497 -4.742,-2.981 -1.926,-0.484 -4.918,-0.719 -8.971,-0.704 l -8.38,0.031 0.079,18.706 z m -76.126,-48.189 5.071,13.801 25.607,-0.094 4.769,-13.707 -35.447,0 z m 17.722,49.214 0.97,-0.003 9.342,-27.736 -20.279,0.075 9.967,27.664 z m 238.787,10.686 c -33.582,0 -61.42,-25.939 -66.61,-59.9 l -16.677,0 -20.86,24.94 21.983,22.884 7.564,-0.028 0.034,8.28 -27.852,0.104 -0.033,-8.281 8.123,-0.03 -22.886,-22.881 20.411,-24.988 -20.878,0 0.206,47.955 9.148,-0.035 0.033,8.281 -28.769,0.108 -0.034,-8.281 8.892,-0.033 -0.207,-47.995 -20.088,0 -11.639,22.556 c 9.777,2.216 14.686,7.703 14.723,16.46 0.017,4.188 -1.126,7.691 -3.43,10.506 -2.304,2.818 -5.227,4.667 -8.764,5.555 -3.542,0.886 -8.325,1.338 -14.355,1.361 l -28.872,0.107 -0.037,-8.281 9.761,-0.036 -0.206,-48.228 -18.755,0 -19.15,49.179 8.884,-0.033 0.033,7.472 -36.334,0.134 -0.033,-7.471 8.592,-0.031 -19.184,-49.25 -11.012,0 0,-19.912 211.275,0 c 3.955,-35.432 32.433,-62.922 67.003,-62.922 37.271,0 67.486,31.952 67.486,71.367 0,39.415 -30.215,71.367 -67.486,71.367"
             style="fill:#ffffff;fill-opacity:1;fill-rule:nonzero;stroke:none"
             id="path4778"
             inkscape:connector-curvature="0" /></g><g
           id="g4780"
           transform="translate(477.6152,148.4951)"><path
             d="m 0,0 c -0.718,-0.521 -1.628,-0.882 -2.729,-1.085 -1.1,-0.204 -2.274,-0.306 -3.518,-0.306 -1.508,0 -2.921,0.245 -4.237,0.729 -1.316,0.486 -2.465,1.226 -3.447,2.222 -0.981,0.995 -1.759,2.265 -2.333,3.814 -0.574,1.549 -0.862,3.385 -0.862,5.511 0,2.215 0.318,4.095 0.952,5.644 0.633,1.55 1.472,2.816 2.513,3.8 1.042,0.983 2.208,1.699 3.501,2.151 1.293,0.454 2.608,0.679 3.948,0.679 1.437,0 2.609,-0.073 3.52,-0.22 0.909,-0.147 1.687,-0.345 2.333,-0.593 l -0.718,-2.509 c -1.149,0.542 -2.788,0.812 -4.918,0.812 -0.983,0 -1.951,-0.168 -2.909,-0.507 -0.957,-0.339 -1.813,-0.894 -2.567,-1.663 -0.754,-0.768 -1.358,-1.775 -1.812,-3.017 -0.456,-1.243 -0.684,-2.769 -0.684,-4.577 0,-1.627 0.216,-3.052 0.648,-4.273 0.43,-1.221 1.022,-2.239 1.777,-3.051 0.754,-0.815 1.64,-1.424 2.656,-1.832 1.018,-0.407 2.123,-0.612 3.321,-0.612 1.078,0 2.016,0.103 2.819,0.307 0.802,0.204 1.477,0.463 2.028,0.779 L 0,0 Z"
             style="fill:#ffffff;fill-opacity:1;fill-rule:nonzero;stroke:none"
             id="path4782"
             inkscape:connector-curvature="0" /></g><g
           id="g4784"
           transform="translate(483.2168,159.3799)"><path
             d="m 0,0 c 0,-1.312 0.138,-2.555 0.412,-3.731 0.275,-1.175 0.701,-2.21 1.275,-3.101 0.576,-0.895 1.311,-1.606 2.209,-2.138 0.897,-0.53 1.957,-0.798 3.177,-0.798 2.226,0 3.973,0.798 5.242,2.392 1.268,1.595 1.903,4.053 1.903,7.376 0,1.288 -0.138,2.525 -0.413,3.713 C 13.529,4.9 13.099,5.938 12.513,6.833 11.926,7.725 11.184,8.438 10.287,8.968 9.39,9.499 8.317,9.765 7.073,9.765 4.87,9.765 3.142,8.968 1.885,7.375 0.628,5.781 0,3.323 0,0 m -3.159,0 c 0,3.955 0.886,6.99 2.656,9.104 1.772,2.114 4.296,3.17 7.576,3.17 1.771,0 3.303,-0.294 4.595,-0.88 1.294,-0.589 2.363,-1.42 3.214,-2.494 0.849,-1.072 1.477,-2.363 1.885,-3.865 0.407,-1.504 0.61,-3.181 0.61,-5.035 0,-3.957 -0.892,-6.992 -2.675,-9.105 -1.782,-2.115 -4.326,-3.17 -7.629,-3.17 -1.748,0 -3.261,0.294 -4.542,0.88 -1.28,0.589 -2.345,1.419 -3.196,2.494 -0.849,1.072 -1.478,2.362 -1.884,3.866 -0.408,1.503 -0.61,3.181 -0.61,5.035"
             style="fill:#ffffff;fill-opacity:1;fill-rule:nonzero;stroke:none"
             id="path4786"
             inkscape:connector-curvature="0" /></g><g
           id="g4788"
           transform="translate(524.9717,163.4482)"><path
             d="m 0,0 0.358,3.561 -0.179,0 -1.364,-3.254 -6.534,-10.717 -0.897,0 -6.93,10.75 -1.292,3.221 -0.18,0 0.502,-3.527 0,-15.971 -2.799,0 0,23.736 2.226,0 7.862,-12.139 1.184,-2.645 0.073,0 1.113,2.714 7.503,12.07 2.333,0 0,-23.736 -2.979,0 L 0,0 Z"
             style="fill:#ffffff;fill-opacity:1;fill-rule:nonzero;stroke:none"
             id="path4790"
             inkscape:connector-curvature="0" /></g><g
           id="g4792"
           transform="translate(553.3711,163.4482)"><path
             d="m 0,0 0.359,3.561 -0.179,0 -1.365,-3.254 -6.534,-10.717 -0.898,0 -6.93,10.75 -1.292,3.221 -0.18,0 0.504,-3.527 0,-15.971 -2.8,0 0,23.736 2.225,0 7.863,-12.139 1.185,-2.645 0.071,0 1.114,2.714 7.503,12.07 2.334,0 0,-23.736 -2.98,0 L 0,0 Z"
             style="fill:#ffffff;fill-opacity:1;fill-rule:nonzero;stroke:none"
             id="path4794"
             inkscape:connector-curvature="0" /></g><g
           id="g4796"
           transform="translate(576.8877,171.2471)"><path
             d="m 0,0 2.872,0 0,-15.835 c 0,-1.425 -0.196,-2.656 -0.592,-3.695 -0.395,-1.041 -0.958,-1.895 -1.687,-2.561 -0.731,-0.667 -1.611,-1.16 -2.639,-1.475 -1.03,-0.316 -2.167,-0.475 -3.411,-0.475 -2.969,0 -5.206,0.633 -6.714,1.898 -1.509,1.267 -2.263,3.188 -2.263,5.765 l 0,16.378 2.982,0 0,-15.055 c 0,-1.199 0.125,-2.211 0.377,-3.036 0.251,-0.825 0.628,-1.491 1.13,-1.999 0.503,-0.51 1.132,-0.877 1.884,-1.102 0.754,-0.228 1.634,-0.34 2.64,-0.34 1.938,0 3.326,0.504 4.165,1.509 0.837,1.005 1.256,2.662 1.256,4.968 L 0,0 Z"
             style="fill:#ffffff;fill-opacity:1;fill-rule:nonzero;stroke:none"
             id="path4798"
             inkscape:connector-curvature="0" /></g><g
           id="g4800"
           transform="translate(590.3867,163.042)"><path
             d="m 0,0 -1.937,3.425 -0.144,0 0.358,-3.425 0,-15.53 -2.799,0 0,24.108 1.579,0 12.027,-15.835 1.867,-3.255 0.18,0 -0.396,3.255 0,15.462 2.801,0 0,-24.109 -1.58,0 L 0,0 Z"
             style="fill:#ffffff;fill-opacity:1;fill-rule:nonzero;stroke:none"
             id="path4802"
             inkscape:connector-curvature="0" /></g><path
           d="m 610.708,171.247 2.981,0 0,-23.735 -2.981,0 0,23.735 z"
           style="fill:#ffffff;fill-opacity:1;fill-rule:nonzero;stroke:none"
           id="path4804"
           inkscape:connector-curvature="0" /><g
           id="g4806"
           transform="translate(636.7012,168.7373)"><path
             d="m 0,0 -7.826,0 0,-21.226 -2.981,0 0,21.226 -7.826,0 0,2.51 L 0,2.51 0,0 Z"
             style="fill:#ffffff;fill-opacity:1;fill-rule:nonzero;stroke:none"
             id="path4808"
             inkscape:connector-curvature="0" /></g><g
           id="g4810"
           transform="translate(645.498,156.9385)"><path
             d="m 0,0 -8.293,14.309 3.482,0 5.888,-10.375 0.621,-2.069 0.036,0 0.659,2.136 5.649,10.308 3.16,0 -8.223,-14.275 0,-9.461 L 0,-9.427 0,0 Z"
             style="fill:#ffffff;fill-opacity:1;fill-rule:nonzero;stroke:none"
             id="path4812"
             inkscape:connector-curvature="0" /></g><g
           id="g4814"
           transform="translate(594.8135,133.7754)"><path
             d="m 0,0 11.74,0 0,-3.046 -8.117,0 0,-4.321 7.536,0 0,-3.046 -7.536,0 0,-7.067 L 0,-17.48 0,0 Z"
             style="fill:#ffffff;fill-opacity:1;fill-rule:nonzero;stroke:none"
             id="path4816"
             inkscape:connector-curvature="0" /></g><g
           id="g4818"
           transform="translate(619.5625,133.7754)"><path
             d="m 0,0 3.438,0 0,-11.188 c 0,-1.131 -0.159,-2.11 -0.475,-2.933 -0.317,-0.824 -0.764,-1.508 -1.336,-2.049 -0.573,-0.542 -1.257,-0.945 -2.05,-1.21 -0.793,-0.267 -1.665,-0.4 -2.617,-0.4 -2.292,0 -3.988,0.524 -5.091,1.573 -1.101,1.049 -1.652,2.581 -1.652,4.595 l 0,11.612 3.623,0 0,-10.938 c 0,-1.332 0.256,-2.297 0.766,-2.897 0.511,-0.599 1.313,-0.898 2.407,-0.898 1.058,0 1.82,0.32 2.288,0.961 0.467,0.64 0.699,1.585 0.699,2.834 L 0,0 Z"
             style="fill:#ffffff;fill-opacity:1;fill-rule:nonzero;stroke:none"
             id="path4820"
             inkscape:connector-curvature="0" /></g><g
           id="g4822"
           transform="translate(629.2148,126.6338)"><path
             d="m 0,0 -0.133,0 0.159,-2.073 0,-8.266 -3.436,0 0,17.481 3.172,0 6.399,-10.689 0.132,0 -0.237,2.098 0,8.591 3.437,0 0,-17.481 -3.174,0 L 0,0 Z"
             style="fill:#ffffff;fill-opacity:1;fill-rule:nonzero;stroke:none"
             id="path4824"
             inkscape:connector-curvature="0" /></g><g
           id="g4826"
           transform="translate(646.8242,130.9795)"><path
             d="m 0,0 c -0.335,0 -0.66,-0.013 -0.978,-0.037 -0.317,-0.025 -0.555,-0.048 -0.714,-0.064 l 0,-11.712 c 0.071,-0.017 0.176,-0.029 0.318,-0.037 0.141,-0.009 0.285,-0.017 0.436,-0.026 0.149,-0.008 0.294,-0.017 0.436,-0.024 0.142,-0.009 0.256,-0.013 0.344,-0.013 1.022,0 1.838,0.179 2.445,0.537 0.608,0.357 1.063,0.828 1.362,1.411 0.3,0.582 0.494,1.239 0.581,1.973 0.089,0.733 0.134,1.466 0.134,2.197 0,0.634 -0.04,1.29 -0.12,1.974 C 4.165,-3.139 3.979,-2.515 3.689,-1.948 3.398,-1.383 2.962,-0.917 2.381,-0.551 1.799,-0.184 1.006,0 0,0 m -5.313,2.796 c 0.158,0.017 0.435,0.042 0.832,0.075 0.396,0.033 0.845,0.064 1.348,0.088 0.502,0.024 1.022,0.045 1.56,0.062 0.538,0.017 1.018,0.026 1.441,0.026 1.639,0 2.997,-0.225 4.072,-0.674 1.076,-0.45 1.926,-1.071 2.552,-1.861 0.625,-0.792 1.063,-1.724 1.309,-2.797 0.247,-1.073 0.37,-2.244 0.37,-3.51 0,-1.148 -0.123,-2.272 -0.37,-3.37 -0.246,-1.1 -0.692,-2.077 -1.334,-2.936 -0.645,-0.857 -1.534,-1.546 -2.672,-2.071 -1.138,-0.524 -2.596,-0.788 -4.376,-0.788 -0.282,0 -0.644,0.009 -1.084,0.025 -0.441,0.017 -0.891,0.038 -1.349,0.063 -0.459,0.025 -0.899,0.05 -1.321,0.075 -0.424,0.026 -0.75,0.054 -0.978,0.086 l 0,17.507 z"
             style="fill:#ffffff;fill-opacity:1;fill-rule:nonzero;stroke:none"
             id="path4828"
             inkscape:connector-curvature="0" /></g><g
           id="g4830"
           transform="translate(460.9492,140.752)"><path
             d="M 0,0 195.515,0"
             style="fill:#ffffff;fill-opacity:1;fill-rule:nonzero;stroke:#ffffff;stroke-width:4;stroke-linecap:butt;stroke-linejoin:miter;stroke-miterlimit:10;stroke-dasharray:none;stroke-opacity:1"
             id="path4832"
             inkscape:connector-curvature="0" /></g><g
           id="g4834"
           transform="translate(775.2295,145.4043)"><path
             d="M 0,0 C 0.611,1.984 0.4,4.062 -0.965,5.996 -19.091,31.645 -23.123,66.228 -29.714,95.282 -2.317,90.402 18.41,67.715 18.41,40.446 18.41,24.523 11.333,10.169 0,0 Z m -40.747,-15.374 c -14.549,0 -27.861,4.965 -38.164,13.185 5.31,11.518 11.197,22.967 17.216,34.399 1.44,0.198 2.568,0.353 3.156,0.453 6.217,1.057 12.539,1.867 18.767,2.956 1.518,-0.304 3.317,-0.13 5.135,0.8 1.543,-10.607 3.309,-21.155 5.344,-31.59 -0.125,-0.434 -0.307,-0.855 -0.32,-1.313 -0.01,-0.36 -0.025,-0.72 -0.034,-1.079 -0.158,-4.958 2.079,-8.592 8.223,-10.583 0.558,-0.181 1.113,-0.362 1.671,-0.542 1.87,-0.607 3.825,-0.79 5.752,-0.65 -8.035,-3.85 -17.117,-6.036 -26.746,-6.036 z m -59.158,55.82 c 0,30.527 25.975,55.314 58.201,55.797 -0.105,-0.41 -0.125,-0.843 -0.041,-1.292 -0.026,0.002 -0.044,0.006 -0.07,0.006 0.131,-1.191 0.27,-2.39 0.402,-3.583 -1.685,-3.857 -5.502,-13.763 -4.929,-12.456 -3.9,-8.863 -8.787,-17.605 -13.085,-26.388 -2.387,-4.877 -4.663,-9.777 -6.984,-14.667 -0.884,-0.221 -1.777,-0.425 -2.66,-0.656 -4.908,-1.288 -18.593,-3.687 -18.087,-9.122 0.201,-2.189 4.759,-2.462 5.781,-0.32 0.581,1.213 6.164,2.373 11.716,3.273 -4.594,-9.812 -9.097,-19.643 -13.486,-29.499 -10.364,10.055 -16.758,23.773 -16.758,38.907 z m 64.009,4.943 c -0.771,-0.169 -1.464,-0.353 -2.086,-0.555 -6.427,-1.842 -13.029,-3.341 -19.613,-4.855 6.157,11.63 12.303,23.256 18.045,34.924 1.129,-9.824 2.322,-19.679 3.654,-29.514 z m -187.21,5.469 0.091,21.201 10.015,-0.037 10.962,-21.164 -21.068,0 z m 0.205,48.19 9.097,-0.035 c 3.748,-0.015 6.532,-0.224 8.353,-0.627 1.82,-0.405 3.349,-1.353 4.587,-2.849 1.236,-1.497 1.85,-3.323 1.842,-5.48 -0.011,-2.54 -0.633,-4.561 -1.865,-6.063 -1.235,-1.502 -2.814,-2.495 -4.742,-2.98 -1.926,-0.485 -4.918,-0.718 -8.971,-0.704 l -8.38,0.031 0.079,18.707 z m -76.126,-48.19 5.071,13.801 25.607,-0.095 4.769,-13.706 -35.447,0 z m 17.722,49.213 0.97,-0.002 9.342,-27.736 -20.279,0.075 9.967,27.663 z m 238.787,10.687 c -33.582,0 -61.42,-25.94 -66.61,-59.9 l -16.677,0 -20.86,24.94 21.983,22.883 7.564,-0.028 0.034,8.281 -27.852,0.104 -0.033,-8.281 8.123,-0.03 -22.886,-22.88 20.411,-24.989 -20.878,0 0.206,47.954 9.148,-0.034 0.033,8.281 -28.769,0.108 -0.034,-8.281 8.892,-0.033 -0.207,-47.995 -20.088,0 -11.639,22.556 c 9.777,2.216 14.686,7.702 14.723,16.459 0.017,4.189 -1.126,7.691 -3.43,10.507 -2.304,2.817 -5.227,4.668 -8.764,5.555 -3.542,0.885 -8.325,1.337 -14.355,1.361 l -28.872,0.106 -0.037,-8.279 9.761,-0.037 -0.206,-48.228 -18.755,0 -19.15,49.179 8.884,-0.033 0.033,7.472 -36.334,0.134 -0.033,-7.471 8.592,-0.032 -19.184,-49.249 -11.012,0 0,-19.913 211.275,0 c 3.955,-35.431 32.433,-62.92 67.003,-62.92 37.271,0 67.486,31.952 67.486,71.367 0,39.413 -30.215,71.366 -67.486,71.366 z"
             style="fill:none;stroke:#ffffff;stroke-width:3;stroke-linecap:butt;stroke-linejoin:miter;stroke-miterlimit:10;stroke-dasharray:none;stroke-opacity:1"
             id="path4836"
             inkscape:connector-curvature="0" /></g><g
           id="g4838"
           transform="translate(411.0957,54.1611)"><path
             d="m 0,0 c 0,-6.378 -5.171,-11.549 -11.549,-11.549 l -359.298,0 c -6.378,0 -11.549,5.171 -11.549,11.549 l 0,488.903 c 0,6.378 5.171,11.549 11.549,11.549 l 359.298,0 C -5.171,500.452 0,495.281 0,488.903 L 0,0 Z"
             style="fill:#c8c9cb;fill-opacity:1;fill-rule:nonzero;stroke:none"
             id="path4840"
             inkscape:connector-curvature="0" /></g><g
           id="g4842"
           transform="translate(69.7446,379.1519)"><path
             d="m 0,0 c -0.718,-0.521 -1.627,-0.882 -2.728,-1.085 -1.102,-0.204 -2.274,-0.306 -3.519,-0.306 -1.507,0 -2.92,0.244 -4.237,0.729 -1.315,0.486 -2.465,1.227 -3.446,2.222 -0.981,0.994 -1.759,2.266 -2.334,3.815 -0.574,1.547 -0.861,3.384 -0.861,5.51 0,2.215 0.317,4.097 0.952,5.645 0.633,1.549 1.471,2.815 2.513,3.799 1.041,0.983 2.207,1.7 3.5,2.153 1.293,0.452 2.609,0.678 3.949,0.678 1.436,0 2.609,-0.074 3.519,-0.221 0.909,-0.147 1.688,-0.344 2.333,-0.593 l -0.718,-2.509 c -1.148,0.542 -2.788,0.813 -4.918,0.813 -0.982,0 -1.951,-0.169 -2.909,-0.508 -0.958,-0.339 -1.813,-0.893 -2.566,-1.662 -0.755,-0.769 -1.36,-1.774 -1.814,-3.018 -0.454,-1.243 -0.682,-2.769 -0.682,-4.577 0,-1.628 0.216,-3.052 0.647,-4.273 0.43,-1.221 1.023,-2.238 1.777,-3.052 0.754,-0.814 1.639,-1.424 2.656,-1.831 1.018,-0.407 2.124,-0.61 3.322,-0.61 1.077,0 2.016,0.102 2.818,0.305 0.802,0.203 1.477,0.463 2.028,0.78 L 0,0 Z"
             style="fill:#606163;fill-opacity:1;fill-rule:nonzero;stroke:none"
             id="path4844"
             inkscape:connector-curvature="0" /></g><g
           id="g4846"
           transform="translate(75.3462,390.0366)"><path
             d="m 0,0 c 0,-1.312 0.138,-2.555 0.413,-3.73 0.275,-1.176 0.7,-2.21 1.274,-3.103 0.576,-0.893 1.312,-1.605 2.209,-2.136 0.897,-0.531 1.957,-0.797 3.177,-0.797 2.226,0 3.973,0.797 5.242,2.391 1.269,1.594 1.904,4.052 1.904,7.375 0,1.289 -0.139,2.526 -0.414,3.713 C 13.529,4.9 13.099,5.939 12.513,6.833 11.926,7.725 11.185,8.438 10.287,8.969 9.389,9.5 8.318,9.766 7.073,9.766 4.871,9.766 3.142,8.969 1.886,7.375 0.628,5.781 0,3.323 0,0 m -3.159,0 c 0,3.956 0.885,6.991 2.656,9.104 1.772,2.114 4.297,3.171 7.576,3.171 1.771,0 3.303,-0.294 4.596,-0.881 1.293,-0.589 2.363,-1.419 3.213,-2.493 0.849,-1.074 1.478,-2.362 1.885,-3.865 0.407,-1.505 0.61,-3.182 0.61,-5.036 0,-3.957 -0.892,-6.992 -2.675,-9.104 -1.783,-2.115 -4.326,-3.171 -7.629,-3.171 -1.748,0 -3.261,0.294 -4.542,0.881 -1.281,0.588 -2.345,1.418 -3.195,2.493 -0.85,1.073 -1.479,2.361 -1.885,3.865 -0.407,1.504 -0.61,3.182 -0.61,5.036"
             style="fill:#606163;fill-opacity:1;fill-rule:nonzero;stroke:none"
             id="path4848"
             inkscape:connector-curvature="0" /></g><g
           id="g4850"
           transform="translate(117.1011,394.1055)"><path
             d="m 0,0 0.359,3.561 -0.179,0 -1.364,-3.256 -6.535,-10.715 -0.897,0 -6.93,10.749 -1.292,3.222 -0.18,0 0.503,-3.527 0,-15.972 -2.801,0 0,23.737 2.227,0 7.862,-12.139 1.185,-2.645 0.072,0 1.113,2.713 7.504,12.071 2.333,0 0,-23.737 -2.98,0 L 0,0 Z"
             style="fill:#606163;fill-opacity:1;fill-rule:nonzero;stroke:none"
             id="path4852"
             inkscape:connector-curvature="0" /></g><g
           id="g4854"
           transform="translate(145.5005,394.1055)"><path
             d="m 0,0 0.359,3.561 -0.179,0 -1.364,-3.256 -6.535,-10.715 -0.898,0 -6.929,10.749 -1.292,3.222 -0.18,0 0.503,-3.527 0,-15.972 -2.8,0 0,23.737 2.226,0 7.863,-12.139 1.184,-2.645 0.072,0 1.113,2.713 7.503,12.071 2.334,0 0,-23.737 -2.98,0 L 0,0 Z"
             style="fill:#606163;fill-opacity:1;fill-rule:nonzero;stroke:none"
             id="path4856"
             inkscape:connector-curvature="0" /></g><g
           id="g4858"
           transform="translate(169.0176,401.9048)"><path
             d="m 0,0 2.872,0 0,-15.835 c 0,-1.425 -0.197,-2.657 -0.592,-3.697 -0.395,-1.04 -0.958,-1.894 -1.688,-2.56 -0.73,-0.667 -1.61,-1.158 -2.638,-1.475 -1.03,-0.316 -2.167,-0.475 -3.412,-0.475 -2.968,0 -5.205,0.633 -6.713,1.899 -1.508,1.266 -2.263,3.187 -2.263,5.765 l 0,16.378 2.981,0 0,-15.056 c 0,-1.198 0.126,-2.21 0.377,-3.035 0.251,-0.825 0.628,-1.492 1.131,-2 0.503,-0.509 1.131,-0.877 1.884,-1.102 0.755,-0.226 1.635,-0.339 2.64,-0.339 1.938,0 3.326,0.502 4.164,1.508 0.838,1.006 1.257,2.662 1.257,4.968 L 0,0 Z"
             style="fill:#606163;fill-opacity:1;fill-rule:nonzero;stroke:none"
             id="path4860"
             inkscape:connector-curvature="0" /></g><g
           id="g4862"
           transform="translate(182.5166,393.6987)"><path
             d="m 0,0 -1.938,3.425 -0.144,0 0.359,-3.425 0,-15.531 -2.8,0 0,24.11 1.579,0 12.028,-15.836 1.867,-3.255 0.18,0 -0.395,3.255 0,15.463 2.8,0 0,-24.11 -1.58,0 L 0,0 Z"
             style="fill:#606163;fill-opacity:1;fill-rule:nonzero;stroke:none"
             id="path4864"
             inkscape:connector-curvature="0" /></g><path
           d="m 202.838,401.905 2.98,0 0,-23.737 -2.98,0 0,23.737 z"
           style="fill:#606163;fill-opacity:1;fill-rule:nonzero;stroke:none"
           id="path4866"
           inkscape:connector-curvature="0" /><g
           id="g4868"
           transform="translate(228.8311,399.395)"><path
             d="m 0,0 -7.827,0 0,-21.227 -2.98,0 0,21.227 -7.826,0 0,2.51 L 0,2.51 0,0 Z"
             style="fill:#606163;fill-opacity:1;fill-rule:nonzero;stroke:none"
             id="path4870"
             inkscape:connector-curvature="0" /></g><g
           id="g4872"
           transform="translate(237.6279,387.5947)"><path
             d="m 0,0 -8.294,14.31 3.482,0 5.889,-10.376 0.621,-2.069 0.036,0 0.659,2.136 5.649,10.309 3.16,0 L 2.98,0.034 2.98,-9.427 0,-9.427 0,0 Z"
             style="fill:#606163;fill-opacity:1;fill-rule:nonzero;stroke:none"
             id="path4874"
             inkscape:connector-curvature="0" /></g><g
           id="g4876"
           transform="translate(186.9434,364.4331)"><path
             d="m 0,0 11.741,0 0,-3.047 -8.118,0 0,-4.32 7.536,0 0,-3.047 -7.536,0 0,-7.067 -3.623,0 L 0,0 Z"
             style="fill:#606163;fill-opacity:1;fill-rule:nonzero;stroke:none"
             id="path4878"
             inkscape:connector-curvature="0" /></g><g
           id="g4880"
           transform="translate(211.6924,364.4331)"><path
             d="m 0,0 3.438,0 0,-11.188 c 0,-1.133 -0.159,-2.11 -0.476,-2.935 -0.317,-0.824 -0.763,-1.506 -1.335,-2.047 -0.573,-0.542 -1.257,-0.945 -2.05,-1.212 -0.793,-0.266 -1.665,-0.399 -2.618,-0.399 -2.291,0 -3.988,0.524 -5.089,1.573 -1.102,1.049 -1.653,2.581 -1.653,4.595 l 0,11.613 3.622,0 0,-10.938 c 0,-1.333 0.256,-2.298 0.767,-2.897 0.512,-0.6 1.313,-0.899 2.406,-0.899 1.058,0 1.821,0.32 2.288,0.961 0.467,0.641 0.7,1.586 0.7,2.835 L 0,0 Z"
             style="fill:#606163;fill-opacity:1;fill-rule:nonzero;stroke:none"
             id="path4882"
             inkscape:connector-curvature="0" /></g><g
           id="g4884"
           transform="translate(221.3447,357.2905)"><path
             d="m 0,0 -0.133,0 0.159,-2.073 0,-8.266 -3.437,0 0,17.482 3.173,0 6.399,-10.689 0.132,0 -0.238,2.097 0,8.592 3.437,0 0,-17.482 -3.173,0 L 0,0 Z"
             style="fill:#606163;fill-opacity:1;fill-rule:nonzero;stroke:none"
             id="path4886"
             inkscape:connector-curvature="0" /></g><g
           id="g4888"
           transform="translate(238.9546,361.6357)"><path
             d="M 0,0 C -0.335,0 -0.662,-0.012 -0.979,-0.037 -1.296,-0.062 -1.534,-0.083 -1.693,-0.1 l 0,-11.712 c 0.071,-0.017 0.176,-0.029 0.318,-0.038 0.141,-0.008 0.286,-0.017 0.436,-0.025 0.149,-0.008 0.295,-0.017 0.437,-0.025 0.14,-0.008 0.255,-0.012 0.343,-0.012 1.022,0 1.838,0.179 2.446,0.537 0.608,0.358 1.062,0.828 1.361,1.411 0.3,0.583 0.494,1.24 0.582,1.972 0.089,0.733 0.133,1.466 0.133,2.198 0,0.633 -0.04,1.29 -0.119,1.973 -0.08,0.683 -0.265,1.307 -0.556,1.873 -0.29,0.566 -0.727,1.032 -1.309,1.399 C 1.798,-0.183 1.005,0 0,0 m -5.315,2.797 c 0.159,0.016 0.436,0.041 0.833,0.076 0.396,0.032 0.846,0.062 1.348,0.086 0.503,0.026 1.022,0.046 1.56,0.063 0.538,0.017 1.019,0.025 1.441,0.025 1.64,0 2.997,-0.225 4.073,-0.674 1.075,-0.45 1.926,-1.07 2.552,-1.861 0.625,-0.79 1.061,-1.723 1.308,-2.797 0.247,-1.073 0.37,-2.243 0.37,-3.509 0,-1.148 -0.123,-2.272 -0.37,-3.371 -0.247,-1.099 -0.692,-2.077 -1.335,-2.935 -0.644,-0.858 -1.534,-1.548 -2.671,-2.073 -1.137,-0.524 -2.596,-0.786 -4.376,-0.786 -0.282,0 -0.644,0.009 -1.084,0.025 -0.441,0.017 -0.891,0.038 -1.349,0.062 -0.459,0.026 -0.899,0.051 -1.321,0.076 -0.423,0.025 -0.75,0.054 -0.979,0.087 l 0,17.506 z"
             style="fill:#606163;fill-opacity:1;fill-rule:nonzero;stroke:none"
             id="path4890"
             inkscape:connector-curvature="0" /></g><g
           id="g4892"
           transform="translate(53.0796,371.4097)"><path
             d="M 0,0 195.514,0"
             style="fill:#606163;fill-opacity:1;fill-rule:nonzero;stroke:#565658;stroke-width:3;stroke-linecap:butt;stroke-linejoin:miter;stroke-miterlimit:10;stroke-dasharray:none;stroke-opacity:1"
             id="path4894"
             inkscape:connector-curvature="0" /></g><g
           id="g4896"
           transform="translate(367.3589,376.062)"><path
             d="M 0,0 C 0.612,1.984 0.401,4.061 -0.964,5.996 -19.09,31.645 -23.123,66.227 -29.713,95.281 -2.318,90.402 18.41,67.714 18.41,40.445 18.41,24.523 11.333,10.169 0,0 m -40.747,-15.374 c -14.548,0 -27.861,4.964 -38.164,13.184 5.31,11.519 11.197,22.968 17.216,34.399 1.44,0.198 2.568,0.354 3.156,0.453 6.217,1.057 12.539,1.867 18.767,2.957 1.519,-0.305 3.318,-0.13 5.136,0.8 1.543,-10.608 3.308,-21.155 5.344,-31.591 -0.125,-0.434 -0.307,-0.855 -0.321,-1.313 -0.01,-0.359 -0.024,-0.721 -0.034,-1.079 -0.158,-4.957 2.079,-8.592 8.224,-10.583 0.557,-0.181 1.113,-0.361 1.67,-0.541 1.87,-0.607 3.825,-0.791 5.752,-0.651 -8.035,-3.85 -17.118,-6.035 -26.746,-6.035 m -59.157,55.819 c 0,30.526 25.974,55.313 58.201,55.798 -0.106,-0.411 -0.126,-0.843 -0.042,-1.292 -0.026,0.002 -0.044,0.004 -0.07,0.005 0.132,-1.191 0.27,-2.39 0.402,-3.582 -1.684,-3.857 -5.502,-13.763 -4.929,-12.457 -3.901,-8.863 -8.786,-17.605 -13.085,-26.388 -2.387,-4.877 -4.662,-9.777 -6.984,-14.666 -0.883,-0.222 -1.777,-0.425 -2.661,-0.656 -4.907,-1.288 -18.592,-3.687 -18.086,-9.122 0.201,-2.19 4.759,-2.464 5.782,-0.321 0.58,1.213 6.163,2.373 11.715,3.274 -4.594,-9.813 -9.097,-19.644 -13.486,-29.499 -10.363,10.054 -16.757,23.773 -16.757,38.906 m 64.008,4.943 c -0.771,-0.168 -1.464,-0.352 -2.086,-0.555 -6.427,-1.842 -13.029,-3.34 -19.613,-4.854 6.157,11.629 12.303,23.256 18.045,34.924 1.129,-9.824 2.322,-19.68 3.654,-29.515 m -187.21,5.469 0.092,21.201 10.014,-0.037 10.961,-21.164 -21.067,0 z m 0.205,48.189 9.097,-0.034 c 3.748,-0.014 6.532,-0.224 8.353,-0.627 1.82,-0.404 3.349,-1.353 4.587,-2.849 1.236,-1.497 1.85,-3.323 1.842,-5.48 -0.011,-2.539 -0.633,-4.56 -1.865,-6.062 -1.234,-1.502 -2.814,-2.496 -4.742,-2.981 -1.926,-0.484 -4.918,-0.719 -8.971,-0.704 l -8.38,0.031 0.079,18.706 z m -76.126,-48.189 5.072,13.801 25.607,-0.094 4.769,-13.707 -35.448,0 z m 17.722,49.214 0.97,-0.003 9.341,-27.735 -20.277,0.075 9.966,27.663 z m 238.787,10.685 c -33.581,0 -61.42,-25.938 -66.609,-59.899 l -16.678,0 -20.86,24.94 21.983,22.884 7.564,-0.028 0.034,8.28 -27.851,0.104 -0.034,-8.281 8.124,-0.03 -22.887,-22.881 20.411,-24.988 -20.877,0 0.205,47.955 9.148,-0.035 0.033,8.281 -28.769,0.108 -0.035,-8.281 8.893,-0.033 -0.207,-47.995 -20.087,0 -11.64,22.556 c 9.777,2.217 14.686,7.703 14.723,16.46 0.017,4.188 -1.126,7.691 -3.43,10.507 -2.303,2.817 -5.226,4.667 -8.764,5.554 -3.541,0.885 -8.325,1.338 -14.355,1.361 l -28.872,0.107 -0.036,-8.28 9.76,-0.037 -0.205,-48.228 -18.755,0 -19.152,49.179 8.885,-0.033 0.033,7.472 -36.334,0.134 -0.033,-7.471 8.592,-0.032 -19.184,-49.249 -11.012,0 0,-19.913 211.276,0 c 3.954,-35.431 32.432,-62.921 67.002,-62.921 37.27,0 67.487,31.952 67.487,71.367 0,39.415 -30.217,71.366 -67.487,71.366"
             style="fill:#606163;fill-opacity:1;fill-rule:nonzero;stroke:none"
             id="path4898"
             inkscape:connector-curvature="0" /></g><g
           id="g4900"
           transform="translate(69.7446,152.3437)"><path
             d="m 0,0 c -0.718,-0.521 -1.627,-0.881 -2.728,-1.084 -1.102,-0.204 -2.274,-0.307 -3.519,-0.307 -1.507,0 -2.92,0.245 -4.237,0.73 -1.315,0.486 -2.465,1.226 -3.446,2.222 -0.981,0.994 -1.759,2.264 -2.334,3.814 -0.574,1.549 -0.861,3.385 -0.861,5.512 0,2.214 0.317,4.095 0.952,5.643 0.633,1.549 1.471,2.816 2.513,3.799 1.041,0.984 2.207,1.701 3.5,2.153 1.293,0.453 2.609,0.678 3.949,0.678 1.436,0 2.609,-0.073 3.519,-0.22 0.909,-0.147 1.688,-0.345 2.333,-0.593 l -0.718,-2.51 c -1.148,0.544 -2.788,0.814 -4.918,0.814 -0.982,0 -1.951,-0.17 -2.909,-0.508 -0.958,-0.34 -1.813,-0.894 -2.566,-1.663 -0.755,-0.767 -1.36,-1.774 -1.814,-3.016 -0.454,-1.245 -0.682,-2.77 -0.682,-4.577 0,-1.629 0.216,-3.054 0.647,-4.273 0.43,-1.222 1.023,-2.239 1.777,-3.053 0.754,-0.814 1.639,-1.424 2.656,-1.832 1.018,-0.406 2.124,-0.61 3.322,-0.61 1.077,0 2.016,0.102 2.818,0.306 0.802,0.204 1.477,0.464 2.028,0.779 L 0,0 Z"
             style="fill:#606163;fill-opacity:1;fill-rule:nonzero;stroke:none"
             id="path4902"
             inkscape:connector-curvature="0" /></g><g
           id="g4904"
           transform="translate(75.3462,163.2305)"><path
             d="m 0,0 c 0,-1.312 0.138,-2.557 0.413,-3.732 0.275,-1.174 0.7,-2.209 1.274,-3.102 0.576,-0.893 1.312,-1.605 2.209,-2.137 0.897,-0.531 1.957,-0.797 3.177,-0.797 2.226,0 3.973,0.797 5.242,2.391 1.269,1.594 1.904,4.053 1.904,7.377 0,1.287 -0.139,2.524 -0.414,3.712 -0.276,1.186 -0.706,2.226 -1.292,3.12 C 11.926,7.725 11.185,8.437 10.287,8.968 9.389,9.498 8.318,9.765 7.073,9.765 4.871,9.765 3.142,8.968 1.886,7.373 0.628,5.78 0,3.321 0,0 m -3.159,0 c 0,3.954 0.885,6.99 2.656,9.103 1.772,2.115 4.297,3.17 7.576,3.17 1.771,0 3.303,-0.294 4.596,-0.881 1.293,-0.588 2.363,-1.418 3.213,-2.493 0.849,-1.073 1.478,-2.362 1.885,-3.865 0.407,-1.504 0.61,-3.181 0.61,-5.034 0,-3.958 -0.892,-6.993 -2.675,-9.105 -1.783,-2.116 -4.326,-3.172 -7.629,-3.172 -1.748,0 -3.261,0.295 -4.542,0.881 -1.281,0.588 -2.345,1.42 -3.195,2.493 -0.85,1.074 -1.479,2.363 -1.885,3.866 -0.407,1.503 -0.61,3.182 -0.61,5.037"
             style="fill:#606163;fill-opacity:1;fill-rule:nonzero;stroke:none"
             id="path4906"
             inkscape:connector-curvature="0" /></g><g
           id="g4908"
           transform="translate(117.1011,167.2979)"><path
             d="m 0,0 0.359,3.561 -0.179,0 -1.364,-3.255 -6.535,-10.716 -0.897,0 -6.93,10.75 -1.292,3.221 -0.18,0 0.503,-3.527 0,-15.971 -2.801,0 0,23.737 2.227,0 7.862,-12.141 1.185,-2.644 0.072,0 1.113,2.713 7.504,12.072 2.333,0 0,-23.737 -2.98,0 L 0,0 Z"
             style="fill:#606163;fill-opacity:1;fill-rule:nonzero;stroke:none"
             id="path4910"
             inkscape:connector-curvature="0" /></g><g
           id="g4912"
           transform="translate(145.5005,167.2979)"><path
             d="m 0,0 0.359,3.561 -0.179,0 -1.364,-3.255 -6.535,-10.716 -0.898,0 -6.929,10.75 -1.292,3.221 -0.18,0 0.503,-3.527 0,-15.971 -2.8,0 0,23.737 2.226,0 7.863,-12.141 1.184,-2.644 0.072,0 1.113,2.713 7.503,12.072 2.334,0 0,-23.737 -2.98,0 L 0,0 Z"
             style="fill:#606163;fill-opacity:1;fill-rule:nonzero;stroke:none"
             id="path4914"
             inkscape:connector-curvature="0" /></g><g
           id="g4916"
           transform="translate(169.0176,175.0977)"><path
             d="m 0,0 2.872,0 0,-15.836 c 0,-1.425 -0.197,-2.656 -0.592,-3.695 -0.395,-1.042 -0.958,-1.895 -1.688,-2.561 -0.73,-0.667 -1.61,-1.159 -2.638,-1.474 -1.03,-0.317 -2.167,-0.476 -3.412,-0.476 -2.968,0 -5.205,0.633 -6.713,1.899 -1.508,1.265 -2.263,3.187 -2.263,5.763 l 0,16.38 2.981,0 0,-15.056 c 0,-1.199 0.126,-2.21 0.377,-3.035 0.251,-0.825 0.628,-1.492 1.131,-2.001 0.503,-0.508 1.131,-0.876 1.884,-1.101 0.755,-0.227 1.635,-0.34 2.64,-0.34 1.938,0 3.326,0.503 4.164,1.509 0.838,1.005 1.257,2.662 1.257,4.968 L 0,0 Z"
             style="fill:#606163;fill-opacity:1;fill-rule:nonzero;stroke:none"
             id="path4918"
             inkscape:connector-curvature="0" /></g><g
           id="g4920"
           transform="translate(182.5166,166.8916)"><path
             d="m 0,0 -1.938,3.425 -0.144,0 0.359,-3.425 0,-15.53 -2.8,0 0,24.109 1.579,0 12.028,-15.836 1.867,-3.255 0.18,0 -0.395,3.255 0,15.463 2.8,0 0,-24.11 -1.58,0 L 0,0 Z"
             style="fill:#606163;fill-opacity:1;fill-rule:nonzero;stroke:none"
             id="path4922"
             inkscape:connector-curvature="0" /></g><path
           d="m 202.838,175.098 2.98,0 0,-23.736 -2.98,0 0,23.736 z"
           style="fill:#606163;fill-opacity:1;fill-rule:nonzero;stroke:none"
           id="path4924"
           inkscape:connector-curvature="0" /><g
           id="g4926"
           transform="translate(228.8311,172.5879)"><path
             d="m 0,0 -7.827,0 0,-21.227 -2.98,0 0,21.227 -7.826,0 0,2.51 L 0,2.51 0,0 Z"
             style="fill:#606163;fill-opacity:1;fill-rule:nonzero;stroke:none"
             id="path4928"
             inkscape:connector-curvature="0" /></g><g
           id="g4930"
           transform="translate(237.6279,160.7881)"><path
             d="m 0,0 -8.294,14.31 3.482,0 5.889,-10.377 0.621,-2.069 0.036,0 0.659,2.137 5.649,10.309 3.16,0 -8.222,-14.277 0,-9.46 -2.98,0 L 0,0 Z"
             style="fill:#606163;fill-opacity:1;fill-rule:nonzero;stroke:none"
             id="path4932"
             inkscape:connector-curvature="0" /></g><g
           id="g4934"
           transform="translate(186.9434,137.626)"><path
             d="m 0,0 11.741,0 0,-3.046 -8.118,0 0,-4.322 7.536,0 0,-3.046 -7.536,0 0,-7.067 -3.623,0 L 0,0 Z"
             style="fill:#606163;fill-opacity:1;fill-rule:nonzero;stroke:none"
             id="path4936"
             inkscape:connector-curvature="0" /></g><g
           id="g4938"
           transform="translate(211.6924,137.626)"><path
             d="m 0,0 3.438,0 0,-11.188 c 0,-1.133 -0.159,-2.111 -0.476,-2.935 -0.317,-0.824 -0.763,-1.506 -1.335,-2.047 -0.573,-0.542 -1.257,-0.946 -2.05,-1.212 -0.793,-0.266 -1.665,-0.399 -2.618,-0.399 -2.291,0 -3.988,0.524 -5.089,1.573 -1.102,1.049 -1.653,2.58 -1.653,4.596 l 0,11.612 3.622,0 0,-10.938 c 0,-1.332 0.256,-2.298 0.767,-2.898 0.512,-0.599 1.313,-0.898 2.406,-0.898 1.058,0 1.821,0.32 2.288,0.962 0.467,0.639 0.7,1.584 0.7,2.834 L 0,0 Z"
             style="fill:#606163;fill-opacity:1;fill-rule:nonzero;stroke:none"
             id="path4940"
             inkscape:connector-curvature="0" /></g><g
           id="g4942"
           transform="translate(221.3447,130.4834)"><path
             d="m 0,0 -0.133,0 0.159,-2.073 0,-8.266 -3.437,0 0,17.482 3.173,0 6.399,-10.69 0.132,0 -0.238,2.098 0,8.592 3.437,0 0,-17.482 -3.173,0 L 0,0 Z"
             style="fill:#606163;fill-opacity:1;fill-rule:nonzero;stroke:none"
             id="path4944"
             inkscape:connector-curvature="0" /></g><g
           id="g4946"
           transform="translate(238.9546,134.8281)"><path
             d="m 0,0 c -0.335,0 -0.662,-0.012 -0.979,-0.036 -0.317,-0.026 -0.555,-0.047 -0.714,-0.063 l 0,-11.713 c 0.071,-0.016 0.176,-0.029 0.318,-0.038 0.141,-0.007 0.286,-0.016 0.436,-0.025 0.149,-0.009 0.295,-0.017 0.437,-0.024 0.14,-0.009 0.255,-0.013 0.343,-0.013 1.022,0 1.838,0.178 2.446,0.538 0.608,0.356 1.062,0.827 1.361,1.409 0.3,0.584 0.494,1.241 0.582,1.974 0.089,0.733 0.133,1.465 0.133,2.197 0,0.634 -0.04,1.29 -0.119,1.974 -0.08,0.682 -0.265,1.306 -0.556,1.872 -0.29,0.565 -0.727,1.032 -1.309,1.399 C 1.798,-0.184 1.005,0 0,0 m -5.315,2.798 c 0.159,0.015 0.436,0.041 0.833,0.075 0.396,0.032 0.846,0.062 1.348,0.087 0.503,0.024 1.022,0.045 1.56,0.062 0.538,0.017 1.019,0.025 1.441,0.025 1.64,0 2.997,-0.225 4.073,-0.674 1.075,-0.45 1.926,-1.07 2.552,-1.86 0.625,-0.791 1.061,-1.724 1.308,-2.797 0.247,-1.073 0.37,-2.245 0.37,-3.51 0,-1.148 -0.123,-2.272 -0.37,-3.37 -0.247,-1.101 -0.692,-2.077 -1.335,-2.935 -0.644,-0.858 -1.534,-1.548 -2.671,-2.073 -1.137,-0.524 -2.596,-0.788 -4.376,-0.788 -0.282,0 -0.644,0.01 -1.084,0.027 -0.441,0.016 -0.891,0.037 -1.349,0.063 -0.459,0.023 -0.899,0.049 -1.321,0.075 -0.423,0.024 -0.75,0.053 -0.979,0.086 l 0,17.507 z"
             style="fill:#606163;fill-opacity:1;fill-rule:nonzero;stroke:none"
             id="path4948"
             inkscape:connector-curvature="0" /></g><g
           id="g4950"
           transform="translate(53.0796,144.6025)"><path
             d="M 0,0 195.514,0"
             style="fill:#606163;fill-opacity:1;fill-rule:nonzero;stroke:#565658;stroke-width:4;stroke-linecap:butt;stroke-linejoin:miter;stroke-miterlimit:10;stroke-dasharray:none;stroke-opacity:1"
             id="path4952"
             inkscape:connector-curvature="0" /></g><g
           id="g4954"
           transform="translate(367.3589,149.2539)"><path
             d="M 0,0 C 0.612,1.984 0.401,4.062 -0.964,5.997 -19.09,31.646 -23.123,66.228 -29.713,95.282 -2.318,90.402 18.41,67.715 18.41,40.445 18.41,24.523 11.333,10.169 0,0 Z m -40.747,-15.374 c -14.548,0 -27.861,4.964 -38.164,13.185 5.31,11.518 11.197,22.967 17.216,34.399 1.44,0.198 2.568,0.353 3.156,0.453 6.217,1.057 12.539,1.867 18.767,2.957 1.519,-0.305 3.318,-0.132 5.136,0.799 1.543,-10.607 3.308,-21.154 5.344,-31.59 -0.125,-0.434 -0.307,-0.855 -0.321,-1.313 -0.01,-0.36 -0.024,-0.721 -0.034,-1.079 -0.158,-4.958 2.079,-8.591 8.224,-10.583 0.557,-0.18 1.113,-0.361 1.67,-0.542 1.87,-0.607 3.825,-0.79 5.752,-0.65 -8.035,-3.85 -17.118,-6.036 -26.746,-6.036 z m -59.157,55.819 c 0,30.528 25.974,55.315 58.201,55.797 -0.106,-0.409 -0.126,-0.842 -0.042,-1.291 -0.026,0.002 -0.044,0.005 -0.07,0.006 0.132,-1.192 0.27,-2.391 0.402,-3.582 -1.684,-3.857 -5.502,-13.764 -4.929,-12.458 -3.901,-8.862 -8.786,-17.604 -13.085,-26.387 -2.387,-4.877 -4.662,-9.777 -6.984,-14.667 -0.883,-0.221 -1.777,-0.425 -2.661,-0.656 -4.907,-1.287 -18.592,-3.686 -18.086,-9.122 0.201,-2.19 4.759,-2.463 5.782,-0.321 0.58,1.215 6.163,2.374 11.715,3.274 C -74.255,21.226 -78.758,11.396 -83.147,1.54 -93.51,11.594 -99.904,25.312 -99.904,40.445 Z m 64.008,4.943 c -0.771,-0.167 -1.464,-0.352 -2.086,-0.554 -6.427,-1.843 -13.029,-3.342 -19.613,-4.855 6.157,11.63 12.303,23.256 18.045,34.924 1.129,-9.824 2.322,-19.678 3.654,-29.515 z m -187.21,5.47 0.092,21.201 10.014,-0.036 10.961,-21.165 -21.067,0 z m 0.205,48.189 9.097,-0.034 c 3.748,-0.015 6.532,-0.225 8.353,-0.627 1.82,-0.405 3.349,-1.353 4.587,-2.849 1.236,-1.497 1.85,-3.322 1.842,-5.479 -0.011,-2.54 -0.633,-4.561 -1.865,-6.063 -1.234,-1.502 -2.814,-2.497 -4.742,-2.982 -1.926,-0.484 -4.918,-0.718 -8.971,-0.703 l -8.38,0.03 0.079,18.707 z m -76.126,-48.189 5.072,13.801 25.607,-0.095 4.769,-13.706 -35.448,0 z m 17.722,49.214 0.97,-0.003 9.341,-27.736 -20.277,0.075 9.966,27.664 z m 238.787,10.686 c -33.581,0 -61.42,-25.939 -66.609,-59.9 l -16.678,0 -20.86,24.939 21.983,22.885 7.564,-0.029 0.034,8.281 -27.851,0.103 -0.034,-8.28 8.124,-0.029 -22.887,-22.881 20.411,-24.989 -20.877,0 0.205,47.955 9.148,-0.035 0.033,8.281 -28.769,0.108 -0.035,-8.281 8.893,-0.033 -0.207,-47.995 -20.087,0 -11.64,22.556 c 9.777,2.216 14.686,7.703 14.723,16.46 0.017,4.188 -1.126,7.69 -3.43,10.506 -2.303,2.817 -5.226,4.667 -8.764,5.555 -3.541,0.885 -8.325,1.338 -14.355,1.36 l -28.872,0.107 -0.036,-8.28 9.76,-0.036 -0.205,-48.228 -18.755,0 -19.152,49.179 8.885,-0.033 0.033,7.472 -36.334,0.134 -0.033,-7.472 8.592,-0.031 -19.184,-49.249 -11.012,0 0,-19.913 211.276,0 c 3.954,-35.431 32.432,-62.921 67.002,-62.921 37.27,0 67.487,31.952 67.487,71.367 0,39.414 -30.217,71.367 -67.487,71.367 z"
             style="fill:none;stroke:#606163;stroke-width:3;stroke-linecap:butt;stroke-linejoin:miter;stroke-miterlimit:10;stroke-dasharray:none;stroke-opacity:1"
             id="path4956"
             inkscape:connector-curvature="0" /></g></g></g></g></svg>