<?xml version="1.0" encoding="UTF-8" standalone="no"?>
<svg
   xmlns:dc="http://purl.org/dc/elements/1.1/"
   xmlns:cc="http://creativecommons.org/ns#"
   xmlns:rdf="http://www.w3.org/1999/02/22-rdf-syntax-ns#"
   xmlns:svg="http://www.w3.org/2000/svg"
   xmlns="http://www.w3.org/2000/svg"
   xmlns:sodipodi="http://sodipodi.sourceforge.net/DTD/sodipodi-0.dtd"
   xmlns:inkscape="http://www.inkscape.org/namespaces/inkscape"
   id="Layer_1"
   data-name="Layer 1"
   viewBox="0 0 1000 1000"
   version="1.1"
   sodipodi:docname="acf-logo_Idea 3.1.svg"
   inkscape:export-filename="C:\Users\jens\Documents\GitHub\logo_contest\Michael-Warner\acf-logo_Idea 3.1.png"
   inkscape:export-xdpi="11.85"
   inkscape:export-ydpi="11.85"
   inkscape:version="0.92.2 (5c3e80d, 2017-08-06)">
  <metadata
     id="metadata89">
    <rdf:RDF>
      <cc:Work
         rdf:about="">
        <dc:format>image/svg+xml</dc:format>
        <dc:type
           rdf:resource="http://purl.org/dc/dcmitype/StillImage" />
      </cc:Work>
    </rdf:RDF>
  </metadata>
  <sodipodi:namedview
     pagecolor="#ffffff"
     bordercolor="#666666"
     borderopacity="1"
     objecttolerance="10"
     gridtolerance="10"
     guidetolerance="10"
     inkscape:pageopacity="0"
     inkscape:pageshadow="2"
     inkscape:window-width="2736"
     inkscape:window-height="1699"
     id="namedview87"
     showgrid="false"
     inkscape:zoom="0.236"
     inkscape:cx="500"
     inkscape:cy="500"
     inkscape:window-x="-13"
     inkscape:window-y="-13"
     inkscape:window-maximized="1"
     inkscape:current-layer="Layer_1" />
  <defs
     id="defs4">
    <style
       id="style2">.cls-1{fill:#3ca2ff;}.cls-2{font-size:46.41px;font-family:Montserrat-ExtraBold, Montserrat;font-weight:700;}.cls-12,.cls-2{fill:#fff;}.cls-3{letter-spacing:-0.01em;}.cls-4{fill:#98967e;}.cls-5{fill:#666454;}.cls-6{fill:#33322a;}.cls-7{fill:#fff259;}.cls-8{fill:#bfb543;}.cls-9{fill:#3f3e34;}.cls-10{fill:#0868bf;}.cls-11{fill:#0b8bff;}.cls-13{fill:#ffef2f;}</style>
  </defs>
  <title
     id="title6">acf-logo</title>
  <g
     id="Idea_3.1"
     data-name="Idea 3.1">
    <rect
       id="Background"
       class="cls-1"
       width="1000"
       height="1000" />
    <text
       class="cls-2"
       transform="translate(243.37 697.92)"
       id="text13">Ark <tspan
   class="cls-3"
   x="96.95"
   y="0"
   id="tspan9">C</tspan>
<tspan
   x="128.47"
   y="0"
   id="tspan11">ommunity Fund</tspan>
</text>
    <g
       id="Light_Bulb"
       data-name="Light Bulb">
      <rect
         class="cls-4"
         x="358.6"
         y="572"
         width="37"
         height="14"
         rx="7"
         ry="7"
         id="rect15" />
      <rect
         class="cls-4"
         x="326.6"
         y="518"
         width="101"
         height="19"
         rx="9.5"
         ry="9.5"
         id="rect17" />
      <rect
         class="cls-5"
         x="326.6"
         y="537"
         width="101"
         height="19"
         rx="9.5"
         ry="9.5"
         id="rect19" />
      <rect
         class="cls-6"
         x="326.6"
         y="556"
         width="101"
         height="19"
         rx="9.5"
         ry="9.5"
         id="rect21" />
      <path
         class="cls-7"
         d="M479.6,390.5a102.5,102.5,0,0,0-205,0c0,7.33,2,16.41,4.65,25.18a185.94,185.94,0,0,0,18.84,42.25c2.67,4.43,5.27,8.9,7.77,13.43L331.6,518h91l25-45.31c3-5.42,6.14-10.75,9.29-16.08A185.55,185.55,0,0,0,475,415.68C477.59,406.91,479.6,397.83,479.6,390.5Z"
         id="path23" />
      <path
         class="cls-8"
         d="M479.6,390.5A102.57,102.57,0,0,0,377.1,288c-.5,0,0,230,0,230h45.5l25-45.31c3-5.42,6.14-10.75,9.29-16.08A185.55,185.55,0,0,0,475,415.68C477.59,406.91,479.6,397.83,479.6,390.5Z"
         id="path25" />
      <g
         id="Expanded_Filament"
         data-name="Expanded Filament">
        <circle
           class="cls-7"
           cx="352.17"
           cy="456.73"
           r="9.73"
           id="circle27" />
        <path
           class="cls-9"
           d="M352.17,469a12.23,12.23,0,1,1,12.23-12.23A12.24,12.24,0,0,1,352.17,469Zm0-19.45a7.23,7.23,0,1,0,7.23,7.23A7.23,7.23,0,0,0,352.17,449.5Z"
           id="path29" />
        <circle
           class="cls-7"
           cx="364.78"
           cy="456.73"
           r="9.73"
           id="circle31" />
        <path
           class="cls-9"
           d="M364.78,469A12.23,12.23,0,1,1,377,456.73,12.24,12.24,0,0,1,364.78,469Zm0-19.45a7.23,7.23,0,1,0,7.23,7.23A7.23,7.23,0,0,0,364.78,449.5Z"
           id="path33" />
        <circle
           class="cls-7"
           cx="377.4"
           cy="456.73"
           r="9.73"
           id="circle35" />
        <path
           class="cls-9"
           d="M377.4,469a12.23,12.23,0,1,1,12.23-12.23A12.24,12.24,0,0,1,377.4,469Zm0-19.45a7.23,7.23,0,1,0,7.23,7.23A7.23,7.23,0,0,0,377.4,449.5Z"
           id="path37" />
        <circle
           class="cls-7"
           cx="390.02"
           cy="456.73"
           r="9.73"
           id="circle39" />
        <path
           class="cls-9"
           d="M390,469a12.23,12.23,0,1,1,12.23-12.23A12.24,12.24,0,0,1,390,469Zm0-19.45a7.23,7.23,0,1,0,7.23,7.23A7.23,7.23,0,0,0,390,449.5Z"
           id="path41" />
        <circle
           class="cls-7"
           cx="402.63"
           cy="456.73"
           r="9.73"
           id="circle43" />
        <path
           class="cls-9"
           d="M402.63,469a12.23,12.23,0,1,1,12.23-12.23A12.24,12.24,0,0,1,402.63,469Zm0-19.45a7.23,7.23,0,1,0,7.23,7.23A7.23,7.23,0,0,0,402.63,449.5Z"
           id="path45" />
        <rect
           class="cls-9"
           x="346.75"
           y="460.99"
           width="5"
           height="57.61"
           transform="translate(-91.99 80.92) rotate(-11.69)"
           id="rect47" />
        <rect
           class="cls-9"
           x="376.75"
           y="487.29"
           width="57.61"
           height="5"
           transform="translate(-156.29 787.63) rotate(-78.3)"
           id="rect49" />
      </g>
    </g>
    <g
       id="Ark_Coin"
       data-name="Ark Coin">
      <circle
         class="cls-10"
         cx="576.9"
         cy="437.5"
         r="148.5"
         id="circle53" />
      <circle
         class="cls-11"
         cx="576.45"
         cy="437.77"
         r="132.76"
         id="circle55" />
      <path
         class="cls-10"
         d="M709.21,437.77A132.76,132.76,0,0,1,576.45,570.53c-1,0-1-265.52,0-265.52A132.76,132.76,0,0,1,709.21,437.77Z"
         id="path57" />
      <polygon
         class="cls-12"
         points="575.7 339.8 673.72 501.67 575.7 394.46 479.19 501.67 575.7 339.8"
         id="polygon59" />
      <polygon
         class="cls-12"
         points="576.12 418.97 592.96 436.35 559.28 436.35 576.12 418.97"
         id="polygon61" />
      <polygon
         class="cls-12"
         points="552.69 447.37 599.19 447 615.88 464.75 535.65 464.75 552.69 447.37"
         id="polygon63" />
    </g>
    <g
       id="Outlines">
      <path
         class="cls-13"
         d="M483.46,580.12l-.69-.45a5,5,0,1,0-5.49,8.36l.69.45.08.05.09.06a4.88,4.88,0,0,0,2.66.79,5,5,0,0,0,4.2-2.31A5.06,5.06,0,0,0,483.46,580.12Z"
         id="path66" />
      <path
         class="cls-13"
         d="M718.29,325.42a5,5,0,1,0-7.83,6.22A170.39,170.39,0,0,1,739.9,487.58a5,5,0,1,0,9.56,2.94,180.39,180.39,0,0,0-31.16-165.11Z"
         id="path68" />
      <path
         class="cls-13"
         d="M730.2,523a5,5,0,0,0-6.86,1.71l-.51.84a5,5,0,1,0,8.55,5.18l.53-.87A5,5,0,0,0,730.2,523Z"
         id="path70" />
      <path
         class="cls-13"
         d="M677.13,575.35a170.5,170.5,0,0,1-157.06,22.93,5,5,0,0,0-3.33,9.43A180.49,180.49,0,0,0,683,583.43a5,5,0,0,0-5.89-8.08Z"
         id="path72" />
      <path
         class="cls-13"
         d="M465.32,296.61a5,5,0,0,0,6.22,7.83A170.39,170.39,0,0,1,627.49,275a5,5,0,1,0,2.94-9.56,180.39,180.39,0,0,0-165.11,31.16Z"
         id="path74" />
      <path
         class="cls-13"
         d="M662.94,284.7a5,5,0,0,0,1.71,6.86l.84.51a5,5,0,1,0,5.18-8.55l-.87-.53A5,5,0,0,0,662.94,284.7Z"
         id="path76" />
      <path
         class="cls-10"
         d="M388.6,621h-23a39.12,39.12,0,0,1-27.12-11H336.1a41.59,41.59,0,0,1-30.73-13.63c-10.1-11.12-10.75-24.16-10.56-36.57,0-1.61,0-3.25,0-5a88.43,88.43,0,0,1,.21-10.18,5,5,0,1,1,10,1,79.92,79.92,0,0,0-.16,9c0,1.75.07,3.55,0,5.33-.2,13,1,22.06,8,29.69A31.57,31.57,0,0,0,336.1,600h6.67l1.49,1.61A29.08,29.08,0,0,0,365.6,611h23a29.08,29.08,0,0,0,21.34-9.38l1.49-1.62h6.68a31.92,31.92,0,0,0,23.83-10.92c6.89-8,7.39-16.33,7.36-28.17,0-1.45,0-2.9,0-4.34,0-2.8,0-5.69,0-8.49l0-.88c0-.56,0-1.24-.06-1.95a5,5,0,0,1,4.87-5.13h.13a5,5,0,0,1,5,4.87c0,.67,0,1.31.06,1.85l0,1c.08,3,.06,5.94,0,8.82,0,1.42,0,2.84,0,4.26,0,12.77-.68,24.19-9.79,34.73A41.49,41.49,0,0,1,418.1,610h-2.38A39.1,39.1,0,0,1,388.6,621Z"
         id="path78" />
      <path
         class="cls-10"
         d="M299.61,536.61a5,5,0,0,1-5-4.86c0-.32,0-.65,0-1a5,5,0,0,1,5-5h0a5,5,0,0,1,5,5q0,.37,0,.74a5,5,0,0,1-4.86,5.14Z"
         id="path80" />
      <path
         class="cls-10"
         d="M276.41,482.28a5,5,0,0,1-4.31-2.45l-1.44-2.41a218,218,0,0,1-22.06-49.52c-4-13.42-6-24.67-6-34.39A133.12,133.12,0,0,1,255,337.14a5,5,0,0,1,9.07,4.2A123.17,123.17,0,0,0,252.6,393.5c0,8.73,1.82,19,5.58,31.51a208,208,0,0,0,21.05,47.25l1.47,2.47a5,5,0,0,1-4.3,7.55ZM265.92,332.14a5,5,0,0,1-4.29-7.57l.47-.77a5,5,0,0,1,8.54,5.21l-.42.69A5,5,0,0,1,265.92,332.14ZM308,289a5,5,0,0,1-2.68-9.22,134.28,134.28,0,0,1,143.27-.21,5,5,0,0,1-5.33,8.46,124.28,124.28,0,0,0-132.59.19A5,5,0,0,1,308,289Z"
         id="path82" />
    </g>
  </g>
</svg>
