<?xml version="1.0" encoding="UTF-8" standalone="no"?>
<svg
   xmlns:dc="http://purl.org/dc/elements/1.1/"
   xmlns:cc="http://creativecommons.org/ns#"
   xmlns:rdf="http://www.w3.org/1999/02/22-rdf-syntax-ns#"
   xmlns:svg="http://www.w3.org/2000/svg"
   xmlns="http://www.w3.org/2000/svg"
   xmlns:sodipodi="http://sodipodi.sourceforge.net/DTD/sodipodi-0.dtd"
   xmlns:inkscape="http://www.inkscape.org/namespaces/inkscape"
   id="Layer_1"
   data-name="Layer 1"
   viewBox="0 0 490.64 490.64"
   version="1.1"
   sodipodi:docname="acf-logo_Idea 3.1g.svg"
   inkscape:export-filename="C:\Users\jens\Documents\GitHub\logo_contest\Michael-Warner\acf-logo_Idea 3.1g.png"
   inkscape:export-xdpi="19.17"
   inkscape:export-ydpi="19.17"
   inkscape:version="0.92.2 (5c3e80d, 2017-08-06)">
  <metadata
     id="metadata89">
    <rdf:RDF>
      <cc:Work
         rdf:about="">
        <dc:format>image/svg+xml</dc:format>
        <dc:type
           rdf:resource="http://purl.org/dc/dcmitype/StillImage" />
      </cc:Work>
    </rdf:RDF>
  </metadata>
  <sodipodi:namedview
     pagecolor="#ffffff"
     bordercolor="#666666"
     borderopacity="1"
     objecttolerance="10"
     gridtolerance="10"
     guidetolerance="10"
     inkscape:pageopacity="0"
     inkscape:pageshadow="2"
     inkscape:window-width="2736"
     inkscape:window-height="1699"
     id="namedview87"
     showgrid="false"
     inkscape:zoom="0.48100439"
     inkscape:cx="-621.61595"
     inkscape:cy="245.32001"
     inkscape:window-x="-13"
     inkscape:window-y="-13"
     inkscape:window-maximized="1"
     inkscape:current-layer="Layer_1" />
  <defs
     id="defs4">
    <style
       id="style2">.cls-1{fill:#8e8e8e;}.cls-2{font-size:22.78px;font-family:Montserrat-ExtraBold, Montserrat;font-weight:700;}.cls-12,.cls-2{fill:#fff;}.cls-3{letter-spacing:-0.01em;}.cls-4{fill:#949494;}.cls-5{fill:#636363;}.cls-6{fill:#313131;}.cls-7{fill:#e5e5e5;}.cls-8{fill:#ababab;}.cls-9{fill:#3d3d3d;}.cls-10{fill:#555;}.cls-11{fill:#717171;}.cls-13{fill:#dfdfdf;}</style>
  </defs>
  <title
     id="title6">acf-logo</title>
  <g
     id="Idea_3.1g"
     data-name="Idea 3.1g">
    <rect
       id="Background"
       class="cls-1"
       width="490.83"
       height="490.83" />
    <text
       class="cls-2"
       transform="translate(119.45 342.56)"
       id="text13">Ark <tspan
   class="cls-3"
   x="47.59"
   y="0"
   id="tspan9">C</tspan>
<tspan
   x="63.05"
   y="0"
   id="tspan11">ommunity Fund</tspan>
</text>
    <g
       id="Light_Bulb"
       data-name="Light Bulb">
      <rect
         class="cls-4"
         x="176.01"
         y="280.76"
         width="18.16"
         height="6.87"
         rx="3.44"
         ry="3.44"
         id="rect15" />
      <rect
         class="cls-4"
         x="160.31"
         y="254.25"
         width="49.57"
         height="9.33"
         rx="4.66"
         ry="4.66"
         id="rect17" />
      <rect
         class="cls-5"
         x="160.31"
         y="263.58"
         width="49.57"
         height="9.33"
         rx="4.66"
         ry="4.66"
         id="rect19" />
      <rect
         class="cls-6"
         x="160.31"
         y="272.9"
         width="49.57"
         height="9.33"
         rx="4.66"
         ry="4.66"
         id="rect21" />
      <path
         class="cls-7"
         d="M235.4,191.67a50.31,50.31,0,0,0-100.62,0A46.08,46.08,0,0,0,137.06,204a91.27,91.27,0,0,0,9.25,20.74c1.31,2.17,2.59,4.37,3.81,6.59l12.64,22.9h44.67L219.7,232c1.47-2.66,3-5.28,4.56-7.89A91.08,91.08,0,0,0,233.12,204,46.08,46.08,0,0,0,235.4,191.67Z"
         id="path23" />
      <path
         class="cls-8"
         d="M235.4,191.67a50.34,50.34,0,0,0-50.31-50.31c-.25,0,0,112.89,0,112.89h22.33L219.7,232c1.47-2.66,3-5.28,4.56-7.89A91.08,91.08,0,0,0,233.12,204,46.08,46.08,0,0,0,235.4,191.67Z"
         id="path25" />
      <g
         id="Expanded_Filament"
         data-name="Expanded Filament">
        <circle
           class="cls-7"
           cx="172.86"
           cy="224.18"
           r="4.77"
           id="circle27" />
        <path
           class="cls-9"
           d="M172.86,230.18a6,6,0,1,1,6-6A6,6,0,0,1,172.86,230.18Zm0-9.55a3.55,3.55,0,1,0,3.55,3.55A3.55,3.55,0,0,0,172.86,220.63Z"
           id="path29" />
        <circle
           class="cls-7"
           cx="179.05"
           cy="224.18"
           r="4.77"
           id="circle31" />
        <path
           class="cls-9"
           d="M179,230.18a6,6,0,1,1,6-6A6,6,0,0,1,179,230.18Zm0-9.55a3.55,3.55,0,1,0,3.55,3.55A3.55,3.55,0,0,0,179,220.63Z"
           id="path33" />
        <circle
           class="cls-7"
           cx="185.24"
           cy="224.18"
           r="4.77"
           id="circle35" />
        <path
           class="cls-9"
           d="M185.24,230.18a6,6,0,1,1,6-6A6,6,0,0,1,185.24,230.18Zm0-9.55a3.55,3.55,0,1,0,3.55,3.55A3.55,3.55,0,0,0,185.24,220.63Z"
           id="path37" />
        <circle
           class="cls-7"
           cx="191.43"
           cy="224.18"
           r="4.77"
           id="circle39" />
        <path
           class="cls-9"
           d="M191.43,230.18a6,6,0,1,1,6-6A6,6,0,0,1,191.43,230.18Zm0-9.55a3.55,3.55,0,1,0,3.55,3.55A3.55,3.55,0,0,0,191.43,220.63Z"
           id="path41" />
        <circle
           class="cls-7"
           cx="197.63"
           cy="224.18"
           r="4.77"
           id="circle43" />
        <path
           class="cls-9"
           d="M197.63,230.18a6,6,0,1,1,6-6A6,6,0,0,1,197.63,230.18Zm0-9.55a3.55,3.55,0,1,0,3.55,3.55A3.55,3.55,0,0,0,197.63,220.63Z"
           id="path45" />
        <rect
           class="cls-9"
           x="170.2"
           y="226.27"
           width="2.45"
           height="28.27"
           transform="translate(-45.15 39.72) rotate(-11.69)"
           id="rect47" />
        <rect
           class="cls-9"
           x="184.92"
           y="239.18"
           width="28.27"
           height="2.45"
           transform="translate(-76.71 386.6) rotate(-78.3)"
           id="rect49" />
      </g>
    </g>
    <g
       id="Ark_Coin"
       data-name="Ark Coin">
      <circle
         class="cls-10"
         cx="283.16"
         cy="214.74"
         r="72.89"
         id="circle53" />
      <circle
         class="cls-11"
         cx="282.94"
         cy="214.87"
         r="65.16"
         id="circle55" />
      <path
         class="cls-10"
         d="M348.1,214.87A65.16,65.16,0,0,1,282.94,280c-.51,0-.51-130.33,0-130.33A65.16,65.16,0,0,1,348.1,214.87Z"
         id="path57" />
      <polygon
         class="cls-12"
         points="282.57 166.78 330.68 246.23 282.57 193.62 235.2 246.23 282.57 166.78"
         id="polygon59" />
      <polygon
         class="cls-12"
         points="282.78 205.64 291.04 214.18 274.51 214.18 282.78 205.64"
         id="polygon61" />
      <polygon
         class="cls-12"
         points="271.28 219.58 294.1 219.4 302.29 228.11 262.92 228.11 271.28 219.58"
         id="polygon63" />
    </g>
    <g
       id="Outlines">
      <path
         class="cls-13"
         d="M237.3,284.74l-.34-.22a2.45,2.45,0,1,0-2.69,4.1l.34.22,0,0,0,0a2.39,2.39,0,0,0,1.3.39,2.46,2.46,0,0,0,2.06-1.14A2.48,2.48,0,0,0,237.3,284.74Z"
         id="path66" />
      <path
         class="cls-13"
         d="M352.56,159.72a2.45,2.45,0,0,0-3.84,3.05,83.63,83.63,0,0,1,14.45,76.54,2.45,2.45,0,1,0,4.69,1.44,88.54,88.54,0,0,0-15.3-81Z"
         id="path68" />
      <path
         class="cls-13"
         d="M358.4,256.73a2.45,2.45,0,0,0-3.37.84l-.25.41a2.45,2.45,0,1,0,4.2,2.54l.26-.43A2.45,2.45,0,0,0,358.4,256.73Z"
         id="path70" />
      <path
         class="cls-13"
         d="M332.36,282.4a83.69,83.69,0,0,1-77.09,11.26,2.45,2.45,0,0,0-1.64,4.63,88.59,88.59,0,0,0,81.62-11.92,2.45,2.45,0,1,0-2.89-4Z"
         id="path72" />
      <path
         class="cls-13"
         d="M228.39,145.58a2.45,2.45,0,1,0,3.05,3.84A83.63,83.63,0,0,1,308,135a2.45,2.45,0,1,0,1.44-4.69,88.54,88.54,0,0,0-81,15.3Z"
         id="path74" />
      <path
         class="cls-13"
         d="M325.39,139.74a2.45,2.45,0,0,0,.84,3.37l.41.25a2.45,2.45,0,1,0,2.54-4.2l-.43-.26A2.45,2.45,0,0,0,325.39,139.74Z"
         id="path76" />
      <path
         class="cls-10"
         d="M190.74,304.81H179.45a19.2,19.2,0,0,1-13.31-5.4H165a20.41,20.41,0,0,1-15.08-6.69c-5-5.46-5.28-11.86-5.18-17.95,0-.79,0-1.6,0-2.45a43.41,43.41,0,0,1,.1-5,2.45,2.45,0,0,1,4.89.47,39.23,39.23,0,0,0-.08,4.43c0,.86,0,1.74,0,2.62-.1,6.39.51,10.83,3.91,14.57A15.5,15.5,0,0,0,165,294.5h3.28l.73.79a14.28,14.28,0,0,0,10.47,4.61h11.29a14.27,14.27,0,0,0,10.47-4.61l.73-.79h3.28a15.67,15.67,0,0,0,11.7-5.36c3.38-3.91,3.63-8,3.61-13.82,0-.71,0-1.42,0-2.13,0-1.37,0-2.79,0-4.17v-.43c0-.28,0-.61,0-1a2.45,2.45,0,0,1,2.39-2.52h.07a2.45,2.45,0,0,1,2.45,2.39c0,.33,0,.64,0,.91l0,.48c0,1.46,0,2.92,0,4.33,0,.7,0,1.4,0,2.09,0,6.27-.33,11.88-4.81,17a20.37,20.37,0,0,1-15.41,7.06H204A19.19,19.19,0,0,1,190.74,304.81Z"
         id="path78" />
      <path
         class="cls-10"
         d="M147.06,263.39a2.45,2.45,0,0,1-2.45-2.39c0-.16,0-.32,0-.48a2.45,2.45,0,0,1,2.45-2.46h0a2.45,2.45,0,0,1,2.45,2.45q0,.18,0,.36a2.45,2.45,0,0,1-2.39,2.52Z"
         id="path80" />
      <path
         class="cls-10"
         d="M135.67,236.72a2.45,2.45,0,0,1-2.11-1.2l-.71-1.18A107,107,0,0,1,122,210a59.47,59.47,0,0,1-2.95-16.88,65.34,65.34,0,0,1,6.08-27.66,2.45,2.45,0,0,1,4.45,2.06,60.46,60.46,0,0,0-5.63,25.6,54.78,54.78,0,0,0,2.74,15.47,102.11,102.11,0,0,0,10.33,23.19l.72,1.21a2.45,2.45,0,0,1-2.11,3.71ZM130.52,163a2.45,2.45,0,0,1-2.1-3.71l.23-.38a2.45,2.45,0,1,1,4.19,2.56l-.21.34A2.45,2.45,0,0,1,130.52,163Zm20.64-21.16a2.45,2.45,0,0,1-1.32-4.53,65.91,65.91,0,0,1,70.32-.1,2.45,2.45,0,1,1-2.62,4.15,61,61,0,0,0-65.08.09A2.44,2.44,0,0,1,151.17,141.87Z"
         id="path82" />
    </g>
  </g>
</svg>
