<?xml version="1.0" encoding="utf-8"?>
<!-- Generator: Adobe Illustrator 21.0.0, SVG Export Plug-In . SVG Version: 6.00 Build 0)  -->
<svg version="1.1" xmlns="http://www.w3.org/2000/svg" xmlns:xlink="http://www.w3.org/1999/xlink" x="0px" y="0px"
	 viewBox="0 0 800 800" style="enable-background:new 0 0 800 800;" xml:space="preserve">
<style type="text/css">
	.st0{display:none;}
	.st1{fill:#ED1C24;}
	.st2{font-family:'Impact';}
	.st3{font-size:100px;}
	.st4{fill:none;stroke:#000000;stroke-linecap:round;stroke-miterlimit:10;}
	.st5{fill:#FF0000;}
	.st6{fill:none;stroke:#ED1C24;stroke-miterlimit:10;}
</style>
<g id="Laag_1" class="st0">
</g>
<g id="Laag_2">
	<text transform="matrix(1 0 0 1 292 437)" class="st1 st2 st3">A</text>
</g>
<g id="Laag_3">
	<text transform="matrix(1 0 0 1 345 437)" class="st1 st2 st3">C</text>
</g>
<g id="Laag_4">
	<text transform="matrix(1 0 0 1 407 437)" class="st1 st2 st3">F</text>
</g>
<g id="Laag_5">
	<path class="st4" d="M568.6,341.4"/>
	<g>
		<g id="XMLID_1_">
			<g>
				<polygon class="st1" points="545.6,399.9 463.7,457.3 463.7,437.3 505.6,399.9 505.6,399.8 463.7,362.4 463.7,342.4 
					545.6,399.8 				"/>
				<polygon class="st5" points="495.3,399.8 483.4,409.8 483.4,399.8 483.4,389.8 				"/>
			</g>
			<g>
				<polyline class="st6" points="463.7,342.4 463.7,362.4 505.6,399.8 				"/>
				<polyline class="st6" points="463.7,457.3 463.7,437.3 505.6,399.9 				"/>
				<line class="st6" x1="463.7" y1="342.4" x2="545.6" y2="399.8"/>
				<line class="st6" x1="463.7" y1="457.3" x2="545.6" y2="399.9"/>
				<line class="st6" x1="483.4" y1="399.8" x2="483.4" y2="409.8"/>
				<line class="st6" x1="483.4" y1="399.8" x2="483.4" y2="389.8"/>
				<polyline class="st6" points="483.4,389.8 495.3,399.8 495.4,399.8 				"/>
				<polyline class="st6" points="483.4,409.8 495.3,399.8 495.4,399.7 				"/>
			</g>
		</g>
	</g>
</g>
</svg>
