<?xml version="1.0" encoding="utf-8"?>
<!-- Generator: Adobe Illustrator 21.1.0, SVG Export Plug-In . SVG Version: 6.00 Build 0)  -->
<svg version="1.1" id="Layer_3" xmlns="http://www.w3.org/2000/svg" xmlns:xlink="http://www.w3.org/1999/xlink" x="0px" y="0px"
	 viewBox="0 0 508 536" style="enable-background:new 0 0 508 536;" xml:space="preserve">
<style type="text/css">
	.st0{fill:url(#SVGID_1_);}
	.st1{fill:url(#SVGID_2_);}
	.st2{display:none;}
	.st3{display:inline;fill:url(#SVGID_3_);}
	.st4{display:inline;fill:url(#SVGID_4_);}
	.st5{display:inline;fill:url(#SVGID_5_);}
	.st6{display:inline;fill:url(#SVGID_6_);}
	.st7{fill:url(#SVGID_7_);}
	.st8{fill:url(#SVGID_8_);}
	.st9{fill:url(#SVGID_9_);}
	.st10{display:inline;fill:url(#SVGID_10_);}
	.st11{display:inline;fill:url(#SVGID_11_);}
	.st12{display:inline;fill:url(#SVGID_12_);}
	.st13{display:inline;fill:url(#SVGID_13_);}
	.st14{fill:url(#SVGID_14_);}
	.st15{fill:url(#SVGID_15_);}
	.st16{fill:url(#SVGID_16_);}
	.st17{display:inline;fill:url(#SVGID_17_);}
	.st18{display:inline;fill:url(#SVGID_18_);}
	.st19{display:inline;fill:url(#SVGID_19_);}
	.st20{display:inline;fill:url(#SVGID_20_);}
	.st21{fill:url(#SVGID_21_);}
	.st22{fill:url(#SVGID_22_);}
	.st23{fill:url(#SVGID_23_);}
	.st24{display:inline;fill:url(#SVGID_24_);}
	.st25{display:inline;fill:url(#SVGID_25_);}
	.st26{display:inline;fill:url(#SVGID_26_);}
	.st27{display:inline;fill:url(#SVGID_27_);}
	.st28{fill:url(#SVGID_28_);}
	.st29{fill:url(#SVGID_29_);}
	.st30{fill:url(#SVGID_30_);}
	.st31{display:inline;fill:url(#SVGID_31_);}
	.st32{display:inline;fill:url(#SVGID_32_);}
	.st33{display:inline;fill:url(#SVGID_33_);}
	.st34{display:inline;fill:url(#SVGID_34_);}
	.st35{fill:url(#SVGID_35_);}
	.st36{fill:#D90303;}
	.st37{fill:#FFFFFF;}
</style>
<g id="Logo_On_Black">
	<g>
		<linearGradient id="SVGID_1_" gradientUnits="userSpaceOnUse" x1="139.7212" y1="444.0178" x2="233.2325" y2="335.0135">
			<stop  offset="0" style="stop-color:#D90303"/>
			<stop  offset="1" style="stop-color:#AD0303"/>
		</linearGradient>
		<polygon class="st0" points="254,347.6 125.5,478.4 254,273.9 		"/>
		<linearGradient id="SVGID_2_" gradientUnits="userSpaceOnUse" x1="267.1351" y1="330.6112" x2="347.3667" y2="452.3419">
			<stop  offset="0" style="stop-color:#D90303"/>
			<stop  offset="1" style="stop-color:#AD0303"/>
		</linearGradient>
		<polygon class="st1" points="254,347.6 382.6,478.4 254,273.9 		"/>
		<g class="st2">
			<linearGradient id="SVGID_3_" gradientUnits="userSpaceOnUse" x1="246.9855" y1="425.422" x2="197.0546" y2="425.422">
				<stop  offset="0" style="stop-color:#D90303"/>
				<stop  offset="1" style="stop-color:#AD0303"/>
			</linearGradient>
			<polygon class="st3" points="196.3,436 254,436 254,414.8 216.8,414.8 			"/>
			<linearGradient id="SVGID_4_" gradientUnits="userSpaceOnUse" x1="251.2906" y1="387.8073" x2="231.8054" y2="387.8073">
				<stop  offset="0" style="stop-color:#D90303"/>
				<stop  offset="1" style="stop-color:#AD0303"/>
			</linearGradient>
			<polygon class="st4" points="254,376.1 231.5,399.5 254,399.5 			"/>
		</g>
		<g class="st2">
			<linearGradient id="SVGID_5_" gradientUnits="userSpaceOnUse" x1="304.6859" y1="425.422" x2="254.7549" y2="425.422">
				<stop  offset="0" style="stop-color:#D90303"/>
				<stop  offset="1" style="stop-color:#AD0303"/>
			</linearGradient>
			<polygon class="st5" points="311.7,436 291.3,414.8 254,414.8 254,436 			"/>
			<linearGradient id="SVGID_6_" gradientUnits="userSpaceOnUse" x1="273.8078" y1="387.8073" x2="254.3226" y2="387.8073">
				<stop  offset="0" style="stop-color:#D90303"/>
				<stop  offset="1" style="stop-color:#AD0303"/>
			</linearGradient>
			<polygon class="st6" points="254,376.1 254,399.5 276.6,399.5 			"/>
		</g>
	</g>
	<linearGradient id="SVGID_7_" gradientUnits="userSpaceOnUse" x1="238.5442" y1="384.8642" x2="269.2203" y2="384.8642">
		<stop  offset="0" style="stop-color:#D90303"/>
		<stop  offset="1" style="stop-color:#AD0303"/>
	</linearGradient>
	<circle class="st7" cx="253.9" cy="384.9" r="15.3"/>
	<g>
		
			<linearGradient id="SVGID_8_" gradientUnits="userSpaceOnUse" x1="104.0895" y1="472.134" x2="197.6008" y2="363.1297" gradientTransform="matrix(0.309 -0.9511 0.9511 0.309 -85.9187 377.743)">
			<stop  offset="0" style="stop-color:#D90303"/>
			<stop  offset="1" style="stop-color:#AD0303"/>
		</linearGradient>
		<polygon class="st8" points="338.9,286.1 423.6,448.8 268.8,263.3 		"/>
		
			<linearGradient id="SVGID_9_" gradientUnits="userSpaceOnUse" x1="231.5034" y1="358.7274" x2="311.735" y2="480.4581" gradientTransform="matrix(0.309 -0.9511 0.9511 0.309 -85.9187 377.743)">
			<stop  offset="0" style="stop-color:#D90303"/>
			<stop  offset="1" style="stop-color:#AD0303"/>
		</linearGradient>
		<polygon class="st9" points="338.9,286.1 503,204.3 268.8,263.3 		"/>
		<g class="st2">
			
				<linearGradient id="SVGID_10_" gradientUnits="userSpaceOnUse" x1="211.3538" y1="453.5382" x2="161.4229" y2="453.5382" gradientTransform="matrix(0.309 -0.9511 0.9511 0.309 -85.9187 377.743)">
				<stop  offset="0" style="stop-color:#D90303"/>
				<stop  offset="1" style="stop-color:#AD0303"/>
			</linearGradient>
			<polygon class="st10" points="405.2,368.3 423,313.4 402.8,306.9 391.3,342.4 			"/>
			
				<linearGradient id="SVGID_11_" gradientUnits="userSpaceOnUse" x1="215.6589" y1="415.9234" x2="196.1737" y2="415.9234" gradientTransform="matrix(0.309 -0.9511 0.9511 0.309 -85.9187 377.743)">
				<stop  offset="0" style="stop-color:#D90303"/>
				<stop  offset="1" style="stop-color:#AD0303"/>
			</linearGradient>
			<polygon class="st11" points="366,294.9 381.3,323.6 388.3,302.2 			"/>
		</g>
		<g class="st2">
			
				<linearGradient id="SVGID_12_" gradientUnits="userSpaceOnUse" x1="269.0541" y1="453.5382" x2="219.1232" y2="453.5382" gradientTransform="matrix(0.309 -0.9511 0.9511 0.309 -85.9187 377.743)">
				<stop  offset="0" style="stop-color:#D90303"/>
				<stop  offset="1" style="stop-color:#AD0303"/>
			</linearGradient>
			<polygon class="st12" points="440.8,258.6 414.4,271.4 402.8,306.9 423,313.4 			"/>
			
				<linearGradient id="SVGID_13_" gradientUnits="userSpaceOnUse" x1="238.1761" y1="415.9234" x2="218.6909" y2="415.9234" gradientTransform="matrix(0.309 -0.9511 0.9511 0.309 -85.9187 377.743)">
				<stop  offset="0" style="stop-color:#D90303"/>
				<stop  offset="1" style="stop-color:#AD0303"/>
			</linearGradient>
			<polygon class="st13" points="366,294.9 388.3,302.2 395.2,280.7 			"/>
		</g>
	</g>
	<linearGradient id="SVGID_14_" gradientUnits="userSpaceOnUse" x1="359.063" y1="296.7198" x2="389.7474" y2="296.7198">
		<stop  offset="0" style="stop-color:#D90303"/>
		<stop  offset="1" style="stop-color:#AD0303"/>
	</linearGradient>
	<circle class="st14" cx="374.4" cy="296.7" r="15.3"/>
	<g>
		
			<linearGradient id="SVGID_15_" gradientUnits="userSpaceOnUse" x1="66.4748" y1="446.7544" x2="159.986" y2="337.7501" gradientTransform="matrix(-0.809 -0.5878 0.5878 -0.809 246.7859 576.1856)">
			<stop  offset="0" style="stop-color:#D90303"/>
			<stop  offset="1" style="stop-color:#AD0303"/>
		</linearGradient>
		<polygon class="st15" points="306.5,186.5 487.3,156.2 263.1,246.1 		"/>
		
			<linearGradient id="SVGID_16_" gradientUnits="userSpaceOnUse" x1="193.8887" y1="333.3478" x2="274.1202" y2="455.0785" gradientTransform="matrix(-0.809 -0.5878 0.5878 -0.809 246.7859 576.1856)">
			<stop  offset="0" style="stop-color:#D90303"/>
			<stop  offset="1" style="stop-color:#AD0303"/>
		</linearGradient>
		<polygon class="st16" points="306.5,186.5 279.3,5.1 263.1,246.1 		"/>
		<g class="st2">
			
				<linearGradient id="SVGID_17_" gradientUnits="userSpaceOnUse" x1="173.7391" y1="428.1586" x2="123.8081" y2="428.1586" gradientTransform="matrix(-0.809 -0.5878 0.5878 -0.809 246.7859 576.1856)">
				<stop  offset="0" style="stop-color:#D90303"/>
				<stop  offset="1" style="stop-color:#AD0303"/>
			</linearGradient>
			<polygon class="st17" points="405.1,148.9 358.4,115 346,132.1 376.1,154 			"/>
			
				<linearGradient id="SVGID_18_" gradientUnits="userSpaceOnUse" x1="178.0442" y1="390.5439" x2="158.5589" y2="390.5439" gradientTransform="matrix(-0.809 -0.5878 0.5878 -0.809 246.7859 576.1856)">
				<stop  offset="0" style="stop-color:#D90303"/>
				<stop  offset="1" style="stop-color:#AD0303"/>
			</linearGradient>
			<polygon class="st18" points="323.2,163.4 355.2,157.7 336.9,144.5 			"/>
		</g>
		<g class="st2">
			
				<linearGradient id="SVGID_19_" gradientUnits="userSpaceOnUse" x1="231.4394" y1="428.1586" x2="181.5085" y2="428.1586" gradientTransform="matrix(-0.809 -0.5878 0.5878 -0.809 246.7859 576.1856)">
				<stop  offset="0" style="stop-color:#D90303"/>
				<stop  offset="1" style="stop-color:#AD0303"/>
			</linearGradient>
			<polygon class="st19" points="311.7,81 315.8,110.2 346,132.1 358.4,115 			"/>
			
				<linearGradient id="SVGID_20_" gradientUnits="userSpaceOnUse" x1="200.5614" y1="390.5439" x2="181.0761" y2="390.5439" gradientTransform="matrix(-0.809 -0.5878 0.5878 -0.809 246.7859 576.1856)">
				<stop  offset="0" style="stop-color:#D90303"/>
				<stop  offset="1" style="stop-color:#AD0303"/>
			</linearGradient>
			<polygon class="st20" points="323.2,163.4 336.9,144.5 318.7,131.3 			"/>
		</g>
	</g>
	<linearGradient id="SVGID_21_" gradientUnits="userSpaceOnUse" x1="312.1716" y1="158.0458" x2="342.8499" y2="158.0458">
		<stop  offset="0" style="stop-color:#D90303"/>
		<stop  offset="1" style="stop-color:#AD0303"/>
	</linearGradient>
	<circle class="st21" cx="327.5" cy="158" r="15.3"/>
	<g>
		
			<linearGradient id="SVGID_22_" gradientUnits="userSpaceOnUse" x1="78.8841" y1="403.1663" x2="172.3954" y2="294.162" gradientTransform="matrix(-0.809 0.5878 -0.5878 -0.809 538.3275 321.0868)">
			<stop  offset="0" style="stop-color:#D90303"/>
			<stop  offset="1" style="stop-color:#AD0303"/>
		</linearGradient>
		<polygon class="st22" points="201.7,186.5 228.8,5.1 245.1,246.1 		"/>
		
			<linearGradient id="SVGID_23_" gradientUnits="userSpaceOnUse" x1="206.298" y1="289.7597" x2="286.5296" y2="411.4904" gradientTransform="matrix(-0.809 0.5878 -0.5878 -0.809 538.3275 321.0868)">
			<stop  offset="0" style="stop-color:#D90303"/>
			<stop  offset="1" style="stop-color:#AD0303"/>
		</linearGradient>
		<polygon class="st23" points="201.7,186.5 20.9,156.2 245.1,246.1 		"/>
		<g class="st2">
			
				<linearGradient id="SVGID_24_" gradientUnits="userSpaceOnUse" x1="186.1484" y1="384.5705" x2="136.2175" y2="384.5705" gradientTransform="matrix(-0.809 0.5878 -0.5878 -0.809 538.3275 321.0868)">
				<stop  offset="0" style="stop-color:#D90303"/>
				<stop  offset="1" style="stop-color:#AD0303"/>
			</linearGradient>
			<polygon class="st24" points="196.4,81 149.7,115 162.2,132.1 192.4,110.2 			"/>
			
				<linearGradient id="SVGID_25_" gradientUnits="userSpaceOnUse" x1="190.4535" y1="346.9557" x2="170.9682" y2="346.9557" gradientTransform="matrix(-0.809 0.5878 -0.5878 -0.809 538.3275 321.0868)">
				<stop  offset="0" style="stop-color:#D90303"/>
				<stop  offset="1" style="stop-color:#AD0303"/>
			</linearGradient>
			<polygon class="st25" points="185,163.4 189.4,131.3 171.2,144.5 			"/>
		</g>
		<g class="st2">
			
				<linearGradient id="SVGID_26_" gradientUnits="userSpaceOnUse" x1="243.8487" y1="384.5705" x2="193.9178" y2="384.5705" gradientTransform="matrix(-0.809 0.5878 -0.5878 -0.809 538.3275 321.0868)">
				<stop  offset="0" style="stop-color:#D90303"/>
				<stop  offset="1" style="stop-color:#AD0303"/>
			</linearGradient>
			<polygon class="st26" points="103.1,148.9 132,154 162.2,132.1 149.7,115 			"/>
			
				<linearGradient id="SVGID_27_" gradientUnits="userSpaceOnUse" x1="212.9707" y1="346.9557" x2="193.4855" y2="346.9557" gradientTransform="matrix(-0.809 0.5878 -0.5878 -0.809 538.3275 321.0868)">
				<stop  offset="0" style="stop-color:#D90303"/>
				<stop  offset="1" style="stop-color:#AD0303"/>
			</linearGradient>
			<polygon class="st27" points="185,163.4 171.2,144.5 153,157.7 			"/>
		</g>
	</g>
	<linearGradient id="SVGID_28_" gradientUnits="userSpaceOnUse" x1="165.0261" y1="158.0458" x2="195.7044" y2="158.0458">
		<stop  offset="0" style="stop-color:#D90303"/>
		<stop  offset="1" style="stop-color:#AD0303"/>
	</linearGradient>
	<circle class="st28" cx="180.4" cy="158" r="15.3"/>
	<g>
		
			<linearGradient id="SVGID_29_" gradientUnits="userSpaceOnUse" x1="124.2478" y1="401.4366" x2="217.7591" y2="292.4324" gradientTransform="matrix(0.309 0.9511 -0.9511 0.309 385.8053 -35.0155)">
			<stop  offset="0" style="stop-color:#D90303"/>
			<stop  offset="1" style="stop-color:#AD0303"/>
		</linearGradient>
		<polygon class="st29" points="169.4,286.1 5.3,204.3 239.6,263.4 		"/>
		
			<linearGradient id="SVGID_30_" gradientUnits="userSpaceOnUse" x1="251.6617" y1="288.0301" x2="331.8933" y2="409.7607" gradientTransform="matrix(0.309 0.9511 -0.9511 0.309 385.8053 -35.0155)">
			<stop  offset="0" style="stop-color:#D90303"/>
			<stop  offset="1" style="stop-color:#AD0303"/>
		</linearGradient>
		<polygon class="st30" points="169.4,286.1 84.8,448.8 239.6,263.4 		"/>
		<g class="st2">
			
				<linearGradient id="SVGID_31_" gradientUnits="userSpaceOnUse" x1="231.5121" y1="382.8409" x2="181.5812" y2="382.8409" gradientTransform="matrix(0.309 0.9511 -0.9511 0.309 385.8053 -35.0155)">
				<stop  offset="0" style="stop-color:#D90303"/>
				<stop  offset="1" style="stop-color:#AD0303"/>
			</linearGradient>
			<polygon class="st31" points="67.5,258.6 85.4,313.5 105.5,306.9 94,271.4 			"/>
			
				<linearGradient id="SVGID_32_" gradientUnits="userSpaceOnUse" x1="235.8173" y1="345.2261" x2="216.332" y2="345.2261" gradientTransform="matrix(0.309 0.9511 -0.9511 0.309 385.8053 -35.0155)">
				<stop  offset="0" style="stop-color:#D90303"/>
				<stop  offset="1" style="stop-color:#AD0303"/>
			</linearGradient>
			<polygon class="st32" points="142.3,294.9 113.1,280.8 120.1,302.2 			"/>
		</g>
		<g class="st2">
			
				<linearGradient id="SVGID_33_" gradientUnits="userSpaceOnUse" x1="289.2125" y1="382.8409" x2="239.2815" y2="382.8409" gradientTransform="matrix(0.309 0.9511 -0.9511 0.309 385.8053 -35.0155)">
				<stop  offset="0" style="stop-color:#D90303"/>
				<stop  offset="1" style="stop-color:#AD0303"/>
			</linearGradient>
			<polygon class="st33" points="103.2,368.3 117,342.4 105.5,306.9 85.4,313.5 			"/>
			
				<linearGradient id="SVGID_34_" gradientUnits="userSpaceOnUse" x1="258.3345" y1="345.2261" x2="238.8492" y2="345.2261" gradientTransform="matrix(0.309 0.9511 -0.9511 0.309 385.8053 -35.0155)">
				<stop  offset="0" style="stop-color:#D90303"/>
				<stop  offset="1" style="stop-color:#AD0303"/>
			</linearGradient>
			<polygon class="st34" points="142.3,294.9 120.1,302.2 127,323.6 			"/>
		</g>
	</g>
	<linearGradient id="SVGID_35_" gradientUnits="userSpaceOnUse" x1="120.9299" y1="296.7302" x2="151.6143" y2="296.7302">
		<stop  offset="0" style="stop-color:#D90303"/>
		<stop  offset="1" style="stop-color:#AD0303"/>
	</linearGradient>
	<circle class="st35" cx="136.3" cy="296.7" r="15.3"/>
	<g>
		<path class="st36" d="M39.6,502.3H45l11.5,27.1h-6.2l-2.5-6H36.5l-2.5,6h-6L39.6,502.3z M45.8,518.2l-3.6-8.7l-3.6,8.7H45.8z"/>
		<path class="st36" d="M60.2,502.5h12.3c3.4,0,6.1,1,7.9,2.7c1.5,1.5,2.3,3.6,2.3,6.2v0.1c0,4.3-2.3,7.1-5.8,8.4l6.6,9.6h-6.9
			l-5.8-8.6h-4.7v8.6h-5.9V502.5z M72.1,515.6c2.9,0,4.5-1.5,4.5-3.8v-0.1c0-2.5-1.8-3.8-4.7-3.8h-5.9v7.7H72.1z"/>
		<path class="st36" d="M87.9,502.5h5.9v11.8l10.9-11.8h7.2l-11,11.4l11.5,15.5h-7.1L96.9,518l-3.1,3.2v8.2h-5.9V502.5z"/>
		<path class="st37" d="M125.6,516.1L125.6,516.1c0-7.7,5.8-14,14.1-14c5.1,0,8.1,1.7,10.6,4.2l-3.8,4.3c-2.1-1.9-4.2-3-6.9-3
			c-4.5,0-7.8,3.8-7.8,8.4v0.1c0,4.6,3.2,8.5,7.8,8.5c3.1,0,5-1.2,7.1-3.2l3.8,3.8c-2.8,3-5.8,4.8-11,4.8
			C131.4,529.9,125.6,523.8,125.6,516.1z"/>
		<path class="st37" d="M152.5,516.1L152.5,516.1c0-7.7,6-14,14.4-14c8.3,0,14.3,6.2,14.3,13.9v0.1c0,7.7-6,13.9-14.4,13.9
			C158.5,529.9,152.5,523.7,152.5,516.1z M175,516.1L175,516.1c0-4.7-3.4-8.5-8.2-8.5c-4.8,0-8.1,3.8-8.1,8.4v0.1
			c0,4.6,3.4,8.5,8.2,8.5S175,520.7,175,516.1z"/>
		<path class="st37" d="M184.7,502.5h6.4l7.1,11.4l7.1-11.4h6.4v26.9h-5.9v-17.6l-7.6,11.5H198l-7.5-11.4v17.5h-5.8V502.5z"/>
		<path class="st37" d="M216.6,502.5h6.4l7.1,11.4l7.1-11.4h6.4v26.9h-5.9v-17.6l-7.6,11.5H230l-7.5-11.4v17.5h-5.8V502.5z"/>
		<path class="st37" d="M247.5,517.9v-15.4h5.9v15.2c0,4.4,2.2,6.7,5.8,6.7c3.6,0,5.8-2.2,5.8-6.5v-15.4h5.9v15.2
			c0,8.2-4.6,12.2-11.8,12.2C252,529.9,247.5,525.9,247.5,517.9z"/>
		<path class="st37" d="M274.9,502.5h5.5l12.6,16.6v-16.6h5.9v26.9h-5l-13-17.1v17.1h-5.9V502.5z"/>
		<path class="st37" d="M304,502.5h5.9v26.9H304V502.5z"/>
		<path class="st37" d="M321.9,508h-8.2v-5.5h22.3v5.5h-8.2v21.5h-5.9V508z"/>
		<path class="st37" d="M348.8,518.9l-10.4-16.3h6.9l6.4,10.8l6.5-10.8h6.7l-10.4,16.2v10.7h-5.9V518.9z"/>
		<path class="st37" d="M379.6,502.5h20.5v5.4h-14.6v5.7h12.9v5.4h-12.9v10.4h-5.9V502.5z"/>
		<path class="st37" d="M404.1,517.9v-15.4h5.9v15.2c0,4.4,2.2,6.7,5.8,6.7c3.6,0,5.8-2.2,5.8-6.5v-15.4h5.9v15.2
			c0,8.2-4.6,12.2-11.8,12.2C408.5,529.9,404.1,525.9,404.1,517.9z"/>
		<path class="st37" d="M431.5,502.5h5.5l12.6,16.6v-16.6h5.8v26.9h-5l-13-17.1v17.1h-5.9V502.5z"/>
		<path class="st37" d="M459.7,502.5h10.5c8.5,0,14.3,5.8,14.3,13.4v0.1c0,7.6-5.8,13.5-14.3,13.5h-10.5V502.5z M470.2,524.1
			c4.8,0,8.1-3.3,8.1-8V516c0-4.8-3.3-8.1-8.1-8.1h-4.6v16.2H470.2z"/>
	</g>
</g>
</svg>
