<?xml version="1.0" encoding="UTF-8" standalone="no"?>
<!-- Generator: Adobe Illustrator 16.0.0, SVG Export Plug-In . SVG Version: 6.00 Build 0)  -->

<svg
   xmlns:dc="http://purl.org/dc/elements/1.1/"
   xmlns:cc="http://creativecommons.org/ns#"
   xmlns:rdf="http://www.w3.org/1999/02/22-rdf-syntax-ns#"
   xmlns:svg="http://www.w3.org/2000/svg"
   xmlns="http://www.w3.org/2000/svg"
   xmlns:sodipodi="http://sodipodi.sourceforge.net/DTD/sodipodi-0.dtd"
   xmlns:inkscape="http://www.inkscape.org/namespaces/inkscape"
   version="1.1"
   id="Layer_1"
   x="0px"
   y="0px"
   width="252px"
   height="270px"
   viewBox="0 0 252 270"
   enable-background="new 0 0 252 270"
   xml:space="preserve"
   inkscape:version="0.91 r13725"
   sodipodi:docname="ACF_logo_submission_terry_williams.svg"><metadata
     id="metadata243"><rdf:RDF><cc:Work
         rdf:about=""><dc:format>image/svg+xml</dc:format><dc:type
           rdf:resource="http://purl.org/dc/dcmitype/StillImage" /></cc:Work></rdf:RDF></metadata><defs
     id="defs241" /><sodipodi:namedview
     pagecolor="#ffffff"
     bordercolor="#666666"
     borderopacity="1"
     objecttolerance="10"
     gridtolerance="10"
     guidetolerance="10"
     inkscape:pageopacity="0"
     inkscape:pageshadow="2"
     inkscape:window-width="805"
     inkscape:window-height="480"
     id="namedview239"
     showgrid="false"
     inkscape:zoom="0.87407407"
     inkscape:cx="126"
     inkscape:cy="135"
     inkscape:window-x="0"
     inkscape:window-y="0"
     inkscape:window-maximized="0"
     inkscape:current-layer="Layer_1" /><g
     id="g3"
     inkscape:export-xdpi="16.190001"
     inkscape:export-ydpi="16.190001"><path
       fill-rule="evenodd"
       clip-rule="evenodd"
       fill="#FEFEFE"
       d="M127,386c-82,0-164-0.027-246,0.096   c-3.424,0.006-4.097-0.672-4.095-4.096c0.108-164,0.108-328,0-492c-0.002-3.423,0.67-4.097,4.095-4.095c164,0.108,328,0.108,492,0   c3.423-0.002,4.097,0.67,4.095,4.095c-0.108,164-0.108,328,0,492c0.002,3.422-0.669,4.102-4.095,4.096C291,385.973,209,386,127,386   z"
       id="path5" /><path
       fill-rule="evenodd"
       clip-rule="evenodd"
       fill="#202D47"
       d="M212.609,137.237c-0.348,46.086-37.788,84.229-82.285,83.83   c-47.01-0.422-88.734-41.121-88.418-86.245c0.325-46.487,38.523-82.94,86.582-82.626C175.025,52.501,212.959,90.85,212.609,137.237   z"
       id="path7" /><path
       fill-rule="evenodd"
       clip-rule="evenodd"
       fill="#B00401"
       d="M72.947,133.885c1.283-4.392,5.13-6.24,8.534-8.463   c7.135-4.659,10.567-11.773,13.193-19.46c-0.276-0.443-0.175-0.771,0.302-0.982c0.443-0.595,0.887-1.188,1.329-1.783   c0.29-1.629,1.218-2.866,2.411-3.942c2.055-2.771,4.173-5.465,7.676-6.535c2.194,1.188,0.646,2.519,0.081,3.726   c-5.191,11.109-11.748,21.468-17.53,32.275c1.712-3.42,4.157-6.271,6.942-8.841c3.984-3.676,5.199-8.771,6.881-13.593   c2.08-5.964,4.39-11.77,8.378-16.783c0.896-1.127,1.932-2.326,1.844-3.974c0.044-1.505,0.278-2.889,2.079-3.278   c0.773-0.895,1.32-1.872,1.146-3.116c-0.671-0.542-0.333-1.09-0.017-1.642c0.797-0.988,1.427-2.091,2.115-3.158   c1.249-1.209,2.349-2.737,4.463-2.147c2.82,1.085,1.978,3.235,1.034,4.865c-2.575,4.445-1.09,10.009-4.355,14.349   c-1.16,1.542,1.022,3.993,2.473,3.866c5.022-0.436,3.461,3.252,2.54,4.646c-3.282,4.972-5.976,10.297-9.541,15.18   c-4.84,6.629-12.338,10.479-16.135,17.728c-0.136,1.854-1.94,1.407-2.911,2.11c-1.979,0.745-3.958,1.49-5.938,2.236   c-1.419,0.527-2.664-0.055-3.914-0.604c-2.986-0.911-5.981-0.716-8.985-0.067c-0.472,0.079-0.938,0.069-1.408,0   C74.424,135.95,72.574,136.055,72.947,133.885z"
       id="path9" /><path
       fill-rule="evenodd"
       clip-rule="evenodd"
       fill="#EEE289"
       d="M122.774,72.188c-1.225,0.815-2.449,1.631-3.675,2.446   c-2.672,1.361-5.544,0.716-8.324,0.741c-8.128,0.075-16.259,0.122-24.384-0.04c-1.9-0.038-4.521,0.886-5.21-2.249   c22.33-14.657,46.277-17.829,71.723-9.984c7.175,2.211,13.572,6.066,19.915,9.985c-0.847,3.369-3.69,2.2-5.7,2.238   c-11.439,0.215-22.884-0.046-34.326,0.176c-0.646,0.028-1.237-0.138-1.774-0.495C128.583,69.633,126.803,69.023,122.774,72.188z"
       id="path11" /><path
       fill-rule="evenodd"
       clip-rule="evenodd"
       fill="#AE0602"
       d="M127.133,148.743c-2.998-3.698-2.111-6.412,1.224-9.776   c6.051-6.101,11.01-13.176,15.083-20.799c1.847-3.455,4.58-5.949,8.499-7.431c-5.303,8.75-10.606,17.499-15.909,26.249   c0.206,0.186,0.412,0.372,0.618,0.558c2.29-2.528,4.574-5.063,6.874-7.582c0.768-0.841,1.562-2.346,2.365-2.359   c9.161-0.165,11.507-8.26,16.178-13.631c0.427-0.49,0.794-1.042,1.272-1.47c0.185-0.164,0.605-0.063,1.485-0.119   c-0.9,4.77,2.463,9.641-1.132,14.216c-1.806,2.299-4.043,4.082-7.044,4.267c-6.595,0.407-10.896,4.159-14.126,9.453   c-1.285,2.106-2.791,3.582-5.329,3.991c-4.423,0.715-4.895,5.499-7.806,7.796C128.092,151.348,127.746,149.956,127.133,148.743z"
       id="path13" /><path
       fill-rule="evenodd"
       clip-rule="evenodd"
       fill="#0BC1EC"
       d="M148.098,171.812c0.627,0.21,1.503,0.228,1.838,0.662   c1.803,2.336,6.49,2.507,5.684,6.671c-0.786,4.059-4.489,2.447-7.051,2.81c-1.719,0.242-2.465,1.547-3.563,2.497   c-1.553,0.638-3.088,1.291-2.865,3.418c-1.607,2.131-4.193,3.831-3.14,7.134c1.036,1.129,1.127,2.37,0.442,3.701   c-2.514,0.809-2.438-1.382-2.802-2.667c-0.397-1.402-0.106-2.948-0.109-3.655c0.054,1.51-0.41,3.819,0.847,6.011   c0.644,1.121,2.229,2.744,0.058,3.688c-1.854,0.807-3.589,0.141-4.09-2.198c-0.017-1.368,0.25-2.753-0.178-4.111   c-0.713-3.722-0.259-7.002,3.203-9.099c-0.953-0.129-1.286,0.997-1.99,1.554c-1.451,0.676-1.558,2.629-3.074,3.25   c-0.899-0.044-1.591-0.355-1.775-1.347c-0.093-0.497,0.062-1.004-0.07-1.499c0.8,2.184-2.367-0.064-2.124,1.981   c0.202,1.694,0.146,3.724-1.991,4.616c-1.775-0.788-1.052-2.555-1.47-3.797c-2.093-0.425-1.704,2.837-3.772,2.452   c-2.312-6.1,1.233-13.754,8.646-18.543c0.966-0.624,2.086-1.008,3.135-1.502c2.458-1.015,4.12,0.313,5.614,1.974   c1.813,2.014-0.543,3.173-0.93,4.173c1.186-1.426,3.78-1.642,5.082-4.117c1.31-2.492,1.901,0.145,2.346,1.206   c0.729-2.08-2.722-2.738-1.972-4.981c0.658-0.055,1.316-0.109,1.975-0.164C145.364,171.873,146.792,173.969,148.098,171.812z"
       id="path15" /><path
       fill-rule="evenodd"
       clip-rule="evenodd"
       fill="#DFC36D"
       d="M131.019,75.006c0.298-0.009,0.596-0.014,0.894-0.014   c12.765,0.025,25.528,0.011,38.293,0.004c1.988-0.001,3.987-0.167,5.84,0.792c1.268,1.05,2.535,2.1,4.822,3.994   c-16.215,0-31.286,0-47.382,0c2.417,2.084,4.195,1.48,5.79,1.486c13.137,0.055,26.273,0.101,39.409-0.027   c2.92-0.029,5.129,0.602,6.961,4.054c-3.225,0-5.937,0-8.647,0c-12.638,0-25.276-0.045-37.913,0.067   c-1.297,0.011-3.567-1.337-3.833,1.573c-0.256,0.393-0.535,0.43-0.842,0.056C133.19,83.021,131.458,79.196,131.019,75.006z"
       id="path17" /><path
       fill-rule="evenodd"
       clip-rule="evenodd"
       fill="#176888"
       d="M86.169,135.895c1.258,0.425,2.516,0.849,3.773,1.273   c1.697,0.623,3.395,1.246,5.092,1.869c-0.28,2.933-2.842,2.736-4.727,3.347c-3.863,1.253-8.048,1.586-11.429,4.074   c1.666-0.407,3.462-3.213,4.895-1.12c1.146,1.673-1.751,2.721-2.84,4.053c-0.427,0.521-0.75,1.078-0.896,1.731   c-0.055,0.656-0.103,1.313-0.222,1.96c-0.104,0.435-0.283,0.837-0.514,1.218c-1.23,1.216-2.107,2.886-4.053,3.194   c-4.237,8.125-9.123,16.007-9.606,26.236c-1.397-1.871-2.493-3.338-3.59-4.806c0.301-3.565-1.447-7.233,0.531-10.712   c0.404-0.424,0.892-0.545,1.448-0.366c1.064,2.618,0.131,5.358,0.515,8.026c-0.248-3.61,0.182-7.193,0.367-10.784   c0.607-3.28,2.336-5.824,5.082-7.693c-0.23-1.357,3.773-2.591,0.088-4.021c-1.2-0.655-2.402-0.035-3.601-0.009   c-1.57-0.962-1.914,1.464-3.24,1.178c-0.451-0.012-0.828-0.186-1.132-0.518c-0.133-1.622,0.385-2.923,1.854-3.754   c1.448-1.849,3.644-2.271,5.683-2.999c0.385-0.219,0.778-0.415,1.169-0.621c2.692-2.276,6.484-2.458,9.101-4.826   c-0.172-0.568-0.299-1.131-0.071-1.694c1.816-1.419-2.769-2.277-0.337-3.762C81.726,136.127,83.873,134.961,86.169,135.895z"
       id="path19" /><path
       fill-rule="evenodd"
       clip-rule="evenodd"
       fill="#0CBAE4"
       d="M79.03,151.066c-0.62-3.468,3.295-3.237,4.511-5.775   c-3.323,0.112-4.863,3.262-7.733,3.727c2.708-3.806,6.835-5.388,10.984-6.94c2.743-1.026,5.952-0.789,8.242-3.04   c4.964-3.417,17.662-4.629,22.031-2.102c-0.161,0.175-0.323,0.35-0.483,0.526c-1.458,0.978-3.017-0.332-4.632,0.179   c6.579,0.857,7.982,2.078,8.943,7.686c-0.932,3.155-3.112,1.962-4.754,1.094c-6.399-3.382-12.979-3.634-19.776-1.603   c-4.828,1.047-9.58,2.262-13.712,5.193C81.619,150.743,80.491,151.598,79.03,151.066z"
       id="path21" /><path
       fill-rule="evenodd"
       clip-rule="evenodd"
       fill="#CFAB59"
       d="M134.41,86.991c0.276-0.062,0.557-0.08,0.841-0.056   c16.261,0.046,32.521,0.11,48.782,0.119c2.558,0.001,5.003-0.057,5.793,3.808c-7.938,0-15.652,0-23.366,0   c-7.468,0-14.936-0.045-22.401,0.063c-0.869,0.013-3.812-1.164-1.978,1.952c1.333,1.076,2.244,2.255,0.977,3.971   C140.363,93.397,138.859,88.902,134.41,86.991z"
       id="path23" /><path
       fill-rule="evenodd"
       clip-rule="evenodd"
       fill="#AF7F3A"
       d="M143.904,98.761c11.094-1.072,22.215-0.219,33.32-0.455   c4.989-0.106,9.982-0.022,14.974-0.013c1.861,0.003,4.355,0.005,4.304,2.258c-0.056,2.442-2.634,1.219-4.021,1.231   c-15.469,0.146-30.938,0.162-46.407,0.213C144.839,101.26,144.785,99.733,143.904,98.761z"
       id="path25" /><path
       fill-rule="evenodd"
       clip-rule="evenodd"
       fill="#CDA957"
       d="M102.866,92.732c1.729-2.986-1.139-1.79-1.873-1.797   c-10.61-0.097-21.222-0.043-31.833-0.091c-1.58-0.008-3.245,0.453-4.893-0.486c0.663-3.289,3.061-3.303,5.632-3.313   c13.919-0.053,27.839-0.176,41.758-0.274c0.48,0.122,0.762,0.435,0.874,0.91c-0.901,3.146-3.877,3.557-6.261,4.75   c-1.238,0.363-1.71,2.439-3.5,1.569C102.523,93.558,102.556,93.135,102.866,92.732z"
       id="path27" /><path
       fill-rule="evenodd"
       clip-rule="evenodd"
       fill="#D2B565"
       d="M115.067,82.251c-0.332,0.872-0.664,1.743-0.996,2.614   c-0.876,0.589-0.212,2.415-1.893,2.357c-0.146-0.182-0.319-0.332-0.521-0.451c-0.613-2.639-2.738-1.35-4.102-1.364   c-11.328-0.117-22.659-0.039-33.988-0.099c-1.567-0.009-3.263,0.565-4.921-0.627c1.186-1.942,2.405-3.484,4.967-3.475   c13.329,0.05,26.658,0.036,39.987,0.024C114.384,81.231,114.813,81.575,115.067,82.251z"
       id="path29" /><path
       fill-rule="evenodd"
       clip-rule="evenodd"
       fill="#0BC3EE"
       d="M74.144,182.095c-0.508,2.918-1.016,5.835-1.573,9.04   c-2.941-1.313-3.877-3.474-3.035-6.572c1.913-7.04,4.407-13.924,7.842-20.302c2.964-5.503,8.44-8.159,14.527-9.36   c0.776-0.412,2.16,0.039,1.986,0.233c-1.941,2.178,0.227,0.921,0.636,0.755c3.089-1.249,5.78-0.096,8.284,1.501   c0.991,0.632,2.249,1.77,0.412,3.041c-10.474-3.177-17.829,1.459-23.813,9.519c-1.621,2.183-2.115,4.831-2.945,7.332   C75.896,178.996,75.752,180.89,74.144,182.095z"
       id="path31" /><path
       fill-rule="evenodd"
       clip-rule="evenodd"
       fill="#E2C972"
       d="M116.734,78.004c-0.175,0.383-0.349,0.767-0.521,1.141   c-0.356,0.301-0.712,0.881-1.069,0.882c-13.568,0.046-27.138,0.039-42.128,0.039c2.342-2.021,3.643-3.145,4.943-4.268   c2.011-1.069,4.192-0.794,6.336-0.793c9.616,0.005,19.232-0.071,28.848,0.06C114.867,75.089,117.792,74.298,116.734,78.004z"
       id="path33" /><path
       fill-rule="evenodd"
       clip-rule="evenodd"
       fill="#0E8BC7"
       d="M106.976,209.983c0.053,0.774,1.943,2.325-0.712,1.979   c-2.408-0.314-3.989-2.062-5.52-3.777c-3.574-1.78-6.907-3.79-7.733-8.171c-0.433-1.624-0.864-3.248-1.296-4.872   c0.268-0.847,0.38-1.785,1.315-2.239c1.974-1.504-0.732-2.567-0.369-3.92c0.543-2.264,0.47-4.479-0.167-6.747   c-0.441-1.571-1.287-3.525,1.415-4.122c0.247,0.953-0.23,2.187,1.056,2.74c3.054,2.809,3.461,6.833,4.665,10.457   c0.452,1.36,0.58,2.854,1.218,4.186c0.491,2.785,3.919,3.43,4.498,6.149c-0.097,0.674-0.475,1.186-0.941,1.638   C103.118,206.341,106.932,207.443,106.976,209.983z"
       id="path35" /><path
       fill-rule="evenodd"
       clip-rule="evenodd"
       fill="#0BC3EE"
       d="M102.997,155c-7.554-4.465-14.791-2.234-21.979,1.04   c-1.133,0.301-1.271-0.401-1.267-1.253c2.876-4.262,7.429-5.173,12.016-6.023c1.487-0.047,2.965-0.174,4.409-0.585   c2.895-0.405,5.38,0.91,7.949,1.882c7.374,5.12,13.632,11.065,14.061,20.81c0.1,2.274,1.358,4.043,1.737,6.139   c-0.541,1.302-1.845,1.623-2.902,2.262c-4.555,0.601-4.166-2.876-4.266-5.521c-0.182-4.842-0.187-9.646-3.88-13.432   C107.225,158.209,104.463,157.317,102.997,155z"
       id="path37" /><path
       fill-rule="evenodd"
       clip-rule="evenodd"
       fill="#C9933D"
       d="M147.06,104.142c15.312,0.042,30.624,0.083,45.936,0.124   c0.999,0.003,1.998,0.004,2.996-0.003c1.188-0.008,2.729-0.012,2.772,1.403c0.054,1.776-1.694,1.165-2.692,1.172   c-8.323,0.057-16.649-0.101-24.969,0.081c-5.149,0.112-10.288,1.941-15.355-0.864c-1.841-1.019-3.137,1.529-4.922,1.818   C148.444,107.765,147.249,106.461,147.06,104.142z"
       id="path39" /><path
       fill-rule="evenodd"
       clip-rule="evenodd"
       fill="#CD9E49"
       d="M143.058,96.849c-0.326-1.324-0.651-2.647-0.978-3.971   c15.328,0.01,30.656,0.005,45.984,0.044c2.193,0.006,4.887-0.714,5.393,3.188c-14.934,0-29.741-0.012-44.548,0.016   C146.941,96.128,144.894,95.696,143.058,96.849z"
       id="path41" /><path
       fill-rule="evenodd"
       clip-rule="evenodd"
       fill="#08ABF4"
       d="M99.137,180.926c-0.472-2.914-1.837-5.736-0.937-8.796   c7.999,24.94,27.119,34.729,51.261,37.679c1.15,0.141,2.539-0.22,3.409,0.315c0.734,0.452-0.471,0.79-0.904,1.108   c-16.188,2.734-29.274-4.372-41.83-13.169c-1.543-1.26-3.35-2.21-4.605-3.818C103.41,189.803,99.541,186.194,99.137,180.926z"
       id="path43" /><path
       fill-rule="evenodd"
       clip-rule="evenodd"
       fill="#16638E"
       d="M138.982,198.98c0.006-1.326,0.012-2.652,0.018-3.978   c1.323-1.261,2.583-3.514,3.979-3.602c5.051-0.318,1.256-8.863,7.725-7.295c-2.44,6.018,0.133,10.44,5.363,13.804   c0.026,0.889,0.71,1.493,0.995,2.275c0.363,1.836,0.108,3.195-2.26,2.91c-1.348-2.16-3.064-3.42-5.837-3.525   c-2.158-0.083-2.3,1.189-2.724,2.546c-0.626,0.741-1.436,1.142-2.379,1.302C141.666,202.569,138.481,202.799,138.982,198.98z"
       id="path45" /><path
       fill-rule="evenodd"
       clip-rule="evenodd"
       fill="#0DB6DE"
       d="M95.993,143.858c6.842-2.787,13.464-2.3,20.046,1.021   c1.043,0.526,2.858,3.646,4.045-0.107c0.891-2.23-0.522-3.616-1.85-5.028c-0.734-0.781-1.987-1.325-1.221-2.765   c0,0,0.051-0.043,0.052-0.044c5.047,1.993,7.411,8.692,5.654,16.02c-2.458,0.857-4.541-0.041-6.433-1.494   c-1.611-1.238-3.361-2.06-5.372-2.339c-5.456-2.735-11.519-1.028-17.16-2.335c-1.012-1.91-1.012-1.912,1.756-2.271   c0.152-0.02,0.358,0.115,0.468,0.053C96.371,144.344,96.361,144.082,95.993,143.858z"
       id="path47" /><path
       fill-rule="evenodd"
       clip-rule="evenodd"
       fill="#CD9E49"
       d="M102.866,92.732c0.04,0.367,0.081,0.734,0.121,1.102   c-0.667,1.802-2.221,2.924-3.347,4.374c-0.227-0.064-0.453-0.13-0.68-0.195c-0.315-3.043-2.693-1.835-4.212-1.852   c-11.104-0.122-22.208-0.104-33.313-0.14c-0.154-0.001-0.308-0.112-0.692-0.263c0.172-3.386,2.729-2.828,4.836-2.842   C78.009,92.838,90.438,92.791,102.866,92.732z"
       id="path49" /><path
       fill-rule="evenodd"
       clip-rule="evenodd"
       fill="#0CB9E2"
       d="M159.214,191.969c0.815-7.024,5.404-11.599,12.221-12.092   c2.059-0.148,4.378,0.177,4.935,2.349c0.58,2.267-2.229,1.882-3.349,2.902c-1.254,2.481-1.162,5.433-2.723,7.81   c-1.999-0.111-3.811-2.145-5.876,1.142C162.962,196.401,160.705,193.517,159.214,191.969z"
       id="path51" /><path
       fill-rule="evenodd"
       clip-rule="evenodd"
       fill="#BA8639"
       d="M99.022,100.53c-0.906,0.888-1.813,1.775-2.718,2.664   c-0.527-2.215-2.231-1.399-3.617-1.399c-10.463,0.001-20.926,0.039-31.389-0.043c-1.312-0.01-3.614,0.907-3.768-1.034   c-0.174-2.197,2.148-2.004,3.773-2.006c10.961-0.014,21.922-0.043,32.882,0.046c1.677,0.014,3.254-0.032,4.774-0.745l0.028,0.006   C99.692,98.847,99.382,99.688,99.022,100.53z"
       id="path53" /><path
       fill-rule="evenodd"
       clip-rule="evenodd"
       fill="#CC8F37"
       d="M94.977,104.979c-0.104,0.328-0.207,0.656-0.306,0.983   c-3.466,1.755-7.18,0.795-10.771,0.855c-8.797,0.151-17.598,0.059-26.396,0.028c-0.903-0.003-2.222,0.325-2.34-1.081   c-0.113-1.355,1.091-1.496,2.088-1.469C69.824,104.64,82.426,103.449,94.977,104.979z"
       id="path55" /><path
       fill-rule="evenodd"
       clip-rule="evenodd"
       fill="#156895"
       d="M99.137,180.926c1.904,4.617,5.86,8.13,7.063,13.124   c0.624,2.146,4.207,2.682,3.133,5.751c-2.179,1.814-3.052-2.2-5.074-1.118c-2.604,1.017-2.994-1.509-4.26-2.635   c-1.678-5.064-3.355-10.129-5.034-15.194c0.049-2.414,0.001-4.825-0.908-7.688c2.581,1.098,1.405,2.971,2.08,4.027   C96.987,178.527,95.788,181.612,99.137,180.926z"
       id="path57" /><path
       fill-rule="evenodd"
       clip-rule="evenodd"
       fill="#0BC2EB"
       d="M103.047,167.953c-2.845-3.381-6.2-2.577-9.484-0.974   c-6.396,3.124-8.848,8.805-9.262,15.469c-0.204,3.283-0.863,6.078-3.16,8.618c-0.949,1.05-3.414,2.601-0.925,4.715   c0.219,0.187,0.176,0.978-0.032,1.309c-0.506,0.807-0.967,0.186-1.55-0.115c-3.351-1.729-1.697-4.372-0.397-5.788   c3.569-3.889,3.833-8.663,4.727-13.377c1.242-6.552,5.515-10.922,11.199-13.82c4.286-2.186,7.611-0.656,10.063,3.953   C103.837,168.444,103.444,168.448,103.047,167.953z"
       id="path59" /><path
       fill-rule="evenodd"
       clip-rule="evenodd"
       fill="#156A95"
       d="M173.008,186.046c2.551,2.888,4.596,6.483,9.32,6.133   c-2.852,5.252-8.047,5.946-12.559,7.61c-1.941,0.717-4.336,0.629-5.829-1.559c-0.306-2.76,2.392-3.92,3.545-3.266   c3.626,2.059,2.12-1.537,3.054-2.317C171.266,190.411,171.608,188.03,173.008,186.046z"
       id="path61" /><path
       fill-rule="evenodd"
       clip-rule="evenodd"
       fill="#0CC0E8"
       d="M122.858,174.024c-0.693,0.557-1.387,1.112-2.08,1.669   c-3.393-0.018-3.512-2.502-3.206-4.77c0.715-5.31-2.609-9.684-3.243-14.753c-0.355-2.839-4.599-4.427-7.667-5.751   c-1.677-0.724-3.455-1.13-5.267-1.394c-1.794-0.194-3.566-0.496-5.338-0.816c-0.554-2.086,1.063-1.61,2.069-1.676   c11.144-0.729,19.362,3.502,23.798,14.108c2.369,3.839,3.112,7.958,2.1,12.373l0.009,0.038c-3.026,0.957-3.681-1.336-4.304-3.336   c-0.521-1.677-0.129-3.456-0.053-5.186C119.101,170.235,119.237,170.669,122.858,174.024z"
       id="path63" /><path
       fill-rule="evenodd"
       clip-rule="evenodd"
       fill="#0BC4EE"
       d="M104.813,165.26c-4.459-5.011-13.426-4.461-19.146,1.354   c-3.969,4.035-6.485,9.049-8.778,14.164c-2.157,0.142-1.36-1.389-1.223-2.345c1.269-8.777,9.503-17.576,18.177-19.664   c3.157-0.76,5.867,0.154,8.517,1.663c2.631,0.354,5.81,0.078,5.037,4.364c-0.296,0.408-0.69,0.674-1.179,0.799   C105.722,165.601,105.253,165.489,104.813,165.26z"
       id="path65" /><path
       fill-rule="evenodd"
       clip-rule="evenodd"
       fill="#186384"
       d="M101.965,148.187c5.787,0.344,11.781,2.681,13.624,7.498   c1.531,4.003,3.26,9.008,2.37,13.961c-0.455,2.531-0.303,5.055,2.82,6.048c-0.286,0.438-0.57,0.877-0.855,1.315   c-2.004-0.964-2.887-2.539-2.866-4.776c0.093-9.81-6.198-15.694-13.122-21.173C103.55,149.915,101.437,149.957,101.965,148.187z"
       id="path67" /><path
       fill-rule="evenodd"
       clip-rule="evenodd"
       fill="#08AAF3"
       d="M109.107,199.943c-0.022-2.433-3.291-3.263-2.908-5.895   c1.297,0.813,2.934,1.146,3.734,2.655c9.683,8.807,21.134,13.54,34.09,14.831c0.807,0.08,2.221-0.406,1.748,1.379   c-2.505,0.266-4.917,1.335-7.507,0.858c-10.393-0.061-19.113-4.465-27.17-10.531C110.049,202.453,109.168,201.404,109.107,199.943z   "
       id="path69" /><path
       fill-rule="evenodd"
       clip-rule="evenodd"
       fill="#10A1C7"
       d="M133.826,195.981c1.412,0.962,1.66,1.968,0.113,3.04   c-1.621,1.954,0.325,3.283,0.851,4.861c-3.113,1.857-4.874-0.422-6.79-2.223c-2.027-1.809-3.838-3.708-2.816-6.783   c1.092-0.863,0.615-2.127,0.843-3.218c0.775-3.724,2.297-3.911,5.95-0.769c1.428,1.052,0.765,2.713,1.185,4.058   C133.339,195.32,133.562,195.664,133.826,195.981z"
       id="path71" /><path
       fill-rule="evenodd"
       clip-rule="evenodd"
       fill="#565953"
       d="M176.045,75.788c-13.663,0.049-27.325,0.105-40.987,0.129   c-1.106,0.002-2.382,0.342-3.146-0.925c3.817-1.605,7.809-0.573,11.706-0.662c8.278-0.189,16.564-0.002,24.845-0.109   c1.46-0.019,3.38,1.006,4.356-1.134C174.336,73.461,175.12,74.709,176.045,75.788z"
       id="path73" /><path
       fill-rule="evenodd"
       clip-rule="evenodd"
       fill="#565952"
       d="M116.734,78.004c0.245-3.5-2.467-1.963-3.815-1.983   c-11.651-0.176-23.307-0.173-34.96-0.223c0.914-1.094,1.706-2.333,3.223-2.712c1.152,2.243,3.221,1.096,4.823,1.129   c11.029,0.231,22.063,0.3,33.095,0.42C118.429,75.839,118.474,77.548,116.734,78.004z"
       id="path75" /><path
       fill-rule="evenodd"
       clip-rule="evenodd"
       fill="#0AA3E9"
       d="M99.999,196.048c1.597,0.066,1.7,3.284,3.988,1.889   c2.699-0.096,3.811,2.347,5.497,3.693c6.667,5.325,14.069,8.955,22.342,10.948c1.189,0.287,3.149,0.033,2.923,2.302   c-3.512,0.231-6.965,0.077-10.186-1.575c-1.936,1.2-3.591,0.281-5.245-0.68c-3.601-1.988-7.232-3.924-10.555-6.369   c-1.575-1.159-3.398-2.11-3.742-4.335C103.852,199.531,100.21,199.257,99.999,196.048z"
       id="path77" /><path
       fill-rule="evenodd"
       clip-rule="evenodd"
       fill="#B37122"
       d="M89.005,114.018c-0.43-2.956-2.773-1.793-4.315-1.811   c-9.111-0.107-18.226-0.016-27.338-0.09c-1.502-0.012-3.209,0.662-5.552-1.643c13.86,0,26.728,0,39.655,0   c-0.188,0.965-1.213,2.307-2.472,3.521L89.005,114.018z"
       id="path79" /><path
       fill-rule="evenodd"
       clip-rule="evenodd"
       fill="#1275A9"
       d="M93.011,200.014c2.579,2.729,5.159,5.456,7.736,8.178   c-0.148,2.651-1.978,1.506-2.646,0.799c-2.795-2.958-6.973-3.262-10.278-5.576c-3.622-2.537-3.976-5.139-5.172-9.418   C85.585,198.438,88.998,199.808,93.011,200.014z"
       id="path81" /><path
       fill-rule="evenodd"
       clip-rule="evenodd"
       fill="#1D2A47"
       d="M108.953,187.725c-1.49-0.777-1.969-2.236-2.48-3.673   c-2.637-2.494-3.475-5.919-4.667-9.145c-0.437-1.182-0.489-2.396,1.464-1.862c0.265,0.113,0.49,0.279,0.676,0.5   c3.067,1.786,3.015,5.165,4.073,7.974c2.007,1.773,3.884,3.918,7.024,2.463l-0.082,0.032c1.249,1.357,2.221,8.398,1.268,9.536   c-0.95,1.134-1.76,0.254-2.425-0.365C112.019,191.521,110.133,189.932,108.953,187.725z"
       id="path83" /><path
       fill-rule="evenodd"
       clip-rule="evenodd"
       fill="#C1781E"
       d="M88.983,113.996c-0.499,2.385-1.754,3.844-4.395,3.83   c-10.636-0.055-21.271-0.066-31.907-0.128c-0.414-0.002-0.826-0.347-1.597-0.691c1.227-1.629,2.808-1.089,4.085-1.097   c8.809-0.057,17.618-0.104,26.425,0.022c2.717,0.039,5.221-0.182,7.41-1.915L88.983,113.996z"
       id="path85" /><path
       fill-rule="evenodd"
       clip-rule="evenodd"
       fill="#1B4868"
       d="M155.024,203.021c1.905-0.661,1.485-2.002,0.984-3.367   c3.429-0.482,6.266,3.215,9.882,1.398c1.32,0.194,3.463-0.922,3.575,1.324c0.077,1.541-1.801,1.644-3.15,1.649   c-1.512,0.006-2.156,0.701-3.278,1.885c-2.24,2.363-5.732,3.146-9.095,1.293c-0.658-1.385-3.112-2.12-1.771-4.189   C152.886,201.911,154.069,202.131,155.024,203.021z"
       id="path87" /><path
       fill-rule="evenodd"
       clip-rule="evenodd"
       fill="#08A9F2"
       d="M120.561,212.028c1.04,1.35,2.726,0.682,4.005,1.278   c-4.33,3.185-8.378,0.412-12.47-0.658c-1.865-0.488-2.999-2.554-5.12-2.665c-2.761-1.006-3.742-3.813-5.027-5.9   c-1.317-2.141,0.894-1.461,2.058-1.086c3.474,0.746,5.566,3.729,8.558,5.325C115.178,209.716,117.701,211.2,120.561,212.028z"
       id="path89" /><path
       fill-rule="evenodd"
       clip-rule="evenodd"
       fill="#1C3E5C"
       d="M134.79,203.883c-1.156-1.468-4.495-2.554-0.851-4.861   c-0.26,3.162,1.852,2.621,3.901,2.387c-1.769-3.338-2.707-6.788-1.311-11.683c0.697,3.834-0.033,7.09,2.452,9.255   c0.526,2.439,3.124,2.592,4.509,4.084c2.384,0.063,4.41,1.078,6.334,2.374c0.234,0.245,0.348,0.516,0.346,0.81   c-0.003,0.306-0.033,0.458-0.091,0.458c-4.222,1.012-8.276,0.442-12.211-1.28C136.815,204.965,136.579,202.874,134.79,203.883z"
       id="path91" /><path
       fill-rule="evenodd"
       clip-rule="evenodd"
       fill="#86A2AB"
       d="M127.133,148.743c1.329,0.732,1.591,2.18,2.252,3.361   c1.553,5.837,2.336,11.713,0.81,18.112c7.645-1.121,15.232-5.845,22.721-0.194c-0.418,0.324-0.859,0.36-1.324,0.109   c-8.44-3.07-16.129,0.339-24.664,3.101C131.597,164.762,128.851,156.764,127.133,148.743z"
       id="path93" /><path
       fill-rule="evenodd"
       clip-rule="evenodd"
       fill="#1C3D5C"
       d="M145.771,212.914c-4.629-0.949-9.371-1.531-13.86-2.927   c-8.364-2.599-16.451-5.885-21.978-13.282c9.368,6.445,19.23,11.719,30.616,13.762c3.814,0.685,7.616,0.464,11.416,0.766   C149.901,211.793,147.836,212.354,145.771,212.914z"
       id="path95" /><path
       fill-rule="evenodd"
       clip-rule="evenodd"
       fill="#128FB3"
       d="M107.005,164.999c0.096-2.767-2.002-3.313-4.005-3.955   c-0.353-0.208-0.476-0.426-0.371-0.654c0.106-0.231,0.216-0.349,0.329-0.349c-0.847-4.158-4.759-3.431-7.147-3.481   c-1.928-0.04-2.612-1.177-3.906-1.659c3.716-2.029,7.398-0.302,11.093,0.1c2.401,0.679,4.428,1.935,5.999,3.894   c1.165,2.336,4.264,4.872-0.68,6.584C107.825,165.471,107.391,165.302,107.005,164.999z"
       id="path97" /><path
       fill-rule="evenodd"
       clip-rule="evenodd"
       fill="#BA7420"
       d="M50.024,121.784c10.87,0,21.739,0,32.609,0   c0.012,0.341,0.024,0.682,0.036,1.023c-10.851,0-21.701,0-32.552,0C50.087,122.466,50.056,122.125,50.024,121.784z"
       id="path99" /><path
       fill-rule="evenodd"
       clip-rule="evenodd"
       fill="#B27020"
       d="M166.83,110.729c9.843-1.611,19.753-0.296,29.627-0.639   c1.592-0.055,3.704-0.989,4.946,1.657c-9.276,1.299-18.511-0.695-27.547,1.124C171.345,112.714,168.612,113.277,166.83,110.729z"
       id="path101" /><path
       fill-rule="evenodd"
       clip-rule="evenodd"
       fill="#1A506F"
       d="M102.958,160.041c0.015,0.335,0.028,0.669,0.042,1.003   c-11.628-6.895-26.696,8.276-26.743,19.056c-0.001,0.225,0.411,0.452,0.631,0.678c-0.416,2.727-1.207,5.394-0.713,9.227   c-2.125-3.126-0.245-5.897-2.031-7.909c1.103-10.575,6.187-18.406,16.02-22.789C94.466,157.388,98.844,157.193,102.958,160.041z"
       id="path103" /><path
       fill-rule="evenodd"
       clip-rule="evenodd"
       fill="#147DA0"
       d="M142.024,172.093c1.72,1.98,3.7,3.857,2.826,7.039   c-1.773-0.549-1.549-2.303-2.907-4.942c1.471,7.751-6.156,4.098-6.795,8.542c2.395-6.961,2.395-6.961-3.265-8.893   C134.996,171.698,138.52,171.949,142.024,172.093z"
       id="path105" /><path
       fill-rule="evenodd"
       clip-rule="evenodd"
       fill="#167395"
       d="M62.111,154.025c0.373,0.006,0.746,0.012,1.119,0.019   c1.23,2.743-1.144,4.311-1.966,6.362c0.857-0.342,1.06-1.894,2.426-1.583c1.295,0.863,1.237,2.134,1.055,3.448   c-1.112,3.69-2.959,7.217-2.304,11.288c0.162,1.009-0.328,1.894-1.346,2.354c-4.603-2.796-3.288-7.305-2.877-11.248   C58.609,160.908,59.768,157.188,62.111,154.025z"
       id="path107" /><path
       fill-rule="evenodd"
       clip-rule="evenodd"
       fill="#1B4668"
       d="M134.749,214.88c-1.491-1.902-3.81-1.71-5.82-2.276   c-9.6-2.707-17.751-7.867-24.941-14.666c-0.244-0.704-0.487-1.407-0.983-2.842c2.436,1.935,4.269,3.392,6.103,4.849   c8.078,8.068,18.476,11.249,29.157,13.828C137.146,214.31,136.122,215.146,134.749,214.88z"
       id="path109" /><path
       fill-rule="evenodd"
       clip-rule="evenodd"
       fill="#107FB8"
       d="M150.08,206.706c-0.019-0.22-0.073-0.431-0.164-0.632   c-0.696-1.809-3.686-1.024-3.866-3.418c-0.055-1.735-1.931-4.27,0.627-4.977c3.924-1.084,7.472,1.561,8.348,5.342   c-6.353-0.157,1.058,3.248-1.082,4.182C152.654,207.038,151.367,206.872,150.08,206.706z"
       id="path111" /><path
       fill-rule="evenodd"
       clip-rule="evenodd"
       fill="#BB701B"
       d="M177.21,121.135c8.937,0,17.874,0,26.812,0   c-0.01,0.654-0.019,1.309-0.027,1.963c-8.65,0-17.301,0-25.952,0C177.189,122.688,176.489,122.212,177.21,121.135z"
       id="path113" /><path
       fill-rule="evenodd"
       clip-rule="evenodd"
       fill="#C17419"
       d="M175.984,115.96c8.858,0,17.718,0,26.577,0   c0.006,0.675,0.012,1.349,0.018,2.023c-8.599,0-17.198,0-25.798,0C175.145,117.849,175.352,116.988,175.984,115.96z"
       id="path115" /><path
       fill-rule="evenodd"
       clip-rule="evenodd"
       fill="#1294B8"
       d="M170.991,193.106c-0.871,1.086,0.94,5.177-3.273,2.678   c-1.103-0.654-2.771,1.161-3.776,2.445c-2.115-1.68-4.567-3.104-4.728-6.261c2.262,0.598,3.951,2.632,6.314-1.24   c2.685-4.4,2.841,1.501,4.433,2.276C170.363,192.44,170.707,192.475,170.991,193.106z"
       id="path117" /><path
       fill-rule="evenodd"
       clip-rule="evenodd"
       fill="#0CBEE6"
       d="M111.565,148.178c4.472-0.167,6.796,4.681,11.155,4.777   c1.49,2.003,4.085,3.172,4.517,5.975c-0.532,1.996,0.857,4.116-0.307,6.311c-2.865-0.883-3.117-3.721-4.641-5.451   C119.211,155.46,115.293,151.906,111.565,148.178z"
       id="path119" /><path
       fill-rule="evenodd"
       clip-rule="evenodd"
       fill="#157D9F"
       d="M125.184,194.877c0.939,2.264,1.878,4.526,2.816,6.786   c-4.269,0.313-6.309-1.695-7.896-7.779c0.822-2.03,1.961-3.723,4.703-4.011C124.927,191.464,125.056,193.171,125.184,194.877z"
       id="path121" /><path
       fill-rule="evenodd"
       clip-rule="evenodd"
       fill="#AA732C"
       d="M181.128,126.296c5.713,1.577,11.542,0.365,17.307,0.709   c2.01,0.119,4.033,0.019,6.042,0.648c-4.264,1.649-8.654,0.854-12.963,1.154c-2.607,0.182-5.292-0.639-7.825,0.655   c-2.012,1.027-1.898-1.147-2.723-1.909C180.44,127.06,180.495,126.641,181.128,126.296z"
       id="path123" /><path
       fill-rule="evenodd"
       clip-rule="evenodd"
       fill="#166D8F"
       d="M123.049,158.942c1.146,1.784,2.291,3.569,3.533,5.506   c0.926-1.833-1.332-3.973,0.654-5.519c2.588,5.53-1.648,9.503-3.212,14.086c-0.677-4.014-1.014-8.115-3.058-11.774   C119.864,158.849,121.164,158.631,123.049,158.942z"
       id="path125" /><path
       fill-rule="evenodd"
       clip-rule="evenodd"
       fill="#1B4E6C"
       d="M107.897,165.068c4.079-1.397,1.064-4.058,1.099-6.175   c4.751,3.604,5.239,8.717,5.179,14.127c-0.026,2.405-1.171,5.581,2.847,6.25c-0.483,0.839-1.073,1.544-2.115,1.68   c-1.752-1.099-3.13-2.479-2.865-4.736c0.451-3.839-0.37-7.076-3.823-9.319C107.683,166.548,107.728,165.731,107.897,165.068z"
       id="path127" /><path
       fill-rule="evenodd"
       clip-rule="evenodd"
       fill="#8BA7B1"
       d="M158.147,184.273c2.312-2.121,4.357-4.608,7.573-5.48   c0.556-0.115,0.724,0.088,0.505,0.611c-8.6,6.079-9.696,8.487-7.535,16.546c-6.643-1.918-8.446-5.495-5.383-10.674   c1.102,1.165,0.698,2.823,1.387,4.23C155.713,187.622,155.938,185.275,158.147,184.273z"
       id="path129" /><path
       fill-rule="evenodd"
       clip-rule="evenodd"
       fill="#175F88"
       d="M93.909,178.113c-2.021,1.854-0.386,3.731,0.172,5.428   c0.745,2.267,0.951,4.112-1.418,5.441c-2.064-5.712-3.417-11.423-0.015-17.516C93.118,173.94,93.514,176.026,93.909,178.113z"
       id="path131" /><path
       fill-rule="evenodd"
       clip-rule="evenodd"
       fill="#8A5D2B"
       d="M71.864,128.227c-6.801,1.444-13.574,0.371-20.362,0.654   c-0.011-0.585-0.021-1.171-0.033-1.756c7.232,0,14.465,0,21.697,0C73.183,128.024,72.785,128.436,71.864,128.227z"
       id="path133" /><path
       fill-rule="evenodd"
       clip-rule="evenodd"
       fill="#8BABB3"
       d="M95.879,134.932c0.971-0.704,1.942-1.407,2.912-2.11   c3.237,0.904,6.259,0.771,9.56-0.457c5.097-1.897,11.583,0.767,14.924,5.971c-5.93-4.587-11.433-6.658-18.247-3.647   C102.446,135.828,98.955,134.91,95.879,134.932z"
       id="path135" /><path
       fill-rule="evenodd"
       clip-rule="evenodd"
       fill="#8DAAB3"
       d="M108.953,187.725c2.525,1.47,3.765,4.463,7.081,5.896   c-0.845-3.409,0.962-6.63-1.073-9.606c0.397-1.435,1.912-0.995,2.862-1.845c-0.928,4.864-1.368,9.533-0.002,14.429   C114.211,194.207,110.212,192.386,108.953,187.725z"
       id="path137" /><path
       fill-rule="evenodd"
       clip-rule="evenodd"
       fill="#213653"
       d="M69.576,148.116c-1.871,0.716-3.741,1.432-5.611,2.151   c0.169-3.023,2.551-5.196,3.117-8.07c2.123-2.021,3.434-5.074,6.879-5.411c1.496,2.125-0.291,3.334-1.364,4.688   c-1.321,1.665-3.142,3.011-3.211,5.406C69.463,147.291,69.523,147.703,69.576,148.116z"
       id="path139" /><path
       fill-rule="evenodd"
       clip-rule="evenodd"
       fill="#976226"
       d="M189.066,138.916c5.454,0,10.907,0,16.36,0   c0.003,0.49,0.006,0.98,0.009,1.47c-4.989,1.338-10.193,0.037-15.236,0.714C189.306,140.64,188.433,140.169,189.066,138.916z"
       id="path141" /><path
       fill-rule="evenodd"
       clip-rule="evenodd"
       fill="#0BC1EA"
       d="M107.897,165.068c2.89,3.485,6.456,6.581,5.286,11.995   c-0.242,1.119,1.106,2.582,1.723,3.887c-3.729-0.282-4.675-2.67-4.096-5.832c0.451-2.461,0.201-4.541-1.725-6.256   c-1.86-0.603-3.408-1.467-3.198-3.808c0.372-0.019,0.745-0.037,1.117-0.056C107.305,164.991,107.603,165.014,107.897,165.068z"
       id="path143" /><path
       fill-rule="evenodd"
       clip-rule="evenodd"
       fill="#B3A96C"
       d="M181.128,126.296c-0.054,0.42-0.108,0.839-0.162,1.258   c-2.733-0.393-4.481-1.743-4.831-4.667c-0.616-5.145-1.858-9.782-8.394-10.117c-0.764-0.039-1.082-1.133-0.911-2.039   c2.016,1.783,4.862,0.85,7.027,2.143c0.708,1.027,1.418,2.058,2.127,3.087c0.266,0.674,0.532,1.349,0.798,2.023   c0.141,1.049,0.283,2.098,0.426,3.148c0.279,0.657,0.557,1.312,0.835,1.966C177.594,125.59,179.637,125.677,181.128,126.296z"
       id="path145" /><path
       fill-rule="evenodd"
       clip-rule="evenodd"
       fill="#1E2A46"
       d="M158.147,184.273c-1.262,2.626-2.255,5.331-2.25,8.477   c-4.028-1.631-2.618-4.778-2.591-7.472C154.861,184.657,156.247,183.22,158.147,184.273z"
       id="path147" /><path
       fill-rule="evenodd"
       clip-rule="evenodd"
       fill="#97652A"
       d="M50.518,139.366c3.46-0.879,7.034-0.274,10.551-0.36   c1.791-0.043,1.629,0.949,1.174,2.304c-0.877,2.606-1.278,0.041-1.936-0.027c-3.24-0.335-6.506-0.433-9.763-0.613   C50.535,140.234,50.526,139.8,50.518,139.366z"
       id="path149" /><path
       fill-rule="evenodd"
       clip-rule="evenodd"
       fill="#93B3BB"
       d="M103.27,173.045c-1.646,4.458,2.219,7.313,3.202,11.007   c-5.115-3.917-5.274-9.729-6.652-15.818C102.605,169.448,102.368,171.595,103.27,173.045z"
       id="path151" /><path
       fill-rule="evenodd"
       clip-rule="evenodd"
       fill="#A6370E"
       d="M74.119,137.124c-2.862,0.974-3.855,4.542-7.038,5.071   c0.533-3.772,3.916-5.535,5.866-8.31c0.565,1.435,2.343,0.874,3.15,1.91C75.841,136.838,75.203,137.314,74.119,137.124z"
       id="path153" /><path
       fill-rule="evenodd"
       clip-rule="evenodd"
       fill="#B56E1D"
       d="M185.734,135c-0.458-1.789,0.933-1.986,2.008-2.002   c5.761-0.081,11.523-0.038,17.291,0.33c-6.003,1.815-12.308-0.428-18.272,1.574C186.48,135.582,186.139,135.615,185.734,135z"
       id="path155" /><path
       fill-rule="evenodd"
       clip-rule="evenodd"
       fill="#0DB5DC"
       d="M61.096,175.914c1.973-4.503-0.32-9.883,2.901-14.129   c1.838,2.382,0.866,4.406-0.808,6.341c-0.777,3.558,0.909,7.375-1.137,10.799C61.733,177.922,61.415,176.918,61.096,175.914z"
       id="path157" /><path
       fill-rule="evenodd"
       clip-rule="evenodd"
       fill="#8AA6B0"
       d="M151.591,170.132c0.441-0.037,0.883-0.073,1.324-0.109   c3.731,2.907,9.007,5.06,5.139,11.735C160.213,175.25,154.536,173.523,151.591,170.132z"
       id="path159" /><path
       fill-rule="evenodd"
       clip-rule="evenodd"
       fill="#176D8D"
       d="M80.003,155.002c0.338,0.346,0.677,0.692,1.016,1.038   c-1.813,1.491-3.625,2.981-5.779,4.754c0-1.444,0-2.365,0.005-3.292c1.233-1.15,1.491-3.308,3.641-3.489   C79.502,154.066,79.861,154.41,80.003,155.002z"
       id="path161" /><path
       fill-rule="evenodd"
       clip-rule="evenodd"
       fill="#B2A96D"
       d="M71.864,128.227c0.433-0.367,0.866-0.734,1.301-1.102   c0.611-0.049,1.835,0.084,1.621,0.331c-2.895,3.354-4.394,7.853-8.955,11.157c1.071-2.109,1.682-3.312,2.292-4.514   c0.128-0.485,0.427-0.826,0.875-1.043C70.221,131.604,71.801,130.365,71.864,128.227z"
       id="path163" /><path
       fill-rule="evenodd"
       clip-rule="evenodd"
       fill="#B86E1B"
       d="M68.998,133.057c-0.292,0.347-0.584,0.694-0.876,1.042   c-5.77,0.001-11.54,0.001-17.312,0.001c-0.001-0.348-0.002-0.695-0.004-1.043C56.871,133.057,62.935,133.057,68.998,133.057z"
       id="path165" /><path
       fill-rule="evenodd"
       clip-rule="evenodd"
       fill="#CFAB59"
       d="M147.06,104.142c0.93,1.573,2.129,2.873,3.766,3.731   c-0.525,1.642-1.37,0.898-2.12,0.243c-2.835-2.477-4.36-5.64-4.801-9.354c1.407,0.618,2.002,1.783,2.169,3.233   C146.402,102.711,146.73,103.426,147.06,104.142z"
       id="path167" /><path
       fill-rule="evenodd"
       clip-rule="evenodd"
       fill="#186283"
       d="M122.858,174.024c-6.501-2.025-2.641-7.229-3.643-10.945   c2.1,3.128-1.167,8.647,4.817,9.974C123.642,173.377,123.25,173.7,122.858,174.024z"
       id="path169" /><path
       fill-rule="evenodd"
       clip-rule="evenodd"
       fill="#9D6423"
       d="M195.861,145.996c2.933-0.066,5.885-0.523,9.146,0.396   c-2.267,2.658-5.089,0.927-7.411,1.531C196.315,147.914,195.707,147.299,195.861,145.996z"
       id="path171" /><path
       fill-rule="evenodd"
       clip-rule="evenodd"
       fill="#157598"
       d="M105.888,165.055c1.065,1.27,2.132,2.539,3.197,3.808   c-0.638,0.649-1.275,1.3-1.913,1.949c-2.036,1.08-2.264-1.224-3.404-1.819c-0.24-0.346-0.48-0.692-0.721-1.039   c0.393-0.003,0.785-0.007,1.178-0.011c0.751-0.772,0.583-1.747,0.588-2.683C105.171,165.191,105.529,165.123,105.888,165.055z"
       id="path173" /><path
       fill-rule="evenodd"
       clip-rule="evenodd"
       fill="#1D3C5A"
       d="M170.991,193.106c-0.344-0.034-0.687-0.067-1.03-0.102   c-0.067-3.048,0.172-5.978,3.06-7.877c-0.008,0.306-0.012,0.611-0.013,0.917C173.278,188.668,172.031,190.857,170.991,193.106z"
       id="path175" /><path
       fill-rule="evenodd"
       clip-rule="evenodd"
       fill="#BAAE6D"
       d="M195.861,145.996c0.579,0.644,1.158,1.286,1.736,1.929   c0.51,0.977,1.02,1.953,1.53,2.931c-0.163,0.121-0.326,0.241-0.489,0.362c-1.956-3.097-5.762-4.099-7.909-6.98   c-0.096-0.472,0.099-0.619,0.544-0.486C192.653,144.806,194.028,145.867,195.861,145.996z"
       id="path177" /><path
       fill-rule="evenodd"
       clip-rule="evenodd"
       fill="#7D99A5"
       d="M107.987,182.03c-1.812-2.606-1.896-6.036-4.042-8.484   c4.126,0.677,4.222,3.754,4.133,6.94C108.42,181.023,108.39,181.538,107.987,182.03z"
       id="path179" /><path
       fill-rule="evenodd"
       clip-rule="evenodd"
       fill="#0EB0D6"
       d="M103.768,168.992c1.135,0.606,2.27,1.214,3.404,1.82   c1.481,0.66,3.116,1.198,2.694,3.813C107.571,172.772,104.224,172.582,103.768,168.992z"
       id="path181" /><path
       fill-rule="evenodd"
       clip-rule="evenodd"
       fill="#0C94D5"
       d="M165.891,201.053c-3.671,2.217-6.65-0.482-9.881-1.396   c-0.1-0.588-1.429-1.214,0.057-1.747C159.153,199.544,162.289,201.027,165.891,201.053z"
       id="path183" /><path
       fill-rule="evenodd"
       clip-rule="evenodd"
       fill="#147DA0"
       d="M148.098,171.812c-1.654,1.95,1.731,2.067,0.945,3.865   c-1.933-0.683-3.387-2.374-5.044-3.748C145.326,170.531,146.701,170.799,148.098,171.812z"
       id="path185" /><path
       fill-rule="evenodd"
       clip-rule="evenodd"
       fill="#97B4BC"
       d="M165.721,178.793c3.545-2.698,7.182-2.504,10.919,0.021   c-3.579-0.944-7.105-1.354-10.414,0.59C166.113,179.155,165.945,178.951,165.721,178.793z"
       id="path187" /><path
       fill-rule="evenodd"
       clip-rule="evenodd"
       fill="#0E8CC8"
       d="M93.03,192.902c-0.055,0.972-0.322,1.818-1.315,2.239   c-0.852-2.488-1.703-4.978-2.555-7.466c0.217-0.11,0.434-0.22,0.65-0.33C90.884,189.198,91.957,191.05,93.03,192.902z"
       id="path189" /><path
       fill-rule="evenodd"
       clip-rule="evenodd"
       fill="#176A8A"
       d="M142.14,187.869c-0.742-1.092,0.156-4.376,1.728-5.054   c1.843-0.796,0.75,1.066,1.138,1.634C145.156,186.518,142.838,186.515,142.14,187.869z"
       id="path191" /><path
       fill-rule="evenodd"
       clip-rule="evenodd"
       fill="#A26724"
       d="M51.298,147.465c1.798-1.84,3.605-1.892,5.358-1.004   c0.239,0.121,0.021,1.145,0.016,1.749C54.881,147.962,53.09,147.713,51.298,147.465z"
       id="path193" /><path
       fill-rule="evenodd"
       clip-rule="evenodd"
       fill="#B5AD70"
       d="M185.734,135c0.343-0.031,0.686-0.063,1.027-0.097   c0.768,1.337,1.536,2.675,2.305,4.013c0.378,0.729,0.755,1.456,1.133,2.185c0.357,0.883,0.716,1.768,1.073,2.651   c-0.176,0.165-0.356,0.327-0.542,0.485C188.593,141.414,186.887,138.357,185.734,135z"
       id="path195" /><path
       fill-rule="evenodd"
       clip-rule="evenodd"
       fill="#C9B56B"
       d="M199.128,150.855c0.938,2.016,5.377,1.782,3.703,6.352   c-1.671-2.389-2.93-4.19-4.19-5.99C198.833,151.139,198.996,151.018,199.128,150.855z"
       id="path197" /><path
       fill-rule="evenodd"
       clip-rule="evenodd"
       fill="#8DAAB3"
       d="M107.987,182.03c0.03-0.513,0.062-1.026,0.092-1.541   c1.692,2.415,4.106,3.396,6.964,3.492C111.865,186.32,109.875,184.362,107.987,182.03z"
       id="path199" /><path
       fill-rule="evenodd"
       clip-rule="evenodd"
       fill="#212B46"
       d="M112.179,87.223c0.631-0.785,1.261-1.57,1.892-2.356   c0.319,1.764-0.232,3.556-1.326,4.634c-6.695,6.597-7.683,15.832-11.176,23.881c-1.289,2.97-2.572,5.751-5.128,7.682   c-3.929,2.969-5.868,7.686-9.229,11.135c-0.343-0.239-0.686-0.479-1.028-0.72c4.55-8.26,9.075-16.534,13.66-24.775   c2.164-3.891,4.447-7.715,6.663-11.578c0.459-0.802,0.499-1.558-0.467-2.062c-0.324-0.212-0.436-0.43-0.336-0.654   c0.101-0.227,0.203-0.34,0.309-0.34C107.243,89.403,111.174,90.175,112.179,87.223z"
       id="path201" /><path
       fill-rule="evenodd"
       clip-rule="evenodd"
       fill="#0DAED5"
       d="M74.119,137.124c0.659-0.442,1.317-0.886,1.978-1.328   c0.27,0.121,0.533,0.109,0.792-0.033c1.127-0.255,1.787,0.258,2.127,1.296c1.086,1.585,3.082,0.521,4.467,1.555   c-0.271,2.188-2.849,0.882-3.583,2.306c-0.585,1.304-1.788,2.184-2.995,2.226c-3.645,0.126-5.752,2.414-7.811,4.908   c-2.814-0.878-1.111-2.243-0.49-3.656C69.872,141.514,73.234,140.263,74.119,137.124z"
       id="path203" /><path
       fill-rule="evenodd"
       clip-rule="evenodd"
       fill="#585D63"
       d="M79.016,137.059c-0.71-0.432-1.419-0.864-2.128-1.296   c3.112-1.211,6.213-1.681,9.281,0.132C83.784,136.283,81.399,136.671,79.016,137.059z"
       id="path205" /><path
       fill-rule="evenodd"
       clip-rule="evenodd"
       fill="#2D2E41"
       d="M106.012,92.068c0.011,0.331,0.02,0.663,0.027,0.994   c-1.835,2.962-5.393,4.305-7.017,7.467c-0.011-0.837-0.021-1.674-0.033-2.511c1.333-1.395,2.666-2.79,3.998-4.185   C103.995,93.245,105.004,92.657,106.012,92.068z"
       id="path207" /><path
       fill-rule="evenodd"
       clip-rule="evenodd"
       fill="#157899"
       d="M133.826,195.981l-0.401-0.013l-0.4,0.035   c-0.488-2.756-1.632-5.581,0.858-8.019c1.245-1.93,3.096-2.634,5.444-2.667C134.235,187.308,133.637,191.446,133.826,195.981z"
       id="path209" /><path
       fill-rule="evenodd"
       clip-rule="evenodd"
       fill="#0CBAE4"
       d="M133.883,187.985c-1.522,2.541-0.652,5.337-0.858,8.019   c-1.648-1.438-0.656-3.416-1.047-5.112C130.533,188.559,131.596,187.87,133.883,187.985z"
       id="path211" /><path
       fill-rule="evenodd"
       clip-rule="evenodd"
       fill="#128CB0"
       d="M63.189,168.126c0.27-2.112,0.539-4.224,0.809-6.339   c-0.099-1.014,0.247-2.183-0.989-2.791c-0.812-2.939,0.925-4.555,3.09-5.948c1.289,0.241,2.692-3.659,3.884,0.107   c0.451,1.56-0.279,3.352,0.938,4.76c-1.027,2.501-4.481,3.096-4.822,6.137c-1.867,0.696,1.012,3.894-2.079,3.945   C63.738,168.011,63.462,168.054,63.189,168.126z"
       id="path213" /><path
       fill-rule="evenodd"
       clip-rule="evenodd"
       fill="#1C425F"
       d="M95.993,143.858c0.605,0.136,1.212,0.271,2.083,0.464   c-1.69,1.258-4.135-0.235-5.155,1.943c0.252,0.444,0.184,0.814-0.252,1.103c-3.856,1.138-7.315,3.103-10.693,5.219   c-0.981,0.615-1.85,1.56-3.034,0.397c0.03-0.64,0.06-1.279,0.089-1.918C83.929,146.885,89.645,144.628,95.993,143.858z"
       id="path215" /><path
       fill-rule="evenodd"
       clip-rule="evenodd"
       fill="#1D3B58"
       d="M78.941,152.984c4.298-1.112,7.128-4.839,11.268-6.308   c1.175-0.418,1.835,0.034,2.704,0.355c0.543,1.235-0.491,1.946-0.947,2.85c-4.347,0.866-8.413,2.39-11.963,5.12   c-0.372-0.33-0.744-0.659-1.117-0.989C78.904,153.67,78.923,153.327,78.941,152.984z"
       id="path217" /><path
       fill-rule="evenodd"
       clip-rule="evenodd"
       fill="#1B4E6D"
       d="M69.094,148.053c0.623-6.892,7.069-4.961,10.807-7.134   c0.348,0.275,0.695,0.55,1.043,0.825c-2.912,3.063-7.93,2.599-10.485,6.26l-0.445-0.003c0,0-0.43,0.114-0.434,0.114   C69.576,148.116,69.094,148.053,69.094,148.053z"
       id="path219" /><path
       fill-rule="evenodd"
       clip-rule="evenodd"
       fill="#1F2D49"
       d="M66.099,153.048c-1.293,1.847-3.161,3.394-3.09,5.948   c0.1,1.805-2.184,2.617-1.827,4.584c-1.974-3.811,1.288-6.396,2.048-9.537C64.279,153.978,64.527,151.607,66.099,153.048z"
       id="path221" /><path
       fill-rule="evenodd"
       clip-rule="evenodd"
       fill="#0EB1D8"
       d="M70.92,157.915c-5.123-0.642-1.068-3.088-0.938-4.762   c0.991-1.267,2.426-0.1,4.116-0.908C72.879,154.42,71.899,156.167,70.92,157.915z"
       id="path223" /><path
       fill-rule="evenodd"
       clip-rule="evenodd"
       fill="#0EB0D7"
       d="M70.458,148.004c2.196-4.264,6.888-4.345,10.485-6.259   c0.765,2.135-1.288,1.776-2.156,2.241C76.071,145.438,73.243,146.681,70.458,148.004z"
       id="path225" /><path
       fill-rule="evenodd"
       clip-rule="evenodd"
       fill="#0DB5DC"
       d="M64.019,167.997c2.195-0.523-0.572-3.662,2.079-3.945   c-0.063,4.251-1.816,8.306-2.079,12.636C64.019,173.79,64.019,170.894,64.019,167.997z"
       id="path227" /><path
       fill-rule="evenodd"
       clip-rule="evenodd"
       fill="#1C3C5A"
       d="M117.014,136.979c1.189,2.532,5.699,3.757,3.07,7.793   c-1.336-5.239-5.567-6.461-10.659-7.177C112.26,136.338,114.681,137.259,117.014,136.979z"
       id="path229" /><path
       fill-rule="evenodd"
       clip-rule="evenodd"
       fill="#202D47"
       d="M120.561,212.028c-6.794-0.672-11.414-5.328-16.555-9.031   c0.339-0.358,0.677-0.718,1.016-1.076C109.613,206.194,115.364,208.686,120.561,212.028z"
       id="path231" /><path
       fill-rule="evenodd"
       clip-rule="evenodd"
       fill="#1C4764"
       d="M91.966,149.882c-1.109-1.425,0.504-1.943,0.948-2.851   c0.039-0.256,0.042-0.513,0.007-0.769c6.324-0.426,12.707-1.412,18.646,1.914c4.245,3.143,8.448,6.33,11.482,10.766   c-0.398,1.033-2.663,0.376-2.082,2.298c-2.554-4.769-5.053-9.479-10.422-11.908c-4.64-2.099-9.22-3.317-14.207-1.536   c-0.413,0.656-1.029,0.729-1.717,0.598c0.608,0.182,1.326,0.128,1.706,0.799C94.983,150.12,93.478,150.017,91.966,149.882z"
       id="path233" /><path
       fill-rule="evenodd"
       clip-rule="evenodd"
       fill="#1D3B58"
       d="M96.327,149.192c-0.515-0.231-1.028-0.464-1.542-0.695   c0.517-0.233,1.034-0.467,1.552-0.7c1.877,0.129,3.752,0.259,5.628,0.39c-0.073,1.458,2.781,0.908,1.971,2.872   C101.399,150.437,98.863,149.814,96.327,149.192z"
       id="path235" /><path
       fill-rule="evenodd"
       clip-rule="evenodd"
       fill="#09A8EC"
       d="M146.05,202.656c1.333,1.315,3.233,1.604,4.701,2.558   c0.945,0.614-0.522,0.551-0.835,0.86c-2.203-0.872-5.021-0.432-6.425-3.01C144.169,201.834,145.083,202.079,146.05,202.656z"
       id="path237" /></g></svg>