<?xml version="1.0" encoding="utf-8"?>
<!-- Generator: Adobe Illustrator 16.0.0, SVG Export Plug-In . SVG Version: 6.00 Build 0)  -->
<!DOCTYPE svg PUBLIC "-//W3C//DTD SVG 1.1//EN" "http://www.w3.org/Graphics/SVG/1.1/DTD/svg11.dtd">
<svg version="1.1" id="Layer_1" xmlns="http://www.w3.org/2000/svg" xmlns:xlink="http://www.w3.org/1999/xlink" x="0px" y="0px"
	 width="612px" height="630px" viewBox="0 0 612 630" enable-background="new 0 0 612 630" xml:space="preserve">
<g>
	<path fill-rule="evenodd" clip-rule="evenodd" fill="#FEFEFE" d="M557,316.5c0,81.833-0.027,163.666,0.096,245.5
		c0.006,3.424-0.672,4.097-4.096,4.095c-164-0.108-328-0.108-492,0c-3.423,0.002-4.097-0.671-4.095-4.095c0.108-164,0.108-328,0-492
		c-0.002-3.423,0.67-4.097,4.095-4.095c164,0.108,328,0.108,492,0c3.422-0.002,4.102,0.669,4.096,4.095
		C556.973,152.166,557,234.333,557,316.5z"/>
	<path fill-rule="evenodd" clip-rule="evenodd" fill="#232F49" d="M358,428.962c-5.949,3.146-12.23,5.331-18.849,6.553
		c-2.219-1.406-4.778-2.104-7.166-1.264c-7.224,2.541-14.815,2.198-22.202,2.685c-7.039,0.464-14.835,0.825-21.11-2.142
		c-5.963-2.819-12.132-2.315-17.983-4.184c-3.007-0.96-5.973-1.719-8.461-3.98c-3.132-2.848-7.85-1.946-11.395-4.55
		c-3.574-2.625-7.896-4.236-11.738-6.578c-1.544-0.941-3.145-1.961-5.133-1.394c-3.997-1.109-6.219-4.534-9.164-7.017
		c-1.63-2.962-3.945-5.241-6.881-6.9c-0.964-0.443-1.642-1.151-1.995-2.16c0.897-1.495,1.381-3.007,0.096-4.539
		c-5.264-6.273-7.103-14.749-13.423-20.426c-2.565-2.304-2.872-5.82-1.869-9.237c3.586-4.624,7.613-8.808,12.428-12.172
		c4.816-3.366,8.727-7.676,12.645-11.985c0.286-0.173,0.593-0.363,0.914-0.36c6.215,0.051,6.208,0.056,5.716-6.27
		c-0.052-0.675,0.248-1.291,0.587-1.866c0.847-1.235,2.074-2.163,2.835-3.474c0.208-0.37,0.448-0.719,0.697-1.062
		c0.376-0.519,0.799-0.996,1.237-1.461c1.084-1.06,1.919-2.316,2.795-3.545c1.295-1.343,2.801-2.384,4.491-3.172
		c0.48-0.108,0.959-0.104,1.44-0.014c0.465,0.188,0.816,0.503,1.06,0.939c0.855,2.639-0.46,5.059-1.415,7.169
		c-4.476,9.886-5.358,21.647-15.402,28.71c-2.992,2.104-5.404,5.408-5.765,9.645c9.448-4.805,18.32-10.349,26.782-16.585
		c3.019-2.226,4.522-5.265,5.445-8.671c2.563-9.464,8.807-17.059,13.047-25.672c2.115-4.297,6.761-5.618,11.498-5.787
		c2.513,0.264,4.931,0.021,7.355-0.813c8.663-2.974,12.767-1.256,16.968,6.957c0.907,1.773,1.84,3.545,2.069,5.576
		c0.131,1.299,0.045,2.579-0.328,3.835c-1.955,4.831-6.263,6.946-10.527,9.11c-4.68,2.852-8.321,7.063-13.07,9.876
		c-2.027,1.201-2.804,3.753-3.25,6.02c-1.276,6.503-2.453,13.021-4.469,19.436c5.545-9.098,10.7-18.366,15.812-27.655
		c1.781-3.238,3.573-6.38,6.823-8.391c3.539-1.905,7.232-2.97,11.284-2.142c3.553,0.598,5.751,2.959,6.417,6.2
		c0.721,3.504,2.657,4.58,5.871,4.788c2.145,0.139,4.479,0.521,6.109,1.967c4.107,3.64,8.926,4.101,14.034,3.768
		c3.354-0.219,6.192,0.765,8.417,3.452c2.771,3.348,7.373,3.369,10.806,5.888c4.168,3.058,6.858,6.127,6.253,11.445
		c-0.072,0.635,0,1.331,0.858,2.022c5.926-7.736,11.928-15.369,14.938-24.866c0.696-2.197,1.272-4.72,4.562-4.179
		c4.358,3.352,7.763,7.611,10.991,11.981c4.058,5.494,8.983,10.14,13.853,14.855c2.277,5.845-1.754,9.948-4.352,14.202
		c-1.705,2.789-3.104,5.341-2.773,8.634c-6.866,8.873-14.042,17.442-23.445,23.818c-0.799,0.443-1.72-0.321-2.395,0.054
		C372.668,418.434,363.248,420.554,358,428.962z"/>
	<path fill-rule="evenodd" clip-rule="evenodd" fill="#202D47" d="M201.195,363.581c-0.063,4.997,2.162,8.416,5.587,12.286
		c4.775,5.396,7.549,12.547,11.29,18.883c1.66,2.811-0.664,2.697-2.149,3.281c-17.15-18.786-26.657-41.063-29.909-66.104
		c-1.481-11.413-1.619-22.86,0.842-34.21c0.408,0.199,0.544,0.561,0.587,0.979c0.091-0.915,0.212-1.834-0.331-2.671
		c2.392-17.618,9.196-33.555,19.115-48.111c16.181-23.746,38.135-39.954,65.582-48.527c4.934-1.541,10.128-2.248,15.203-3.34
		c0.235,0.215,0.501,0.349,0.796,0.408c0.599,0.122,1.222-0.04,1.814,0.155c-0.547-0.347-1.369,0.024-1.779-0.682
		c13.437-2.763,26.875-2.759,40.312,0c-0.41,0.705-1.23,0.336-1.777,0.682c0.853-0.271,1.857,0.168,2.611-0.563
		c18.666,2.591,35.404,9.984,50.543,20.944c26.497,19.181,42.749,45.033,49.209,77.066c0.194,0.96,0.132,1.973,0.189,2.961
		c-0.343,0.391-0.453,0.868-0.426,1.361c0.018,0.33-0.183,0.689,0.094,0.996c0.041-0.354,0.235-0.595,0.582-0.724
		c2.338,12.212,2.363,24.422-0.038,36.63c-0.405-0.196-0.54-0.556-0.589-0.969c-0.085,0.916-0.222,1.839,0.354,2.667
		c-2.77,19.729-10.441,37.384-22.498,53.185c-2.105-3.009-1.717-5.562,0.981-8.142c3.431-3.28,4.225-8.032,6.128-12.161
		c0.428-0.93-0.047-1.561-0.851-2.012c-1.021-2.665,0.481-4.883,1.418-7.117c6.944-16.589,9.708-33.942,8.438-51.76
		c-1.714-24.039-9.98-45.705-25.456-64.407c-19.915-24.067-45.435-37.954-76.38-41.885c-7.939-1.008-15.968,0.278-23.917-0.693
		c-1.502-0.3-2.536-1.673-4.137-1.633c-0.042,0.7,0.69,0.022,0.98,0.282c0.215,0.193,0.492,0.338,0.629,0.672
		c-0.719,2.075-2.602,1.751-4.168,1.999c-45.327,7.197-82.198,40.929-93.49,85.392c-0.74,2.914-0.265,6.411-3.188,8.546
		c-0.632-0.166-0.839-0.602-0.736-1.227c-0.583,0.436-0.06,0.886,0.099,1.188c0.528,1.005,1.181,1.944,1.331,3.124
		c-0.905,8.442-0.299,16.93-0.909,25.365c-0.229,1.465-0.87,2.788-1.482,4.128c-0.086,0.188-0.359,0.456-0.089,0.729
		c0.162-0.521,0.534-0.736,1.072-0.723c3.468,10.828,5.57,22.022,8.934,32.874C201.696,362.958,201.385,363.303,201.195,363.581z"/>
	<path fill-rule="evenodd" clip-rule="evenodd" fill="#212E48" d="M233.963,414.108c0.448-2.636,1.766-2.18,3.527-1.146
		c5.566,3.267,11.186,6.44,16.806,9.615c1.122,0.634,2.182,1.454,3.693,0.956c2.206-0.728,4.101,0.558,5.297,1.944
		c3.746,4.341,9.044,3.864,13.83,4.975c3.406,0.791,7.493-0.923,10.037,3.18c0.48,0.773,2.746,0.43,4.186,0.618
		c13.263,1.745,26.434,2.279,39.583-1.307c2.585-0.705,6.743-2.18,8.23,2.571c-3.725,0.802-7.449,1.604-11.174,2.404
		c-1.897-0.996-3.468-0.233-4.966,0.922c-1.809,0.204-3.602,0.749-5.439,0.217c-6.381,0.703-12.763,0.702-19.145,0
		c-2.981,0.298-5.92,0.163-8.768-0.877c0.208-0.45,0.586-0.604,1.053-0.608c-0.931-0.124-1.86-0.243-2.695,0.355
		c-19.864-2.636-37.469-10.65-53.455-22.494C234.221,415.182,234.156,414.559,233.963,414.108z"/>
	<path fill-rule="evenodd" clip-rule="evenodd" fill="#222F48" d="M358,428.962c-0.301-2.752,0.713-4.618,3.193-6.111
		c5.207-3.135,10.896-5.409,15.8-9.112c1.73-1.307,4.1-2.458,5.972,0.245C375.494,420.395,367.106,425.277,358,428.962z"/>
	<path fill-rule="evenodd" clip-rule="evenodd" fill="#232F49" d="M298.427,439.058c6.382,0,12.763,0.001,19.145,0
		C311.191,440.311,304.809,440.302,298.427,439.058z"/>
	<path fill-rule="evenodd" clip-rule="evenodd" fill="#1C2943" d="M217.918,400.191c3.299,0.753,6.164,3.626,6.881,6.9
		C222.115,405.181,219.813,402.889,217.918,400.191z"/>
	<path fill-rule="evenodd" clip-rule="evenodd" fill="#13213C" d="M323.012,438.841c1.168-2.934,3.025-2.153,4.966-0.922
		C326.314,438.186,324.797,439.235,323.012,438.841z"/>
	<path fill-rule="evenodd" clip-rule="evenodd" fill="#13213D" d="M429.182,298.652c-0.14,0.768-0.279,1.534-0.566,3.114
		c-0.691-2.193-1.064-3.53,0.316-4.748C429.015,297.563,429.099,298.107,429.182,298.652z"/>
	<path fill-rule="evenodd" clip-rule="evenodd" fill="#13213D" d="M287.844,195.928c1.06,0.117,2.119,0.234,3.813,0.421
		c-2.104,0.878-3.456,0.965-4.645-0.303C287.261,195.805,287.538,195.766,287.844,195.928z"/>
	<path fill-rule="evenodd" clip-rule="evenodd" fill="#13213D" d="M328.99,196.047c-1.189,1.267-2.543,1.18-4.646,0.305
		c1.7-0.188,2.755-0.306,3.812-0.424C328.463,195.766,328.74,195.805,328.99,196.047z"/>
	<path fill-rule="evenodd" clip-rule="evenodd" fill="#12203C" d="M187.113,296.024c1.33,1.118,0.773,2.518,0.821,4.108
		c-1.317-0.665-0.699-1.73-1.077-2.416C186.942,297.152,187.028,296.589,187.113,296.024z"/>
	<path fill-rule="evenodd" clip-rule="evenodd" fill="#12203B" d="M288.017,437.928c1.13-1.239,2.475-1.073,4.629-0.428
		c-1.442,0.329-2.214,0.505-2.986,0.681C289.111,438.097,288.564,438.012,288.017,437.928z"/>
	<path fill-rule="evenodd" clip-rule="evenodd" fill="#12203C" d="M428.908,336.98c-1.356-1.108-0.791-2.515-0.847-4.11
		c1.32,0.661,0.705,1.728,1.082,2.412C429.064,335.848,428.986,336.414,428.908,336.98z"/>
	<path fill-rule="evenodd" clip-rule="evenodd" fill="#FEFEFE" d="M295.993,200.972c17.27-0.915,34.237,0.41,50.69,6.283
		c63.276,22.591,94.438,93.758,68.047,155.525c-0.717,1.678-1.376,3.38-2.062,5.07c-3.896-2.024-6.157-5.876-9.134-8.821
		c-5.469-5.409-9.815-11.951-14.629-18.021c-1.466-3.141,0.723-5.955,0.784-8.962c0.098-0.766,0.254-1.52,0.448-2.265
		c0.734-1.981,0.449-4.049,0.501-6.087c0.68-4.435,0.655-8.869,0-13.302c-0.085-2.031,0.243-4.092-0.452-6.078
		c-0.203-0.73-0.323-1.476-0.401-2.228c-4.64-25.931-18.948-44.974-41.538-58.012c-7.542-4.353-15.658-7.337-24.282-8.814
		c-0.753-0.091-1.491-0.24-2.224-0.432c-1.731-0.644-3.554-0.415-5.34-0.551c-5.604-1.286-11.206-1.254-16.805,0.01
		c-2.066,0.185-4.182-0.21-6.201,0.534c-0.489,0.169-0.99,0.291-1.495,0.396c-33.311,6.19-54.868,25.891-65.546,57.656
		c-3.469,10.318-3.842,21.151-2.493,31.982c0.203,0.75,0.326,1.513,0.409,2.283c-0.022,4.379,2.793,8.348,1.878,12.855
		c-0.765,3.328-3.733,5.009-5.889,7.055c-6.095,5.784-12.675,11.056-19.065,16.53c-4.223-10.98-7.249-22.278-9.014-33.911
		c-1.067-0.787-0.717-1.714-0.262-2.651c-0.1-9.362-0.15-18.722,0.976-28.04c-0.396-0.635-0.552-1.234,0.25-1.692
		c3.515-16.581,9.212-32.279,19.111-46.2c19.614-27.583,46.026-44.239,79.622-49.266c0.807-0.12,1.582-0.454,2.372-0.689
		C294.765,200.357,295.361,200.475,295.993,200.972z"/>
	<path fill-rule="evenodd" clip-rule="evenodd" fill="#202D47" d="M390.901,331.979c0.01,3.159-1.035,6.085-1.995,9.029
		c-1.391,0.588-2.615,0.697-3.178,2.899c-2.648,10.372-9.899,18.267-15.406,27.1c-0.385,0.617-1.345,1.326-1.953,1.256
		c-1.14-0.13-1.295-1.314-1.349-2.335c-0.026-0.499-0.005-1-0.021-1.499c-0.274-7.887-4.842-13.108-12.72-14.416
		c-1.213-0.201-2.424-0.366-2.951-1.524c-2.057-4.512-5.906-4.871-10.083-4.479c-4.817,0.45-9.046-0.419-12.853-3.871
		c-2.182-1.979-5.466-2.188-8.492-2.135c-2.363,0.043-3.981-0.807-3.861-3.405c0.178-3.842-2.24-5.863-5.061-7.67
		c-0.357-3.717,1.816-5.906,4.838-7.169c2.714-1.135,4.871-2.706,6.447-5.154c3.22-5.002,7.682-7.852,13.66-8.857
		c6.004-1.01,8.182-4.06,8.105-9.842c-0.027-0.729,0.049-1.446,0.203-2.156c0.811-2.3,0.143-4.816,1.021-7.104
		c0.227-0.427,0.564-0.742,1.001-0.949c0.701,0.113,1.277,0.47,1.792,0.936c0.342,0.263,0.674,0.546,1.008,0.818
		c1.255,0.777,2.516,1.545,3.996,1.85c0.432,0.09,0.83,0.256,1.198,0.496c0.317,0.581,0.667,1.137,1.151,1.6
		c0.332,0.302,0.686,0.571,1.067,0.806c7.158,1.083,14.356,0.206,21.53,0.466c0.664,0.023,1.154-0.064,0.488-0.045
		c-0.01,0-0.025-0.219-0.104-0.315c-5.973,0.165-11.882,0.065-17.79,0.072c-1.963,0.002-3.979,0.134-5.581-1.375
		c-0.795-3.993,2.424-3.205,4.322-3.288c6.432-0.281,12.878-0.051,19.291-0.142c0.544-0.071,1.066-0.207,1.212-0.862
		c-0.142-0.335-0.302-0.637-0.545-0.917c-0.407-0.196-0.803-0.319-1.247-0.363c-9.865,0.066-19.707-0.423-29.542,0.287
		c-0.586,0.053-1.147-0.035-1.692-0.253c-0.971-0.352-1.303-1.05-1.109-2.034c1.442-2.186,3.736-1.751,5.811-1.789
		c8.219-0.15,16.442,0.148,24.632-0.174c0.367-0.129,0.712-0.34,0.98-0.622c0.286-0.822-0.319-1.344-0.688-1.95
		c-0.215-0.345-0.392-0.701-0.552-1.071c-0.651-1.356-1.118-2.849-2.77-3.395c-14.16-0.102-28.298,0.019-42.435-0.041
		c-2.151-0.009-4.331,0.229-6.438-0.478c-0.816-0.444-1.598-0.912-1.225-2.061c2.145-1.725,4.711-1.272,7.154-1.307
		c13.234-0.187,26.474,0.3,39.674-0.269c0.754-0.775,0.188-1.424-0.239-2.087c-0.236-0.353-0.425-0.724-0.6-1.109
		c-0.545-1.543-1.759-2.51-2.959-3.48c-0.304-0.299-0.55-0.646-0.74-1.028c-0.324-0.737-0.588-1.509-1.05-2.183
		c-0.488-0.621-1.041-1.179-1.651-1.678c-0.632-0.475-1.297-0.904-1.892-1.426c-0.55-0.564-1.073-1.156-1.705-1.639
		c-1.16-0.829-2.174-1.825-3.237-2.764c-0.636-0.509-1.319-0.95-2.003-1.392c-0.518-0.343-0.994-0.736-1.461-1.143
		c-0.787-0.678-1.649-1.246-2.572-1.726c-0.582-0.284-1.156-0.577-1.736-0.867c-3.725-2.049-7.281-4.409-11.264-5.971
		c-1.686-0.751-3.457-1.246-5.211-1.801c-2.266-0.785-4.515-1.621-6.935-1.826c-1.53-0.224-2.989-0.811-4.561-0.799
		c-7.888-1.413-15.795-1.004-23.698-0.301c-1.578-0.237-3.082-0.816-4.631-1.182c-2.094-0.492,0.552,0.653-0.199,0.722
		c-0.069,2.146-1.655,2.218-3.172,2.264c-2.029,0.061-3.872,0.882-5.808,1.31c-2.729,0.534-5.3,1.511-7.763,2.784
		c-3.008,1.433-6.035,2.832-8.902,4.539c-0.524,0.375-1.063,0.729-1.606,1.072c-0.886,0.541-1.765,1.096-2.549,1.786
		c-0.459,0.416-0.947,0.796-1.462,1.141c-0.683,0.44-1.379,0.86-2.007,1.382c-1.067,0.935-2.072,1.943-3.234,2.762
		c-0.616,0.494-1.152,1.073-1.702,1.641c-0.598,0.522-1.273,0.941-1.898,1.428c-0.604,0.51-1.17,1.054-1.652,1.681
		c-0.446,0.673-0.731,1.422-1.047,2.158c-0.182,0.377-0.426,0.708-0.716,1.006c-1.316,0.996-2.5,2.1-3.057,3.719
		c-0.167,0.368-0.386,0.708-0.628,1.027c-0.472,0.568-1.138,1.042-0.911,1.937c10.078,0.767,20.134,0.036,30.174,0.386
		c2.461,0.086,5.601-0.618,6.193,3.251c-0.076,0.844-0.427,1.544-1.086,2.081c-1.063,0.681-1.956,0.264-2.804-0.438
		c-0.359-0.333-0.73-0.661-1.128-0.947c-11.35-0.413-22.689-0.18-34.009-0.074c-0.417,0.115-0.818,0.295-1.17,0.551
		c-0.236,0.329-0.493,0.653-0.733,0.981c-0.414,0.659-0.703,1.381-0.953,2.116c-0.121,0.353-0.29,0.685-0.486,0.999
		c-0.376,0.562-0.922,1.074-0.514,1.87c0.376,0.259,0.753,0.427,1.199,0.509c9.498,0.215,18.967-0.063,28.429,0.167
		c1.9,0.046,4.779-1.048,5.131,2.514c-12.252,0.639-24.495,0.101-36.746,0.322c10.315-0.006,20.633-0.037,30.95,0.025
		c1.772,0.011,3.663-0.582,5.316,0.597c0.266,0.547,0.307,1.118,0.122,1.697c-4.014,1.282-8.134,0.313-12.201,0.523
		c-7.35,0.38-14.734-0.578-21.982,0.504c9.024-0.563,17.968-0.244,26.907-0.156c1.913,0.019,4.794-0.374,4.067,3.279
		c-1.727,1.726-3.957,1.366-6.053,1.386c-9.203,0.088-18.406-0.056-27.572,0.087c-0.351,0.054-0.699,0.201-0.958,0.449
		c0.158,0.367,0.399,0.588,0.811,0.655c9.676,0.041,19.312,0.21,28.949-0.116c1.227-0.119,2.214,0.286,2.917,1.319
		c0.333,1.848-0.792,2.555-2.309,2.959c-0.564,0.068-1.126,0.036-1.681-0.076c-9.847-0.606-19.705-0.16-29.538-0.231
		c-0.42,0.046-0.847,0.143-1.231,0.305c-1.173,1.205-0.148,1.494,0.795,1.817c6.052-0.094,12.112,0.731,18.105-0.615
		c3.11,0.353,7.486-2.383,8.377,3.407c-0.348,1.213-1.182,1.849-2.404,2.009c-3.207-1.898-6.72-0.938-10.114-1.003
		c-4.445-0.085-8.893,0.012-13.299-0.071c-0.298,0.198-0.39,0.46-0.199,0.818c0.33,0.247,0.66,0.403,1.061,0.473
		c3.936,0.211,7.844,0.009,11.75,0.113c2.317,0.062,4.622,0.178,5.867,2.644c0.215,0.513,0.29,1.045,0.234,1.597
		c-0.218,0.848-0.743,1.375-1.605,1.546c-5.481-0.178-10.971-0.142-16.416-0.07c0.046,0.012-0.257,0.214-0.257,0.214
		s0.35,0.101,0.402,0.088c2.801-0.009,5.559-0.19,8.295,0.09c2.425,0.248,4.51,1,4.015,4.152c-0.263,0.021-0.526,0.035-0.789,0.045
		c-3.095,1.935-6.516,0.645-9.549,1.026c1.656,0.544,4.29-1.225,5.398,1.763c-0.124,2.148-1.422,3.417-3.227,4.305
		c-1.309,0.88-2.839,1.024-4.3,1.317c0.03,0.016-0.292,0.379-0.292,0.379s0.167,0.455,0.201,0.465
		c0.749,0.825,1.554,1.624,0.555,2.765c-0.419,1.029-1.313,2.092-0.255,3.159c2.665,2.688,0.021,4.482-1.132,6.389
		c-1.582,2.618-3.012,0.046-4.516-0.355c-0.623-0.167-1.298-0.136-1.949-0.195c-1.932-4.122-2.756-8.509-3.101-13.01
		c0.969-1.306,0.109-2.862,0.606-4.222c-0.368-0.22-0.501-0.21-0.414,0.01c0.372,0.941,0.464,1.835-0.421,2.57
		c-2.654-16.862,0.213-32.895,8.364-47.725c13.259-24.122,32.992-39.602,60.833-43.556c0.646,0.168-0.231,0.117,0.411,0.288
		c0.65,0.173,1.305,0.13,1.958,0.18c-0.528-0.136-1.141-0.053-1.513-0.589c1.927-1.107,4.027-1.045,6.138-0.905
		c5.992,0.028,11.985,0.011,17.977,0.014c1.852-0.172,3.682-0.194,5.375,0.76c-0.215,0.463-0.603,0.621-1.084,0.609
		c0.936,0.144,1.866,0.247,2.706-0.352c26.071,4.839,45.124,19.421,58.12,42.196c4.553,7.979,7.835,16.501,8.818,25.755
		c-0.338,0.395-0.445,0.872-0.419,1.365c0.018,0.329-0.178,0.686,0.094,0.99c0.042-0.353,0.235-0.595,0.583-0.724
		c0.98,2.035,0.943,4.191,0.757,6.365c-0.464,4.654-0.437,9.31-0.015,13.965c0.193,2.156,0.23,4.293-0.781,6.3
		c-0.405-0.197-0.541-0.558-0.588-0.972C390.468,330.227,390.336,331.147,390.901,331.979z"/>
	<path fill-rule="evenodd" clip-rule="evenodd" fill="#AF0101" d="M250.209,314.189c0.289-0.363,0.578-0.727,0.866-1.09
		c1.088-1.428,2.346-2.733,3.141-4.374c0.41-0.587,0.898-1.035,1.688-0.925c0.669-0.333,1.339-0.666,2.009-0.999
		c0.93-0.78,1.575-1.864,2.642-2.502c0.968-0.782,1.765-1.774,2.885-2.376c0.389-0.195,0.793-0.344,1.212-0.459
		c2.388-0.565,2.105-4.112,4.822-4.317c3.663,0.03,2.951,2.354,2.42,4.591c-0.574,1.725-1.205,3.429-2.042,4.843
		c-0.165,0.412-0.143,0.251,0.215-0.061c8.189-7.129,11.765-16.95,15.57-26.641c4.178-5.208,8.957-9.948,11.482-16.386
		c0.671-1.712,1.612-4.791,4.918-2.972c0.292,0.388,0.48,0.822,0.575,1.298c0.021,2.105,0.836,4.222-0.028,6.327
		c-1.391,2.471-2.678,4.708,1.364,6.226c2.889,1.086,2.47,3.872,1.471,5.982c-2.604,5.496-4.657,11.206-9.499,15.564
		c-3.734,3.361-5.846,8.409-10.541,11.019c-1.146,0.638-2.14,1.556-3.452,1.905c-7.028,1.103-10.914,5.122-13.965,11.723
		c-3.511,7.596-8.382,14.543-10.665,22.793c-0.847,3.062-3.487,4.935-5.996,6.998c-8.486,6.983-18.695,11.063-27.917,17.536
		c-0.566-6.929,3.522-11.118,7.744-14.863c4.183-3.711,7.663-7.299,8.602-13.286c0.96-6.124,5.839-11.019,6.557-17.434
		c0.122-1.091,0.888-2.126,0.501-3.334c-0.332-1.168,0.1-2.171,0.679-3.145C248.15,314.901,248.938,314.138,250.209,314.189z"/>
	<path fill-rule="evenodd" clip-rule="evenodd" fill="#202D47" d="M281.928,308.844c5.777-4.56,10.251-10.388,15.173-15.765
		c3.726-4.07,5.387-9.425,7.742-14.312c0.432-0.896,1.006-2.909-1.201-3.686c-5.665-1.991-5.724-2.363-1.924-7.156
		c1.785-1.937,0.275-3.977,0.187-5.972c0.07-0.304,0.128-0.609,0.173-0.918c-0.402-3.205,2.34-6.192,0.654-9.488
		c2.167-3.49,4.637-2.345,7.16-0.473c0.664,0.655,1.098,1.462,1.492,2.292c0.191,0.395,0.338,0.811,0.457,1.232
		c0.287,1.224,0.471,2.479,1.02,3.634c0.439,0.941,1.072,1.781,1.455,2.751c0.119,0.397,0.172,0.807,0.167,1.22
		c-0.198,1.266,0.242,2.344,1.002,3.331c0.265,0.339,0.507,0.684,0.761,1.027c1.476,1.777,4.146,2.08,5.263,4.281
		c0.306,0.593,0.495,1.229,0.646,1.876c0.21,1.253,1.029,2.372,0.844,3.717c0.369,0.226,0.737,0.451,1.106,0.677
		c0.289,0.316,0.567,0.643,0.84,0.973c0.606,1.101,0.87,2.35,1.499,3.44c0.377,0.712,0.725,1.439,1.078,2.163
		c0.352,0.707,0.687,1.423,1.082,2.11c0.23,0.332,0.445,0.671,0.676,1.002c0.615,0.858,1.602,1.404,2.029,2.418
		c0.064,0.99-0.393,1.774-0.965,2.519c-3.717,3.355-6.422,7.474-8.783,11.826c-2.849,5.248-6.73,9.726-10.496,14.289
		c-1.013,1.227-2.012,2.714-4.029,2.239c-0.736-3.271-2.352-6.142-4.256-8.832c-2.974-4.198-6.865-5.247-11.666-3.313
		C288.139,309.146,285.224,310.948,281.928,308.844z"/>
	<path fill-rule="evenodd" clip-rule="evenodd" fill="#AE0302" d="M344.867,299.977c1.11,5.091-1.842,10.096-7.346,10.675
		c-7.129,0.749-11.844,4.354-15.367,10.159c-0.871,1.435-1.8,2.898-3.648,3.113c-4.256,0.495-5.988,3.63-7.527,7.004
		c-4.141-0.203-8.082,0.605-11.845,2.325c-0.918-0.195-1.857-0.355-2.328-1.333c3.782-2.091,7.769-3.924,10.004-7.959
		c1.064-4.049,4.258-6.673,6.646-9.824c1.152-1.521,2.606-2.004,3.903-0.026c0.27,0.126,0.1,1.141,0.603,0.558
		c0.673-0.781,1.077-1.811,1.794-2.612c2.767-3.433,5.82-6.35,10.505-6.979c2.286-0.308,3.72-2.067,5.011-3.856
		c1.753-2.429,3.277-5.036,5.297-7.253c0.994-1.091,1.789-3.152,3.943-1.615C345.816,294.84,344.037,297.468,344.867,299.977z"/>
	<path fill-rule="evenodd" clip-rule="evenodd" fill="#AE0101" d="M296.806,331.92c0.975,0.096,1.873,0.325,2.327,1.332
		c-6.682,7.941-10.649,17.528-15.915,26.326c-2.372,3.962-4.412,8.122-6.849,12.651c-2.148-2.824-1.651-5.334-0.631-7.69
		c1.333-3.079,2.42-6.197,2.718-9.541c0.649-7.296,2.855-13.551,10.198-16.866C291.795,336.713,292.958,332.526,296.806,331.92z"/>
	<path fill-rule="evenodd" clip-rule="evenodd" fill="#AB0C05" d="M317.004,315.023c-1.252-2.698-2.546-1.196-3.564,0.093
		c-2.284,2.889-4.428,5.89-6.629,8.845c0.074-1.29,0.15-2.579,0.225-3.868c6.588-6.052,11.551-13.366,15.904-21.071
		c1.844-3.263,4.211-5.843,7.081-8.095c3.135,1.086,1.589,3.109,0.667,4.577c-3.668,5.84-6.93,11.947-11.242,17.371
		C318.537,313.483,318.814,315.441,317.004,315.023z"/>
	<path fill-rule="evenodd" clip-rule="evenodd" fill="#B27225" d="M241.064,321.769c-3.2-2.354-7.147,0.246-10.498-2.79
		c4.882,0,9.765,0,14.647,0.001C244.533,320.953,242.483,320.892,241.064,321.769z"/>
	<path fill-rule="evenodd" clip-rule="evenodd" fill="#192A49" d="M248.294,316.165c-0.501,0.938-1.003,1.875-1.505,2.813
		c-0.263,0.004-0.524-0.009-0.785-0.042c-0.816-2.404-2.546-2.901-4.968-3.026c-3.673-0.189-7.526,1.26-11.026-0.94
		c5.85-1.803,11.764-1.049,17.676-0.449C248.258,314.932,248.46,315.48,248.294,316.165z"/>
	<path fill-rule="evenodd" clip-rule="evenodd" fill="#152747" d="M234,330.999c0.185-2.188-2.301-1.688-3.003-2.983
		c2.02-1.343,4.023-1.421,6.005,0.08C236.28,329.351,235.345,330.386,234,330.999z"/>
	<path fill-rule="evenodd" clip-rule="evenodd" fill="#1B2944" d="M308.854,399.822c-1.877,0-3.754,0-5.631,0
		c-0.005-0.164-0.01-0.329-0.015-0.493c1.855,0,3.71,0,5.566,0C308.801,399.493,308.826,399.658,308.854,399.822z"/>
	<path fill-rule="evenodd" clip-rule="evenodd" fill="#BD7118" d="M231.004,326.998c2.027-2.157,4.549-0.664,6.833-0.925
		c-0.258,0.328-0.517,0.657-0.775,0.985C235.036,327.704,233.016,327.785,231.004,326.998z"/>
	<path fill-rule="evenodd" clip-rule="evenodd" fill="#78502B" d="M231.004,326.998c2.019,0.021,4.038,0.04,6.057,0.061
		c-0.02,0.345-0.04,0.69-0.059,1.036c-2.002-0.025-4.003-0.053-6.005-0.079C231,327.677,231.002,327.338,231.004,326.998z"/>
	<path fill-rule="evenodd" clip-rule="evenodd" fill="#1B2944" d="M316.014,399.783c-1.009,0-2.019,0-3.303,0
		C313.844,398.638,314.851,399.012,316.014,399.783z"/>
	<path fill-rule="evenodd" clip-rule="evenodd" fill="#12203C" d="M191.919,327.019c0.087,0.884,0.174,1.768,0.262,2.651
		c-0.154,0.755-0.308,1.51-0.642,3.146C190.873,330.225,190.556,328.567,191.919,327.019z"/>
	<path fill-rule="evenodd" clip-rule="evenodd" fill="#13213C" d="M193.145,297.286c-0.083,0.564-0.167,1.128-0.25,1.692
		c-1.204-1.136-1.026-2.479-0.602-3.994C193.393,295.532,192.768,296.602,193.145,297.286z"/>
	<path fill-rule="evenodd" clip-rule="evenodd" fill="#111F3C" d="M295.993,200.972c-0.582,0.053-1.163,0.106-1.744,0.159
		c-0.754-0.144-1.507-0.286-2.99-0.569C293.423,199.854,294.787,199.607,295.993,200.972z"/>
	<path fill-rule="evenodd" clip-rule="evenodd" fill="#232F49" d="M297.249,437.255c7.236,0,14.472,0,21.708,0
		c0,0.167,0,0.333-0.001,0.499c-7.245,0-14.49,0-21.736,0C297.23,437.588,297.239,437.422,297.249,437.255z"/>
	<path fill-rule="evenodd" clip-rule="evenodd" fill="#B00202" d="M263.208,224.904c0.363,3.301,0.72,6.602,1.095,9.901
		c0.113,0.99,0.371,1.936-0.954,2.442c-1.025,0.392-1.536-0.247-2.142-0.744c-2.388-1.959-4.756-3.942-8.047-6.677
		c0.603,3.463,1.826,5.304,3.471,6.599c1.215,0.957,2.78,1.874,1.787,3.244c-0.84,1.159-2.811,2.133-4.228,2.063
		c-1.442-0.069-1.264-1.951-1.583-3.389c-0.61-2.745-1.745-5.584-4.51-7.344c-1.741-1.107-1.788-2.421,0.252-3.782
		c4.911-3.278,6.058-3.372,11.996,0.645c-2.697-6.271,1.359-7.914,5.273-9.897c2.111-1.069,3.225-0.582,3.403,1.5
		c0.324,3.791,1.523,6.896,4.927,9.001c0.599,0.37,1.659,1.812,0.659,2.534c-1.857,1.341-3.944,2.47-6.094,3.252
		c-0.985,0.358-1.757-1.033-1.638-2.015C267.257,229.075,265.194,227.089,263.208,224.904z"/>
	<path fill-rule="evenodd" clip-rule="evenodd" fill="#B00202" d="M280.924,221.058c0.346,1.238-0.12,2.753,1.113,3.682
		c1.485,1.119,1.721,2.628,0.484,3.74c-1.074,0.966-2.872,1.152-4.259,0.558c-1.48-0.635-1.116-1.913-0.782-3.362
		c0.682-2.962,0.012-5.929-1.792-8.36c-1.864-2.511-0.888-3.41,1.618-4.014c4.065-0.98,8.28-2.587,10.071,4.165
		c0.068-6.366,3.768-7.24,8.142-7.816c2.669-0.352,3.616,0.715,3.084,2.826c-0.914,3.632-0.134,6.642,2.055,9.53
		c0.544,0.718,1.012,2.308,0.108,2.642c-2.137,0.789-4.466,1.348-6.732,1.402c-1.557,0.038-1.489-1.937-0.971-2.725
		c1.272-1.933-0.272-3.523-0.202-5.263c-0.355-0.634-0.45-1.431-0.957-1.924c-0.138-0.135-0.388,0.69-0.693,1
		c-0.4,2.629-0.821,5.255-1.188,7.889c-0.149,1.068-0.537,1.958-1.606,2.296c-1.266,0.4-1.771-0.675-2.285-1.459
		c-1.456-2.224-2.823-4.506-4.226-6.765C279.558,218.738,280.6,220.078,280.924,221.058z"/>
	<path fill-rule="evenodd" clip-rule="evenodd" fill="#B00404" d="M200.688,311.11c0.394-2.69,0.575-5.365,1.211-7.927
		c0.955-3.85,3.891-5.191,6.992-2.81c2.142,1.646,3.353,0.621,4.663-0.44c1.48-1.199,3.309-1.86,4.152-0.232
		c0.812,1.566,0.547,3.87-1.138,5.351c-0.48,0.422-1.183,0.589-1.777,0.884c-1.566,0.778-4.581,0.974-4.185,2.762
		c0.644,2.908,2.882,0.055,4.424,0.233c0.792,0.092,1.982-0.065,1.959,0.979c-0.049,2.3-0.221,4.638-0.736,6.869
		c-0.263,1.138-1.606,0.934-2.557,0.468c-3.319-1.627-6.544-1.687-10.288-0.978C198.715,317.159,201.769,312.853,200.688,311.11z"/>
	<path fill-rule="evenodd" clip-rule="evenodd" fill="#B00303" d="M410.34,306.17c3.863,0.057,2.941,3.15,2.686,5.043
		c-0.3,2.225-1.974,1.641-3.813,1.009c-2.68-0.922-5.555,0.136-8.35,0.268c-1.267,0.06-3.157,1.659-3.719-0.7
		c-0.392-1.645-1.056-3.613,0.748-5.102c1.41-1.165,2.817-2.35,4.089-3.659c0.545-0.561,2.079-0.929,1.066-2.189
		c-0.892-1.109-2.128-1.117-2.871,0.08c-1.073,1.729-3.172,1.579-3.698,0.767c-0.798-1.231-0.993-3.341-0.527-4.779
		c0.592-1.824,2.123-0.698,3.58-0.478c2.369,0.36,4.965-0.153,7.35-0.754c1.412-0.355,3.075-2.986,4.057-1.031
		c1.05,2.09,2.162,5.007,0.301,7.547c-0.678,0.926-1.579,1.688-2.379,2.523c-0.089,0.665-0.463,1.223-0.695,1.833
		C408.939,306.71,409.602,306.222,410.34,306.17z"/>
	<path fill-rule="evenodd" clip-rule="evenodd" fill="#B00404" d="M335.473,221.316c1.537-0.893,1.646-2.154,1.268-3.206
		c-0.547-1.525-0.98-3.213,0.65-3.852c1.686-0.661,3.892,0.124,5.023,1.284c1.152,1.181-0.701,2.392-1.324,3.63
		c-1.23,2.45-1.73,5.257-2.699,7.854c-0.448,1.205,0.269,3.386-2.122,3.247c-1.997-0.115-3.886-0.364-4.596-2.903
		c-0.753-2.692-1.937-5.264-3.093-8.311c-1.118,1.723-2.162,3.102-1.115,4.89c0.883,1.505,0.23,2.938-0.891,3.235
		c-1.708,0.453-3.832,0.043-5.085-1.225c-1.107-1.12,0.161-2.27,1.093-3.288c1.875-2.054,2.195-4.785,2.318-7.361
		c0.078-1.635-1.404-4.188,1.176-4.16c2.291,0.024,5.549-0.12,6.82,2.951C333.842,216.389,334.57,218.765,335.473,221.316z"/>
	<path fill-rule="evenodd" clip-rule="evenodd" fill="#B00202" d="M396.723,327.664c0.135-2.339,0.188-3.329,0.249-4.318
		c0.239-3.798,0.225-7.615,5.945-4.354c1.694,0.965,4.519,1.347,6.232,0.612c4.756-2.04,4.138,0.844,3.883,3.62
		c-0.15,1.641-0.447,3.271-0.724,4.896c-1.021,5.991-4.101,8.708-9.116,8.069C398.396,335.579,396.507,332.67,396.723,327.664z"/>
	<path fill-rule="evenodd" clip-rule="evenodd" fill="#B00303" d="M240.033,235.001c4.485-0.104,8.192,3.547,8.217,8.094
		c0.027,4.919-4.536,9.47-9.543,9.517c-4.382,0.04-7.828-3.336-7.955-7.797C230.615,239.992,235.23,235.112,240.033,235.001z"/>
	<path fill-rule="evenodd" clip-rule="evenodd" fill="#B00505" d="M234.734,260.378c-0.628,4.581-2.792,7.826-6.94,9.215
		c-4.074,1.363-7.202-0.769-9.386-3.951c-2.57-3.744-1.462-7.295,1.602-10.289c0.826-0.807,1.689-1.374,2.024-2.651
		c0.235-0.894,0.695-2.565,2.25-1.85c1.306,0.603,2.88,1.478,3.415,2.651c0.496,1.087-0.66,2.471-2.102,2.806
		c-1.693,0.393-3.558,0.792-3.33,2.933c0.26,2.442,2.417,3.566,4.433,4.279c2.558,0.904,4.914-0.128,3.726-2.972
		c-1.171-2.802,0.048-4.188,1.907-4.218C234.5,256.297,234.154,258.979,234.734,260.378z"/>
	<path fill-rule="evenodd" clip-rule="evenodd" fill="#B00505" d="M204.937,324.501c2.964-0.262,5.451-1.768,7.647-3.529
		c1.161-0.931,2.333-1.889,3.352-0.903c1.818,1.759,1.317,4.353,1.155,6.597c-0.11,1.524-1.581,1.543-2.704,0.927
		c-0.848-0.465-1.76-0.715-1.987,0.241c-0.248,1.043-0.053,2.304,0.308,3.346c0.307,0.888,1.272,0.92,2.064,0.394
		c1.118-0.742,2.543-1.664,3.174,0.068c0.521,1.431,1.419,3.363,0.286,4.753c-1.174,1.438-2.529,0.023-3.911-0.361
		c-2.867-0.797-5.722-2.731-8.949-0.741c-1.792,1.105-2.76,0.004-3.016-1.822c-0.277-1.972-0.316-3.999-0.808-5.913
		C200.711,324.292,202.208,323.776,204.937,324.501z"/>
	<path fill-rule="evenodd" clip-rule="evenodd" fill="#B00303" d="M304.899,218.054c0-1.157,0.175-2.349-0.043-3.464
		c-0.296-1.516-1.995-3.538-0.128-4.342c1.785-0.769,4.419-0.636,6.273,0.109c2.281,0.916,0.627,3.032,0.412,4.74
		c-0.319,2.528-1.146,5.223,0.689,7.563c0.188,0.238,1.128,0.278,1.326,0.058c2.134-2.379,1.859-5.477,1.074-7.959
		c-1.277-4.04-0.021-4.556,3.566-4.094c2.299,0.296,2.617,1.627,1.715,2.939c-1.129,1.645-1.262,3.382-1.451,5.131
		c-0.703,6.455-2.126,8.11-7.006,7.811C306.321,226.238,304.88,224.314,304.899,218.054z"/>
	<path fill-rule="evenodd" clip-rule="evenodd" fill="#B00404" d="M407.164,284.083c2.3,1.175,2.647,3.579,2.267,5.47
		c-0.235,1.17-2.562,0.533-4.008,0.581c-1.601,0.053-3.183,0.796-4.764,1.27c-4.67,1.398-7.267,0.264-8.646-3.8
		c-1.537-4.528-0.323-6.813,4.459-8.783c1.801-0.741,3.879-0.913,5.294-2.525c2.445-2.787,3.657-1.151,4.232,1.393
		c0.394,1.739,2.39,3.6,0.017,5.383c-0.964,1.04-2.325,1.056-3.564,1.408c-1.209,0.343-2.564,0.388-3.747,1.837
		C402.007,286.53,404.311,284.133,407.164,284.083z"/>
	<path fill-rule="evenodd" clip-rule="evenodd" fill="#B00505" d="M394.42,256.921c0.433,0.344,1.076,0.63,1.367,1.124
		c2.104,3.574,4.251,7.133,6.152,10.816c1.241,2.407-1.262,2.647-2.508,3.375c-1.981,1.156-1.929-0.985-2.566-1.878
		c-0.706-0.989,0.754-2.264-0.295-3.262c-0.458-0.436-0.979-0.806-1.471-1.206c-0.295,4.072-4.889,2.357-6.275,4.575
		c-1.741,2.787-2.832,2.822-4.271-0.055c-0.74-1.479-1.609-2.899-2.493-4.301c-0.875-1.386-0.18-2.599,1.002-2.559
		c4.598,0.157,7.849-1.629,9.88-5.754C393.122,257.43,393.771,257.291,394.42,256.921z"/>
	<path fill-rule="evenodd" clip-rule="evenodd" fill="#B00404" d="M367.486,232.612c-2.068,2.625-4.318,4.563-4.499,8.056
		c-0.114,2.23-1.452,2.918-3.784,1.503c-5.135-3.116-5.182-3.155-1.238-7.188c1.37-1.401,2.373-3.207,3.346-4.939
		c0.67-1.194-0.081-2.063-1.199-1.32c-1.144,0.76-2.005,2.06-3.113,0.307c-0.976-1.541,0.85-2.24,1.432-3.272
		c0.584-1.034,1.141-2.778,2.932-1.616c3.621,2.352,7.2,4.771,10.753,7.226c1.84,1.271,0.211,2.4-0.463,3.25
		c-0.798,1.006-0.938,3.281-3.061,2.439C366.465,236.212,369.135,234.367,367.486,232.612z"/>
	<path fill-rule="evenodd" clip-rule="evenodd" fill="#B00303" d="M381.868,243.914c1.789-0.216,3.281,0.308,4.343,1.811
		c0.526,0.745,1.897,1.144,1.354,2.334c-0.477,1.04-1.284,1.875-2.66,1.919c-3.926,0.126-7.12,0.526-9.712,4.783
		c-1.711,2.811-3.364-1.971-5.244-3.001c-1.74-0.955-1.569-3.081,0.155-3.389c5.118-0.915,3.763-5.158,4.588-8.178
		c0.333-1.218-0.133-2.634,1.429-3.26c1.715-0.687,2.36,0.855,3.228,1.712c1.474,1.455,3.638,2.662,2.628,5.365
		c-0.305,0.29-0.598,0.592-0.896,0.888C381.362,244.586,381.642,244.271,381.868,243.914z"/>
	<path fill-rule="evenodd" clip-rule="evenodd" fill="#B00404" d="M348.063,235.712c-2.239-1.041-4.43-1.855-6.396-3.04
		c-1.523-0.917-0.332-2.368,0.365-2.896c3.166-2.398,4.766-5.212,4.266-9.374c-0.184-1.537,0.986-3.224,3.262-1.668
		c1.076,0.736,2.343,1.241,3.582,1.684c2.413,0.86,2.8,2.141,0.871,3.863c-2.783,2.485-4.657,5.25-4.057,9.273
		C350.092,234.465,349.562,235.883,348.063,235.712z"/>
	<path fill-rule="evenodd" clip-rule="evenodd" fill="#B00404" d="M219.075,288.817c3.313,2.792,0.244,5.551-0.664,7.716
		c-0.898,2.143-2.584,0.031-4.103-0.952c-2.108-1.366-4.735-2.556-7.422-2.046c-1.672,0.317-3.667,0.118-3.58-1.218
		c0.157-2.381,1.057-4.946,2.392-6.934c0.842-1.254,2.316,0.326,3.25,1.223c0.582,0.559,0.988,1.354,1.998,1.131
		C213.807,286.961,216.391,288.263,219.075,288.817z"/>
	<path fill-rule="evenodd" clip-rule="evenodd" fill="#B00404" d="M211.021,286.961c-0.244-1.002,0.755-2.51-0.964-2.896
		c-1.362-0.307-3.517,0.326-3.546-1.636c-0.029-1.891,0.596-4.093,1.686-5.622c1.295-1.817,3.202-1.582,3.737,0.904
		c0.815,3.789,2.714,4.246,5.942,2.646c1.495-0.74,3.24-2.355,4.995-0.807c1.798,1.588-0.173,3.25-0.39,4.886
		c-0.108,0.813-0.361,1.607-0.548,2.409C218.306,288.01,214.674,288.52,211.021,286.961z"/>
	<path fill-rule="evenodd" clip-rule="evenodd" fill="#F6EAEA" d="M407.164,284.083c-2.449,1.958-5.23,3.244-8.257,4.002
		c-1.088,0.273-2.45,0.779-2.995-0.651c-0.652-1.711,0.788-2.16,2.035-2.703c2.582-1.124,5.202-1.965,8.068-1.66
		C406.398,283.408,406.781,283.746,407.164,284.083z"/>
	<path fill-rule="evenodd" clip-rule="evenodd" fill="#111F3B" d="M316.988,233.052c-5.994,1.548-11.986,1.567-17.977-0.014
		C305.004,231.93,310.996,231.906,316.988,233.052z"/>
	<path fill-rule="evenodd" clip-rule="evenodd" fill="#EDD4D4" d="M211.021,286.961c3.637-0.039,7.274-0.077,10.911-0.116
		c-0.21,1.732-2.25,0.813-2.856,1.973c-2.96,1.523-5.463-0.386-8.129-1.08C210.872,287.469,210.896,287.21,211.021,286.961z"/>
	<path fill-rule="evenodd" clip-rule="evenodd" fill="#111F3B" d="M391.924,323.982c-1.477-4.656-1.501-9.312,0.015-13.965
		C392.726,314.673,392.745,319.328,391.924,323.982z"/>
	<path fill-rule="evenodd" clip-rule="evenodd" fill="#F6EDED" d="M410.34,306.17c-1.422,1.402-2.867,2.727-5.142,1.652
		c0.55-1.898,2.429-2.123,3.661-3.108C409.353,305.199,409.846,305.685,410.34,306.17z"/>
	<path fill-rule="evenodd" clip-rule="evenodd" fill="#D08787" d="M280.924,221.058c-1.19-1.129-1.125-2.512-0.781-4.186
		c1.121,0.415,1.624,1.158,1.764,2.228C280.891,219.406,281.221,220.39,280.924,221.058z"/>
	<path fill-rule="evenodd" clip-rule="evenodd" fill="#D89F9F" d="M291.212,217.139c-0.106-0.892-0.492-2.501,0.491-2.355
		c1.534,0.229,1.44,1.918,1.159,3.279C292.313,217.755,291.762,217.446,291.212,217.139z"/>
	<path fill-rule="evenodd" clip-rule="evenodd" fill="#13203D" d="M222.82,325.345c0.138-1.089,0.276-2.177,0.526-4.137
		c0.829,2.575,1.098,4.227-0.298,5.778C222.972,326.439,222.896,325.892,222.82,325.345z"/>
	<path fill-rule="evenodd" clip-rule="evenodd" fill="#13213D" d="M323.985,234.069c-1.111,1.396-2.518,0.814-3.962,0.248
		c0.779-0.168,1.56-0.337,2.34-0.506C322.904,233.897,323.444,233.983,323.985,234.069z"/>
	<path fill-rule="evenodd" clip-rule="evenodd" fill="#13213D" d="M391.182,303.652c-0.139,0.768-0.277,1.536-0.562,3.112
		c-0.699-2.188-1.063-3.522,0.304-4.744C391.01,302.564,391.096,303.108,391.182,303.652z"/>
	<path fill-rule="evenodd" clip-rule="evenodd" fill="#13213D" d="M292.873,233.943c1.051,0.116,2.102,0.232,3.779,0.417
		c-2.091,0.863-3.441,0.95-4.635-0.296C292.275,233.834,292.561,233.794,292.873,233.943z"/>
	<path fill-rule="evenodd" clip-rule="evenodd" fill="#12203C" d="M390.901,331.979c-1.213-1.132-1.027-2.479-0.613-3.996
		c1.095,0.55,0.479,1.615,0.854,2.3C391.063,330.848,390.981,331.413,390.901,331.979z"/>
	<path fill-rule="evenodd" clip-rule="evenodd" fill="#EDDF87" d="M310.008,251.98c-2.242-1.329-4.474-3.278-6.788-0.108
		c-0.494,1.563-1.525,2.423-3.2,2.456c-0.239-0.077-0.474-0.159-0.719-0.233c-0.469-0.231-0.946-0.427-1.451-0.568
		c-8.56-0.38-17.116,0.03-25.665-0.214c-2.519-0.071-5.393,0.521-7.093-2.281c2.651-2.235,5.711-3.721,8.948-4.882
		c9.695-0.445,19.312-1.483,29.112-0.861c11.24,0.712,22.586,0.768,33.866-0.323c4.555,0.96,8.123,3.819,11.937,6.205
		c-0.474,2.344-2.55,1.861-3.964,1.936c-10.244,0.535-20.499,0.276-30.75,0.181C312.699,253.271,311.375,252.555,310.008,251.98z"/>
	<path fill-rule="evenodd" clip-rule="evenodd" fill="#212D47" d="M318.731,312.942c3.575-5.973,7.134-11.955,10.735-17.911
		c0.797-1.319,2.559-2.437,0.554-4.104c0.313-0.686,0.626-1.371,0.938-2.057c-0.389-1.022,0.165-1.756,0.755-2.483
		c0.489-0.506,1.058-0.893,1.72-1.139c1.105-0.354,2.233-0.379,3.371-0.213c2.26,0.658,4.514,1.358,6.913,1.324
		c0.87,0.228,1.649,0.604,2.188,1.362c0.363,0.426,0.727,0.853,1.09,1.278c0.115,0.186,0.229,0.372,0.344,0.558
		c-0.162,0.147-0.324,0.294-0.485,0.44c-0.291,0.011-0.581,0.024-0.872,0.042c-0.69,0.589-0.348,1.583-0.879,2.235
		c-0.4,0.182-0.781,0.155-1.139-0.109c-2.356,1.383-3.535,3.81-4.932,5.942c-3.024,4.611-6.043,8.758-12.338,9.225
		c-3.133,0.232-3.75,4.458-6.52,5.755C319.647,313.504,319.166,313.455,318.731,312.942z"/>
	<path fill-rule="evenodd" clip-rule="evenodd" fill="#CCA757" d="M321.023,271.214c-1.593-1.894-4.776-1.497-5.884-4.088
		c0.464-0.471,0.998-0.841,1.599-1.115c15.343-0.89,30.697-0.283,46.049-0.323c1.188-0.003,2.267,0.407,3.197,1.166
		c2.29,0.443,3.778,1.668,4.008,4.118c-1.451,1.382-3.283,1.415-5.11,1.42c-13.052,0.037-26.102,0.036-39.152,0
		C324.07,272.387,322.408,272.336,321.023,271.214z"/>
	<path fill-rule="evenodd" clip-rule="evenodd" fill="#AD7F3B" d="M326.016,282.173c-2.457-0.683-1.563-2.891-2.037-4.476
		c16.347-0.411,32.697-0.074,49.045-0.182c0.693-0.004,1.295,0.157,1.8,0.639c1.106,0.974,2.221,1.943,2.104,3.626
		c-1.335,1.579-3.183,1.6-5.01,1.606c-13.726,0.046-27.451,0.04-41.177,0.006C329.063,283.388,327.441,283.159,326.016,282.173z"/>
	<path fill-rule="evenodd" clip-rule="evenodd" fill="#F2E98F" d="M337.018,244.965c-1.523,1.905-3.639,2.13-5.853,2.035
		c-10.921-0.471-21.831,0.262-32.799-0.701c-7.221-0.633-14.696,0.942-22.1,0.536c-0.862-0.048-1.625,0.019-2.227-0.686
		c2.424-1.638,5.148-2.493,7.981-3.068c3.507-0.284,7.071,0.087,10.509-1.021c1.755-0.566,3.61-0.588,5.412-0.311
		c9.051,1.396,18.151,0.848,27.229,0.598c2.365-0.065,4.471,1.287,6.814,0.722C333.821,243.277,335.523,243.843,337.018,244.965z"/>
	<path fill-rule="evenodd" clip-rule="evenodd" fill="#CCA857" d="M244.01,270.964c0.231-2.445,1.723-3.663,4.006-4.108
		c1.519-1.289,3.367-1.248,5.187-1.244c12.083,0.024,24.165-0.141,36.241,0.076c0.591,0.045,1.168,0.183,1.718,0.394
		c0.521,0.238,0.925,0.618,1.206,1.12c-0.003,3.91-3.847,3.751-5.869,5.534c-0.72,0.393-1.48,0.646-2.314,0.646
		c-0.269-0.067-0.533-0.142-0.807-0.208c-0.52-0.239-1.047-0.444-1.6-0.598c-10.398-0.413-20.793-0.042-31.184-0.188
		C248.316,272.355,245.921,272.744,244.01,270.964z"/>
	<path fill-rule="evenodd" clip-rule="evenodd" fill="#F4EF95" d="M331.984,243.069c-3.578,1.146-7.313,0.876-10.945,0.848
		c-7.912-0.06-15.823,0.558-23.758-0.749c-3.888-0.641-8.052,0.343-12.086,0.665c-1.178,0.094-2.314,0.349-3.175-0.752
		c2.66-2.325,6.746-0.133,9.26-2.924c1.138-1.116,2.416-0.645,3.68-0.321c8.686-0.784,17.371-1.493,26.021,0.355
		c1.17,0.982,2.4,1.707,3.985,0.957C327.46,241.223,329.772,241.963,331.984,243.069z"/>
	<path fill-rule="evenodd" clip-rule="evenodd" fill="#CFA34C" d="M322.998,276.437c-1.52-0.673-1.997-1.938-1.98-3.483
		c0.791-0.629,1.711-0.88,2.703-0.91c13.984-0.089,27.969-0.023,41.953-0.032c2.153-0.001,4.32-0.019,6.282,1.102
		c2.32,3.344-0.284,2.97-2.275,2.972c-13.921,0.013-27.843-0.005-41.763,0.022C326.277,276.109,324.639,276.321,322.998,276.437z"/>
	<path fill-rule="evenodd" clip-rule="evenodd" fill="#DEC570" d="M314.036,260.944c-1.505,0.185-1.794-0.827-1.945-1.976
		c0.494-3.071,2.83-3.334,5.231-3.322c12.564,0.062,25.133-0.367,37.693,0.244c0.304-0.055,0.607-0.108,0.912-0.161
		c1.427,1.082,2.854,2.165,4.281,3.247c-0.486,2.525-2.593,2.343-4.321,2.347c-13.644,0.023-27.29,0.337-40.933-0.143
		C314.648,261.104,314.342,261.023,314.036,260.944z"/>
	<path fill-rule="evenodd" clip-rule="evenodd" fill="#CFA24C" d="M278.957,279.053c0.418-3.03-1.546-2.988-3.679-2.979
		c-10.602,0.041-21.204-0.042-31.805,0.053c-3.453,0.03-3.983-0.856-1.477-3.301c10.063-1.745,20.206-0.549,30.309-0.744
		c3.896-0.075,7.962-1.034,11.728,0.952l-0.058-0.058c0.702,1.53-0.867,2.156-1.278,3.247c-0.438,0.734-0.84,1.49-1.382,2.159
		C280.643,279.004,279.935,279.51,278.957,279.053z"/>
	<path fill-rule="evenodd" clip-rule="evenodd" fill="#DFC570" d="M253.788,258.98c1.423-1.083,2.847-2.166,4.271-3.249
		c0.295,0.054,0.591,0.107,0.887,0.16c12.324-0.514,24.65-0.349,36.976-0.12c0.592,0.103,1.143,0.316,1.656,0.63
		c1.242,2.94-0.686,4.18-2.852,5.301c-0.612,0.083-1.215,0.047-1.814-0.093c-11.108-0.48-22.22-0.008-33.325-0.264
		C257.47,261.297,254.729,262.169,253.788,258.98z"/>
	<path fill-rule="evenodd" clip-rule="evenodd" fill="#A90D05" d="M278.957,279.053c0.673-0.363,1.346-0.727,2.019-1.09
		c1.371,0.757,2.139,1.943,2.467,3.449c-2.403,7.315-7.059,13.428-10.77,20.046c-0.337,0.602-1.012,0.796-1.692,0.342
		c-0.478-1.351,1.97-4.204-1.946-3.79c-0.356-0.32-0.5-0.717-0.438-1.19c0.456-1.497,1.062-2.94,1.649-4.392
		c0.228-0.398,0.553-0.697,0.954-0.915c1.434-0.98,1.506-2.633,1.993-4.076c0.262-0.817,0.563-1.624,0.826-2.445
		c0.125-0.413,0.302-0.805,0.501-1.188c0.332-0.562,0.736-1.07,1.161-1.563c0.653-0.887,1.505-1.573,2.317-2.3
		C278.318,279.645,278.638,279.349,278.957,279.053z"/>
	<path fill-rule="evenodd" clip-rule="evenodd" fill="#CC8F37" d="M274.951,285.046c0.154,0.901,0.041,1.712-0.78,2.279
		c-0.574,0.163-0.921,0.745-1.536,0.834c-0.165-0.109-0.33-0.22-0.495-0.33c-1.273-1.608-3.065-0.91-4.621-0.921
		c-9.598-0.067-19.197,0.021-28.794-0.1c-1.257-0.017-3.628,1.315-3.595-1.739c1.655-1.406,3.68-1.449,5.677-1.458
		c9.666-0.042,19.331-0.042,28.997-0.002C271.643,283.617,273.5,283.619,274.951,285.046z"/>
	<path fill-rule="evenodd" clip-rule="evenodd" fill="#C27518" d="M232.078,291.616c0.355-1.48,1.485-1.555,2.714-1.554
		c10.979,0.013,21.959,0.023,32.938-0.011c1.249-0.003,2.235,0.495,3.227,1.106c0.3,0.191,0.4,0.385,0.302,0.578
		c-0.099,0.194-0.198,0.291-0.298,0.291l0.062-0.07c-0.787,0.642-1.671,0.947-2.692,0.772c-10.559-0.553-21.125-0.058-31.686-0.285
		C235.124,292.412,233.338,293.28,232.078,291.616z"/>
	<path fill-rule="evenodd" clip-rule="evenodd" fill="#CC9138" d="M237.694,279.872c0.128-0.261,0.257-0.522,0.386-0.783
		c0.503-0.453,1.079-0.911,1.738-0.913c11.635-0.034,23.278-0.772,34.901,0.393c0.535,0.467,0.751,1.051,0.652,1.754
		c-1.099,2.262-3.252,2.023-5.18,2.042c-9.094,0.092-18.19,0.115-27.283-0.018C240.915,282.318,238.381,282.89,237.694,279.872z"/>
	<path fill-rule="evenodd" clip-rule="evenodd" fill="#CC8F37" d="M345.906,287.722c-0.818,0.251-1.527,0.222-1.879-0.729
		c-0.668-0.959-0.574-1.812,0.354-2.55c7.377-1.775,14.873-0.632,22.31-0.767c4.051-0.073,8.341-1.134,12.139,1.399
		c0.038,3.019-2.299,1.718-3.558,1.736c-8.237,0.122-16.479,0.023-24.717,0.097C348.998,286.922,347.234,286.225,345.906,287.722z"
		/>
	<path fill-rule="evenodd" clip-rule="evenodd" fill="#956D37" d="M378.829,285.075c-11.601-0.002-23.2-0.003-34.801-0.005
		c-2.127,1.766-4.595,0.565-6.899,0.796c-1.324,0.134-2.65,0.268-3.975,0.401c-1.721-0.416-3.49,0.261-5.206-0.238
		c-0.843-0.417-0.949-1.156-0.868-1.978c0.459-0.491,1.018-0.797,1.678-0.917c14.996-0.295,29.992-0.074,44.989-0.104
		c1.803-0.003,3.656,0.007,5.213,1.192C378.948,284.512,378.904,284.796,378.829,285.075z"/>
	<path fill-rule="evenodd" clip-rule="evenodd" fill="#C1761B" d="M382.988,296.064c-0.405,2.662-2.521,1.639-3.943,1.668
		c-7.133,0.15-14.281-0.056-21.398,0.334c-2.078,0.114-1.877-1.234-2.63-2.039C364.342,295.192,373.665,295.143,382.988,296.064z"/>
	<path fill-rule="evenodd" clip-rule="evenodd" fill="#273147" d="M357.082,300.982c8.126,0.003,16.253-0.041,24.378,0.043
		c1.729,0.018,4.872-0.693,2.529,2.982c-7.91,1.123-15.88,0.05-23.808,0.621c-0.66,0.048-1.133-0.606-1.372-1.265
		c4.104-1.822,8.416-0.549,12.622-0.801c3.338-0.2,6.701-0.142,10.053-0.062c-7.611,0.15-15.226-0.175-22.839,0.066
		C357.718,302.44,356.781,302.32,357.082,300.982z"/>
	<path fill-rule="evenodd" clip-rule="evenodd" fill="#E6C468" d="M291.97,267.704c0.075-0.183,0.097-0.373,0.066-0.568
		c-1.635-1.606-3.717-1.109-5.645-1.118c-10.896-0.046-21.792,0.037-32.687-0.078c-1.714-0.019-4.168,1.011-4.787-1.972
		c0.692-0.648,1.385-1.298,2.077-1.946c0.257,0.076,0.515,0.152,0.776,0.227c0.532,0.153,1.069,0.254,1.623,0.293
		c12.962-0.04,25.922,0.445,38.872-0.277c0.851-0.154,1.678-0.1,2.462,0.293c1.862,2.496-0.332,3.902-1.505,5.585
		C292.649,268.446,292.231,268.3,291.97,267.704z"/>
	<path fill-rule="evenodd" clip-rule="evenodd" fill="#16294A" d="M328.035,283.9c-0.311,0.098-0.629,0.148-0.955,0.15
		c-0.776-0.387-1.037-1.066-1.064-1.879c16.971-0.13,33.941-0.26,50.913-0.391c0.024,0.405,0.05,0.812,0.075,1.218
		c-4.9,1.059-9.86,0.32-14.79,0.463C350.824,283.792,339.418,282.953,328.035,283.9z"/>
	<path fill-rule="evenodd" clip-rule="evenodd" fill="#6D6955" d="M316.118,266.899c-0.326,0.075-0.652,0.15-0.979,0.227
		c-0.052-0.416-0.103-0.831-0.153-1.247c-0.193-0.708,0.035-1.234,0.682-1.581c1.058-0.549,2.21-0.668,3.37-0.659
		c15.358,0.112,30.72-0.45,46.073,0.306c0.912,0.407,0.896,1.219,0.883,2.029c-3.554,1.077-7.194,0.393-10.791,0.484
		C342.178,266.79,329.139,265.95,316.118,266.899z"/>
	<path fill-rule="evenodd" clip-rule="evenodd" fill="#E7C468" d="M365.111,263.944c-1.362,1.901-3.371,1.001-5.061,1.016
		c-14.995,0.123-29.991,0.135-44.986,0.18c-0.383-0.618-0.291-1.155,0.272-1.614c2.122-1.29,4.489-0.885,6.771-0.908
		c13.047-0.135,26.096,0.183,39.141-0.178c0.293-0.063,0.59-0.121,0.885-0.182c0.291-0.078,0.583-0.156,0.874-0.233
		C363.708,262.664,364.41,263.305,365.111,263.944z"/>
	<path fill-rule="evenodd" clip-rule="evenodd" fill="#0D2146" d="M374.823,278.154c-15.812,0.027-31.624,0.066-47.436,0.061
		c-1.137-0.001-2.273-0.336-3.409-0.517c0.048-0.194,0.09-0.39,0.125-0.586c16.658-0.034,33.315-0.07,49.973-0.093
		c0.289,0,0.686,0.099,0.833,0.299C375.032,277.484,374.863,277.867,374.823,278.154z"/>
	<path fill-rule="evenodd" clip-rule="evenodd" fill="#0D2146" d="M322.983,272.787c-0.655,0.056-1.312,0.11-1.966,0.166
		c0.002-0.58,0.004-1.159,0.006-1.739c16.322-0.081,32.646-0.161,48.969-0.242c-0.001,0.331-0.005,0.661-0.012,0.992
		c-3.888,1.156-7.863,0.393-11.794,0.487C346.455,272.734,334.713,272.099,322.983,272.787z"/>
	<path fill-rule="evenodd" clip-rule="evenodd" fill="#1A2A48" d="M328.035,283.9c1.527-1.504,3.457-0.865,5.207-0.871
		c14.587-0.052,29.174-0.029,43.762-0.03c0.884,0.036,1.671,0.227,1.956,1.224C361.984,284.115,345.01,284.008,328.035,283.9z"/>
	<path fill-rule="evenodd" clip-rule="evenodd" fill="#0D2146" d="M316.118,266.899c1.47-1.677,3.423-0.848,5.131-0.857
		c14.915-0.082,29.83-0.06,44.745-0.068c-0.003,0.293-0.006,0.587-0.01,0.88C349.362,266.869,332.74,266.884,316.118,266.899z"/>
	<path fill-rule="evenodd" clip-rule="evenodd" fill="#424448" d="M322.983,272.787c1.593-1.332,3.497-0.753,5.26-0.761
		c13.912-0.06,27.825-0.05,41.737-0.063c0.833,0.082,1.632,0.224,1.976,1.147C355.632,273.004,339.308,272.896,322.983,272.787z"/>
	<path fill-rule="evenodd" clip-rule="evenodd" fill="#8E835B" d="M313.787,261.677c-0.115-0.312-0.033-0.556,0.248-0.732
		c0.001,0-0.102,0.059-0.102,0.059c5.572-1.105,11.203-0.439,16.799-0.435c10.092,0.008,20.189-0.451,30.275,0.25
		c0.79,0.197,1.635,0.304,1.999,1.206c0.131,0.188,0.14,0.382,0.024,0.58c-15.561,0.854-31.133,0.226-46.699,0.325
		C315.314,262.936,314.356,262.659,313.787,261.677z"/>
	<path fill-rule="evenodd" clip-rule="evenodd" fill="#243049" d="M361.008,260.818c-15.691,0.062-31.383,0.123-47.074,0.185
		c1.359-1.898,3.354-0.945,5.021-0.959c12.252-0.094,24.506-0.013,36.758-0.099c1.494-0.011,3.346,0.913,4.496-0.969
		C360.475,259.591,360.742,260.204,361.008,260.818z"/>
	<path fill-rule="evenodd" clip-rule="evenodd" fill="#6E6955" d="M248.917,263.968c1.374,1.878,3.375,0.978,5.063,0.991
		c11.317,0.091,22.636,0.015,33.953,0.084c1.594,0.01,3.939-0.941,4.103,2.092c-0.354-0.049-0.707-0.099-1.061-0.148
		c-9.711-1.116-19.459-0.156-29.183-0.521c-4.595-0.173-9.227,0.63-13.786-0.493C247.995,265.161,247.997,264.355,248.917,263.968z"
		/>
	<path fill-rule="evenodd" clip-rule="evenodd" fill="#E3D47F" d="M310.008,251.98c10.112,0.006,20.225,0.008,30.338,0.02
		c2.897,0.003,5.793,0.002,8.608-0.83c0.58-0.159,0.954,0.056,1.138,0.623c-0.089,2.796-2.361,2.498-3.998,2.508
		c-11.775,0.069-23.554,0.393-35.327-0.144C310.514,253.432,310.26,252.706,310.008,251.98z"/>
	<path fill-rule="evenodd" clip-rule="evenodd" fill="#575A53" d="M354.212,254.999c0.7-0.056,1.348,0.008,1.716,0.73
		c0.084,0.16,0.105,0.329,0.063,0.505c-13.889,0.573-27.783,0.098-41.674,0.238c-1.096,0.011-2.496,0.299-2.354-1.595
		c0.786-0.74,1.779-0.829,2.776-0.841c11.9-0.143,23.803,0.119,35.703-0.137C351.805,253.871,353.019,254.415,354.212,254.999z"/>
	<path fill-rule="evenodd" clip-rule="evenodd" fill="#F6E180" d="M310.767,254.157c1.4-1.683,3.339-1.13,5.088-1.138
		c9.735-0.043,19.472,0.009,29.208-0.048c1.725-0.011,3.696,0.655,5.029-1.179c1.229,0.483,2.444,0.986,3.156,2.209
		c-8.048,1.079-16.133,0.263-24.198,0.458c-5.451,0.132-10.908,0.027-16.362,0.024c-0.657,0.049-1.285-0.064-1.883-0.341
		L310.767,254.157z"/>
	<path fill-rule="evenodd" clip-rule="evenodd" fill="#8E845B" d="M293.989,260.999c0.367,0.051,0.734,0.102,1.102,0.152
		c0.108,0.758-0.217,1.19-0.974,1.301c-14.379,0.97-28.762,0.731-43.146,0.147c-0.114-0.198-0.106-0.391,0.023-0.578
		c0.366-0.898,1.21-1.004,1.998-1.202C266.66,260.437,280.327,260.082,293.989,260.999z"/>
	<path fill-rule="evenodd" clip-rule="evenodd" fill="#1A2A48" d="M276.225,283.104c-0.391,0.353-0.781,0.704-1.171,1.056
		c-13.327,0.56-26.653,0.498-39.98,0.028c0.314-0.928,1.064-1.148,1.925-1.188c1.729-1.421,3.8-0.954,5.753-0.979
		c9.8-0.126,19.603,0.164,29.4-0.158c1.168-0.317,2.349-0.501,3.558-0.258C276.279,281.967,276.451,282.467,276.225,283.104z"/>
	<path fill-rule="evenodd" clip-rule="evenodd" fill="#0D2146" d="M248.006,265.972c12.618,0.01,25.237-0.016,37.854,0.067
		c1.711,0.012,3.684-0.804,5.114,0.947c-14.319-0.044-28.639-0.087-42.958-0.131C248.012,266.562,248.009,266.267,248.006,265.972z"
		/>
	<path fill-rule="evenodd" clip-rule="evenodd" fill="#243049" d="M293.989,260.999c-13.666-0.06-27.332-0.119-40.998-0.18
		c0.266-0.613,0.531-1.226,0.796-1.839c1.151,1.871,2.997,0.951,4.492,0.964c10.411,0.092,20.823,0.004,31.234,0.099
		C291,260.057,292.847,259.109,293.989,260.999z"/>
	<path fill-rule="evenodd" clip-rule="evenodd" fill="#434448" d="M284.032,273.033c-14.012-0.069-28.024-0.139-42.036-0.207
		c0.673-0.286,1.346-0.571,2.02-0.856c13.285-0.749,26.57-0.739,39.855-0.006C283.925,272.32,283.979,272.677,284.032,273.033z"/>
	<path fill-rule="evenodd" clip-rule="evenodd" fill="#989367" d="M312.075,254.032c13.724-0.01,27.448-0.021,41.173-0.03
		c0.32,0.333,0.641,0.665,0.963,0.997c-14.047,0.017-28.096,0.033-42.145,0.05c-0.333-0.229-0.442-0.456-0.329-0.681
		C311.85,254.145,311.962,254.032,312.075,254.032z"/>
	<path fill-rule="evenodd" clip-rule="evenodd" fill="#7D623E" d="M275.863,282.079c-0.979,0.021-1.959,0.043-2.938,0.064
		c-11.976,0.458-23.95,0.766-35.919-0.162c-0.037-0.791-0.05-1.573,0.69-2.109c0.236,0.231,0.464,0.657,0.709,0.666
		c12.241,0.472,24.487,1.275,36.706-0.382C276.845,280.216,276.748,280.993,275.863,282.079z"/>
	<path fill-rule="evenodd" clip-rule="evenodd" fill="#F6E180" d="M299.958,253.085l0.051,0.411
		c-0.858,1.906-2.65,1.835-4.266,1.854c-10.289,0.117-20.579,0.104-30.868,0.014c-1.499-0.014-3.007-0.127-4.123-1.36
		c0.712-1.226,1.929-1.729,3.16-2.213c10.046,1.52,20.158,0.337,30.23,0.749C296.083,252.618,298.112,251.957,299.958,253.085z"/>
	<path fill-rule="evenodd" clip-rule="evenodd" fill="#585B53" d="M297.923,256.923l-0.339-0.016l-0.338,0.033
		c-8.922-1.017-17.876-0.172-26.811-0.459c-4.142-0.133-8.295,0.32-12.427-0.256c-0.037-0.17-0.02-0.335,0.05-0.494
		c0.382-0.709,1.031-0.783,1.734-0.732c9.387-1.088,18.807-0.219,28.209-0.465c3.142-0.083,6.291-0.097,9.435,0.048
		C298.684,255.137,298.496,255.99,297.923,256.923z"/>
	<path fill-rule="evenodd" clip-rule="evenodd" fill="#989367" d="M298.111,255.172c-12.772-0.058-25.544-0.115-38.317-0.173
		c0.319-0.332,0.639-0.664,0.959-0.996c13.083-0.311,26.184,0.634,39.257-0.507l0.228,0.366
		C300.211,255.408,299.379,255.644,298.111,255.172z"/>
	<path fill-rule="evenodd" clip-rule="evenodd" fill="#8F6835" d="M235.073,284.188c13.327-0.01,26.653-0.02,39.98-0.028
		c-0.015,0.298-0.049,0.593-0.103,0.886c-13.274,0.008-26.547,0.016-39.821,0.023C235.077,284.778,235.058,284.484,235.073,284.188z
		"/>
	<path fill-rule="evenodd" clip-rule="evenodd" fill="#2B3548" d="M261.201,305.063c-0.814,1.111-2.028,1.467-3.287,1.738
		c-1.035-5.464-5.335-1.703-7.914-2.802c-6.667,0.783-13.334,0.784-20-0.001c-1.264-1.009-1.358-1.995,0.058-2.951
		c0.56,0.167,1.126,0.306,1.703,0.411c7.958,0.351,15.919-0.022,23.874,0.208C258.03,301.735,260.869,301.447,261.201,305.063z"/>
	<path fill-rule="evenodd" clip-rule="evenodd" fill="#0F2346" d="M283.871,271.964c-13.285,0.002-26.571,0.004-39.856,0.006
		c-0.001-0.335-0.003-0.67-0.005-1.006c11.976-0.019,23.952-0.071,35.927-0.007C281.246,270.964,282.98,270.044,283.871,271.964z"/>
	<path fill-rule="evenodd" clip-rule="evenodd" fill="#1A2A48" d="M271.026,290.061c-1.434-1.703-3.397-1.022-5.138-1.032
		c-10.591-0.06-21.182-0.029-31.776-1.199c12.676,0,25.352,0,38.028,0l0.034-0.035C272.664,288.991,272.687,289.952,271.026,290.061
		z"/>
	<path fill-rule="evenodd" clip-rule="evenodd" fill="#0F2246" d="M238.026,278.092c0.51-0.744,1.244-1.056,2.118-1.056
		c11.769-0.008,23.539-0.013,35.308-0.01c0.147,0,0.391,0.066,0.422,0.159c0.086,0.257,0.084,0.544,0.118,0.818
		C263.338,278.855,250.683,278.691,238.026,278.092z"/>
	<path fill-rule="evenodd" clip-rule="evenodd" fill="#E4D47F" d="M299.958,253.085c-10.323-0.028-20.647-0.029-30.97-0.114
		c-1.739-0.014-3.729,0.673-5.076-1.181c0.393-0.253,0.786-0.506,1.179-0.759c9.699,2.008,19.516,0.463,29.262,0.996
		C296.243,252.131,298.389,251.188,299.958,253.085z"/>
	<path fill-rule="evenodd" clip-rule="evenodd" fill="#2A3244" d="M232.078,291.616c10.289,1.049,20.607,0.19,30.908,0.469
		c1.996,0.055,3.992,0.093,5.988,0.138c0.958,1.116,1.062,2.128-0.361,2.952c-0.227-0.082-0.454-0.165-0.681-0.247
		c-0.479-2.815-2.728-1.868-4.331-1.883c-8.897-0.08-17.796,0.006-26.693-0.078C235.247,292.951,233.183,293.832,232.078,291.616z"
		/>
	<path fill-rule="evenodd" clip-rule="evenodd" fill="#675944" d="M238.026,278.092c12.655-0.029,25.31-0.059,37.965-0.088
		c0.057,0.263,0.098,0.528,0.123,0.795c-0.244,0.575-0.625,0.689-1.144,0.341c-12.297-0.017-24.594-0.033-36.891-0.051
		C238.043,278.758,238.025,278.425,238.026,278.092z"/>
	<path fill-rule="evenodd" clip-rule="evenodd" fill="#2A3244" d="M231.021,296.055c1.417-1.731,3.381-1.018,5.111-1.031
		c10.599-0.084,21.199-0.073,31.799-0.095c0-0.001,0.083,0.081,0.083,0.081c0.278,0.704,0.088,1.243-0.568,1.619
		c-11.055,1.532-22.162,0.547-33.247,0.667C233.003,297.31,231.934,296.845,231.021,296.055z"/>
	<path fill-rule="evenodd" clip-rule="evenodd" fill="#C27518" d="M231.021,296.055c12.332-0.135,24.663-0.27,36.995-0.404
		c0.37,0.598,0.316,1.153-0.162,1.669c-0.833,0.589-1.751,0.597-2.701,0.406c-10.115,0.544-20.237,0.165-30.355,0.256
		c-1.336,0.012-2.672-0.028-3.746-1.014C230.974,296.665,230.963,296.361,231.021,296.055z"/>
	<path fill-rule="evenodd" clip-rule="evenodd" fill="#845A2A" d="M231.052,296.968c11.692,0.111,23.385,0.224,35.078,0.335
		c0.417,0.606,0.355,1.171-0.148,1.697c-0.687-0.286-1.374-0.572-2.061-0.858c-10.976,0.476-21.95,0.738-32.921-0.125
		C231.018,297.667,231.035,297.317,231.052,296.968z"/>
	<path fill-rule="evenodd" clip-rule="evenodd" fill="#C27418" d="M353.838,293.673c-0.221,0.014-0.438,0.051-0.65,0.11
		c-1.596-1.021-3.451-1.249-5.228-1.721l-0.048-0.044c0.148-2.071,1.811-2.24,3.236-2.277c9.066-0.233,18.137-0.296,27.204,0.027
		c1.011,0.036,1.882,0.57,2.649,1.229c0.306,0.208,0.611,0.416,0.917,0.623c-1.442,1.751-3.395,0.769-5.075,0.809
		c-5.956,0.142-11.918,0.044-17.877,0.062C357.176,292.497,355.281,292.13,353.838,293.673z"/>
	<path fill-rule="evenodd" clip-rule="evenodd" fill="#13274A" d="M237.005,281.981c11.974,0.054,23.947,0.107,35.92,0.162
		c-2.058,1.635-4.463,0.788-6.692,0.812c-9.744,0.104-19.49,0.045-29.235,0.045C237,282.66,237.003,282.321,237.005,281.981z"/>
	<path fill-rule="evenodd" clip-rule="evenodd" fill="#A76C27" d="M381.002,290.998c-9.304,0.001-18.608-0.028-27.912,0.028
		c-1.756,0.011-3.699-0.607-5.178,0.992c-1.198-0.232-1.152-1.113-1.057-2.021c-0.001,0,0.139-0.09,0.139-0.09
		c3.499-1.586,7.207-0.796,10.822-0.871c5.975-0.123,11.955-0.061,17.934-0.018c1.792,0.013,3.697-0.348,5.205,1.092
		C380.996,290.406,381.012,290.701,381.002,290.998z"/>
	<path fill-rule="evenodd" clip-rule="evenodd" fill="#263148" d="M380.955,290.111c-11.32-0.067-22.642-0.135-33.962-0.203
		c0.001-0.303,0.001-0.605,0.003-0.908c0.337-0.002,0.674-0.003,1.01-0.005c10.998-0.789,21.996-0.793,32.994,0.004
		C380.984,289.37,380.97,289.74,380.955,290.111z"/>
	<path fill-rule="evenodd" clip-rule="evenodd" fill="#6F5132" d="M229.977,301.975c-0.001-0.312,0.026-0.621,0.081-0.927
		c0,0-0.058-0.033-0.058-0.033c10.953-0.943,21.914-0.566,32.875-0.211c0.36,0.078,0.721,0.155,1.081,0.233
		c0.346,0.159,0.491,0.359,0.438,0.602c-0.058,0.264-0.134,0.396-0.229,0.396l-0.111,0.067c-2.69,1.659-5.543,0.336-8.282,0.302
		C247.174,302.298,238.555,303.147,229.977,301.975z"/>
	<path fill-rule="evenodd" clip-rule="evenodd" fill="#16294A" d="M231,298.017c10.974,0.042,21.948,0.083,32.921,0.125
		c-6.675,1.945-13.496,0.62-20.237,0.748C239.48,298.97,235.092,300.111,231,298.017z"/>
	<path fill-rule="evenodd" clip-rule="evenodd" fill="#13274A" d="M262.875,300.804c-10.958,0.07-21.917,0.141-32.875,0.21
		c0.965-1.27,2.373-1.06,3.667-0.996C243.397,300.49,253.182,298.967,262.875,300.804z"/>
	<path fill-rule="evenodd" clip-rule="evenodd" fill="#1A2A48" d="M381,288.999c-10.998-0.001-21.996-0.002-32.994-0.003
		c1.125-1.391,2.705-0.976,4.138-0.98c8.239-0.03,16.479-0.03,24.719-0.001C378.296,288.021,379.875,287.609,381,288.999z"/>
	<path fill-rule="evenodd" clip-rule="evenodd" fill="#172949" d="M255.904,307.801c-0.343,0.384-0.685,0.767-1.028,1.149
		c-1.156,0.49-2.22,0.063-3.292-0.319c-4.965-0.533-9.944-0.11-14.913-0.249c-1.981-0.056-4.019,0.141-5.644-1.371
		c-0.139-1.901,1.32-0.927,1.984-0.968c6.737-0.411,13.519,0.657,20.236-0.615C255.12,305.074,255.185,306.822,255.904,307.801z"/>
	<path fill-rule="evenodd" clip-rule="evenodd" fill="#1A2947" d="M358.986,303.192c6.46,1.764,13.049,0.386,19.566,0.791
		c1.806,0.112,3.624,0.021,5.437,0.024c-5.022,2.216-10.308,0.382-15.431,1.005c-2.196,0.268-4.617-0.874-6.566,1.007
		c-0.193,0.136-0.386,0.271-0.579,0.407c-1.544,0.262-2.812-0.175-3.73-1.487c-0.212-0.706-0.358-1.407,0.126-2.071
		C358.299,302.624,358.696,302.714,358.986,303.192z"/>
	<path fill-rule="evenodd" clip-rule="evenodd" fill="#2C3344" d="M353.838,293.673c0.762-2.657,2.963-1.473,4.532-1.545
		c7.844-0.362,15.715,0.493,23.549-0.504c-0.935,2.048-2.808,1.334-4.331,1.353c-6.091,0.073-12.184-0.018-18.273,0.063
		c-1.635,0.021-3.846-0.828-4.305,1.951l-0.02,0.021C354.605,294.564,354.222,294.119,353.838,293.673z"/>
	<path fill-rule="evenodd" clip-rule="evenodd" fill="#2C3344" d="M382.988,296.064c-9.324-0.013-18.648-0.024-27.973-0.037
		c-0.008-0.339-0.018-0.678-0.025-1.018c0,0.001,0.02-0.02,0.02-0.02c7.789,0,15.578-0.028,23.366,0.025
		C379.956,295.026,381.746,294.438,382.988,296.064z"/>
	<path fill-rule="evenodd" clip-rule="evenodd" fill="#A46823" d="M384.996,307.05c0.045,0.309,0.027,0.613-0.052,0.914
		c-3.382,2.009-7.084,0.762-10.632,0.992c-3.776,0.244-7.578-0.104-11.363,0.186c-1.816-0.052-1.988-0.826-0.937-2.136
		C369.676,306.224,377.337,306.13,384.996,307.05z"/>
	<path fill-rule="evenodd" clip-rule="evenodd" fill="#132749" d="M250.97,311.956c-1.438-2.114-3.614-1.848-5.79-2.007
		c-4.724-0.347-9.582,1.177-14.176-0.965c6.529-2.024,13.202-0.619,19.805-0.834c0.603,0.142,1.102,0.452,1.498,0.928
		C252.727,310.438,252.284,311.399,250.97,311.956z"/>
	<path fill-rule="evenodd" clip-rule="evenodd" fill="#A56925" d="M252.02,309.976c-0.069-0.286-0.12-0.576-0.152-0.869
		c-4.81-1.338-9.723-0.25-14.572-0.632c-2.094-0.165-4.255,0.518-6.284-0.483c-0.095-0.328-0.09-0.655,0.016-0.98
		c5.88-0.002,11.761-0.045,17.641,0.021c1.552,0.018,3.319-0.586,4.551,1.009C253.528,309.125,253.718,310.136,252.02,309.976z"/>
	<path fill-rule="evenodd" clip-rule="evenodd" fill="#715333" d="M362.949,309.142c2.954-2.295,6.368-0.875,9.556-1.084
		c4.131-0.271,8.292-0.084,12.439-0.094c0.019,0.337,0.037,0.674,0.056,1.011c-5.033,1.105-10.134,0.204-15.192,0.525
		c-1.939,0.123-3.947-0.505-5.814,0.483C363.646,309.703,363.297,309.422,362.949,309.142z"/>
	<path fill-rule="evenodd" clip-rule="evenodd" fill="#B67221" d="M248.294,316.165c-0.149-0.373-0.299-0.745-0.449-1.118
		c-4.143-1.176-8.383-0.235-12.56-0.586c-1.72-0.145-3.582,0.688-5.151-0.654c6.716-1.219,13.422-1.877,20.074,0.381
		C249.571,314.848,248.933,315.507,248.294,316.165z"/>
	<path fill-rule="evenodd" clip-rule="evenodd" fill="#16294A" d="M384.996,307.05c-7.661-0.015-15.322-0.029-22.983-0.044
		l0.038,0.016c-0.341-0.149-0.449-0.4-0.324-0.751l0.266-0.251c6.127-0.006,12.255-0.048,18.381,0.005
		C381.955,306.038,383.737,305.456,384.996,307.05z"/>
	<path fill-rule="evenodd" clip-rule="evenodd" fill="#6D4F31" d="M231.012,307.991c5.458,0.002,10.916-0.061,16.371,0.05
		c1.516,0.03,3.368-0.827,4.485,1.065c-6.956-0.04-13.91-0.081-20.865-0.122C230.968,308.652,230.971,308.321,231.012,307.991z"/>
	<path fill-rule="evenodd" clip-rule="evenodd" fill="#483F3C" d="M385.731,313.736c0.089,0.401,0.178,0.802,0.268,1.202
		c-6.274,1.472-12.729-0.307-19.01,1.05c-0.912-0.38-1.014-1.157-0.98-2C372.572,313.083,379.153,313.514,385.731,313.736z"/>
	<path fill-rule="evenodd" clip-rule="evenodd" fill="#13264A" d="M363.993,309.983c4.728-2.123,9.707-0.512,14.551-0.956
		c2.136-0.196,4.304-0.046,6.456-0.053c-4.722,2.193-9.713,0.541-14.56,0.99C368.309,310.162,366.144,309.988,363.993,309.983z"/>
	<path fill-rule="evenodd" clip-rule="evenodd" fill="#162849" d="M366.989,315.988c6.235-2.191,12.691-0.373,19.01-1.05
		c-2.099,2.021-4.694,0.896-7.051,1.008C374.971,316.136,370.977,315.992,366.989,315.988z"/>
	<path fill-rule="evenodd" clip-rule="evenodd" fill="#B66E1C" d="M385.731,313.736c-6.574,0.084-13.148,0.168-19.723,0.252
		C372.561,312.167,379.141,312.532,385.731,313.736z"/>
	<path fill-rule="evenodd" clip-rule="evenodd" fill="#1A2A48" d="M230,303.999C236.666,304,243.333,304,250,304
		C243.333,305.65,236.666,305.652,230,303.999z"/>
	<path fill-rule="evenodd" clip-rule="evenodd" fill="#172A4A" d="M385.937,320.826c-2.93,2.364-6.364,0.629-9.518,1.176
		c-1.614,0.28-3.88-0.897-4.358,1.938l-0.092,0.111c-1.154-0.628-1.956-1.489-1.92-2.904c0.212-0.219,0.424-0.438,0.635-0.657
		C375.783,319.871,380.882,319.353,385.937,320.826z"/>
	<path fill-rule="evenodd" clip-rule="evenodd" fill="#473E3C" d="M230.135,313.807c4.425,0.066,8.854,0.051,13.274,0.245
		c1.489,0.065,3.322-0.897,4.437,0.995c-5.946-0.025-11.892-0.052-17.837-0.078C230.051,314.581,230.093,314.194,230.135,313.807z"
		/>
	<path fill-rule="evenodd" clip-rule="evenodd" fill="#AE6D22" d="M370.049,321.147c-1.681-2.449,0.397-2.109,1.663-2.118
		c4.393-0.03,8.787,0.038,13.181,0.069c-0.136,2.14-1.807,1.276-2.854,1.354c-4.018,0.295-8.07-0.414-12.075,0.395L370.049,321.147z
		"/>
	<path fill-rule="evenodd" clip-rule="evenodd" fill="#83582A" d="M369.963,320.847c2.946-1.733,6.172-0.421,9.236-0.849
		c1.902-0.265,4.011,0.747,5.693-0.899c1.009,0.177,0.994,0.974,1.044,1.729C380.611,320.833,375.287,320.84,369.963,320.847z"/>
	<path fill-rule="evenodd" clip-rule="evenodd" fill="#182949" d="M373.994,326c-0.675-0.649-1.351-1.299-2.025-1.948
		c0,0,0.092-0.11,0.092-0.111c4.285,0.694,8.779-1.164,12.939,1.06C381.551,327.748,377.655,325.584,373.994,326z"/>
	<path fill-rule="evenodd" clip-rule="evenodd" fill="#584845" d="M264.165,302.034c-0.069-0.333-0.139-0.665-0.208-0.997
		c0.948-0.407,1.708-1.003,2.026-2.037c0.048-0.567,0.097-1.135,0.146-1.699c0.554-0.115,1.106-0.232,1.659-0.35
		c0.482-0.402,0.924-0.362,1.327,0.119c-0.014,0.313-0.041,0.627-0.08,0.939C267.286,299.199,267.483,302.743,264.165,302.034z"/>
	<path fill-rule="evenodd" clip-rule="evenodd" fill="#1D2A45" d="M252.02,309.976c1.041-0.248,1.03-1.146,1.199-1.935
		c0.553,0.304,1.106,0.607,1.658,0.91c0.17,2.699-1.63,3.595-3.802,4.148c-0.034-0.381-0.069-0.762-0.104-1.143
		C251.32,311.296,251.67,310.636,252.02,309.976z"/>
	<path fill-rule="evenodd" clip-rule="evenodd" fill="#C3791E" d="M384.984,326.035c0.094,0.309,0.079,0.611-0.045,0.909
		c-2.467,1.775-5.245,1.019-7.936,0.974c-1.003-0.261-1.689-0.843-1.914-1.892C378.389,325.196,381.688,325.181,384.984,326.035z"/>
	<path fill-rule="evenodd" clip-rule="evenodd" fill="#353541" d="M384.984,326.035c-3.298-0.003-6.597-0.006-9.895-0.009
		c-0.365-0.009-0.73-0.018-1.096-0.026c3.505-2.139,7.355-0.472,11.006-1C384.995,325.345,384.989,325.689,384.984,326.035z"/>
	<path fill-rule="evenodd" clip-rule="evenodd" fill="#393A4A" d="M271.026,290.061c0.879-0.504,1.004-1.39,1.147-2.267
		c0.665-0.156,1.33-0.313,1.996-0.469c-0.24,2.133-0.111,4.52-3.208,4.702c0.011-0.29,0.01-0.58-0.003-0.87
		C270.98,290.792,271.003,290.427,271.026,290.061z"/>
	<path fill-rule="evenodd" clip-rule="evenodd" fill="#B4A768" d="M379.727,332.189c1.148,1.046,3.516,0.105,3.73,2.539
		c0.03,0.339-0.692,1.098-0.83,1.045C381.065,335.176,380.179,333.915,379.727,332.189z"/>
	<path fill-rule="evenodd" clip-rule="evenodd" fill="#A9A16A" d="M347.96,292.063c1.854,0.232,4.228-1.104,5.226,1.724
		C350.586,295.817,349.875,292.113,347.96,292.063z"/>
	<path fill-rule="evenodd" clip-rule="evenodd" fill="#1C2C48" d="M384.971,327.916c-2.098,1.568-4.473,1.713-6.946,1.351
		C379.797,326.024,382.545,327.801,384.971,327.916z"/>
	<path fill-rule="evenodd" clip-rule="evenodd" fill="#715130" d="M384.971,327.916c-2.275,0.652-5.026-1.154-6.946,1.346
		c-0.34-0.444-0.681-0.894-1.021-1.344c2.454-1.885,5.315-0.446,7.936-0.974C384.988,327.267,384.999,327.591,384.971,327.916z"/>
	<path fill-rule="evenodd" clip-rule="evenodd" fill="#1D2448" d="M344.941,292.127c0.066-0.836,0.202-1.638,1.041-2.087
		c-0.371,2.644,0.913,5.468-0.87,7.956C344.099,296.067,344.344,294.103,344.941,292.127z"/>
	<path fill-rule="evenodd" clip-rule="evenodd" fill="#A11408" d="M344.941,292.127c0.057,1.956,0.113,3.913,0.171,5.869
		c-0.081,0.66-0.163,1.32-0.244,1.98c-1.763-2.435-0.513-5.218-0.903-7.811C344.287,292.051,344.611,292.038,344.941,292.127z"/>
	<path fill-rule="evenodd" clip-rule="evenodd" fill="#FEFC9D" d="M324.966,241.148c-3.135,1.473-3.837,1.305-3.985-0.957
		C322.549,239.512,323.572,241.104,324.966,241.148z"/>
	<path fill-rule="evenodd" clip-rule="evenodd" fill="#A19B69" d="M358.073,303.129c-0.015,0.598-0.03,1.195-0.045,1.793
		c0.431,0.514,0.387,0.985-0.13,1.413c-1.07-1.662-3.203-3.162-0.816-5.353c0.216,0.292,0.432,0.583,0.647,0.874
		C358.424,302.124,358.539,302.549,358.073,303.129z"/>
	<path fill-rule="evenodd" clip-rule="evenodd" fill="#B99A55" d="M274.971,279.14c0.381-0.113,0.762-0.226,1.144-0.34
		c0.628,0.38,1.256,0.761,1.884,1.141c0.227,1.514-0.537,2.471-1.774,3.163c-0.12-0.341-0.24-0.683-0.361-1.024
		c0.078-0.771,0.053-1.502-0.754-1.925C275.063,279.817,275.017,279.479,274.971,279.14z"/>
	<path fill-rule="evenodd" clip-rule="evenodd" fill="#12213F" d="M294.96,239.836c-1.227,0.107-2.453,0.215-3.68,0.321
		c-0.302-0.09-0.645-0.117-0.896-0.283c-0.436-0.288-0.591-0.796,0.098-0.8C292.004,239.065,293.657,238.506,294.96,239.836z"/>
	<path fill-rule="evenodd" clip-rule="evenodd" fill="#A49E6A" d="M357.898,306.335c0.043-0.471,0.087-0.942,0.13-1.413
		c1.233,0.449,2.466,0.898,3.698,1.349c0.031,0.283,0.14,0.533,0.324,0.751C360.604,307.173,359.124,307.524,357.898,306.335z"/>
	<path fill-rule="evenodd" clip-rule="evenodd" fill="#242B45" d="M270.981,301.8c4.294-6.758,8.328-13.664,11.871-20.851
		c-0.208-0.801,0.265-1.21,0.882-1.539c0.665-0.208,1.317-0.18,1.956,0.105c0.163,0.151,0.324,0.306,0.486,0.46
		c-2.537,12.059-8.672,21.927-18.705,29.54C268.641,306.943,269.811,304.372,270.981,301.8z"/>
	<path fill-rule="evenodd" clip-rule="evenodd" fill="#B40903" d="M298.111,255.172c0.882-0.15,1.736-0.346,2.123-1.308
		c0.997-0.665,1.991-1.328,2.986-1.992c2.951,3.47-0.102,6.191-1.142,9.164c-3.664-0.811-3.845,2.549-4.689,4.414
		c-2.613,5.775-6.174,10.687-11.213,14.524c0,0.001-0.386,0.061-0.386,0.061c-0.523-1.475,0.079-2.781,0.604-4.102
		c1.738-3.034,4.421-5.302,6.538-8.031c-0.922-2.266,2.485-2.801,1.962-4.907c-0.294-0.208-0.394-0.419-0.3-0.633
		c0.095-0.214,0.19-0.321,0.288-0.321c0.106-0.288,0.176-0.585,0.208-0.89c0.944-1.409,1.888-2.818,2.833-4.228
		C297.986,256.34,298.048,255.756,298.111,255.172z"/>
	<path fill-rule="evenodd" clip-rule="evenodd" fill="#B9711C" d="M229.977,301.975c11.359,0.042,22.718,0.084,34.077,0.127
		c-0.43,1.49-1.638,2.229-2.853,2.961c-1.086-2.269-3.151-2.085-5.163-2.083c-7.166,0.011-14.332,0.061-21.496-0.04
		C233.014,302.918,231.172,303.782,229.977,301.975z"/>
	<path fill-rule="evenodd" clip-rule="evenodd" fill="#1D2049" d="M301.905,261.954c1.541,2.04,1.875,4.043-0.186,5.972
		C303.007,265.974,300.213,263.894,301.905,261.954z"/>
	<path fill-rule="evenodd" clip-rule="evenodd" fill="#E9C569" d="M313.787,261.677c14.457,0.107,28.913,0.198,43.369,0.343
		c1.963,0.021,4.002-0.461,5.875,0.582c0,0.003-0.051,0.295-0.051,0.295c-1.496,1.091-3.211,0.555-4.816,0.562
		c-12.754,0.049-25.508,0.01-38.263,0.048c-1.624,0.005-3.317-0.42-4.869,0.464c0.011,0.39,0.021,0.78,0.032,1.17
		c-0.033,0.246-0.061,0.492-0.078,0.739C312.523,265.066,312.4,263.587,313.787,261.677z"/>
	<path fill-rule="evenodd" clip-rule="evenodd" fill="#F2D97A" d="M312.075,254.032c-0.003,0.339-0.007,0.678-0.009,1.017
		c1.4,1.84,3.383,0.876,5.061,0.897c12.953,0.171,25.909,0.209,38.863,0.288c-2.467,1.521-5.188,0.693-7.776,0.721
		c-10.292,0.109-20.585,0.077-30.878,0.019c-2.07-0.013-3.962,0.099-5.245,1.995c-0.429-1.608-0.856-3.217-1.286-4.825
		C311.229,254.106,311.651,254.069,312.075,254.032z"/>
	<path fill-rule="evenodd" clip-rule="evenodd" fill="#C27518" d="M327.948,286.029c1.808-1.511,3.552-1.622,5.206,0.236
		c-0.285,0.259-0.57,0.517-0.856,0.773c-1.382,0.751-2.76,0.989-4.124-0.042C328.102,286.674,328.027,286.352,327.948,286.029z"/>
	<path fill-rule="evenodd" clip-rule="evenodd" fill="#AFAC73" d="M328.174,286.997c1.373,0.015,2.748,0.028,4.123,0.042
		c-0.445,0.61-0.892,1.221-1.338,1.831C329.484,289.058,328.48,288.546,328.174,286.997z"/>
	<path fill-rule="evenodd" clip-rule="evenodd" fill="#2A2143" d="M318.731,312.942c0.481,0.048,0.962,0.097,1.443,0.145
		c-1.021,1.628-1.634,3.581-3.608,4.489c-1.142-1.075,0.385-1.695,0.438-2.553C317.58,314.33,318.155,313.636,318.731,312.942z"/>
	<path fill-rule="evenodd" clip-rule="evenodd" fill="#F4E6E6" d="M207.779,307.94c-0.01,1.263-0.647,1.864-1.881,1.562
		c-0.743-0.182-1.746-0.342-1.478-1.526c0.26-1.148,0.677-2.519,2.034-2.402C207.419,305.654,207.9,306.82,207.779,307.94z"/>
	<path fill-rule="evenodd" clip-rule="evenodd" fill="#F2E1E1" d="M404.58,329.938c-1.918-0.288-4.206-0.649-4.295-3.484
		c-0.056-1.781,1.593-1.484,2.598-1.234c2.052,0.511,5.209-0.604,5.855,2.021C409.227,329.222,406.872,329.996,404.58,329.938z"/>
	<path fill-rule="evenodd" clip-rule="evenodd" fill="#FAF4F4" d="M243.224,245.42c-0.069,1.425-0.732,2.55-1.733,2.294
		c-2.924-0.748-4.74-2.921-5.624-5.724c-0.331-1.048,0.492-2.106,1.658-1.9C240.636,240.642,242.02,243.114,243.224,245.42z"/>
	<path fill-rule="evenodd" clip-rule="evenodd" fill="#EACCCC" d="M206.365,330.755c1.396-1.506,2.397-2.634,3.98-1.331
		c0.252,0.207,0.361,1.056,0.168,1.261C209.379,331.889,208.121,330.894,206.365,330.755z"/>
	<path fill-rule="evenodd" clip-rule="evenodd" fill="#E5BDBD" d="M381.868,243.914c0.962,2.463-0.543,3.237-2.525,3.589
		c-0.899,0.16-1.122-0.556-0.979-1.23c0.413-1.963,1.689-2.66,3.614-2.261C381.976,244.011,381.868,243.914,381.868,243.914z"/>
	<path fill-rule="evenodd" clip-rule="evenodd" fill="#C27518" d="M337.129,285.866c2.137-1.684,4.6-0.53,6.898-0.797
		c0,0.642,0,1.282,0,1.923C341.545,287.739,339.221,287.519,337.129,285.866z"/>
	<path fill-rule="evenodd" clip-rule="evenodd" fill="#1E2846" d="M292.932,267.902c-0.485,3.708-3.439,5.702-5.684,8.189
		c-0.292,0.332-0.647,0.425-1.065,0.279c-0.73-0.598-0.578-1.433-0.607-2.22c0.058-0.757-0.118-1.557,0.36-2.248
		c1.451-2.204,4.665-1.875,6.033-4.198C292.291,267.771,292.611,267.837,292.932,267.902z"/>
	<path fill-rule="evenodd" clip-rule="evenodd" fill="#31344A" d="M285.937,271.903c0.333,0.732,0.666,1.466,0.999,2.199
		c-1.714,0.418-2.4,3.727-4.96,1.764c-0.496-1.768,1.659-1.702,2-2.891C284.628,272.618,285.283,272.261,285.937,271.903z"/>
	<path fill-rule="evenodd" clip-rule="evenodd" fill="#B60602" d="M281.975,275.866c2.142,0.785,2.892-2.345,4.96-1.764
		c-0.337,0.625-0.675,1.249-1.012,1.874c-0.157,1.603-0.727,2.988-2.079,3.964c-0.331,0.336-0.661,0.673-0.992,1.009
		c-1.261-0.597-1.862-1.606-1.876-2.986C281.074,277.152,281.041,276.278,281.975,275.866z"/>
	<path fill-rule="evenodd" clip-rule="evenodd" fill="#F4DA7A" d="M258.008,256.226c12.363-0.068,24.726-0.138,37.089-0.204
		c0.843-0.004,1.64,0.126,2.148,0.919c-11.813,0.02-23.626,0.045-35.439,0.051C260.5,256.991,259.117,257.253,258.008,256.226z"/>
	<path fill-rule="evenodd" clip-rule="evenodd" fill="#373D4B" d="M269.115,297.07c-0.442-0.04-0.884-0.079-1.327-0.119
		c0.076-0.432,0.152-0.863,0.228-1.298c-0.037-0.216-0.038-0.43-0.001-0.644c1.103-0.66,0.996-1.735,0.958-2.787
		c0.683-0.089,1.366-0.177,2.049-0.266C271.219,293.972,270.645,295.699,269.115,297.07z"/>
	<path fill-rule="evenodd" clip-rule="evenodd" fill="#B8701D" d="M358.073,303.129c-0.112-0.424-0.226-0.848-0.341-1.271
		c8.542-0.001,17.087-0.001,25.632-0.001c0.001,0.445,0.003,0.891,0.004,1.336c-8.127,0-16.255,0-24.382,0l-0.45-0.124
		L358.073,303.129z"/>
	<path fill-rule="evenodd" clip-rule="evenodd" fill="#E9C569" d="M294.883,262.041c0.12,0.316,0.124,0.635,0.012,0.954
		c-0.637,0.004-1.273,0.007-1.909,0.011c-11.045,1.081-22.118,0.256-33.177,0.432c-2.92,0.046-5.925,0.656-8.789-0.539
		c0,0-0.049-0.306-0.049-0.303c6.191-1.337,12.458-0.422,18.686-0.55C278.062,261.874,286.474,262.027,294.883,262.041z"/>
	<path fill-rule="evenodd" clip-rule="evenodd" fill="#D3B566" d="M251.02,262.898c13.989,0.035,27.977,0.071,41.965,0.107
		c-0.673,0.907-1.651,0.988-2.662,0.987c-12.237-0.001-24.475-0.002-36.712-0.002C252.594,263.99,251.624,263.878,251.02,262.898z"
		/>
	<path fill-rule="evenodd" clip-rule="evenodd" fill="#D3B566" d="M315.032,263.97c1.48-1.614,3.427-0.929,5.168-0.939
		c14.26-0.088,28.521-0.098,42.78-0.133c-1.215,1.689-3.021,1.072-4.596,1.075C343.934,264.007,329.482,263.979,315.032,263.97z"/>
	<path fill-rule="evenodd" clip-rule="evenodd" fill="#1C2846" d="M283.844,279.94c0.083-1.642,0.235-3.247,2.079-3.964
		c0.441,0.038,0.882,0.076,1.325,0.115c-0.088,1.462-0.498,2.805-1.457,3.943C285.141,280.004,284.493,279.972,283.844,279.94z"/>
</g>
</svg>
