<?xml version="1.0" encoding="utf-8"?>
<!-- Generator: Adobe Illustrator 16.0.0, SVG Export Plug-In . SVG Version: 6.00 Build 0)  -->
<!DOCTYPE svg PUBLIC "-//W3C//DTD SVG 1.1//EN" "http://www.w3.org/Graphics/SVG/1.1/DTD/svg11.dtd">
<svg version="1.1" id="Layer_1" xmlns="http://www.w3.org/2000/svg" xmlns:xlink="http://www.w3.org/1999/xlink" x="0px" y="0px"
	 width="612px" height="630px" viewBox="0 0 612 630" enable-background="new 0 0 612 630" xml:space="preserve">
<g>
	<g>
		<path fill-rule="evenodd" clip-rule="evenodd" fill="#FEFEFE" d="M304,1053c-246,0-492-0.082-738,0.287
			c-10.271,0.018-12.292-2.016-12.284-12.287c0.325-492,0.325-984,0-1476c-0.007-10.269,2.011-12.29,12.284-12.284
			c492,0.325,984,0.325,1476,0c10.269-0.006,12.29,2.01,12.284,12.284c-0.325,492-0.325,984,0,1476
			c0.006,10.266-2.007,12.305-12.284,12.287C796,1052.918,550,1053,304,1053z"/>
		<path fill-rule="evenodd" clip-rule="evenodd" fill="#202D47" d="M560.828,306.712c-1.043,138.258-113.364,252.686-246.855,251.49
			C172.945,556.937,47.77,434.839,48.717,299.467C49.696,160.005,164.291,50.646,308.463,51.589
			C448.078,52.503,561.877,167.549,560.828,306.712z"/>
		<path fill-rule="evenodd" clip-rule="evenodd" fill="#B00401" d="M141.842,296.654c3.851-13.175,15.391-18.721,25.604-25.389
			c21.403-13.978,31.701-35.32,39.579-58.38c-0.828-1.33-0.526-2.312,0.907-2.947c1.329-1.784,2.657-3.565,3.987-5.35
			c0.867-4.887,3.65-8.599,7.232-11.827c6.163-8.312,12.52-16.395,23.027-19.605c6.583,3.565,1.935,7.556,0.243,11.177
			c-15.574,33.328-35.243,64.403-52.592,96.826c5.137-10.26,12.475-18.814,20.829-26.522c11.953-11.027,15.598-26.314,20.643-40.778
			c6.24-17.892,13.169-35.309,25.134-50.35c2.691-3.381,5.795-6.979,5.53-11.921c0.133-4.515,0.838-8.666,6.237-9.835
			c2.322-2.684,3.964-5.616,3.438-9.349c-2.014-1.626-0.999-3.27-0.051-4.925c2.391-2.965,4.282-6.272,6.347-9.475
			c3.749-3.627,7.047-8.212,13.389-6.442c8.461,3.255,5.933,9.706,3.101,14.596c-7.724,13.336-3.267,30.026-13.066,43.046
			c-3.48,4.626,3.069,11.979,7.418,11.599c15.069-1.307,10.386,9.756,7.623,13.939c-9.848,14.915-17.93,30.891-28.625,45.539
			c-14.521,19.887-37.014,31.436-48.403,53.183c-0.41,5.563-5.823,4.222-8.735,6.331c-5.937,2.235-11.874,4.471-17.811,6.709
			c-4.26,1.582-7.994-0.164-11.745-1.811c-8.958-2.733-17.943-2.147-26.955-0.202c-1.415,0.237-2.813,0.208-4.223,0
			C146.271,302.851,140.724,303.164,141.842,296.654z"/>
		<path fill-rule="evenodd" clip-rule="evenodd" fill="#EEE289" d="M291.323,111.563c-3.675,2.446-7.349,4.893-11.023,7.339
			c-8.017,4.084-16.633,2.147-24.974,2.224c-24.384,0.226-48.775,0.366-73.153-0.12c-5.7-0.114-13.562,2.657-15.63-6.747
			c66.992-43.972,138.833-53.487,215.169-29.953c21.524,6.633,40.717,18.199,59.746,29.956c-2.543,10.107-11.07,6.601-17.1,6.715
			c-34.32,0.645-68.653-0.138-102.98,0.527c-1.937,0.085-3.711-0.413-5.323-1.485C308.75,103.898,303.408,102.07,291.323,111.563z"
			/>
		<path fill-rule="evenodd" clip-rule="evenodd" fill="#AE0602" d="M304.4,341.229c-8.996-11.095-6.337-19.236,3.67-29.329
			c18.151-18.302,33.028-39.527,45.25-62.396c5.538-10.365,13.738-17.848,25.495-22.292c-15.909,26.25-31.817,52.497-47.728,78.747
			c0.618,0.557,1.236,1.116,1.854,1.673c6.87-7.585,13.723-15.188,20.622-22.746c2.301-2.522,4.685-7.037,7.096-7.078
			c27.482-0.495,34.52-24.779,48.535-40.893c1.278-1.471,2.379-3.126,3.816-4.409c0.551-0.492,1.815-0.19,4.455-0.357
			c-2.701,14.309,7.391,28.922-3.395,42.647c-5.42,6.896-12.129,12.246-21.133,12.8c-19.785,1.222-32.689,12.478-42.379,28.359
			c-3.854,6.319-8.372,10.746-15.986,11.974c-13.269,2.145-14.682,16.497-23.417,23.388
			C307.277,349.043,306.236,344.868,304.4,341.229z"/>
		<path fill-rule="evenodd" clip-rule="evenodd" fill="#0BC1EC" d="M367.295,410.435c1.879,0.63,4.506,0.683,5.512,1.986
			c5.41,7.008,19.471,7.521,17.051,20.013c-2.359,12.176-13.468,7.342-21.152,8.429c-5.156,0.727-7.395,4.641-10.689,7.491
			c-4.659,1.913-9.265,3.873-8.597,10.254c-4.822,6.393-12.58,11.493-9.417,21.401c3.106,3.387,3.379,7.11,1.326,11.104
			c-7.542,2.426-7.316-4.146-8.408-8.001c-1.19-4.207-0.316-8.845-0.326-10.966c0.162,4.529-1.229,11.458,2.541,18.032
			c1.928,3.363,6.684,8.232,0.17,11.065c-5.563,2.42-10.765,0.422-12.268-6.595c-0.051-4.104,0.748-8.259-0.533-12.334
			c-2.139-11.165-0.776-21.006,9.609-27.296c-2.861-0.387-3.858,2.991-5.971,4.661c-4.354,2.027-4.673,7.887-9.223,9.75
			c-2.698-0.132-4.772-1.066-5.328-4.04c-0.277-1.491,0.187-3.012-0.211-4.497c2.402,6.551-7.101-0.193-6.37,5.944
			c0.605,5.083,0.437,11.171-5.975,13.849c-5.325-2.364-3.154-7.664-4.408-11.391c-6.277-1.274-5.112,8.511-11.317,7.356
			c-6.933-18.299,3.7-41.262,25.937-55.629c2.896-1.872,6.258-3.023,9.404-4.506c7.376-3.044,12.362,0.94,16.843,5.921
			c5.438,6.041-1.627,9.519-2.789,12.519c3.559-4.277,11.341-4.925,15.246-12.352c3.93-7.477,5.703,0.434,7.037,3.618
			c2.188-6.24-8.165-8.215-5.915-14.944c1.975-0.164,3.949-0.328,5.923-0.492C359.094,410.619,363.376,416.906,367.295,410.435z"/>
		<path fill-rule="evenodd" clip-rule="evenodd" fill="#DFC36D" d="M316.056,120.018c0.894-0.026,1.787-0.041,2.681-0.041
			c38.293,0.076,76.586,0.032,114.879,0.012c5.963-0.003,11.961-0.501,17.518,2.376c3.803,3.149,7.605,6.299,14.469,11.982
			c-48.643,0-93.859,0-142.146,0c7.254,6.252,12.587,4.441,17.369,4.459c39.41,0.164,78.824,0.302,118.23-0.082
			c8.759-0.088,15.386,1.805,20.882,12.161c-9.674,0-17.808,0-25.942,0c-37.913,0-75.829-0.135-113.739,0.202
			c-3.891,0.032-10.704-4.011-11.501,4.72c-0.768,1.178-1.605,1.289-2.523,0.167C322.57,144.064,317.373,132.589,316.056,120.018z"
			/>
		<path fill-rule="evenodd" clip-rule="evenodd" fill="#176888" d="M181.507,302.684c3.773,1.274,7.548,2.546,11.32,3.82
			c5.09,1.869,10.182,3.738,15.275,5.607c-0.841,8.798-8.525,8.209-14.178,10.04c-11.591,3.759-24.144,4.758-34.286,12.223
			c4.998-1.222,10.384-9.639,14.684-3.36c3.439,5.019-5.254,8.162-8.521,12.158c-1.279,1.564-2.25,3.234-2.689,5.194
			c-0.166,1.969-0.309,3.938-0.667,5.88c-0.311,1.304-0.85,2.511-1.54,3.653c-3.691,3.647-6.321,8.657-12.16,9.583
			c-12.71,24.375-27.368,48.021-28.816,78.709c-4.194-5.613-7.482-10.014-10.771-14.417c0.902-10.696-4.343-21.7,1.595-32.136
			c1.211-1.271,2.673-1.635,4.345-1.099c3.193,7.854,0.391,16.075,1.542,24.079c-0.744-10.831,0.546-21.58,1.102-32.353
			c1.821-9.841,7.008-17.473,15.246-23.08c-0.691-4.072,11.32-7.772,0.262-12.064c-3.601-1.966-7.206-0.105-10.802-0.026
			c-4.708-2.886-5.741,4.392-9.721,3.533c-1.352-0.035-2.483-0.557-3.394-1.553c-0.4-4.866,1.153-8.769,5.561-11.262
			c4.345-5.546,10.931-6.814,17.048-8.997c1.156-0.656,2.335-1.245,3.507-1.863c8.077-6.829,19.452-7.374,27.302-14.479
			c-0.516-1.705-0.896-3.393-0.212-5.083c5.448-4.257-8.307-6.832-1.012-11.285C168.177,303.381,174.621,299.883,181.507,302.684z"
			/>
		<path fill-rule="evenodd" clip-rule="evenodd" fill="#0CBAE4" d="M160.091,348.199c-1.86-10.403,9.885-9.712,13.534-17.326
			c-9.971,0.337-14.591,9.785-23.203,11.18c8.127-11.417,20.505-16.163,32.956-20.821c8.227-3.079,17.854-2.367,24.725-9.12
			c14.893-10.251,52.986-13.887,66.094-6.305c-0.485,0.524-0.97,1.049-1.45,1.579c-4.374,2.933-9.05-0.996-13.894,0.536
			c19.737,2.572,23.946,6.234,26.83,23.057c-2.795,9.466-9.337,5.886-14.262,3.281c-19.201-10.146-38.938-10.901-59.329-4.808
			c-14.484,3.141-28.743,6.785-41.139,15.58C167.856,347.229,164.474,349.793,160.091,348.199z"/>
		<path fill-rule="evenodd" clip-rule="evenodd" fill="#CFAB59" d="M326.23,155.974c0.83-0.185,1.67-0.24,2.521-0.167
			c48.785,0.138,97.565,0.331,146.348,0.357c7.673,0.003,15.009-0.17,17.379,11.423c-23.813,0-46.957,0-70.1,0
			c-22.402,0-44.807-0.135-67.205,0.19c-2.604,0.038-11.432-3.492-5.931,5.856c3.997,3.229,6.732,6.765,2.929,11.912
			C344.088,175.192,339.578,161.707,326.23,155.974z"/>
		<path fill-rule="evenodd" clip-rule="evenodd" fill="#AF7F3A" d="M354.713,191.282c33.281-3.217,66.643-0.656,99.961-1.365
			c14.968-0.319,29.947-0.067,44.921-0.038c5.584,0.009,13.066,0.015,12.911,6.773c-0.167,7.327-7.901,3.656-12.064,3.694
			c-46.406,0.439-92.814,0.486-139.222,0.639C357.518,198.779,357.355,194.2,354.713,191.282z"/>
		<path fill-rule="evenodd" clip-rule="evenodd" fill="#CDA957" d="M231.6,173.197c5.186-8.959-3.416-5.37-5.622-5.391
			c-31.83-0.29-63.665-0.129-95.496-0.272c-4.74-0.023-9.737,1.359-14.679-1.459c1.989-9.867,9.182-9.908,16.896-9.938
			c41.758-0.158,83.515-0.527,125.273-0.823c1.441,0.366,2.287,1.304,2.622,2.73c-2.704,9.439-11.632,10.67-18.784,14.25
			c-3.715,1.09-5.13,7.318-10.499,4.708C230.572,175.673,230.668,174.404,231.6,173.197z"/>
		<path fill-rule="evenodd" clip-rule="evenodd" fill="#D2B565" d="M268.201,141.753c-0.995,2.616-1.991,5.229-2.987,7.843
			c-2.628,1.767-0.636,7.245-5.678,7.072c-0.438-0.545-0.958-0.996-1.562-1.354c-1.84-7.916-8.215-4.049-12.305-4.093
			c-33.986-0.352-67.978-0.117-101.966-0.296c-4.701-0.026-9.788,1.696-14.76-1.881c3.554-5.827,7.213-10.453,14.9-10.424
			c39.986,0.149,79.973,0.108,119.96,0.073C266.151,138.694,267.439,139.726,268.201,141.753z"/>
		<path fill-rule="evenodd" clip-rule="evenodd" fill="#0BC3EE" d="M145.431,441.284c-1.523,8.754-3.045,17.505-4.718,27.12
			c-8.827-3.938-11.634-10.421-9.107-19.717c5.739-21.12,13.22-41.771,23.525-60.905c8.893-16.509,25.321-24.478,43.582-28.081
			c2.328-1.236,6.48,0.117,5.959,0.7c-5.824,6.533,0.678,2.763,1.909,2.265c9.267-3.747,17.339-0.287,24.851,4.503
			c2.972,1.896,6.749,5.309,1.235,9.123c-31.419-9.53-53.486,4.377-71.438,28.556c-4.862,6.548-6.346,14.493-8.836,21.996
			C150.687,431.988,150.254,437.669,145.431,441.284z"/>
		<path fill-rule="evenodd" clip-rule="evenodd" fill="#E2C972" d="M273.202,129.012c-0.521,1.148-1.043,2.3-1.564,3.422
			c-1.068,0.902-2.134,2.643-3.207,2.646c-40.707,0.138-81.413,0.117-126.382,0.117c7.024-6.064,10.926-9.434,14.829-12.803
			c6.032-3.208,12.576-2.382,19.008-2.379c28.849,0.015,57.699-0.214,86.543,0.179C267.603,120.267,276.375,117.894,273.202,129.012
			z"/>
		<path fill-rule="evenodd" clip-rule="evenodd" fill="#0E8BC7" d="M243.927,524.95c0.157,2.323,5.832,6.976-2.137,5.936
			c-7.223-0.943-11.965-6.185-16.559-11.332c-10.721-5.341-20.72-11.37-23.2-24.513c-1.295-4.872-2.591-9.744-3.888-14.616
			c0.804-2.54,1.141-5.355,3.948-6.718c5.921-4.512-2.197-7.702-1.109-11.76c1.63-6.791,1.409-13.438-0.5-20.241
			c-1.323-4.714-3.863-10.576,4.247-12.366c0.74,2.859-0.693,6.56,3.166,8.221c9.163,8.426,10.383,20.499,13.995,31.371
			c1.356,4.081,1.74,8.563,3.655,12.557c1.472,8.355,11.757,10.289,13.493,18.448c-0.292,2.021-1.424,3.557-2.824,4.913
			C232.354,514.022,243.795,517.33,243.927,524.95z"/>
		<path fill-rule="evenodd" clip-rule="evenodd" fill="#0BC3EE" d="M231.99,360c-22.661-13.395-44.372-6.703-65.934,3.12
			c-3.398,0.902-3.814-1.204-3.8-3.759c8.628-12.785,22.288-15.519,36.048-18.07c4.459-0.141,8.895-0.521,13.225-1.755
			c8.687-1.216,16.141,2.73,23.849,5.646c22.121,15.36,40.897,33.196,42.182,62.429c0.299,6.823,4.077,12.129,5.21,18.416
			c-1.62,3.905-5.533,4.869-8.704,6.785c-13.666,1.802-12.501-8.628-12.798-16.562c-0.545-14.525-0.56-28.939-11.638-40.295
			C244.675,369.627,236.389,366.952,231.99,360z"/>
		<path fill-rule="evenodd" clip-rule="evenodd" fill="#C9933D" d="M364.179,207.425c45.937,0.126,91.872,0.249,137.807,0.372
			c2.997,0.009,5.994,0.012,8.988-0.009c3.565-0.023,8.188-0.035,8.317,4.21c0.161,5.329-5.083,3.495-8.077,3.516
			c-24.97,0.17-49.948-0.302-74.906,0.243c-15.446,0.337-30.864,5.824-46.066-2.593c-5.521-3.056-9.409,4.588-14.766,5.455
			C368.333,218.294,364.747,214.383,364.179,207.425z"/>
		<path fill-rule="evenodd" clip-rule="evenodd" fill="#CD9E49" d="M352.172,185.546c-0.978-3.973-1.955-7.942-2.93-11.912
			c45.984,0.029,91.967,0.015,137.951,0.132c6.58,0.018,14.66-2.142,16.178,9.563c-44.801,0-89.223-0.035-133.644,0.047
			C363.824,183.384,357.681,182.089,352.172,185.546z"/>
		<path fill-rule="evenodd" clip-rule="evenodd" fill="#08ABF4" d="M220.412,437.777c-1.417-8.742-5.514-17.209-2.81-26.388
			c23.996,74.821,81.354,104.188,153.779,113.036c3.451,0.422,7.617-0.659,10.23,0.946c2.203,1.356-1.413,2.37-2.714,3.325
			c-48.563,8.203-87.825-13.116-125.49-39.507c-4.629-3.779-10.047-6.63-13.818-11.455
			C233.23,464.408,221.623,453.583,220.412,437.777z"/>
		<path fill-rule="evenodd" clip-rule="evenodd" fill="#16638E" d="M339.947,491.941c0.018-3.979,0.035-7.957,0.055-11.933
			c3.967-3.782,7.746-10.541,11.936-10.805c15.148-0.955,3.766-26.59,23.17-21.885c-7.319,18.053,0.4,31.321,16.092,41.411
			c0.079,2.666,2.13,4.479,2.985,6.826c1.089,5.508,0.325,9.586-6.779,8.73c-4.044-6.48-9.194-10.26-17.511-10.576
			c-6.473-0.249-6.899,3.568-8.171,7.638c-1.878,2.224-4.308,3.425-7.136,3.905C347.998,502.708,338.444,503.396,339.947,491.941z"
			/>
		<path fill-rule="evenodd" clip-rule="evenodd" fill="#0DB6DE" d="M210.978,326.575c20.528-8.361,40.395-6.899,60.139,3.064
			c3.129,1.579,8.577,10.939,12.136-0.322c2.669-6.691-1.57-10.849-5.552-15.085c-2.202-2.344-5.959-3.976-3.661-8.294
			c0,0,0.152-0.129,0.154-0.132c15.141,5.979,22.235,26.077,16.964,48.059c-7.374,2.572-13.622-0.123-19.296-4.482
			c-4.834-3.715-10.087-6.179-16.119-7.017c-16.368-8.206-34.553-3.085-51.479-7.005c-3.034-5.73-3.035-5.736,5.266-6.814
			c0.46-0.059,1.077,0.346,1.405,0.158C212.113,328.031,212.084,327.246,210.978,326.575z"/>
		<path fill-rule="evenodd" clip-rule="evenodd" fill="#CD9E49" d="M231.6,173.197c0.12,1.102,0.24,2.203,0.362,3.305
			c-2.001,5.405-6.662,8.771-10.042,13.122c-0.68-0.193-1.359-0.39-2.039-0.586c-0.943-9.129-8.079-5.505-12.634-5.555
			c-33.309-0.366-66.624-0.313-99.938-0.419c-0.463-0.003-0.923-0.337-2.077-0.788c0.514-10.157,8.187-8.484,14.506-8.525
			C157.025,173.514,194.313,173.373,231.6,173.197z"/>
		<path fill-rule="evenodd" clip-rule="evenodd" fill="#0CB9E2" d="M400.642,470.906c2.446-21.073,16.213-34.796,36.662-36.275
			c6.176-0.445,13.134,0.53,14.804,7.046c1.742,6.8-6.688,5.646-10.046,8.707c-3.762,7.444-3.487,16.298-8.167,23.429
			c-5.998-0.334-11.432-6.434-17.629,3.425C411.886,484.204,405.115,475.55,400.642,470.906z"/>
		<path fill-rule="evenodd" clip-rule="evenodd" fill="#BA8639" d="M220.067,196.591c-2.719,2.663-5.438,5.326-8.153,7.992
			c-1.583-6.645-6.694-4.198-10.853-4.198c-31.387,0.003-62.777,0.117-94.163-0.129c-3.936-0.029-10.843,2.722-11.303-3.103
			c-0.521-6.592,6.445-6.012,11.319-6.018c32.883-0.041,65.766-0.129,98.647,0.138c5.029,0.041,9.76-0.097,14.323-2.235
			c-0.003,0,0.085,0.018,0.085,0.018C222.076,191.54,221.144,194.065,220.067,196.591z"/>
		<path fill-rule="evenodd" clip-rule="evenodd" fill="#CC8F37" d="M207.931,209.938c-0.311,0.984-0.621,1.969-0.92,2.95
			c-10.395,5.265-21.538,2.385-32.312,2.566c-26.391,0.454-52.794,0.176-79.192,0.085c-2.708-0.009-6.665,0.976-7.018-3.243
			c-0.34-4.066,3.271-4.488,6.264-4.406C132.473,208.919,170.277,205.348,207.931,209.938z"/>
		<path fill-rule="evenodd" clip-rule="evenodd" fill="#156895" d="M220.412,437.777c5.71,13.852,17.581,24.39,21.189,39.372
			c1.872,6.437,12.62,8.045,9.398,17.253c-6.538,5.443-9.154-6.601-15.224-3.354c-7.811,3.05-8.979-4.526-12.778-7.904
			c-5.033-15.193-10.068-30.387-15.103-45.583c0.146-7.242,0.003-14.476-2.725-23.063c7.743,3.293,4.216,8.912,6.239,12.082
			C213.962,430.582,210.364,439.837,220.412,437.777z"/>
		<path fill-rule="evenodd" clip-rule="evenodd" fill="#0BC2EB" d="M232.141,398.859c-8.534-10.143-18.601-7.731-28.453-2.921
			c-19.188,9.372-26.543,26.414-27.785,46.406c-0.611,9.85-2.591,18.234-9.482,25.854c-2.848,3.149-10.241,7.802-2.771,14.145
			c0.656,0.56,0.526,2.933-0.097,3.926c-1.519,2.42-2.902,0.557-4.651-0.346c-10.052-5.186-5.092-13.116-1.192-17.364
			c10.709-11.666,11.499-25.989,14.18-40.131c3.728-19.655,16.542-32.766,33.598-41.461c12.858-6.557,22.834-1.969,30.189,11.859
			C234.511,400.333,233.333,400.345,232.141,398.859z"/>
		<path fill-rule="evenodd" clip-rule="evenodd" fill="#156A95" d="M442.023,453.138c7.652,8.663,13.787,19.45,27.961,18.398
			c-8.555,15.756-24.141,17.839-37.676,22.831c-5.824,2.15-13.008,1.887-17.486-4.676c-0.918-8.279,7.176-11.76,10.633-9.797
			c10.879,6.176,6.359-4.611,9.16-6.952C436.795,466.233,437.825,459.091,442.023,453.138z"/>
		<path fill-rule="evenodd" clip-rule="evenodd" fill="#0CC0E8" d="M291.575,417.073c-2.08,1.67-4.159,3.337-6.239,5.007
			c-10.179-0.053-10.537-7.506-9.621-14.309c2.145-15.929-7.827-29.051-9.729-44.259c-1.065-8.517-13.794-13.28-23.001-17.253
			c-5.027-2.171-10.362-3.39-15.8-4.181c-5.38-0.583-10.698-1.488-16.014-2.449c-1.66-6.258,3.192-4.831,6.208-5.027
			c33.432-2.188,58.09,10.506,71.395,42.325c7.107,11.517,9.337,23.874,6.299,37.119l0.026,0.114
			c-9.079,2.871-11.042-4.008-12.91-10.008c-1.566-5.03-0.388-10.368-0.16-15.557C280.303,405.706,280.71,407.007,291.575,417.073z"
			/>
		<path fill-rule="evenodd" clip-rule="evenodd" fill="#0BC4EE" d="M237.436,390.779c-13.375-15.032-40.276-13.383-57.437,4.061
			c-11.908,12.105-19.458,27.146-26.336,42.492c-6.472,0.425-4.081-4.166-3.667-7.034c3.804-26.332,28.506-52.729,54.527-58.992
			c9.475-2.279,17.603,0.463,25.553,4.989c7.891,1.061,17.426,0.234,15.11,13.093c-0.888,1.225-2.07,2.021-3.536,2.396
			C240.164,391.802,238.759,391.468,237.436,390.779z"/>
		<path fill-rule="evenodd" clip-rule="evenodd" fill="#186384" d="M228.893,339.56c17.363,1.031,35.345,8.042,40.874,22.494
			c4.594,12.009,9.781,27.023,7.11,41.883c-1.364,7.594-0.91,15.164,8.459,18.144c-0.855,1.315-1.711,2.631-2.566,3.946
			c-6.01-2.892-8.66-7.617-8.597-14.329c0.277-29.429-18.596-47.083-39.366-63.519C233.649,344.745,227.308,344.871,228.893,339.56z
			"/>
		<path fill-rule="evenodd" clip-rule="evenodd" fill="#08AAF3" d="M250.321,494.83c-0.067-7.298-9.872-9.788-8.723-17.684
			c3.891,2.44,8.801,3.439,11.203,7.966c29.049,26.42,63.401,40.62,102.27,44.493c2.418,0.24,6.664-1.219,5.244,4.137
			c-7.514,0.797-14.752,4.005-22.521,2.575c-31.179-0.182-57.34-13.395-81.51-31.594
			C253.146,502.359,250.502,499.213,250.321,494.83z"/>
		<path fill-rule="evenodd" clip-rule="evenodd" fill="#10A1C7" d="M324.477,482.944c4.236,2.886,4.982,5.903,0.34,9.12
			c-4.861,5.862,0.979,9.85,2.555,14.584c-9.342,5.572-14.621-1.266-20.371-6.668c-6.083-5.426-11.514-11.124-8.448-20.35
			c3.275-2.59,1.844-6.381,2.525-9.653c2.328-11.171,6.892-11.733,17.854-2.306c4.281,3.155,2.293,8.139,3.553,12.173
			C323.016,480.961,323.686,481.992,324.477,482.944z"/>
		<path fill-rule="evenodd" clip-rule="evenodd" fill="#565953" d="M451.133,122.364c-40.986,0.146-81.974,0.316-122.96,0.387
			c-3.319,0.006-7.147,1.025-9.437-2.774c11.453-4.816,23.426-1.72,35.118-1.986c24.835-0.568,49.692-0.006,74.536-0.328
			c4.378-0.056,10.137,3.018,13.068-3.401C446.006,115.383,448.36,119.127,451.133,122.364z"/>
		<path fill-rule="evenodd" clip-rule="evenodd" fill="#565952" d="M273.202,129.012c0.738-10.5-7.399-5.889-11.443-5.95
			c-34.957-0.527-69.92-0.519-104.881-0.668c2.742-3.281,5.117-6.999,9.667-8.136c3.458,6.729,9.664,3.287,14.47,3.387
			c33.089,0.694,66.188,0.899,99.286,1.26C278.286,122.517,278.422,127.644,273.202,129.012z"/>
		<path fill-rule="evenodd" clip-rule="evenodd" fill="#0AA3E9" d="M222.997,483.144c4.789,0.199,5.099,9.853,11.963,5.666
			c8.101-0.287,11.433,7.04,16.493,11.08c20.001,15.976,42.208,26.865,67.025,32.845c3.568,0.861,9.448,0.1,8.77,6.905
			c-10.536,0.694-20.896,0.231-30.558-4.726c-5.807,3.601-10.771,0.844-15.737-2.039c-10.799-5.965-21.696-11.771-31.664-19.107
			c-4.723-3.478-10.192-6.331-11.224-13.005C234.556,493.594,223.63,492.771,222.997,483.144z"/>
		<path fill-rule="evenodd" clip-rule="evenodd" fill="#B37122" d="M190.015,237.053c-1.289-8.868-8.319-5.379-12.946-5.432
			c-27.335-0.322-54.677-0.047-82.014-0.27c-4.506-0.035-9.628,1.986-16.655-4.928c41.58,0,80.181,0,118.966,0
			c-0.563,2.895-3.64,6.92-7.417,10.564L190.015,237.053z"/>
		<path fill-rule="evenodd" clip-rule="evenodd" fill="#1275A9" d="M202.031,495.041c7.74,8.186,15.479,16.368,23.21,24.533
			c-0.444,7.954-5.933,4.518-7.938,2.396c-8.385-8.874-20.919-9.785-30.836-16.729c-10.868-7.611-11.927-15.416-15.516-28.254
			C179.753,490.315,189.994,494.423,202.031,495.041z"/>
		<path fill-rule="evenodd" clip-rule="evenodd" fill="#1D2A47" d="M249.858,458.174c-4.468-2.332-5.903-6.709-7.44-11.019
			c-7.91-7.482-10.425-17.757-14-27.434c-1.31-3.545-1.471-7.189,4.389-5.587c0.794,0.34,1.471,0.838,2.03,1.5
			c9.201,5.358,9.041,15.495,12.218,23.921c6.019,5.32,11.651,11.754,21.073,7.389l-0.246,0.097
			c3.746,4.072,6.661,25.195,3.801,28.608c-2.849,3.401-5.279,0.762-7.273-1.096C259.056,469.562,253.398,464.795,249.858,458.174z"
			/>
		<path fill-rule="evenodd" clip-rule="evenodd" fill="#C1781E" d="M189.949,236.988c-1.494,7.154-5.26,11.531-13.182,11.49
			c-31.907-0.164-63.814-0.199-95.72-0.384c-1.242-0.006-2.48-1.04-4.79-2.074c3.677-4.887,8.421-3.267,12.253-3.29
			c26.426-0.17,52.854-0.311,79.276,0.067c8.147,0.117,15.659-0.545,22.229-5.745L189.949,236.988z"/>
		<path fill-rule="evenodd" clip-rule="evenodd" fill="#1B4868" d="M388.073,504.064c5.716-1.983,4.458-6.006,2.954-10.102
			c10.285-1.447,18.795,9.645,29.646,4.195c3.961,0.583,10.389-2.766,10.725,3.973c0.232,4.623-5.403,4.931-9.452,4.948
			c-4.536,0.018-6.469,2.104-9.835,5.654c-6.719,7.09-17.197,9.439-27.284,3.879c-1.975-4.154-9.337-6.36-5.314-12.568
			C381.656,500.733,385.207,501.393,388.073,504.064z"/>
		<path fill-rule="evenodd" clip-rule="evenodd" fill="#08A9F2" d="M284.682,531.085c3.122,4.049,8.177,2.045,12.013,3.835
			c-12.989,9.554-25.134,1.236-37.408-1.975c-5.594-1.465-8.999-7.661-15.36-7.995c-8.284-3.018-11.227-11.438-15.081-17.701
			c-3.954-6.422,2.678-4.383,6.17-3.258c10.422,2.238,16.701,11.188,25.674,15.976C268.533,524.147,276.104,528.601,284.682,531.085
			z"/>
		<path fill-rule="evenodd" clip-rule="evenodd" fill="#1C3E5C" d="M327.371,506.648c-3.47-4.403-13.484-7.661-2.553-14.584
			c-0.779,9.486,5.553,7.863,11.703,7.16c-5.305-10.014-8.12-20.364-3.931-35.048c2.091,11.502-0.099,21.27,7.356,27.765
			c1.578,7.318,9.372,7.775,13.526,12.252c7.151,0.188,13.23,3.234,19.002,7.122c0.702,0.735,1.043,1.547,1.036,2.429
			c-0.008,0.917-0.099,1.374-0.273,1.374c-12.663,3.035-24.827,1.327-36.631-3.841C333.446,509.895,332.737,503.622,327.371,506.648
			z"/>
		<path fill-rule="evenodd" clip-rule="evenodd" fill="#86A2AB" d="M304.4,341.229c3.986,2.197,4.77,6.539,6.754,10.084
			c4.656,17.511,7.008,35.139,2.429,54.337c22.934-3.363,45.697-17.534,68.162-0.583c-1.254,0.973-2.578,1.081-3.973,0.328
			c-25.319-9.211-48.387,1.017-73.992,9.302C317.79,389.285,309.551,365.291,304.4,341.229z"/>
		<path fill-rule="evenodd" clip-rule="evenodd" fill="#1C3D5C" d="M360.314,533.742c-13.885-2.848-28.113-4.594-41.582-8.78
			c-25.092-7.796-49.353-17.654-65.932-39.847c28.104,19.336,57.691,35.156,91.848,41.285c11.443,2.054,22.85,1.392,34.249,2.297
			C372.703,530.379,366.51,532.061,360.314,533.742z"/>
		<path fill-rule="evenodd" clip-rule="evenodd" fill="#128FB3" d="M244.016,389.997c0.284-8.3-6.007-9.938-12.016-11.865
			c-1.056-0.624-1.427-1.277-1.113-1.963c0.321-0.694,0.649-1.046,0.989-1.046c-2.542-12.475-14.276-10.292-21.444-10.444
			c-5.785-0.12-7.835-3.53-11.719-4.978c11.147-6.088,22.195-0.905,33.277,0.299c7.204,2.036,13.285,5.804,17.999,11.681
			c3.495,7.008,12.792,14.616-2.038,19.752C246.476,391.412,245.172,390.905,244.016,389.997z"/>
		<path fill-rule="evenodd" clip-rule="evenodd" fill="#BA7420" d="M73.075,260.353c32.609,0,65.218,0,97.827,0
			c0.035,1.022,0.072,2.045,0.108,3.07c-32.552,0-65.104,0-97.654,0C73.262,262.397,73.168,261.375,73.075,260.353z"/>
		<path fill-rule="evenodd" clip-rule="evenodd" fill="#B27020" d="M423.49,227.186c29.528-4.834,59.259-0.888,88.881-1.916
			c4.775-0.164,11.112-2.968,14.839,4.972c-27.829,3.896-55.532-2.086-82.641,3.372C437.033,233.142,428.837,234.832,423.49,227.186
			z"/>
		<path fill-rule="evenodd" clip-rule="evenodd" fill="#1A506F" d="M231.875,375.123c0.041,1.005,0.083,2.007,0.125,3.009
			c-34.884-20.684-80.089,24.829-80.229,57.167c-0.003,0.674,1.235,1.356,1.893,2.033c-1.25,8.18-3.621,16.181-2.14,27.68
			c-6.375-9.378-0.734-17.692-6.092-23.728c3.306-31.726,18.561-55.219,48.059-68.367
			C206.397,367.163,219.531,366.58,231.875,375.123z"/>
		<path fill-rule="evenodd" clip-rule="evenodd" fill="#147DA0" d="M349.073,411.278c5.159,5.941,11.101,11.572,8.479,21.117
			c-5.32-1.646-4.646-6.908-8.722-14.827c4.414,23.253-18.469,12.293-20.387,25.626c7.188-20.883,7.188-20.883-9.791-26.678
			C327.988,410.095,338.557,410.848,349.073,411.278z"/>
		<path fill-rule="evenodd" clip-rule="evenodd" fill="#167395" d="M109.334,357.076c1.119,0.018,2.24,0.035,3.359,0.056
			c3.69,8.229-3.434,12.932-5.899,19.087c2.572-1.025,3.179-5.681,7.277-4.749c3.886,2.59,3.713,6.401,3.163,10.345
			c-3.334,11.071-8.875,21.65-6.91,33.864c0.488,3.026-0.984,5.681-4.037,7.063c-13.808-8.388-9.863-21.914-8.632-33.744
			C98.828,377.725,102.303,366.565,109.334,357.076z"/>
		<path fill-rule="evenodd" clip-rule="evenodd" fill="#1B4668" d="M327.248,539.64c-4.475-5.707-11.43-5.13-17.462-6.829
			c-28.8-8.121-53.253-23.602-74.824-43.998c-0.731-2.112-1.46-4.222-2.95-8.525c7.305,5.804,12.807,10.175,18.308,14.546
			c24.236,24.205,55.425,33.747,87.472,41.484C334.438,537.929,331.365,540.439,327.248,539.64z"/>
		<path fill-rule="evenodd" clip-rule="evenodd" fill="#107FB8" d="M373.238,515.118c-0.054-0.659-0.217-1.292-0.49-1.896
			c-2.09-5.426-11.059-3.073-11.598-10.254c-0.164-5.206-5.791-12.809,1.879-14.93c11.773-3.252,22.416,4.682,25.044,16.025
			c-19.058-0.472,3.171,9.744-3.246,12.545C380.965,516.114,377.102,515.616,373.238,515.118z"/>
		<path fill-rule="evenodd" clip-rule="evenodd" fill="#BB701B" d="M454.629,258.404c26.811,0,53.623,0,80.436,0
			c-0.029,1.963-0.056,3.926-0.082,5.889c-25.951,0-51.902,0-77.855,0C454.568,263.063,452.469,261.636,454.629,258.404z"/>
		<path fill-rule="evenodd" clip-rule="evenodd" fill="#C17419" d="M450.953,242.88c26.575,0,53.153,0,79.731,0
			c0.018,2.024,0.035,4.046,0.053,6.07c-25.796,0-51.595,0-77.394,0C448.436,248.546,449.053,245.965,450.953,242.88z"/>
		<path fill-rule="evenodd" clip-rule="evenodd" fill="#1294B8" d="M435.973,474.319c-2.613,3.258,2.82,15.53-9.819,8.033
			c-3.31-1.963-8.313,3.483-11.331,7.336c-6.346-5.039-13.7-9.313-14.181-18.782c6.785,1.793,11.854,7.896,18.943-3.721
			c8.056-13.201,8.524,4.503,13.298,6.829C434.09,472.321,435.119,472.424,435.973,474.319z"/>
		<path fill-rule="evenodd" clip-rule="evenodd" fill="#0CBEE6" d="M257.695,339.533c13.418-0.501,20.391,14.042,33.466,14.332
			c4.472,6.009,12.255,9.516,13.55,17.924c-1.594,5.988,2.574,12.349-0.918,18.932c-8.596-2.648-9.35-11.162-13.923-16.354
			C280.634,361.38,268.88,350.719,257.695,339.533z"/>
		<path fill-rule="evenodd" clip-rule="evenodd" fill="#157D9F" d="M298.552,479.631c2.815,6.791,5.631,13.579,8.448,20.358
			c-12.807,0.938-18.926-5.086-23.689-23.338c2.467-6.091,5.883-11.168,14.108-12.032
			C297.779,469.392,298.166,474.513,298.552,479.631z"/>
		<path fill-rule="evenodd" clip-rule="evenodd" fill="#AA732C" d="M466.384,273.888c17.139,4.731,34.626,1.096,51.92,2.127
			c6.029,0.357,12.1,0.056,18.126,1.945c-12.791,4.948-25.963,2.563-38.889,3.463c-7.822,0.545-15.876-1.916-23.476,1.966
			c-6.035,3.082-5.695-3.442-8.168-5.728C464.322,276.179,464.484,274.922,466.384,273.888z"/>
		<path fill-rule="evenodd" clip-rule="evenodd" fill="#166D8F" d="M292.145,371.827c3.437,5.353,6.873,10.708,10.603,16.518
			c2.776-5.499-3.996-11.918,1.961-16.556c7.766,16.591-4.947,28.509-9.636,42.258c-2.029-12.041-3.041-24.346-9.173-35.323
			C282.593,371.546,286.492,370.893,292.145,371.827z"/>
		<path fill-rule="evenodd" clip-rule="evenodd" fill="#1B4E6C" d="M246.694,390.205c12.237-4.192,3.19-12.173,3.294-18.524
			c14.254,10.813,15.718,26.15,15.538,42.381c-0.081,7.216-3.514,16.743,8.54,18.75c-1.452,2.517-3.223,4.632-6.349,5.039
			c-5.254-3.296-9.387-7.438-8.593-14.209c1.352-11.517-1.112-21.229-11.471-27.958
			C246.048,394.644,246.181,392.194,246.694,390.205z"/>
		<path fill-rule="evenodd" clip-rule="evenodd" fill="#8BA7B1" d="M397.442,447.82c6.935-6.363,13.073-13.825,22.722-16.441
			c1.664-0.346,2.169,0.264,1.514,1.834c-25.801,18.237-29.092,25.462-22.607,49.638c-19.928-5.754-25.338-16.485-16.147-32.021
			c3.305,3.495,2.093,8.47,4.161,12.691C390.137,457.866,390.815,450.826,397.442,447.82z"/>
		<path fill-rule="evenodd" clip-rule="evenodd" fill="#175F88" d="M204.729,429.34c-6.066,5.563-1.16,11.194,0.514,16.283
			c2.235,6.8,2.855,12.337-4.254,16.324c-6.193-17.136-10.25-34.269-0.044-52.547C202.353,416.821,203.541,423.079,204.729,429.34z"
			/>
		<path fill-rule="evenodd" clip-rule="evenodd" fill="#8A5D2B" d="M138.593,279.68c-20.401,4.333-40.723,1.113-61.087,1.963
			c-0.032-1.755-0.066-3.513-0.098-5.268c21.697,0,43.395,0,65.09,0C142.546,279.073,141.357,280.307,138.593,279.68z"/>
		<path fill-rule="evenodd" clip-rule="evenodd" fill="#8BABB3" d="M210.637,299.795c2.914-2.112,5.826-4.222,8.736-6.331
			c9.712,2.713,18.776,2.314,28.677-1.371c15.292-5.692,34.75,2.3,44.773,17.912c-17.788-13.761-34.299-19.975-54.741-10.942
			C230.337,302.484,219.865,299.73,210.637,299.795z"/>
		<path fill-rule="evenodd" clip-rule="evenodd" fill="#8DAAB3" d="M249.858,458.174c7.576,4.409,11.297,13.389,21.245,17.687
			c-2.534-10.228,2.884-19.89-3.22-28.819c1.194-4.304,5.738-2.985,8.587-5.534c-2.785,14.593-4.104,28.6-0.007,43.286
			C265.631,477.621,253.636,472.157,249.858,458.174z"/>
		<path fill-rule="evenodd" clip-rule="evenodd" fill="#213653" d="M131.729,339.349c-5.612,2.147-11.225,4.295-16.835,6.454
			c0.508-9.07,7.655-15.589,9.352-24.211c6.369-6.062,10.302-15.223,20.64-16.233c4.488,6.375-0.875,10.002-4.096,14.065
			c-3.961,4.995-9.423,9.032-9.631,16.219C131.389,336.873,131.569,338.109,131.729,339.349z"/>
		<path fill-rule="evenodd" clip-rule="evenodd" fill="#976226" d="M490.199,311.748c16.362,0,32.722,0,49.081,0
			c0.009,1.471,0.018,2.941,0.026,4.409c-14.968,4.014-30.58,0.111-45.709,2.142C490.917,316.919,488.298,315.507,490.199,311.748z"
			/>
		<path fill-rule="evenodd" clip-rule="evenodd" fill="#0BC1EA" d="M246.694,390.205c8.666,10.456,19.367,19.743,15.857,35.985
			c-0.727,3.357,3.319,7.746,5.167,11.66c-11.186-0.847-14.023-8.01-12.284-17.496c1.354-7.383,0.602-13.623-5.177-18.768
			c-5.58-1.808-10.223-4.4-9.595-11.423c1.118-0.056,2.235-0.111,3.354-0.167C244.916,389.974,245.808,390.041,246.694,390.205z"/>
		<path fill-rule="evenodd" clip-rule="evenodd" fill="#B3A96C" d="M466.384,273.888c-0.161,1.26-0.323,2.517-0.486,3.773
			c-8.2-1.178-13.442-5.229-14.495-14.001c-1.847-15.434-5.574-29.347-25.179-30.352c-2.292-0.117-3.246-3.398-2.733-6.117
			c6.049,5.35,14.587,2.549,21.082,6.428c2.125,3.082,4.254,6.173,6.381,9.261c0.797,2.021,1.596,4.046,2.393,6.07
			c0.424,3.146,0.851,6.293,1.279,9.445c0.837,1.972,1.67,3.935,2.502,5.897C455.779,271.77,461.908,272.03,466.384,273.888z"/>
		<path fill-rule="evenodd" clip-rule="evenodd" fill="#1E2A46" d="M397.442,447.82c-3.785,7.878-6.765,15.993-6.75,25.43
			c-12.087-4.893-7.856-14.335-7.774-22.415C387.586,448.972,391.74,444.659,397.442,447.82z"/>
		<path fill-rule="evenodd" clip-rule="evenodd" fill="#97652A" d="M74.553,313.099c10.378-2.637,21.104-0.823,31.652-1.081
			c5.375-0.129,4.887,2.848,3.521,6.911c-2.629,7.819-3.835,0.123-5.807-0.082c-9.722-1.005-19.519-1.298-29.29-1.84
			C74.605,315.703,74.579,314.399,74.553,313.099z"/>
		<path fill-rule="evenodd" clip-rule="evenodd" fill="#93B3BB" d="M232.807,414.135c-4.937,13.374,6.658,21.94,9.609,33.021
			c-15.346-11.751-15.825-29.188-19.96-47.455C230.816,403.345,230.104,409.784,232.807,414.135z"/>
		<path fill-rule="evenodd" clip-rule="evenodd" fill="#A6370E" d="M145.357,306.372c-8.587,2.921-11.566,13.626-21.114,15.214
			c1.601-11.317,11.748-16.605,17.599-24.929c1.696,4.304,7.027,2.622,9.451,5.73C150.521,305.514,148.609,306.943,145.357,306.372z
			"/>
		<path fill-rule="evenodd" clip-rule="evenodd" fill="#B56E1D" d="M480.203,300c-1.374-5.367,2.798-5.959,6.023-6.006
			c17.282-0.243,34.57-0.114,51.873,0.99c-18.009,5.446-36.923-1.283-54.817,4.723C482.441,301.746,481.416,301.846,480.203,300z"/>
		<path fill-rule="evenodd" clip-rule="evenodd" fill="#0DB5DC" d="M106.287,422.742c5.917-13.509-0.962-29.648,8.706-42.387
			c5.512,7.146,2.599,13.219-2.423,19.022c-2.333,10.673,2.725,22.125-3.412,32.396C108.2,428.766,107.244,425.754,106.287,422.742z
			"/>
		<path fill-rule="evenodd" clip-rule="evenodd" fill="#8AA6B0" d="M377.772,405.396c1.324-0.111,2.648-0.22,3.973-0.328
			c11.192,8.722,27.019,15.179,15.416,35.206C403.637,420.75,386.609,415.57,377.772,405.396z"/>
		<path fill-rule="evenodd" clip-rule="evenodd" fill="#176D8D" d="M163.007,360.006c1.017,1.037,2.032,2.077,3.048,3.114
			c-5.438,4.474-10.875,8.944-17.338,14.262c0-4.333,0-7.096,0.015-9.876c3.7-3.451,4.474-9.923,10.922-10.468
			C161.506,357.199,162.585,358.23,163.007,360.006z"/>
		<path fill-rule="evenodd" clip-rule="evenodd" fill="#B2A96D" d="M138.593,279.68c1.299-1.102,2.599-2.203,3.902-3.305
			c1.835-0.146,5.505,0.252,4.863,0.993c-8.684,10.061-13.181,23.558-26.867,33.472c3.215-6.328,5.046-9.935,6.877-13.541
			c0.384-1.456,1.282-2.479,2.625-3.129C133.661,289.813,138.401,286.096,138.593,279.68z"/>
		<path fill-rule="evenodd" clip-rule="evenodd" fill="#B86E1B" d="M129.994,294.17c-0.876,1.04-1.752,2.083-2.628,3.126
			c-17.31,0.003-34.622,0.003-51.933,0.003c-0.004-1.043-0.009-2.086-0.012-3.129C93.612,294.17,111.804,294.17,129.994,294.17z"/>
		<path fill-rule="evenodd" clip-rule="evenodd" fill="#CFAB59" d="M364.179,207.425c2.789,4.72,6.388,8.619,11.297,11.194
			c-1.576,4.925-4.11,2.695-6.362,0.729c-8.504-7.43-13.079-16.919-14.402-28.061c4.224,1.854,6.008,5.35,6.509,9.7
			C362.205,203.133,363.193,205.277,364.179,207.425z"/>
		<path fill-rule="evenodd" clip-rule="evenodd" fill="#186283" d="M291.575,417.073c-19.501-6.076-7.922-21.688-10.928-32.836
			c6.299,9.384-3.501,25.942,14.452,29.921C293.925,415.131,292.75,416.101,291.575,417.073z"/>
		<path fill-rule="evenodd" clip-rule="evenodd" fill="#9D6423" d="M510.584,332.988c8.798-0.199,17.654-1.57,27.439,1.189
			c-6.8,7.975-15.267,2.78-22.233,4.594C511.946,338.742,510.121,336.896,510.584,332.988z"/>
		<path fill-rule="evenodd" clip-rule="evenodd" fill="#157598" d="M240.662,390.164c3.198,3.809,6.397,7.617,9.595,11.423
			c-1.913,1.948-3.828,3.899-5.741,5.848c-6.108,3.24-6.791-3.671-10.213-5.458c-0.721-1.037-1.441-2.077-2.162-3.117
			c1.178-0.009,2.355-0.021,3.533-0.032c2.251-2.317,1.749-5.241,1.764-8.048C238.511,390.574,239.586,390.369,240.662,390.164z"/>
		<path fill-rule="evenodd" clip-rule="evenodd" fill="#1D3C5A" d="M435.973,474.319c-1.03-0.103-2.059-0.202-3.09-0.305
			c-0.202-9.144,0.516-17.933,9.179-23.631c-0.023,0.917-0.035,1.834-0.038,2.751C442.834,461.004,439.094,467.572,435.973,474.319z
			"/>
		<path fill-rule="evenodd" clip-rule="evenodd" fill="#BAAE6D" d="M510.584,332.988c1.737,1.931,3.475,3.858,5.209,5.786
			c1.529,2.93,3.059,5.859,4.591,8.792c-0.489,0.363-0.979,0.724-1.468,1.087c-5.868-9.29-17.285-12.296-23.728-20.941
			c-0.287-1.415,0.296-1.857,1.632-1.459C500.96,329.417,505.085,332.602,510.584,332.988z"/>
		<path fill-rule="evenodd" clip-rule="evenodd" fill="#7D99A5" d="M246.962,441.091c-5.435-7.819-5.687-18.108-12.125-25.453
			c12.375,2.03,12.662,11.262,12.397,20.821C248.26,438.07,248.169,439.614,246.962,441.091z"/>
		<path fill-rule="evenodd" clip-rule="evenodd" fill="#0EB0D6" d="M234.303,401.977c3.404,1.819,6.807,3.642,10.211,5.461
			c4.447,1.98,9.352,3.595,8.084,11.44C245.712,413.317,235.671,412.746,234.303,401.977z"/>
		<path fill-rule="evenodd" clip-rule="evenodd" fill="#0C94D5" d="M420.674,498.158c-11.016,6.65-19.951-1.447-29.646-4.187
			c-0.297-1.764-4.283-3.642,0.172-5.241C400.461,493.632,409.867,498.082,420.674,498.158z"/>
		<path fill-rule="evenodd" clip-rule="evenodd" fill="#147DA0" d="M367.295,410.435c-4.963,5.851,5.191,6.202,2.834,11.596
			c-5.798-2.048-10.158-7.122-15.133-11.244C358.979,406.594,363.105,407.396,367.295,410.435z"/>
		<path fill-rule="evenodd" clip-rule="evenodd" fill="#97B4BC" d="M420.164,431.379c10.633-8.095,21.543-7.512,32.754,0.062
			c-10.736-2.833-21.315-4.061-31.241,1.77C421.34,432.466,420.834,431.854,420.164,431.379z"/>
		<path fill-rule="evenodd" clip-rule="evenodd" fill="#0E8CC8" d="M202.091,473.707c-0.164,2.915-0.967,5.455-3.946,6.718
			c-2.556-7.465-5.111-14.933-7.664-22.397c0.65-0.331,1.301-0.659,1.953-0.99C195.653,462.595,198.873,468.149,202.091,473.707z"/>
		<path fill-rule="evenodd" clip-rule="evenodd" fill="#176A8A" d="M349.419,458.607c-2.226-3.275,0.469-13.128,5.181-15.161
			c5.53-2.388,2.252,3.199,3.416,4.901C358.469,454.553,351.516,454.544,349.419,458.607z"/>
		<path fill-rule="evenodd" clip-rule="evenodd" fill="#A26724" d="M76.895,337.395c5.392-5.52,10.816-5.675,16.075-3.012
			c0.716,0.363,0.064,3.434,0.045,5.247C87.643,338.886,82.268,338.139,76.895,337.395z"/>
		<path fill-rule="evenodd" clip-rule="evenodd" fill="#B5AD70" d="M480.203,300c1.028-0.094,2.057-0.19,3.082-0.29
			c2.303,4.011,4.608,8.024,6.914,12.038c1.134,2.186,2.265,4.368,3.398,6.554c1.072,2.648,2.147,5.303,3.22,7.954
			c-0.527,0.495-1.069,0.981-1.626,1.456C488.778,319.242,483.66,310.072,480.203,300z"/>
		<path fill-rule="evenodd" clip-rule="evenodd" fill="#C9B56B" d="M520.384,347.566c2.813,6.047,16.131,5.347,11.109,19.055
			c-5.013-7.166-8.789-12.571-12.571-17.971C519.499,348.416,519.988,348.053,520.384,347.566z"/>
		<path fill-rule="evenodd" clip-rule="evenodd" fill="#8DAAB3" d="M246.962,441.091c0.092-1.538,0.185-3.079,0.274-4.623
			c5.079,7.245,12.321,10.187,20.893,10.477C258.594,453.961,252.624,448.087,246.962,441.091z"/>
		<path fill-rule="evenodd" clip-rule="evenodd" fill="#212B46" d="M259.536,156.668c1.891-2.355,3.782-4.711,5.676-7.069
			c0.955,5.291-0.699,10.667-3.98,13.901c-20.087,19.79-23.046,47.496-33.527,71.643c-3.866,8.909-7.718,17.253-15.384,23.045
			c-11.786,8.906-17.604,23.057-27.687,33.404c-1.03-0.718-2.058-1.438-3.086-2.159c13.649-24.779,27.226-49.603,40.979-74.326
			c6.494-11.672,13.343-23.145,19.989-34.734c1.38-2.405,1.499-4.673-1.397-6.185c-0.973-0.636-1.31-1.289-1.011-1.963
			c0.302-0.68,0.611-1.02,0.927-1.02C244.728,163.21,256.521,165.524,259.536,156.668z"/>
		<path fill-rule="evenodd" clip-rule="evenodd" fill="#0DAED5" d="M145.357,306.372c1.976-1.327,3.952-2.657,5.931-3.984
			c0.812,0.363,1.603,0.328,2.376-0.1c3.382-0.765,5.361,0.773,6.381,3.888c3.259,4.755,9.248,1.564,13.402,4.664
			c-0.814,6.565-8.546,2.646-10.748,6.917c-1.755,3.911-5.367,6.551-8.987,6.677c-10.932,0.378-17.257,7.242-23.43,14.725
			c-8.446-2.634-3.337-6.729-1.472-10.969C132.615,319.541,142.705,315.788,145.357,306.372z"/>
		<path fill-rule="evenodd" clip-rule="evenodd" fill="#585D63" d="M160.045,306.176c-2.127-1.295-4.254-2.593-6.381-3.888
			c9.334-3.633,18.637-5.042,27.842,0.396C174.353,303.85,167.2,305.013,160.045,306.176z"/>
		<path fill-rule="evenodd" clip-rule="evenodd" fill="#2D2E41" d="M241.035,171.205c0.032,0.993,0.059,1.989,0.082,2.982
			c-5.505,8.886-16.178,12.914-21.05,22.4c-0.032-2.511-0.066-5.021-0.098-7.532c3.998-4.184,7.995-8.37,11.993-12.554
			C234.985,174.735,238.01,172.972,241.035,171.205z"/>
		<path fill-rule="evenodd" clip-rule="evenodd" fill="#157899" d="M324.477,482.944l-1.202-0.038l-1.2,0.105
			c-1.465-8.268-4.896-16.743,2.574-24.056c3.734-5.789,9.287-7.901,16.334-8.001C325.707,456.923,323.91,469.339,324.477,482.944z"
			/>
		<path fill-rule="evenodd" clip-rule="evenodd" fill="#0CBAE4" d="M324.648,458.956c-4.566,7.623-1.959,16.011-2.575,24.056
			c-4.945-4.313-1.969-10.248-3.142-15.337C314.6,460.676,317.789,458.61,324.648,458.956z"/>
		<path fill-rule="evenodd" clip-rule="evenodd" fill="#128CB0" d="M112.57,399.378c0.807-6.337,1.616-12.671,2.423-19.017
			c-0.293-3.041,0.741-6.548-2.966-8.373c-2.436-8.818,2.774-13.664,9.268-17.845c3.867,0.724,8.077-10.978,11.653,0.322
			c1.354,4.679-0.838,10.055,2.811,14.279c-3.082,7.503-13.443,9.287-14.464,18.41c-5.603,2.089,3.035,11.681-6.237,11.836
			C114.215,399.032,113.384,399.161,112.57,399.378z"/>
		<path fill-rule="evenodd" clip-rule="evenodd" fill="#1C425F" d="M210.978,326.575c1.819,0.407,3.637,0.812,6.252,1.392
			c-5.074,3.773-12.407-0.706-15.469,5.83c0.759,1.333,0.552,2.443-0.756,3.308c-11.568,3.413-21.943,9.308-32.079,15.656
			c-2.944,1.846-5.547,4.679-9.101,1.192c0.088-1.919,0.177-3.838,0.265-5.754C174.786,335.654,191.934,328.884,210.978,326.575z"/>
		<path fill-rule="evenodd" clip-rule="evenodd" fill="#1D3B58" d="M159.826,353.953c12.891-3.337,21.384-14.517,33.8-18.923
			c3.527-1.254,5.508,0.103,8.114,1.066c1.63,3.706-1.472,5.839-2.84,8.549c-13.043,2.599-25.242,7.169-35.892,15.36
			c-1.116-0.99-2.232-1.978-3.35-2.968C159.711,356.01,159.769,354.981,159.826,353.953z"/>
		<path fill-rule="evenodd" clip-rule="evenodd" fill="#1B4E6D" d="M130.283,339.158c1.866-20.675,21.205-14.883,32.417-21.401
			c1.044,0.826,2.087,1.649,3.132,2.476c-8.736,9.19-23.791,7.796-31.458,18.779l-1.336-0.009c0,0-1.291,0.343-1.299,0.343
			C131.729,339.349,130.283,339.158,130.283,339.158z"/>
		<path fill-rule="evenodd" clip-rule="evenodd" fill="#1F2D49" d="M121.294,354.144c-3.876,5.54-9.483,10.181-9.268,17.845
			c0.299,5.414-6.552,7.852-5.481,13.752c-5.921-11.432,3.864-19.189,6.142-28.611C115.836,356.933,116.582,349.822,121.294,354.144
			z"/>
		<path fill-rule="evenodd" clip-rule="evenodd" fill="#0EB1D8" d="M135.758,368.745c-15.366-1.925-3.204-9.264-2.811-14.285
			c2.974-3.8,7.277-0.299,12.349-2.725C141.638,358.26,138.698,363.501,135.758,368.745z"/>
		<path fill-rule="evenodd" clip-rule="evenodd" fill="#0EB0D7" d="M134.374,339.012c6.587-12.791,20.665-13.034,31.458-18.776
			c2.292,6.404-3.866,5.329-6.469,6.724C151.215,331.315,142.728,335.042,134.374,339.012z"/>
		<path fill-rule="evenodd" clip-rule="evenodd" fill="#0DB5DC" d="M115.057,398.991c6.586-1.57-1.72-10.986,6.236-11.836
			c-0.188,12.753-5.449,24.917-6.236,37.907C115.057,416.37,115.057,407.681,115.057,398.991z"/>
		<path fill-rule="evenodd" clip-rule="evenodd" fill="#1C3C5A" d="M274.041,305.938c3.567,7.597,17.098,11.271,9.212,23.379
			c-4.008-15.718-16.704-19.383-31.979-21.53C259.778,304.014,267.042,306.776,274.041,305.938z"/>
		<path fill-rule="evenodd" clip-rule="evenodd" fill="#202D47" d="M284.682,531.085c-20.382-2.016-34.244-15.984-49.666-27.094
			c1.017-1.075,2.033-2.153,3.05-3.229C251.84,513.583,269.091,521.057,284.682,531.085z"/>
		<path fill-rule="evenodd" clip-rule="evenodd" fill="#1C4764" d="M198.899,344.646c-3.33-4.274,1.51-5.83,2.843-8.552
			c0.117-0.768,0.126-1.538,0.022-2.306c18.973-1.277,38.12-4.236,55.935,5.742c12.734,9.428,25.345,18.99,34.446,32.297
			c-1.194,3.1-7.988,1.128-6.245,6.894c-7.663-14.306-15.157-28.436-31.264-35.725c-13.922-6.296-27.661-9.952-42.623-4.608
			c-1.241,1.969-3.088,2.188-5.15,1.793c1.825,0.545,3.98,0.384,5.117,2.396C207.95,345.36,203.433,345.05,198.899,344.646z"/>
		<path fill-rule="evenodd" clip-rule="evenodd" fill="#1D3B58" d="M211.98,342.577c-1.541-0.694-3.083-1.392-4.625-2.086
			c1.551-0.7,3.103-1.4,4.657-2.101c5.628,0.387,11.254,0.776,16.881,1.169c-0.218,4.374,8.344,2.725,5.914,8.616
			C227.198,346.31,219.59,344.443,211.98,342.577z"/>
		<path fill-rule="evenodd" clip-rule="evenodd" fill="#09A8EC" d="M361.15,502.969c3.998,3.946,9.699,4.811,14.102,7.673
			c2.838,1.843-1.564,1.652-2.504,2.581c-6.607-2.616-15.062-1.295-19.274-9.029C355.508,500.502,358.25,501.237,361.15,502.969z"/>
	</g>
</g>
</svg>
