<svg id="Layer_1" data-name="Layer 1" xmlns="http://www.w3.org/2000/svg" viewBox="0 0 490.64 490.64"><defs><style>.cls-1{font-size:21.67px;font-family:Montserrat-ExtraBold, Montserrat;font-weight:700;}.cls-2{letter-spacing:-0.01em;}.cls-3,.cls-4{fill:#fff;}.cls-3{stroke:#000;stroke-linecap:round;stroke-linejoin:round;stroke-width:5px;}</style></defs><title>acf-logo</title><g id="Idea_3.1b" data-name="Idea 3.1b"><path d="M252.65,284.84l-.34-.22a2.46,2.46,0,1,0-2.7,4.1l.34.22,0,0,0,0a2.39,2.39,0,0,0,1.31.39,2.46,2.46,0,0,0,2.06-1.14A2.49,2.49,0,0,0,252.65,284.84Z"/><path d="M368,159.78a2.46,2.46,0,0,0-3.84,3.05,83.66,83.66,0,0,1,14.45,76.57,2.45,2.45,0,1,0,4.69,1.44A88.57,88.57,0,0,0,368,159.78Z"/><path d="M373.8,256.81a2.45,2.45,0,0,0-3.37.84l-.25.41a2.45,2.45,0,1,0,4.2,2.55l.26-.43A2.45,2.45,0,0,0,373.8,256.81Z"/><path d="M347.74,282.5a83.71,83.71,0,0,1-77.12,11.26,2.45,2.45,0,1,0-1.64,4.63,88.62,88.62,0,0,0,81.65-11.92,2.45,2.45,0,0,0-2.89-4Z"/><path d="M243.74,145.63a2.46,2.46,0,1,0,3.05,3.84A83.66,83.66,0,0,1,323.37,135a2.45,2.45,0,1,0,1.44-4.69,88.57,88.57,0,0,0-81.07,15.3Z"/><path d="M340.77,139.79a2.45,2.45,0,0,0,.84,3.37l.41.25a2.45,2.45,0,1,0,2.55-4.2l-.43-.26A2.45,2.45,0,0,0,340.77,139.79Z"/><text class="cls-1" transform="translate(125.66 342.46)">Ark <tspan class="cls-2" x="45.27" y="0">C</tspan><tspan x="59.99" y="0">ommunity Fund</tspan></text><rect x="191.34" y="280.85" width="18.17" height="6.87" rx="3.44" ry="3.44"/><rect x="175.63" y="254.34" width="49.59" height="9.33" rx="4.66" ry="4.66"/><rect x="175.63" y="263.67" width="49.59" height="9.33" rx="4.66" ry="4.66"/><rect x="175.63" y="273" width="49.59" height="9.33" rx="4.66" ry="4.66"/><path d="M200.43,146.41a45.38,45.38,0,0,1,45.33,45.33,41.22,41.22,0,0,1-2.07,10.92,86.22,86.22,0,0,1-8.38,19c-1.45,2.46-3.1,5.24-4.63,8l-10.85,19.66H181L169.82,229c-1.17-2.12-2.45-4.33-3.91-6.75a86.38,86.38,0,0,1-8.75-19.6,41.22,41.22,0,0,1-2.07-10.92,45.38,45.38,0,0,1,45.33-45.33m0-5a50.33,50.33,0,0,0-50.33,50.33,46.1,46.1,0,0,0,2.28,12.36,91.3,91.3,0,0,0,9.25,20.74c1.31,2.18,2.59,4.37,3.81,6.59l12.64,22.91h44.68L235,232.09c1.47-2.66,3-5.28,4.56-7.9a91.11,91.11,0,0,0,8.87-20.1,46.09,46.09,0,0,0,2.28-12.36,50.33,50.33,0,0,0-50.33-50.33Z"/><path d="M206.07,304.91H194.78a19.21,19.21,0,0,1-13.32-5.4h-1.17a20.42,20.42,0,0,1-15.09-6.69c-5-5.46-5.28-11.86-5.18-18,0-.79,0-1.6,0-2.45a43.42,43.42,0,0,1,.1-5,2.45,2.45,0,1,1,4.89.47,39.24,39.24,0,0,0-.08,4.43c0,.86,0,1.74,0,2.62-.1,6.39.51,10.83,3.91,14.58a15.5,15.5,0,0,0,11.45,5.08h3.28l.73.79A14.28,14.28,0,0,0,194.78,300h11.29a14.28,14.28,0,0,0,10.48-4.61l.73-.79h3.28a15.67,15.67,0,0,0,11.7-5.36c3.38-3.91,3.63-8,3.61-13.83,0-.71,0-1.42,0-2.13,0-1.37,0-2.79,0-4.17v-.43c0-.28,0-.61,0-1a2.45,2.45,0,0,1,2.39-2.52h.07a2.45,2.45,0,0,1,2.45,2.39c0,.33,0,.64,0,.91l0,.48c0,1.46,0,2.92,0,4.33,0,.7,0,1.4,0,2.09,0,6.27-.33,11.88-4.81,17.05a20.37,20.37,0,0,1-15.41,7.06h-1.17A19.2,19.2,0,0,1,206.07,304.91Z"/><path d="M162.38,263.48a2.45,2.45,0,0,1-2.45-2.39c0-.16,0-.32,0-.48a2.46,2.46,0,0,1,2.45-2.46h0a2.46,2.46,0,0,1,2.46,2.45q0,.18,0,.36a2.46,2.46,0,0,1-2.39,2.52Z"/><path d="M151,236.8a2.45,2.45,0,0,1-2.11-1.2l-.71-1.19a107,107,0,0,1-10.83-24.32,59.49,59.49,0,0,1-2.95-16.89,65.36,65.36,0,0,1,6.08-27.67,2.46,2.46,0,1,1,4.46,2.06,60.48,60.48,0,0,0-5.63,25.61A54.8,54.8,0,0,0,142,208.68a102.14,102.14,0,0,0,10.34,23.2l.72,1.21A2.46,2.46,0,0,1,151,236.8Zm-5.15-73.72a2.46,2.46,0,0,1-2.1-3.71L144,159a2.46,2.46,0,0,1,4.19,2.56l-.21.34A2.45,2.45,0,0,1,145.84,163.08Zm20.65-21.17a2.46,2.46,0,0,1-1.32-4.53,65.93,65.93,0,0,1,70.34-.1,2.46,2.46,0,0,1-2.62,4.16,61,61,0,0,0-65.1.09A2.44,2.44,0,0,1,166.49,141.91Z"/><circle class="cls-3" cx="186.5" cy="227.5" r="5"/><circle class="cls-3" cx="193.5" cy="227.5" r="5"/><circle class="cls-3" cx="200.5" cy="227.5" r="5"/><circle class="cls-3" cx="207.5" cy="227.5" r="5"/><circle class="cls-3" cx="214.5" cy="227.5" r="5"/><line class="cls-3" x1="182" y1="230" x2="188" y2="259"/><line class="cls-3" x1="219" y1="230" x2="213" y2="259"/><circle cx="298.53" cy="214.81" r="72.91"/><circle class="cls-4" cx="298.31" cy="214.95" r="65.18"/><path d="M363.49,214.95a65.18,65.18,0,0,1-65.18,65.18c-.51,0-.51-130.37,0-130.37A65.18,65.18,0,0,1,363.49,214.95Z"/><path class="cls-4" d="M250.55,247.82a1.5,1.5,0,0,1-1.29-2.27l47.38-79.48a1.5,1.5,0,0,1,1.28-.73h0a1.5,1.5,0,0,1,1.28.72l48.13,79.48a1.5,1.5,0,0,1-2.39,1.79l-47-51.42-46.28,51.41A1.5,1.5,0,0,1,250.55,247.82Z"/><path d="M297.94,166.84l48.13,79.48-48.13-52.64-47.38,52.64,47.38-79.48m0-3h0a3,3,0,0,0-2.57,1.46L248,244.78a3,3,0,0,0,4.81,3.54L298,198.15l45.9,50.2a3,3,0,0,0,4.78-3.58L300.5,165.29a3,3,0,0,0-2.57-1.45Z"/><path class="cls-4" d="M289.88,217.75a1.5,1.5,0,0,1-1.08-2.54l8.27-8.54a1.5,1.5,0,0,1,2.15,0l8.27,8.54a1.5,1.5,0,0,1-1.08,2.54Z"/><path d="M298.14,207.71l8.27,8.53H289.88l8.27-8.53m0-3a3,3,0,0,0-2.15.91l-8.27,8.53a3,3,0,0,0,2.15,5.09h16.54a3,3,0,0,0,2.15-5.09l-8.27-8.53a3,3,0,0,0-2.15-.91Z"/><path class="cls-4" d="M277.28,234.69a1.5,1.5,0,0,1-1.07-2.55l8.37-8.54a1.5,1.5,0,0,1,1.06-.45l24.84-.18a1.5,1.5,0,0,1,1.09.47l8.19,8.71a1.5,1.5,0,0,1-1.09,2.53Z"/><path d="M310.47,224.48l8.19,8.71H277.28l8.37-8.54,24.83-.18m0-3h0l-24.83.18a3,3,0,0,0-2.12.9l-8.37,8.54a3,3,0,0,0,2.14,5.1h41.39a3,3,0,0,0,2.19-5.05l-8.19-8.71a3,3,0,0,0-2.19-.95Z"/></g></svg>