<?xml version="1.0" encoding="utf-8"?>
<!-- Generator: Adobe Illustrator 21.0.2, SVG Export Plug-In . SVG Version: 6.00 Build 0)  -->
<svg version="1.1" id="Layer_1" xmlns="http://www.w3.org/2000/svg" xmlns:xlink="http://www.w3.org/1999/xlink" x="0px" y="0px"
	 viewBox="0 0 651 249" style="enable-background:new 0 0 651 249;" xml:space="preserve">
<style type="text/css">
	.st0{fill:#FFFFFF;stroke:#333333;stroke-width:2;}
	.st1{fill:#333333;}
	.st2{stroke:#FFFFFF;stroke-width:2;}
	.st3{fill:#FFFFFF;}
	.st4{fill:none;stroke:#808080;}
	.st5{fill:url(#SVGID_1_);}
	.st6{fill:url(#SVGID_2_);}
	.st7{fill:url(#SVGID_3_);}
	.st8{fill:url(#SVGID_4_);}
	.st9{fill:url(#SVGID_5_);}
	.st10{fill:url(#SVGID_6_);}
	.st11{fill:url(#SVGID_7_);}
	.st12{fill:url(#SVGID_8_);}
	.st13{fill:none;stroke:#000000;stroke-width:5;stroke-miterlimit:10;}
	.st14{fill:none;stroke:#FFFFFF;stroke-width:5;stroke-miterlimit:10;}
	.st15{fill:url(#SVGID_9_);}
	.st16{fill:url(#SVGID_10_);}
	.st17{fill:url(#SVGID_11_);}
	.st18{fill:url(#SVGID_12_);}
	.st19{fill:url(#SVGID_13_);}
	.st20{fill:url(#SVGID_14_);}
	.st21{fill:url(#SVGID_15_);}
	.st22{fill:url(#SVGID_16_);}
	.st23{fill:url(#SVGID_17_);}
	.st24{fill:url(#SVGID_18_);}
	.st25{fill:url(#SVGID_19_);}
	.st26{fill:url(#SVGID_20_);}
</style>
<g>
	<g>
		<path class="st3" d="M297.8,43.7h5.2l9.8,26.2h-5.9l-2.1-6h-9.2l-2.1,6H288L297.8,43.7z M303.4,59.3l-3.2-9.4l-3.1,9.4H303.4z"/>
		<path class="st3" d="M328.4,43.7h9.3c2,0,3.7,0.2,5.1,0.7c1.3,0.5,2.4,1.1,3.1,1.9c0.8,0.8,1.3,1.6,1.6,2.6
			c0.3,0.9,0.4,1.9,0.4,2.8c0,1.7-0.3,3.1-0.9,4.2c-0.6,1.1-1.6,2.1-3.1,2.9l5.3,11.1h-5.9l-4.4-9.8H338h-4.2v9.8h-5.4V43.7z
			 M338.1,55.5c0.9,0,1.6-0.1,2.1-0.3c0.6-0.2,1-0.4,1.3-0.8c0.3-0.3,0.6-0.7,0.7-1.2c0.1-0.5,0.2-1,0.2-1.5c0-0.5-0.1-0.9-0.2-1.3
			c-0.1-0.4-0.4-0.8-0.7-1.1c-0.4-0.3-0.8-0.6-1.5-0.8c-0.6-0.2-1.4-0.3-2.4-0.3h-3.8v7.3H338.1z"/>
		<path class="st3" d="M364.9,43.7h5.5v10.5l9.6-10.5h6l-8.7,9.8l9.6,16.3h-6.1L373.5,57l-3.1,3.2v9.6h-5.5V43.7z"/>
		<path class="st3" d="M312.6,103.5c-0.1,1.4-0.4,2.7-1,3.9c-0.5,1.2-1.2,2.2-2.2,3.1c-0.9,0.9-2,1.5-3.4,2
			c-1.3,0.5-2.9,0.7-4.6,0.7c-2,0-3.7-0.3-5.2-1c-1.5-0.7-2.8-1.6-3.8-2.8c-1-1.2-1.8-2.6-2.3-4.3c-0.5-1.7-0.8-3.6-0.8-5.6
			c0-2.1,0.3-4,0.8-5.7c0.6-1.7,1.4-3.1,2.4-4.3c1.1-1.2,2.3-2.1,3.8-2.7c1.5-0.6,3.2-1,5.1-1c1.7,0,3.1,0.2,4.3,0.6
			c1.2,0.4,2.3,1,3.1,1.8c0.8,0.8,1.5,1.7,2,2.8c0.5,1.1,0.9,2.3,1.1,3.7l-5.4,0.7c-0.3-1.5-0.8-2.7-1.6-3.6c-0.8-0.9-2-1.3-3.6-1.3
			c-2.1,0-3.7,0.8-4.8,2.4c-1.1,1.6-1.6,3.8-1.6,6.7c0,2.9,0.6,5.1,1.7,6.7c1.2,1.6,2.7,2.3,4.7,2.3c1.7,0,2.9-0.4,3.7-1.3
			c0.8-0.9,1.3-2.1,1.5-3.7H312.6z"/>
		<path class="st3" d="M340.6,113.2c-2,0-3.7-0.3-5.2-1s-2.8-1.6-3.9-2.7c-1.1-1.2-1.9-2.6-2.5-4.3c-0.6-1.7-0.9-3.6-0.9-5.7
			c0-2.1,0.3-4,0.9-5.7c0.6-1.7,1.4-3.1,2.5-4.3c1.1-1.2,2.4-2.1,3.9-2.7c1.5-0.6,3.3-1,5.2-1c2,0,3.7,0.3,5.2,1
			c1.5,0.6,2.8,1.6,3.9,2.7c1.1,1.2,1.9,2.6,2.4,4.3c0.6,1.7,0.8,3.6,0.8,5.7c0,2.1-0.3,4-0.8,5.7c-0.5,1.7-1.4,3.1-2.4,4.3
			c-1.1,1.2-2.4,2.1-3.9,2.7S342.6,113.2,340.6,113.2z M340.6,108.5c2.3,0,4-0.8,5.1-2.3c1.1-1.6,1.7-3.8,1.7-6.7
			c0-2.9-0.6-5.1-1.7-6.7c-1.1-1.6-2.8-2.4-5.1-2.4c-2.3,0-4,0.8-5.1,2.4c-1.1,1.6-1.7,3.8-1.7,6.7c0,2.9,0.6,5.1,1.7,6.7
			C336.6,107.7,338.3,108.5,340.6,108.5z"/>
		<path class="st3" d="M370.1,86.4h6.6l6.5,19.5l6.7-19.5h6.4v26.2h-5V95.1l-6,17.4H381l-6-17.4v17.4h-4.9V86.4z"/>
		<path class="st3" d="M414.2,86.4h6.6l6.5,19.5l6.7-19.5h6.4v26.2h-5V95.1l-6,17.4h-4.2l-6-17.4v17.4h-4.9V86.4z"/>
		<path class="st3" d="M457.8,86.4h5.5V102c0,2.2,0.4,3.9,1.2,4.9c0.8,1.1,2.1,1.6,3.9,1.6c1.8,0,3.1-0.5,3.9-1.6
			c0.8-1.1,1.2-2.7,1.2-4.9V86.4h5.5V102c0,2-0.2,3.7-0.7,5.1c-0.5,1.4-1.2,2.6-2.1,3.5c-0.9,0.9-2,1.6-3.3,2
			c-1.3,0.4-2.8,0.6-4.4,0.6c-1.7,0-3.1-0.2-4.5-0.7c-1.3-0.4-2.4-1.1-3.3-2c-0.9-0.9-1.6-2.1-2-3.5c-0.5-1.4-0.7-3.1-0.7-5.1V86.4z
			"/>
		<path class="st3" d="M496.3,86.4h4.9l10.8,17.1V86.4h5.3v26.2h-4.9l-10.8-17v17h-5.3V86.4z"/>
		<path class="st3" d="M535.2,86.4h5.5v26.2h-5.5V86.4z"/>
		<path class="st3" d="M564.6,91.1h-7.9v-4.7h21.2v4.7h-7.9v21.4h-5.5V91.1z"/>
		<path class="st3" d="M601.7,101.9l-9-15.5h6.1l5.6,10.6l5.8-10.6h5.8l-8.8,15.5v10.7h-5.5V101.9z"/>
		<path class="st3" d="M290.3,129.1h17.2v4.7h-11.7v6.2h11v4.7h-11v10.6h-5.5V129.1z"/>
		<path class="st3" d="M323.7,129.1h5.5v15.6c0,2.2,0.4,3.9,1.2,4.9c0.8,1.1,2.1,1.6,3.9,1.6c1.8,0,3.1-0.5,3.9-1.6
			c0.8-1.1,1.2-2.7,1.2-4.9v-15.6h5.5v15.6c0,2-0.2,3.7-0.7,5.1c-0.5,1.4-1.2,2.6-2.1,3.5c-0.9,0.9-2,1.6-3.3,2
			c-1.3,0.4-2.8,0.6-4.4,0.6c-1.7,0-3.1-0.2-4.5-0.7c-1.3-0.4-2.4-1.1-3.3-2c-0.9-0.9-1.6-2.1-2-3.5c-0.5-1.4-0.7-3.1-0.7-5.1V129.1
			z"/>
		<path class="st3" d="M362.2,129.1h4.9l10.8,17.1v-17.1h5.3v26.2h-4.9l-10.8-17v17h-5.3V129.1z"/>
		<path class="st3" d="M401.2,129.1h9.8c4,0,7.1,1.1,9.4,3.3c2.2,2.2,3.4,5.4,3.4,9.7c0,2.2-0.3,4.1-0.9,5.7c-0.6,1.6-1.5,3-2.7,4.1
			c-1.2,1.1-2.6,2-4.3,2.5c-1.7,0.6-3.6,0.8-5.7,0.8h-8.9V129.1z M410.1,150.6c1.4,0,2.6-0.2,3.6-0.6c1-0.4,1.8-1,2.4-1.7
			c0.6-0.8,1.1-1.7,1.4-2.7c0.3-1,0.4-2.2,0.4-3.5c0-1.3-0.1-2.4-0.4-3.5c-0.3-1-0.7-1.9-1.2-2.6s-1.3-1.3-2.2-1.6
			c-0.9-0.4-2-0.6-3.3-0.6h-4.3v16.8H410.1z"/>
	</g>
</g>
<g>
	<polygon class="st14" points="13.6,154 13.6,242 241.6,106 241.6,19.3 	"/>
	<polyline class="st14" points="174.6,146 174.6,220.5 241.1,176.5 241.6,107 13.6,154 	"/>
	<line class="st14" x1="174.6" y1="146" x2="241.6" y2="176"/>
</g>
</svg>
