<?xml version="1.0" encoding="utf-8"?>
<!-- Generator: Adobe Illustrator 21.0.2, SVG Export Plug-In . SVG Version: 6.00 Build 0)  -->
<svg version="1.1" id="Layer_1" xmlns="http://www.w3.org/2000/svg" xmlns:xlink="http://www.w3.org/1999/xlink" x="0px" y="0px"
	 viewBox="0 0 46 46" style="enable-background:new 0 0 46 46;" xml:space="preserve">
<style type="text/css">
	.st0{fill:#FFFFFF;}
	.st1{fill:url(#SVGID_1_);}
	.st2{fill:#FFFFFF;stroke:#333333;stroke-width:2;}
	.st3{fill:#333333;}
	.st4{stroke:#FFFFFF;stroke-width:2;}
	.st5{fill:none;stroke:#808080;}
	.st6{fill:url(#SVGID_2_);}
	.st7{fill:url(#SVGID_3_);}
	.st8{fill:url(#SVGID_4_);}
	.st9{fill:url(#SVGID_5_);}
	.st10{fill:url(#SVGID_6_);}
	.st11{fill:url(#SVGID_7_);}
	.st12{fill:url(#SVGID_8_);}
	.st13{fill:url(#SVGID_9_);}
	.st14{fill:none;stroke:#000000;stroke-width:5;stroke-miterlimit:10;}
	.st15{fill:none;stroke:#FFFFFF;stroke-width:5;stroke-miterlimit:10;}
	.st16{fill:url(#SVGID_10_);}
	.st17{fill:url(#SVGID_11_);}
	.st18{fill:url(#SVGID_12_);}
	.st19{fill:url(#SVGID_13_);}
	.st20{fill:url(#SVGID_14_);}
	.st21{fill:url(#SVGID_15_);}
	.st22{fill:url(#SVGID_16_);}
	.st23{fill:url(#SVGID_17_);}
	.st24{fill:url(#SVGID_18_);}
	.st25{fill:url(#SVGID_19_);}
	.st26{fill:url(#SVGID_20_);}
	.st27{fill:url(#SVGID_21_);}
	.st28{fill:url(#SVGID_22_);}
	.st29{fill:url(#SVGID_23_);}
	.st30{fill:url(#SVGID_24_);}
	.st31{fill:url(#SVGID_25_);}
	.st32{fill:url(#SVGID_26_);}
	.st33{fill:url(#SVGID_27_);}
	.st34{fill:url(#SVGID_28_);}
	.st35{fill:url(#SVGID_29_);}
	.st36{fill:none;stroke:#FFFFFF;stroke-width:4;stroke-miterlimit:10;}
	.st37{fill:url(#SVGID_30_);stroke:#000000;stroke-width:0.5;stroke-miterlimit:10;}
	.st38{fill:url(#SVGID_31_);stroke:#000000;stroke-width:0.5;stroke-miterlimit:10;}
	.st39{fill:url(#SVGID_32_);stroke:#000000;stroke-width:0.5;stroke-miterlimit:10;}
	.st40{fill:url(#SVGID_33_);stroke:#000000;stroke-width:0.5;stroke-miterlimit:10;}
	.st41{fill:url(#SVGID_34_);stroke:#000000;stroke-width:0.75;stroke-miterlimit:10;}
	.st42{fill:url(#SVGID_35_);stroke:#000000;stroke-width:0.75;stroke-miterlimit:10;}
	.st43{fill:url(#SVGID_36_);stroke:#000000;stroke-width:0.75;stroke-miterlimit:10;}
	.st44{fill:url(#SVGID_37_);stroke:#000000;stroke-width:0.75;stroke-miterlimit:10;}
	.st45{fill:none;}
	.st46{fill:none;stroke:#000000;stroke-width:26;stroke-miterlimit:10;}
	.st47{fill:#525252;}
	.st48{fill:url(#SVGID_38_);stroke:#000000;stroke-width:0.5;stroke-miterlimit:10;}
	.st49{fill:url(#SVGID_39_);stroke:#000000;stroke-width:0.5;stroke-miterlimit:10;}
	.st50{fill:url(#SVGID_40_);stroke:#000000;stroke-width:0.5;stroke-miterlimit:10;}
	.st51{fill:url(#SVGID_41_);stroke:#000000;stroke-width:0.5;stroke-miterlimit:10;}
	.st52{fill:url(#SVGID_42_);}
	.st53{fill:url(#SVGID_43_);}
	.st54{fill:url(#SVGID_44_);}
	.st55{fill:none;stroke:#FFFFFF;stroke-width:0.5;stroke-miterlimit:10;}
	.st56{fill:none;stroke:#FFFFFF;stroke-width:0.75;stroke-miterlimit:10;}
	.st57{fill:url(#SVGID_45_);}
	.st58{fill:url(#SVGID_46_);}
	.st59{fill:url(#SVGID_47_);}
	.st60{fill:url(#SVGID_48_);}
	.st61{fill:none;stroke:#000000;stroke-width:0.75;stroke-miterlimit:10;}
	.st62{fill:url(#SVGID_49_);stroke:#000000;stroke-width:0.5;stroke-miterlimit:10;}
	.st63{fill:url(#SVGID_50_);stroke:#000000;stroke-width:0.5;stroke-miterlimit:10;}
	.st64{fill:url(#SVGID_51_);stroke:#000000;stroke-width:0.5;stroke-miterlimit:10;}
	.st65{fill:url(#SVGID_52_);stroke:#000000;stroke-width:0.5;stroke-miterlimit:10;}
	.st66{fill:url(#SVGID_53_);}
	.st67{fill:url(#SVGID_54_);}
	.st68{fill:url(#SVGID_55_);}
	.st69{fill:url(#SVGID_56_);}
	.st70{fill:none;stroke:#000000;stroke-width:0.5;stroke-miterlimit:10;}
	.st71{fill:url(#SVGID_57_);}
	.st72{fill:url(#SVGID_58_);}
	.st73{fill:url(#SVGID_59_);}
	.st74{fill:url(#SVGID_60_);}
	.st75{fill:url(#SVGID_61_);}
	.st76{fill:url(#SVGID_62_);}
	.st77{fill:url(#SVGID_63_);}
	.st78{fill:url(#SVGID_64_);}
	.st79{fill:#808080;}
	.st80{fill:url(#SVGID_65_);stroke:url(#SVGID_66_);stroke-width:0.5;stroke-miterlimit:10;}
	.st81{fill:#999999;}
</style>
<rect x="231" y="14" class="st0" width="64" height="64"/>
<linearGradient id="SVGID_1_" gradientUnits="userSpaceOnUse" x1="31.9975" y1="19.5248" x2="31.1225" y2="28.2748">
	<stop  offset="0" style="stop-color:#821C24"/>
	<stop  offset="1" style="stop-color:#F41E1E"/>
</linearGradient>
<polyline class="st1" points="28,19 28,25.5 36,20.5 36,13.5 28,18.5 "/>
<rect x="69.6" y="52" width="47" height="47"/>
<rect x="-114" y="-104" width="45" height="45"/>
<rect x="52" y="731" width="160" height="160"/>
<rect x="-437.3" y="1006.7" width="686.2" height="444"/>
<rect x="-585.1" y="1478.3" width="640" height="862.3"/>
<g>
	<polygon class="st2" points="309.1,2165.8 337.4,2148.8 337.4,2083.4 309.1,2100.4 	"/>
	<polygon class="st2" points="337.4,2146.4 337.4,2083.4 283.2,2123.4 	"/>
	<polygon class="st2" points="245.6,2172.8 337.4,2118.7 337.4,2083.4 245.6,2137.5 245.6,2153.2 	"/>
	<polygon class="st2" points="337.4,2118.7 337.4,2083.4 245.6,2137.5 	"/>
</g>
<g>
	<g>
		<path class="st3" d="M358.2,2094.3h2l3.8,10.1h-2.3l-0.8-2.3h-3.5l-0.8,2.3h-2.2L358.2,2094.3z M360.4,2100.3l-1.2-3.6l-1.2,3.6
			H360.4z"/>
		<path class="st3" d="M370,2094.3h3.6c0.8,0,1.4,0.1,2,0.3s0.9,0.4,1.2,0.7c0.3,0.3,0.5,0.6,0.6,1c0.1,0.4,0.2,0.7,0.2,1.1
			c0,0.6-0.1,1.2-0.4,1.6s-0.6,0.8-1.2,1.1l2,4.3h-2.3l-1.7-3.8h-0.4h-1.6v3.8H370V2094.3z M373.7,2098.8c0.3,0,0.6,0,0.8-0.1
			c0.2-0.1,0.4-0.2,0.5-0.3c0.1-0.1,0.2-0.3,0.3-0.5s0.1-0.4,0.1-0.6c0-0.2,0-0.4-0.1-0.5c-0.1-0.2-0.2-0.3-0.3-0.4
			s-0.3-0.2-0.6-0.3c-0.2-0.1-0.5-0.1-0.9-0.1h-1.5v2.8H373.7z"/>
		<path class="st3" d="M384.1,2094.3h2.1v4l3.7-4h2.3l-3.3,3.8l3.7,6.3h-2.3l-2.8-4.9l-1.2,1.2v3.7h-2.1V2094.3z"/>
		<path class="st3" d="M363.9,2117.3c0,0.5-0.2,1-0.4,1.5c-0.2,0.5-0.5,0.9-0.8,1.2c-0.4,0.3-0.8,0.6-1.3,0.8
			c-0.5,0.2-1.1,0.3-1.8,0.3c-0.8,0-1.4-0.1-2-0.4s-1.1-0.6-1.5-1.1c-0.4-0.5-0.7-1-0.9-1.7c-0.2-0.7-0.3-1.4-0.3-2.2
			c0-0.8,0.1-1.6,0.3-2.2c0.2-0.6,0.5-1.2,0.9-1.7c0.4-0.5,0.9-0.8,1.5-1.1c0.6-0.2,1.2-0.4,1.9-0.4c0.6,0,1.2,0.1,1.7,0.2
			c0.5,0.2,0.9,0.4,1.2,0.7c0.3,0.3,0.6,0.7,0.8,1.1c0.2,0.4,0.3,0.9,0.4,1.4l-2.1,0.3c-0.1-0.6-0.3-1.1-0.6-1.4
			c-0.3-0.3-0.8-0.5-1.4-0.5c-0.8,0-1.4,0.3-1.8,0.9c-0.4,0.6-0.6,1.5-0.6,2.6c0,1.1,0.2,2,0.7,2.6c0.4,0.6,1,0.9,1.8,0.9
			c0.6,0,1.1-0.2,1.4-0.5s0.5-0.8,0.6-1.4H363.9z"/>
		<path class="st3" d="M374.7,2121.1c-0.8,0-1.4-0.1-2-0.4c-0.6-0.2-1.1-0.6-1.5-1.1s-0.7-1-1-1.7c-0.2-0.6-0.3-1.4-0.3-2.2
			c0-0.8,0.1-1.6,0.3-2.2c0.2-0.6,0.5-1.2,1-1.7c0.4-0.5,0.9-0.8,1.5-1.1c0.6-0.2,1.3-0.4,2-0.4c0.8,0,1.4,0.1,2,0.4
			c0.6,0.2,1.1,0.6,1.5,1.1c0.4,0.5,0.7,1,0.9,1.7c0.2,0.6,0.3,1.4,0.3,2.2c0,0.8-0.1,1.6-0.3,2.2s-0.5,1.2-0.9,1.7
			s-0.9,0.8-1.5,1.1C376.2,2120.9,375.5,2121.1,374.7,2121.1z M374.7,2119.3c0.9,0,1.5-0.3,2-0.9c0.4-0.6,0.6-1.5,0.6-2.6
			c0-1.1-0.2-2-0.6-2.6c-0.4-0.6-1.1-0.9-2-0.9s-1.5,0.3-2,0.9c-0.4,0.6-0.6,1.5-0.6,2.6c0,1.1,0.2,2,0.6,2.6
			C373.2,2119,373.8,2119.3,374.7,2119.3z"/>
		<path class="st3" d="M386.1,2110.7h2.5l2.5,7.5l2.6-7.5h2.5v10.1h-1.9v-6.7l-2.3,6.7h-1.6l-2.3-6.7v6.7h-1.9V2110.7z"/>
		<path class="st3" d="M403.1,2110.7h2.5l2.5,7.5l2.6-7.5h2.5v10.1h-1.9v-6.7l-2.3,6.7h-1.6l-2.3-6.7v6.7h-1.9V2110.7z"/>
		<path class="st3" d="M419.9,2110.7h2.1v6c0,0.9,0.2,1.5,0.5,1.9c0.3,0.4,0.8,0.6,1.5,0.6c0.7,0,1.2-0.2,1.5-0.6s0.4-1,0.4-1.9v-6
			h2.1v6c0,0.8-0.1,1.4-0.3,2s-0.5,1-0.8,1.3c-0.3,0.4-0.8,0.6-1.3,0.8c-0.5,0.2-1.1,0.2-1.7,0.2c-0.6,0-1.2-0.1-1.7-0.3
			c-0.5-0.2-0.9-0.4-1.3-0.8c-0.3-0.4-0.6-0.8-0.8-1.4c-0.2-0.6-0.3-1.2-0.3-2V2110.7z"/>
		<path class="st3" d="M434.7,2110.7h1.9l4.2,6.6v-6.6h2v10.1H441l-4.2-6.6v6.6h-2V2110.7z"/>
		<path class="st3" d="M449.7,2110.7h2.1v10.1h-2.1V2110.7z"/>
		<path class="st3" d="M461.1,2112.5h-3v-1.8h8.2v1.8h-3v8.3h-2.1V2112.5z"/>
		<path class="st3" d="M475.4,2116.7l-3.5-6h2.3l2.2,4.1l2.2-4.1h2.2l-3.4,6v4.1h-2.1V2116.7z"/>
		<path class="st3" d="M355.3,2127.2h6.6v1.8h-4.5v2.4h4.2v1.8h-4.2v4.1h-2.1V2127.2z"/>
		<path class="st3" d="M368.2,2127.2h2.1v6c0,0.9,0.2,1.5,0.5,1.9c0.3,0.4,0.8,0.6,1.5,0.6c0.7,0,1.2-0.2,1.5-0.6s0.4-1,0.4-1.9v-6
			h2.1v6c0,0.8-0.1,1.4-0.3,2s-0.5,1-0.8,1.3c-0.3,0.4-0.8,0.6-1.3,0.8c-0.5,0.2-1.1,0.2-1.7,0.2c-0.6,0-1.2-0.1-1.7-0.3
			c-0.5-0.2-0.9-0.4-1.3-0.8c-0.3-0.4-0.6-0.8-0.8-1.4c-0.2-0.6-0.3-1.2-0.3-2V2127.2z"/>
		<path class="st3" d="M383.1,2127.2h1.9l4.2,6.6v-6.6h2v10.1h-1.9l-4.2-6.6v6.6h-2V2127.2z"/>
		<path class="st3" d="M398.1,2127.2h3.8c1.5,0,2.7,0.4,3.6,1.3s1.3,2.1,1.3,3.7c0,0.8-0.1,1.6-0.4,2.2c-0.2,0.6-0.6,1.2-1,1.6
			c-0.5,0.4-1,0.8-1.7,1c-0.6,0.2-1.4,0.3-2.2,0.3h-3.4V2127.2z M401.5,2135.5c0.5,0,1-0.1,1.4-0.2c0.4-0.2,0.7-0.4,0.9-0.7
			c0.2-0.3,0.4-0.6,0.5-1c0.1-0.4,0.2-0.8,0.2-1.3c0-0.5,0-0.9-0.1-1.3c-0.1-0.4-0.3-0.7-0.5-1s-0.5-0.5-0.8-0.6
			c-0.3-0.2-0.8-0.2-1.3-0.2h-1.7v6.5H401.5z"/>
	</g>
</g>
<g>
	<g>
		<path class="st3" d="M358.2,1663.7h2l3.8,10.1h-2.3l-0.8-2.3h-3.5l-0.8,2.3h-2.2L358.2,1663.7z M360.4,1669.7l-1.2-3.6l-1.2,3.6
			H360.4z"/>
		<path class="st3" d="M370,1663.7h3.6c0.8,0,1.4,0.1,2,0.3s0.9,0.4,1.2,0.7c0.3,0.3,0.5,0.6,0.6,1c0.1,0.4,0.2,0.7,0.2,1.1
			c0,0.6-0.1,1.2-0.4,1.6s-0.6,0.8-1.2,1.1l2,4.3h-2.3l-1.7-3.8h-0.4h-1.6v3.8H370V1663.7z M373.7,1668.2c0.3,0,0.6,0,0.8-0.1
			c0.2-0.1,0.4-0.2,0.5-0.3c0.1-0.1,0.2-0.3,0.3-0.5c0-0.2,0.1-0.4,0.1-0.6c0-0.2,0-0.4-0.1-0.5c-0.1-0.2-0.2-0.3-0.3-0.4
			c-0.1-0.1-0.3-0.2-0.6-0.3c-0.2-0.1-0.5-0.1-0.9-0.1h-1.5v2.8H373.7z"/>
		<path class="st3" d="M384.1,1663.7h2.1v4l3.7-4h2.3l-3.3,3.8l3.7,6.3h-2.3l-2.8-4.9l-1.2,1.2v3.7h-2.1V1663.7z"/>
		<path class="st3" d="M363.9,1686.7c0,0.5-0.2,1-0.4,1.5c-0.2,0.5-0.5,0.9-0.8,1.2c-0.4,0.3-0.8,0.6-1.3,0.8
			c-0.5,0.2-1.1,0.3-1.8,0.3c-0.8,0-1.4-0.1-2-0.4c-0.6-0.3-1.1-0.6-1.5-1.1c-0.4-0.5-0.7-1-0.9-1.7c-0.2-0.7-0.3-1.4-0.3-2.2
			c0-0.8,0.1-1.6,0.3-2.2c0.2-0.6,0.5-1.2,0.9-1.7c0.4-0.5,0.9-0.8,1.5-1.1c0.6-0.2,1.2-0.4,1.9-0.4c0.6,0,1.2,0.1,1.7,0.2
			c0.5,0.2,0.9,0.4,1.2,0.7c0.3,0.3,0.6,0.7,0.8,1.1c0.2,0.4,0.3,0.9,0.4,1.4l-2.1,0.3c-0.1-0.6-0.3-1.1-0.6-1.4
			c-0.3-0.3-0.8-0.5-1.4-0.5c-0.8,0-1.4,0.3-1.8,0.9c-0.4,0.6-0.6,1.5-0.6,2.6c0,1.1,0.2,2,0.7,2.6c0.4,0.6,1,0.9,1.8,0.9
			c0.6,0,1.1-0.2,1.4-0.5c0.3-0.3,0.5-0.8,0.6-1.4H363.9z"/>
		<path class="st3" d="M374.7,1690.5c-0.8,0-1.4-0.1-2-0.4s-1.1-0.6-1.5-1.1c-0.4-0.5-0.7-1-1-1.7c-0.2-0.6-0.3-1.4-0.3-2.2
			s0.1-1.6,0.3-2.2c0.2-0.6,0.5-1.2,1-1.7c0.4-0.5,0.9-0.8,1.5-1.1c0.6-0.2,1.3-0.4,2-0.4c0.8,0,1.4,0.1,2,0.4
			c0.6,0.2,1.1,0.6,1.5,1.1c0.4,0.5,0.7,1,0.9,1.7c0.2,0.6,0.3,1.4,0.3,2.2s-0.1,1.6-0.3,2.2c-0.2,0.6-0.5,1.2-0.9,1.7
			c-0.4,0.5-0.9,0.8-1.5,1.1S375.5,1690.5,374.7,1690.5z M374.7,1688.7c0.9,0,1.5-0.3,2-0.9c0.4-0.6,0.6-1.5,0.6-2.6
			c0-1.1-0.2-2-0.6-2.6c-0.4-0.6-1.1-0.9-2-0.9s-1.5,0.3-2,0.9c-0.4,0.6-0.6,1.5-0.6,2.6c0,1.1,0.2,2,0.6,2.6
			C373.2,1688.4,373.8,1688.7,374.7,1688.7z"/>
		<path class="st3" d="M386.1,1680.1h2.5l2.5,7.5l2.6-7.5h2.5v10.1h-1.9v-6.7l-2.3,6.7h-1.6l-2.3-6.7v6.7h-1.9V1680.1z"/>
		<path class="st3" d="M403.1,1680.1h2.5l2.5,7.5l2.6-7.5h2.5v10.1h-1.9v-6.7l-2.3,6.7h-1.6l-2.3-6.7v6.7h-1.9V1680.1z"/>
		<path class="st3" d="M419.9,1680.1h2.1v6c0,0.9,0.2,1.5,0.5,1.9c0.3,0.4,0.8,0.6,1.5,0.6c0.7,0,1.2-0.2,1.5-0.6
			c0.3-0.4,0.4-1,0.4-1.9v-6h2.1v6c0,0.8-0.1,1.4-0.3,2s-0.5,1-0.8,1.3c-0.3,0.4-0.8,0.6-1.3,0.8c-0.5,0.2-1.1,0.2-1.7,0.2
			c-0.6,0-1.2-0.1-1.7-0.3c-0.5-0.2-0.9-0.4-1.3-0.8c-0.3-0.4-0.6-0.8-0.8-1.4c-0.2-0.6-0.3-1.2-0.3-2V1680.1z"/>
		<path class="st3" d="M434.7,1680.1h1.9l4.2,6.6v-6.6h2v10.1H441l-4.2-6.6v6.6h-2V1680.1z"/>
		<path class="st3" d="M449.7,1680.1h2.1v10.1h-2.1V1680.1z"/>
		<path class="st3" d="M461.1,1682h-3v-1.8h8.2v1.8h-3v8.3h-2.1V1682z"/>
		<path class="st3" d="M475.4,1686.1l-3.5-6h2.3l2.2,4.1l2.2-4.1h2.2l-3.4,6v4.1h-2.1V1686.1z"/>
		<path class="st3" d="M355.3,1696.6h6.6v1.8h-4.5v2.4h4.2v1.8h-4.2v4.1h-2.1V1696.6z"/>
		<path class="st3" d="M368.2,1696.6h2.1v6c0,0.9,0.2,1.5,0.5,1.9c0.3,0.4,0.8,0.6,1.5,0.6c0.7,0,1.2-0.2,1.5-0.6
			c0.3-0.4,0.4-1,0.4-1.9v-6h2.1v6c0,0.8-0.1,1.4-0.3,2s-0.5,1-0.8,1.3c-0.3,0.4-0.8,0.6-1.3,0.8c-0.5,0.2-1.1,0.2-1.7,0.2
			c-0.6,0-1.2-0.1-1.7-0.3c-0.5-0.2-0.9-0.4-1.3-0.8c-0.3-0.4-0.6-0.8-0.8-1.4c-0.2-0.6-0.3-1.2-0.3-2V1696.6z"/>
		<path class="st3" d="M383.1,1696.6h1.9l4.2,6.6v-6.6h2v10.1h-1.9l-4.2-6.6v6.6h-2V1696.6z"/>
		<path class="st3" d="M398.1,1696.6h3.8c1.5,0,2.7,0.4,3.6,1.3c0.9,0.8,1.3,2.1,1.3,3.7c0,0.8-0.1,1.6-0.4,2.2s-0.6,1.2-1,1.6
			c-0.5,0.4-1,0.8-1.7,1c-0.6,0.2-1.4,0.3-2.2,0.3h-3.4V1696.6z M401.5,1704.9c0.5,0,1-0.1,1.4-0.2s0.7-0.4,0.9-0.7
			c0.2-0.3,0.4-0.6,0.5-1c0.1-0.4,0.2-0.8,0.2-1.3c0-0.5,0-0.9-0.1-1.3c-0.1-0.4-0.3-0.7-0.5-1s-0.5-0.5-0.8-0.6s-0.8-0.2-1.3-0.2
			h-1.7v6.5H401.5z"/>
	</g>
</g>
<g>
	<polygon class="st4" points="-325.1,2165.8 -296.9,2148.8 -296.9,2083.4 -325.1,2100.4 	"/>
	<polygon class="st4" points="-296.9,2146.4 -296.9,2083.4 -351,2123.4 	"/>
	<polygon class="st4" points="-388.6,2172.8 -296.9,2118.7 -296.9,2083.4 -388.6,2137.5 -388.6,2153.2 	"/>
	<polygon class="st4" points="-296.9,2118.7 -296.9,2083.4 -388.6,2137.5 	"/>
</g>
<g>
	<g>
		<path class="st0" d="M-277.8,2094.3h2l3.8,10.1h-2.3l-0.8-2.3h-3.5l-0.8,2.3h-2.2L-277.8,2094.3z M-275.6,2100.3l-1.2-3.6
			l-1.2,3.6H-275.6z"/>
		<path class="st0" d="M-266,2094.3h3.6c0.8,0,1.4,0.1,2,0.3c0.5,0.2,0.9,0.4,1.2,0.7c0.3,0.3,0.5,0.6,0.6,1
			c0.1,0.4,0.2,0.7,0.2,1.1c0,0.6-0.1,1.2-0.4,1.6c-0.2,0.4-0.6,0.8-1.2,1.1l2,4.3h-2.3l-1.7-3.8h-0.4h-1.6v3.8h-2.1V2094.3z
			 M-262.3,2098.8c0.3,0,0.6,0,0.8-0.1c0.2-0.1,0.4-0.2,0.5-0.3s0.2-0.3,0.3-0.5c0-0.2,0.1-0.4,0.1-0.6c0-0.2,0-0.4-0.1-0.5
			c-0.1-0.2-0.2-0.3-0.3-0.4s-0.3-0.2-0.6-0.3c-0.2-0.1-0.5-0.1-0.9-0.1h-1.5v2.8H-262.3z"/>
		<path class="st0" d="M-251.9,2094.3h2.1v4l3.7-4h2.3l-3.3,3.8l3.7,6.3h-2.3l-2.8-4.9l-1.2,1.2v3.7h-2.1V2094.3z"/>
		<path class="st0" d="M-272.1,2117.3c0,0.5-0.2,1-0.4,1.5c-0.2,0.5-0.5,0.9-0.8,1.2c-0.4,0.3-0.8,0.6-1.3,0.8
			c-0.5,0.2-1.1,0.3-1.8,0.3c-0.8,0-1.4-0.1-2-0.4c-0.6-0.3-1.1-0.6-1.5-1.1c-0.4-0.5-0.7-1-0.9-1.7s-0.3-1.4-0.3-2.2
			c0-0.8,0.1-1.6,0.3-2.2c0.2-0.6,0.5-1.2,0.9-1.7c0.4-0.5,0.9-0.8,1.5-1.1c0.6-0.2,1.2-0.4,1.9-0.4c0.6,0,1.2,0.1,1.7,0.2
			c0.5,0.2,0.9,0.4,1.2,0.7c0.3,0.3,0.6,0.7,0.8,1.1c0.2,0.4,0.3,0.9,0.4,1.4l-2.1,0.3c-0.1-0.6-0.3-1.1-0.6-1.4
			c-0.3-0.3-0.8-0.5-1.4-0.5c-0.8,0-1.4,0.3-1.8,0.9c-0.4,0.6-0.6,1.5-0.6,2.6c0,1.1,0.2,2,0.7,2.6c0.4,0.6,1,0.9,1.8,0.9
			c0.6,0,1.1-0.2,1.4-0.5c0.3-0.3,0.5-0.8,0.6-1.4H-272.1z"/>
		<path class="st0" d="M-261.3,2121.1c-0.8,0-1.4-0.1-2-0.4c-0.6-0.2-1.1-0.6-1.5-1.1c-0.4-0.5-0.7-1-1-1.7s-0.3-1.4-0.3-2.2
			c0-0.8,0.1-1.6,0.3-2.2s0.5-1.2,1-1.7s0.9-0.8,1.5-1.1c0.6-0.2,1.3-0.4,2-0.4c0.8,0,1.4,0.1,2,0.4c0.6,0.2,1.1,0.6,1.5,1.1
			c0.4,0.5,0.7,1,0.9,1.7c0.2,0.6,0.3,1.4,0.3,2.2c0,0.8-0.1,1.6-0.3,2.2s-0.5,1.2-0.9,1.7c-0.4,0.5-0.9,0.8-1.5,1.1
			C-259.8,2120.9-260.5,2121.1-261.3,2121.1z M-261.3,2119.3c0.9,0,1.5-0.3,2-0.9c0.4-0.6,0.6-1.5,0.6-2.6c0-1.1-0.2-2-0.6-2.6
			c-0.4-0.6-1.1-0.9-2-0.9s-1.5,0.3-2,0.9c-0.4,0.6-0.6,1.5-0.6,2.6c0,1.1,0.2,2,0.6,2.6C-262.8,2119-262.2,2119.3-261.3,2119.3z"/>
		<path class="st0" d="M-249.9,2110.7h2.5l2.5,7.5l2.6-7.5h2.5v10.1h-1.9v-6.7l-2.3,6.7h-1.6l-2.3-6.7v6.7h-1.9V2110.7z"/>
		<path class="st0" d="M-232.9,2110.7h2.5l2.5,7.5l2.6-7.5h2.5v10.1h-1.9v-6.7l-2.3,6.7h-1.6l-2.3-6.7v6.7h-1.9V2110.7z"/>
		<path class="st0" d="M-216.1,2110.7h2.1v6c0,0.9,0.2,1.5,0.5,1.9s0.8,0.6,1.5,0.6c0.7,0,1.2-0.2,1.5-0.6s0.4-1,0.4-1.9v-6h2.1v6
			c0,0.8-0.1,1.4-0.3,2c-0.2,0.5-0.5,1-0.8,1.3c-0.3,0.4-0.8,0.6-1.3,0.8c-0.5,0.2-1.1,0.2-1.7,0.2c-0.6,0-1.2-0.1-1.7-0.3
			s-0.9-0.4-1.3-0.8c-0.3-0.4-0.6-0.8-0.8-1.4c-0.2-0.6-0.3-1.2-0.3-2V2110.7z"/>
		<path class="st0" d="M-201.3,2110.7h1.9l4.2,6.6v-6.6h2v10.1h-1.9l-4.2-6.6v6.6h-2V2110.7z"/>
		<path class="st0" d="M-186.3,2110.7h2.1v10.1h-2.1V2110.7z"/>
		<path class="st0" d="M-174.9,2112.5h-3v-1.8h8.2v1.8h-3v8.3h-2.1V2112.5z"/>
		<path class="st0" d="M-160.6,2116.7l-3.5-6h2.3l2.2,4.1l2.2-4.1h2.2l-3.4,6v4.1h-2.1V2116.7z"/>
		<path class="st0" d="M-280.7,2127.2h6.6v1.8h-4.5v2.4h4.2v1.8h-4.2v4.1h-2.1V2127.2z"/>
		<path class="st0" d="M-267.8,2127.2h2.1v6c0,0.9,0.2,1.5,0.5,1.9s0.8,0.6,1.5,0.6c0.7,0,1.2-0.2,1.5-0.6s0.4-1,0.4-1.9v-6h2.1v6
			c0,0.8-0.1,1.4-0.3,2c-0.2,0.5-0.5,1-0.8,1.3c-0.3,0.4-0.8,0.6-1.3,0.8c-0.5,0.2-1.1,0.2-1.7,0.2c-0.6,0-1.2-0.1-1.7-0.3
			s-0.9-0.4-1.3-0.8c-0.3-0.4-0.6-0.8-0.8-1.4c-0.2-0.6-0.3-1.2-0.3-2V2127.2z"/>
		<path class="st0" d="M-252.9,2127.2h1.9l4.2,6.6v-6.6h2v10.1h-1.9l-4.2-6.6v6.6h-2V2127.2z"/>
		<path class="st0" d="M-237.9,2127.2h3.8c1.5,0,2.7,0.4,3.6,1.3c0.9,0.8,1.3,2.1,1.3,3.7c0,0.8-0.1,1.6-0.4,2.2
			c-0.2,0.6-0.6,1.2-1,1.6s-1,0.8-1.7,1c-0.6,0.2-1.4,0.3-2.2,0.3h-3.4V2127.2z M-234.5,2135.5c0.5,0,1-0.1,1.4-0.2
			c0.4-0.2,0.7-0.4,0.9-0.7c0.2-0.3,0.4-0.6,0.5-1c0.1-0.4,0.2-0.8,0.2-1.3c0-0.5,0-0.9-0.1-1.3c-0.1-0.4-0.3-0.7-0.5-1
			c-0.2-0.3-0.5-0.5-0.8-0.6c-0.3-0.2-0.8-0.2-1.3-0.2h-1.7v6.5H-234.5z"/>
	</g>
</g>
<line class="st5" x1="-585" y1="1909.4" x2="695" y2="1909.4"/>
<g>
	<g>
		<path class="st0" d="M-277.8,1665.3h2l3.8,10.1h-2.3l-0.8-2.3h-3.5l-0.8,2.3h-2.2L-277.8,1665.3z M-275.6,1671.3l-1.2-3.6
			l-1.2,3.6H-275.6z"/>
		<path class="st0" d="M-266,1665.3h3.6c0.8,0,1.4,0.1,2,0.3c0.5,0.2,0.9,0.4,1.2,0.7c0.3,0.3,0.5,0.6,0.6,1
			c0.1,0.4,0.2,0.7,0.2,1.1c0,0.6-0.1,1.2-0.4,1.6c-0.2,0.4-0.6,0.8-1.2,1.1l2,4.3h-2.3l-1.7-3.8h-0.4h-1.6v3.8h-2.1V1665.3z
			 M-262.3,1669.9c0.3,0,0.6,0,0.8-0.1c0.2-0.1,0.4-0.2,0.5-0.3s0.2-0.3,0.3-0.5c0-0.2,0.1-0.4,0.1-0.6c0-0.2,0-0.4-0.1-0.5
			s-0.2-0.3-0.3-0.4c-0.1-0.1-0.3-0.2-0.6-0.3c-0.2-0.1-0.5-0.1-0.9-0.1h-1.5v2.8H-262.3z"/>
		<path class="st0" d="M-251.9,1665.3h2.1v4l3.7-4h2.3l-3.3,3.8l3.7,6.3h-2.3l-2.8-4.9l-1.2,1.2v3.7h-2.1V1665.3z"/>
		<path class="st0" d="M-272.1,1688.4c0,0.5-0.2,1-0.4,1.5c-0.2,0.5-0.5,0.9-0.8,1.2c-0.4,0.3-0.8,0.6-1.3,0.8
			c-0.5,0.2-1.1,0.3-1.8,0.3c-0.8,0-1.4-0.1-2-0.4c-0.6-0.3-1.1-0.6-1.5-1.1c-0.4-0.5-0.7-1-0.9-1.7c-0.2-0.7-0.3-1.4-0.3-2.2
			c0-0.8,0.1-1.6,0.3-2.2c0.2-0.6,0.5-1.2,0.9-1.7c0.4-0.5,0.9-0.8,1.5-1.1c0.6-0.2,1.2-0.4,1.9-0.4c0.6,0,1.2,0.1,1.7,0.2
			c0.5,0.2,0.9,0.4,1.2,0.7s0.6,0.7,0.8,1.1c0.2,0.4,0.3,0.9,0.4,1.4l-2.1,0.3c-0.1-0.6-0.3-1.1-0.6-1.4c-0.3-0.3-0.8-0.5-1.4-0.5
			c-0.8,0-1.4,0.3-1.8,0.9c-0.4,0.6-0.6,1.5-0.6,2.6c0,1.1,0.2,2,0.7,2.6c0.4,0.6,1,0.9,1.8,0.9c0.6,0,1.1-0.2,1.4-0.5
			c0.3-0.3,0.5-0.8,0.6-1.4H-272.1z"/>
		<path class="st0" d="M-261.3,1692.1c-0.8,0-1.4-0.1-2-0.4c-0.6-0.2-1.1-0.6-1.5-1.1c-0.4-0.5-0.7-1-1-1.7
			c-0.2-0.6-0.3-1.4-0.3-2.2s0.1-1.6,0.3-2.2s0.5-1.2,1-1.7c0.4-0.5,0.9-0.8,1.5-1.1c0.6-0.2,1.3-0.4,2-0.4c0.8,0,1.4,0.1,2,0.4
			c0.6,0.2,1.1,0.6,1.5,1.1c0.4,0.5,0.7,1,0.9,1.7c0.2,0.6,0.3,1.4,0.3,2.2s-0.1,1.6-0.3,2.2c-0.2,0.6-0.5,1.2-0.9,1.7
			c-0.4,0.5-0.9,0.8-1.5,1.1C-259.8,1692-260.5,1692.1-261.3,1692.1z M-261.3,1690.3c0.9,0,1.5-0.3,2-0.9c0.4-0.6,0.6-1.5,0.6-2.6
			c0-1.1-0.2-2-0.6-2.6c-0.4-0.6-1.1-0.9-2-0.9s-1.5,0.3-2,0.9c-0.4,0.6-0.6,1.5-0.6,2.6c0,1.1,0.2,2,0.6,2.6
			C-262.8,1690-262.2,1690.3-261.3,1690.3z"/>
		<path class="st0" d="M-249.9,1681.8h2.5l2.5,7.5l2.6-7.5h2.5v10.1h-1.9v-6.7l-2.3,6.7h-1.6l-2.3-6.7v6.7h-1.9V1681.8z"/>
		<path class="st0" d="M-232.9,1681.8h2.5l2.5,7.5l2.6-7.5h2.5v10.1h-1.9v-6.7l-2.3,6.7h-1.6l-2.3-6.7v6.7h-1.9V1681.8z"/>
		<path class="st0" d="M-216.1,1681.8h2.1v6c0,0.9,0.2,1.5,0.5,1.9c0.3,0.4,0.8,0.6,1.5,0.6c0.7,0,1.2-0.2,1.5-0.6
			c0.3-0.4,0.4-1,0.4-1.9v-6h2.1v6c0,0.8-0.1,1.4-0.3,2c-0.2,0.5-0.5,1-0.8,1.3c-0.3,0.4-0.8,0.6-1.3,0.8s-1.1,0.2-1.7,0.2
			c-0.6,0-1.2-0.1-1.7-0.3s-0.9-0.4-1.3-0.8c-0.3-0.4-0.6-0.8-0.8-1.4c-0.2-0.6-0.3-1.2-0.3-2V1681.8z"/>
		<path class="st0" d="M-201.3,1681.8h1.9l4.2,6.6v-6.6h2v10.1h-1.9l-4.2-6.6v6.6h-2V1681.8z"/>
		<path class="st0" d="M-186.3,1681.8h2.1v10.1h-2.1V1681.8z"/>
		<path class="st0" d="M-174.9,1683.6h-3v-1.8h8.2v1.8h-3v8.3h-2.1V1683.6z"/>
		<path class="st0" d="M-160.6,1687.8l-3.5-6h2.3l2.2,4.1l2.2-4.1h2.2l-3.4,6v4.1h-2.1V1687.8z"/>
		<path class="st0" d="M-280.7,1698.3h6.6v1.8h-4.5v2.4h4.2v1.8h-4.2v4.1h-2.1V1698.3z"/>
		<path class="st0" d="M-267.8,1698.3h2.1v6c0,0.9,0.2,1.5,0.5,1.9c0.3,0.4,0.8,0.6,1.5,0.6c0.7,0,1.2-0.2,1.5-0.6
			c0.3-0.4,0.4-1,0.4-1.9v-6h2.1v6c0,0.8-0.1,1.4-0.3,2c-0.2,0.5-0.5,1-0.8,1.3c-0.3,0.4-0.8,0.6-1.3,0.8s-1.1,0.2-1.7,0.2
			c-0.6,0-1.2-0.1-1.7-0.3s-0.9-0.4-1.3-0.8c-0.3-0.4-0.6-0.8-0.8-1.4c-0.2-0.6-0.3-1.2-0.3-2V1698.3z"/>
		<path class="st0" d="M-252.9,1698.3h1.9l4.2,6.6v-6.6h2v10.1h-1.9l-4.2-6.6v6.6h-2V1698.3z"/>
		<path class="st0" d="M-237.9,1698.3h3.8c1.5,0,2.7,0.4,3.6,1.3c0.9,0.8,1.3,2.1,1.3,3.7c0,0.8-0.1,1.6-0.4,2.2
			c-0.2,0.6-0.6,1.2-1,1.6c-0.5,0.4-1,0.8-1.7,1c-0.6,0.2-1.4,0.3-2.2,0.3h-3.4V1698.3z M-234.5,1706.5c0.5,0,1-0.1,1.4-0.2
			c0.4-0.2,0.7-0.4,0.9-0.7c0.2-0.3,0.4-0.6,0.5-1c0.1-0.4,0.2-0.8,0.2-1.3c0-0.5,0-0.9-0.1-1.3c-0.1-0.4-0.3-0.7-0.5-1
			c-0.2-0.3-0.5-0.5-0.8-0.6s-0.8-0.2-1.3-0.2h-1.7v6.5H-234.5z"/>
	</g>
</g>
<g>
	<g>
		<path class="st3" d="M1128.8,1592.7h5.2l9.8,26.2h-5.9l-2.1-6h-9.2l-2.1,6h-5.6L1128.8,1592.7z M1134.4,1608.3l-3.2-9.4l-3.1,9.4
			H1134.4z"/>
		<path class="st3" d="M1159.4,1592.7h9.3c2,0,3.7,0.2,5.1,0.7c1.3,0.5,2.4,1.1,3.1,1.9c0.8,0.8,1.3,1.6,1.6,2.6
			c0.3,0.9,0.4,1.9,0.4,2.8c0,1.7-0.3,3.1-0.9,4.2c-0.6,1.1-1.6,2.1-3.1,2.9l5.3,11.1h-5.9l-4.4-9.8h-0.9h-4.2v9.8h-5.4V1592.7z
			 M1169.1,1604.5c0.9,0,1.6-0.1,2.1-0.3c0.6-0.2,1-0.4,1.3-0.8c0.3-0.3,0.6-0.7,0.7-1.2c0.1-0.5,0.2-1,0.2-1.5
			c0-0.5-0.1-0.9-0.2-1.3c-0.1-0.4-0.4-0.8-0.7-1.1c-0.4-0.3-0.8-0.6-1.5-0.8c-0.6-0.2-1.4-0.3-2.4-0.3h-3.8v7.3H1169.1z"/>
		<path class="st3" d="M1195.9,1592.7h5.5v10.5l9.6-10.5h6l-8.7,9.8l9.6,16.3h-6.1l-7.4-12.8l-3.1,3.2v9.6h-5.5V1592.7z"/>
		<path class="st3" d="M1143.6,1652.5c-0.1,1.4-0.4,2.7-1,3.9c-0.5,1.2-1.2,2.2-2.2,3.1c-0.9,0.9-2,1.5-3.4,2
			c-1.3,0.5-2.9,0.7-4.6,0.7c-2,0-3.7-0.3-5.2-1c-1.5-0.7-2.8-1.6-3.8-2.8c-1-1.2-1.8-2.6-2.3-4.3c-0.5-1.7-0.8-3.6-0.8-5.6
			c0-2.1,0.3-4,0.8-5.7c0.6-1.7,1.4-3.1,2.4-4.3c1.1-1.2,2.3-2.1,3.8-2.7c1.5-0.6,3.2-1,5.1-1c1.7,0,3.1,0.2,4.3,0.6
			c1.2,0.4,2.3,1,3.1,1.8c0.8,0.8,1.5,1.7,2,2.8c0.5,1.1,0.9,2.3,1.1,3.7l-5.4,0.7c-0.3-1.5-0.8-2.7-1.6-3.6c-0.8-0.9-2-1.3-3.6-1.3
			c-2.1,0-3.7,0.8-4.8,2.4c-1.1,1.6-1.6,3.8-1.6,6.7c0,2.9,0.6,5.1,1.7,6.7c1.2,1.6,2.7,2.3,4.7,2.3c1.7,0,2.9-0.4,3.7-1.3
			c0.8-0.9,1.3-2.1,1.5-3.7H1143.6z"/>
		<path class="st3" d="M1171.6,1662.2c-2,0-3.7-0.3-5.2-1s-2.8-1.6-3.9-2.7c-1.1-1.2-1.9-2.6-2.5-4.3c-0.6-1.7-0.9-3.6-0.9-5.7
			c0-2.1,0.3-4,0.9-5.7c0.6-1.7,1.4-3.1,2.5-4.3c1.1-1.2,2.4-2.1,3.9-2.7c1.5-0.6,3.3-1,5.2-1c2,0,3.7,0.3,5.2,1
			c1.5,0.6,2.8,1.6,3.9,2.7c1.1,1.2,1.9,2.6,2.4,4.3c0.6,1.7,0.8,3.6,0.8,5.7c0,2.1-0.3,4-0.8,5.7c-0.5,1.7-1.4,3.1-2.4,4.3
			c-1.1,1.2-2.4,2.1-3.9,2.7S1173.6,1662.2,1171.6,1662.2z M1171.6,1657.5c2.3,0,4-0.8,5.1-2.3c1.1-1.6,1.7-3.8,1.7-6.7
			c0-2.9-0.6-5.1-1.7-6.7c-1.1-1.6-2.8-2.4-5.1-2.4c-2.3,0-4,0.8-5.1,2.4c-1.1,1.6-1.7,3.8-1.7,6.7c0,2.9,0.6,5.1,1.7,6.7
			C1167.6,1656.7,1169.3,1657.5,1171.6,1657.5z"/>
		<path class="st3" d="M1201.1,1635.4h6.6l6.5,19.5l6.7-19.5h6.4v26.2h-5v-17.4l-6,17.4h-4.2l-6-17.4v17.4h-4.9V1635.4z"/>
		<path class="st3" d="M1245.2,1635.4h6.6l6.5,19.5l6.7-19.5h6.4v26.2h-5v-17.4l-6,17.4h-4.2l-6-17.4v17.4h-4.9V1635.4z"/>
		<path class="st3" d="M1288.8,1635.4h5.5v15.6c0,2.2,0.4,3.9,1.2,4.9c0.8,1.1,2.1,1.6,3.9,1.6c1.8,0,3.1-0.5,3.9-1.6
			c0.8-1.1,1.2-2.7,1.2-4.9v-15.6h5.5v15.6c0,2-0.2,3.7-0.7,5.1c-0.5,1.4-1.2,2.6-2.1,3.5c-0.9,0.9-2,1.6-3.3,2
			c-1.3,0.4-2.8,0.6-4.4,0.6c-1.7,0-3.1-0.2-4.5-0.7c-1.3-0.4-2.4-1.1-3.3-2c-0.9-0.9-1.6-2.1-2-3.5c-0.5-1.4-0.7-3.1-0.7-5.1
			V1635.4z"/>
		<path class="st3" d="M1327.3,1635.4h4.9l10.8,17.1v-17.1h5.3v26.2h-4.9l-10.8-17v17h-5.3V1635.4z"/>
		<path class="st3" d="M1366.2,1635.4h5.5v26.2h-5.5V1635.4z"/>
		<path class="st3" d="M1395.6,1640.1h-7.9v-4.7h21.2v4.7h-7.9v21.4h-5.5V1640.1z"/>
		<path class="st3" d="M1432.7,1650.9l-9-15.5h6.1l5.6,10.6l5.8-10.6h5.8l-8.8,15.5v10.7h-5.5V1650.9z"/>
		<path class="st3" d="M1121.3,1678.1h17.2v4.7h-11.7v6.2h11v4.7h-11v10.6h-5.5V1678.1z"/>
		<path class="st3" d="M1154.7,1678.1h5.5v15.6c0,2.2,0.4,3.9,1.2,4.9c0.8,1.1,2.1,1.6,3.9,1.6c1.8,0,3.1-0.5,3.9-1.6
			c0.8-1.1,1.2-2.7,1.2-4.9v-15.6h5.5v15.6c0,2-0.2,3.7-0.7,5.1c-0.5,1.4-1.2,2.6-2.1,3.5c-0.9,0.9-2,1.6-3.3,2
			c-1.3,0.4-2.8,0.6-4.4,0.6c-1.7,0-3.1-0.2-4.5-0.7c-1.3-0.4-2.4-1.1-3.3-2c-0.9-0.9-1.6-2.1-2-3.5c-0.5-1.4-0.7-3.1-0.7-5.1
			V1678.1z"/>
		<path class="st3" d="M1193.2,1678.1h4.9l10.8,17.1v-17.1h5.3v26.2h-4.9l-10.8-17v17h-5.3V1678.1z"/>
		<path class="st3" d="M1232.2,1678.1h9.8c4,0,7.1,1.1,9.4,3.3c2.2,2.2,3.4,5.4,3.4,9.7c0,2.2-0.3,4.1-0.9,5.7s-1.5,3-2.7,4.1
			c-1.2,1.1-2.6,2-4.3,2.5c-1.7,0.6-3.6,0.8-5.7,0.8h-8.9V1678.1z M1241.1,1699.6c1.4,0,2.6-0.2,3.6-0.6c1-0.4,1.8-1,2.4-1.7
			c0.6-0.8,1.1-1.7,1.4-2.7c0.3-1,0.4-2.2,0.4-3.5c0-1.3-0.1-2.4-0.4-3.5c-0.3-1-0.7-1.9-1.2-2.6c-0.6-0.7-1.3-1.3-2.2-1.6
			c-0.9-0.4-2-0.6-3.3-0.6h-4.3v16.8H1241.1z"/>
	</g>
</g>
<g>
	<linearGradient id="SVGID_2_" gradientUnits="userSpaceOnUse" x1="1038.0295" y1="1603.2085" x2="1038.0295" y2="1863.6659">
		<stop  offset="0" style="stop-color:#631C24"/>
		<stop  offset="1" style="stop-color:#CC1E1E"/>
	</linearGradient>
	<polygon class="st6" points="1001.4,1778.2 1074.7,1734.1 1074.7,1564.5 1001.4,1608.6 	"/>
	<linearGradient id="SVGID_3_" gradientUnits="userSpaceOnUse" x1="1321.6267" y1="1655.2809" x2="1007.2513" y2="1647.7056">
		<stop  offset="0" style="stop-color:#8D1C24"/>
		<stop  offset="1" style="stop-color:#CC1E1E"/>
	</linearGradient>
	<polygon class="st7" points="1074.7,1734.1 1074.7,1564.5 934.3,1668.3 	"/>
	<linearGradient id="SVGID_4_" gradientUnits="userSpaceOnUse" x1="836.5883" y1="1680.5294" x2="1074.6553" y2="1680.5294">
		<stop  offset="0" style="stop-color:#831C24"/>
		<stop  offset="1" style="stop-color:#FF1E1E"/>
	</linearGradient>
	<polygon class="st8" points="836.6,1796.5 1074.7,1656.1 1074.7,1564.5 836.6,1704.9 836.6,1745.6 	"/>
	<linearGradient id="SVGID_5_" gradientUnits="userSpaceOnUse" x1="924.8075" y1="1672.4622" x2="1091.658" y2="1603.2803">
		<stop  offset="0" style="stop-color:#821C24"/>
		<stop  offset="1" style="stop-color:#F41E1E"/>
	</linearGradient>
	<polygon class="st9" points="1074.7,1656.1 1074.7,1564.5 836.6,1704.9 	"/>
</g>
<g>
	<g>
		<path class="st3" d="M1129.8,1887.7h5.2l9.8,26.2h-5.9l-2.1-6h-9.2l-2.1,6h-5.6L1129.8,1887.7z M1135.4,1903.3l-3.2-9.4l-3.1,9.4
			H1135.4z"/>
		<path class="st3" d="M1160.4,1887.7h9.3c2,0,3.7,0.2,5.1,0.7c1.3,0.5,2.4,1.1,3.1,1.9c0.8,0.8,1.3,1.6,1.6,2.6
			c0.3,0.9,0.4,1.9,0.4,2.8c0,1.7-0.3,3.1-0.9,4.2c-0.6,1.1-1.6,2.1-3.1,2.9l5.3,11.1h-5.9l-4.4-9.8h-0.9h-4.2v9.8h-5.4V1887.7z
			 M1170.1,1899.5c0.9,0,1.6-0.1,2.1-0.3c0.6-0.2,1-0.4,1.3-0.8c0.3-0.3,0.6-0.7,0.7-1.2c0.1-0.5,0.2-1,0.2-1.5
			c0-0.5-0.1-0.9-0.2-1.3c-0.1-0.4-0.4-0.8-0.7-1.1c-0.4-0.3-0.8-0.6-1.5-0.8c-0.6-0.2-1.4-0.3-2.4-0.3h-3.8v7.3H1170.1z"/>
		<path class="st3" d="M1196.9,1887.7h5.5v10.5l9.6-10.5h6l-8.7,9.8l9.6,16.3h-6.1l-7.4-12.8l-3.1,3.2v9.6h-5.5V1887.7z"/>
		<path class="st3" d="M1144.6,1947.5c-0.1,1.4-0.4,2.7-1,3.9c-0.5,1.2-1.2,2.2-2.2,3.1c-0.9,0.9-2,1.5-3.4,2
			c-1.3,0.5-2.9,0.7-4.6,0.7c-2,0-3.7-0.3-5.2-1c-1.5-0.7-2.8-1.6-3.8-2.8c-1-1.2-1.8-2.6-2.3-4.3c-0.5-1.7-0.8-3.6-0.8-5.6
			c0-2.1,0.3-4,0.8-5.7c0.6-1.7,1.4-3.1,2.4-4.3c1.1-1.2,2.3-2.1,3.8-2.7c1.5-0.6,3.2-1,5.1-1c1.7,0,3.1,0.2,4.3,0.6
			c1.2,0.4,2.3,1,3.1,1.8c0.8,0.8,1.5,1.7,2,2.8c0.5,1.1,0.9,2.3,1.1,3.7l-5.4,0.7c-0.3-1.5-0.8-2.7-1.6-3.6c-0.8-0.9-2-1.3-3.6-1.3
			c-2.1,0-3.7,0.8-4.8,2.4c-1.1,1.6-1.6,3.8-1.6,6.7c0,2.9,0.6,5.1,1.7,6.7c1.2,1.6,2.7,2.3,4.7,2.3c1.7,0,2.9-0.4,3.7-1.3
			c0.8-0.9,1.3-2.1,1.5-3.7H1144.6z"/>
		<path class="st3" d="M1172.6,1957.2c-2,0-3.7-0.3-5.2-1s-2.8-1.6-3.9-2.7c-1.1-1.2-1.9-2.6-2.5-4.3c-0.6-1.7-0.9-3.6-0.9-5.7
			c0-2.1,0.3-4,0.9-5.7c0.6-1.7,1.4-3.1,2.5-4.3c1.1-1.2,2.4-2.1,3.9-2.7c1.5-0.6,3.3-1,5.2-1c2,0,3.7,0.3,5.2,1
			c1.5,0.6,2.8,1.6,3.9,2.7c1.1,1.2,1.9,2.6,2.4,4.3c0.6,1.7,0.8,3.6,0.8,5.7c0,2.1-0.3,4-0.8,5.7c-0.5,1.7-1.4,3.1-2.4,4.3
			c-1.1,1.2-2.4,2.1-3.9,2.7S1174.6,1957.2,1172.6,1957.2z M1172.6,1952.5c2.3,0,4-0.8,5.1-2.3c1.1-1.6,1.7-3.8,1.7-6.7
			c0-2.9-0.6-5.1-1.7-6.7c-1.1-1.6-2.8-2.4-5.1-2.4c-2.3,0-4,0.8-5.1,2.4c-1.1,1.6-1.7,3.8-1.7,6.7c0,2.9,0.6,5.1,1.7,6.7
			C1168.6,1951.7,1170.3,1952.5,1172.6,1952.5z"/>
		<path class="st3" d="M1202.1,1930.4h6.6l6.5,19.5l6.7-19.5h6.4v26.2h-5v-17.4l-6,17.4h-4.2l-6-17.4v17.4h-4.9V1930.4z"/>
		<path class="st3" d="M1246.2,1930.4h6.6l6.5,19.5l6.7-19.5h6.4v26.2h-5v-17.4l-6,17.4h-4.2l-6-17.4v17.4h-4.9V1930.4z"/>
		<path class="st3" d="M1289.8,1930.4h5.5v15.6c0,2.2,0.4,3.9,1.2,4.9c0.8,1.1,2.1,1.6,3.9,1.6c1.8,0,3.1-0.5,3.9-1.6
			c0.8-1.1,1.2-2.7,1.2-4.9v-15.6h5.5v15.6c0,2-0.2,3.7-0.7,5.1c-0.5,1.4-1.2,2.6-2.1,3.5c-0.9,0.9-2,1.6-3.3,2
			c-1.3,0.4-2.8,0.6-4.4,0.6c-1.7,0-3.1-0.2-4.5-0.7c-1.3-0.4-2.4-1.1-3.3-2c-0.9-0.9-1.6-2.1-2-3.5c-0.5-1.4-0.7-3.1-0.7-5.1
			V1930.4z"/>
		<path class="st3" d="M1328.3,1930.4h4.9l10.8,17.1v-17.1h5.3v26.2h-4.9l-10.8-17v17h-5.3V1930.4z"/>
		<path class="st3" d="M1367.2,1930.4h5.5v26.2h-5.5V1930.4z"/>
		<path class="st3" d="M1396.6,1935.1h-7.9v-4.7h21.2v4.7h-7.9v21.4h-5.5V1935.1z"/>
		<path class="st3" d="M1433.7,1945.9l-9-15.5h6.1l5.6,10.6l5.8-10.6h5.8l-8.8,15.5v10.7h-5.5V1945.9z"/>
		<path class="st3" d="M1122.3,1973.1h17.2v4.7h-11.7v6.2h11v4.7h-11v10.6h-5.5V1973.1z"/>
		<path class="st3" d="M1155.7,1973.1h5.5v15.6c0,2.2,0.4,3.9,1.2,4.9c0.8,1.1,2.1,1.6,3.9,1.6c1.8,0,3.1-0.5,3.9-1.6
			c0.8-1.1,1.2-2.7,1.2-4.9v-15.6h5.5v15.6c0,2-0.2,3.7-0.7,5.1c-0.5,1.4-1.2,2.6-2.1,3.5c-0.9,0.9-2,1.6-3.3,2
			c-1.3,0.4-2.8,0.6-4.4,0.6c-1.7,0-3.1-0.2-4.5-0.7c-1.3-0.4-2.4-1.1-3.3-2c-0.9-0.9-1.6-2.1-2-3.5c-0.5-1.4-0.7-3.1-0.7-5.1
			V1973.1z"/>
		<path class="st3" d="M1194.2,1973.1h4.9l10.8,17.1v-17.1h5.3v26.2h-4.9l-10.8-17v17h-5.3V1973.1z"/>
		<path class="st3" d="M1233.2,1973.1h9.8c4,0,7.1,1.1,9.4,3.3c2.2,2.2,3.4,5.4,3.4,9.7c0,2.2-0.3,4.1-0.9,5.7s-1.5,3-2.7,4.1
			c-1.2,1.1-2.6,2-4.3,2.5c-1.7,0.6-3.6,0.8-5.7,0.8h-8.9V1973.1z M1242.1,1994.6c1.4,0,2.6-0.2,3.6-0.6c1-0.4,1.8-1,2.4-1.7
			c0.6-0.8,1.1-1.7,1.4-2.7c0.3-1,0.4-2.2,0.4-3.5c0-1.3-0.1-2.4-0.4-3.5c-0.3-1-0.7-1.9-1.2-2.6c-0.6-0.7-1.3-1.3-2.2-1.6
			c-0.9-0.4-2-0.6-3.3-0.6h-4.3v16.8H1242.1z"/>
	</g>
</g>
<g>
	<g>
		<path class="st0" d="M1798.8,1593.7h5.2l9.8,26.2h-5.9l-2.1-6h-9.2l-2.1,6h-5.6L1798.8,1593.7z M1804.4,1609.3l-3.2-9.4l-3.1,9.4
			H1804.4z"/>
		<path class="st0" d="M1829.4,1593.7h9.3c2,0,3.7,0.2,5.1,0.7c1.3,0.5,2.4,1.1,3.1,1.9c0.8,0.8,1.3,1.6,1.6,2.6
			c0.3,0.9,0.4,1.9,0.4,2.8c0,1.7-0.3,3.1-0.9,4.2c-0.6,1.1-1.6,2.1-3.1,2.9l5.3,11.1h-5.9l-4.4-9.8h-0.9h-4.2v9.8h-5.4V1593.7z
			 M1839.1,1605.5c0.9,0,1.6-0.1,2.1-0.3c0.6-0.2,1-0.4,1.3-0.8c0.3-0.3,0.6-0.7,0.7-1.2c0.1-0.5,0.2-1,0.2-1.5
			c0-0.5-0.1-0.9-0.2-1.3c-0.1-0.4-0.4-0.8-0.7-1.1c-0.4-0.3-0.8-0.6-1.5-0.8c-0.6-0.2-1.4-0.3-2.4-0.3h-3.8v7.3H1839.1z"/>
		<path class="st0" d="M1865.9,1593.7h5.5v10.5l9.6-10.5h6l-8.7,9.8l9.6,16.3h-6.1l-7.4-12.8l-3.1,3.2v9.6h-5.5V1593.7z"/>
		<path class="st0" d="M1813.6,1653.5c-0.1,1.4-0.4,2.7-1,3.9c-0.5,1.2-1.2,2.2-2.2,3.1c-0.9,0.9-2,1.5-3.4,2
			c-1.3,0.5-2.9,0.7-4.6,0.7c-2,0-3.7-0.3-5.2-1c-1.5-0.7-2.8-1.6-3.8-2.8c-1-1.2-1.8-2.6-2.3-4.3c-0.5-1.7-0.8-3.6-0.8-5.6
			c0-2.1,0.3-4,0.8-5.7c0.6-1.7,1.4-3.1,2.4-4.3c1.1-1.2,2.3-2.1,3.8-2.7c1.5-0.6,3.2-1,5.1-1c1.7,0,3.1,0.2,4.3,0.6
			c1.2,0.4,2.3,1,3.1,1.8c0.8,0.8,1.5,1.7,2,2.8c0.5,1.1,0.9,2.3,1.1,3.7l-5.4,0.7c-0.3-1.5-0.8-2.7-1.6-3.6c-0.8-0.9-2-1.3-3.6-1.3
			c-2.1,0-3.7,0.8-4.8,2.4c-1.1,1.6-1.6,3.8-1.6,6.7c0,2.9,0.6,5.1,1.7,6.7c1.2,1.6,2.7,2.3,4.7,2.3c1.7,0,2.9-0.4,3.7-1.3
			c0.8-0.9,1.3-2.1,1.5-3.7H1813.6z"/>
		<path class="st0" d="M1841.6,1663.2c-2,0-3.7-0.3-5.2-1s-2.8-1.6-3.9-2.7c-1.1-1.2-1.9-2.6-2.5-4.3c-0.6-1.7-0.9-3.6-0.9-5.7
			c0-2.1,0.3-4,0.9-5.7c0.6-1.7,1.4-3.1,2.5-4.3c1.1-1.2,2.4-2.1,3.9-2.7c1.5-0.6,3.3-1,5.2-1c2,0,3.7,0.3,5.2,1
			c1.5,0.6,2.8,1.6,3.9,2.7c1.1,1.2,1.9,2.6,2.4,4.3c0.6,1.7,0.8,3.6,0.8,5.7c0,2.1-0.3,4-0.8,5.7c-0.5,1.7-1.4,3.1-2.4,4.3
			c-1.1,1.2-2.4,2.1-3.9,2.7S1843.6,1663.2,1841.6,1663.2z M1841.6,1658.5c2.3,0,4-0.8,5.1-2.3c1.1-1.6,1.7-3.8,1.7-6.7
			c0-2.9-0.6-5.1-1.7-6.7c-1.1-1.6-2.8-2.4-5.1-2.4c-2.3,0-4,0.8-5.1,2.4c-1.1,1.6-1.7,3.8-1.7,6.7c0,2.9,0.6,5.1,1.7,6.7
			C1837.6,1657.7,1839.3,1658.5,1841.6,1658.5z"/>
		<path class="st0" d="M1871.1,1636.4h6.6l6.5,19.5l6.7-19.5h6.4v26.2h-5v-17.4l-6,17.4h-4.2l-6-17.4v17.4h-4.9V1636.4z"/>
		<path class="st0" d="M1915.2,1636.4h6.6l6.5,19.5l6.7-19.5h6.4v26.2h-5v-17.4l-6,17.4h-4.2l-6-17.4v17.4h-4.9V1636.4z"/>
		<path class="st0" d="M1958.8,1636.4h5.5v15.6c0,2.2,0.4,3.9,1.2,4.9c0.8,1.1,2.1,1.6,3.9,1.6c1.8,0,3.1-0.5,3.9-1.6
			c0.8-1.1,1.2-2.7,1.2-4.9v-15.6h5.5v15.6c0,2-0.2,3.7-0.7,5.1c-0.5,1.4-1.2,2.6-2.1,3.5c-0.9,0.9-2,1.6-3.3,2
			c-1.3,0.4-2.8,0.6-4.4,0.6c-1.7,0-3.1-0.2-4.5-0.7c-1.3-0.4-2.4-1.1-3.3-2c-0.9-0.9-1.6-2.1-2-3.5c-0.5-1.4-0.7-3.1-0.7-5.1
			V1636.4z"/>
		<path class="st0" d="M1997.3,1636.4h4.9l10.8,17.1v-17.1h5.3v26.2h-4.9l-10.8-17v17h-5.3V1636.4z"/>
		<path class="st0" d="M2036.2,1636.4h5.5v26.2h-5.5V1636.4z"/>
		<path class="st0" d="M2065.6,1641.1h-7.9v-4.7h21.2v4.7h-7.9v21.4h-5.5V1641.1z"/>
		<path class="st0" d="M2102.7,1651.9l-9-15.5h6.1l5.6,10.6l5.8-10.6h5.8l-8.8,15.5v10.7h-5.5V1651.9z"/>
		<path class="st0" d="M1791.3,1679.1h17.2v4.7h-11.7v6.2h11v4.7h-11v10.6h-5.5V1679.1z"/>
		<path class="st0" d="M1824.7,1679.1h5.5v15.6c0,2.2,0.4,3.9,1.2,4.9c0.8,1.1,2.1,1.6,3.9,1.6c1.8,0,3.1-0.5,3.9-1.6
			c0.8-1.1,1.2-2.7,1.2-4.9v-15.6h5.5v15.6c0,2-0.2,3.7-0.7,5.1c-0.5,1.4-1.2,2.6-2.1,3.5c-0.9,0.9-2,1.6-3.3,2
			c-1.3,0.4-2.8,0.6-4.4,0.6c-1.7,0-3.1-0.2-4.5-0.7c-1.3-0.4-2.4-1.1-3.3-2c-0.9-0.9-1.6-2.1-2-3.5c-0.5-1.4-0.7-3.1-0.7-5.1
			V1679.1z"/>
		<path class="st0" d="M1863.2,1679.1h4.9l10.8,17.1v-17.1h5.3v26.2h-4.9l-10.8-17v17h-5.3V1679.1z"/>
		<path class="st0" d="M1902.2,1679.1h9.8c4,0,7.1,1.1,9.4,3.3c2.2,2.2,3.4,5.4,3.4,9.7c0,2.2-0.3,4.1-0.9,5.7s-1.5,3-2.7,4.1
			c-1.2,1.1-2.6,2-4.3,2.5c-1.7,0.6-3.6,0.8-5.7,0.8h-8.9V1679.1z M1911.1,1700.6c1.4,0,2.6-0.2,3.6-0.6c1-0.4,1.8-1,2.4-1.7
			c0.6-0.8,1.1-1.7,1.4-2.7c0.3-1,0.4-2.2,0.4-3.5c0-1.3-0.1-2.4-0.4-3.5c-0.3-1-0.7-1.9-1.2-2.6c-0.6-0.7-1.3-1.3-2.2-1.6
			c-0.9-0.4-2-0.6-3.3-0.6h-4.3v16.8H1911.1z"/>
	</g>
</g>
<g>
	<linearGradient id="SVGID_6_" gradientUnits="userSpaceOnUse" x1="1708.0295" y1="1604.2085" x2="1708.0295" y2="1864.6659">
		<stop  offset="0" style="stop-color:#631C24"/>
		<stop  offset="1" style="stop-color:#CC1E1E"/>
	</linearGradient>
	<polygon class="st10" points="1671.4,1779.2 1744.7,1735.1 1744.7,1565.5 1671.4,1609.6 	"/>
	<linearGradient id="SVGID_7_" gradientUnits="userSpaceOnUse" x1="1991.6267" y1="1656.2809" x2="1677.2513" y2="1648.7056">
		<stop  offset="0" style="stop-color:#8D1C24"/>
		<stop  offset="1" style="stop-color:#CC1E1E"/>
	</linearGradient>
	<polygon class="st11" points="1744.7,1735.1 1744.7,1565.5 1604.3,1669.3 	"/>
	<linearGradient id="SVGID_8_" gradientUnits="userSpaceOnUse" x1="1506.5883" y1="1681.5294" x2="1744.6553" y2="1681.5294">
		<stop  offset="0" style="stop-color:#831C24"/>
		<stop  offset="1" style="stop-color:#FF1E1E"/>
	</linearGradient>
	<polygon class="st12" points="1506.6,1797.5 1744.7,1657.1 1744.7,1565.5 1506.6,1705.9 1506.6,1746.6 	"/>
	<linearGradient id="SVGID_9_" gradientUnits="userSpaceOnUse" x1="1594.8075" y1="1673.4622" x2="1761.658" y2="1604.2803">
		<stop  offset="0" style="stop-color:#821C24"/>
		<stop  offset="1" style="stop-color:#F41E1E"/>
	</linearGradient>
	<polygon class="st13" points="1744.7,1657.1 1744.7,1565.5 1506.6,1705.9 	"/>
</g>
<g>
	<polygon class="st14" points="845.6,1998 845.6,2086 1073.6,1950 1073.6,1863.3 	"/>
	<polyline class="st14" points="1006.6,1990 1006.6,2064.5 1073.1,2020.5 1073.6,1951 845.6,1998 	"/>
	<line class="st14" x1="1006.6" y1="1990" x2="1073.6" y2="2020"/>
</g>
<g>
	<g>
		<path class="st0" d="M1791.8,1893.7h5.2l9.8,26.2h-5.9l-2.1-6h-9.2l-2.1,6h-5.6L1791.8,1893.7z M1797.4,1909.3l-3.2-9.4l-3.1,9.4
			H1797.4z"/>
		<path class="st0" d="M1822.4,1893.7h9.3c2,0,3.7,0.2,5.1,0.7c1.3,0.5,2.4,1.1,3.1,1.9c0.8,0.8,1.3,1.6,1.6,2.6
			c0.3,0.9,0.4,1.9,0.4,2.8c0,1.7-0.3,3.1-0.9,4.2c-0.6,1.1-1.6,2.1-3.1,2.9l5.3,11.1h-5.9l-4.4-9.8h-0.9h-4.2v9.8h-5.4V1893.7z
			 M1832.1,1905.5c0.9,0,1.6-0.1,2.1-0.3c0.6-0.2,1-0.4,1.3-0.8c0.3-0.3,0.6-0.7,0.7-1.2c0.1-0.5,0.2-1,0.2-1.5
			c0-0.5-0.1-0.9-0.2-1.3c-0.1-0.4-0.4-0.8-0.7-1.1c-0.4-0.3-0.8-0.6-1.5-0.8c-0.6-0.2-1.4-0.3-2.4-0.3h-3.8v7.3H1832.1z"/>
		<path class="st0" d="M1858.9,1893.7h5.5v10.5l9.6-10.5h6l-8.7,9.8l9.6,16.3h-6.1l-7.4-12.8l-3.1,3.2v9.6h-5.5V1893.7z"/>
		<path class="st0" d="M1806.6,1953.5c-0.1,1.4-0.4,2.7-1,3.9c-0.5,1.2-1.2,2.2-2.2,3.1c-0.9,0.9-2,1.5-3.4,2
			c-1.3,0.5-2.9,0.7-4.6,0.7c-2,0-3.7-0.3-5.2-1c-1.5-0.7-2.8-1.6-3.8-2.8c-1-1.2-1.8-2.6-2.3-4.3c-0.5-1.7-0.8-3.6-0.8-5.6
			c0-2.1,0.3-4,0.8-5.7c0.6-1.7,1.4-3.1,2.4-4.3c1.1-1.2,2.3-2.1,3.8-2.7c1.5-0.6,3.2-1,5.1-1c1.7,0,3.1,0.2,4.3,0.6
			c1.2,0.4,2.3,1,3.1,1.8c0.8,0.8,1.5,1.7,2,2.8c0.5,1.1,0.9,2.3,1.1,3.7l-5.4,0.7c-0.3-1.5-0.8-2.7-1.6-3.6c-0.8-0.9-2-1.3-3.6-1.3
			c-2.1,0-3.7,0.8-4.8,2.4c-1.1,1.6-1.6,3.8-1.6,6.7c0,2.9,0.6,5.1,1.7,6.7c1.2,1.6,2.7,2.3,4.7,2.3c1.7,0,2.9-0.4,3.7-1.3
			c0.8-0.9,1.3-2.1,1.5-3.7H1806.6z"/>
		<path class="st0" d="M1834.6,1963.2c-2,0-3.7-0.3-5.2-1s-2.8-1.6-3.9-2.7c-1.1-1.2-1.9-2.6-2.5-4.3c-0.6-1.7-0.9-3.6-0.9-5.7
			c0-2.1,0.3-4,0.9-5.7c0.6-1.7,1.4-3.1,2.5-4.3c1.1-1.2,2.4-2.1,3.9-2.7c1.5-0.6,3.3-1,5.2-1c2,0,3.7,0.3,5.2,1
			c1.5,0.6,2.8,1.6,3.9,2.7c1.1,1.2,1.9,2.6,2.4,4.3c0.6,1.7,0.8,3.6,0.8,5.7c0,2.1-0.3,4-0.8,5.7c-0.5,1.7-1.4,3.1-2.4,4.3
			c-1.1,1.2-2.4,2.1-3.9,2.7S1836.6,1963.2,1834.6,1963.2z M1834.6,1958.5c2.3,0,4-0.8,5.1-2.3c1.1-1.6,1.7-3.8,1.7-6.7
			c0-2.9-0.6-5.1-1.7-6.7c-1.1-1.6-2.8-2.4-5.1-2.4c-2.3,0-4,0.8-5.1,2.4c-1.1,1.6-1.7,3.8-1.7,6.7c0,2.9,0.6,5.1,1.7,6.7
			C1830.6,1957.7,1832.3,1958.5,1834.6,1958.5z"/>
		<path class="st0" d="M1864.1,1936.4h6.6l6.5,19.5l6.7-19.5h6.4v26.2h-5v-17.4l-6,17.4h-4.2l-6-17.4v17.4h-4.9V1936.4z"/>
		<path class="st0" d="M1908.2,1936.4h6.6l6.5,19.5l6.7-19.5h6.4v26.2h-5v-17.4l-6,17.4h-4.2l-6-17.4v17.4h-4.9V1936.4z"/>
		<path class="st0" d="M1951.8,1936.4h5.5v15.6c0,2.2,0.4,3.9,1.2,4.9c0.8,1.1,2.1,1.6,3.9,1.6c1.8,0,3.1-0.5,3.9-1.6
			c0.8-1.1,1.2-2.7,1.2-4.9v-15.6h5.5v15.6c0,2-0.2,3.7-0.7,5.1c-0.5,1.4-1.2,2.6-2.1,3.5c-0.9,0.9-2,1.6-3.3,2
			c-1.3,0.4-2.8,0.6-4.4,0.6c-1.7,0-3.1-0.2-4.5-0.7c-1.3-0.4-2.4-1.1-3.3-2c-0.9-0.9-1.6-2.1-2-3.5c-0.5-1.4-0.7-3.1-0.7-5.1
			V1936.4z"/>
		<path class="st0" d="M1990.3,1936.4h4.9l10.8,17.1v-17.1h5.3v26.2h-4.9l-10.8-17v17h-5.3V1936.4z"/>
		<path class="st0" d="M2029.2,1936.4h5.5v26.2h-5.5V1936.4z"/>
		<path class="st0" d="M2058.6,1941.1h-7.9v-4.7h21.2v4.7h-7.9v21.4h-5.5V1941.1z"/>
		<path class="st0" d="M2095.7,1951.9l-9-15.5h6.1l5.6,10.6l5.8-10.6h5.8l-8.8,15.5v10.7h-5.5V1951.9z"/>
		<path class="st0" d="M1784.3,1979.1h17.2v4.7h-11.7v6.2h11v4.7h-11v10.6h-5.5V1979.1z"/>
		<path class="st0" d="M1817.7,1979.1h5.5v15.6c0,2.2,0.4,3.9,1.2,4.9c0.8,1.1,2.1,1.6,3.9,1.6c1.8,0,3.1-0.5,3.9-1.6
			c0.8-1.1,1.2-2.7,1.2-4.9v-15.6h5.5v15.6c0,2-0.2,3.7-0.7,5.1c-0.5,1.4-1.2,2.6-2.1,3.5c-0.9,0.9-2,1.6-3.3,2
			c-1.3,0.4-2.8,0.6-4.4,0.6c-1.7,0-3.1-0.2-4.5-0.7c-1.3-0.4-2.4-1.1-3.3-2c-0.9-0.9-1.6-2.1-2-3.5c-0.5-1.4-0.7-3.1-0.7-5.1
			V1979.1z"/>
		<path class="st0" d="M1856.2,1979.1h4.9l10.8,17.1v-17.1h5.3v26.2h-4.9l-10.8-17v17h-5.3V1979.1z"/>
		<path class="st0" d="M1895.2,1979.1h9.8c4,0,7.1,1.1,9.4,3.3c2.2,2.2,3.4,5.4,3.4,9.7c0,2.2-0.3,4.1-0.9,5.7s-1.5,3-2.7,4.1
			c-1.2,1.1-2.6,2-4.3,2.5c-1.7,0.6-3.6,0.8-5.7,0.8h-8.9V1979.1z M1904.1,2000.6c1.4,0,2.6-0.2,3.6-0.6c1-0.4,1.8-1,2.4-1.7
			c0.6-0.8,1.1-1.7,1.4-2.7c0.3-1,0.4-2.2,0.4-3.5c0-1.3-0.1-2.4-0.4-3.5c-0.3-1-0.7-1.9-1.2-2.6c-0.6-0.7-1.3-1.3-2.2-1.6
			c-0.9-0.4-2-0.6-3.3-0.6h-4.3v16.8H1904.1z"/>
	</g>
</g>
<g>
	<polygon class="st15" points="1507.6,2004 1507.6,2092 1735.6,1956 1735.6,1869.3 	"/>
	<polyline class="st15" points="1668.6,1996 1668.6,2070.5 1735.1,2026.5 1735.6,1957 1507.6,2004 	"/>
	<line class="st15" x1="1668.6" y1="1996" x2="1735.6" y2="2026"/>
</g>
<g>
	<linearGradient id="SVGID_10_" gradientUnits="userSpaceOnUse" x1="324" y1="1668.7255" x2="324" y2="1769.1207">
		<stop  offset="0" style="stop-color:#631C24"/>
		<stop  offset="1" style="stop-color:#CC1E1E"/>
	</linearGradient>
	<polygon class="st16" points="309.9,1736.2 338.1,1719.2 338.1,1653.8 309.9,1670.8 	"/>
	<linearGradient id="SVGID_11_" gradientUnits="userSpaceOnUse" x1="433.3146" y1="1688.7971" x2="312.1363" y2="1685.8772">
		<stop  offset="0" style="stop-color:#8D1C24"/>
		<stop  offset="1" style="stop-color:#CC1E1E"/>
	</linearGradient>
	<polygon class="st17" points="338.1,1719.2 338.1,1653.8 284,1693.8 	"/>
	<linearGradient id="SVGID_12_" gradientUnits="userSpaceOnUse" x1="246.3529" y1="1698.5294" x2="338.1176" y2="1698.5294">
		<stop  offset="0" style="stop-color:#8D1C24"/>
		<stop  offset="1" style="stop-color:#FF1E1E"/>
	</linearGradient>
	<polygon class="st18" points="246.4,1743.2 338.1,1689.1 338.1,1653.8 246.4,1707.9 246.4,1723.6 	"/>
	<linearGradient id="SVGID_13_" gradientUnits="userSpaceOnUse" x1="280.3577" y1="1695.4198" x2="344.6714" y2="1668.7532">
		<stop  offset="0" style="stop-color:#821C24"/>
		<stop  offset="1" style="stop-color:#F41E1E"/>
	</linearGradient>
	<polygon class="st19" points="338.1,1689.1 338.1,1653.8 246.4,1707.9 	"/>
</g>
<g>
	<linearGradient id="SVGID_14_" gradientUnits="userSpaceOnUse" x1="-311" y1="1671.7255" x2="-311" y2="1772.1207">
		<stop  offset="0" style="stop-color:#631C24"/>
		<stop  offset="1" style="stop-color:#CC1E1E"/>
	</linearGradient>
	<polygon class="st20" points="-325.1,1739.2 -296.9,1722.2 -296.9,1656.8 -325.1,1673.8 	"/>
	<linearGradient id="SVGID_15_" gradientUnits="userSpaceOnUse" x1="-201.6854" y1="1691.7971" x2="-322.8637" y2="1688.8772">
		<stop  offset="0" style="stop-color:#8D1C24"/>
		<stop  offset="1" style="stop-color:#CC1E1E"/>
	</linearGradient>
	<polygon class="st21" points="-296.9,1722.2 -296.9,1656.8 -351,1696.8 	"/>
	<linearGradient id="SVGID_16_" gradientUnits="userSpaceOnUse" x1="-388.6471" y1="1701.5294" x2="-296.8824" y2="1701.5294">
		<stop  offset="0" style="stop-color:#8D1C24"/>
		<stop  offset="1" style="stop-color:#FF1E1E"/>
	</linearGradient>
	<polygon class="st22" points="-388.6,1746.2 -296.9,1692.1 -296.9,1656.8 -388.6,1710.9 -388.6,1726.6 	"/>
	<linearGradient id="SVGID_17_" gradientUnits="userSpaceOnUse" x1="-354.6423" y1="1698.4198" x2="-290.3286" y2="1671.7532">
		<stop  offset="0" style="stop-color:#821C24"/>
		<stop  offset="1" style="stop-color:#F41E1E"/>
	</linearGradient>
	<polygon class="st23" points="-296.9,1692.1 -296.9,1656.8 -388.6,1710.9 	"/>
</g>
<g>
	<g>
		<path class="st0" d="M374.3,1144.7h2.5l4.8,12.8h-2.9l-1-3h-4.5l-1,3h-2.8L374.3,1144.7z M377.1,1152.3l-1.6-4.6l-1.5,4.6H377.1z"
			/>
		<path class="st0" d="M389.3,1144.7h4.5c1,0,1.8,0.1,2.5,0.3c0.7,0.2,1.2,0.5,1.5,0.9c0.4,0.4,0.6,0.8,0.8,1.3
			c0.1,0.5,0.2,0.9,0.2,1.4c0,0.8-0.1,1.5-0.4,2.1c-0.3,0.6-0.8,1-1.5,1.4l2.6,5.4h-2.9l-2.2-4.8H394h-2.1v4.8h-2.6V1144.7z
			 M394,1150.5c0.4,0,0.8,0,1-0.1c0.3-0.1,0.5-0.2,0.7-0.4s0.3-0.4,0.3-0.6c0.1-0.2,0.1-0.5,0.1-0.8c0-0.2,0-0.4-0.1-0.7
			s-0.2-0.4-0.4-0.6c-0.2-0.2-0.4-0.3-0.7-0.4c-0.3-0.1-0.7-0.1-1.2-0.1h-1.8v3.6H394z"/>
		<path class="st0" d="M407.2,1144.7h2.7v5.1l4.7-5.1h2.9l-4.2,4.8l4.7,8h-3l-3.6-6.3l-1.5,1.6v4.7h-2.7V1144.7z"/>
		<path class="st0" d="M381.6,1174c-0.1,0.7-0.2,1.3-0.5,1.9c-0.3,0.6-0.6,1.1-1.1,1.5c-0.4,0.4-1,0.8-1.6,1
			c-0.7,0.2-1.4,0.4-2.3,0.4c-1,0-1.8-0.2-2.6-0.5c-0.7-0.3-1.4-0.8-1.8-1.4c-0.5-0.6-0.9-1.3-1.1-2.1c-0.3-0.8-0.4-1.7-0.4-2.8
			c0-1,0.1-2,0.4-2.8c0.3-0.8,0.7-1.5,1.2-2.1c0.5-0.6,1.1-1,1.9-1.3c0.7-0.3,1.6-0.5,2.5-0.5c0.8,0,1.5,0.1,2.1,0.3
			c0.6,0.2,1.1,0.5,1.5,0.9c0.4,0.4,0.7,0.8,1,1.4c0.3,0.5,0.4,1.1,0.6,1.8l-2.7,0.3c-0.1-0.8-0.4-1.3-0.8-1.8
			c-0.4-0.4-1-0.6-1.8-0.6c-1,0-1.8,0.4-2.3,1.2c-0.5,0.8-0.8,1.9-0.8,3.3c0,1.4,0.3,2.5,0.9,3.3c0.6,0.8,1.3,1.1,2.3,1.1
			c0.8,0,1.4-0.2,1.8-0.6c0.4-0.4,0.6-1,0.7-1.8H381.6z"/>
		<path class="st0" d="M395.3,1178.7c-1,0-1.8-0.2-2.6-0.5c-0.8-0.3-1.4-0.8-1.9-1.3c-0.5-0.6-0.9-1.3-1.2-2.1
			c-0.3-0.8-0.4-1.8-0.4-2.8s0.1-2,0.4-2.8c0.3-0.8,0.7-1.5,1.2-2.1c0.5-0.6,1.2-1,1.9-1.3c0.8-0.3,1.6-0.5,2.5-0.5
			c1,0,1.8,0.2,2.6,0.5c0.8,0.3,1.4,0.8,1.9,1.3c0.5,0.6,0.9,1.3,1.2,2.1c0.3,0.8,0.4,1.8,0.4,2.8s-0.1,2-0.4,2.8
			c-0.3,0.8-0.7,1.5-1.2,2.1c-0.5,0.6-1.2,1-1.9,1.3C397.1,1178.6,396.2,1178.7,395.3,1178.7z M395.3,1176.4c1.1,0,2-0.4,2.5-1.1
			c0.5-0.8,0.8-1.9,0.8-3.3c0-1.4-0.3-2.5-0.8-3.3c-0.6-0.8-1.4-1.2-2.5-1.2s-2,0.4-2.5,1.2c-0.6,0.8-0.8,1.9-0.8,3.3
			c0,1.4,0.3,2.5,0.8,3.3C393.3,1176.1,394.1,1176.4,395.3,1176.4z"/>
		<path class="st0" d="M409.7,1165.6h3.2l3.2,9.6l3.3-9.6h3.1v12.8h-2.5v-8.5l-2.9,8.5h-2.1l-2.9-8.5v8.5h-2.4V1165.6z"/>
		<path class="st0" d="M431.3,1165.6h3.2l3.2,9.6l3.3-9.6h3.1v12.8h-2.5v-8.5l-2.9,8.5h-2.1l-2.9-8.5v8.5h-2.4V1165.6z"/>
		<path class="st0" d="M452.6,1165.6h2.7v7.6c0,1.1,0.2,1.9,0.6,2.4c0.4,0.5,1,0.8,1.9,0.8c0.9,0,1.5-0.3,1.9-0.8
			c0.4-0.5,0.6-1.3,0.6-2.4v-7.6h2.7v7.6c0,1-0.1,1.8-0.4,2.5c-0.2,0.7-0.6,1.3-1,1.7c-0.4,0.4-1,0.8-1.6,1
			c-0.6,0.2-1.4,0.3-2.2,0.3c-0.8,0-1.5-0.1-2.2-0.3s-1.2-0.5-1.6-1c-0.4-0.4-0.8-1-1-1.7c-0.2-0.7-0.3-1.5-0.3-2.5V1165.6z"/>
		<path class="st0" d="M471.5,1165.6h2.4l5.3,8.4v-8.4h2.6v12.8h-2.4l-5.3-8.3v8.3h-2.6V1165.6z"/>
		<path class="st0" d="M490.6,1165.6h2.7v12.8h-2.7V1165.6z"/>
		<path class="st0" d="M504.9,1167.9h-3.9v-2.3h10.4v2.3h-3.9v10.5h-2.7V1167.9z"/>
		<path class="st0" d="M523.1,1173.2l-4.4-7.6h3l2.8,5.2l2.9-5.2h2.8l-4.3,7.6v5.2h-2.7V1173.2z"/>
		<path class="st0" d="M370.6,1186.5h8.4v2.3h-5.7v3h5.4v2.3h-5.4v5.2h-2.7V1186.5z"/>
		<path class="st0" d="M387,1186.5h2.7v7.6c0,1.1,0.2,1.9,0.6,2.4c0.4,0.5,1,0.8,1.9,0.8c0.9,0,1.5-0.3,1.9-0.8
			c0.4-0.5,0.6-1.3,0.6-2.4v-7.6h2.7v7.6c0,1-0.1,1.8-0.4,2.5c-0.2,0.7-0.6,1.3-1,1.7c-0.4,0.4-1,0.8-1.6,1
			c-0.6,0.2-1.4,0.3-2.2,0.3c-0.8,0-1.5-0.1-2.2-0.3s-1.2-0.5-1.6-1c-0.4-0.4-0.8-1-1-1.7c-0.2-0.7-0.3-1.5-0.3-2.5V1186.5z"/>
		<path class="st0" d="M405.9,1186.5h2.4l5.3,8.4v-8.4h2.6v12.8h-2.4l-5.3-8.3v8.3h-2.6V1186.5z"/>
		<path class="st0" d="M424.9,1186.5h4.8c2,0,3.5,0.5,4.6,1.6c1.1,1.1,1.6,2.6,1.6,4.7c0,1.1-0.2,2-0.5,2.8c-0.3,0.8-0.7,1.5-1.3,2
			c-0.6,0.6-1.3,1-2.1,1.2c-0.8,0.3-1.8,0.4-2.8,0.4h-4.3V1186.5z M429.3,1197.1c0.7,0,1.3-0.1,1.8-0.3c0.5-0.2,0.9-0.5,1.2-0.9
			c0.3-0.4,0.5-0.8,0.7-1.3c0.1-0.5,0.2-1.1,0.2-1.7c0-0.6-0.1-1.2-0.2-1.7c-0.1-0.5-0.3-0.9-0.6-1.3c-0.3-0.3-0.6-0.6-1.1-0.8
			c-0.4-0.2-1-0.3-1.6-0.3h-2.1v8.2H429.3z"/>
	</g>
</g>
<g>
	<linearGradient id="SVGID_18_" gradientUnits="userSpaceOnUse" x1="-143.8764" y1="1190.8372" x2="-143.8764" y2="1318.3358">
		<stop  offset="0" style="stop-color:#631C24"/>
		<stop  offset="1" style="stop-color:#CC1E1E"/>
	</linearGradient>
	<polygon class="st24" points="-161.8,1276.5 -125.9,1254.9 -125.9,1171.9 -161.8,1193.5 	"/>
	<linearGradient id="SVGID_19_" gradientUnits="userSpaceOnUse" x1="-5.0504" y1="1216.3275" x2="-158.9429" y2="1212.6193">
		<stop  offset="0" style="stop-color:#8D1C24"/>
		<stop  offset="1" style="stop-color:#CC1E1E"/>
	</linearGradient>
	<polygon class="st25" points="-125.9,1254.9 -125.9,1171.9 -194.7,1222.7 	"/>
	<linearGradient id="SVGID_20_" gradientUnits="userSpaceOnUse" x1="-242.4856" y1="1228.6871" x2="-125.9474" y2="1228.6871">
		<stop  offset="0" style="stop-color:#8D1C24"/>
		<stop  offset="1" style="stop-color:#FF1E1E"/>
	</linearGradient>
	<polygon class="st26" points="-242.5,1285.5 -125.9,1216.7 -125.9,1171.9 -242.5,1240.6 -242.5,1260.6 	"/>
	<linearGradient id="SVGID_21_" gradientUnits="userSpaceOnUse" x1="-199.3006" y1="1224.738" x2="-117.6243" y2="1190.8723">
		<stop  offset="0" style="stop-color:#821C24"/>
		<stop  offset="1" style="stop-color:#F41E1E"/>
	</linearGradient>
	<polygon class="st27" points="-125.9,1216.7 -125.9,1171.9 -242.5,1240.6 	"/>
</g>
<rect x="-244" y="1294" class="st45" width="160" height="62"/>
<text transform="matrix(1 0 0 1 -244 1320.4175)" class="st0" style="font-family:'AktivGrotesk-Bold'; font-size:37px; letter-spacing:18;">ACF</text>
<rect x="-126" y="731" width="160" height="160"/>
<g>
	<linearGradient id="SVGID_22_" gradientUnits="userSpaceOnUse" x1="-14.0935" y1="753.2601" x2="-14.0935" y2="870.1343">
		<stop  offset="0" style="stop-color:#631C24"/>
		<stop  offset="1" style="stop-color:#CC1E1E"/>
	</linearGradient>
	<polygon class="st28" points="-30.5,831.8 2.3,812 2.3,735.9 -30.5,755.7 	"/>
	<linearGradient id="SVGID_23_" gradientUnits="userSpaceOnUse" x1="113.1641" y1="776.6264" x2="-27.9045" y2="773.2271">
		<stop  offset="0" style="stop-color:#8D1C24"/>
		<stop  offset="1" style="stop-color:#CC1E1E"/>
	</linearGradient>
	<polygon class="st29" points="2.3,812 2.3,735.9 -60.7,782.5 	"/>
	<linearGradient id="SVGID_24_" gradientUnits="userSpaceOnUse" x1="-104.4856" y1="787.9561" x2="2.3414" y2="787.9561">
		<stop  offset="0" style="stop-color:#8D1C24"/>
		<stop  offset="1" style="stop-color:#FF1E1E"/>
	</linearGradient>
	<polygon class="st30" points="-104.5,840 2.3,777 2.3,735.9 -104.5,798.9 -104.5,817.2 	"/>
	<linearGradient id="SVGID_25_" gradientUnits="userSpaceOnUse" x1="-64.8992" y1="784.3361" x2="9.971" y2="753.2924">
		<stop  offset="0" style="stop-color:#821C24"/>
		<stop  offset="1" style="stop-color:#F41E1E"/>
	</linearGradient>
	<polygon class="st31" points="2.3,777 2.3,735.9 -104.5,798.9 	"/>
</g>
<rect x="395" y="721" class="st45" width="42" height="145"/>
<text transform="matrix(1 0 0 1 399.9688 750.2734)"><tspan x="0" y="0" class="st0" style="font-family:'AktivGrotesk-Black'; font-size:41px; letter-spacing:32;">A</tspan><tspan x="0.9" y="49.2" class="st0" style="font-family:'AktivGrotesk-Black'; font-size:41px; letter-spacing:32;">C</tspan><tspan x="3.7" y="98.4" class="st0" style="font-family:'AktivGrotesk-Black'; font-size:41px; letter-spacing:32;">F</tspan></text>
<path class="st0" d="M-101.3,843.6h1.7l3.2,8.5h-1.9l-0.7-2h-3l-0.7,2h-1.8L-101.3,843.6z M-99.4,848.7l-1-3.1l-1,3.1H-99.4z"/>
<path class="st0" d="M-91.3,843.6h3c0.7,0,1.2,0.1,1.7,0.2c0.4,0.2,0.8,0.4,1,0.6c0.2,0.3,0.4,0.5,0.5,0.8c0.1,0.3,0.1,0.6,0.1,0.9
	c0,0.5-0.1,1-0.3,1.4c-0.2,0.4-0.5,0.7-1,0.9l1.7,3.6h-1.9l-1.4-3.2h-0.3h-1.4v3.2h-1.8V843.6z M-88.1,847.5c0.3,0,0.5,0,0.7-0.1
	c0.2-0.1,0.3-0.1,0.4-0.3c0.1-0.1,0.2-0.2,0.2-0.4c0-0.2,0.1-0.3,0.1-0.5c0-0.2,0-0.3-0.1-0.4c0-0.1-0.1-0.3-0.2-0.4
	c-0.1-0.1-0.3-0.2-0.5-0.3c-0.2-0.1-0.5-0.1-0.8-0.1h-1.2v2.4H-88.1z"/>
<path class="st0" d="M-79.4,843.6h1.8v3.4l3.1-3.4h1.9l-2.8,3.2l3.1,5.3h-2l-2.4-4.2l-1,1v3.1h-1.8V843.6z"/>
<path class="st0" d="M246.6,897.6h6.2l11.6,31h-7l-2.5-7.2h-10.9l-2.5,7.2H235L246.6,897.6z M253.3,916.1l-3.8-11.1l-3.7,11.1H253.3
	z"/>
<path class="st0" d="M-96.9,863.2c0,0.5-0.1,0.9-0.3,1.3c-0.2,0.4-0.4,0.7-0.7,1c-0.3,0.3-0.7,0.5-1.1,0.7c-0.4,0.2-0.9,0.2-1.5,0.2
	c-0.6,0-1.2-0.1-1.7-0.3c-0.5-0.2-0.9-0.5-1.2-0.9c-0.3-0.4-0.6-0.9-0.7-1.4c-0.2-0.6-0.3-1.2-0.3-1.8c0-0.7,0.1-1.3,0.3-1.9
	c0.2-0.5,0.4-1,0.8-1.4c0.3-0.4,0.8-0.7,1.2-0.9c0.5-0.2,1-0.3,1.6-0.3c0.5,0,1,0.1,1.4,0.2c0.4,0.1,0.7,0.3,1,0.6s0.5,0.6,0.7,0.9
	c0.2,0.4,0.3,0.8,0.4,1.2l-1.8,0.2c-0.1-0.5-0.3-0.9-0.5-1.2c-0.3-0.3-0.6-0.4-1.2-0.4c-0.7,0-1.2,0.3-1.6,0.8
	c-0.4,0.5-0.5,1.2-0.5,2.2c0,0.9,0.2,1.7,0.6,2.2c0.4,0.5,0.9,0.8,1.5,0.8c0.5,0,1-0.1,1.2-0.4c0.3-0.3,0.4-0.7,0.5-1.2H-96.9z"/>
<path class="st0" d="M-87.8,866.3c-0.6,0-1.2-0.1-1.7-0.3c-0.5-0.2-0.9-0.5-1.3-0.9c-0.4-0.4-0.6-0.9-0.8-1.4
	c-0.2-0.5-0.3-1.2-0.3-1.9c0-0.7,0.1-1.3,0.3-1.9c0.2-0.5,0.5-1,0.8-1.4c0.4-0.4,0.8-0.7,1.3-0.9c0.5-0.2,1.1-0.3,1.7-0.3
	c0.6,0,1.2,0.1,1.7,0.3c0.5,0.2,0.9,0.5,1.3,0.9c0.3,0.4,0.6,0.9,0.8,1.4c0.2,0.5,0.3,1.2,0.3,1.9c0,0.7-0.1,1.3-0.3,1.9
	c-0.2,0.5-0.4,1-0.8,1.4c-0.3,0.4-0.8,0.7-1.3,0.9C-86.6,866.2-87.1,866.3-87.8,866.3z M-87.8,864.8c0.7,0,1.3-0.3,1.7-0.8
	c0.4-0.5,0.5-1.2,0.5-2.2c0-0.9-0.2-1.7-0.5-2.2c-0.4-0.5-0.9-0.8-1.7-0.8s-1.3,0.3-1.7,0.8c-0.4,0.5-0.5,1.2-0.5,2.2
	c0,0.9,0.2,1.7,0.5,2.2C-89.1,864.5-88.6,864.8-87.8,864.8z"/>
<path class="st0" d="M-78.2,857.6h2.1l2.1,6.4l2.2-6.4h2.1v8.5h-1.6v-5.7l-1.9,5.7h-1.4l-2-5.7v5.7h-1.6V857.6z"/>
<path class="st0" d="M-63.8,857.6h2.1l2.1,6.4l2.2-6.4h2.1v8.5h-1.6v-5.7l-1.9,5.7h-1.4l-2-5.7v5.7h-1.6V857.6z"/>
<path class="st0" d="M-49.6,857.6h1.8v5.1c0,0.7,0.1,1.3,0.4,1.6c0.3,0.4,0.7,0.5,1.3,0.5c0.6,0,1-0.2,1.3-0.5
	c0.3-0.4,0.4-0.9,0.4-1.6v-5.1h1.8v5.1c0,0.6-0.1,1.2-0.2,1.7c-0.2,0.5-0.4,0.8-0.7,1.1c-0.3,0.3-0.7,0.5-1.1,0.7
	c-0.4,0.1-0.9,0.2-1.4,0.2c-0.5,0-1-0.1-1.5-0.2s-0.8-0.4-1.1-0.7c-0.3-0.3-0.5-0.7-0.7-1.2c-0.2-0.5-0.2-1-0.2-1.7V857.6z"/>
<path class="st0" d="M-37,857.6h1.6l3.5,5.6v-5.6h1.7v8.5h-1.6l-3.5-5.5v5.5H-37V857.6z"/>
<path class="st0" d="M-24.3,857.6h1.8v8.5h-1.8V857.6z"/>
<path class="st0" d="M-14.8,859.1h-2.6v-1.5h6.9v1.5H-13v7h-1.8V859.1z"/>
<path class="st0" d="M-2.7,862.6l-2.9-5.1h2l1.8,3.5l1.9-3.5H2l-2.9,5.1v3.5h-1.8V862.6z"/>
<path class="st0" d="M293.2,917.1c-0.1,1.7-0.5,3.2-1.2,4.6c-0.6,1.4-1.5,2.6-2.6,3.7c-1.1,1-2.4,1.8-4,2.4
	c-1.6,0.6-3.4,0.9-5.5,0.9c-2.3,0-4.4-0.4-6.2-1.2c-1.8-0.8-3.3-1.9-4.5-3.3c-1.2-1.4-2.1-3.1-2.7-5.1c-0.6-2-0.9-4.2-0.9-6.7
	c0-2.5,0.3-4.8,1-6.8c0.7-2,1.6-3.7,2.9-5.1c1.2-1.4,2.8-2.5,4.5-3.3c1.8-0.8,3.8-1.1,6-1.1c2,0,3.7,0.2,5.1,0.7
	c1.5,0.5,2.7,1.2,3.7,2.1c1,0.9,1.8,2,2.4,3.3c0.6,1.3,1.1,2.8,1.3,4.4l-6.4,0.8c-0.3-1.8-0.9-3.3-1.8-4.3c-0.9-1-2.4-1.6-4.3-1.6
	c-2.5,0-4.4,0.9-5.7,2.8c-1.3,1.9-1.9,4.5-1.9,7.9c0,3.4,0.7,6.1,2.1,8c1.4,1.9,3.2,2.8,5.5,2.8c2,0,3.5-0.5,4.4-1.5
	c0.9-1,1.5-2.5,1.8-4.4H293.2z"/>
<path class="st0" d="M-104.5,871.5h5.6v1.5h-3.8v2h3.6v1.5h-3.6v3.5h-1.8V871.5z"/>
<path class="st0" d="M-93.6,871.5h1.8v5.1c0,0.7,0.1,1.3,0.4,1.6c0.3,0.4,0.7,0.5,1.3,0.5c0.6,0,1-0.2,1.3-0.5
	c0.3-0.4,0.4-0.9,0.4-1.6v-5.1h1.8v5.1c0,0.6-0.1,1.2-0.2,1.7c-0.2,0.5-0.4,0.8-0.7,1.1c-0.3,0.3-0.7,0.5-1.1,0.7
	c-0.4,0.1-0.9,0.2-1.4,0.2c-0.5,0-1-0.1-1.5-0.2s-0.8-0.4-1.1-0.7c-0.3-0.3-0.5-0.7-0.7-1.2c-0.2-0.5-0.2-1-0.2-1.7V871.5z"/>
<path class="st0" d="M-81,871.5h1.6l3.5,5.6v-5.6h1.7v8.5h-1.6l-3.5-5.5v5.5H-81V871.5z"/>
<path class="st0" d="M-68.3,871.5h3.2c1.3,0,2.3,0.4,3.1,1.1c0.7,0.7,1.1,1.8,1.1,3.2c0,0.7-0.1,1.3-0.3,1.9c-0.2,0.5-0.5,1-0.9,1.3
	c-0.4,0.4-0.8,0.6-1.4,0.8c-0.5,0.2-1.2,0.3-1.9,0.3h-2.9V871.5z M-65.4,878.5c0.5,0,0.9-0.1,1.2-0.2c0.3-0.1,0.6-0.3,0.8-0.6
	c0.2-0.2,0.4-0.5,0.4-0.9c0.1-0.3,0.1-0.7,0.1-1.1c0-0.4,0-0.8-0.1-1.1c-0.1-0.3-0.2-0.6-0.4-0.9c-0.2-0.2-0.4-0.4-0.7-0.5
	c-0.3-0.1-0.6-0.2-1.1-0.2h-1.4v5.5H-65.4z"/>
<path class="st0" d="M296.7,897.6H317v5.6h-13.9v7.3h13.1v5.6h-13.1v12.6h-6.5V897.6z"/>
<g>
	<linearGradient id="SVGID_26_" gradientUnits="userSpaceOnUse" x1="127.55" y1="757.2601" x2="127.55" y2="847.1861">
		<stop  offset="0" style="stop-color:#631C24"/>
		<stop  offset="1" style="stop-color:#CC1E1E"/>
	</linearGradient>
	<polygon class="st32" points="114.9,817.7 140.2,802.5 140.2,743.9 114.9,759.1 	"/>
	<linearGradient id="SVGID_27_" gradientUnits="userSpaceOnUse" x1="225.4652" y1="775.2387" x2="116.9234" y2="772.6232">
		<stop  offset="0" style="stop-color:#8D1C24"/>
		<stop  offset="1" style="stop-color:#CC1E1E"/>
	</linearGradient>
	<polygon class="st33" points="140.2,802.5 140.2,743.9 91.7,779.7 	"/>
	<linearGradient id="SVGID_28_" gradientUnits="userSpaceOnUse" x1="58" y1="783.9561" x2="140.1954" y2="783.9561">
		<stop  offset="0" style="stop-color:#8D1C24"/>
		<stop  offset="1" style="stop-color:#FF1E1E"/>
	</linearGradient>
	<polygon class="st34" points="58,824 140.2,775.5 140.2,743.9 58,792.4 58,806.4 	"/>
	<linearGradient id="SVGID_29_" gradientUnits="userSpaceOnUse" x1="88.4587" y1="781.1708" x2="146.0658" y2="757.2849">
		<stop  offset="0" style="stop-color:#821C24"/>
		<stop  offset="1" style="stop-color:#F41E1E"/>
	</linearGradient>
	<polygon class="st35" points="140.2,775.5 140.2,743.9 58,792.4 	"/>
</g>
<polyline class="st36" points="90,929 90,905.5 59,929 "/>
<line class="st36" x1="68" y1="922" x2="90" y2="922.2"/>
<g>
	<g>
		<path class="st0" d="M62.4,832h2.3l4.4,11.8h-2.6l-0.9-2.7h-4.1l-0.9,2.7H58L62.4,832z M65,839.1l-1.4-4.2l-1.4,4.2H65z"/>
		<path class="st0" d="M76.3,832h4.2c0.9,0,1.7,0.1,2.3,0.3c0.6,0.2,1.1,0.5,1.4,0.8c0.3,0.3,0.6,0.7,0.7,1.2
			c0.1,0.4,0.2,0.8,0.2,1.2c0,0.8-0.1,1.4-0.4,1.9c-0.3,0.5-0.7,1-1.4,1.3l2.4,5H83l-2-4.4h-0.4h-1.9v4.4h-2.4V832z M80.6,837.3
			c0.4,0,0.7,0,1-0.1c0.3-0.1,0.5-0.2,0.6-0.3c0.1-0.1,0.3-0.3,0.3-0.5c0.1-0.2,0.1-0.4,0.1-0.7c0-0.2,0-0.4-0.1-0.6
			c-0.1-0.2-0.2-0.4-0.3-0.5c-0.2-0.1-0.4-0.3-0.7-0.3c-0.3-0.1-0.6-0.1-1.1-0.1h-1.7v3.3H80.6z"/>
		<path class="st0" d="M92.7,832h2.5v4.7l4.3-4.7h2.7l-3.9,4.4l4.3,7.4h-2.7l-3.3-5.8l-1.4,1.4v4.3h-2.5V832z"/>
		<path class="st0" d="M69.1,859c-0.1,0.6-0.2,1.2-0.4,1.7c-0.2,0.5-0.6,1-1,1.4c-0.4,0.4-0.9,0.7-1.5,0.9c-0.6,0.2-1.3,0.3-2.1,0.3
			c-0.9,0-1.7-0.1-2.4-0.4c-0.7-0.3-1.2-0.7-1.7-1.3c-0.5-0.5-0.8-1.2-1-2c-0.2-0.8-0.3-1.6-0.3-2.5c0-1,0.1-1.8,0.4-2.6
			c0.3-0.8,0.6-1.4,1.1-1.9c0.5-0.5,1-1,1.7-1.2c0.7-0.3,1.4-0.4,2.3-0.4c0.7,0,1.4,0.1,2,0.3c0.6,0.2,1,0.5,1.4,0.8
			c0.4,0.4,0.7,0.8,0.9,1.3c0.2,0.5,0.4,1.1,0.5,1.7l-2.4,0.3c-0.1-0.7-0.4-1.2-0.7-1.6c-0.3-0.4-0.9-0.6-1.6-0.6
			c-0.9,0-1.7,0.4-2.2,1.1c-0.5,0.7-0.7,1.7-0.7,3c0,1.3,0.3,2.3,0.8,3c0.5,0.7,1.2,1.1,2.1,1.1c0.8,0,1.3-0.2,1.7-0.6
			c0.4-0.4,0.6-0.9,0.7-1.7H69.1z"/>
		<path class="st0" d="M81.8,863.4c-0.9,0-1.7-0.1-2.4-0.4c-0.7-0.3-1.3-0.7-1.8-1.2c-0.5-0.5-0.9-1.2-1.1-1.9
			c-0.3-0.8-0.4-1.6-0.4-2.6s0.1-1.8,0.4-2.6c0.3-0.8,0.6-1.4,1.1-1.9c0.5-0.5,1.1-1,1.8-1.2c0.7-0.3,1.5-0.4,2.3-0.4
			c0.9,0,1.7,0.1,2.4,0.4c0.7,0.3,1.3,0.7,1.8,1.2c0.5,0.5,0.8,1.2,1.1,1.9c0.3,0.8,0.4,1.6,0.4,2.6s-0.1,1.8-0.4,2.6
			c-0.2,0.8-0.6,1.4-1.1,1.9c-0.5,0.5-1.1,1-1.8,1.2C83.4,863.3,82.7,863.4,81.8,863.4z M81.7,861.3c1,0,1.8-0.4,2.3-1.1
			c0.5-0.7,0.8-1.7,0.8-3c0-1.3-0.3-2.3-0.8-3c-0.5-0.7-1.3-1.1-2.3-1.1c-1,0-1.8,0.4-2.3,1.1c-0.5,0.7-0.8,1.7-0.8,3
			c0,1.3,0.3,2.3,0.8,3C79.9,860.9,80.7,861.3,81.7,861.3z"/>
		<path class="st0" d="M95.1,851.3h3l2.9,8.8l3-8.8h2.9v11.8h-2.3v-7.9l-2.7,7.9H100l-2.7-7.8v7.8h-2.2V851.3z"/>
		<path class="st0" d="M115,851.3h3l2.9,8.8l3-8.8h2.9v11.8h-2.3v-7.9l-2.7,7.9h-1.9l-2.7-7.8v7.8H115V851.3z"/>
		<path class="st0" d="M134.6,851.3h2.5v7c0,1,0.2,1.7,0.5,2.2c0.4,0.5,0.9,0.7,1.8,0.7c0.8,0,1.4-0.2,1.8-0.7
			c0.3-0.5,0.5-1.2,0.5-2.2v-7h2.5v7c0,0.9-0.1,1.7-0.3,2.3c-0.2,0.6-0.5,1.2-0.9,1.6c-0.4,0.4-0.9,0.7-1.5,0.9
			c-0.6,0.2-1.3,0.3-2,0.3c-0.7,0-1.4-0.1-2-0.3c-0.6-0.2-1.1-0.5-1.5-0.9c-0.4-0.4-0.7-0.9-0.9-1.6c-0.2-0.6-0.3-1.4-0.3-2.3V851.3
			z"/>
		<path class="st0" d="M152,851.3h2.2l4.9,7.7v-7.7h2.4v11.8h-2.2l-4.9-7.7v7.7H152V851.3z"/>
		<path class="st0" d="M169.6,851.3h2.5v11.8h-2.5V851.3z"/>
		<path class="st0" d="M182.8,853.4h-3.6v-2.1h9.6v2.1h-3.6v9.7h-2.5V853.4z"/>
		<path class="st0" d="M199.6,858.3l-4.1-7h2.7l2.5,4.8l2.6-4.8h2.6l-4,7v4.8h-2.5V858.3z"/>
		<path class="st0" d="M59,870.6h7.7v2.1h-5.3v2.8h5v2.1h-5v4.8H59V870.6z"/>
		<path class="st0" d="M74.1,870.6h2.5v7c0,1,0.2,1.7,0.5,2.2c0.4,0.5,0.9,0.7,1.8,0.7c0.8,0,1.4-0.2,1.8-0.7
			c0.3-0.5,0.5-1.2,0.5-2.2v-7h2.5v7c0,0.9-0.1,1.7-0.3,2.3c-0.2,0.6-0.5,1.2-0.9,1.6c-0.4,0.4-0.9,0.7-1.5,0.9
			c-0.6,0.2-1.3,0.3-2,0.3c-0.7,0-1.4-0.1-2-0.3c-0.6-0.2-1.1-0.5-1.5-0.9c-0.4-0.4-0.7-0.9-0.9-1.6c-0.2-0.6-0.3-1.4-0.3-2.3V870.6
			z"/>
		<path class="st0" d="M91.5,870.6h2.2l4.9,7.7v-7.7h2.4v11.8h-2.2l-4.9-7.7v7.7h-2.4V870.6z"/>
		<path class="st0" d="M109.1,870.6h4.4c1.8,0,3.2,0.5,4.2,1.5c1,1,1.5,2.4,1.5,4.4c0,1-0.1,1.8-0.4,2.6c-0.3,0.7-0.7,1.4-1.2,1.9
			c-0.5,0.5-1.2,0.9-1.9,1.1c-0.8,0.3-1.6,0.4-2.6,0.4h-4V870.6z M113.1,880.3c0.6,0,1.2-0.1,1.6-0.3c0.5-0.2,0.8-0.4,1.1-0.8
			c0.3-0.3,0.5-0.7,0.6-1.2c0.1-0.5,0.2-1,0.2-1.6c0-0.6-0.1-1.1-0.2-1.6c-0.1-0.5-0.3-0.9-0.6-1.2c-0.3-0.3-0.6-0.6-1-0.7
			s-0.9-0.3-1.5-0.3h-1.9v7.6H113.1z"/>
	</g>
</g>
<g>
	<polygon class="st4" points="423.9,973.8 452.1,956.8 452.1,891.4 423.9,908.4 	"/>
	<polygon class="st4" points="452.1,954.4 452.1,891.4 398,931.4 	"/>
	<polygon class="st4" points="360.4,980.8 452.1,926.7 452.1,891.4 360.4,945.5 360.4,961.2 	"/>
	<polygon class="st4" points="452.1,926.7 452.1,891.4 360.4,945.5 	"/>
</g>
<rect x="-113.5" y="-170" width="46" height="46"/>
<g>
	<linearGradient id="SVGID_30_" gradientUnits="userSpaceOnUse" x1="-91.7794" y1="-162.4502" x2="-91.7794" y2="-136.5965">
		<stop  offset="0" style="stop-color:#631C24"/>
		<stop  offset="1" style="stop-color:#CC1E1E"/>
	</linearGradient>
	<polygon class="st37" points="-95.4,-145.1 -88.1,-149.5 -88.1,-166.3 -95.4,-161.9 	"/>
	<linearGradient id="SVGID_31_" gradientUnits="userSpaceOnUse" x1="-63.6288" y1="-157.2814" x2="-94.8345" y2="-158.0333">
		<stop  offset="0" style="stop-color:#8D1C24"/>
		<stop  offset="1" style="stop-color:#CC1E1E"/>
	</linearGradient>
	<polygon class="st38" points="-88.1,-149.5 -88.1,-166.3 -102.1,-156 	"/>
	<linearGradient id="SVGID_32_" gradientUnits="userSpaceOnUse" x1="-111.775" y1="-154.7751" x2="-88.1438" y2="-154.7751">
		<stop  offset="0" style="stop-color:#8D1C24"/>
		<stop  offset="1" style="stop-color:#FF1E1E"/>
	</linearGradient>
	<polygon class="st39" points="-111.8,-143.3 -88.1,-157.2 -88.1,-166.3 -111.8,-152.4 -111.8,-148.3 	"/>
	<linearGradient id="SVGID_33_" gradientUnits="userSpaceOnUse" x1="-103.0181" y1="-155.5759" x2="-86.4561" y2="-162.4431">
		<stop  offset="0" style="stop-color:#821C24"/>
		<stop  offset="1" style="stop-color:#F41E1E"/>
	</linearGradient>
	<polygon class="st40" points="-88.1,-157.2 -88.1,-166.3 -111.8,-152.4 	"/>
</g>
<g>
	<g>
		<path class="st0" d="M-110.5-141h0.7l1.3,3.4h-0.8l-0.3-0.8h-1.2l-0.3,0.8h-0.7L-110.5-141z M-109.8-138.9l-0.4-1.2l-0.4,1.2
			H-109.8z"/>
		<path class="st0" d="M-106.5-141h1.2c0.3,0,0.5,0,0.7,0.1c0.2,0.1,0.3,0.1,0.4,0.2c0.1,0.1,0.2,0.2,0.2,0.3c0,0.1,0.1,0.2,0.1,0.4
			c0,0.2,0,0.4-0.1,0.6c-0.1,0.1-0.2,0.3-0.4,0.4l0.7,1.4h-0.8l-0.6-1.3h-0.1h-0.5v1.3h-0.7V-141z M-105.3-139.4c0.1,0,0.2,0,0.3,0
			c0.1,0,0.1-0.1,0.2-0.1c0,0,0.1-0.1,0.1-0.2c0-0.1,0-0.1,0-0.2c0-0.1,0-0.1,0-0.2c0-0.1-0.1-0.1-0.1-0.1c0,0-0.1-0.1-0.2-0.1
			c-0.1,0-0.2,0-0.3,0h-0.5v0.9H-105.3z"/>
		<path class="st0" d="M-101.8-141h0.7v1.4l1.2-1.4h0.8l-1.1,1.3l1.2,2.1h-0.8l-1-1.7l-0.4,0.4v1.2h-0.7V-141z"/>
		<path class="st0" d="M-108.6-133.2c0,0.2-0.1,0.3-0.1,0.5c-0.1,0.2-0.2,0.3-0.3,0.4c-0.1,0.1-0.3,0.2-0.4,0.3
			c-0.2,0.1-0.4,0.1-0.6,0.1c-0.3,0-0.5,0-0.7-0.1c-0.2-0.1-0.4-0.2-0.5-0.4c-0.1-0.2-0.2-0.3-0.3-0.6c-0.1-0.2-0.1-0.5-0.1-0.7
			c0-0.3,0-0.5,0.1-0.7c0.1-0.2,0.2-0.4,0.3-0.6c0.1-0.2,0.3-0.3,0.5-0.4c0.2-0.1,0.4-0.1,0.7-0.1c0.2,0,0.4,0,0.6,0.1
			c0.2,0.1,0.3,0.1,0.4,0.2s0.2,0.2,0.3,0.4c0.1,0.1,0.1,0.3,0.1,0.5l-0.7,0.1c0-0.2-0.1-0.4-0.2-0.5c-0.1-0.1-0.3-0.2-0.5-0.2
			c-0.3,0-0.5,0.1-0.6,0.3c-0.1,0.2-0.2,0.5-0.2,0.9c0,0.4,0.1,0.7,0.2,0.9c0.2,0.2,0.4,0.3,0.6,0.3c0.2,0,0.4-0.1,0.5-0.2
			c0.1-0.1,0.2-0.3,0.2-0.5H-108.6z"/>
		<path class="st0" d="M-104.9-131.9c-0.3,0-0.5,0-0.7-0.1c-0.2-0.1-0.4-0.2-0.5-0.4c-0.1-0.2-0.2-0.3-0.3-0.6
			c-0.1-0.2-0.1-0.5-0.1-0.7c0-0.3,0-0.5,0.1-0.7c0.1-0.2,0.2-0.4,0.3-0.6c0.1-0.2,0.3-0.3,0.5-0.4c0.2-0.1,0.4-0.1,0.7-0.1
			c0.3,0,0.5,0,0.7,0.1c0.2,0.1,0.4,0.2,0.5,0.4c0.1,0.2,0.2,0.3,0.3,0.6c0.1,0.2,0.1,0.5,0.1,0.7c0,0.3,0,0.5-0.1,0.7
			c-0.1,0.2-0.2,0.4-0.3,0.6c-0.1,0.2-0.3,0.3-0.5,0.4C-104.5-132-104.7-131.9-104.9-131.9z M-104.9-132.5c0.3,0,0.5-0.1,0.7-0.3
			c0.1-0.2,0.2-0.5,0.2-0.9c0-0.4-0.1-0.7-0.2-0.9c-0.1-0.2-0.4-0.3-0.7-0.3c-0.3,0-0.5,0.1-0.7,0.3c-0.1,0.2-0.2,0.5-0.2,0.9
			c0,0.4,0.1,0.7,0.2,0.9C-105.5-132.6-105.2-132.5-104.9-132.5z"/>
		<path class="st0" d="M-101.1-135.4h0.9l0.8,2.5l0.9-2.5h0.8v3.4h-0.7v-2.3l-0.8,2.3h-0.6l-0.8-2.3v2.3h-0.6V-135.4z"/>
		<path class="st0" d="M-95.4-135.4h0.9l0.8,2.5l0.9-2.5h0.8v3.4h-0.7v-2.3l-0.8,2.3H-94l-0.8-2.3v2.3h-0.6V-135.4z"/>
		<path class="st0" d="M-89.7-135.4h0.7v2c0,0.3,0.1,0.5,0.2,0.6c0.1,0.1,0.3,0.2,0.5,0.2c0.2,0,0.4-0.1,0.5-0.2
			c0.1-0.1,0.1-0.4,0.1-0.6v-2h0.7v2c0,0.3,0,0.5-0.1,0.7c-0.1,0.2-0.2,0.3-0.3,0.5c-0.1,0.1-0.3,0.2-0.4,0.3
			c-0.2,0.1-0.4,0.1-0.6,0.1c-0.2,0-0.4,0-0.6-0.1c-0.2-0.1-0.3-0.1-0.4-0.3c-0.1-0.1-0.2-0.3-0.3-0.5c-0.1-0.2-0.1-0.4-0.1-0.7
			V-135.4z"/>
		<path class="st0" d="M-84.7-135.4h0.6l1.4,2.2v-2.2h0.7v3.4h-0.6l-1.4-2.2v2.2h-0.7V-135.4z"/>
		<path class="st0" d="M-79.7-135.4h0.7v3.4h-0.7V-135.4z"/>
		<path class="st0" d="M-75.9-134.8h-1v-0.6h2.8v0.6h-1v2.8h-0.7V-134.8z"/>
		<path class="st0" d="M-71.1-133.4l-1.2-2h0.8l0.7,1.4l0.8-1.4h0.8l-1.1,2v1.4h-0.7V-133.4z"/>
		<path class="st0" d="M-111.5-129.9h2.2v0.6h-1.5v0.8h1.4v0.6h-1.4v1.4h-0.7V-129.9z"/>
		<path class="st0" d="M-107.1-129.9h0.7v2c0,0.3,0.1,0.5,0.2,0.6c0.1,0.1,0.3,0.2,0.5,0.2c0.2,0,0.4-0.1,0.5-0.2
			c0.1-0.1,0.1-0.4,0.1-0.6v-2h0.7v2c0,0.3,0,0.5-0.1,0.7c-0.1,0.2-0.2,0.3-0.3,0.5c-0.1,0.1-0.3,0.2-0.4,0.3
			c-0.2,0.1-0.4,0.1-0.6,0.1c-0.2,0-0.4,0-0.6-0.1s-0.3-0.1-0.4-0.3c-0.1-0.1-0.2-0.3-0.3-0.5c-0.1-0.2-0.1-0.4-0.1-0.7V-129.9z"/>
		<path class="st0" d="M-102.1-129.9h0.6l1.4,2.2v-2.2h0.7v3.4h-0.6l-1.4-2.2v2.2h-0.7V-129.9z"/>
		<path class="st0" d="M-97.1-129.9h1.3c0.5,0,0.9,0.1,1.2,0.4c0.3,0.3,0.4,0.7,0.4,1.3c0,0.3,0,0.5-0.1,0.7
			c-0.1,0.2-0.2,0.4-0.3,0.5c-0.2,0.1-0.3,0.3-0.6,0.3c-0.2,0.1-0.5,0.1-0.7,0.1h-1.1V-129.9z M-95.9-127.1c0.2,0,0.3,0,0.5-0.1
			c0.1-0.1,0.2-0.1,0.3-0.2c0.1-0.1,0.1-0.2,0.2-0.3c0-0.1,0.1-0.3,0.1-0.5c0-0.2,0-0.3,0-0.4c0-0.1-0.1-0.2-0.2-0.3
			c-0.1-0.1-0.2-0.2-0.3-0.2c-0.1-0.1-0.3-0.1-0.4-0.1h-0.6v2.2H-95.9z"/>
	</g>
</g>
<rect x="-52.6" y="-170" width="46" height="46"/>
<g>
	<linearGradient id="SVGID_34_" gradientUnits="userSpaceOnUse" x1="-20.8655" y1="-162.576" x2="-20.8655" y2="-134.8517">
		<stop  offset="0" style="stop-color:#631C24"/>
		<stop  offset="1" style="stop-color:#CC1E1E"/>
	</linearGradient>
	<polygon class="st41" points="-24.8,-143.9 -17,-148.6 -17,-166.7 -24.8,-162 	"/>
	<linearGradient id="SVGID_35_" gradientUnits="userSpaceOnUse" x1="9.3218" y1="-157.0331" x2="-24.1417" y2="-157.8395">
		<stop  offset="0" style="stop-color:#8D1C24"/>
		<stop  offset="1" style="stop-color:#CC1E1E"/>
	</linearGradient>
	<polygon class="st42" points="-17,-148.6 -17,-166.7 -31.9,-155.6 	"/>
	<linearGradient id="SVGID_36_" gradientUnits="userSpaceOnUse" x1="-42.3078" y1="-154.3456" x2="-16.9669" y2="-154.3456">
		<stop  offset="0" style="stop-color:#8D1C24"/>
		<stop  offset="1" style="stop-color:#FF1E1E"/>
	</linearGradient>
	<polygon class="st43" points="-42.3,-142 -17,-156.9 -17,-166.7 -42.3,-151.7 -42.3,-147.4 	"/>
	<linearGradient id="SVGID_37_" gradientUnits="userSpaceOnUse" x1="-32.9174" y1="-155.2043" x2="-15.1571" y2="-162.5683">
		<stop  offset="0" style="stop-color:#821C24"/>
		<stop  offset="1" style="stop-color:#F41E1E"/>
	</linearGradient>
	<polygon class="st44" points="-17,-156.9 -17,-166.7 -42.3,-151.7 	"/>
</g>
<g>
	<g>
		<polygon points="-86.8,-67.3 -76.3,-73.6 -76.3,-98 -86.8,-91.7 		"/>
		<path class="st0" d="M-87.2-66.6v-25.3l11.3-6.8v25.3L-87.2-66.6z M-86.5-91.5v23.5l9.8-5.9v-23.5L-86.5-91.5z"/>
	</g>
	<g>
		<polygon points="-76.3,-74.5 -76.3,-98 -96.5,-83.1 		"/>
		<path class="st0" d="M-75.9-73.9L-97.2-83l21.3-15.8V-73.9z M-95.8-83.2l19.1,8.1v-22.2L-95.8-83.2z"/>
	</g>
	<g>
		<polygon points="-110.5,-64.7 -76.3,-84.8 -76.3,-98 -110.5,-77.8 -110.5,-72 		"/>
		<path class="st0" d="M-110.9-64v-14l35-20.6v14L-110.9-64z M-110.2-77.6v12.3l33.5-19.8v-12.3L-110.2-77.6z"/>
	</g>
	<g>
		<polygon points="-76.3,-84.8 -76.3,-98 -110.5,-77.8 		"/>
		<path class="st0" d="M-110.5-77.5l-0.3-0.7l34.8-20.5v14.1L-110.5-77.5z M-76.7-97.4l-31.8,18.7l31.8-6.5V-97.4z"/>
	</g>
</g>
<rect x="-48.8" y="-139" class="st45" width="37.6" height="22"/>
<text transform="matrix(1 0 0 1 -47.6602 -130.3291)" class="st0" style="font-family:'ProximaNova-Semibold'; font-size:13px; letter-spacing:5;">ACF</text>
<line class="st45" x1="-89" y1="301" x2="11" y2="198"/>
<rect x="192" y="176" width="27" height="143"/>
<polygon points="84.4,318.2 45,319 219,139 219,176 "/>
<rect x="961" y="394" transform="matrix(-1.836970e-16 1 -1 -1.836970e-16 1499 -631)" width="208" height="80"/>
<path d="M-26.2,256c-10.2,21.3-32,36-57.3,36c-35.1,0-63.5-28.4-63.5-63.5s28.4-63.5,63.5-63.5c25.2,0,47,14.7,57.3,36H0.7
	c-11.6-36-45.4-62-85.2-62c-49.4,0-89.5,40.1-89.5,89.5s40.1,89.5,89.5,89.5c39.8,0,73.6-26,85.2-62H-26.2z"/>
<rect x="410" y="149" width="27" height="172"/>
<polygon points="410,176 410,149 546,149 529,176 "/>
<polygon points="414,245 414,218 506,218 489.7,245 "/>
<circle class="st46" cx="314.5" cy="228" r="79"/>
<rect x="347" y="215" class="st47" width="61" height="30"/>
<polygon points="785.2,535.2 1102.2,218.2 1104.8,328.7 898.7,534.8 "/>
<g>
	<path d="M1276.2,290c47.7,0,86.5,38.8,86.5,86.5s-38.8,86.5-86.5,86.5s-86.5-38.8-86.5-86.5S1228.5,290,1276.2,290 M1276.2,218
		c-87.5,0-158.5,71-158.5,158.5s71,158.5,158.5,158.5s158.5-71,158.5-158.5S1363.7,218,1276.2,218L1276.2,218z"/>
</g>
<rect x="1341.4" y="350.4" class="st47" width="122.4" height="60.2"/>
<rect x="-175.5" y="-170" width="46" height="46"/>
<g>
	<linearGradient id="SVGID_38_" gradientUnits="userSpaceOnUse" x1="-153.7794" y1="-162.4502" x2="-153.7794" y2="-136.5965">
		<stop  offset="0" style="stop-color:#631C24"/>
		<stop  offset="1" style="stop-color:#CC1E1E"/>
	</linearGradient>
	<polygon class="st48" points="-157.4,-145.1 -150.1,-149.5 -150.1,-166.3 -157.4,-161.9 	"/>
	<linearGradient id="SVGID_39_" gradientUnits="userSpaceOnUse" x1="-125.6288" y1="-157.2814" x2="-156.8345" y2="-158.0333">
		<stop  offset="0" style="stop-color:#8D1C24"/>
		<stop  offset="1" style="stop-color:#CC1E1E"/>
	</linearGradient>
	<polygon class="st49" points="-150.1,-149.5 -150.1,-166.3 -164.1,-156 	"/>
	<linearGradient id="SVGID_40_" gradientUnits="userSpaceOnUse" x1="-173.775" y1="-154.7751" x2="-150.1438" y2="-154.7751">
		<stop  offset="0" style="stop-color:#8D1C24"/>
		<stop  offset="1" style="stop-color:#FF1E1E"/>
	</linearGradient>
	<polygon class="st50" points="-173.8,-143.3 -150.1,-157.2 -150.1,-166.3 -173.8,-152.4 -173.8,-148.3 	"/>
	<linearGradient id="SVGID_41_" gradientUnits="userSpaceOnUse" x1="-165.0181" y1="-155.5759" x2="-148.4561" y2="-162.4431">
		<stop  offset="0" style="stop-color:#821C24"/>
		<stop  offset="1" style="stop-color:#F41E1E"/>
	</linearGradient>
	<polygon class="st51" points="-150.1,-157.2 -150.1,-166.3 -173.8,-152.4 	"/>
</g>
<g>
	<g>
		<path class="st0" d="M-172.5-105h0.7l1.3,3.4h-0.8l-0.3-0.8h-1.2l-0.3,0.8h-0.7L-172.5-105z M-171.8-102.9l-0.4-1.2l-0.4,1.2
			H-171.8z"/>
		<path class="st0" d="M-168.5-105h1.2c0.3,0,0.5,0,0.7,0.1c0.2,0.1,0.3,0.1,0.4,0.2c0.1,0.1,0.2,0.2,0.2,0.3c0,0.1,0.1,0.2,0.1,0.4
			c0,0.2,0,0.4-0.1,0.6c-0.1,0.1-0.2,0.3-0.4,0.4l0.7,1.4h-0.8l-0.6-1.3h-0.1h-0.5v1.3h-0.7V-105z M-167.3-103.4c0.1,0,0.2,0,0.3,0
			c0.1,0,0.1-0.1,0.2-0.1c0,0,0.1-0.1,0.1-0.2c0-0.1,0-0.1,0-0.2c0-0.1,0-0.1,0-0.2c0-0.1-0.1-0.1-0.1-0.1c0,0-0.1-0.1-0.2-0.1
			c-0.1,0-0.2,0-0.3,0h-0.5v0.9H-167.3z"/>
		<path class="st0" d="M-163.8-105h0.7v1.4l1.2-1.4h0.8l-1.1,1.3l1.2,2.1h-0.8l-1-1.7l-0.4,0.4v1.2h-0.7V-105z"/>
		<path class="st0" d="M-170.6-97.2c0,0.2-0.1,0.3-0.1,0.5c-0.1,0.2-0.2,0.3-0.3,0.4c-0.1,0.1-0.3,0.2-0.4,0.3
			c-0.2,0.1-0.4,0.1-0.6,0.1c-0.3,0-0.5,0-0.7-0.1c-0.2-0.1-0.4-0.2-0.5-0.4c-0.1-0.2-0.2-0.3-0.3-0.6c-0.1-0.2-0.1-0.5-0.1-0.7
			c0-0.3,0-0.5,0.1-0.7c0.1-0.2,0.2-0.4,0.3-0.6c0.1-0.2,0.3-0.3,0.5-0.4c0.2-0.1,0.4-0.1,0.7-0.1c0.2,0,0.4,0,0.6,0.1
			c0.2,0.1,0.3,0.1,0.4,0.2c0.1,0.1,0.2,0.2,0.3,0.4c0.1,0.1,0.1,0.3,0.1,0.5l-0.7,0.1c0-0.2-0.1-0.4-0.2-0.5
			c-0.1-0.1-0.3-0.2-0.5-0.2c-0.3,0-0.5,0.1-0.6,0.3c-0.1,0.2-0.2,0.5-0.2,0.9c0,0.4,0.1,0.7,0.2,0.9c0.2,0.2,0.4,0.3,0.6,0.3
			c0.2,0,0.4-0.1,0.5-0.2c0.1-0.1,0.2-0.3,0.2-0.5H-170.6z"/>
		<path class="st0" d="M-166.9-95.9c-0.3,0-0.5,0-0.7-0.1c-0.2-0.1-0.4-0.2-0.5-0.4c-0.1-0.2-0.2-0.3-0.3-0.6
			c-0.1-0.2-0.1-0.5-0.1-0.7c0-0.3,0-0.5,0.1-0.7s0.2-0.4,0.3-0.6c0.1-0.2,0.3-0.3,0.5-0.4c0.2-0.1,0.4-0.1,0.7-0.1
			c0.3,0,0.5,0,0.7,0.1c0.2,0.1,0.4,0.2,0.5,0.4c0.1,0.2,0.2,0.3,0.3,0.6c0.1,0.2,0.1,0.5,0.1,0.7c0,0.3,0,0.5-0.1,0.7
			c-0.1,0.2-0.2,0.4-0.3,0.6c-0.1,0.2-0.3,0.3-0.5,0.4C-166.5-96-166.7-95.9-166.9-95.9z M-166.9-96.5c0.3,0,0.5-0.1,0.7-0.3
			c0.1-0.2,0.2-0.5,0.2-0.9c0-0.4-0.1-0.7-0.2-0.9c-0.1-0.2-0.4-0.3-0.7-0.3s-0.5,0.1-0.7,0.3c-0.1,0.2-0.2,0.5-0.2,0.9
			c0,0.4,0.1,0.7,0.2,0.9C-167.5-96.6-167.2-96.5-166.9-96.5z"/>
		<path class="st0" d="M-163.1-99.4h0.9l0.8,2.5l0.9-2.5h0.8v3.4h-0.7v-2.3l-0.8,2.3h-0.6l-0.8-2.3v2.3h-0.6V-99.4z"/>
		<path class="st0" d="M-157.4-99.4h0.9l0.8,2.5l0.9-2.5h0.8v3.4h-0.7v-2.3l-0.8,2.3h-0.6l-0.8-2.3v2.3h-0.6V-99.4z"/>
		<path class="st0" d="M-151.7-99.4h0.7v2c0,0.3,0.1,0.5,0.2,0.6c0.1,0.1,0.3,0.2,0.5,0.2c0.2,0,0.4-0.1,0.5-0.2
			c0.1-0.1,0.1-0.4,0.1-0.6v-2h0.7v2c0,0.3,0,0.5-0.1,0.7c-0.1,0.2-0.2,0.3-0.3,0.5c-0.1,0.1-0.3,0.2-0.4,0.3
			c-0.2,0.1-0.4,0.1-0.6,0.1c-0.2,0-0.4,0-0.6-0.1s-0.3-0.1-0.4-0.3c-0.1-0.1-0.2-0.3-0.3-0.5c-0.1-0.2-0.1-0.4-0.1-0.7V-99.4z"/>
		<path class="st0" d="M-146.7-99.4h0.6l1.4,2.2v-2.2h0.7v3.4h-0.6l-1.4-2.2v2.2h-0.7V-99.4z"/>
		<path class="st0" d="M-141.7-99.4h0.7v3.4h-0.7V-99.4z"/>
		<path class="st0" d="M-137.9-98.8h-1v-0.6h2.8v0.6h-1v2.8h-0.7V-98.8z"/>
		<path class="st0" d="M-133.1-97.4l-1.2-2h0.8l0.7,1.4l0.8-1.4h0.8l-1.1,2v1.4h-0.7V-97.4z"/>
		<path class="st0" d="M-173.5-93.9h2.2v0.6h-1.5v0.8h1.4v0.6h-1.4v1.4h-0.7V-93.9z"/>
		<path class="st0" d="M-169.1-93.9h0.7v2c0,0.3,0.1,0.5,0.2,0.6c0.1,0.1,0.3,0.2,0.5,0.2c0.2,0,0.4-0.1,0.5-0.2
			c0.1-0.1,0.1-0.4,0.1-0.6v-2h0.7v2c0,0.3,0,0.5-0.1,0.7c-0.1,0.2-0.2,0.3-0.3,0.5c-0.1,0.1-0.3,0.2-0.4,0.3
			c-0.2,0.1-0.4,0.1-0.6,0.1c-0.2,0-0.4,0-0.6-0.1c-0.2-0.1-0.3-0.1-0.4-0.3c-0.1-0.1-0.2-0.3-0.3-0.5c-0.1-0.2-0.1-0.4-0.1-0.7
			V-93.9z"/>
		<path class="st0" d="M-164.1-93.9h0.6l1.4,2.2v-2.2h0.7v3.4h-0.6l-1.4-2.2v2.2h-0.7V-93.9z"/>
		<path class="st0" d="M-159.1-93.9h1.3c0.5,0,0.9,0.1,1.2,0.4c0.3,0.3,0.4,0.7,0.4,1.3c0,0.3,0,0.5-0.1,0.7
			c-0.1,0.2-0.2,0.4-0.3,0.5c-0.2,0.1-0.3,0.3-0.6,0.3c-0.2,0.1-0.5,0.1-0.7,0.1h-1.1V-93.9z M-157.9-91.1c0.2,0,0.3,0,0.5-0.1
			c0.1-0.1,0.2-0.1,0.3-0.2c0.1-0.1,0.1-0.2,0.2-0.3c0-0.1,0.1-0.3,0.1-0.5c0-0.2,0-0.3,0-0.4c0-0.1-0.1-0.2-0.2-0.3
			c-0.1-0.1-0.2-0.2-0.3-0.2c-0.1-0.1-0.3-0.1-0.4-0.1h-0.6v2.2H-157.9z"/>
	</g>
</g>
<rect x="-174" y="-142" class="st45" width="48" height="22"/>
<text transform="matrix(1 0 0 1 -174 -138.4302)"><tspan x="0" y="0" class="st0" style="font-family:'AktivGrotesk-Regular'; font-size:5px; letter-spacing:2;">ARK</tspan><tspan x="0" y="6" class="st0" style="font-family:'AktivGrotesk-Regular'; font-size:5px; letter-spacing:2;">COMMUNITY </tspan><tspan x="0" y="12" class="st0" style="font-family:'AktivGrotesk-Regular'; font-size:5px; letter-spacing:2;">FUND</tspan></text>
<rect x="-2" y="52" width="49" height="49"/>
<g>
	<g>
		<path class="st0" d="M82.8,95L82,93h-4.5l-0.8,2h-1.3l3.6-9h1.4l3.6,9H82.8z M79.7,87.3L77.9,92h3.7L79.7,87.3z"/>
		<path class="st0" d="M89.4,90.3c0-2.7,2-4.5,4.5-4.5c1.5,0,2.6,0.7,3.3,1.7l-0.9,0.5c-0.5-0.7-1.4-1.3-2.4-1.3
			c-1.9,0-3.3,1.5-3.3,3.5c0,2.1,1.4,3.5,3.3,3.5c1,0,1.9-0.5,2.4-1.3l0.9,0.5c-0.7,1-1.8,1.7-3.3,1.7C91.4,94.8,89.4,93,89.4,90.3z
			"/>
		<path class="st0" d="M103.7,95v-9h6v1h-5v3h5v1h-5v4H103.7z"/>
	</g>
</g>
<path d="M79,19.3v11l19-11.7v9.3l8-5.1v-9.1V13V2.7L79,19.3z M80,19.8l23.2-5.4L80,28.7V19.8z M99,19.2l5.8,3.3l-5.8,4V19.2z
	 M105,21.8l-6-3.4V18h0l6-3.7V21.8z M105,13.2l-23.2,5.4L105,4.3V13V13.2z"/>
<path class="st0" d="M79.1,72.3v11l19-11.7v9.3l8-5.1v-9.1V66V55.7L79.1,72.3z M80.1,72.8l23.2-5.4L80.1,81.7V72.8z M99.1,72.2
	l5.8,3.3l-5.8,4V72.2z M105.1,74.8l-6-3.4V71h0l6-3.7V74.8z M105.1,66.2l-23.2,5.4l23.2-14.3V66V66.2z"/>
<g>
	<path d="M82.8,42L82,40h-4.5l-0.8,2h-1.3l3.6-9h1.4l3.6,9H82.8z M79.7,34.3L77.9,39h3.7L79.7,34.3z"/>
	<path d="M89.4,37.3c0-2.7,2-4.5,4.5-4.5c1.5,0,2.6,0.7,3.3,1.7l-0.9,0.5c-0.5-0.7-1.4-1.3-2.4-1.3c-1.9,0-3.3,1.5-3.3,3.5
		c0,2.1,1.4,3.5,3.3,3.5c1,0,1.9-0.5,2.4-1.3l0.9,0.5c-0.7,1-1.8,1.7-3.3,1.7C91.4,41.8,89.4,40,89.4,37.3z"/>
	<path d="M103.7,42v-9h6v1h-5v3h5v1h-5v4H103.7z"/>
</g>
<linearGradient id="SVGID_42_" gradientUnits="userSpaceOnUse" x1="5.1669" y1="25.4298" x2="27.1669" y2="13.1798">
	<stop  offset="0" style="stop-color:#821C24"/>
	<stop  offset="1" style="stop-color:#F41E1E"/>
</linearGradient>
<polygon class="st52" points="36,2.5 10,18.5 10,28.5 36,12.5 "/>
<linearGradient id="SVGID_43_" gradientUnits="userSpaceOnUse" x1="7.8736" y1="27.0152" x2="35.6236" y2="5.8902">
	<stop  offset="0" style="stop-color:#821C24"/>
	<stop  offset="1" style="stop-color:#F41E1E"/>
</linearGradient>
<polygon class="st53" points="36,2.5 10,18.5 36,12.5 "/>
<linearGradient id="SVGID_44_" gradientUnits="userSpaceOnUse" x1="38.5462" y1="14.3424" x2="30.2962" y2="20.8424">
	<stop  offset="0" style="stop-color:#821C24"/>
	<stop  offset="1" style="stop-color:#F41E1E"/>
</linearGradient>
<polygon class="st54" points="36,20.5 36,13.5 28,18.5 "/>
<line class="st55" x1="36.5" y1="12.5" x2="6.5" y2="19.5"/>
<line class="st56" x1="27.5" y1="18.5" x2="39.5" y2="21.5"/>
<g>
	<path d="M12.8,42L12,40H7.5l-0.8,2H5.4L9,33h1.4l3.6,9H12.8z M9.7,34.3L7.9,39h3.7L9.7,34.3z"/>
	<path d="M19.4,37.3c0-2.7,2-4.5,4.5-4.5c1.5,0,2.6,0.7,3.3,1.7l-0.9,0.5c-0.5-0.7-1.4-1.3-2.4-1.3c-1.9,0-3.3,1.5-3.3,3.5
		c0,2.1,1.4,3.5,3.3,3.5c1,0,1.9-0.5,2.4-1.3l0.9,0.5c-0.7,1-1.8,1.7-3.3,1.7C21.4,41.8,19.4,40,19.4,37.3z"/>
	<path d="M34,42v-9h6v1h-5v3h5v1h-5v4H34z"/>
</g>
<linearGradient id="SVGID_45_" gradientUnits="userSpaceOnUse" x1="31.9975" y1="72.5247" x2="31.1225" y2="81.2747">
	<stop  offset="0" style="stop-color:#821C24"/>
	<stop  offset="1" style="stop-color:#F41E1E"/>
</linearGradient>
<polyline class="st57" points="28,72 28,78.5 36,73.5 36,66.5 28,71.5 "/>
<linearGradient id="SVGID_46_" gradientUnits="userSpaceOnUse" x1="5.1669" y1="78.4298" x2="27.1669" y2="66.1798">
	<stop  offset="0" style="stop-color:#821C24"/>
	<stop  offset="1" style="stop-color:#F41E1E"/>
</linearGradient>
<polygon class="st58" points="36,55.5 10,71.5 10,81.5 36,65.5 "/>
<linearGradient id="SVGID_47_" gradientUnits="userSpaceOnUse" x1="7.8736" y1="80.0152" x2="35.6236" y2="58.8902">
	<stop  offset="0" style="stop-color:#821C24"/>
	<stop  offset="1" style="stop-color:#F41E1E"/>
</linearGradient>
<polygon class="st59" points="36,55.5 10,71.5 36,65.5 "/>
<linearGradient id="SVGID_48_" gradientUnits="userSpaceOnUse" x1="38.5462" y1="67.3424" x2="30.2962" y2="73.8424">
	<stop  offset="0" style="stop-color:#821C24"/>
	<stop  offset="1" style="stop-color:#F41E1E"/>
</linearGradient>
<polygon class="st60" points="36,73.5 36,66.5 28,71.5 "/>
<line class="st61" x1="36.5" y1="65.5" x2="6.5" y2="72.5"/>
<line class="st61" x1="27.5" y1="71.5" x2="38.5" y2="74.5"/>
<g>
	<path class="st0" d="M12.8,95L12,93H7.5l-0.8,2H5.4L9,86h1.4l3.6,9H12.8z M9.7,87.3L7.9,92h3.7L9.7,87.3z"/>
	<path class="st0" d="M19.4,90.3c0-2.7,2-4.5,4.5-4.5c1.5,0,2.6,0.7,3.3,1.7l-0.9,0.5c-0.5-0.7-1.4-1.3-2.4-1.3
		c-1.9,0-3.3,1.5-3.3,3.5c0,2.1,1.4,3.5,3.3,3.5c1,0,1.9-0.5,2.4-1.3l0.9,0.5c-0.7,1-1.8,1.7-3.3,1.7C21.4,94.8,19.4,93,19.4,90.3z"
		/>
	<path class="st0" d="M34,95v-9h6v1h-5v3h5v1h-5v4H34z"/>
</g>
<rect x="26.5" y="-145" width="64" height="64"/>
<g>
	<linearGradient id="SVGID_49_" gradientUnits="userSpaceOnUse" x1="79.72" y1="-234.4959" x2="79.72" y2="-198.5256">
		<stop  offset="0" style="stop-color:#631C24"/>
		<stop  offset="1" style="stop-color:#CC1E1E"/>
	</linearGradient>
	<polygon class="st62" points="74.7,-210.3 84.8,-216.4 84.8,-239.8 74.7,-233.7 	"/>
	<linearGradient id="SVGID_50_" gradientUnits="userSpaceOnUse" x1="118.8861" y1="-227.3045" x2="75.4694" y2="-228.3507">
		<stop  offset="0" style="stop-color:#8D1C24"/>
		<stop  offset="1" style="stop-color:#CC1E1E"/>
	</linearGradient>
	<polygon class="st63" points="84.8,-216.4 84.8,-239.8 65.4,-225.5 	"/>
	<linearGradient id="SVGID_51_" gradientUnits="userSpaceOnUse" x1="51.9" y1="-223.8176" x2="84.7782" y2="-223.8176">
		<stop  offset="0" style="stop-color:#8D1C24"/>
		<stop  offset="1" style="stop-color:#FF1E1E"/>
	</linearGradient>
	<polygon class="st64" points="51.9,-207.8 84.8,-227.2 84.8,-239.8 51.9,-220.4 51.9,-214.8 	"/>
	<linearGradient id="SVGID_52_" gradientUnits="userSpaceOnUse" x1="64.0835" y1="-224.9317" x2="87.1263" y2="-234.486">
		<stop  offset="0" style="stop-color:#821C24"/>
		<stop  offset="1" style="stop-color:#F41E1E"/>
	</linearGradient>
	<polygon class="st65" points="84.8,-227.2 84.8,-239.8 51.9,-220.4 	"/>
</g>
<g>
	<g>
		<path class="st0" d="M30.7-104.6h0.9l1.8,4.7h-1.1l-0.4-1.1h-1.7l-0.4,1.1h-1L30.7-104.6z M31.7-101.8l-0.6-1.7l-0.6,1.7H31.7z"/>
		<path class="st0" d="M36.2-104.6h1.7c0.4,0,0.7,0,0.9,0.1c0.2,0.1,0.4,0.2,0.6,0.3c0.1,0.1,0.2,0.3,0.3,0.5
			c0.1,0.2,0.1,0.3,0.1,0.5c0,0.3-0.1,0.6-0.2,0.8c-0.1,0.2-0.3,0.4-0.6,0.5l1,2h-1.1l-0.8-1.8h-0.2h-0.8v1.8h-1V-104.6z
			 M37.9-102.5c0.2,0,0.3,0,0.4,0c0.1,0,0.2-0.1,0.2-0.1c0.1-0.1,0.1-0.1,0.1-0.2c0-0.1,0-0.2,0-0.3c0-0.1,0-0.2,0-0.2
			c0-0.1-0.1-0.1-0.1-0.2c-0.1-0.1-0.2-0.1-0.3-0.1c-0.1,0-0.3,0-0.4,0h-0.7v1.3H37.9z"/>
		<path class="st0" d="M42.8-104.6h1v1.9l1.7-1.9h1.1l-1.6,1.8l1.7,2.9h-1.1l-1.3-2.3l-0.6,0.6v1.7h-1V-104.6z"/>
		<path class="st0" d="M33.3-93.8c0,0.3-0.1,0.5-0.2,0.7c-0.1,0.2-0.2,0.4-0.4,0.6c-0.2,0.2-0.4,0.3-0.6,0.4
			c-0.2,0.1-0.5,0.1-0.8,0.1c-0.4,0-0.7-0.1-0.9-0.2c-0.3-0.1-0.5-0.3-0.7-0.5c-0.2-0.2-0.3-0.5-0.4-0.8c-0.1-0.3-0.1-0.6-0.1-1
			c0-0.4,0.1-0.7,0.2-1c0.1-0.3,0.2-0.6,0.4-0.8c0.2-0.2,0.4-0.4,0.7-0.5c0.3-0.1,0.6-0.2,0.9-0.2c0.3,0,0.6,0,0.8,0.1
			c0.2,0.1,0.4,0.2,0.6,0.3c0.2,0.1,0.3,0.3,0.4,0.5c0.1,0.2,0.2,0.4,0.2,0.7l-1,0.1c0-0.3-0.1-0.5-0.3-0.7
			c-0.1-0.2-0.4-0.2-0.7-0.2c-0.4,0-0.7,0.1-0.9,0.4c-0.2,0.3-0.3,0.7-0.3,1.2c0,0.5,0.1,0.9,0.3,1.2c0.2,0.3,0.5,0.4,0.8,0.4
			c0.3,0,0.5-0.1,0.7-0.2c0.1-0.2,0.2-0.4,0.3-0.7H33.3z"/>
		<path class="st0" d="M38.4-92c-0.4,0-0.7-0.1-0.9-0.2c-0.3-0.1-0.5-0.3-0.7-0.5c-0.2-0.2-0.3-0.5-0.4-0.8c-0.1-0.3-0.2-0.6-0.2-1
			c0-0.4,0.1-0.7,0.2-1c0.1-0.3,0.3-0.6,0.4-0.8c0.2-0.2,0.4-0.4,0.7-0.5c0.3-0.1,0.6-0.2,0.9-0.2c0.4,0,0.7,0.1,0.9,0.2
			c0.3,0.1,0.5,0.3,0.7,0.5c0.2,0.2,0.3,0.5,0.4,0.8c0.1,0.3,0.2,0.6,0.2,1c0,0.4,0,0.7-0.1,1c-0.1,0.3-0.2,0.6-0.4,0.8
			c-0.2,0.2-0.4,0.4-0.7,0.5C39.1-92.1,38.8-92,38.4-92z M38.4-92.9c0.4,0,0.7-0.1,0.9-0.4c0.2-0.3,0.3-0.7,0.3-1.2
			c0-0.5-0.1-0.9-0.3-1.2c-0.2-0.3-0.5-0.4-0.9-0.4s-0.7,0.1-0.9,0.4c-0.2,0.3-0.3,0.7-0.3,1.2c0,0.5,0.1,0.9,0.3,1.2
			C37.7-93,38-92.9,38.4-92.9z"/>
		<path class="st0" d="M43.7-96.9h1.2l1.2,3.5l1.2-3.5h1.1v4.7h-0.9v-3.1l-1.1,3.1h-0.8l-1.1-3.1v3.1h-0.9V-96.9z"/>
		<path class="st0" d="M51.7-96.9h1.2l1.2,3.5l1.2-3.5h1.1v4.7h-0.9v-3.1l-1.1,3.1h-0.8l-1.1-3.1v3.1h-0.9V-96.9z"/>
		<path class="st0" d="M59.6-96.9h1v2.8c0,0.4,0.1,0.7,0.2,0.9c0.1,0.2,0.4,0.3,0.7,0.3c0.3,0,0.6-0.1,0.7-0.3
			c0.1-0.2,0.2-0.5,0.2-0.9v-2.8h1v2.8c0,0.4,0,0.7-0.1,0.9c-0.1,0.3-0.2,0.5-0.4,0.6c-0.2,0.2-0.4,0.3-0.6,0.4
			C62-92.1,61.7-92,61.5-92c-0.3,0-0.6,0-0.8-0.1s-0.4-0.2-0.6-0.4c-0.2-0.2-0.3-0.4-0.4-0.6c-0.1-0.3-0.1-0.6-0.1-0.9V-96.9z"/>
		<path class="st0" d="M66.5-96.9h0.9l1.9,3.1v-3.1h1v4.7h-0.9l-1.9-3.1v3.1h-1V-96.9z"/>
		<path class="st0" d="M73.5-96.9h1v4.7h-1V-96.9z"/>
		<path class="st0" d="M78.8-96h-1.4v-0.9h3.8v0.9h-1.4v3.9h-1V-96z"/>
		<path class="st0" d="M85.5-94.1l-1.6-2.8H85l1,1.9l1.1-1.9h1l-1.6,2.8v1.9h-1V-94.1z"/>
		<path class="st0" d="M29.3-89.2h3.1v0.8h-2.1v1.1h2v0.8h-2v1.9h-1V-89.2z"/>
		<path class="st0" d="M35.4-89.2h1v2.8c0,0.4,0.1,0.7,0.2,0.9c0.1,0.2,0.4,0.3,0.7,0.3c0.3,0,0.6-0.1,0.7-0.3
			c0.1-0.2,0.2-0.5,0.2-0.9v-2.8h1v2.8c0,0.4,0,0.7-0.1,0.9c-0.1,0.3-0.2,0.5-0.4,0.6c-0.2,0.2-0.4,0.3-0.6,0.4
			c-0.2,0.1-0.5,0.1-0.8,0.1c-0.3,0-0.6,0-0.8-0.1c-0.2-0.1-0.4-0.2-0.6-0.4c-0.2-0.2-0.3-0.4-0.4-0.6c-0.1-0.3-0.1-0.6-0.1-0.9
			V-89.2z"/>
		<path class="st0" d="M42.3-89.2h0.9l1.9,3.1v-3.1h1v4.7h-0.9l-1.9-3.1v3.1h-1V-89.2z"/>
		<path class="st0" d="M49.3-89.2h1.8c0.7,0,1.3,0.2,1.7,0.6c0.4,0.4,0.6,1,0.6,1.7c0,0.4-0.1,0.7-0.2,1c-0.1,0.3-0.3,0.5-0.5,0.7
			c-0.2,0.2-0.5,0.4-0.8,0.5c-0.3,0.1-0.6,0.2-1,0.2h-1.6V-89.2z M50.9-85.3c0.3,0,0.5,0,0.7-0.1c0.2-0.1,0.3-0.2,0.4-0.3
			c0.1-0.1,0.2-0.3,0.2-0.5c0.1-0.2,0.1-0.4,0.1-0.6c0-0.2,0-0.4-0.1-0.6c0-0.2-0.1-0.3-0.2-0.5c-0.1-0.1-0.2-0.2-0.4-0.3
			c-0.2-0.1-0.4-0.1-0.6-0.1h-0.8v3H50.9z"/>
	</g>
</g>
<linearGradient id="SVGID_53_" gradientUnits="userSpaceOnUse" x1="57.3912" y1="-121.3739" x2="56.3311" y2="-110.7729">
	<stop  offset="0" style="stop-color:#821C24"/>
	<stop  offset="1" style="stop-color:#F41E1E"/>
</linearGradient>
<polyline class="st66" points="52.5,-122 52.5,-114.1 62.2,-120.2 62.2,-128.7 52.5,-122.6 "/>
<linearGradient id="SVGID_54_" gradientUnits="userSpaceOnUse" x1="24.8849" y1="-114.2197" x2="51.5387" y2="-129.061">
	<stop  offset="0" style="stop-color:#821C24"/>
	<stop  offset="1" style="stop-color:#F41E1E"/>
</linearGradient>
<polygon class="st67" points="62.2,-142 30.7,-122.6 30.7,-110.5 62.2,-129.9 "/>
<linearGradient id="SVGID_55_" gradientUnits="userSpaceOnUse" x1="28.1642" y1="-112.299" x2="61.7843" y2="-137.8927">
	<stop  offset="0" style="stop-color:#821C24"/>
	<stop  offset="1" style="stop-color:#F41E1E"/>
</linearGradient>
<polygon class="st68" points="62.2,-142 30.7,-122.6 62.2,-129.9 "/>
<linearGradient id="SVGID_56_" gradientUnits="userSpaceOnUse" x1="65.3253" y1="-127.6525" x2="55.3301" y2="-119.7775">
	<stop  offset="0" style="stop-color:#821C24"/>
	<stop  offset="1" style="stop-color:#F41E1E"/>
</linearGradient>
<polygon class="st69" points="62.2,-120.2 62.2,-128.7 52.5,-122.6 "/>
<line class="st70" x1="62.8" y1="-129.9" x2="26.5" y2="-121.4"/>
<line class="st70" x1="51.9" y1="-122.6" x2="65.3" y2="-119"/>
<rect x="153" y="11" width="69" height="69"/>
<g>
	<g>
		<path class="st0" d="M159.7,54.4h0.9l1.8,4.7h-1.1l-0.4-1.1h-1.7l-0.4,1.1h-1L159.7,54.4z M160.7,57.2l-0.6-1.7l-0.6,1.7H160.7z"
			/>
		<path class="st0" d="M165.2,54.4h1.7c0.4,0,0.7,0,0.9,0.1c0.2,0.1,0.4,0.2,0.6,0.3c0.1,0.1,0.2,0.3,0.3,0.5
			c0.1,0.2,0.1,0.3,0.1,0.5c0,0.3-0.1,0.6-0.2,0.8c-0.1,0.2-0.3,0.4-0.6,0.5l1,2h-1.1l-0.8-1.8h-0.2h-0.8v1.8h-1V54.4z M166.9,56.5
			c0.2,0,0.3,0,0.4,0c0.1,0,0.2-0.1,0.2-0.1s0.1-0.1,0.1-0.2c0-0.1,0-0.2,0-0.3c0-0.1,0-0.2,0-0.2c0-0.1-0.1-0.1-0.1-0.2
			c-0.1-0.1-0.2-0.1-0.3-0.1c-0.1,0-0.3,0-0.4,0h-0.7v1.3H166.9z"/>
		<path class="st0" d="M171.8,54.4h1v1.9l1.7-1.9h1.1l-1.6,1.8l1.7,2.9h-1.1l-1.3-2.3l-0.6,0.6v1.7h-1V54.4z"/>
		<path class="st0" d="M162.3,65.2c0,0.3-0.1,0.5-0.2,0.7c-0.1,0.2-0.2,0.4-0.4,0.6c-0.2,0.2-0.4,0.3-0.6,0.4
			c-0.2,0.1-0.5,0.1-0.8,0.1c-0.4,0-0.7-0.1-0.9-0.2c-0.3-0.1-0.5-0.3-0.7-0.5c-0.2-0.2-0.3-0.5-0.4-0.8c-0.1-0.3-0.1-0.6-0.1-1
			c0-0.4,0.1-0.7,0.2-1c0.1-0.3,0.2-0.6,0.4-0.8c0.2-0.2,0.4-0.4,0.7-0.5c0.3-0.1,0.6-0.2,0.9-0.2c0.3,0,0.6,0,0.8,0.1
			c0.2,0.1,0.4,0.2,0.6,0.3c0.2,0.1,0.3,0.3,0.4,0.5c0.1,0.2,0.2,0.4,0.2,0.7l-1,0.1c0-0.3-0.1-0.5-0.3-0.7
			c-0.1-0.2-0.4-0.2-0.7-0.2c-0.4,0-0.7,0.1-0.9,0.4c-0.2,0.3-0.3,0.7-0.3,1.2c0,0.5,0.1,0.9,0.3,1.2c0.2,0.3,0.5,0.4,0.8,0.4
			c0.3,0,0.5-0.1,0.7-0.2c0.1-0.2,0.2-0.4,0.3-0.7H162.3z"/>
		<path class="st0" d="M167.4,67c-0.4,0-0.7-0.1-0.9-0.2c-0.3-0.1-0.5-0.3-0.7-0.5c-0.2-0.2-0.3-0.5-0.4-0.8c-0.1-0.3-0.2-0.6-0.2-1
			c0-0.4,0.1-0.7,0.2-1c0.1-0.3,0.3-0.6,0.4-0.8c0.2-0.2,0.4-0.4,0.7-0.5c0.3-0.1,0.6-0.2,0.9-0.2c0.4,0,0.7,0.1,0.9,0.2
			c0.3,0.1,0.5,0.3,0.7,0.5c0.2,0.2,0.3,0.5,0.4,0.8c0.1,0.3,0.2,0.6,0.2,1c0,0.4,0,0.7-0.1,1c-0.1,0.3-0.2,0.6-0.4,0.8
			c-0.2,0.2-0.4,0.4-0.7,0.5C168.1,66.9,167.8,67,167.4,67z M167.4,66.1c0.4,0,0.7-0.1,0.9-0.4c0.2-0.3,0.3-0.7,0.3-1.2
			c0-0.5-0.1-0.9-0.3-1.2c-0.2-0.3-0.5-0.4-0.9-0.4c-0.4,0-0.7,0.1-0.9,0.4c-0.2,0.3-0.3,0.7-0.3,1.2c0,0.5,0.1,0.9,0.3,1.2
			C166.7,66,167,66.1,167.4,66.1z"/>
		<path class="st0" d="M172.7,62.1h1.2l1.2,3.5l1.2-3.5h1.1v4.7h-0.9v-3.1l-1.1,3.1h-0.8l-1.1-3.1v3.1h-0.9V62.1z"/>
		<path class="st0" d="M180.7,62.1h1.2l1.2,3.5l1.2-3.5h1.1v4.7h-0.9v-3.1l-1.1,3.1h-0.8l-1.1-3.1v3.1h-0.9V62.1z"/>
		<path class="st0" d="M188.6,62.1h1v2.8c0,0.4,0.1,0.7,0.2,0.9c0.1,0.2,0.4,0.3,0.7,0.3c0.3,0,0.6-0.1,0.7-0.3
			c0.1-0.2,0.2-0.5,0.2-0.9v-2.8h1v2.8c0,0.4,0,0.7-0.1,0.9c-0.1,0.3-0.2,0.5-0.4,0.6c-0.2,0.2-0.4,0.3-0.6,0.4
			c-0.2,0.1-0.5,0.1-0.8,0.1c-0.3,0-0.6,0-0.8-0.1s-0.4-0.2-0.6-0.4c-0.2-0.2-0.3-0.4-0.4-0.6c-0.1-0.3-0.1-0.6-0.1-0.9V62.1z"/>
		<path class="st0" d="M195.5,62.1h0.9l1.9,3.1v-3.1h1v4.7h-0.9l-1.9-3.1v3.1h-1V62.1z"/>
		<path class="st0" d="M202.5,62.1h1v4.7h-1V62.1z"/>
		<path class="st0" d="M207.8,63h-1.4v-0.9h3.8V63h-1.4v3.9h-1V63z"/>
		<path class="st0" d="M214.5,64.9l-1.6-2.8h1.1l1,1.9l1.1-1.9h1l-1.6,2.8v1.9h-1V64.9z"/>
		<path class="st0" d="M158.3,69.8h3.1v0.8h-2.1v1.1h2v0.8h-2v1.9h-1V69.8z"/>
		<path class="st0" d="M164.4,69.8h1v2.8c0,0.4,0.1,0.7,0.2,0.9c0.1,0.2,0.4,0.3,0.7,0.3c0.3,0,0.6-0.1,0.7-0.3
			c0.1-0.2,0.2-0.5,0.2-0.9v-2.8h1v2.8c0,0.4,0,0.7-0.1,0.9c-0.1,0.3-0.2,0.5-0.4,0.6c-0.2,0.2-0.4,0.3-0.6,0.4
			c-0.2,0.1-0.5,0.1-0.8,0.1c-0.3,0-0.6,0-0.8-0.1s-0.4-0.2-0.6-0.4c-0.2-0.2-0.3-0.4-0.4-0.6c-0.1-0.3-0.1-0.6-0.1-0.9V69.8z"/>
		<path class="st0" d="M171.3,69.8h0.9l1.9,3.1v-3.1h1v4.7h-0.9l-1.9-3.1v3.1h-1V69.8z"/>
		<path class="st0" d="M178.3,69.8h1.8c0.7,0,1.3,0.2,1.7,0.6c0.4,0.4,0.6,1,0.6,1.7c0,0.4-0.1,0.7-0.2,1c-0.1,0.3-0.3,0.5-0.5,0.7
			c-0.2,0.2-0.5,0.4-0.8,0.5c-0.3,0.1-0.6,0.2-1,0.2h-1.6V69.8z M179.9,73.7c0.3,0,0.5,0,0.7-0.1c0.2-0.1,0.3-0.2,0.4-0.3
			c0.1-0.1,0.2-0.3,0.2-0.5c0.1-0.2,0.1-0.4,0.1-0.6c0-0.2,0-0.4-0.1-0.6c0-0.2-0.1-0.3-0.2-0.5c-0.1-0.1-0.2-0.2-0.4-0.3
			c-0.2-0.1-0.4-0.1-0.6-0.1h-0.8v3H179.9z"/>
	</g>
</g>
<linearGradient id="SVGID_57_" gradientUnits="userSpaceOnUse" x1="186.3912" y1="37.6261" x2="185.3311" y2="48.2271">
	<stop  offset="0" style="stop-color:#821C24"/>
	<stop  offset="1" style="stop-color:#F41E1E"/>
</linearGradient>
<polyline class="st71" points="181.5,37 181.5,44.9 191.2,38.8 191.2,30.3 181.5,36.4 "/>
<linearGradient id="SVGID_58_" gradientUnits="userSpaceOnUse" x1="153.8849" y1="44.7803" x2="180.5387" y2="29.939">
	<stop  offset="0" style="stop-color:#821C24"/>
	<stop  offset="1" style="stop-color:#F41E1E"/>
</linearGradient>
<polygon class="st72" points="191.2,17 159.7,36.4 159.7,48.5 191.2,29.1 "/>
<linearGradient id="SVGID_59_" gradientUnits="userSpaceOnUse" x1="157.1642" y1="46.701" x2="190.7843" y2="21.1073">
	<stop  offset="0" style="stop-color:#821C24"/>
	<stop  offset="1" style="stop-color:#F41E1E"/>
</linearGradient>
<polygon class="st73" points="191.2,17 159.7,36.4 191.2,29.1 "/>
<linearGradient id="SVGID_60_" gradientUnits="userSpaceOnUse" x1="194.3253" y1="31.3475" x2="184.3301" y2="39.2225">
	<stop  offset="0" style="stop-color:#821C24"/>
	<stop  offset="1" style="stop-color:#F41E1E"/>
</linearGradient>
<polygon class="st74" points="191.2,38.8 191.2,30.3 181.5,36.4 "/>
<line class="st61" x1="191.8" y1="29.1" x2="155.5" y2="37.6"/>
<line class="st61" x1="180.9" y1="36.4" x2="194.3" y2="40"/>
<g>
	<path d="M235.7,53.4h0.9l1.8,4.7h-1.1l-0.4-1.1h-1.7l-0.4,1.1h-1L235.7,53.4z M236.7,56.2l-0.6-1.7l-0.6,1.7H236.7z"/>
	<path d="M241.2,53.4h1.7c0.4,0,0.7,0,0.9,0.1c0.2,0.1,0.4,0.2,0.6,0.3c0.1,0.1,0.2,0.3,0.3,0.5c0.1,0.2,0.1,0.3,0.1,0.5
		c0,0.3-0.1,0.6-0.2,0.8c-0.1,0.2-0.3,0.4-0.6,0.5l1,2h-1.1l-0.8-1.8h-0.2h-0.8v1.8h-1V53.4z M242.9,55.5c0.2,0,0.3,0,0.4,0
		c0.1,0,0.2-0.1,0.2-0.1s0.1-0.1,0.1-0.2c0-0.1,0-0.2,0-0.3c0-0.1,0-0.2,0-0.2c0-0.1-0.1-0.1-0.1-0.2c-0.1-0.1-0.2-0.1-0.3-0.1
		c-0.1,0-0.3,0-0.4,0h-0.7v1.3H242.9z"/>
	<path d="M247.8,53.4h1v1.9l1.7-1.9h1.1l-1.6,1.8l1.7,2.9h-1.1l-1.3-2.3l-0.6,0.6v1.7h-1V53.4z"/>
	<path d="M238.3,64.2c0,0.3-0.1,0.5-0.2,0.7c-0.1,0.2-0.2,0.4-0.4,0.6c-0.2,0.2-0.4,0.3-0.6,0.4c-0.2,0.1-0.5,0.1-0.8,0.1
		c-0.4,0-0.7-0.1-0.9-0.2c-0.3-0.1-0.5-0.3-0.7-0.5c-0.2-0.2-0.3-0.5-0.4-0.8c-0.1-0.3-0.1-0.6-0.1-1c0-0.4,0.1-0.7,0.2-1
		c0.1-0.3,0.2-0.6,0.4-0.8c0.2-0.2,0.4-0.4,0.7-0.5c0.3-0.1,0.6-0.2,0.9-0.2c0.3,0,0.6,0,0.8,0.1c0.2,0.1,0.4,0.2,0.6,0.3
		c0.2,0.1,0.3,0.3,0.4,0.5c0.1,0.2,0.2,0.4,0.2,0.7l-1,0.1c0-0.3-0.1-0.5-0.3-0.7c-0.1-0.2-0.4-0.2-0.7-0.2c-0.4,0-0.7,0.1-0.9,0.4
		c-0.2,0.3-0.3,0.7-0.3,1.2c0,0.5,0.1,0.9,0.3,1.2c0.2,0.3,0.5,0.4,0.8,0.4c0.3,0,0.5-0.1,0.7-0.2c0.1-0.2,0.2-0.4,0.3-0.7H238.3z"
		/>
	<path d="M243.4,66c-0.4,0-0.7-0.1-0.9-0.2c-0.3-0.1-0.5-0.3-0.7-0.5c-0.2-0.2-0.3-0.5-0.4-0.8c-0.1-0.3-0.2-0.6-0.2-1
		c0-0.4,0.1-0.7,0.2-1c0.1-0.3,0.3-0.6,0.4-0.8c0.2-0.2,0.4-0.4,0.7-0.5c0.3-0.1,0.6-0.2,0.9-0.2c0.4,0,0.7,0.1,0.9,0.2
		c0.3,0.1,0.5,0.3,0.7,0.5c0.2,0.2,0.3,0.5,0.4,0.8c0.1,0.3,0.2,0.6,0.2,1c0,0.4,0,0.7-0.1,1c-0.1,0.3-0.2,0.6-0.4,0.8
		c-0.2,0.2-0.4,0.4-0.7,0.5C244.1,65.9,243.8,66,243.4,66z M243.4,65.1c0.4,0,0.7-0.1,0.9-0.4c0.2-0.3,0.3-0.7,0.3-1.2
		c0-0.5-0.1-0.9-0.3-1.2c-0.2-0.3-0.5-0.4-0.9-0.4c-0.4,0-0.7,0.1-0.9,0.4c-0.2,0.3-0.3,0.7-0.3,1.2c0,0.5,0.1,0.9,0.3,1.2
		C242.7,65,243,65.1,243.4,65.1z"/>
	<path d="M248.7,61.1h1.2l1.2,3.5l1.2-3.5h1.1v4.7h-0.9v-3.1l-1.1,3.1h-0.8l-1.1-3.1v3.1h-0.9V61.1z"/>
	<path d="M256.7,61.1h1.2l1.2,3.5l1.2-3.5h1.1v4.7h-0.9v-3.1l-1.1,3.1h-0.8l-1.1-3.1v3.1h-0.9V61.1z"/>
	<path d="M264.6,61.1h1v2.8c0,0.4,0.1,0.7,0.2,0.9c0.1,0.2,0.4,0.3,0.7,0.3c0.3,0,0.6-0.1,0.7-0.3c0.1-0.2,0.2-0.5,0.2-0.9v-2.8h1
		v2.8c0,0.4,0,0.7-0.1,0.9c-0.1,0.3-0.2,0.5-0.4,0.6c-0.2,0.2-0.4,0.3-0.6,0.4c-0.2,0.1-0.5,0.1-0.8,0.1c-0.3,0-0.6,0-0.8-0.1
		c-0.2-0.1-0.4-0.2-0.6-0.4c-0.2-0.2-0.3-0.4-0.4-0.6c-0.1-0.3-0.1-0.6-0.1-0.9V61.1z"/>
	<path d="M271.5,61.1h0.9l1.9,3.1v-3.1h1v4.7h-0.9l-1.9-3.1v3.1h-1V61.1z"/>
	<path d="M278.5,61.1h1v4.7h-1V61.1z"/>
	<path d="M283.8,62h-1.4v-0.9h3.8V62h-1.4v3.9h-1V62z"/>
	<path d="M290.5,63.9l-1.6-2.8h1.1l1,1.9l1.1-1.9h1l-1.6,2.8v1.9h-1V63.9z"/>
	<path d="M234.3,68.8h3.1v0.8h-2.1v1.1h2v0.8h-2v1.9h-1V68.8z"/>
	<path d="M240.4,68.8h1v2.8c0,0.4,0.1,0.7,0.2,0.9c0.1,0.2,0.4,0.3,0.7,0.3c0.3,0,0.6-0.1,0.7-0.3c0.1-0.2,0.2-0.5,0.2-0.9v-2.8h1
		v2.8c0,0.4,0,0.7-0.1,0.9c-0.1,0.3-0.2,0.5-0.4,0.6c-0.2,0.2-0.4,0.3-0.6,0.4c-0.2,0.1-0.5,0.1-0.8,0.1c-0.3,0-0.6,0-0.8-0.1
		s-0.4-0.2-0.6-0.4c-0.2-0.2-0.3-0.4-0.4-0.6c-0.1-0.3-0.1-0.6-0.1-0.9V68.8z"/>
	<path d="M247.3,68.8h0.9l1.9,3.1v-3.1h1v4.7h-0.9l-1.9-3.1v3.1h-1V68.8z"/>
	<path d="M254.3,68.8h1.8c0.7,0,1.3,0.2,1.7,0.6c0.4,0.4,0.6,1,0.6,1.7c0,0.4-0.1,0.7-0.2,1c-0.1,0.3-0.3,0.5-0.5,0.7
		c-0.2,0.2-0.5,0.4-0.8,0.5c-0.3,0.1-0.6,0.2-1,0.2h-1.6V68.8z M255.9,72.7c0.3,0,0.5,0,0.7-0.1c0.2-0.1,0.3-0.2,0.4-0.3
		c0.1-0.1,0.2-0.3,0.2-0.5c0.1-0.2,0.1-0.4,0.1-0.6c0-0.2,0-0.4-0.1-0.6c0-0.2-0.1-0.3-0.2-0.5c-0.1-0.1-0.2-0.2-0.4-0.3
		c-0.2-0.1-0.4-0.1-0.6-0.1h-0.8v3H255.9z"/>
</g>
<linearGradient id="SVGID_61_" gradientUnits="userSpaceOnUse" x1="260.0198" y1="36.7569" x2="258.9724" y2="47.2304">
	<stop  offset="0" style="stop-color:#821C24"/>
	<stop  offset="1" style="stop-color:#F41E1E"/>
</linearGradient>
<polyline class="st75" points="255.2,36.1 255.2,43.9 264.8,37.9 264.8,29.5 255.2,35.5 "/>
<linearGradient id="SVGID_62_" gradientUnits="userSpaceOnUse" x1="227.9043" y1="43.8251" x2="254.2376" y2="29.1622">
	<stop  offset="0" style="stop-color:#821C24"/>
	<stop  offset="1" style="stop-color:#F41E1E"/>
</linearGradient>
<polygon class="st76" points="264.8,16.4 233.7,35.5 233.7,47.5 264.8,28.3 "/>
<linearGradient id="SVGID_63_" gradientUnits="userSpaceOnUse" x1="231.1441" y1="45.7227" x2="264.36" y2="20.4367">
	<stop  offset="0" style="stop-color:#821C24"/>
	<stop  offset="1" style="stop-color:#F41E1E"/>
</linearGradient>
<polygon class="st77" points="264.8,16.4 233.7,35.5 264.8,28.3 "/>
<linearGradient id="SVGID_64_" gradientUnits="userSpaceOnUse" x1="267.8584" y1="30.5537" x2="257.9834" y2="38.334">
	<stop  offset="0" style="stop-color:#821C24"/>
	<stop  offset="1" style="stop-color:#F41E1E"/>
</linearGradient>
<polygon class="st78" points="264.8,37.9 264.8,29.5 255.2,35.5 "/>
<line class="st56" x1="265.4" y1="28.3" x2="229.5" y2="36.7"/>
<line class="st56" x1="254.6" y1="35.5" x2="269" y2="39.1"/>
<rect x="22" y="113.3" class="st45" width="73.3" height="9.7"/>
<text transform="matrix(1 0 0 1 41.0894 116.6685)" class="st79" style="font-family:'ProximaNova-Regular'; font-size:5px; letter-spacing:1;">46 px icons</text>
<rect x="185" y="113.3" class="st45" width="73.3" height="9.7"/>
<text transform="matrix(1 0 0 1 204.0894 116.6685)" class="st79" style="font-family:'ProximaNova-Regular'; font-size:5px; letter-spacing:1;">64 px icons</text>
<linearGradient id="SVGID_65_" gradientUnits="userSpaceOnUse" x1="-77" y1="49.5" x2="-50" y2="49.5">
	<stop  offset="0" style="stop-color:#821C24"/>
	<stop  offset="1" style="stop-color:#F41E1E"/>
</linearGradient>
<linearGradient id="SVGID_66_" gradientUnits="userSpaceOnUse" x1="-77.25" y1="49.5" x2="-49.75" y2="49.5">
	<stop  offset="0" style="stop-color:#821C24"/>
	<stop  offset="1" style="stop-color:#F41E1E"/>
</linearGradient>
<path class="st80" d="M-77,52.3v11l19-11.7v9.3l8-5.1v-9.1V46V35.7L-77,52.3z M-76,52.8l23.2-5.4L-76,61.7V52.8z M-57,52.2l5.8,3.3
	l-5.8,4V52.2z M-51,54.8l-6-3.4V51h0l6-3.7V54.8z M-51,46.2l-23.2,5.4L-51,37.3V46V46.2z"/>
<rect x="-99" y="113.3" class="st45" width="73.3" height="9.7"/>
<text transform="matrix(1 0 0 1 -73.1909 116.6685)" class="st79" style="font-family:'ProximaNova-Regular'; font-size:5px; letter-spacing:1;">favicon</text>
<rect x="-117.5" y="-22" class="st45" width="72" height="21"/>
<text transform="matrix(1 0 0 1 -117.5 -16.6641)" class="st81" style="font-family:'ProximaNova-Regular'; font-size:8px; letter-spacing:1;">Icon pack</text>
</svg>
