<?xml version="1.0" encoding="utf-8"?>
<!-- Generator: Adobe Illustrator 21.0.2, SVG Export Plug-In . SVG Version: 6.00 Build 0)  -->
<svg version="1.1" id="Layer_1" xmlns="http://www.w3.org/2000/svg" xmlns:xlink="http://www.w3.org/1999/xlink" x="0px" y="0px"
	 viewBox="0 0 64 64" style="enable-background:new 0 0 64 64;" xml:space="preserve">
<style type="text/css">
	.st0{fill:#FFFFFF;}
	.st1{fill:url(#SVGID_1_);}
	.st2{fill:#FFFFFF;stroke:#333333;stroke-width:2;}
	.st3{fill:#333333;}
	.st4{stroke:#FFFFFF;stroke-width:2;}
	.st5{fill:none;stroke:#808080;}
	.st6{fill:url(#SVGID_2_);}
	.st7{fill:url(#SVGID_3_);}
	.st8{fill:url(#SVGID_4_);}
	.st9{fill:url(#SVGID_5_);}
	.st10{fill:url(#SVGID_6_);}
	.st11{fill:url(#SVGID_7_);}
	.st12{fill:url(#SVGID_8_);}
	.st13{fill:url(#SVGID_9_);}
	.st14{fill:none;stroke:#000000;stroke-width:5;stroke-miterlimit:10;}
	.st15{fill:none;stroke:#FFFFFF;stroke-width:5;stroke-miterlimit:10;}
	.st16{fill:url(#SVGID_10_);}
	.st17{fill:url(#SVGID_11_);}
	.st18{fill:url(#SVGID_12_);}
	.st19{fill:url(#SVGID_13_);}
	.st20{fill:url(#SVGID_14_);}
	.st21{fill:url(#SVGID_15_);}
	.st22{fill:url(#SVGID_16_);}
	.st23{fill:url(#SVGID_17_);}
	.st24{fill:url(#SVGID_18_);}
	.st25{fill:url(#SVGID_19_);}
	.st26{fill:url(#SVGID_20_);}
	.st27{fill:url(#SVGID_21_);}
	.st28{fill:url(#SVGID_22_);}
	.st29{fill:url(#SVGID_23_);}
	.st30{fill:url(#SVGID_24_);}
	.st31{fill:url(#SVGID_25_);}
	.st32{fill:url(#SVGID_26_);}
	.st33{fill:url(#SVGID_27_);}
	.st34{fill:url(#SVGID_28_);}
	.st35{fill:url(#SVGID_29_);}
	.st36{fill:none;stroke:#FFFFFF;stroke-width:4;stroke-miterlimit:10;}
	.st37{fill:url(#SVGID_30_);stroke:#000000;stroke-width:0.5;stroke-miterlimit:10;}
	.st38{fill:url(#SVGID_31_);stroke:#000000;stroke-width:0.5;stroke-miterlimit:10;}
	.st39{fill:url(#SVGID_32_);stroke:#000000;stroke-width:0.5;stroke-miterlimit:10;}
	.st40{fill:url(#SVGID_33_);stroke:#000000;stroke-width:0.5;stroke-miterlimit:10;}
	.st41{fill:url(#SVGID_34_);stroke:#000000;stroke-width:0.75;stroke-miterlimit:10;}
	.st42{fill:url(#SVGID_35_);stroke:#000000;stroke-width:0.75;stroke-miterlimit:10;}
	.st43{fill:url(#SVGID_36_);stroke:#000000;stroke-width:0.75;stroke-miterlimit:10;}
	.st44{fill:url(#SVGID_37_);stroke:#000000;stroke-width:0.75;stroke-miterlimit:10;}
	.st45{fill:none;}
	.st46{fill:none;stroke:#000000;stroke-width:26;stroke-miterlimit:10;}
	.st47{fill:#525252;}
	.st48{fill:url(#SVGID_38_);stroke:#000000;stroke-width:0.5;stroke-miterlimit:10;}
	.st49{fill:url(#SVGID_39_);stroke:#000000;stroke-width:0.5;stroke-miterlimit:10;}
	.st50{fill:url(#SVGID_40_);stroke:#000000;stroke-width:0.5;stroke-miterlimit:10;}
	.st51{fill:url(#SVGID_41_);stroke:#000000;stroke-width:0.5;stroke-miterlimit:10;}
	.st52{fill:url(#SVGID_42_);}
	.st53{fill:url(#SVGID_43_);}
	.st54{fill:url(#SVGID_44_);}
	.st55{fill:none;stroke:#FFFFFF;stroke-width:0.5;stroke-miterlimit:10;}
	.st56{fill:none;stroke:#FFFFFF;stroke-width:0.75;stroke-miterlimit:10;}
	.st57{fill:url(#SVGID_45_);}
	.st58{fill:url(#SVGID_46_);}
	.st59{fill:url(#SVGID_47_);}
	.st60{fill:url(#SVGID_48_);}
	.st61{fill:none;stroke:#000000;stroke-width:0.75;stroke-miterlimit:10;}
	.st62{fill:url(#SVGID_49_);stroke:#000000;stroke-width:0.5;stroke-miterlimit:10;}
	.st63{fill:url(#SVGID_50_);stroke:#000000;stroke-width:0.5;stroke-miterlimit:10;}
	.st64{fill:url(#SVGID_51_);stroke:#000000;stroke-width:0.5;stroke-miterlimit:10;}
	.st65{fill:url(#SVGID_52_);stroke:#000000;stroke-width:0.5;stroke-miterlimit:10;}
	.st66{fill:url(#SVGID_53_);}
	.st67{fill:url(#SVGID_54_);}
	.st68{fill:url(#SVGID_55_);}
	.st69{fill:url(#SVGID_56_);}
	.st70{fill:none;stroke:#000000;stroke-width:0.5;stroke-miterlimit:10;}
	.st71{fill:url(#SVGID_57_);}
	.st72{fill:url(#SVGID_58_);}
	.st73{fill:url(#SVGID_59_);}
	.st74{fill:url(#SVGID_60_);}
	.st75{fill:url(#SVGID_61_);}
	.st76{fill:url(#SVGID_62_);}
	.st77{fill:url(#SVGID_63_);}
	.st78{fill:url(#SVGID_64_);}
	.st79{fill:#808080;}
	.st80{fill:url(#SVGID_65_);stroke:url(#SVGID_66_);stroke-width:0.5;stroke-miterlimit:10;}
	.st81{fill:#999999;}
</style>
<rect x="-2.5" y="-3" width="69" height="69"/>
<g>
	<g>
		<path class="st0" d="M4.2,40.4h0.9l1.8,4.7H5.8L5.4,44H3.8l-0.4,1.1h-1L4.2,40.4z M5.2,43.2l-0.6-1.7L4,43.2H5.2z"/>
		<path class="st0" d="M9.7,40.4h1.7c0.4,0,0.7,0,0.9,0.1c0.2,0.1,0.4,0.2,0.6,0.3c0.1,0.1,0.2,0.3,0.3,0.5c0.1,0.2,0.1,0.3,0.1,0.5
			c0,0.3-0.1,0.6-0.2,0.8c-0.1,0.2-0.3,0.4-0.6,0.5l1,2h-1.1l-0.8-1.8h-0.2h-0.8v1.8h-1V40.4z M11.4,42.5c0.2,0,0.3,0,0.4,0
			c0.1,0,0.2-0.1,0.2-0.1s0.1-0.1,0.1-0.2c0-0.1,0-0.2,0-0.3c0-0.1,0-0.2,0-0.2c0-0.1-0.1-0.1-0.1-0.2c-0.1-0.1-0.2-0.1-0.3-0.1
			c-0.1,0-0.3,0-0.4,0h-0.7v1.3H11.4z"/>
		<path class="st0" d="M16.3,40.4h1v1.9l1.7-1.9h1.1l-1.6,1.8l1.7,2.9h-1.1l-1.3-2.3l-0.6,0.6v1.7h-1V40.4z"/>
		<path class="st0" d="M6.8,51.2c0,0.3-0.1,0.5-0.2,0.7c-0.1,0.2-0.2,0.4-0.4,0.6c-0.2,0.2-0.4,0.3-0.6,0.4C5.4,52.9,5.2,53,4.8,53
			c-0.4,0-0.7-0.1-0.9-0.2c-0.3-0.1-0.5-0.3-0.7-0.5c-0.2-0.2-0.3-0.5-0.4-0.8c-0.1-0.3-0.1-0.6-0.1-1c0-0.4,0.1-0.7,0.2-1
			c0.1-0.3,0.2-0.6,0.4-0.8c0.2-0.2,0.4-0.4,0.7-0.5C4.2,48.1,4.5,48,4.9,48c0.3,0,0.6,0,0.8,0.1c0.2,0.1,0.4,0.2,0.6,0.3
			c0.2,0.1,0.3,0.3,0.4,0.5c0.1,0.2,0.2,0.4,0.2,0.7l-1,0.1c0-0.3-0.1-0.5-0.3-0.7c-0.1-0.2-0.4-0.2-0.7-0.2c-0.4,0-0.7,0.1-0.9,0.4
			c-0.2,0.3-0.3,0.7-0.3,1.2c0,0.5,0.1,0.9,0.3,1.2c0.2,0.3,0.5,0.4,0.8,0.4c0.3,0,0.5-0.1,0.7-0.2c0.1-0.2,0.2-0.4,0.3-0.7H6.8z"/>
		<path class="st0" d="M11.9,53c-0.4,0-0.7-0.1-0.9-0.2c-0.3-0.1-0.5-0.3-0.7-0.5c-0.2-0.2-0.3-0.5-0.4-0.8c-0.1-0.3-0.2-0.6-0.2-1
			c0-0.4,0.1-0.7,0.2-1s0.3-0.6,0.4-0.8c0.2-0.2,0.4-0.4,0.7-0.5c0.3-0.1,0.6-0.2,0.9-0.2c0.4,0,0.7,0.1,0.9,0.2
			c0.3,0.1,0.5,0.3,0.7,0.5c0.2,0.2,0.3,0.5,0.4,0.8c0.1,0.3,0.2,0.6,0.2,1c0,0.4,0,0.7-0.1,1c-0.1,0.3-0.2,0.6-0.4,0.8
			c-0.2,0.2-0.4,0.4-0.7,0.5C12.6,52.9,12.3,53,11.9,53z M11.9,52.1c0.4,0,0.7-0.1,0.9-0.4c0.2-0.3,0.3-0.7,0.3-1.2
			c0-0.5-0.1-0.9-0.3-1.2c-0.2-0.3-0.5-0.4-0.9-0.4S11.2,49,11,49.3c-0.2,0.3-0.3,0.7-0.3,1.2c0,0.5,0.1,0.9,0.3,1.2
			C11.2,52,11.5,52.1,11.9,52.1z"/>
		<path class="st0" d="M17.2,48.1h1.2l1.2,3.5l1.2-3.5H22v4.7H21v-3.1L20,52.8h-0.8l-1.1-3.1v3.1h-0.9V48.1z"/>
		<path class="st0" d="M25.2,48.1h1.2l1.2,3.5l1.2-3.5h1.1v4.7H29v-3.1l-1.1,3.1h-0.8l-1.1-3.1v3.1h-0.9V48.1z"/>
		<path class="st0" d="M33.1,48.1h1v2.8c0,0.4,0.1,0.7,0.2,0.9c0.1,0.2,0.4,0.3,0.7,0.3c0.3,0,0.6-0.1,0.7-0.3
			c0.1-0.2,0.2-0.5,0.2-0.9v-2.8h1v2.8c0,0.4,0,0.7-0.1,0.9c-0.1,0.3-0.2,0.5-0.4,0.6c-0.2,0.2-0.4,0.3-0.6,0.4S35.2,53,35,53
			c-0.3,0-0.6,0-0.8-0.1s-0.4-0.2-0.6-0.4c-0.2-0.2-0.3-0.4-0.4-0.6c-0.1-0.3-0.1-0.6-0.1-0.9V48.1z"/>
		<path class="st0" d="M40,48.1h0.9l1.9,3.1v-3.1h1v4.7h-0.9L41,49.8v3.1h-1V48.1z"/>
		<path class="st0" d="M47,48.1h1v4.7h-1V48.1z"/>
		<path class="st0" d="M52.3,49h-1.4v-0.9h3.8V49h-1.4v3.9h-1V49z"/>
		<path class="st0" d="M59,50.9l-1.6-2.8h1.1l1,1.9l1.1-1.9h1L60,50.9v1.9h-1V50.9z"/>
		<path class="st0" d="M2.8,55.8h3.1v0.8H3.8v1.1h2v0.8h-2v1.9h-1V55.8z"/>
		<path class="st0" d="M8.9,55.8h1v2.8c0,0.4,0.1,0.7,0.2,0.9c0.1,0.2,0.4,0.3,0.7,0.3c0.3,0,0.6-0.1,0.7-0.3
			c0.1-0.2,0.2-0.5,0.2-0.9v-2.8h1v2.8c0,0.4,0,0.7-0.1,0.9c-0.1,0.3-0.2,0.5-0.4,0.6c-0.2,0.2-0.4,0.3-0.6,0.4
			c-0.2,0.1-0.5,0.1-0.8,0.1c-0.3,0-0.6,0-0.8-0.1c-0.2-0.1-0.4-0.2-0.6-0.4C9.2,60,9.1,59.8,9,59.5c-0.1-0.3-0.1-0.6-0.1-0.9V55.8z
			"/>
		<path class="st0" d="M15.8,55.8h0.9l1.9,3.1v-3.1h1v4.7h-0.9l-1.9-3.1v3.1h-1V55.8z"/>
		<path class="st0" d="M22.8,55.8h1.8c0.7,0,1.3,0.2,1.7,0.6c0.4,0.4,0.6,1,0.6,1.7c0,0.4-0.1,0.7-0.2,1c-0.1,0.3-0.3,0.5-0.5,0.7
			c-0.2,0.2-0.5,0.4-0.8,0.5c-0.3,0.1-0.6,0.2-1,0.2h-1.6V55.8z M24.4,59.7c0.3,0,0.5,0,0.7-0.1c0.2-0.1,0.3-0.2,0.4-0.3
			c0.1-0.1,0.2-0.3,0.2-0.5c0.1-0.2,0.1-0.4,0.1-0.6c0-0.2,0-0.4-0.1-0.6c0-0.2-0.1-0.3-0.2-0.5c-0.1-0.1-0.2-0.2-0.4-0.3
			c-0.2-0.1-0.4-0.1-0.6-0.1h-0.8v3H24.4z"/>
	</g>
</g>
<linearGradient id="SVGID_1_" gradientUnits="userSpaceOnUse" x1="30.8912" y1="23.6261" x2="29.8311" y2="34.2271">
	<stop  offset="0" style="stop-color:#821C24"/>
	<stop  offset="1" style="stop-color:#F41E1E"/>
</linearGradient>
<polyline class="st1" points="26,23 26,30.9 35.7,24.8 35.7,16.3 26,22.4 "/>
<linearGradient id="SVGID_2_" gradientUnits="userSpaceOnUse" x1="-1.6151" y1="30.7803" x2="25.0387" y2="15.939">
	<stop  offset="0" style="stop-color:#821C24"/>
	<stop  offset="1" style="stop-color:#F41E1E"/>
</linearGradient>
<polygon class="st6" points="35.7,3 4.2,22.4 4.2,34.5 35.7,15.1 "/>
<linearGradient id="SVGID_3_" gradientUnits="userSpaceOnUse" x1="1.6642" y1="32.701" x2="35.2843" y2="7.1073">
	<stop  offset="0" style="stop-color:#821C24"/>
	<stop  offset="1" style="stop-color:#F41E1E"/>
</linearGradient>
<polygon class="st7" points="35.7,3 4.2,22.4 35.7,15.1 "/>
<linearGradient id="SVGID_4_" gradientUnits="userSpaceOnUse" x1="38.8253" y1="17.3475" x2="28.8301" y2="25.2225">
	<stop  offset="0" style="stop-color:#821C24"/>
	<stop  offset="1" style="stop-color:#F41E1E"/>
</linearGradient>
<polygon class="st8" points="35.7,24.8 35.7,16.3 26,22.4 "/>
<line class="st61" x1="36.3" y1="15.1" x2="0" y2="23.6"/>
<line class="st61" x1="25.4" y1="22.4" x2="38.8" y2="26"/>
</svg>
