<?xml version="1.0" encoding="utf-8"?>
<!-- Generator: Adobe Illustrator 21.1.0, SVG Export Plug-In . SVG Version: 6.00 Build 0)  -->
<svg version="1.1" id="Layer_2" xmlns="http://www.w3.org/2000/svg" xmlns:xlink="http://www.w3.org/1999/xlink" x="0px" y="0px"
	 viewBox="0 0 508 536" style="enable-background:new 0 0 508 536;" xml:space="preserve">
<style type="text/css">
	.st0{fill:url(#SVGID_1_);}
	.st1{fill:url(#SVGID_2_);}
	.st2{display:none;}
	.st3{display:inline;fill:url(#SVGID_3_);}
	.st4{display:inline;fill:url(#SVGID_4_);}
	.st5{display:inline;fill:url(#SVGID_5_);}
	.st6{display:inline;fill:url(#SVGID_6_);}
	.st7{fill:url(#SVGID_7_);}
	.st8{fill:url(#SVGID_8_);}
	.st9{fill:url(#SVGID_9_);}
	.st10{display:inline;fill:url(#SVGID_10_);}
	.st11{display:inline;fill:url(#SVGID_11_);}
	.st12{display:inline;fill:url(#SVGID_12_);}
	.st13{display:inline;fill:url(#SVGID_13_);}
	.st14{fill:url(#SVGID_14_);}
	.st15{fill:url(#SVGID_15_);}
	.st16{fill:url(#SVGID_16_);}
	.st17{display:inline;fill:url(#SVGID_17_);}
	.st18{display:inline;fill:url(#SVGID_18_);}
	.st19{display:inline;fill:url(#SVGID_19_);}
	.st20{display:inline;fill:url(#SVGID_20_);}
	.st21{fill:url(#SVGID_21_);}
	.st22{fill:url(#SVGID_22_);}
	.st23{fill:url(#SVGID_23_);}
	.st24{display:inline;fill:url(#SVGID_24_);}
	.st25{display:inline;fill:url(#SVGID_25_);}
	.st26{display:inline;fill:url(#SVGID_26_);}
	.st27{display:inline;fill:url(#SVGID_27_);}
	.st28{fill:url(#SVGID_28_);}
	.st29{fill:url(#SVGID_29_);}
	.st30{fill:url(#SVGID_30_);}
	.st31{display:inline;fill:url(#SVGID_31_);}
	.st32{display:inline;fill:url(#SVGID_32_);}
	.st33{display:inline;fill:url(#SVGID_33_);}
	.st34{display:inline;fill:url(#SVGID_34_);}
	.st35{fill:url(#SVGID_35_);}
	.st36{fill:#595959;}
</style>
<g id="Logo_B_x26_W">
	<g>
		<linearGradient id="SVGID_1_" gradientUnits="userSpaceOnUse" x1="139.6651" y1="444.1043" x2="233.2222" y2="335.0466">
			<stop  offset="0" style="stop-color:#9B9B9B"/>
			<stop  offset="0.2732" style="stop-color:#7F7F7F"/>
			<stop  offset="1" style="stop-color:#373737"/>
		</linearGradient>
		<polygon class="st0" points="254,347.7 125.4,478.5 254,273.9 		"/>
		<linearGradient id="SVGID_2_" gradientUnits="userSpaceOnUse" x1="267.1415" y1="330.6422" x2="347.4124" y2="452.4325">
			<stop  offset="0" style="stop-color:#9B9B9B"/>
			<stop  offset="0.2732" style="stop-color:#7F7F7F"/>
			<stop  offset="1" style="stop-color:#373737"/>
		</linearGradient>
		<polygon class="st1" points="254,347.7 382.7,478.5 254,273.9 		"/>
		<g class="st2">
			<linearGradient id="SVGID_3_" gradientUnits="userSpaceOnUse" x1="246.982" y1="425.4994" x2="197.0266" y2="425.4994">
				<stop  offset="0" style="stop-color:#D90303"/>
				<stop  offset="1" style="stop-color:#AD0303"/>
			</linearGradient>
			<polygon class="st3" points="196.3,436.1 254,436.1 254,414.9 216.7,414.9 			"/>
			<linearGradient id="SVGID_4_" gradientUnits="userSpaceOnUse" x1="251.2892" y1="387.8662" x2="231.7944" y2="387.8662">
				<stop  offset="0" style="stop-color:#D90303"/>
				<stop  offset="1" style="stop-color:#AD0303"/>
			</linearGradient>
			<polygon class="st4" points="254,376.2 231.5,399.6 254,399.6 			"/>
		</g>
		<g class="st2">
			<linearGradient id="SVGID_5_" gradientUnits="userSpaceOnUse" x1="304.7106" y1="425.4994" x2="254.7552" y2="425.4994">
				<stop  offset="0" style="stop-color:#D90303"/>
				<stop  offset="1" style="stop-color:#AD0303"/>
			</linearGradient>
			<polygon class="st5" points="311.8,436.1 291.4,414.9 254,414.9 254,436.1 			"/>
			<linearGradient id="SVGID_6_" gradientUnits="userSpaceOnUse" x1="273.8175" y1="387.8662" x2="254.3227" y2="387.8662">
				<stop  offset="0" style="stop-color:#D90303"/>
				<stop  offset="1" style="stop-color:#AD0303"/>
			</linearGradient>
			<polygon class="st6" points="254,376.2 254,399.6 276.6,399.6 			"/>
		</g>
	</g>
	<linearGradient id="SVGID_7_" gradientUnits="userSpaceOnUse" x1="238.5365" y1="384.9218" x2="269.2277" y2="384.9218">
		<stop  offset="0" style="stop-color:#9B9B9B"/>
		<stop  offset="0.2732" style="stop-color:#7F7F7F"/>
		<stop  offset="1" style="stop-color:#373737"/>
	</linearGradient>
	<circle class="st7" cx="253.9" cy="384.9" r="15.3"/>
	<g>
		
			<linearGradient id="SVGID_8_" gradientUnits="userSpaceOnUse" x1="104.0376" y1="472.2236" x2="197.5947" y2="363.1659" gradientTransform="matrix(0.309 -0.9511 0.9511 0.309 -85.9187 377.743)">
			<stop  offset="0" style="stop-color:#9B9B9B"/>
			<stop  offset="0.2732" style="stop-color:#7F7F7F"/>
			<stop  offset="1" style="stop-color:#373737"/>
		</linearGradient>
		<polygon class="st8" points="339,286.1 423.6,448.9 268.8,263.3 		"/>
		
			<linearGradient id="SVGID_9_" gradientUnits="userSpaceOnUse" x1="231.514" y1="358.7614" x2="311.7849" y2="480.5518" gradientTransform="matrix(0.309 -0.9511 0.9511 0.309 -85.9187 377.743)">
			<stop  offset="0" style="stop-color:#9B9B9B"/>
			<stop  offset="0.2732" style="stop-color:#7F7F7F"/>
			<stop  offset="1" style="stop-color:#373737"/>
		</linearGradient>
		<polygon class="st9" points="339,286.1 503.1,204.2 268.8,263.3 		"/>
		<g class="st2">
			
				<linearGradient id="SVGID_10_" gradientUnits="userSpaceOnUse" x1="211.3545" y1="453.6187" x2="161.3991" y2="453.6187" gradientTransform="matrix(0.309 -0.9511 0.9511 0.309 -85.9187 377.743)">
				<stop  offset="0" style="stop-color:#D90303"/>
				<stop  offset="1" style="stop-color:#AD0303"/>
			</linearGradient>
			<polygon class="st10" points="405.2,368.4 423.1,313.5 402.9,306.9 391.4,342.4 			"/>
			
				<linearGradient id="SVGID_11_" gradientUnits="userSpaceOnUse" x1="215.6617" y1="415.9855" x2="196.1669" y2="415.9855" gradientTransform="matrix(0.309 -0.9511 0.9511 0.309 -85.9187 377.743)">
				<stop  offset="0" style="stop-color:#D90303"/>
				<stop  offset="1" style="stop-color:#AD0303"/>
			</linearGradient>
			<polygon class="st11" points="366.1,294.9 381.4,323.6 388.3,302.2 			"/>
		</g>
		<g class="st2">
			
				<linearGradient id="SVGID_12_" gradientUnits="userSpaceOnUse" x1="269.0831" y1="453.6187" x2="219.1277" y2="453.6187" gradientTransform="matrix(0.309 -0.9511 0.9511 0.309 -85.9187 377.743)">
				<stop  offset="0" style="stop-color:#D90303"/>
				<stop  offset="1" style="stop-color:#AD0303"/>
			</linearGradient>
			<polygon class="st12" points="440.9,258.6 414.4,271.4 402.9,306.9 423.1,313.5 			"/>
			
				<linearGradient id="SVGID_13_" gradientUnits="userSpaceOnUse" x1="238.19" y1="415.9855" x2="218.6952" y2="415.9855" gradientTransform="matrix(0.309 -0.9511 0.9511 0.309 -85.9187 377.743)">
				<stop  offset="0" style="stop-color:#D90303"/>
				<stop  offset="1" style="stop-color:#AD0303"/>
			</linearGradient>
			<polygon class="st13" points="366.1,294.9 388.3,302.2 395.3,280.7 			"/>
		</g>
	</g>
	<linearGradient id="SVGID_14_" gradientUnits="userSpaceOnUse" x1="359.1144" y1="296.7341" x2="389.8138" y2="296.7341">
		<stop  offset="0" style="stop-color:#9B9B9B"/>
		<stop  offset="0.2732" style="stop-color:#7F7F7F"/>
		<stop  offset="1" style="stop-color:#373737"/>
	</linearGradient>
	<circle class="st14" cx="374.5" cy="296.7" r="15.3"/>
	<g>
		
			<linearGradient id="SVGID_15_" gradientUnits="userSpaceOnUse" x1="66.4213" y1="446.8489" x2="159.9785" y2="337.7912" gradientTransform="matrix(-0.809 -0.5878 0.5878 -0.809 246.7859 576.1856)">
			<stop  offset="0" style="stop-color:#9B9B9B"/>
			<stop  offset="0.2732" style="stop-color:#7F7F7F"/>
			<stop  offset="1" style="stop-color:#373737"/>
		</linearGradient>
		<polygon class="st15" points="306.5,186.4 487.4,156.2 263.1,246.1 		"/>
		
			<linearGradient id="SVGID_16_" gradientUnits="userSpaceOnUse" x1="193.8977" y1="333.3867" x2="274.1686" y2="455.1771" gradientTransform="matrix(-0.809 -0.5878 0.5878 -0.809 246.7859 576.1856)">
			<stop  offset="0" style="stop-color:#9B9B9B"/>
			<stop  offset="0.2732" style="stop-color:#7F7F7F"/>
			<stop  offset="1" style="stop-color:#373737"/>
		</linearGradient>
		<polygon class="st16" points="306.5,186.4 279.3,5 263.1,246.1 		"/>
		<g class="st2">
			
				<linearGradient id="SVGID_17_" gradientUnits="userSpaceOnUse" x1="173.7383" y1="428.244" x2="123.7828" y2="428.244" gradientTransform="matrix(-0.809 -0.5878 0.5878 -0.809 246.7859 576.1856)">
				<stop  offset="0" style="stop-color:#D90303"/>
				<stop  offset="1" style="stop-color:#AD0303"/>
			</linearGradient>
			<polygon class="st17" points="405.2,148.8 358.5,114.9 346,132 376.2,154 			"/>
			
				<linearGradient id="SVGID_18_" gradientUnits="userSpaceOnUse" x1="178.0455" y1="390.6107" x2="158.5507" y2="390.6107" gradientTransform="matrix(-0.809 -0.5878 0.5878 -0.809 246.7859 576.1856)">
				<stop  offset="0" style="stop-color:#D90303"/>
				<stop  offset="1" style="stop-color:#AD0303"/>
			</linearGradient>
			<polygon class="st18" points="323.2,163.4 355.2,157.7 337,144.4 			"/>
		</g>
		<g class="st2">
			
				<linearGradient id="SVGID_19_" gradientUnits="userSpaceOnUse" x1="231.4669" y1="428.244" x2="181.5114" y2="428.244" gradientTransform="matrix(-0.809 -0.5878 0.5878 -0.809 246.7859 576.1856)">
				<stop  offset="0" style="stop-color:#D90303"/>
				<stop  offset="1" style="stop-color:#AD0303"/>
			</linearGradient>
			<polygon class="st19" points="311.8,81 315.8,110.1 346,132 358.5,114.9 			"/>
			
				<linearGradient id="SVGID_20_" gradientUnits="userSpaceOnUse" x1="200.5737" y1="390.6107" x2="181.0789" y2="390.6107" gradientTransform="matrix(-0.809 -0.5878 0.5878 -0.809 246.7859 576.1856)">
				<stop  offset="0" style="stop-color:#D90303"/>
				<stop  offset="1" style="stop-color:#AD0303"/>
			</linearGradient>
			<polygon class="st20" points="323.2,163.4 337,144.4 318.8,131.2 			"/>
		</g>
	</g>
	<linearGradient id="SVGID_21_" gradientUnits="userSpaceOnUse" x1="312.2" y1="157.9921" x2="342.8933" y2="157.9921">
		<stop  offset="0" style="stop-color:#9B9B9B"/>
		<stop  offset="0.2732" style="stop-color:#7F7F7F"/>
		<stop  offset="1" style="stop-color:#373737"/>
	</linearGradient>
	<circle class="st21" cx="327.5" cy="158" r="15.3"/>
	<g>
		
			<linearGradient id="SVGID_22_" gradientUnits="userSpaceOnUse" x1="78.8255" y1="403.2608" x2="172.3826" y2="294.2031" gradientTransform="matrix(-0.809 0.5878 -0.5878 -0.809 538.3275 321.0868)">
			<stop  offset="0" style="stop-color:#9B9B9B"/>
			<stop  offset="0.2732" style="stop-color:#7F7F7F"/>
			<stop  offset="1" style="stop-color:#373737"/>
		</linearGradient>
		<polygon class="st22" points="201.7,186.4 228.8,5 245.1,246.1 		"/>
		
			<linearGradient id="SVGID_23_" gradientUnits="userSpaceOnUse" x1="206.3019" y1="289.7987" x2="286.5728" y2="411.589" gradientTransform="matrix(-0.809 0.5878 -0.5878 -0.809 538.3275 321.0868)">
			<stop  offset="0" style="stop-color:#9B9B9B"/>
			<stop  offset="0.2732" style="stop-color:#7F7F7F"/>
			<stop  offset="1" style="stop-color:#373737"/>
		</linearGradient>
		<polygon class="st23" points="201.7,186.4 20.7,156.2 245.1,246.1 		"/>
		<g class="st2">
			
				<linearGradient id="SVGID_24_" gradientUnits="userSpaceOnUse" x1="186.1424" y1="384.6559" x2="136.187" y2="384.6559" gradientTransform="matrix(-0.809 0.5878 -0.5878 -0.809 538.3275 321.0868)">
				<stop  offset="0" style="stop-color:#D90303"/>
				<stop  offset="1" style="stop-color:#AD0303"/>
			</linearGradient>
			<polygon class="st24" points="196.4,81 149.7,114.9 162.2,132 192.3,110.1 			"/>
			
				<linearGradient id="SVGID_25_" gradientUnits="userSpaceOnUse" x1="190.4496" y1="347.0227" x2="170.9548" y2="347.0227" gradientTransform="matrix(-0.809 0.5878 -0.5878 -0.809 538.3275 321.0868)">
				<stop  offset="0" style="stop-color:#D90303"/>
				<stop  offset="1" style="stop-color:#AD0303"/>
			</linearGradient>
			<polygon class="st25" points="184.9,163.4 189.4,131.2 171.2,144.4 			"/>
		</g>
		<g class="st2">
			
				<linearGradient id="SVGID_26_" gradientUnits="userSpaceOnUse" x1="243.871" y1="384.6559" x2="193.9156" y2="384.6559" gradientTransform="matrix(-0.809 0.5878 -0.5878 -0.809 538.3275 321.0868)">
				<stop  offset="0" style="stop-color:#D90303"/>
				<stop  offset="1" style="stop-color:#AD0303"/>
			</linearGradient>
			<polygon class="st26" points="103,148.8 132,154 162.2,132 149.7,114.9 			"/>
			
				<linearGradient id="SVGID_27_" gradientUnits="userSpaceOnUse" x1="212.9779" y1="347.0227" x2="193.483" y2="347.0227" gradientTransform="matrix(-0.809 0.5878 -0.5878 -0.809 538.3275 321.0868)">
				<stop  offset="0" style="stop-color:#D90303"/>
				<stop  offset="1" style="stop-color:#AD0303"/>
			</linearGradient>
			<polygon class="st27" points="184.9,163.4 171.2,144.4 152.9,157.7 			"/>
		</g>
	</g>
	<linearGradient id="SVGID_28_" gradientUnits="userSpaceOnUse" x1="164.9824" y1="157.9921" x2="195.6758" y2="157.9921">
		<stop  offset="0" style="stop-color:#9B9B9B"/>
		<stop  offset="0.2732" style="stop-color:#7F7F7F"/>
		<stop  offset="1" style="stop-color:#373737"/>
	</linearGradient>
	<circle class="st28" cx="180.3" cy="158" r="15.3"/>
	<g>
		
			<linearGradient id="SVGID_29_" gradientUnits="userSpaceOnUse" x1="124.1876" y1="401.5262" x2="217.7448" y2="292.4685" gradientTransform="matrix(0.309 0.9511 -0.9511 0.309 385.8053 -35.0155)">
			<stop  offset="0" style="stop-color:#9B9B9B"/>
			<stop  offset="0.2732" style="stop-color:#7F7F7F"/>
			<stop  offset="1" style="stop-color:#373737"/>
		</linearGradient>
		<polygon class="st29" points="169.4,286.2 5.2,204.3 239.6,263.3 		"/>
		
			<linearGradient id="SVGID_30_" gradientUnits="userSpaceOnUse" x1="251.664" y1="288.0641" x2="331.9349" y2="409.8544" gradientTransform="matrix(0.309 0.9511 -0.9511 0.309 385.8053 -35.0155)">
			<stop  offset="0" style="stop-color:#9B9B9B"/>
			<stop  offset="0.2732" style="stop-color:#7F7F7F"/>
			<stop  offset="1" style="stop-color:#373737"/>
		</linearGradient>
		<polygon class="st30" points="169.4,286.2 84.7,448.9 239.6,263.3 		"/>
		<g class="st2">
			
				<linearGradient id="SVGID_31_" gradientUnits="userSpaceOnUse" x1="231.5045" y1="382.9213" x2="181.5491" y2="382.9213" gradientTransform="matrix(0.309 0.9511 -0.9511 0.309 385.8053 -35.0155)">
				<stop  offset="0" style="stop-color:#D90303"/>
				<stop  offset="1" style="stop-color:#AD0303"/>
			</linearGradient>
			<polygon class="st31" points="67.4,258.6 85.3,313.5 105.4,306.9 93.9,271.4 			"/>
			
				<linearGradient id="SVGID_32_" gradientUnits="userSpaceOnUse" x1="235.8117" y1="345.2881" x2="216.3169" y2="345.2881" gradientTransform="matrix(0.309 0.9511 -0.9511 0.309 385.8053 -35.0155)">
				<stop  offset="0" style="stop-color:#D90303"/>
				<stop  offset="1" style="stop-color:#AD0303"/>
			</linearGradient>
			<polygon class="st32" points="142.3,295 113.1,280.8 120,302.2 			"/>
		</g>
		<g class="st2">
			
				<linearGradient id="SVGID_33_" gradientUnits="userSpaceOnUse" x1="289.2332" y1="382.9213" x2="239.2777" y2="382.9213" gradientTransform="matrix(0.309 0.9511 -0.9511 0.309 385.8053 -35.0155)">
				<stop  offset="0" style="stop-color:#D90303"/>
				<stop  offset="1" style="stop-color:#AD0303"/>
			</linearGradient>
			<polygon class="st33" points="103.1,368.4 117,342.4 105.4,306.9 85.3,313.5 			"/>
			
				<linearGradient id="SVGID_34_" gradientUnits="userSpaceOnUse" x1="258.34" y1="345.2881" x2="238.8452" y2="345.2881" gradientTransform="matrix(0.309 0.9511 -0.9511 0.309 385.8053 -35.0155)">
				<stop  offset="0" style="stop-color:#D90303"/>
				<stop  offset="1" style="stop-color:#AD0303"/>
			</linearGradient>
			<polygon class="st34" points="142.3,295 120,302.2 127,323.6 			"/>
		</g>
	</g>
	<linearGradient id="SVGID_35_" gradientUnits="userSpaceOnUse" x1="120.8646" y1="296.7445" x2="151.5641" y2="296.7445">
		<stop  offset="0" style="stop-color:#9B9B9B"/>
		<stop  offset="0.2732" style="stop-color:#7F7F7F"/>
		<stop  offset="1" style="stop-color:#373737"/>
	</linearGradient>
	<circle class="st35" cx="136.2" cy="296.7" r="15.3"/>
	<g>
		<path class="st36" d="M39.5,502.5h5.5l11.6,27.2h-6.2l-2.5-6H36.4l-2.5,6h-6L39.5,502.5z M45.7,518.3l-3.6-8.7l-3.6,8.7H45.7z"/>
		<path class="st36" d="M60.1,502.7h12.3c3.4,0,6.1,1,7.9,2.7c1.5,1.5,2.3,3.6,2.3,6.2v0.1c0,4.4-2.3,7.1-5.8,8.4l6.6,9.6h-6.9
			l-5.8-8.6H66v8.6h-5.9V502.7z M72,515.7c2.9,0,4.5-1.5,4.5-3.8v-0.1c0-2.5-1.8-3.9-4.7-3.9H66v7.7H72z"/>
		<path class="st36" d="M87.8,502.7h5.9v11.8l10.9-11.8h7.2l-11,11.4l11.5,15.5h-7.1l-8.4-11.5l-3.1,3.2v8.2h-5.9V502.7z"/>
		<path d="M125.5,516.2L125.5,516.2c0-7.7,5.8-14,14.1-14c5.1,0,8.1,1.7,10.6,4.2l-3.8,4.4c-2.1-1.9-4.2-3-6.9-3
			c-4.5,0-7.8,3.8-7.8,8.4v0.1c0,4.6,3.2,8.5,7.8,8.5c3.1,0,5-1.2,7.1-3.2l3.8,3.8c-2.8,3-5.9,4.8-11.1,4.8
			C131.4,530.1,125.5,523.9,125.5,516.2z"/>
		<path d="M152.5,516.2L152.5,516.2c0-7.7,6-14,14.4-14c8.3,0,14.3,6.2,14.3,13.9v0.1c0,7.7-6,13.9-14.4,13.9
			C158.4,530.1,152.5,523.9,152.5,516.2z M174.9,516.2L174.9,516.2c0-4.7-3.4-8.6-8.2-8.6s-8.1,3.8-8.1,8.4v0.1
			c0,4.6,3.4,8.5,8.2,8.5S174.9,520.8,174.9,516.2z"/>
		<path d="M184.7,502.7h6.4l7.1,11.4l7.1-11.4h6.4v27h-5.9V512l-7.6,11.5H198l-7.5-11.4v17.5h-5.8V502.7z"/>
		<path d="M216.6,502.7h6.4l7.1,11.4l7.1-11.4h6.4v27h-5.9V512l-7.6,11.5h-0.2l-7.5-11.4v17.5h-5.8V502.7z"/>
		<path d="M247.5,518.1v-15.4h5.9v15.2c0,4.4,2.2,6.7,5.8,6.7c3.6,0,5.8-2.2,5.8-6.5v-15.4h5.9v15.2c0,8.2-4.6,12.2-11.8,12.2
			C252,530,247.5,526,247.5,518.1z"/>
		<path d="M275,502.7h5.5l12.6,16.6v-16.6h5.9v27h-5l-13.1-17.1v17.1H275V502.7z"/>
		<path d="M304,502.7h5.9v27H304V502.7z"/>
		<path d="M322,508.1h-8.2v-5.5h22.3v5.5h-8.2v21.5H322V508.1z"/>
		<path d="M348.9,519l-10.4-16.3h6.9l6.4,10.8l6.5-10.8h6.7l-10.4,16.2v10.7h-5.9V519z"/>
		<path d="M379.6,502.7h20.5v5.4h-14.6v5.7h12.9v5.4h-12.9v10.4h-5.9V502.7z"/>
		<path d="M404.2,518.1v-15.4h5.9v15.2c0,4.4,2.2,6.7,5.8,6.7c3.6,0,5.8-2.2,5.8-6.5v-15.4h5.9v15.2c0,8.2-4.6,12.2-11.8,12.2
			C408.6,530,404.2,526,404.2,518.1z"/>
		<path d="M431.6,502.7h5.5l12.6,16.6v-16.6h5.9v27h-5l-13.1-17.1v17.1h-5.9V502.7z"/>
		<path d="M459.8,502.7h10.5c8.5,0,14.3,5.8,14.3,13.4v0.1c0,7.6-5.9,13.5-14.3,13.5h-10.5V502.7z M470.3,524.3c4.9,0,8.1-3.3,8.1-8
			v-0.1c0-4.8-3.3-8.1-8.1-8.1h-4.6v16.3H470.3z"/>
	</g>
</g>
</svg>
