<?xml version="1.0" encoding="utf-8"?>
<!-- Generator: Adobe Illustrator 21.1.0, SVG Export Plug-In . SVG Version: 6.00 Build 0)  -->
<svg version="1.1" id="Layer_1" xmlns="http://www.w3.org/2000/svg" xmlns:xlink="http://www.w3.org/1999/xlink" x="0px" y="0px"
	 viewBox="0 0 508 536" style="enable-background:new 0 0 508 536;" xml:space="preserve">
<style type="text/css">
	.st0{fill:#D90303;}
	.st1{fill:url(#SVGID_1_);}
	.st2{fill:url(#SVGID_2_);}
	.st3{fill:url(#SVGID_3_);}
	.st4{fill:url(#SVGID_4_);}
	.st5{fill:url(#SVGID_5_);}
	.st6{fill:url(#SVGID_6_);}
	.st7{fill:url(#SVGID_7_);}
	.st8{fill:url(#SVGID_8_);}
	.st9{fill:url(#SVGID_9_);}
	.st10{fill:url(#SVGID_10_);}
	.st11{fill:url(#SVGID_11_);}
	.st12{fill:url(#SVGID_12_);}
	.st13{fill:url(#SVGID_13_);}
	.st14{fill:url(#SVGID_14_);}
	.st15{fill:url(#SVGID_15_);}
</style>
<g>
	<path class="st0" d="M39.1,503.4h5.5l11.6,27.2h-6.2l-2.5-6.1H36l-2.5,6.1h-6.1L39.1,503.4z M45.3,519.3l-3.6-8.8l-3.6,8.8H45.3z"
		/>
	<path class="st0" d="M59.5,503.6h12.3c3.4,0,6.1,1,7.9,2.7c1.5,1.5,2.3,3.6,2.3,6.2v0.1c0,4.4-2.4,7.1-5.8,8.4l6.6,9.6h-6.9
		l-5.8-8.6h-4.7v8.6h-5.9V503.6z M71.5,516.7c2.9,0,4.6-1.5,4.6-3.8v-0.1c0-2.5-1.8-3.9-4.7-3.9h-5.9v7.8H71.5z"/>
	<path class="st0" d="M87,503.6H93v11.8l11-11.8h7.2l-11,11.5l11.5,15.5h-7.1l-8.4-11.5l-3.1,3.2v8.3H87V503.6z"/>
	<path d="M124.8,517.2L124.8,517.2c0-7.8,5.8-14,14.1-14c5.1,0,8.1,1.7,10.6,4.2l-3.8,4.4c-2.1-1.9-4.2-3-6.9-3
		c-4.6,0-7.8,3.8-7.8,8.4v0.1c0,4.6,3.2,8.5,7.8,8.5c3.1,0,5-1.2,7.1-3.2l3.8,3.8c-2.8,3-5.9,4.8-11.1,4.8
		C130.7,531.1,124.8,524.9,124.8,517.2z"/>
	<path d="M151.6,517.2L151.6,517.2c0-7.8,6.1-14,14.4-14s14.3,6.2,14.3,13.9v0.1c0,7.7-6.1,14-14.4,14S151.6,524.9,151.6,517.2z
		 M174.1,517.2L174.1,517.2c0-4.7-3.4-8.6-8.2-8.6s-8.1,3.8-8.1,8.4v0.1c0,4.6,3.4,8.5,8.2,8.5S174.1,521.8,174.1,517.2z"/>
	<path d="M183.8,503.6h6.4l7.1,11.4l7.1-11.4h6.4v27h-5.9V513l-7.6,11.5h-0.2l-7.5-11.4v17.5h-5.8V503.6z"/>
	<path d="M215.8,503.6h6.4l7.1,11.4l7.1-11.4h6.4v27h-5.9V513l-7.6,11.5h-0.2l-7.5-11.4v17.5h-5.8V503.6z"/>
	<path d="M246.8,519v-15.4h5.9v15.3c0,4.4,2.2,6.7,5.8,6.7s5.8-2.2,5.8-6.5v-15.5h5.9v15.2c0,8.2-4.6,12.2-11.8,12.2
		S246.8,527,246.8,519z"/>
	<path d="M274.3,503.6h5.5l12.7,16.6v-16.6h5.9v27h-5.1l-13.1-17.2v17.2h-5.9V503.6z"/>
	<path d="M303.4,503.6h5.9v27h-5.9V503.6z"/>
	<path d="M321.1,509.1h-8.2v-5.5h22.4v5.5h-8.2v21.5h-5.9V509.1z"/>
	<path d="M347.9,520l-10.4-16.4h6.9l6.4,10.8l6.6-10.8h6.8l-10.4,16.2v10.8h-5.9V520z"/>
	<path d="M378.7,503.6h20.6v5.4h-14.6v5.7h12.9v5.4h-12.9v10.5h-5.9V503.6z"/>
	<path d="M403.1,519v-15.4h5.9v15.3c0,4.4,2.2,6.7,5.8,6.7s5.8-2.2,5.8-6.5v-15.5h5.9v15.2c0,8.2-4.6,12.2-11.8,12.2
		S403.1,527,403.1,519z"/>
	<path d="M430.5,503.6h5.5l12.7,16.6v-16.6h5.9v27h-5.1l-13.1-17.2v17.2h-5.9V503.6z"/>
	<path d="M458.8,503.6h10.5c8.5,0,14.3,5.8,14.3,13.4v0.1c0,7.6-5.9,13.5-14.3,13.5h-10.5V503.6z M469.3,525.2
		c4.9,0,8.1-3.3,8.1-8.1v-0.1c0-4.8-3.3-8.1-8.1-8.1h-4.6v16.3H469.3z"/>
</g>
<linearGradient id="SVGID_1_" gradientUnits="userSpaceOnUse" x1="139.4487" y1="444.934" x2="233.1826" y2="335.6702">
	<stop  offset="0" style="stop-color:#D90303"/>
	<stop  offset="1" style="stop-color:#AD0303"/>
</linearGradient>
<polygon class="st1" points="254,348.3 125.2,479.4 254,274.4 "/>
<linearGradient id="SVGID_2_" gradientUnits="userSpaceOnUse" x1="267.166" y1="331.2575" x2="347.5886" y2="453.2779">
	<stop  offset="0" style="stop-color:#D90303"/>
	<stop  offset="1" style="stop-color:#AD0303"/>
</linearGradient>
<polygon class="st2" points="254,348.3 382.9,479.4 254,274.4 "/>
<linearGradient id="SVGID_3_" gradientUnits="userSpaceOnUse" x1="238.507" y1="385.6396" x2="269.2561" y2="385.6396">
	<stop  offset="0" style="stop-color:#D90303"/>
	<stop  offset="1" style="stop-color:#AD0303"/>
</linearGradient>
<circle class="st3" cx="253.9" cy="385.6" r="15.4"/>
<linearGradient id="SVGID_4_" gradientUnits="userSpaceOnUse" x1="103.3658" y1="472.7223" x2="197.0997" y2="363.4586" gradientTransform="matrix(0.309 -0.9511 0.9511 0.309 -85.9187 377.743)">
	<stop  offset="0" style="stop-color:#D90303"/>
	<stop  offset="1" style="stop-color:#AD0303"/>
</linearGradient>
<polygon class="st4" points="339.1,286.7 424,449.7 268.8,263.8 "/>
<linearGradient id="SVGID_5_" gradientUnits="userSpaceOnUse" x1="231.083" y1="359.0458" x2="311.5056" y2="481.0663" gradientTransform="matrix(0.309 -0.9511 0.9511 0.309 -85.9187 377.743)">
	<stop  offset="0" style="stop-color:#D90303"/>
	<stop  offset="1" style="stop-color:#AD0303"/>
</linearGradient>
<polygon class="st5" points="339.1,286.7 503.6,204.6 268.8,263.8 "/>
<linearGradient id="SVGID_6_" gradientUnits="userSpaceOnUse" x1="203.4816" y1="413.2034" x2="234.2308" y2="413.2034" gradientTransform="matrix(0.309 -0.9511 0.9511 0.309 -85.9187 377.743)">
	<stop  offset="0" style="stop-color:#D90303"/>
	<stop  offset="1" style="stop-color:#AD0303"/>
</linearGradient>
<circle class="st6" cx="374.7" cy="297.3" r="15.4"/>
<linearGradient id="SVGID_7_" gradientUnits="userSpaceOnUse" x1="65.9238" y1="446.8119" x2="159.6577" y2="337.5481" gradientTransform="matrix(-0.809 -0.5878 0.5878 -0.809 246.7859 576.1856)">
	<stop  offset="0" style="stop-color:#D90303"/>
	<stop  offset="1" style="stop-color:#AD0303"/>
</linearGradient>
<polygon class="st7" points="306.6,186.8 487.9,156.5 263.1,246.6 "/>
<linearGradient id="SVGID_8_" gradientUnits="userSpaceOnUse" x1="193.641" y1="333.1353" x2="274.0636" y2="455.1558" gradientTransform="matrix(-0.809 -0.5878 0.5878 -0.809 246.7859 576.1856)">
	<stop  offset="0" style="stop-color:#D90303"/>
	<stop  offset="1" style="stop-color:#AD0303"/>
</linearGradient>
<polygon class="st8" points="306.6,186.8 279.4,5 263.1,246.6 "/>
<linearGradient id="SVGID_9_" gradientUnits="userSpaceOnUse" x1="164.8145" y1="385.6432" x2="195.5637" y2="385.6432" gradientTransform="matrix(-0.809 -0.5878 0.5878 -0.809 246.7859 576.1856)">
	<stop  offset="0" style="stop-color:#D90303"/>
	<stop  offset="1" style="stop-color:#AD0303"/>
</linearGradient>
<circle class="st9" cx="327.7" cy="158.3" r="15.4"/>
<linearGradient id="SVGID_10_" gradientUnits="userSpaceOnUse" x1="78.8911" y1="403.224" x2="172.625" y2="293.9602" gradientTransform="matrix(-0.809 0.5878 -0.5878 -0.809 538.3275 321.0868)">
	<stop  offset="0" style="stop-color:#D90303"/>
	<stop  offset="1" style="stop-color:#AD0303"/>
</linearGradient>
<polygon class="st10" points="201.6,186.8 228.8,5 245,246.6 "/>
<linearGradient id="SVGID_11_" gradientUnits="userSpaceOnUse" x1="206.6083" y1="289.5475" x2="287.0309" y2="411.5679" gradientTransform="matrix(-0.809 0.5878 -0.5878 -0.809 538.3275 321.0868)">
	<stop  offset="0" style="stop-color:#D90303"/>
	<stop  offset="1" style="stop-color:#AD0303"/>
</linearGradient>
<polygon class="st11" points="201.6,186.8 20.3,156.5 245,246.6 "/>
<linearGradient id="SVGID_12_" gradientUnits="userSpaceOnUse" x1="178.6703" y1="342.2206" x2="209.4194" y2="342.2206" gradientTransform="matrix(-0.809 0.5878 -0.5878 -0.809 538.3275 321.0868)">
	<stop  offset="0" style="stop-color:#D90303"/>
	<stop  offset="1" style="stop-color:#AD0303"/>
</linearGradient>
<circle class="st12" cx="180.2" cy="158.3" r="15.4"/>
<linearGradient id="SVGID_13_" gradientUnits="userSpaceOnUse" x1="124.4272" y1="402.025" x2="218.1611" y2="292.7612" gradientTransform="matrix(0.309 0.9511 -0.9511 0.309 385.8053 -35.0155)">
	<stop  offset="0" style="stop-color:#D90303"/>
	<stop  offset="1" style="stop-color:#AD0303"/>
</linearGradient>
<polygon class="st13" points="169.2,286.7 4.7,204.6 239.5,263.8 "/>
<linearGradient id="SVGID_14_" gradientUnits="userSpaceOnUse" x1="252.1445" y1="288.3484" x2="332.567" y2="410.3689" gradientTransform="matrix(0.309 0.9511 -0.9511 0.309 385.8053 -35.0155)">
	<stop  offset="0" style="stop-color:#D90303"/>
	<stop  offset="1" style="stop-color:#AD0303"/>
</linearGradient>
<polygon class="st14" points="169.2,286.7 84.4,449.7 239.5,263.8 "/>
<linearGradient id="SVGID_15_" gradientUnits="userSpaceOnUse" x1="223.4755" y1="340.2769" x2="254.2246" y2="340.2769" gradientTransform="matrix(0.309 0.9511 -0.9511 0.309 385.8053 -35.0155)">
	<stop  offset="0" style="stop-color:#D90303"/>
	<stop  offset="1" style="stop-color:#AD0303"/>
</linearGradient>
<circle class="st15" cx="136" cy="297.3" r="15.4"/>
</svg>
