<?xml version="1.0" encoding="UTF-8" standalone="no"?>
<!-- Generator: Adobe Illustrator 21.1.0, SVG Export Plug-In . SVG Version: 6.00 Build 0)  -->

<svg
   xmlns:dc="http://purl.org/dc/elements/1.1/"
   xmlns:cc="http://creativecommons.org/ns#"
   xmlns:rdf="http://www.w3.org/1999/02/22-rdf-syntax-ns#"
   xmlns:svg="http://www.w3.org/2000/svg"
   xmlns="http://www.w3.org/2000/svg"
   xmlns:xlink="http://www.w3.org/1999/xlink"
   xmlns:sodipodi="http://sodipodi.sourceforge.net/DTD/sodipodi-0.dtd"
   xmlns:inkscape="http://www.inkscape.org/namespaces/inkscape"
   version="1.0"
   id="Layer_1"
   x="0px"
   y="0px"
   viewBox="0 0 2834.6 2834.6"
   style="enable-background:new 0 0 2834.6 2834.6;"
   xml:space="preserve"
   inkscape:version="0.91 r13725"
   sodipodi:docname="ARK_Designcontest.svg"
   inkscape:export-filename="F:\ark\acf\logo_contest\Joerg-Schirlbauer\preview.png"
   inkscape:export-xdpi="2.8599999"
   inkscape:export-ydpi="2.8599999"><metadata
     id="metadata245"><rdf:RDF><cc:Work
         rdf:about=""><dc:format>image/svg+xml</dc:format><dc:type
           rdf:resource="http://purl.org/dc/dcmitype/StillImage" /></cc:Work></rdf:RDF></metadata><defs
     id="defs243" /><sodipodi:namedview
     pagecolor="#ffffff"
     bordercolor="#666666"
     borderopacity="1"
     objecttolerance="10"
     gridtolerance="10"
     guidetolerance="10"
     inkscape:pageopacity="0"
     inkscape:pageshadow="2"
     inkscape:window-width="1920"
     inkscape:window-height="1137"
     id="namedview241"
     showgrid="false"
     inkscape:zoom="0.083256894"
     inkscape:cx="1417.3"
     inkscape:cy="1417.3"
     inkscape:window-x="-8"
     inkscape:window-y="-8"
     inkscape:window-maximized="1"
     inkscape:current-layer="Layer_1" /><g
     id="g3"><g
       id="g5"><g
         style="enable-background:new    ;"
         id="g7"><g
           style="enable-background:new    ;"
           id="g9"><defs
             id="defs11"><path
               id="SVGID_1_"
               style="enable-background:new    ;"
               d="M645.6,1418.3l-0.8-1l104.6-281.5l0.6-0.5l65.6-9.2l0.8,0.5       l104,252.1l-0.6,1l-72.9,10.2l-0.8-0.5l-17.2-44.7l-94,13.2l-17.5,49.7l-0.6,0.5L645.6,1418.3z M750.6,1136.8l-104,279.9       l69.5-9.8l17.5-49.7l0.6-0.5l95-13.4l0.8,0.5l17.2,44.7l71.4-10l-103.4-250.7L750.6,1136.8z M754.5,1298.2l-0.8-1l27.8-78.8       l1.4,0l27.2,71.1l-0.6,1L754.5,1298.2z M782.2,1220.8l-26.8,75.8l52.9-7.4L782.2,1220.8z" /></defs><use
             xlink:href="#SVGID_1_"
             style="overflow:visible;"
             id="use14" /><clipPath
             id="SVGID_2_"><use
               xlink:href="#SVGID_1_"
               style="overflow:visible;"
               id="use17" /></clipPath><g
             style="clip-path:url(#SVGID_2_);"
             id="g19"
             clip-path="url(#SVGID_2_)"><path
               d="M645.6,1418.3l-0.8-1l104.6-281.5l0.6-0.5l65.6-9.2l0.8,0.5l104,252.1l-0.6,1l-72.9,10.2l-0.8-0.5l-17.2-44.7l-94,13.2       l-17.5,49.7l-0.6,0.5L645.6,1418.3z M750.6,1136.8l-104,279.9l69.5-9.8l17.5-49.7l0.6-0.5l95-13.4l0.8,0.5l17.2,44.7l71.4-10       l-103.4-250.7L750.6,1136.8z M754.5,1298.2l-0.8-1l27.8-78.8l1.4,0l27.2,71.1l-0.6,1L754.5,1298.2z M782.2,1220.8l-26.8,75.8       l52.9-7.4L782.2,1220.8z"
               id="path21" /></g></g><g
           style="enable-background:new    ;"
           id="g23"><defs
             id="defs25"><path
               id="SVGID_3_"
               style="enable-background:new    ;"
               d="M690.5,1442.7l-0.8-1l104.6-281.5l0.6-0.5l65.6-9.2l0.8,0.5       l104,252.1l-0.6,1l-72.9,10.2l-0.8-0.5l-17.2-44.7l-94,13.2l-17.5,49.7l-0.6,0.5L690.5,1442.7z M795.5,1161.2l-104,279.9       l69.5-9.8l17.5-49.7l0.6-0.5l95-13.4l0.8,0.5l17.2,44.7l71.4-10l-103.4-250.7L795.5,1161.2z M799.4,1322.6l-0.8-1l27.8-78.8       l1.4,0l27.2,71.1l-0.6,1L799.4,1322.6z M827.1,1245.2l-26.8,75.8l52.9-7.4L827.1,1245.2z" /></defs><use
             xlink:href="#SVGID_3_"
             style="overflow:visible;"
             id="use28" /><clipPath
             id="SVGID_4_"><use
               xlink:href="#SVGID_3_"
               style="overflow:visible;"
               id="use31" /></clipPath><g
             style="clip-path:url(#SVGID_4_);"
             id="g33"
             clip-path="url(#SVGID_4_)"><path
               d="M690.5,1442.7l-0.8-1l104.6-281.5l0.6-0.5l65.6-9.2l0.8,0.5l104,252.1l-0.6,1l-72.9,10.2l-0.8-0.5l-17.2-44.7l-94,13.2       l-17.5,49.7l-0.6,0.5L690.5,1442.7z M795.5,1161.2l-104,279.9l69.5-9.8l17.5-49.7l0.6-0.5l95-13.4l0.8,0.5l17.2,44.7l71.4-10       l-103.4-250.7L795.5,1161.2z M799.4,1322.6l-0.8-1l27.8-78.8l1.4,0l27.2,71.1l-0.6,1L799.4,1322.6z M827.1,1245.2l-26.8,75.8       l52.9-7.4L827.1,1245.2z"
               id="path35" /></g></g><g
           style="enable-background:new    ;"
           id="g37"><defs
             id="defs39"><path
               id="SVGID_5_"
               style="enable-background:new    ;"
               d="M964.2,1404.1l-44.9-24.4l-0.3-0.4l-104-252.1l1-0.9l44.9,24.4       l0.3,0.4l104,252.1L964.2,1404.1z M920.2,1378.5l42.8,23.3l-103.1-250l-42.8-23.3L920.2,1378.5z" /></defs><use
             xlink:href="#SVGID_5_"
             style="overflow:visible;"
             id="use42" /><clipPath
             id="SVGID_6_"><use
               xlink:href="#SVGID_5_"
               style="overflow:visible;"
               id="use45" /></clipPath><g
             style="clip-path:url(#SVGID_6_);"
             id="g47"
             clip-path="url(#SVGID_6_)"><path
               d="M964.2,1404.1l-44.9-24.4l-0.3-0.4l-104-252.1l1-0.9l44.9,24.4l0.3,0.4l104,252.1L964.2,1404.1z M920.2,1378.5       l42.8,23.3l-103.1-250l-42.8-23.3L920.2,1378.5z"
               id="path49" /></g></g><g
           style="enable-background:new    ;"
           id="g51"><defs
             id="defs53"><path
               id="SVGID_7_"
               style="enable-background:new    ;"
               d="M891.7,1414.4l-0.5-0.1l-44.9-24.4l0.3-1.4l72.9-10.2l0.5,0.1       l44.9,24.4l-0.3,1.4L891.7,1414.4z M849.1,1389.7l42.7,23.2l70.5-9.9l-42.7-23.2L849.1,1389.7z" /></defs><use
             xlink:href="#SVGID_7_"
             style="overflow:visible;"
             id="use56" /><clipPath
             id="SVGID_8_"><use
               xlink:href="#SVGID_7_"
               style="overflow:visible;"
               id="use59" /></clipPath><g
             style="clip-path:url(#SVGID_8_);"
             id="g61"
             clip-path="url(#SVGID_8_)"><path
               d="M891.7,1414.4l-0.5-0.1l-44.9-24.4l0.3-1.4l72.9-10.2l0.5,0.1l44.9,24.4l-0.3,1.4L891.7,1414.4z M849.1,1389.7       l42.7,23.2l70.5-9.9l-42.7-23.2L849.1,1389.7z"
               id="path63" /></g></g><g
           style="enable-background:new    ;"
           id="g65"><defs
             id="defs67"><path
               id="SVGID_9_"
               style="enable-background:new    ;"
               d="M891.3,1414.4l-44.9-24.4l-0.3-0.4l-17.4-45.2l1-0.9l44.9,24.4       l0.3,0.4l17.4,45.2L891.3,1414.4z M847.3,1388.8l42.9,23.3l-16.6-43.1l-42.9-23.3L847.3,1388.8z" /></defs><use
             xlink:href="#SVGID_9_"
             style="overflow:visible;"
             id="use70" /><clipPath
             id="SVGID_10_"><use
               xlink:href="#SVGID_9_"
               style="overflow:visible;"
               id="use73" /></clipPath><g
             style="clip-path:url(#SVGID_10_);"
             id="g75"
             clip-path="url(#SVGID_10_)"><path
               d="M891.3,1414.4l-44.9-24.4l-0.3-0.4l-17.4-45.2l1-0.9l44.9,24.4l0.3,0.4l17.4,45.2L891.3,1414.4z M847.3,1388.8       l42.9,23.3l-16.6-43.1l-42.9-23.3L847.3,1388.8z"
               id="path77" /></g></g><g
           style="enable-background:new    ;"
           id="g79"><defs
             id="defs81"><path
               id="SVGID_11_"
               style="enable-background:new    ;"
               d="M779.3,1382.6l-0.5-0.1l-44.9-24.4l0.3-1.4l95-13.4l0.5,0.1       l44.9,24.4l-0.3,1.4L779.3,1382.6z M736.6,1357.8l42.7,23.2l92.6-13l-42.7-23.2L736.6,1357.8z" /></defs><use
             xlink:href="#SVGID_11_"
             style="overflow:visible;"
             id="use84" /><clipPath
             id="SVGID_12_"><use
               xlink:href="#SVGID_11_"
               style="overflow:visible;"
               id="use87" /></clipPath><g
             style="clip-path:url(#SVGID_12_);"
             id="g89"
             clip-path="url(#SVGID_12_)"><path
               d="M779.3,1382.6l-0.5-0.1l-44.9-24.4l0.3-1.4l95-13.4l0.5,0.1l44.9,24.4l-0.3,1.4L779.3,1382.6z M736.6,1357.8l42.7,23.2       l92.6-13l-42.7-23.2L736.6,1357.8z"
               id="path91" /></g></g><g
           style="enable-background:new    ;"
           id="g93"><defs
             id="defs95"><path
               id="SVGID_13_"
               style="enable-background:new    ;"
               d="M761.2,1432.6l-44.9-24.4l-0.3-0.9l17.6-50.1l1.1-0.4l44.9,24.4       l0.3,0.9l-17.6,50.2L761.2,1432.6z M717.6,1407.2l43.6,23.7l17.1-48.7l-43.6-23.7L717.6,1407.2z" /></defs><use
             xlink:href="#SVGID_13_"
             style="overflow:visible;"
             id="use98" /><clipPath
             id="SVGID_14_"><use
               xlink:href="#SVGID_13_"
               style="overflow:visible;"
               id="use101" /></clipPath><g
             style="clip-path:url(#SVGID_14_);"
             id="g103"
             clip-path="url(#SVGID_14_)"><path
               d="M761.2,1432.6l-44.9-24.4l-0.3-0.9l17.6-50.1l1.1-0.4l44.9,24.4l0.3,0.9l-17.6,50.2L761.2,1432.6z M717.6,1407.2       l43.6,23.7l17.1-48.7l-43.6-23.7L717.6,1407.2z"
               id="path105" /></g></g><g
           style="enable-background:new    ;"
           id="g107"><defs
             id="defs109"><path
               id="SVGID_15_"
               style="enable-background:new    ;"
               d="M690.5,1442.7l-0.5-0.1l-44.9-24.4l0.3-1.4l71.2-10l0.5,0.1       l44.9,24.4l-0.3,1.4L690.5,1442.7z M647.8,1418l42.7,23.2l68.7-9.7l-42.7-23.2L647.8,1418z" /></defs><use
             xlink:href="#SVGID_15_"
             style="overflow:visible;"
             id="use112" /><clipPath
             id="SVGID_16_"><use
               xlink:href="#SVGID_15_"
               style="overflow:visible;"
               id="use115" /></clipPath><g
             style="clip-path:url(#SVGID_16_);"
             id="g117"
             clip-path="url(#SVGID_16_)"><path
               d="M690.5,1442.7l-0.5-0.1l-44.9-24.4l0.3-1.4l71.2-10l0.5,0.1l44.9,24.4l-0.3,1.4L690.5,1442.7z M647.8,1418l42.7,23.2       l68.7-9.7l-42.7-23.2L647.8,1418z"
               id="path119" /></g></g><g
           style="enable-background:new    ;"
           id="g121"><defs
             id="defs123"><path
               id="SVGID_17_"
               style="enable-background:new    ;"
               d="M690,1442.6l-44.9-24.4l-0.3-0.9l104.6-281.5l1-0.4l44.9,24.4       l0.3,0.9l-104.6,281.5L690,1442.6z M646.4,1417.2l43.6,23.7l104.1-280.1l-43.6-23.7L646.4,1417.2z" /></defs><use
             xlink:href="#SVGID_17_"
             style="overflow:visible;"
             id="use126" /><clipPath
             id="SVGID_18_"><use
               xlink:href="#SVGID_17_"
               style="overflow:visible;"
               id="use129" /></clipPath><g
             style="clip-path:url(#SVGID_18_);"
             id="g131"
             clip-path="url(#SVGID_18_)"><path
               d="M690,1442.6l-44.9-24.4l-0.3-0.9l104.6-281.5l1-0.4l44.9,24.4l0.3,0.9l-104.6,281.5L690,1442.6z M646.4,1417.2       l43.6,23.7l104.1-280.1l-43.6-23.7L646.4,1417.2z"
               id="path133" /></g></g><g
           style="enable-background:new    ;"
           id="g135"><defs
             id="defs137"><path
               id="SVGID_19_"
               style="enable-background:new    ;"
               d="M795.1,1161.3l-0.5-0.1l-44.9-24.4l0.3-1.4l65.6-9.2l0.5,0.1       l44.9,24.4l-0.3,1.4L795.1,1161.3z M752.4,1136.5l42.7,23.2l63.1-8.9l-42.7-23.2L752.4,1136.5z" /></defs><use
             xlink:href="#SVGID_19_"
             style="overflow:visible;"
             id="use140" /><clipPath
             id="SVGID_20_"><use
               xlink:href="#SVGID_19_"
               style="overflow:visible;"
               id="use143" /></clipPath><g
             style="clip-path:url(#SVGID_20_);"
             id="g145"
             clip-path="url(#SVGID_20_)"><path
               d="M795.1,1161.3l-0.5-0.1l-44.9-24.4l0.3-1.4l65.6-9.2l0.5,0.1l44.9,24.4l-0.3,1.4L795.1,1161.3z M752.4,1136.5       l42.7,23.2l63.1-8.9l-42.7-23.2L752.4,1136.5z"
               id="path147" /></g></g><g
           style="enable-background:new    ;"
           id="g149"><defs
             id="defs151"><path
               id="SVGID_21_"
               style="enable-background:new    ;"
               d="M799.4,1322.6l-0.5-0.1l-44.9-24.4l0.3-1.4l55.1-7.7l0.5,0.1       l44.9,24.4l-0.3,1.4L799.4,1322.6z M756.7,1297.9l42.7,23.2l52.6-7.4l-42.7-23.2L756.7,1297.9z" /></defs><use
             xlink:href="#SVGID_21_"
             style="overflow:visible;"
             id="use154" /><clipPath
             id="SVGID_22_"><use
               xlink:href="#SVGID_21_"
               style="overflow:visible;"
               id="use157" /></clipPath><g
             style="clip-path:url(#SVGID_22_);"
             id="g159"
             clip-path="url(#SVGID_22_)"><path
               d="M799.4,1322.6l-0.5-0.1l-44.9-24.4l0.3-1.4l55.1-7.7l0.5,0.1l44.9,24.4l-0.3,1.4L799.4,1322.6z M756.7,1297.9       l42.7,23.2l52.6-7.4l-42.7-23.2L756.7,1297.9z"
               id="path161" /></g></g><g
           style="enable-background:new    ;"
           id="g163"><defs
             id="defs165"><path
               id="SVGID_23_"
               style="enable-background:new    ;"
               d="M854,1314.8l-44.9-24.4l-0.3-0.4l-27.2-71.1l1-0.9l44.9,24.4       l0.3,0.4l27.2,71.1L854,1314.8z M810,1289.2l42.9,23.3l-26.4-69l-42.9-23.3L810,1289.2z" /></defs><use
             xlink:href="#SVGID_23_"
             style="overflow:visible;"
             id="use168" /><clipPath
             id="SVGID_24_"><use
               xlink:href="#SVGID_23_"
               style="overflow:visible;"
               id="use171" /></clipPath><g
             style="clip-path:url(#SVGID_24_);"
             id="g173"
             clip-path="url(#SVGID_24_)"><path
               d="M854,1314.8l-44.9-24.4l-0.3-0.4l-27.2-71.1l1-0.9l44.9,24.4l0.3,0.4l27.2,71.1L854,1314.8z M810,1289.2l42.9,23.3       l-26.4-69l-42.9-23.3L810,1289.2z"
               id="path175" /></g></g><g
           style="enable-background:new    ;"
           id="g177"><defs
             id="defs179"><path
               id="SVGID_25_"
               style="enable-background:new    ;"
               d="M798.9,1322.5l-44.9-24.4l-0.3-0.9l27.8-78.8l1-0.4l44.9,24.4       l0.3,0.9l-27.8,78.8L798.9,1322.5z M755.3,1297.1l43.6,23.7l27.3-77.4l-43.6-23.7L755.3,1297.1z" /></defs><use
             xlink:href="#SVGID_25_"
             style="overflow:visible;"
             id="use182" /><clipPath
             id="SVGID_26_"><use
               xlink:href="#SVGID_25_"
               style="overflow:visible;"
               id="use185" /></clipPath><g
             style="clip-path:url(#SVGID_26_);"
             id="g187"
             clip-path="url(#SVGID_26_)"><path
               d="M798.9,1322.5l-44.9-24.4l-0.3-0.9l27.8-78.8l1-0.4l44.9,24.4l0.3,0.9l-27.8,78.8L798.9,1322.5z M755.3,1297.1       l43.6,23.7l27.3-77.4l-43.6-23.7L755.3,1297.1z"
               id="path189" /></g></g></g></g><g
       id="g191"><path
         d="M803.2,1432.7h220.6v67H879.6v46.9H1010v63.4H879.6v98.5h-76.4V1432.7z"
         id="path193" /></g><path
       d="M1306.4,1239.2h26.5l42.3,100h-29.5l-7.1-17.9h-38.4l-7.1,17.9h-28.8L1306.4,1239.2z M1330.6,1299.9l-11.1-28.1l-11.2,28.1   H1330.6z"
       id="path195" /><path
       d="M1384.9,1239.9h46.9c15.2,0,25.7,4,32.3,10.6c5.8,5.8,8.8,13.3,8.8,23.1v0.3c0,15.3-8.1,25.4-20.4,30.6l23.7,34.6h-31.6   l-20-30.1h-12.2v30.1h-27.5V1239.9z M1430.7,1287.5c9.2,0,14.8-4.5,14.8-11.8v-0.3c0-7.9-5.8-11.9-14.9-11.9h-18.2v24H1430.7z"
       id="path197" /><path
       d="M1486.8,1239.9h27.5v40.3l34.3-40.3h32.5l-37.6,42.6l38.9,56.7h-32.9l-25.1-36.9l-10.1,11.1v25.8h-27.5V1239.9z"
       id="path199" /><path
       d="M1268.9,1440.3v-0.3c0-28.9,22.1-51.6,52.2-51.6c20.3,0,33.3,8.5,42.1,20.6l-20.7,16c-5.7-6.9-12.2-11.6-21.7-11.6   c-13.9,0-23.7,11.9-23.7,26.4v0.3c0,14.9,9.8,26.5,23.7,26.5c10.4,0,16.5-4.8,22.4-12.1l20.7,14.8c-9.4,12.9-22,22.4-43.8,22.4   C1291.7,1491.6,1268.9,1469.9,1268.9,1440.3z"
       id="path201" /><path
       d="M1369.7,1440.3v-0.3c0-28.5,23-51.6,53.6-51.6s53.3,22.8,53.3,51.3v0.3c0,28.5-23,51.6-53.6,51.6   C1392.4,1491.6,1369.7,1468.8,1369.7,1440.3z M1448.4,1440.3v-0.3c0-14.5-10.2-26.8-25.4-26.8c-15.2,0-25.2,12.2-25.2,26.5v0.3   c0,14.3,10.4,26.8,25.5,26.8C1438.3,1466.8,1448.4,1454.6,1448.4,1440.3z"
       id="path203" /><path
       d="M1490.8,1390.4h29.1l23.7,38.4l23.7-38.4h29.1v99.3H1569v-57l-25.4,38.9h-0.6l-25.2-38.7v56.9h-26.9V1390.4z"
       id="path205" /><path
       d="M1613.9,1390.4h29.1l23.7,38.4l23.7-38.4h29.1v99.3h-27.4v-57l-25.4,38.9h-0.6l-25.2-38.7v56.9h-26.9V1390.4z"
       id="path207" /><path
       d="M1735.9,1446.1v-55.7h27.8v55.2c0,14.3,7.2,21.1,18.3,21.1c11.2,0,18.4-6.5,18.4-20.4v-55.9h27.8v55   c0,31.9-18.3,46.1-46.5,46.1C1753.6,1491.5,1735.9,1477.2,1735.9,1446.1z"
       id="path209" /><path
       d="M1844.5,1390.4h25.7l40.8,52.5v-52.5h27.2v99.3h-24l-42.6-54.5v54.5h-27.2V1390.4z"
       id="path211" /><path
       d="M1956.6,1390.4h27.5v99.3h-27.5V1390.4z"
       id="path213" /><path
       d="M2026.5,1414.5h-29.6v-24.1h86.9v24.1H2054v75.2h-27.5V1414.5z"
       id="path215" /><path
       d="M2124.6,1452.5l-37.9-62.1h31.3l20.4,36.2l20.6-36.2h30.8l-37.7,61.7v37.6h-27.5V1452.5z"
       id="path217" /><path
       d="M1272.1,1540.8h79.4v24.1h-51.9v16.9h46.9v22.8h-46.9v35.5h-27.5V1540.8z"
       id="path219" /><path
       d="M1363,1596.6v-55.7h27.8v55.2c0,14.3,7.2,21.1,18.3,21.1c11.2,0,18.4-6.5,18.4-20.4v-55.9h27.8v55   c0,31.9-18.3,46.1-46.5,46.1C1380.8,1642,1363,1627.6,1363,1596.6z"
       id="path221" /><path
       d="M1471.7,1540.8h25.7l40.8,52.5v-52.5h27.2v99.3h-24l-42.5-54.5v54.5h-27.2V1540.8z"
       id="path223" /><path
       d="M1583,1540.8h38.4c35.3,0,55.9,20.4,55.9,49.1v0.3c0,28.7-20.8,49.9-56.5,49.9H1583V1540.8z M1610.5,1565.1v50.6h11.2   c16.6,0,27.5-9.1,27.5-25.1v-0.3c0-15.9-10.9-25.2-27.5-25.2H1610.5z"
       id="path225" /><path
       d="M1697.4,1569.9v-0.2c0-15.6,12.7-28.9,28.8-28.9s28.7,13.1,28.7,28.8v0.2c0,15.7-12.7,28.9-28.8,28.9   C1709.9,1598.7,1697.4,1585.6,1697.4,1569.9z M1751.5,1569.8v-0.2c0-14.1-10.9-25.6-25.3-25.6c-14.5,0-25.5,11.7-25.5,25.7v0.2   c0,14.1,10.9,25.5,25.3,25.5C1740.6,1595.4,1751.5,1583.8,1751.5,1569.8z M1710.5,1569.5v-0.2c0-8.7,6.7-15.8,16.2-15.8   c6.3,0,10.1,2.5,12.9,6.3l-6.4,5c-1.7-2.1-3.7-3.6-6.6-3.6c-4.3,0-7.2,3.6-7.2,8v0.2c0,4.4,2.9,7.9,7.2,7.9c3.2,0,5-1.5,6.8-3.7   l6.4,4.6c-2.9,4-6.8,6.8-13.3,6.8C1717.3,1585.2,1710.5,1578.3,1710.5,1569.5z"
       id="path227" /><g
       id="g229"><g
         id="g231"><path
           style="fill:#8F0B09;"
           d="M1088.2,1391.8c-0.3,0.4-0.6,0.8-0.9,1.3c-0.4,0.6-0.8,1.2-1.3,1.8c-0.5,0.7-1,1.3-1.5,2     c-0.4,0.6-0.8,1.1-1.3,1.7c-0.5,0.7-1,1.3-1.5,1.9c-0.4,0.5-0.8,1.1-1.3,1.6c-0.5,0.6-1.1,1.3-1.6,1.9c-0.4,0.5-0.8,1-1.2,1.5     c-0.1,0.1-0.2,0.2-0.3,0.3c-0.2,0.3-0.5,0.5-0.7,0.7c-0.8,0.9-1.7,1.8-2.5,2.7c-0.4,0.4-0.8,0.8-1.2,1.2     c-0.8,0.8-1.6,1.6-2.5,2.4c-0.3,0.2-0.5,0.5-0.8,0.7c-0.1,0.1-0.3,0.2-0.4,0.4c-0.7,0.6-1.4,1.2-2.2,1.8     c-0.4,0.4-0.8,0.7-1.3,1.1c-0.9,0.7-1.8,1.4-2.7,2c-0.3,0.2-0.5,0.4-0.8,0.6c0,0-0.1,0-0.1,0.1c-1.3,0.9-2.7,1.8-4.1,2.6     c-0.4,0.2-0.8,0.4-1.2,0.7c-1,0.6-2.1,1.1-3.1,1.6c-0.2,0.1-0.5,0.3-0.7,0.4c-0.3,0.1-0.6,0.2-0.9,0.4c-0.8,0.4-1.7,0.7-2.5,1.1     c-0.6,0.2-1.2,0.5-1.8,0.7c-0.9,0.3-1.8,0.6-2.7,0.9c-0.6,0.2-1.2,0.4-1.8,0.6c-1,0.3-2.1,0.6-3.2,0.8c-0.5,0.1-1,0.3-1.6,0.4     c-1.6,0.3-3.3,0.6-5,0.9c-1.3,0.2-2.5,0.3-3.7,0.4c-0.1,0-0.2,0-0.3,0c2.8,4.9,6.2,9.1,10.1,12.7c2.3,2.1,4.8,3.9,7.4,5.5     c0.6,0.4,1.3,0.7,1.9,1.1c0.1,0.1,0.2,0.1,0.4,0.2c0.6,0.3,1.1,0.6,1.7,0.8c0.6,0.3,1.3,0.6,1.9,0.8c0.4,0.2,0.8,0.4,1.2,0.5     c0.3,0.1,0.6,0.2,0.9,0.3c1.1,0.4,2.1,0.7,3.2,1c0.1,0,0.2,0.1,0.3,0.1c0.2,0.1,0.5,0.1,0.7,0.2c0.8,0.2,1.6,0.4,2.5,0.5     c0.3,0,0.5,0.1,0.8,0.1c1.3,0.2,2.6,0.4,4,0.5c0.1,0,0.1,0,0.2,0c1,0.1,2,0.1,3,0.1c0.4,0,0.8,0,1.1,0c0.9,0,1.8,0,2.6-0.1     c0.3,0,0.7,0,1-0.1c1.3-0.1,2.6-0.2,3.9-0.4c1.7-0.2,3.4-0.5,5-0.9c0.5-0.1,1-0.3,1.6-0.4c1.1-0.3,2.1-0.5,3.2-0.8     c0.6-0.2,1.2-0.4,1.8-0.6c0.9-0.3,1.8-0.6,2.7-0.9c0.6-0.2,1.2-0.5,1.8-0.7c0.9-0.3,1.7-0.7,2.5-1.1c0.3-0.1,0.6-0.3,0.9-0.4     c0.3-0.1,0.5-0.2,0.8-0.4c1.1-0.5,2.1-1.1,3.1-1.6c0.4-0.2,0.8-0.4,1.2-0.7c1.4-0.8,2.7-1.7,4.1-2.6c0,0,0.1,0,0.1-0.1     c0.3-0.2,0.5-0.4,0.8-0.6c0.9-0.7,1.8-1.3,2.7-2c0.4-0.3,0.9-0.7,1.3-1.1c0.7-0.6,1.5-1.2,2.2-1.8c0.1-0.1,0.3-0.3,0.4-0.4     c0.3-0.2,0.5-0.5,0.8-0.7c0.8-0.8,1.7-1.6,2.5-2.4c0.4-0.4,0.8-0.8,1.2-1.2c0.9-0.9,1.7-1.8,2.5-2.7c0.2-0.2,0.4-0.5,0.7-0.7     c0.1-0.1,0.2-0.2,0.3-0.3c0.4-0.5,0.8-1,1.2-1.5c0.5-0.6,1.1-1.3,1.6-1.9c0.4-0.5,0.8-1,1.2-1.6c0.5-0.6,1-1.3,1.5-1.9     c0.4-0.5,0.8-1.1,1.2-1.7c0.5-0.7,1-1.3,1.5-2c0.4-0.6,0.8-1.2,1.2-1.7c0.3-0.4,0.6-0.9,0.9-1.3c0.3-0.5,0.7-1,1-1.5l-44.9-24.4     C1088.9,1390.8,1088.5,1391.3,1088.2,1391.8z"
           id="path233" /><path
           style="fill:#8F0B09;"
           d="M1130,1333.4c-0.3-0.3-0.6-0.6-0.8-0.9c-0.6-0.6-1.2-1.3-1.7-1.9c-0.3-0.3-0.7-0.7-1-1     c-0.5-0.5-1.1-1.1-1.6-1.6c-0.4-0.4-0.8-0.7-1.1-1c-0.5-0.5-1.1-1-1.6-1.4c-0.4-0.3-0.8-0.7-1.2-1c-0.5-0.4-1.1-0.9-1.6-1.3     c-0.4-0.3-0.8-0.6-1.2-0.9c-0.5-0.4-1.1-0.8-1.6-1.2c-0.4-0.3-0.9-0.6-1.3-0.9c-0.6-0.4-1.1-0.7-1.7-1.1     c-0.4-0.3-0.9-0.5-1.3-0.8c-7-3.9-14.8-6.2-23.8-6.3l44.3,24.1C1131.7,1335.3,1130.8,1334.3,1130,1333.4z"
           id="path235" /><path
           style="fill:#8F0B09;"
           d="M1105.3,1232c-1.1-0.6-2.1-1.1-3.2-1.7c-0.1,0-0.1-0.1-0.2-0.1c-1.3-0.6-2.6-1.3-4-1.8     c-0.4-0.2-0.8-0.3-1.2-0.5c-1-0.4-1.9-0.8-2.9-1.2c-0.5-0.2-1-0.4-1.6-0.6c-0.9-0.3-1.8-0.6-2.7-0.9c-0.6-0.2-1.1-0.4-1.7-0.5     c-0.9-0.3-1.9-0.6-2.8-0.8c-0.3-0.1-0.7-0.2-1-0.3c-0.2-0.1-0.4-0.1-0.6-0.2c-1.5-0.4-3-0.7-4.5-1c-0.1,0-0.3-0.1-0.4-0.1     c-1.7-0.3-3.3-0.6-5.1-0.9c-0.5-0.1-1-0.1-1.5-0.2c-1.2-0.2-2.5-0.3-3.8-0.5c-0.6-0.1-1.2-0.1-1.8-0.2c-1.4-0.1-2.8-0.2-4.2-0.3     c-0.5,0-0.9-0.1-1.4-0.1c-1.8-0.1-3.7-0.1-5.6-0.1c-0.4,0-0.9,0-1.3,0c-1.5,0-3,0.1-4.6,0.1c-0.6,0-1.3,0.1-2,0.1     c-1.4,0.1-2.9,0.2-4.3,0.3c-0.6,0.1-1.2,0.1-1.9,0.2c-2.1,0.2-4.1,0.4-6.3,0.7c-2.1,0.3-4.2,0.7-6.3,1c-0.6,0.1-1.3,0.2-1.9,0.4     c-1.5,0.3-3,0.6-4.4,1c-0.6,0.2-1.3,0.3-1.9,0.5c-1.7,0.4-3.4,0.9-5,1.4c-0.3,0.1-0.7,0.2-1,0.3c-2,0.6-3.9,1.2-5.9,1.9     c-0.5,0.2-1.1,0.4-1.6,0.6c-1.4,0.5-2.9,1.1-4.3,1.6c-0.6,0.2-1.2,0.5-1.9,0.7c-1.4,0.6-2.9,1.2-4.3,1.9     c-0.5,0.2-0.9,0.4-1.4,0.6c-0.2,0.1-0.3,0.2-0.5,0.2c-1.5,0.7-3.1,1.5-4.6,2.3c-0.3,0.1-0.5,0.3-0.8,0.4c-1.9,1-3.8,2-5.6,3.1     c-0.6,0.3-1.1,0.7-1.7,1c-1.3,0.8-2.5,1.5-3.8,2.3c-0.7,0.4-1.4,0.9-2,1.4c-0.8,0.5-1.5,1-2.3,1.6c-0.4,0.3-0.8,0.5-1.1,0.8     c-0.5,0.3-0.9,0.7-1.4,1c-1.4,1-2.7,2-4,3c-0.3,0.2-0.6,0.4-0.9,0.7c-1.6,1.2-3.1,2.5-4.6,3.8c-0.4,0.3-0.8,0.7-1.1,1     c-0.6,0.5-1.2,1.1-1.9,1.7c-0.3,0.3-0.6,0.6-0.9,0.9c-1.5,1.4-3,2.8-4.4,4.2c-0.5,0.5-0.9,0.9-1.4,1.4c-1.9,1.9-3.7,3.8-5.5,5.8     c-0.1,0.1-0.2,0.2-0.3,0.3c-0.3,0.3-0.6,0.7-0.9,1.1c-1.4,1.6-2.7,3.2-4,4.8c-0.5,0.7-1.1,1.4-1.6,2c-1.2,1.5-2.4,3.1-3.5,4.7     c-0.3,0.4-0.6,0.9-0.9,1.3c-0.2,0.3-0.4,0.6-0.7,0.9c-0.3,0.4-0.6,0.9-0.9,1.3c-0.9,1.4-1.9,2.8-2.7,4.2     c-0.2,0.4-0.5,0.7-0.7,1.1c-1.1,1.7-2.1,3.5-3.1,5.2c-0.2,0.4-0.5,0.8-0.7,1.2c-0.4,0.8-0.8,1.6-1.3,2.3     c-0.3,0.6-0.6,1.1-0.9,1.7c-0.4,0.7-0.7,1.4-1.1,2.1c-0.6,1.3-1.3,2.6-1.9,3.9c-0.3,0.6-0.6,1.3-0.9,1.9     c-0.8,1.7-1.5,3.4-2.2,5.2c-0.1,0.2-0.2,0.5-0.3,0.7c-0.7,1.8-1.4,3.7-2.1,5.5c-0.1,0.1-0.1,0.3-0.2,0.4     c-0.4,1.2-0.8,2.4-1.2,3.5c-0.4,1-0.7,2.1-1.1,3.1c-0.4,1.2-0.7,2.4-1.1,3.6c-0.3,1.1-0.6,2.1-0.9,3.2c-0.3,1.2-0.6,2.5-0.9,3.7     c-0.3,1.1-0.5,2.1-0.8,3.2c-0.3,1.3-0.5,2.6-0.8,3.9c-0.2,1-0.4,2.1-0.6,3.1c-0.2,1.3-0.4,2.7-0.6,4.1c-0.2,1-0.3,2-0.5,3.1     c-0.2,1.4-0.3,2.9-0.5,4.3c-0.1,1-0.2,1.9-0.3,2.9c-0.1,1.6-0.2,3.2-0.3,4.8c0,0.8-0.1,1.6-0.2,2.4c-0.1,2.4-0.2,4.9-0.2,7.3     c-0.1,50.3,22.7,88.8,57.3,107.7l44.9,24.4c-0.4-0.2-0.8-0.5-1.3-0.7c-0.3-0.2-0.7-0.4-1-0.6c-1.5-0.8-2.9-1.7-4.3-2.6     c-0.2-0.1-0.4-0.3-0.6-0.4c-1.3-0.8-2.6-1.7-3.8-2.6c-0.3-0.2-0.6-0.4-0.8-0.6c-1.4-1-2.7-2-4-3.1c-0.3-0.2-0.5-0.4-0.8-0.7     c-1.2-1-2.3-2-3.5-3c-0.2-0.2-0.4-0.3-0.6-0.5c-1.2-1.2-2.5-2.4-3.7-3.6c-0.3-0.3-0.5-0.6-0.8-0.8c-1.2-1.3-2.4-2.5-3.5-3.8     c0,0,0,0,0,0c-1.1-1.3-2.2-2.7-3.3-4.1c-0.2-0.3-0.5-0.6-0.7-0.9c-1.1-1.4-2.1-2.8-3.1-4.2c-0.1-0.2-0.3-0.4-0.4-0.6     c-0.9-1.3-1.8-2.7-2.6-4.1c-0.2-0.3-0.4-0.6-0.6-0.9c-0.9-1.5-1.8-3.1-2.6-4.6c-0.2-0.3-0.3-0.6-0.5-1c-0.8-1.4-1.5-2.9-2.2-4.4     c-0.1-0.2-0.2-0.5-0.3-0.7c-0.8-1.7-1.5-3.3-2.2-5c-0.2-0.4-0.3-0.8-0.5-1.2c-0.7-1.7-1.4-3.5-2-5.3c0,0,0,0,0,0     c-0.6-1.8-1.2-3.6-1.8-5.5c-0.1-0.4-0.2-0.8-0.4-1.3c-0.5-1.8-1-3.7-1.5-5.6c-0.1-0.3-0.1-0.5-0.2-0.8c-0.4-1.7-0.8-3.5-1.1-5.3     c-0.1-0.4-0.2-0.8-0.2-1.2c-0.4-1.9-0.7-3.9-1-5.9c-0.1-0.4-0.1-0.8-0.2-1.2c-0.2-1.8-0.5-3.7-0.6-5.6c0-0.3-0.1-0.6-0.1-0.9     c-0.2-2.1-0.3-4.1-0.4-6.3c0-0.5,0-1-0.1-1.4c-0.1-2.2-0.1-4.3-0.1-6.5c0-2.5,0.1-4.9,0.2-7.3c0-0.8,0.1-1.6,0.2-2.4     c0.1-1.6,0.2-3.2,0.3-4.8c0.1-1,0.2-1.9,0.3-2.9c0.2-1.4,0.3-2.9,0.5-4.3c0.1-1,0.3-2,0.5-3.1c0.2-1.4,0.4-2.7,0.6-4     c0.2-1.1,0.4-2.1,0.6-3.1c0.3-1.3,0.5-2.6,0.8-3.9c0.2-1.1,0.5-2.1,0.8-3.2c0.3-1.3,0.6-2.5,0.9-3.7c0.3-1.1,0.6-2.1,0.9-3.2     c0.4-1.2,0.7-2.4,1.1-3.6c0.3-1.1,0.7-2.1,1.1-3.1c0.4-1.2,0.8-2.4,1.2-3.5c0.7-2,1.5-4,2.3-6c0.1-0.3,0.2-0.5,0.3-0.7     c0.7-1.7,1.5-3.5,2.2-5.2c0.3-0.7,0.6-1.3,0.9-2c0.6-1.3,1.2-2.6,1.9-3.9c0.4-0.7,0.7-1.4,1.1-2.1c0.7-1.4,1.4-2.7,2.2-4.1     c0.2-0.4,0.5-0.8,0.7-1.2c1-1.8,2-3.5,3.1-5.2c0.2-0.4,0.5-0.7,0.7-1.1c0.9-1.4,1.8-2.8,2.7-4.2c0.3-0.4,0.6-0.9,0.9-1.3     c0.5-0.8,1.1-1.5,1.6-2.2c1.1-1.6,2.3-3.1,3.5-4.7c0.5-0.7,1.1-1.4,1.6-2.1c1.3-1.6,2.7-3.2,4-4.8c0.4-0.4,0.8-0.9,1.2-1.4     c1.8-2,3.6-3.9,5.5-5.8c0.5-0.5,0.9-0.9,1.4-1.4c1.5-1.4,2.9-2.8,4.4-4.2c0.9-0.8,1.9-1.7,2.8-2.5c0.4-0.3,0.7-0.7,1.1-1     c1.5-1.3,3.1-2.6,4.6-3.8c0.3-0.2,0.6-0.5,0.9-0.7c1.3-1,2.7-2,4-3c0.5-0.3,0.9-0.7,1.4-1c1.1-0.8,2.3-1.6,3.4-2.3     c0.7-0.5,1.4-0.9,2.1-1.4c1.2-0.8,2.5-1.6,3.8-2.3c0.6-0.3,1.1-0.7,1.7-1c1.8-1.1,3.7-2.1,5.6-3.1c0.3-0.1,0.5-0.3,0.8-0.4     c1.7-0.9,3.3-1.7,5-2.5c0.5-0.2,0.9-0.4,1.4-0.6c1.4-0.6,2.9-1.3,4.3-1.9c0.6-0.3,1.2-0.5,1.9-0.8c1.4-0.6,2.8-1.1,4.3-1.6     c0.5-0.2,1.1-0.4,1.6-0.6c1.9-0.7,3.9-1.3,5.9-1.9c0.3-0.1,0.7-0.2,1-0.3c1.7-0.5,3.3-0.9,5-1.4c0.6-0.2,1.3-0.3,1.9-0.5     c1.5-0.3,2.9-0.7,4.4-1c0.6-0.1,1.2-0.3,1.9-0.4c2.1-0.4,4.2-0.7,6.3-1c1.7-0.2,3.4-0.4,5-0.6c0.9-0.1,1.8-0.2,2.6-0.3     c0.8-0.1,1.5-0.1,2.3-0.2c0.6,0,1.2-0.1,1.8-0.1c0.5,0,1.1-0.1,1.6-0.1c0.1,0,0.1,0,0.2,0c0.4,0,0.8,0,1.2,0     c0.6,0,1.3-0.1,1.9-0.1c0.9,0,1.8,0,2.6-0.1c0.7,0,1.4,0,2,0c1,0,2,0,2.9,0.1c0.5,0,1.1,0,1.6,0c0,0,0.1,0,0.1,0     c0.1,0,0.2,0,0.3,0c1,0,2,0.1,3.1,0.2c0.3,0,0.6,0,0.9,0.1c0.4,0,0.9,0.1,1.3,0.1c0.4,0,0.9,0.1,1.3,0.1c0.5,0.1,1.1,0.1,1.6,0.2     c0.4,0,0.8,0.1,1.1,0.1c0.7,0.1,1.3,0.2,2,0.3c0.1,0,0.3,0,0.4,0.1c0.2,0,0.4,0.1,0.6,0.1c0.5,0.1,1,0.2,1.5,0.3     c0.9,0.1,1.7,0.3,2.6,0.5c0.5,0.1,1.1,0.2,1.6,0.3c0.8,0.2,1.6,0.3,2.4,0.5c0.5,0.1,1,0.2,1.5,0.4c0.1,0,0.2,0,0.3,0.1     c0.2,0,0.3,0.1,0.5,0.1c0.6,0.1,1.1,0.3,1.7,0.5c0.5,0.1,1,0.3,1.4,0.4c0.4,0.1,0.8,0.2,1.1,0.3c0.4,0.1,0.8,0.2,1.1,0.4     c0.1,0,0.2,0.1,0.3,0.1c0.4,0.1,0.7,0.2,1.1,0.4c0.6,0.2,1.1,0.4,1.7,0.6c0.4,0.1,0.8,0.3,1.1,0.4c0.2,0.1,0.5,0.2,0.7,0.3     c0.2,0.1,0.4,0.2,0.6,0.2c0.9,0.4,1.8,0.7,2.7,1.1c0.1,0,0.2,0.1,0.3,0.1c0,0,0,0,0,0c0.4,0.2,0.8,0.4,1.2,0.5     c0.7,0.3,1.5,0.7,2.2,1c0.5,0.2,1,0.5,1.4,0.7c0.6,0.3,1.2,0.6,1.9,1c0.2,0.1,0.5,0.2,0.7,0.4L1105.3,1232z"
           id="path237" /></g><path
         style="fill:#D21F21;"
         d="M1134.1,1414.7c-0.3,0.5-0.7,1-1,1.5c-0.3,0.4-0.6,0.9-0.9,1.3c-0.4,0.6-0.8,1.2-1.2,1.7    c-0.5,0.7-1,1.3-1.5,2c-0.4,0.6-0.8,1.1-1.2,1.7c-0.5,0.7-1,1.3-1.5,1.9c-0.4,0.5-0.8,1.1-1.2,1.6c-0.5,0.6-1.1,1.3-1.6,1.9    c-0.4,0.5-0.8,1-1.2,1.5c-0.1,0.1-0.2,0.2-0.3,0.3c-0.2,0.2-0.4,0.5-0.7,0.7c-0.8,0.9-1.7,1.8-2.5,2.7c-0.4,0.4-0.8,0.8-1.2,1.2    c-0.8,0.8-1.6,1.6-2.5,2.4c-0.3,0.2-0.5,0.5-0.8,0.7c-0.1,0.1-0.3,0.3-0.4,0.4c-0.7,0.6-1.4,1.2-2.2,1.8c-0.4,0.4-0.8,0.7-1.3,1.1    c-0.9,0.7-1.8,1.4-2.7,2c-0.3,0.2-0.5,0.4-0.8,0.6c0,0-0.1,0-0.1,0.1c-1.3,0.9-2.7,1.8-4.1,2.6c-0.4,0.2-0.8,0.4-1.2,0.7    c-1,0.6-2.1,1.1-3.1,1.6c-0.3,0.1-0.5,0.2-0.8,0.4c-0.3,0.1-0.6,0.3-0.9,0.4c-0.8,0.4-1.7,0.7-2.5,1.1c-0.6,0.2-1.2,0.5-1.8,0.7    c-0.9,0.3-1.8,0.6-2.7,0.9c-0.6,0.2-1.2,0.4-1.8,0.6c-1,0.3-2.1,0.6-3.2,0.8c-0.5,0.1-1,0.3-1.6,0.4c-1.6,0.3-3.3,0.6-5,0.9    c-1.3,0.2-2.6,0.3-3.9,0.4c-0.3,0-0.7,0-1,0.1c-0.9,0-1.8,0.1-2.6,0.1c-0.4,0-0.8,0-1.1,0c-1,0-2-0.1-3-0.1c-0.1,0-0.1,0-0.2,0    c-1.4-0.1-2.7-0.3-4-0.5c-0.3,0-0.5-0.1-0.8-0.1c-0.8-0.2-1.7-0.3-2.5-0.5c-0.2-0.1-0.5-0.1-0.7-0.2c-0.1,0-0.2-0.1-0.3-0.1    c-1.1-0.3-2.1-0.6-3.2-1c-0.3-0.1-0.6-0.2-0.9-0.3c-0.4-0.2-0.8-0.3-1.2-0.5c-0.6-0.3-1.3-0.5-1.9-0.8c-0.6-0.3-1.1-0.5-1.7-0.8    c-0.1-0.1-0.2-0.1-0.4-0.2c-0.7-0.3-1.3-0.7-1.9-1.1c-2.6-1.6-5.1-3.4-7.4-5.5c-3.9-3.5-7.3-7.8-10.1-12.7    c-6.1-10.6-9.5-24-9.5-39.3c0.1-38.6,24.3-73.8,58.7-78.6c3.2-0.5,6.3-0.6,9.3-0.6c8.9,0.1,16.7,2.4,23.8,6.3    c0.4,0.2,0.9,0.5,1.3,0.8c0.6,0.3,1.1,0.7,1.7,1.1c0.4,0.3,0.9,0.6,1.3,0.9c0.6,0.4,1.1,0.8,1.6,1.2c0.4,0.3,0.8,0.6,1.2,0.9    c0.5,0.4,1.1,0.8,1.6,1.3c0.4,0.3,0.8,0.7,1.2,1c0.5,0.5,1.1,0.9,1.6,1.4c0.4,0.3,0.8,0.7,1.1,1c0.5,0.5,1.1,1,1.6,1.6    c0.3,0.3,0.7,0.7,1,1c0.6,0.6,1.2,1.2,1.7,1.9c0.3,0.3,0.6,0.6,0.8,0.9c0.9,0.9,1.7,1.9,2.5,2.9l51.3-50    c-9.3-12.5-20.5-22.9-34.3-30.3c-0.6-0.3-1.2-0.6-1.9-1c-0.5-0.2-1-0.5-1.4-0.7c-0.7-0.4-1.5-0.7-2.2-1c-0.4-0.2-0.8-0.4-1.2-0.5    c0,0,0,0,0,0c-0.1,0-0.2-0.1-0.3-0.1c-0.9-0.4-1.8-0.7-2.7-1.1c-0.2-0.1-0.4-0.2-0.6-0.2c-0.2-0.1-0.5-0.2-0.7-0.3    c-0.4-0.1-0.8-0.3-1.1-0.4c-0.6-0.2-1.1-0.4-1.7-0.6c-0.4-0.1-0.7-0.2-1.1-0.4c-0.1,0-0.2-0.1-0.3-0.1c-0.4-0.1-0.8-0.2-1.1-0.4    c-0.4-0.1-0.8-0.2-1.1-0.3c-0.5-0.1-0.9-0.3-1.4-0.4c-0.6-0.2-1.1-0.3-1.7-0.5c-0.2,0-0.3-0.1-0.5-0.1c-0.1,0-0.2,0-0.3-0.1    c-0.5-0.1-1-0.3-1.5-0.4c-0.8-0.2-1.6-0.4-2.4-0.5c-0.5-0.1-1-0.2-1.6-0.3c-0.9-0.2-1.7-0.3-2.6-0.5c-0.5-0.1-1-0.2-1.5-0.3    c-0.2,0-0.4-0.1-0.6-0.1c-0.1,0-0.3,0-0.4-0.1c-0.7-0.1-1.3-0.2-2-0.3c-0.4,0-0.8-0.1-1.1-0.1c-0.5-0.1-1.1-0.1-1.6-0.2    c-0.4,0-0.9-0.1-1.3-0.1c-0.4,0-0.9-0.1-1.3-0.1c-0.3,0-0.6,0-0.9-0.1c-1-0.1-2-0.1-3.1-0.2c-0.1,0-0.2,0-0.3,0c0,0-0.1,0-0.1,0    c-0.5,0-1.1,0-1.6,0c-1,0-1.9,0-2.9-0.1c-0.7,0-1.3,0-2,0c-0.9,0-1.8,0-2.6,0.1c-0.6,0-1.3,0-1.9,0.1c-0.4,0-0.8,0-1.2,0    c-0.1,0-0.1,0-0.2,0c-0.5,0-1.1,0.1-1.6,0.1c-0.6,0-1.2,0.1-1.8,0.1c-0.8,0.1-1.5,0.1-2.3,0.2c-0.9,0.1-1.7,0.2-2.6,0.3    c-1.7,0.2-3.3,0.4-5,0.6c-2.1,0.3-4.2,0.7-6.3,1c-0.6,0.1-1.3,0.2-1.9,0.4c-1.5,0.3-3,0.6-4.4,1c-0.6,0.2-1.3,0.3-1.9,0.5    c-1.7,0.4-3.4,0.9-5,1.4c-0.3,0.1-0.7,0.2-1,0.3c-2,0.6-3.9,1.2-5.9,1.9c-0.5,0.2-1.1,0.4-1.6,0.6c-1.4,0.5-2.9,1.1-4.3,1.6    c-0.6,0.2-1.2,0.5-1.9,0.8c-1.4,0.6-2.9,1.2-4.3,1.9c-0.5,0.2-0.9,0.4-1.4,0.6c-1.7,0.8-3.4,1.6-5,2.5c-0.3,0.1-0.5,0.3-0.8,0.4    c-1.9,1-3.8,2-5.6,3.1c-0.6,0.3-1.1,0.7-1.7,1c-1.3,0.8-2.5,1.5-3.8,2.3c-0.7,0.4-1.4,0.9-2.1,1.4c-1.2,0.8-2.3,1.5-3.4,2.3    c-0.5,0.3-0.9,0.7-1.4,1c-1.4,1-2.7,2-4,3c-0.3,0.2-0.6,0.4-0.9,0.7c-1.6,1.2-3.1,2.5-4.6,3.8c-0.4,0.3-0.8,0.7-1.1,1    c-0.9,0.8-1.9,1.7-2.8,2.5c-1.5,1.4-3,2.8-4.4,4.2c-0.5,0.5-0.9,0.9-1.4,1.4c-1.9,1.9-3.7,3.8-5.5,5.8c-0.4,0.4-0.8,0.9-1.2,1.4    c-1.4,1.6-2.7,3.2-4,4.8c-0.5,0.7-1.1,1.4-1.6,2.1c-1.2,1.5-2.4,3.1-3.5,4.7c-0.5,0.7-1.1,1.5-1.6,2.2c-0.3,0.4-0.6,0.9-0.9,1.3    c-0.9,1.4-1.8,2.8-2.7,4.2c-0.2,0.4-0.5,0.7-0.7,1.1c-1.1,1.7-2.1,3.5-3.1,5.2c-0.2,0.4-0.5,0.8-0.7,1.2c-0.7,1.3-1.5,2.7-2.2,4.1    c-0.4,0.7-0.7,1.4-1.1,2.1c-0.6,1.3-1.3,2.6-1.9,3.9c-0.3,0.7-0.6,1.3-0.9,2c-0.8,1.7-1.5,3.4-2.2,5.2c-0.1,0.3-0.2,0.5-0.3,0.7    c-0.8,2-1.6,4-2.3,6c-0.4,1.2-0.8,2.4-1.2,3.5c-0.4,1-0.7,2.1-1.1,3.1c-0.4,1.2-0.7,2.4-1.1,3.6c-0.3,1.1-0.6,2.1-0.9,3.2    c-0.3,1.2-0.6,2.5-0.9,3.7c-0.3,1.1-0.5,2.1-0.8,3.2c-0.3,1.3-0.5,2.6-0.8,3.9c-0.2,1-0.4,2.1-0.6,3.1c-0.2,1.3-0.4,2.7-0.6,4    c-0.2,1-0.3,2-0.5,3.1c-0.2,1.4-0.3,2.9-0.5,4.3c-0.1,1-0.2,1.9-0.3,2.9c-0.1,1.6-0.2,3.2-0.3,4.8c0,0.8-0.1,1.6-0.2,2.4    c-0.1,2.4-0.2,4.9-0.2,7.3c0,2.2,0.1,4.4,0.1,6.5c0,0.5,0,1,0.1,1.4c0.1,2.1,0.2,4.2,0.4,6.3c0,0.3,0.1,0.6,0.1,0.9    c0.2,1.9,0.4,3.7,0.6,5.6c0.1,0.4,0.1,0.8,0.2,1.2c0.3,2,0.6,4,1,5.9c0.1,0.4,0.2,0.8,0.2,1.2c0.3,1.8,0.7,3.5,1.1,5.3    c0.1,0.3,0.1,0.5,0.2,0.8c0.5,1.9,1,3.8,1.5,5.6c0.1,0.4,0.2,0.8,0.4,1.3c0.6,1.9,1.1,3.7,1.8,5.5c0,0,0,0,0,0    c0.6,1.8,1.3,3.6,2,5.3c0.2,0.4,0.3,0.8,0.5,1.2c0.7,1.7,1.4,3.4,2.2,5c0.1,0.2,0.2,0.5,0.3,0.7c0.7,1.5,1.4,3,2.2,4.4    c0.2,0.3,0.3,0.6,0.5,1c0.8,1.6,1.7,3.1,2.6,4.6c0.2,0.3,0.4,0.6,0.6,0.9c0.8,1.4,1.7,2.7,2.6,4.1c0.1,0.2,0.3,0.4,0.4,0.6    c1,1.4,2,2.9,3.1,4.2c0.2,0.3,0.5,0.6,0.7,0.9c1.1,1.4,2.2,2.8,3.3,4.1c0,0,0,0,0,0c1.1,1.3,2.3,2.6,3.5,3.8    c0.3,0.3,0.5,0.6,0.8,0.8c1.2,1.2,2.4,2.4,3.7,3.6c0.2,0.2,0.4,0.3,0.6,0.5c1.1,1,2.3,2.1,3.5,3c0.3,0.2,0.5,0.4,0.8,0.7    c1.3,1.1,2.6,2.1,4,3.1c0.3,0.2,0.6,0.4,0.8,0.6c1.3,0.9,2.5,1.8,3.8,2.6c0.2,0.1,0.4,0.3,0.6,0.4c1.4,0.9,2.9,1.8,4.3,2.6    c0.3,0.2,0.7,0.4,1,0.6c20.1,11.3,44.2,15.9,70.3,12.2c54-7.6,85.3-37.3,108.5-75L1134.1,1414.7z"
         id="path239" /></g></g></svg>