<svg id="Layer_1" data-name="Layer 1" xmlns="http://www.w3.org/2000/svg" xmlns:xlink="http://www.w3.org/1999/xlink" width="297mm" height="210mm" viewBox="0 0 841.89 595.28">
  <defs>
    <clipPath id="clip-path">
      <path d="M475.64,215.36l-2.17,10.11q-2.68-2.76-5.58-5.22t-6-4.6q-3.11-2.15-6.43-4t-6.86-3.38a75.68,75.68,0,0,0-7.13-2.69,72.32,72.32,0,0,0-14.68-3.07,74,74,0,0,0-7.55-.38,85.5,85.5,0,0,0-10.36.62,77,77,0,0,0-9.84,1.85,72.61,72.61,0,0,0-18.18,7.4,77.73,77.73,0,0,0-8.14,5.37,72.74,72.74,0,0,0-7.22,6.23,71.65,71.65,0,0,0-6.31,7.1,74.39,74.39,0,0,0-5.4,8q-.41.69-.8,1.39t-.76,1.4q-.37.7-.72,1.41t-.69,1.42L347.43,235q.36-.74.72-1.48t.76-1.47q.39-.73.79-1.46t.83-1.45a77.68,77.68,0,0,1,5.65-8.32,74.85,74.85,0,0,1,6.6-7.41,76,76,0,0,1,7.55-6.5,81.29,81.29,0,0,1,8.51-5.6,76,76,0,0,1,19-7.71,80.59,80.59,0,0,1,10.29-1.93,89.52,89.52,0,0,1,10.82-.64,77.45,77.45,0,0,1,7.89.4,75.71,75.71,0,0,1,15.34,3.2,79.2,79.2,0,0,1,7.45,2.8q3.7,1.6,7.17,3.52t6.72,4.16q3.25,2.24,6.28,4.8T475.64,215.36Z" style="fill: none"/>
    </clipPath>
    <clipPath id="clip-path-2">
      <path d="M512.28,353.48l-3.84,4.24q-3.9,4.31-8.18,8.19t-8.93,7.34q-4.65,3.46-9.68,6.48t-10.43,5.62q-4.8,2.3-9.74,4.15t-10,3.25q-5.07,1.4-10.27,2.34t-10.53,1.43l.24-2.46q5.58-.51,11-1.5t10.75-2.45q5.3-1.46,10.47-3.39t10.19-4.34q5.65-2.71,10.92-5.88t10.13-6.78q4.86-3.61,9.34-7.67T512.28,353.48Z" style="fill: none"/>
    </clipPath>
  </defs>
  <title>acf-logo-2-01</title>
  <g>
    <g>
      <path d="M238.46,451l6.69-16.6h2.15L254,451h-2.78l-1.78-4.51H243L241.26,451Zm7.76-13.68-2.76,7.22h5.42Z" style="fill: #231f20"/>
      <path d="M263,451v-16.6h7.22a4.63,4.63,0,0,1,2.07.47,5.3,5.3,0,0,1,1.62,1.23,5.8,5.8,0,0,1,1.06,1.73,5.31,5.31,0,0,1,.39,2,5.53,5.53,0,0,1-.23,1.61,5.63,5.63,0,0,1-.65,1.43,4.6,4.6,0,0,1-1,1.13,4.25,4.25,0,0,1-1.33.71l4,6.31h-3l-3.65-5.77H265.6V451Zm2.62-8.09h4.58a2.12,2.12,0,0,0,1-.25A2.41,2.41,0,0,0,272,442a3.46,3.46,0,0,0,.51-1,3.77,3.77,0,0,0,.19-1.19,3.22,3.22,0,0,0-.22-1.19,3.42,3.42,0,0,0-.58-1,2.8,2.8,0,0,0-.84-.67,2.17,2.17,0,0,0-1-.25H265.6Z" style="fill: #231f20"/>
      <path d="M285.63,451V434.41h2.62v8.65l7.9-8.67H299l-6.55,7.34,6.92,9.26H296.5l-5.66-7.76-2.59,2.71v5Z" style="fill: #231f20"/>
      <path d="M319.44,442.57a8.7,8.7,0,0,1,.54-3,8.46,8.46,0,0,1,1.55-2.66A7.77,7.77,0,0,1,324,435a7.48,7.48,0,0,1,3.34-.72,7,7,0,0,1,3.82,1,6.4,6.4,0,0,1,2.4,2.62l-2.06,1.38a4.32,4.32,0,0,0-.82-1.26,4.18,4.18,0,0,0-1.06-.82,4.49,4.49,0,0,0-1.18-.43,5.69,5.69,0,0,0-1.19-.13,4.6,4.6,0,0,0-2.23.53,5,5,0,0,0-1.62,1.39,6.18,6.18,0,0,0-1,1.94,7.36,7.36,0,0,0-.33,2.15,6.93,6.93,0,0,0,.39,2.31,6.22,6.22,0,0,0,1.09,1.94,5.41,5.41,0,0,0,1.66,1.34,4.45,4.45,0,0,0,2.1.5,5.39,5.39,0,0,0,1.23-.15,4.34,4.34,0,0,0,1.22-.49,5,5,0,0,0,1.06-.85,4.41,4.41,0,0,0,.82-1.24l2.17,1.24a5.16,5.16,0,0,1-1.11,1.65,7.11,7.11,0,0,1-1.6,1.2,8.17,8.17,0,0,1-3.88,1,6.68,6.68,0,0,1-3.16-.75,8.35,8.35,0,0,1-2.47-2,9.09,9.09,0,0,1-2.19-5.86Z" style="fill: #231f20"/>
      <path d="M349.94,451.1a7.07,7.07,0,0,1-3.19-.71,8,8,0,0,1-2.48-1.89,8.48,8.48,0,0,1-1.6-2.7,8.91,8.91,0,0,1-.56-3.11,8.63,8.63,0,0,1,.6-3.18,8.74,8.74,0,0,1,1.65-2.69,7.91,7.91,0,0,1,2.5-1.86,7.27,7.27,0,0,1,3.16-.69,6.9,6.9,0,0,1,3.19.74,8.11,8.11,0,0,1,2.47,1.93,8.94,8.94,0,0,1,2.15,5.77,8.75,8.75,0,0,1-2.24,5.86,8,8,0,0,1-2.49,1.85A7.16,7.16,0,0,1,349.94,451.1Zm-5.17-8.42a7.18,7.18,0,0,0,.36,2.27,6.12,6.12,0,0,0,1,1.94,5.16,5.16,0,0,0,1.64,1.34,4.56,4.56,0,0,0,2.15.5,4.52,4.52,0,0,0,2.19-.53,5.13,5.13,0,0,0,1.64-1.39,6.42,6.42,0,0,0,1-1.94,7.05,7.05,0,0,0,.35-2.2,7,7,0,0,0-.37-2.28,6.17,6.17,0,0,0-1.05-1.92,5.23,5.23,0,0,0-1.64-1.33,4.78,4.78,0,0,0-4.31,0,5.26,5.26,0,0,0-1.64,1.37,6.08,6.08,0,0,0-1,1.93A7.14,7.14,0,0,0,344.78,442.68Z" style="fill: #231f20"/>
      <path d="M381.52,451V439l-4.93,9h-1.45l-5-9V451h-2.62v-16.6h2.8l5.49,10.15,5.49-10.15h2.81V451Z" style="fill: #231f20"/>
      <path d="M408.87,451V439l-4.93,9h-1.45l-5-9V451h-2.62v-16.6h2.8l5.49,10.15,5.49-10.15h2.81V451Z" style="fill: #231f20"/>
      <path d="M429.17,448.74a4.19,4.19,0,0,0,2.17-.51,4.1,4.1,0,0,0,1.39-1.34,5.66,5.66,0,0,0,.75-1.89,10.7,10.7,0,0,0,.22-2.19v-8.42h2.64v8.42a12.58,12.58,0,0,1-.4,3.21,7.43,7.43,0,0,1-1.26,2.64,6,6,0,0,1-2.23,1.79,7.54,7.54,0,0,1-3.28.66,7.37,7.37,0,0,1-3.35-.69,6,6,0,0,1-2.21-1.85,7.59,7.59,0,0,1-1.22-2.65,12.77,12.77,0,0,1-.37-3.11v-8.42h2.62v8.42a10.75,10.75,0,0,0,.22,2.21,5.66,5.66,0,0,0,.75,1.89,4,4,0,0,0,1.4,1.33A4.29,4.29,0,0,0,429.17,448.74Z" style="fill: #231f20"/>
      <path d="M449.43,439.29V451h-2.62v-16.6h2.06l9.49,12V434.41H461V451h-2.17Z" style="fill: #231f20"/>
      <path d="M471.76,451V434.41h2.62V451Z" style="fill: #231f20"/>
      <path d="M497.31,436.7h-5.52V451h-2.62V436.7h-5.54v-2.31h13.67Z" style="fill: #231f20"/>
      <path d="M507.59,434.38l4.61,8.32,4.63-8.32h2.85L513.51,445V451h-2.64v-6l-6.15-10.61Z" style="fill: #231f20"/>
      <path d="M540.42,451v-16.6h11.06v2.31H543v5h7.06v2.17H543V451Z" style="fill: #231f20"/>
      <path d="M567.79,448.74a4.18,4.18,0,0,0,2.17-.51,4.08,4.08,0,0,0,1.39-1.34,5.66,5.66,0,0,0,.75-1.89,10.7,10.7,0,0,0,.22-2.19v-8.42H575v8.42a12.58,12.58,0,0,1-.4,3.21,7.41,7.41,0,0,1-1.26,2.64,6,6,0,0,1-2.23,1.79,7.54,7.54,0,0,1-3.28.66,7.38,7.38,0,0,1-3.35-.69,6,6,0,0,1-2.21-1.85,7.59,7.59,0,0,1-1.21-2.65,12.77,12.77,0,0,1-.37-3.11v-8.42h2.62v8.42a10.8,10.8,0,0,0,.22,2.21,5.63,5.63,0,0,0,.75,1.89,4,4,0,0,0,1.4,1.33A4.29,4.29,0,0,0,567.79,448.74Z" style="fill: #231f20"/>
      <path d="M588.06,439.29V451h-2.62v-16.6h2.06l9.49,12V434.41h2.64V451h-2.17Z" style="fill: #231f20"/>
      <path d="M610.38,451v-16.6h5.89a8.79,8.79,0,0,1,3.52.65,7.23,7.23,0,0,1,2.52,1.78,7.41,7.41,0,0,1,1.53,2.63,9.9,9.9,0,0,1,.51,3.21,9.71,9.71,0,0,1-.57,3.42,7.47,7.47,0,0,1-1.63,2.62,7.21,7.21,0,0,1-2.55,1.68,9,9,0,0,1-3.34.6Zm11.31-8.32a7.63,7.63,0,0,0-.36-2.41,5.25,5.25,0,0,0-1.06-1.88,4.93,4.93,0,0,0-1.71-1.23,5.61,5.61,0,0,0-2.29-.44H613v12h3.27a5.65,5.65,0,0,0,2.33-.46,4.8,4.8,0,0,0,1.71-1.26,5.44,5.44,0,0,0,1-1.91A7.82,7.82,0,0,0,621.7,442.66Z" style="fill: #231f20"/>
    </g>
    <g>
      <g>
        <g style="isolation: isolate">
          <polygon points="695.54 189.97 683.92 201.13 624.25 201.13 633.18 189.97 695.54 189.97"/>
          <polygon points="633.18 189.97 624.25 201.13 564.56 201.13 570.81 189.97 633.18 189.97"/>
          <polygon points="678.67 292.14 667.58 299.02 617.27 299.02 626.05 292.14 678.67 292.14"/>
          <polygon points="626.05 292.14 617.27 299.02 566.97 299.02 573.44 292.14 626.05 292.14"/>
          <polygon points="576.07 394.34 569.37 396.79 544.68 396.79 550.23 394.34 576.07 394.34"/>
          <polygon points="550.23 394.34 544.68 396.79 519.99 396.79 524.39 394.34 550.23 394.34"/>
          <polygon points="693.4 145.38 694.55 169.32 695.54 189.97 633.18 189.97 570.81 189.97 571.61 220.94 572.32 248.66 624.54 248.66 676.75 248.66 677.71 270.32 678.67 292.14 626.05 292.14 573.44 292.14 574.75 342.79 576.07 394.34 550.23 394.34 524.39 394.34 522.24 267.16 520.18 145.38 606.8 145.38 693.4 145.38"/>
        </g>
        <g style="isolation: isolate">
          <polygon points="509.62 183.64 506 195.06 473.47 225.47 475.64 215.36 509.62 183.64" style="fill: #7b0512"/>
          <path d="M419,145.65q6.53,0,12.89.63a124.05,124.05,0,0,1,12.55,1.89,121.74,121.74,0,0,1,12.23,3.16,123.6,123.6,0,0,1,11.91,4.43q5.87,2.53,11.37,5.54t10.63,6.49q5.13,3.48,9.89,7.44t9.15,8.41l-34,31.72q-2.81-2.88-5.84-5.44t-6.28-4.8q-3.25-2.24-6.72-4.16t-7.17-3.52a79.2,79.2,0,0,0-7.45-2.8,75.71,75.71,0,0,0-15.34-3.2,77.45,77.45,0,0,0-7.89-.4,89.52,89.52,0,0,0-10.82.64,80.59,80.59,0,0,0-10.29,1.93,76,76,0,0,0-19,7.71,81.29,81.29,0,0,0-8.51,5.6,76,76,0,0,0-7.55,6.5,74.85,74.85,0,0,0-6.6,7.41,77.68,77.68,0,0,0-5.65,8.32q-.43.72-.83,1.45t-.79,1.46q-.39.73-.76,1.47t-.72,1.48L323.1,188.69q3.55-4,7.41-7.73t8.05-7.07q4.18-3.37,8.69-6.4t9.33-5.74a127.65,127.65,0,0,1,14.7-7.05,123.21,123.21,0,0,1,15.29-5,125.42,125.42,0,0,1,15.9-3A134.38,134.38,0,0,1,419,145.65Z" style="fill: #b11b29"/>
          <polygon points="347.43 235.01 350.81 244.3 327.5 199.9 323.1 188.69 347.43 235.01" style="fill: #7b0511"/>
          <g style="isolation: isolate">
            <g style="clip-path: url(#clip-path)">
              <g style="isolation: isolate">
                <path d="M475.64,215.36l-2.17,10.11q-2.68-2.76-5.58-5.22t-6-4.6q-3.11-2.15-6.43-4t-6.86-3.38a75.68,75.68,0,0,0-7.13-2.69,72.32,72.32,0,0,0-14.68-3.07,74,74,0,0,0-7.55-.38,85.5,85.5,0,0,0-10.36.62,77,77,0,0,0-9.84,1.85,72.61,72.61,0,0,0-18.18,7.4q-3.06,1.76-5.89,3.73t-5.42,4.17q-2.6,2.19-5,4.61t-4.5,5l-3-9.93q2.23-2.75,4.7-5.27t5.19-4.81q2.71-2.29,5.67-4.35t6.15-3.89a76,76,0,0,1,19-7.71,80.59,80.59,0,0,1,10.29-1.93,89.52,89.52,0,0,1,10.82-.64,77.45,77.45,0,0,1,7.89.4,75.71,75.71,0,0,1,15.34,3.2,79.2,79.2,0,0,1,7.45,2.8q3.7,1.6,7.17,3.52t6.72,4.16q3.25,2.24,6.28,4.8t5.84,5.44" style="fill: #7d0713"/>
                <path d="M357.13,219.63l3,9.93q-.86,1.07-1.69,2.17T356.78,234q-.79,1.14-1.54,2.32t-1.46,2.39q-.39.66-.76,1.32t-.72,1.33q-.35.67-.69,1.34l-.66,1.35-3.38-9.3q.34-.71.69-1.41t.72-1.4q.37-.7.76-1.39t.79-1.38q.75-1.27,1.53-2.49t1.61-2.42q.82-1.19,1.69-2.34t1.77-2.26" style="fill: #800814"/>
                <path d="M347.56,234.73l3.38,9.3,0,.07,0,.07,0,.07,0,.07L347.43,235l0-.07,0-.07,0-.07,0-.07" style="fill: #820916"/>
              </g>
            </g>
          </g>
          <polygon points="277.15 269.57 283.62 277.41 316.39 341.67 311.36 336.71 277.15 269.57" style="fill: #8c0e1a"/>
          <polygon points="277.15 269.57 311.36 336.71 241.91 336.71 277.15 269.57" style="fill: #b11b29"/>
          <polygon points="311.36 336.71 316.39 341.67 250 341.67 241.91 336.71 311.36 336.71" style="fill: #7b0511"/>
          <polygon points="278.05 238.63 284.45 247.77 229.48 355.39 220.41 351.05 278.05 238.63"/>
          <g style="isolation: isolate">
            <g style="clip-path: url(#clip-path-2)">
              <g style="isolation: isolate">
                <path d="M512.28,353.48l-3.84,4.24q-3.9,4.31-8.18,8.19t-8.93,7.34q-4.65,3.46-9.68,6.48t-10.43,5.62q-4.8,2.3-9.74,4.15t-10,3.25q-5.07,1.4-10.27,2.34t-10.53,1.43l.24-2.46q5.58-.51,11-1.5t10.75-2.45q5.3-1.46,10.47-3.39t10.19-4.34q5.65-2.71,10.92-5.88t10.13-6.78q4.86-3.61,9.34-7.67t8.55-8.56" style="fill: #7d0713"/>
              </g>
            </g>
          </g>
          <polygon points="430.92 394.06 430.68 396.51 405.94 349.37 405.04 344.75 430.92 394.06" style="fill: #7b0511"/>
          <path d="M480.78,315.88l35.58,32.87a125.59,125.59,0,0,1-9.25,10.11,122.85,122.85,0,0,1-10.25,9,124.58,124.58,0,0,1-11.25,7.84,130.87,130.87,0,0,1-12.26,6.69q-5,2.41-10.19,4.34t-10.47,3.39q-5.31,1.46-10.75,2.45t-11,1.5L405,344.75q1.67.28,3.37.5t3.41.36q1.72.15,3.45.22t3.5.08a84.86,84.86,0,0,0,9.27-.5,79,79,0,0,0,8.93-1.5,76.3,76.3,0,0,0,16.83-6,79.52,79.52,0,0,0,7.74-4.37,75.59,75.59,0,0,0,13.49-11A78.16,78.16,0,0,0,480.78,315.88Z" style="fill: #b11b29"/>
          <polygon points="286.09 351.42 292.25 355.75 313.25 396.79 308.02 394.34 286.09 351.42"/>
          <polygon points="408.89 394.34 409.63 396.79 355.73 396.79 352.48 394.34 408.89 394.34"/>
          <polygon points="279.14 145.38 408.89 394.34 352.48 394.34 278.05 238.63 220.41 351.05 286.09 351.42 308.02 394.34 145.66 394.34 279.14 145.38"/>
          <polygon points="308.02 394.34 313.25 396.79 158.11 396.79 145.66 394.34 308.02 394.34"/>
        </g>
      </g>
      <polygon points="519.99 396.79 515.13 150.49 520.18 145.38 524.4 394.36 519.99 396.79" style="fill: #231f20"/>
    </g>
  </g>
</svg>
