<svg id="Layer_1" data-name="Layer 1" xmlns="http://www.w3.org/2000/svg" width="297mm" height="210mm" viewBox="0 0 841.89 595.28">
  <title>acf-logo-1</title>
  <g>
    <path d="M584.25,179.92v67.23H700.37v48.93H584.25V408.19H528.19V127.89H724.4v52H584.25Z" style="fill: #231f20"/>
    <g>
      <path d="M213.69,467.25l7.41-18.39h2.38l7.38,18.39h-3.08l-2-5h-7.1l-1.92,5Zm8.6-15.15-3.06,8h6Z" style="fill: #231f20"/>
      <path d="M240.86,467.25V448.86h8a5.12,5.12,0,0,1,2.29.52,5.89,5.89,0,0,1,1.8,1.36,6.43,6.43,0,0,1,1.18,1.92,5.88,5.88,0,0,1,.43,2.19,6.13,6.13,0,0,1-.26,1.79,6.25,6.25,0,0,1-.73,1.58,5.11,5.11,0,0,1-1.14,1.26,4.69,4.69,0,0,1-1.48.79l4.38,7h-3.29l-4-6.4h-4.25v6.4Zm2.9-9h5.08A2.34,2.34,0,0,0,250,458a2.66,2.66,0,0,0,.87-.75,3.83,3.83,0,0,0,.57-1.1,4.17,4.17,0,0,0,.21-1.32,3.57,3.57,0,0,0-.25-1.32,3.81,3.81,0,0,0-.65-1.09,3.09,3.09,0,0,0-.93-.74,2.39,2.39,0,0,0-1.1-.27h-4.92Z" style="fill: #231f20"/>
      <path d="M266,467.25V448.88h2.9v9.58l8.76-9.61h3.11L273.48,457l7.67,10.26H278l-6.27-8.6-2.88,3v5.6Z" style="fill: #231f20"/>
      <path d="M303.42,457.92a9.64,9.64,0,0,1,.6-3.3,9.38,9.38,0,0,1,1.72-3,8.62,8.62,0,0,1,2.76-2.11,8.29,8.29,0,0,1,3.7-.8,7.81,7.81,0,0,1,4.24,1.11,7.09,7.09,0,0,1,2.66,2.9l-2.28,1.53a4.79,4.79,0,0,0-.91-1.4,4.63,4.63,0,0,0-1.18-.91,5,5,0,0,0-1.31-.48,6.36,6.36,0,0,0-1.32-.14,5.11,5.11,0,0,0-2.47.58,5.54,5.54,0,0,0-1.8,1.54,6.84,6.84,0,0,0-1.09,2.15,8.15,8.15,0,0,0-.36,2.38,7.68,7.68,0,0,0,.43,2.56,6.9,6.9,0,0,0,1.2,2.15,6,6,0,0,0,1.84,1.49,4.94,4.94,0,0,0,2.33.56,5.92,5.92,0,0,0,1.36-.17,4.81,4.81,0,0,0,1.35-.54,5.53,5.53,0,0,0,1.18-.95,4.88,4.88,0,0,0,.91-1.37l2.41,1.37a5.71,5.71,0,0,1-1.23,1.83,7.9,7.9,0,0,1-1.77,1.33,9.06,9.06,0,0,1-4.3,1.11,7.41,7.41,0,0,1-3.5-.83,9.26,9.26,0,0,1-2.73-2.16,9.87,9.87,0,0,1-1.79-3A9.77,9.77,0,0,1,303.42,457.92Z" style="fill: #231f20"/>
      <path d="M337.23,467.38a7.84,7.84,0,0,1-3.54-.79,8.87,8.87,0,0,1-2.75-2.1,9.4,9.4,0,0,1-1.77-3,9.86,9.86,0,0,1-.62-3.45,9.57,9.57,0,0,1,.66-3.52,9.7,9.7,0,0,1,1.83-3,8.74,8.74,0,0,1,2.77-2.06,8,8,0,0,1,3.5-.76,7.64,7.64,0,0,1,3.54.82,9,9,0,0,1,2.73,2.14,9.91,9.91,0,0,1,2.38,6.4,9.69,9.69,0,0,1-2.49,6.49,8.86,8.86,0,0,1-2.76,2A7.94,7.94,0,0,1,337.23,467.38Zm-5.72-9.33a8,8,0,0,0,.4,2.51,6.76,6.76,0,0,0,1.15,2.15,5.7,5.7,0,0,0,1.81,1.49,5.35,5.35,0,0,0,4.81,0,5.68,5.68,0,0,0,1.81-1.54,7.12,7.12,0,0,0,1.13-2.15,7.81,7.81,0,0,0,.39-2.44,7.73,7.73,0,0,0-.41-2.53,6.85,6.85,0,0,0-1.17-2.12,5.79,5.79,0,0,0-1.81-1.48,5.3,5.3,0,0,0-4.78,0,5.83,5.83,0,0,0-1.81,1.52,6.73,6.73,0,0,0-1.13,2.14A7.91,7.91,0,0,0,331.5,458.05Z" style="fill: #231f20"/>
      <path d="M372.22,467.25V454l-5.47,10h-1.61l-5.49-10v13.24h-2.9V448.86h3.11L366,460.1,372,448.86h3.11v18.39Z" style="fill: #231f20"/>
      <path d="M402.53,467.25V454l-5.47,10h-1.61L390,454v13.24h-2.9V448.86h3.11l6.09,11.24,6.09-11.24h3.11v18.39Z" style="fill: #231f20"/>
      <path d="M425,464.76a4.65,4.65,0,0,0,2.41-.57A4.55,4.55,0,0,0,429,462.7a6.28,6.28,0,0,0,.83-2.1,11.85,11.85,0,0,0,.25-2.42v-9.33H433v9.33a13.94,13.94,0,0,1-.44,3.56,8.24,8.24,0,0,1-1.4,2.93,6.67,6.67,0,0,1-2.47,2,8.36,8.36,0,0,1-3.64.73,8.18,8.18,0,0,1-3.72-.76,6.68,6.68,0,0,1-2.45-2,8.39,8.39,0,0,1-1.35-2.94,14.14,14.14,0,0,1-.41-3.45v-9.33H420v9.33a11.92,11.92,0,0,0,.25,2.45,6.27,6.27,0,0,0,.83,2.1,4.39,4.39,0,0,0,1.55,1.48A4.75,4.75,0,0,0,425,464.76Z" style="fill: #231f20"/>
      <path d="M447.48,454.3v13h-2.9V448.86h2.28l10.52,13.26V448.88h2.93v18.37h-2.41Z" style="fill: #231f20"/>
      <path d="M472.21,467.25V448.88h2.9v18.37Z" style="fill: #231f20"/>
      <path d="M500.53,451.42h-6.11v15.83h-2.9V451.42h-6.14v-2.56h15.15Z" style="fill: #231f20"/>
      <path d="M511.92,448.86l5.1,9.22,5.13-9.22h3.16l-6.84,11.81v6.58h-2.93v-6.63l-6.81-11.76Z" style="fill: #231f20"/>
      <path d="M548.3,467.25V448.86h12.25v2.56H551.2v5.49H559v2.41H551.2v7.93Z" style="fill: #231f20"/>
      <path d="M578.63,464.76a4.64,4.64,0,0,0,2.41-.57,4.53,4.53,0,0,0,1.54-1.49,6.29,6.29,0,0,0,.83-2.1,11.85,11.85,0,0,0,.25-2.42v-9.33h2.93v9.33a13.93,13.93,0,0,1-.44,3.56,8.21,8.21,0,0,1-1.4,2.93,6.67,6.67,0,0,1-2.47,2,8.36,8.36,0,0,1-3.64.73,8.19,8.19,0,0,1-3.72-.76,6.69,6.69,0,0,1-2.45-2,8.39,8.39,0,0,1-1.35-2.94,14.14,14.14,0,0,1-.41-3.45v-9.33h2.9v9.33a12,12,0,0,0,.25,2.45,6.24,6.24,0,0,0,.83,2.1,4.38,4.38,0,0,0,1.55,1.48A4.75,4.75,0,0,0,578.63,464.76Z" style="fill: #231f20"/>
      <path d="M601.09,454.3v13h-2.9V448.86h2.28L611,462.12V448.88h2.93v18.37H611.5Z" style="fill: #231f20"/>
      <path d="M625.83,467.25V448.86h6.53a9.73,9.73,0,0,1,3.9.73,8,8,0,0,1,2.8,2,8.23,8.23,0,0,1,1.7,2.91,11,11,0,0,1,.57,3.56,10.76,10.76,0,0,1-.63,3.79,8.29,8.29,0,0,1-1.8,2.9,8,8,0,0,1-2.82,1.87,9.93,9.93,0,0,1-3.7.66ZM638.37,458a8.46,8.46,0,0,0-.4-2.67,5.82,5.82,0,0,0-1.18-2.09,5.47,5.47,0,0,0-1.89-1.36,6.23,6.23,0,0,0-2.54-.49h-3.63v13.26h3.63a6.25,6.25,0,0,0,2.58-.51,5.32,5.32,0,0,0,1.89-1.4,6,6,0,0,0,1.15-2.11A8.68,8.68,0,0,0,638.37,458Z" style="fill: #231f20"/>
    </g>
    <polygon points="255.18 127.89 117.49 408.19 293.55 408.19 268.66 361.59 196.9 361.17 256.68 235.75 341.77 408.19 402.94 408.19 255.18 127.89" style="fill: #231f20"/>
    <polygon points="295.94 345.45 219.89 345.45 256.57 270.77 295.94 345.45" style="fill: #be1e2d"/>
    <g>
      <path d="M333.92,231.63c1-2.26,2.13-4.49,3.37-6.69A85,85,0,0,1,368.62,193q20-11.87,45-11.88a83.62,83.62,0,0,1,34.45,7.4,89.92,89.92,0,0,1,29,20.63l38.54-36.59a143,143,0,0,0-45.94-32.51,135.47,135.47,0,0,0-56.06-11.88,137.19,137.19,0,0,0-70.46,18.88,140.59,140.59,0,0,0-37.26,31.34Z" style="fill: #be1e2d"/>
      <path d="M481.72,322.46a85.22,85.22,0,0,1-68.13,33.09,90.69,90.69,0,0,1-15-1.27l28.26,53.61A135.27,135.27,0,0,0,473,395.26a137.91,137.91,0,0,0,47.3-36.59Z" style="fill: #be1e2d"/>
    </g>
  </g>
</svg>
