<?xml version="1.0" encoding="UTF-8" standalone="no"?>
<svg
   xmlns:dc="http://purl.org/dc/elements/1.1/"
   xmlns:cc="http://creativecommons.org/ns#"
   xmlns:rdf="http://www.w3.org/1999/02/22-rdf-syntax-ns#"
   xmlns:svg="http://www.w3.org/2000/svg"
   xmlns="http://www.w3.org/2000/svg"
   xmlns:sodipodi="http://sodipodi.sourceforge.net/DTD/sodipodi-0.dtd"
   xmlns:inkscape="http://www.inkscape.org/namespaces/inkscape"
   id="Layer_1"
   data-name="Layer 1"
   viewBox="0 0 357.79 471.99"
   version="1.1"
   inkscape:version="0.91 r13725"
   sodipodi:docname="arkcommunityfund-logo-tomtbit.svg"
   inkscape:export-filename="F:\ark\acf\logo_contest\Thomas-Breher\preview.png"
   inkscape:export-xdpi="30.190001"
   inkscape:export-ydpi="30.190001">
  <metadata
     id="metadata157">
    <rdf:RDF>
      <cc:Work
         rdf:about="">
        <dc:format>image/svg+xml</dc:format>
        <dc:type
           rdf:resource="http://purl.org/dc/dcmitype/StillImage" />
      </cc:Work>
    </rdf:RDF>
  </metadata>
  <sodipodi:namedview
     pagecolor="#ffffff"
     bordercolor="#666666"
     borderopacity="1"
     objecttolerance="10"
     gridtolerance="10"
     guidetolerance="10"
     inkscape:pageopacity="0"
     inkscape:pageshadow="2"
     inkscape:window-width="1920"
     inkscape:window-height="1137"
     id="namedview155"
     showgrid="false"
     inkscape:zoom="0.5000106"
     inkscape:cx="178.895"
     inkscape:cy="235.995"
     inkscape:window-x="-8"
     inkscape:window-y="-8"
     inkscape:window-maximized="1"
     inkscape:current-layer="Layer_1" />
  <defs
     id="defs3">
    <style
       id="style5">.cls-1{fill:none;}.cls-2{fill:#231f20;}.cls-3{fill:#be1e2d;}.cls-4{isolation:isolate;}.cls-5{fill:#7b0512;}.cls-6{fill:#b11b29;}.cls-7{fill:#7b0511;}.cls-8{clip-path:url(#clip-path);}.cls-9{fill:#7d0713;}.cls-10{fill:#800814;}.cls-11{fill:#820916;}.cls-12{fill:#8c0e1a;}.cls-13{clip-path:url(#clip-path-2);}</style>
    <clipPath
       id="clip-path"
       transform="translate(-242.23 -50.35)">
      <path
         class="cls-1"
         d="M458.91,371.07l-1.39,6.49q-1.72-1.77-3.58-3.35t-3.85-3q-2-1.38-4.13-2.56t-4.4-2.17A48.56,48.56,0,0,0,437,364.8a46.41,46.41,0,0,0-9.42-2,47.47,47.47,0,0,0-4.85-.25,54.86,54.86,0,0,0-6.65.4,49.4,49.4,0,0,0-6.32,1.19,46.59,46.59,0,0,0-11.66,4.75,49.88,49.88,0,0,0-5.22,3.44,46.68,46.68,0,0,0-4.64,4,46,46,0,0,0-4.05,4.56,47.73,47.73,0,0,0-3.46,5.12l-.51.89-.49.9-.46.91-.44.91-2.17-6,.46-.95.48-.94.51-.94.53-.93a49.84,49.84,0,0,1,3.62-5.34,48,48,0,0,1,4.24-4.75,48.79,48.79,0,0,1,4.85-4.17,52.16,52.16,0,0,1,5.46-3.59A48.76,48.76,0,0,1,409,357.11a51.71,51.71,0,0,1,6.6-1.24,57.44,57.44,0,0,1,6.94-.41,49.7,49.7,0,0,1,5.06.26,48.58,48.58,0,0,1,9.84,2.05,50.82,50.82,0,0,1,4.78,1.8q2.37,1,4.6,2.26t4.31,2.67q2.09,1.44,4,3.08T458.91,371.07Z"
         id="path8" />
    </clipPath>
    <clipPath
       id="clip-path-2"
       transform="translate(-242.23 -50.35)">
      <path
         class="cls-1"
         d="M482.43,459.69,480,462.41q-2.5,2.76-5.25,5.25T469,472.37q-3,2.22-6.21,4.16t-6.69,3.6q-3.08,1.48-6.25,2.66t-6.42,2.08q-3.25.9-6.59,1.5t-6.76.92l.16-1.58q3.58-.33,7.07-1t6.9-1.57q3.4-.94,6.72-2.18t6.54-2.79q3.63-1.74,7-3.77t6.5-4.35q3.12-2.32,6-4.92T482.43,459.69Z"
         id="path11" />
    </clipPath>
  </defs>
  <title
     id="title13">arkcommunityfund-logo-tomtbit</title>
  <path
     class="cls-2"
     d="M512.5,80.48v38.93h67.24v28.33H512.5v64.92H480V50.35H593.65V80.48H512.5Z"
     transform="translate(-242.23 -50.35)"
     id="path15" />
  <path
     class="cls-2"
     d="M297.93,246.86l4.29-10.65h1.38l4.27,10.65h-1.78L305,244h-4.11l-1.11,2.9Zm5-8.77-1.77,4.63h3.48Z"
     transform="translate(-242.23 -50.35)"
     id="path17" />
  <path
     class="cls-2"
     d="M313.67,246.86V236.21h4.63a3,3,0,0,1,1.33.3,3.41,3.41,0,0,1,1,.79,3.72,3.72,0,0,1,.68,1.11,3.4,3.4,0,0,1,.25,1.27,3.55,3.55,0,0,1-.15,1,3.62,3.62,0,0,1-.42.92,3,3,0,0,1-.66.73,2.72,2.72,0,0,1-.85.46l2.54,4h-1.9l-2.34-3.71h-2.46v3.71Zm1.68-5.19h2.94a1.36,1.36,0,0,0,.65-.16,1.54,1.54,0,0,0,.5-.44,2.22,2.22,0,0,0,.33-.64,2.42,2.42,0,0,0,.12-.77,2.07,2.07,0,0,0-.14-.77,2.21,2.21,0,0,0-.37-.63,1.79,1.79,0,0,0-.54-.43,1.38,1.38,0,0,0-.64-.16h-2.85Z"
     transform="translate(-242.23 -50.35)"
     id="path19" />
  <path
     class="cls-2"
     d="M328.2,246.86V236.22h1.68v5.55l5.07-5.56h1.8l-4.2,4.71,4.44,5.94h-1.82l-3.63-5-1.67,1.74v3.24Z"
     transform="translate(-242.23 -50.35)"
     id="path21" />
  <path
     class="cls-2"
     d="M349.89,241.46a5.58,5.58,0,0,1,.34-1.91,5.43,5.43,0,0,1,1-1.71,5,5,0,0,1,1.6-1.22,4.8,4.8,0,0,1,2.15-.46,4.52,4.52,0,0,1,2.45.65,4.1,4.1,0,0,1,1.54,1.68l-1.32.88a2.77,2.77,0,0,0-.52-.81,2.68,2.68,0,0,0-.68-.52,2.88,2.88,0,0,0-.76-.28,3.68,3.68,0,0,0-.77-.08,3,3,0,0,0-1.43.34,3.21,3.21,0,0,0-1,.89,4,4,0,0,0-.63,1.24,4.72,4.72,0,0,0-.21,1.38,4.45,4.45,0,0,0,.25,1.48,4,4,0,0,0,.7,1.25,3.48,3.48,0,0,0,1.06.86,2.86,2.86,0,0,0,1.35.32,3.43,3.43,0,0,0,.79-.1,2.79,2.79,0,0,0,.78-.31,3.2,3.2,0,0,0,.68-.55,2.83,2.83,0,0,0,.52-.8l1.4.8a3.31,3.31,0,0,1-.71,1.06,4.57,4.57,0,0,1-1,.77,5.25,5.25,0,0,1-2.49.65,4.29,4.29,0,0,1-2-.48,5.36,5.36,0,0,1-1.58-1.25,5.72,5.72,0,0,1-1-1.75A5.66,5.66,0,0,1,349.89,241.46Z"
     transform="translate(-242.23 -50.35)"
     id="path23" />
  <path
     class="cls-2"
     d="M369.47,246.93a4.54,4.54,0,0,1-2-.46,5.14,5.14,0,0,1-1.59-1.22,5.44,5.44,0,0,1-1-1.73,5.71,5.71,0,0,1-.36-2,5.54,5.54,0,0,1,.38-2,5.62,5.62,0,0,1,1.06-1.72,5.06,5.06,0,0,1,1.6-1.19,4.66,4.66,0,0,1,2-.44,4.42,4.42,0,0,1,2,.47,5.19,5.19,0,0,1,1.58,1.24,5.74,5.74,0,0,1,1.38,3.71,5.61,5.61,0,0,1-1.44,3.76,5.13,5.13,0,0,1-1.6,1.19A4.6,4.6,0,0,1,369.47,246.93Zm-3.31-5.4a4.61,4.61,0,0,0,.23,1.46,3.91,3.91,0,0,0,.67,1.25,3.3,3.3,0,0,0,1,.86,3.1,3.1,0,0,0,2.78,0,3.29,3.29,0,0,0,1-.89,4.12,4.12,0,0,0,.65-1.25,4.52,4.52,0,0,0,.22-1.41,4.47,4.47,0,0,0-.24-1.46,4,4,0,0,0-.68-1.23,3.35,3.35,0,0,0-1-.85,3.07,3.07,0,0,0-2.77,0,3.38,3.38,0,0,0-1,.88,3.9,3.9,0,0,0-.65,1.24A4.58,4.58,0,0,0,366.15,241.53Z"
     transform="translate(-242.23 -50.35)"
     id="path25" />
  <path
     class="cls-2"
     d="M389.73,246.86v-7.67L386.57,245h-.93l-3.18-5.81v7.67h-1.68V236.21h1.8l3.52,6.51,3.52-6.51h1.8v10.65Z"
     transform="translate(-242.23 -50.35)"
     id="path27" />
  <path
     class="cls-2"
     d="M407.28,246.86v-7.67L404.12,245h-.93L400,239.19v7.67h-1.68V236.21h1.8l3.52,6.51,3.52-6.51H409v10.65Z"
     transform="translate(-242.23 -50.35)"
     id="path29" />
  <path
     class="cls-2"
     d="M420.3,245.42a2.69,2.69,0,0,0,1.4-.33,2.63,2.63,0,0,0,.89-.86,3.64,3.64,0,0,0,.48-1.22,6.86,6.86,0,0,0,.14-1.4v-5.4h1.69v5.4a8.07,8.07,0,0,1-.25,2.06,4.77,4.77,0,0,1-.81,1.69,3.86,3.86,0,0,1-1.43,1.15,4.84,4.84,0,0,1-2.11.42,4.74,4.74,0,0,1-2.15-.44,3.87,3.87,0,0,1-1.42-1.19,4.86,4.86,0,0,1-.78-1.7,8.19,8.19,0,0,1-.24-2v-5.4h1.68v5.4a6.9,6.9,0,0,0,.14,1.42,3.63,3.63,0,0,0,.48,1.21,2.54,2.54,0,0,0,.9.85A2.75,2.75,0,0,0,420.3,245.42Z"
     transform="translate(-242.23 -50.35)"
     id="path31" />
  <path
     class="cls-2"
     d="M433.31,239.36v7.5h-1.68V236.21h1.32l6.09,7.68v-7.66h1.69v10.63h-1.39Z"
     transform="translate(-242.23 -50.35)"
     id="path33" />
  <path
     class="cls-2"
     d="M447.63,246.86V236.22h1.68v10.63Z"
     transform="translate(-242.23 -50.35)"
     id="path35" />
  <path
     class="cls-2"
     d="M464,237.69h-3.54v9.17H458.8v-9.17h-3.55v-1.48H464Z"
     transform="translate(-242.23 -50.35)"
     id="path37" />
  <path
     class="cls-2"
     d="M470.62,236.21l3,5.34,3-5.34h1.83l-4,6.84v3.81h-1.69V243l-3.95-6.81Z"
     transform="translate(-242.23 -50.35)"
     id="path39" />
  <path
     class="cls-2"
     d="M491.68,246.86V236.21h7.09v1.48h-5.42v3.18h4.53v1.4h-4.53v4.59Z"
     transform="translate(-242.23 -50.35)"
     id="path41" />
  <path
     class="cls-2"
     d="M509.25,245.42a2.69,2.69,0,0,0,1.39-.33,2.63,2.63,0,0,0,.89-.86A3.64,3.64,0,0,0,512,243a6.86,6.86,0,0,0,.14-1.4v-5.4h1.7v5.4a8.07,8.07,0,0,1-.26,2.06,4.75,4.75,0,0,1-.81,1.69,3.86,3.86,0,0,1-1.43,1.15,4.84,4.84,0,0,1-2.11.42,4.74,4.74,0,0,1-2.15-.44,3.87,3.87,0,0,1-1.42-1.19,4.86,4.86,0,0,1-.78-1.7,8.19,8.19,0,0,1-.24-2v-5.4h1.68v5.4a6.94,6.94,0,0,0,.14,1.42,3.61,3.61,0,0,0,.48,1.21,2.54,2.54,0,0,0,.9.85A2.75,2.75,0,0,0,509.25,245.42Z"
     transform="translate(-242.23 -50.35)"
     id="path43" />
  <path
     class="cls-2"
     d="M522.26,239.36v7.5h-1.68V236.21h1.32l6.09,7.68v-7.66h1.69v10.63h-1.39Z"
     transform="translate(-242.23 -50.35)"
     id="path45" />
  <path
     class="cls-2"
     d="M536.58,246.86V236.21h3.78a5.63,5.63,0,0,1,2.26.42,4.65,4.65,0,0,1,1.62,1.14,4.76,4.76,0,0,1,1,1.69,6.35,6.35,0,0,1,.33,2.06,6.23,6.23,0,0,1-.37,2.2,4.8,4.8,0,0,1-1,1.68,4.63,4.63,0,0,1-1.63,1.08,5.75,5.75,0,0,1-2.14.38Zm7.26-5.34a4.9,4.9,0,0,0-.23-1.54,3.37,3.37,0,0,0-.68-1.21,3.17,3.17,0,0,0-1.09-.79,3.61,3.61,0,0,0-1.47-.29h-2.1v7.68h2.1a3.62,3.62,0,0,0,1.49-.29,3.08,3.08,0,0,0,1.09-.81,3.5,3.5,0,0,0,.67-1.22A5,5,0,0,0,543.84,241.52Z"
     transform="translate(-242.23 -50.35)"
     id="path47" />
  <polygon
     class="cls-2"
     points="79.73 0 0 162.31 101.95 162.31 87.54 135.32 45.98 135.08 80.6 62.45 129.87 162.31 165.29 162.31 79.73 0"
     id="polygon49" />
  <polygon
     class="cls-3"
     points="103.33 125.97 59.29 125.97 80.54 82.73 103.33 125.97"
     id="polygon51" />
  <path
     class="cls-3"
     d="M367.55,110.42c.6-1.31,1.23-2.6,2-3.87a49.23,49.23,0,0,1,18.15-18.48,50.12,50.12,0,0,1,26-6.88,48.42,48.42,0,0,1,20,4.28,52.06,52.06,0,0,1,16.79,11.95l22.32-21.19a82.77,82.77,0,0,0-26.6-18.82,78.44,78.44,0,0,0-32.46-6.88,79.44,79.44,0,0,0-40.8,10.93,81.41,81.41,0,0,0-21.58,18.15Z"
     transform="translate(-242.23 -50.35)"
     id="path53" />
  <path
     class="cls-3"
     d="M453.13,163a49.35,49.35,0,0,1-39.45,19.16,52.51,52.51,0,0,1-8.69-.74l16.36,31a78.32,78.32,0,0,0,26.71-7.31A79.86,79.86,0,0,0,475.45,184Z"
     transform="translate(-242.23 -50.35)"
     id="path55" />
  <path
     class="cls-2"
     d="M306.73,522.25,311,511.6h1.38l4.27,10.65h-1.78l-1.14-2.9h-4.11l-1.11,2.9Zm5-8.78-1.77,4.63h3.48Z"
     transform="translate(-242.23 -50.35)"
     id="path57" />
  <path
     class="cls-2"
     d="M322.46,522.25V511.6h4.63a3,3,0,0,1,1.33.3,3.4,3.4,0,0,1,1,.79,3.72,3.72,0,0,1,.68,1.11,3.4,3.4,0,0,1,.25,1.27,3.55,3.55,0,0,1-.15,1,3.61,3.61,0,0,1-.42.92,3,3,0,0,1-.66.73,2.73,2.73,0,0,1-.85.46l2.54,4h-1.9l-2.34-3.71h-2.46v3.71Zm1.68-5.19h2.94a1.36,1.36,0,0,0,.65-.16,1.55,1.55,0,0,0,.5-.44,2.22,2.22,0,0,0,.33-.64,2.42,2.42,0,0,0,.12-.77,2.07,2.07,0,0,0-.14-.76,2.19,2.19,0,0,0-.37-.63,1.8,1.8,0,0,0-.54-.43,1.39,1.39,0,0,0-.64-.16h-2.85Z"
     transform="translate(-242.23 -50.35)"
     id="path59" />
  <path
     class="cls-2"
     d="M337,522.25V511.62h1.68v5.55l5.07-5.57h1.8l-4.2,4.71,4.44,5.94H344l-3.63-5L338.68,519v3.24Z"
     transform="translate(-242.23 -50.35)"
     id="path61" />
  <path
     class="cls-2"
     d="M358.69,516.85a5.58,5.58,0,0,1,.34-1.91,5.43,5.43,0,0,1,1-1.71,5,5,0,0,1,1.6-1.22,4.8,4.8,0,0,1,2.15-.46,4.52,4.52,0,0,1,2.45.64,4.11,4.11,0,0,1,1.54,1.68l-1.32.88a2.77,2.77,0,0,0-.52-.81,2.68,2.68,0,0,0-.68-.52,2.88,2.88,0,0,0-.76-.28,3.65,3.65,0,0,0-.77-.08,3,3,0,0,0-1.43.34,3.2,3.2,0,0,0-1,.89,4,4,0,0,0-.63,1.24,4.72,4.72,0,0,0-.21,1.38,4.45,4.45,0,0,0,.25,1.48,4,4,0,0,0,.7,1.25,3.47,3.47,0,0,0,1.06.86,2.85,2.85,0,0,0,1.35.32,3.46,3.46,0,0,0,.79-.1,2.79,2.79,0,0,0,.78-.32,3.19,3.19,0,0,0,.68-.55,2.83,2.83,0,0,0,.52-.8l1.4.8a3.31,3.31,0,0,1-.71,1.06,4.56,4.56,0,0,1-1,.77,5.24,5.24,0,0,1-2.49.65,4.29,4.29,0,0,1-2-.48,5.36,5.36,0,0,1-1.58-1.25,5.83,5.83,0,0,1-1.4-3.76Z"
     transform="translate(-242.23 -50.35)"
     id="path63" />
  <path
     class="cls-2"
     d="M378.26,522.33a4.53,4.53,0,0,1-2-.46,5.13,5.13,0,0,1-1.59-1.21,5.44,5.44,0,0,1-1-1.73,5.72,5.72,0,0,1-.36-2,5.54,5.54,0,0,1,.38-2,5.61,5.61,0,0,1,1.06-1.72,5.07,5.07,0,0,1,1.6-1.19,4.67,4.67,0,0,1,2-.44,4.43,4.43,0,0,1,2,.47,5.2,5.2,0,0,1,1.58,1.24,5.74,5.74,0,0,1,1.38,3.71,5.61,5.61,0,0,1-1.44,3.76,5.12,5.12,0,0,1-1.6,1.18A4.59,4.59,0,0,1,378.26,522.33Zm-3.31-5.4a4.61,4.61,0,0,0,.23,1.46,3.92,3.92,0,0,0,.67,1.25,3.31,3.31,0,0,0,1,.86,2.93,2.93,0,0,0,1.38.32,2.9,2.9,0,0,0,1.4-.34,3.29,3.29,0,0,0,1-.89,4.12,4.12,0,0,0,.65-1.25,4.53,4.53,0,0,0,.22-1.41,4.48,4.48,0,0,0-.24-1.46,4,4,0,0,0-.68-1.23,3.35,3.35,0,0,0-1-.86,3.07,3.07,0,0,0-2.77,0,3.38,3.38,0,0,0-1,.88,3.9,3.9,0,0,0-.65,1.24A4.58,4.58,0,0,0,374.95,516.93Z"
     transform="translate(-242.23 -50.35)"
     id="path65" />
  <path
     class="cls-2"
     d="M398.53,522.25v-7.67l-3.16,5.8h-.93l-3.18-5.8v7.67h-1.68V511.6h1.8l3.52,6.51,3.52-6.51h1.8v10.65Z"
     transform="translate(-242.23 -50.35)"
     id="path67" />
  <path
     class="cls-2"
     d="M416.08,522.25v-7.67l-3.16,5.8H412l-3.18-5.8v7.67h-1.68V511.6h1.8l3.52,6.51L416,511.6h1.8v10.65Z"
     transform="translate(-242.23 -50.35)"
     id="path69" />
  <path
     class="cls-2"
     d="M429.1,520.81a2.69,2.69,0,0,0,1.4-.33,2.63,2.63,0,0,0,.89-.86,3.63,3.63,0,0,0,.48-1.21A6.87,6.87,0,0,0,432,517v-5.4h1.69V517a8.07,8.07,0,0,1-.25,2.06,4.77,4.77,0,0,1-.81,1.69,3.86,3.86,0,0,1-1.43,1.15,4.84,4.84,0,0,1-2.11.42,4.73,4.73,0,0,1-2.15-.44,3.86,3.86,0,0,1-1.42-1.18,4.87,4.87,0,0,1-.78-1.7,8.2,8.2,0,0,1-.24-2v-5.4h1.68V517a6.9,6.9,0,0,0,.14,1.42,3.63,3.63,0,0,0,.48,1.21,2.54,2.54,0,0,0,.9.86A2.75,2.75,0,0,0,429.1,520.81Z"
     transform="translate(-242.23 -50.35)"
     id="path71" />
  <path
     class="cls-2"
     d="M442.1,514.75v7.5h-1.68V511.6h1.32l6.09,7.68v-7.66h1.7v10.63h-1.4Z"
     transform="translate(-242.23 -50.35)"
     id="path73" />
  <path
     class="cls-2"
     d="M456.42,522.25V511.62h1.68v10.63Z"
     transform="translate(-242.23 -50.35)"
     id="path75" />
  <path
     class="cls-2"
     d="M472.82,513.09h-3.54v9.17H467.6v-9.17H464V511.6h8.77Z"
     transform="translate(-242.23 -50.35)"
     id="path77" />
  <path
     class="cls-2"
     d="M479.42,511.6l3,5.34,3-5.34h1.83l-4,6.84v3.81h-1.69v-3.84l-3.95-6.81Z"
     transform="translate(-242.23 -50.35)"
     id="path79" />
  <path
     class="cls-2"
     d="M500.48,522.25V511.6h7.09v1.49h-5.42v3.18h4.53v1.4h-4.53v4.59Z"
     transform="translate(-242.23 -50.35)"
     id="path81" />
  <path
     class="cls-2"
     d="M518,520.81a2.68,2.68,0,0,0,1.39-.33,2.62,2.62,0,0,0,.89-.86,3.63,3.63,0,0,0,.48-1.21A6.87,6.87,0,0,0,521,517v-5.4h1.7V517a8.07,8.07,0,0,1-.26,2.06,4.75,4.75,0,0,1-.81,1.69,3.86,3.86,0,0,1-1.43,1.15,4.84,4.84,0,0,1-2.11.42,4.73,4.73,0,0,1-2.15-.44,3.87,3.87,0,0,1-1.42-1.18,4.87,4.87,0,0,1-.78-1.7,8.2,8.2,0,0,1-.24-2v-5.4h1.68V517a6.93,6.93,0,0,0,.14,1.42,3.61,3.61,0,0,0,.48,1.21,2.54,2.54,0,0,0,.9.86A2.75,2.75,0,0,0,518,520.81Z"
     transform="translate(-242.23 -50.35)"
     id="path83" />
  <path
     class="cls-2"
     d="M531,514.75v7.5h-1.68V511.6h1.32l6.09,7.68v-7.66h1.69v10.63h-1.39Z"
     transform="translate(-242.23 -50.35)"
     id="path85" />
  <path
     class="cls-2"
     d="M545.38,522.25V511.6h3.78a5.64,5.64,0,0,1,2.26.42,4.64,4.64,0,0,1,1.62,1.14,4.76,4.76,0,0,1,1,1.69,6.35,6.35,0,0,1,.33,2.06,6.23,6.23,0,0,1-.37,2.2,4.79,4.79,0,0,1-1,1.68,4.63,4.63,0,0,1-1.63,1.08,5.75,5.75,0,0,1-2.14.38Zm7.26-5.34a4.9,4.9,0,0,0-.23-1.54,3.37,3.37,0,0,0-.68-1.21,3.16,3.16,0,0,0-1.09-.79,3.6,3.6,0,0,0-1.47-.29h-2.1v7.68h2.1a3.63,3.63,0,0,0,1.49-.29,3.08,3.08,0,0,0,1.09-.81,3.49,3.49,0,0,0,.67-1.22A5,5,0,0,0,552.63,516.91Z"
     transform="translate(-242.23 -50.35)"
     id="path87" />
  <g
     class="cls-4"
     id="g89">
    <polygon
       points="357.79 304.42 350.33 311.58 312.04 311.58 317.78 304.42 357.79 304.42"
       id="polygon91" />
    <polygon
       points="317.78 304.42 312.04 311.58 273.74 311.58 277.76 304.42 317.78 304.42"
       id="polygon93" />
    <polygon
       points="346.96 369.98 339.85 374.39 307.57 374.39 313.2 369.98 346.96 369.98"
       id="polygon95" />
    <polygon
       points="313.2 369.98 307.57 374.39 275.29 374.39 279.44 369.98 313.2 369.98"
       id="polygon97" />
    <polygon
       points="281.13 435.56 276.83 437.13 260.99 437.13 264.55 435.56 281.13 435.56"
       id="polygon99" />
    <polygon
       points="264.55 435.56 260.99 437.13 245.14 437.13 247.97 435.56 264.55 435.56"
       id="polygon101" />
    <polygon
       points="356.42 275.81 357.15 291.17 357.79 304.42 317.78 304.42 277.76 304.42 278.27 324.29 278.73 342.08 312.23 342.08 345.73 342.08 346.34 355.98 346.96 369.98 313.2 369.98 279.44 369.98 280.28 402.48 281.13 435.56 264.55 435.56 247.97 435.56 246.59 353.95 245.27 275.81 300.85 275.81 356.42 275.81"
       id="polygon103" />
  </g>
  <g
     class="cls-4"
     id="g105">
    <polygon
       class="cls-5"
       points="238.49 300.36 236.17 307.69 215.29 327.2 216.69 320.71 238.49 300.36"
       id="polygon107" />
    <path
       class="cls-6"
       d="M422.57,326.33q4.19,0,8.27.4A79.6,79.6,0,0,1,438.9,328a78.11,78.11,0,0,1,7.85,2,79.31,79.31,0,0,1,7.64,2.85q3.77,1.63,7.3,3.55t6.82,4.16q3.29,2.24,6.35,4.78t5.87,5.4l-21.81,20.35q-1.8-1.85-3.75-3.49t-4-3.08q-2.08-1.44-4.31-2.67t-4.6-2.26a50.82,50.82,0,0,0-4.78-1.8,48.58,48.58,0,0,0-9.84-2.05,49.7,49.7,0,0,0-5.06-.26,57.44,57.44,0,0,0-6.94.41,51.71,51.71,0,0,0-6.6,1.24,48.76,48.76,0,0,0-12.19,4.95,52.16,52.16,0,0,0-5.46,3.59,48.79,48.79,0,0,0-4.85,4.17,48,48,0,0,0-4.24,4.75,49.84,49.84,0,0,0-3.62,5.34l-.53.93-.51.94-.48.94-.46.95L361,353.95q2.28-2.59,4.76-5t5.17-4.53q2.68-2.16,5.57-4.11t6-3.69a81.91,81.91,0,0,1,9.43-4.52,79.06,79.06,0,0,1,9.81-3.23A80.48,80.48,0,0,1,412,327,86.23,86.23,0,0,1,422.57,326.33Z"
       transform="translate(-242.23 -50.35)"
       id="path109" />
    <polygon
       class="cls-7"
       points="134.42 333.32 136.59 339.28 121.64 310.79 118.81 303.6 134.42 333.32"
       id="polygon111" />
    <g
       class="cls-4"
       id="g113">
      <g
         class="cls-8"
         id="g115"
         clip-path="url(#clip-path)">
        <g
           class="cls-4"
           id="g117">
          <path
             class="cls-9"
             d="M458.91,371.07l-1.39,6.49q-1.72-1.77-3.58-3.35t-3.85-3q-2-1.38-4.13-2.56t-4.4-2.17A48.56,48.56,0,0,0,437,364.8a46.41,46.41,0,0,0-9.42-2,47.47,47.47,0,0,0-4.85-.25,54.86,54.86,0,0,0-6.65.4,49.4,49.4,0,0,0-6.32,1.19,46.59,46.59,0,0,0-11.66,4.75q-2,1.13-3.78,2.39T390.84,374q-1.67,1.41-3.18,3t-2.89,3.24l-1.9-6.37q1.43-1.76,3-3.38t3.33-3.08q1.74-1.47,3.64-2.79t3.95-2.5A48.76,48.76,0,0,1,409,357.11a51.71,51.71,0,0,1,6.6-1.24,57.44,57.44,0,0,1,6.94-.41,49.7,49.7,0,0,1,5.06.26,48.58,48.58,0,0,1,9.84,2.05,50.82,50.82,0,0,1,4.78,1.8q2.37,1,4.6,2.26t4.31,2.67q2.09,1.44,4,3.08t3.75,3.49"
             transform="translate(-242.23 -50.35)"
             id="path119" />
          <path
             class="cls-10"
             d="M382.87,373.81l1.9,6.37q-.55.68-1.08,1.39t-1,1.44q-.51.73-1,1.49t-.94,1.53l-.49.85-.46.86-.44.86-.43.87-2.17-6,.45-.9.46-.9.49-.89.51-.88q.48-.81,1-1.6t1-1.55q.53-.76,1.08-1.5t1.13-1.45"
             transform="translate(-242.23 -50.35)"
             id="path121" />
          <path
             class="cls-11"
             d="M376.73,383.49l2.17,6,0,0,0,0,0,0,0,0-2.17-6,0,0,0,0,0,0,0,0"
             transform="translate(-242.23 -50.35)"
             id="path123" />
        </g>
      </g>
    </g>
    <polygon
       class="cls-12"
       points="89.33 355.5 93.48 360.52 114.51 401.76 111.28 398.57 89.33 355.5"
       id="polygon125" />
    <polygon
       class="cls-6"
       points="89.33 355.5 111.28 398.57 66.71 398.57 89.33 355.5"
       id="polygon127" />
    <polygon
       class="cls-7"
       points="111.28 398.57 114.51 401.76 71.91 401.76 66.71 398.57 111.28 398.57"
       id="polygon129" />
    <polygon
       points="89.91 335.64 94.01 341.5 58.74 410.56 52.92 407.78 89.91 335.64"
       id="polygon131" />
    <g
       class="cls-4"
       id="g133">
      <g
         class="cls-13"
         id="g135"
         clip-path="url(#clip-path-2)">
        <g
           class="cls-4"
           id="g137">
          <path
             class="cls-9"
             d="M482.43,459.69,480,462.41q-2.5,2.76-5.25,5.25T469,472.37q-3,2.22-6.21,4.16t-6.69,3.6q-3.08,1.48-6.25,2.66t-6.42,2.08q-3.25.9-6.59,1.5t-6.76.92l.16-1.58q3.58-.33,7.07-1t6.9-1.57q3.4-.94,6.72-2.18t6.54-2.79q3.63-1.74,7-3.77t6.5-4.35q3.12-2.32,6-4.92t5.49-5.49"
             transform="translate(-242.23 -50.35)"
             id="path139" />
        </g>
      </g>
    </g>
    <polygon
       class="cls-7"
       points="188 435.37 187.84 436.95 171.97 406.7 171.39 403.73 188 435.37"
       id="polygon141" />
    <path
       class="cls-6"
       d="M462.21,435.56,485,456.65a80.59,80.59,0,0,1-5.94,6.49,78.82,78.82,0,0,1-6.58,5.76,79.94,79.94,0,0,1-7.22,5,84,84,0,0,1-7.87,4.3q-3.22,1.54-6.54,2.79t-6.72,2.18q-3.4.94-6.9,1.57t-7.07,1l-16.61-31.64q1.07.18,2.16.32t2.19.23q1.1.09,2.22.14t2.24,0a54.45,54.45,0,0,0,5.95-.32,50.66,50.66,0,0,0,5.73-1,49,49,0,0,0,10.8-3.83,51,51,0,0,0,5-2.81,48.5,48.5,0,0,0,8.66-7.08A50.15,50.15,0,0,0,462.21,435.56Z"
       transform="translate(-242.23 -50.35)"
       id="path143" />
    <polygon
       points="95.06 408.01 99.02 410.79 112.49 437.13 109.13 435.56 95.06 408.01"
       id="polygon145" />
    <polygon
       points="173.86 435.56 174.33 437.13 139.75 437.13 137.66 435.56 173.86 435.56"
       id="polygon147" />
    <polygon
       points="90.6 275.81 173.86 435.56 137.66 435.56 89.91 335.64 52.92 407.78 95.06 408.01 109.13 435.56 4.95 435.56 90.6 275.81"
       id="polygon149" />
    <polygon
       points="109.13 435.56 112.49 437.13 12.95 437.13 4.95 435.56 109.13 435.56"
       id="polygon151" />
  </g>
  <polygon
     class="cls-2"
     points="245.14 437.13 242.03 279.09 245.27 275.81 247.97 435.56 245.14 437.13"
     id="polygon153" />
</svg>
