<?xml version="1.0" encoding="UTF-8" standalone="no"?>
<!-- Generator: Adobe Illustrator 16.0.0, SVG Export Plug-In . SVG Version: 6.00 Build 0)  -->

<svg
   xmlns:dc="http://purl.org/dc/elements/1.1/"
   xmlns:cc="http://creativecommons.org/ns#"
   xmlns:rdf="http://www.w3.org/1999/02/22-rdf-syntax-ns#"
   xmlns:svg="http://www.w3.org/2000/svg"
   xmlns="http://www.w3.org/2000/svg"
   xmlns:sodipodi="http://sodipodi.sourceforge.net/DTD/sodipodi-0.dtd"
   xmlns:inkscape="http://www.inkscape.org/namespaces/inkscape"
   version="1.1"
   id="Layer_1"
   x="0px"
   y="0px"
   width="4196px"
   height="2484px"
   viewBox="0 0 4196 2484"
   enable-background="new 0 0 4196 2484"
   xml:space="preserve"
   inkscape:version="0.91 r13725"
   sodipodi:docname="Acfastrologo.svg"><metadata
     id="metadata99"><rdf:RDF><cc:Work
         rdf:about=""><dc:format>image/svg+xml</dc:format><dc:type
           rdf:resource="http://purl.org/dc/dcmitype/StillImage" /></cc:Work></rdf:RDF></metadata><defs
     id="defs97" /><sodipodi:namedview
     pagecolor="#ffffff"
     bordercolor="#666666"
     borderopacity="1"
     objecttolerance="10"
     gridtolerance="10"
     guidetolerance="10"
     inkscape:pageopacity="0"
     inkscape:pageshadow="2"
     inkscape:window-width="1813"
     inkscape:window-height="991"
     id="namedview95"
     showgrid="false"
     inkscape:zoom="0.094613918"
     inkscape:cx="2098"
     inkscape:cy="1242"
     inkscape:window-x="0"
     inkscape:window-y="0"
     inkscape:window-maximized="0"
     inkscape:current-layer="Layer_1" /><g
     id="g4227"
     inkscape:export-xdpi="4.7399998"
     inkscape:export-ydpi="4.7399998"><g
       id="g3"><path
         id="path5"
         d="M3777.033,713.872c-3.061-10.486-17.91-10.486-17.91-10.486c-5.24-18.347-25.322-17.036-25.322-17.036   c-6.533-20.096-20.988-16.163-20.988-16.163c-5.678-17.912-20.313-13.107-20.313-13.107c-14.199,0.872-25.115,16.6-25.557,32.327   c-0.438,15.729,7.43,63.344,78.201,73.831c70.766,10.482,53.729-36.261,53.729-36.261   C3790.572,712.125,3777.033,713.872,3777.033,713.872z M3692.535,683.844c-6.281,6.778-11.008,6.365-10.479,1.543   c0.363-3.347,10.049-16.814,20.662-14.238C3712.055,673.412,3696.236,679.739,3692.535,683.844z M3707.186,697.59   c-5.816,7.152-10.555,7.031-10.352,2.185c0.145-3.367,8.908-17.395,19.674-15.476   C3725.973,685.983,3710.609,693.266,3707.186,697.59z M3724.732,710.514c-5.229,7.555-9.965,7.783-10.145,2.938   c-0.125-3.368,7.49-17.995,18.377-16.874C3742.541,697.56,3727.803,705.954,3724.732,710.514z M3741.906,724.494   c-3.746,8.325-8.363,9.357-9.443,4.623c-0.75-3.295,4.037-18.993,14.957-19.747   C3757.025,708.703,3744.074,719.479,3741.906,724.494z M3763.691,731.905c-3.033,8.591-7.549,9.979-9.021,5.346   c-1.027-3.223,2.416-19.242,13.234-20.846C3777.42,714.992,3765.428,726.736,3763.691,731.905z"
         fill="#2B3990" /><path
         id="path7"
         d="M2436.822,763.237c70.771-10.487,78.639-58.103,78.2-73.831c-0.44-15.728-11.357-31.455-25.557-32.327   c0,0-14.635-4.805-20.314,13.107c0,0-14.452-3.933-20.989,16.163c0,0-20.079-1.311-25.317,17.036c0,0-14.851,0-17.911,10.486   c0,0-13.544-1.747-21.845,13.104C2383.089,726.976,2366.052,773.719,2436.822,763.237z M2479.245,671.149   c10.616-2.576,20.298,10.892,20.662,14.238c0.528,4.822-4.195,5.235-10.476-1.543   C2485.728,679.739,2469.912,673.412,2479.245,671.149z M2465.458,684.299c10.767-1.919,19.529,12.108,19.675,15.476   c0.203,4.847-4.538,4.968-10.354-2.185C2471.356,693.266,2455.993,685.983,2465.458,684.299z M2449.002,696.578   c10.886-1.121,18.503,13.506,18.376,16.874c-0.183,4.846-4.919,4.617-10.146-2.938   C2454.161,705.954,2439.423,697.56,2449.002,696.578z M2434.541,709.37c10.926,0.754,15.71,16.452,14.96,19.747   c-1.077,4.734-5.698,3.702-9.441-4.623C2437.887,719.479,2424.941,708.703,2434.541,709.37z M2414.062,716.405   c10.819,1.604,14.26,17.623,13.232,20.846c-1.471,4.634-5.988,3.245-9.02-5.346   C2416.538,726.736,2404.543,714.992,2414.062,716.405z"
         fill="#2B3990" /><polygon
         id="polygon9"
         points="2939.678,948.185 2939.678,948.191 2939.684,948.191  "
         fill="#FFFFFF" /><polygon
         id="polygon11"
         points="3248.283,948.191 3248.283,948.185 3248.279,948.191  "
         fill="#FFFFFF" /><path
         id="path13"
         d="M3766.576,961.122c-1.361-3.472-3.07-7.615-5.135-12.276c-3.557-8.029-8.176-17.59-13.939-27.9   c-0.85-1.521-1.719-3.057-2.623-4.609c-1.055-1.822-2.148-3.666-3.277-5.522c-7.035-11.576-15.443-23.736-25.313-35.482   c-18.746-22.305-42.781-43.126-72.824-55.662l-0.213-0.093c-3.936-6.734-7.717-12.467-11.273-17.132l-0.084-0.134l-0.025-0.012   c-2.684-3.51-5.242-6.425-7.609-8.603c-6.879-4.614-14.326-8.435-22.281-11.493c-3.662-1.408-7.424-2.667-11.305-3.744   c-2.145-0.594-4.328-1.125-6.537-1.619c-10.695-2.39-22.146-3.609-34.322-3.609c-1.951,0-3.861,0.034-5.738,0.094   c-2.584,0.08-5.096,0.212-7.52,0.384c-4.881,0.346-9.4,0.853-13.451,1.423c-1.859,0.263-3.625,0.538-5.277,0.816   c-7.309,1.238-12.48,2.556-14.613,3.137l-0.188-0.104l-0.105,0.188c-0.482,0.132-0.785,0.225-0.811,0.229l-1.039,0.315   l-6.066,11.368c-6.236-7.478-12.855-11.434-19.686-11.775c-5.229-0.257-9.426,1.67-12.201,3.506   c-0.482,0.322-0.932,0.638-1.324,0.941c-0.914-1.145-1.824-2.215-2.738-3.246c-2.086-2.363-4.166-4.454-6.219-6.259   c-1.258-1.11-2.564-2.2-3.885-3.285c-10.955-9.008-23.826-17.158-37.277-24.4c-1.152-0.694-2.41-1.405-3.727-2.125   c-0.037-0.862-0.076-1.779-0.117-2.785c-0.588-14.199-1.74-41.698-13.936-57.568c-5.258-6.841-12.555-11.535-22.762-12.053   c-26.436-1.354-37.639,28.334-41.174,40.833c-1.123-0.377-1.748-0.586-1.748-0.586c-5.105-1.609-9.439-2.903-12.803-3.872   c15.354-16.254,22.947-33.701,25.418-49.624c11.576-16.851,21.084-33.577,28.891-49.757l51.744-31.723l0.836-0.818   c18.26-28.477,25.604-74.567,21.814-137.001c-1.791-29.594-41.539-52.661-44.041-54.086l-28.486-19.623   c-4.787-26.433-10.244-42.981-12.947-50.227h18.045h7.58c0,0-35.395-48.98-38.441-53.296c0,0,0.027,0.046,0.064,0.126   c-46.773-67.389-103.969-99.691-147.277-115.138c-41.178-14.686-76.459-16.878-93.815-16.878c-5.376,0-8.719,0.211-9.669,0.284   c-0.94-0.073-4.28-0.284-9.658-0.284c-17.364,0-52.641,2.192-93.822,16.878c-43.308,15.446-100.497,47.749-147.276,115.138   c0.037-0.08,0.063-0.126,0.063-0.126c-3.047,4.315-38.444,53.296-38.444,53.296h7.583h18.048c-2.7,7.245-8.16,23.794-12.947,50.227   l-28.482,19.623c-2.506,1.425-42.254,24.492-44.049,54.086c-3.787,62.434,3.559,108.524,21.818,137.001l0.834,0.818l51.748,31.723   c7.802,16.18,17.314,32.906,28.893,49.757c2.471,15.923,10.059,33.37,25.414,49.624c-3.363,0.969-7.699,2.263-12.805,3.872   c0,0-0.626,0.209-1.745,0.586c-3.536-12.499-14.738-42.187-41.177-40.833c-14.258,0.721-22.852,9.572-28.103,21.083   c-7.229,15.854-8.105,36.764-8.591,48.538c-0.043,1.006-0.082,1.923-0.122,2.785c-1.313,0.72-2.574,1.431-3.728,2.125   c-15.07,8.115-29.431,17.361-41.161,27.686c-2.944,2.592-5.956,5.738-8.953,9.505c-0.821-0.63-1.846-1.324-3.044-1.974   c-2.678-1.453-6.242-2.683-10.482-2.474c-4.628,0.232-9.161,2.129-13.544,5.653c-2.083,1.674-4.134,3.711-6.144,6.122l-3.818-7.152   l-2.249-4.216l-1.037-0.315c-0.024-0.005-0.325-0.098-0.808-0.229l-0.106-0.188l-0.19,0.104   c-4.237-1.155-20.469-5.209-41.636-5.783c-1.626-0.044-3.279-0.07-4.961-0.07c-0.855,0-1.7,0.026-2.548,0.037   c-14.877,0.21-28.662,2.236-41.258,6.062c-2.346,0.712-4.65,1.483-6.912,2.321c-5.732,2.119-11.2,4.632-16.386,7.547   c-2.511,1.408-4.961,2.904-7.337,4.499c-3.625,3.327-7.665,8.299-11.971,14.663c-1.17,1.727-2.357,3.554-3.56,5.481   c-1.143,1.827-2.297,3.734-3.466,5.735l-0.214,0.093c-3.488,1.453-6.886,3.029-10.216,4.698c-3.852,1.93-7.601,3.99-11.241,6.178   c-16.378,9.834-30.622,22.071-42.894,35.214c-13.288,14.229-24.256,29.51-33.108,43.948c-1.203,1.968-2.373,3.918-3.501,5.85   c-7.728,13.229-13.634,25.489-17.874,35.236c-2.149,4.939-3.868,9.225-5.185,12.67c-0.816,2.146-1.481,3.971-1.991,5.41h3.005   h2.558c0.437-1.192,0.962-2.603,1.571-4.186c1.35-3.494,3.131-7.887,5.37-12.962c0.254-0.568,0.51-1.147,0.771-1.735   c4.476-9.985,10.622-22.354,18.582-35.543c1.263-2.09,2.569-4.2,3.924-6.324c1.415-2.224,2.872-4.458,4.391-6.705   c0.082-0.048,1.922-1.065,4.9-2.641c10.664-5.646,36.145-18.567,49.955-20.805c1.396-0.225,2.688-0.354,3.815-0.342l0.013-0.012   c-0.715,1.852-1.415,3.712-2.106,5.576c-6.751,18.167-12.33,36.681-15.791,53.522c-1.719,8.366-2.912,16.313-3.464,23.6   c-0.225,2.961-0.356,5.829-0.362,8.556h5.235c0-3.274,0.178-6.738,0.502-10.35c0.697-7.777,2.112-16.264,4.09-25.153   c4.031-18.101,10.389-37.865,17.776-56.697c1.455-3.707,2.949-7.378,4.473-10.995c0.499-1.186,1.003-2.37,1.511-3.544l0.005-0.005   h-0.003c9.561-22.173,20.127-41.92,29.301-54.494c2.984-4.091,5.824-7.427,8.431-9.836c5.278-3.532,10.936-6.571,16.929-9.145   c2.377-1.021,4.801-1.975,7.285-2.842c13.008-4.549,27.5-7.008,43.31-7.327c1.183-0.023,2.36-0.051,3.557-0.051   c1.731,0,3.421,0.031,5.09,0.079c1.03,0.03,2.049,0.067,3.052,0.112c0.643,0.03,1.289,0.058,1.92,0.093   c0.319,0.018,0.634,0.039,0.945,0.058c1.135,0.067,2.249,0.146,3.345,0.233c1.007,0.08,1.999,0.165,2.971,0.259   c0.068,0.005,0.135,0.012,0.203,0.021c5.083,0.486,9.671,1.132,13.618,1.804c0.011,0.001,0.021,0.003,0.029,0.005   c4.57,0.776,8.293,1.585,10.898,2.213c-8.279,10.478-29.143,49.193-50.663,185.563h58.481h7.559   c-2.859-123.615,21.821-171.951,43.117-190.688c6.051-5.329,12.85-10.369,20.103-15.115c0.021-0.012,0.04-0.023,0.058-0.035   c6.078-3.978,12.473-7.746,19.025-11.3c2.842-1.54,5.711-3.045,8.594-4.503l0.386,0.013c0.003-0.067,0.006-0.147,0.006-0.211   c3.974-2.004,7.971-3.915,11.96-5.761c4.739-2.191,9.46-4.269,14.114-6.231c16.396-6.91,31.912-12.391,43.937-16.301l2.565-0.509   c-0.013-0.059-0.034-0.16-0.061-0.297c3.089-0.989,5.948-1.879,8.462-2.637c-3.892,3.139-8.348,7.003-12.982,11.509   c-3.049,2.968-6.17,6.215-9.264,9.731c-1.745,1.984-3.478,4.042-5.183,6.191c-13.782,17.387-25.592,40.125-24.964,66.616   c0.003,0.155,0.016,0.311,0.021,0.465c-6.675,29.908,7.73,112.673,126.765,159.062h114.118   c-135.499-10.531-185.006-72.258-185.006-72.258l25.476-24.064c0.75,0.606,1.471,1.211,2.241,1.812   c3.979,3.34,64.438,52.181,193.821,52.554v0.001c0.016,0,0.04-0.001,0.053-0.001c0.023,0,0.042,0.001,0.063,0.001v-0.001   c129.378-0.373,189.835-49.214,193.817-52.554c0.771-0.601,1.494-1.205,2.238-1.812l25.477,24.064   c0,0-49.502,61.727-185.005,72.258h114.114c119.043-46.389,133.439-129.153,126.768-159.062c0.006-0.154,0.021-0.31,0.021-0.465   c0.58-24.509-9.482-45.797-21.908-62.615c-2.52-3.409-5.131-6.635-7.773-9.667c-5.875-6.735-11.885-12.508-17.277-17.209   c-1.896-1.649-3.721-3.176-5.432-4.557c2.512,0.758,5.367,1.647,8.459,2.637c-0.023,0.137-0.041,0.238-0.057,0.297l2.563,0.509   c11.6,3.771,26.441,8.999,42.191,15.565c0.008,0.003,0.018,0.008,0.025,0.012c5.598,2.334,11.307,4.839,17.029,7.508   c3.592,1.674,7.188,3.403,10.762,5.208c0.004,0.063,0.004,0.144,0.008,0.211l0.389-0.013c11.4,5.768,22.559,12.178,32.646,19.192   c5.393,3.749,10.486,7.669,15.137,11.761c5.098,4.484,10.391,10.678,15.453,19.185c16.078,27.024,29.834,77.488,27.664,171.503   h66.033c-21.518-136.369-42.381-175.085-50.662-185.563c5.459-1.314,15.746-3.423,28.688-4.376c2.77-0.205,5.664-0.352,8.652-0.431   c1.553-0.042,3.127-0.069,4.732-0.069c12.398,0,24.004,1.293,34.754,3.841c0.793,0.189,1.572,0.395,2.354,0.595   c1.883,0.488,3.844,1.006,6.775,1.942c6.236,1.995,12.139,4.461,17.707,7.38c2.893,1.514,5.693,3.148,8.4,4.908   c0.361,0.235,0.734,0.459,1.09,0.698c3.805,3.512,8.102,8.999,12.627,15.934c8.113,12.432,16.973,29.533,25.107,48.396h-0.006   l0.006,0.005c2.084,4.831,4.117,9.777,6.08,14.788c1.191,3.05,2.363,6.123,3.496,9.211c6.512,17.706,11.947,35.845,15.268,52.336   c1.627,8.085,2.742,15.767,3.23,22.813c0.18,2.619,0.279,5.157,0.279,7.591h5.232c-0.002-1.983-0.086-4.057-0.209-6.168   c-0.377-6.621-1.318-13.835-2.732-21.449c-2.896-15.596-7.754-32.838-13.783-50.045c-0.982-2.8-1.992-5.599-3.031-8.391   c-0.65-1.737-1.299-3.474-1.967-5.201l0.008,0.012c15.432-0.154,58.262,23.555,58.676,23.787c1.959,2.901,3.83,5.786,5.619,8.643   c1.211,1.938,2.387,3.862,3.523,5.769c7.631,12.794,13.551,24.754,17.877,34.44c2.139,4.784,3.893,9.013,5.273,12.511   c0.941,2.388,1.713,4.439,2.314,6.093h4.607h0.955c-0.451-1.279-1.021-2.857-1.719-4.694   C3767.396,963.229,3767,962.207,3766.576,961.122z M2525.47,863.209c-9.863,1.989-29.987,7.014-46.48,17.287   c-1.864,1.16-3.686,2.385-5.437,3.686c6.453-8.128,13.601-16.125,21.465-23.661c13.663-13.094,29.497-24.791,47.696-33.318   C2536.794,838.074,2530.922,850.345,2525.47,863.209z M2805.364,682.444c3.783-2.994,8.386-4.896,14.022-5.181   c16.524-0.848,26.415,13.708,31.78,25.912C2851.144,703.204,2825.76,732.594,2805.364,682.444z M2940.825,946.761l0.006,0.006   h-0.006V946.761z M2897.5,921.547l-0.061-0.027c0,0-0.054-0.045-0.074-0.063C2897.41,921.486,2897.452,921.516,2897.5,921.547z    M3249.43,946.767h-0.004l0.004-0.006V946.767z M3292.818,921.52l-0.061,0.027c0.047-0.031,0.086-0.062,0.131-0.091   C3292.871,921.475,3292.818,921.52,3292.818,921.52z M3315.348,645.044c-4.418-6.876-25.689-19.526-11.857-20.997   c15.719-1.663,26.703,20.366,26.512,25.433C3329.729,656.771,3322.887,656.421,3315.348,645.044z M3273.268,701.26   c-2.131,6.976-8.65,4.885-13.033-8.046c-2.504-7.778-19.822-25.456-6.082-23.33C3269.773,672.3,3274.746,696.408,3273.268,701.26z    M3273.477,656.168c15.77,1.173,22.629,24.807,21.535,29.764c-1.564,7.12-8.234,5.554-13.621-6.989   C3278.275,671.387,3259.611,655.137,3273.477,656.168z M3248.668,714.995c-3.52,6.391-9.473,3.007-11.1-10.548   c-0.859-8.126-14.18-28.984-1.166-24.086C3251.195,685.937,3251.111,710.554,3248.668,714.995z M3301.008,663.665   c-3.807-7.235-23.891-21.688-9.99-21.947c15.807-0.296,24.828,22.606,24.203,27.64   C3314.313,676.593,3307.531,675.654,3301.008,663.665z M3434.373,530.255c1.102-5.974,2.096-11.985,2.963-17.671   C3436.541,518.78,3435.549,524.664,3434.373,530.255z M3402.361,393.013c10.729,7.092,35.23,25.534,36.521,46.785   c1.072,17.673,1.217,33.952,0.502,48.892c-10.578,34.745-31.902,33.528-40.066,31.612   C3411.34,458.989,3405.146,409.558,3402.361,393.013z M3095.072,663.187v0.004c0.016,0,0.04-0.001,0.053-0.001   c0.023,0,0.042,0.001,0.063,0.001v-0.004c13.855-0.005,27.469-1.081,40.761-3.131c-3.426,8.343-13.36,23.764-40.006,23.764h-0.755   h-0.063h-0.053h-0.761c-26.645,0-36.577-15.421-40.004-23.764C3067.599,662.106,3081.211,663.182,3095.072,663.187z    M2997.31,183.979c37.701,0,68.265,30.563,68.265,68.266s-30.563,68.266-68.265,68.266s-68.266-30.563-68.266-68.266   S2959.608,183.979,2997.31,183.979z M2752.919,512.584c0.869,5.686,1.859,11.697,2.965,17.671   C2754.712,524.664,2753.717,518.78,2752.919,512.584z M2750.87,488.69c-0.715-14.939-0.57-31.219,0.502-48.892   c1.291-21.251,25.797-39.693,36.524-46.785c-2.782,16.545-8.979,65.976,3.042,127.289   C2782.774,522.218,2761.45,523.435,2750.87,488.69z M2848.497,648.056c-3.802-5.835-7.36-11.652-10.695-17.445   c-61.813-139.32-24.775-242.872-18.191-259.117l3.832-2.642l0.195-1.075c6.426-35.979,14.151-53.605,14.228-53.781l1.637-3.691   h-10.55c-0.412-4.968,1.479-12.571,4.058-20.272c41.851-72.063,95.79-109.935,140.272-129.788   c-85.668,44.31-144.364,133.767-144.364,236.678c0,127.833,90.557,234.904,210.887,260.46c0.708,3.415,8.839,37.643,51.015,39.448   v0.096h3.492h0.761h0.053h0.063h0.755h3.493v-0.096c42.171-1.806,50.308-36.033,51.013-39.448   c120.332-25.556,210.889-132.627,210.889-260.46c0-102.911-58.695-192.368-144.365-236.678   c44.482,19.854,98.422,57.726,140.275,129.788c2.578,7.701,4.469,15.305,4.061,20.272h-10.553l1.633,3.691   c0.076,0.176,7.809,17.802,14.234,53.781l0.189,1.075l3.832,2.642c6.584,16.245,43.621,119.797-18.189,259.117   c-3.338,5.793-6.893,11.61-10.693,17.445c0.311-17.955-5.73-32.836-13.631-39.979c-9.248-8.366-29.773,1.4-43.209,23.904   c-7.143,1.029-13.523,7.635-16.758,16.94c-7.262-0.633-14.828,4.587-19.76,13.117c-8.121-0.927-16.686,5.564-21.564,15.864   c-4.832,2.939-9.223,7.182-12.727,13.776c0,0-11.797,17.039,0,36.04c0,0,1.9,1.76,5.426,4.002   c6.941,4.414,20.188,10.714,37.674,9.188c-15.934,12.91-33.604,25.45-53.238,37.414l-11.834,9.297l-9.24-47.713l-4.018-20.759   l-4.164,2.081c-0.275,0.134-22.156,10.879-53.493,15.309c-8.137,1.152-16.899,1.885-26.101,1.888   c-30.431-0.009-56.191-7.918-69.617-13.005c-6.265-2.374-9.856-4.138-9.967-4.191l-4.163-2.081l-0.877,4.526l-12.391,63.945   l-11.831-9.297c-19.632-11.964-37.304-24.504-53.237-37.414c26.368,2.3,43.102-13.189,43.102-13.189   c1.608-2.587,2.768-5.141,3.588-7.621c5.199-15.706-3.588-28.419-3.588-28.419c-3.509-6.595-7.892-10.837-12.729-13.776   c-4.876-10.3-13.441-16.791-21.564-15.864c-4.933-8.53-12.496-13.75-19.757-13.117c-3.237-9.306-9.621-15.911-16.758-16.94   c-13.438-22.504-33.958-32.271-43.212-23.904C2854.222,615.22,2848.184,630.101,2848.497,648.056z M3095.072,743.667h0.053h0.063   h1.193v-0.025c15.794-0.113,30.317-2.267,42.569-5.043c15.826-3.585,27.865-8.205,33.961-10.811l-1.193,14.618l-5.404,66.196   l-10.965,26.995c-3.611,3.021-27.251,21.652-60.225,21.671c-32.968-0.019-56.606-18.649-60.221-21.671l-10.968-26.995   l-6.595-80.814c10.819,4.622,40.337,15.591,76.534,15.854v0.025H3095.072z M2916.778,656.168   c13.867-1.031-4.794,15.219-7.918,22.774c-5.383,12.543-12.053,14.109-13.618,6.989   C2894.149,680.975,2901.014,657.341,2916.778,656.168z M2889.247,663.665c-6.521,11.989-13.307,12.929-14.213,5.692   c-0.62-5.033,8.398-27.936,24.208-27.64C2913.138,641.976,2893.054,656.429,2889.247,663.665z M2936.104,669.884   c13.737-2.126-3.577,15.552-6.088,23.33c-4.375,12.931-10.896,15.021-13.027,8.046   C2915.511,696.408,2920.478,672.3,2936.104,669.884z M2941.589,714.995c-2.445-4.44-2.527-29.058,12.267-34.634   c13.011-4.898-0.307,15.96-1.17,24.086c-0.721,5.988-2.284,9.982-4.108,12.037c-1.745,1.96-3.723,2.131-5.436,0.559   C2942.592,716.535,2942.063,715.863,2941.589,714.995z M2860.255,649.48c-0.186-5.066,10.795-27.096,26.518-25.433   c13.824,1.471-7.445,14.121-11.867,20.997C2867.367,656.421,2860.526,656.771,2860.255,649.48z M2820.644,830.108v-0.058   c0.013,0.036,0.021,0.07,0.026,0.106L2820.644,830.108z M2822.877,809.234c-0.668-28,13.634-51.798,28.644-68.962   c1.22-1.394,2.442-2.748,3.667-4.057c4.003-4.278,7.969-8.067,11.639-11.329c5.515-4.903,10.357-8.615,13.592-10.951   c3.358,3.169,6.661,6.005,9.908,8.537c0.558,0.434,1.117,0.879,1.671,1.293c-5.956,5.864-35.98,37.49-34.18,78.085   c0.352,8.014,1.943,15.815,4.713,23.398l-34.057,12.097C2824.983,828.026,2823.102,818.654,2822.877,809.234z M2862.989,886.967   c-13.398-13.066-23.453-26.292-30.153-39.646l31.767-16.91c5.745,12.954,15.1,25.222,27.981,36.719L2862.989,886.967z    M3280.869,864.083l-0.24,0.196c-0.578,0.495-59.146,49.166-185.504,49.527c-126.355-0.361-184.921-49.032-185.499-49.527   l-0.24-0.196c-24.496-18.977-37.443-40.079-38.479-62.726c-0.805-17.772,6.424-34.507,14.387-47.317   c12.059-1.149,18.326,10.227,21.288,18.688c0.175,1.404,0.412,2.848,0.745,4.347c-3.433,1.674-9.685,5.688-12.09,13.526   c-2.931,9.573,0.958,21.367,11.554,35.054c28.527,36.832,123.527,65.427,186.726,65.662v0.014h0.795h0.761h0.053h0.063h0.755h0.792   v-0.014c63.204-0.235,158.206-28.83,186.729-65.662c10.598-13.687,14.48-25.48,11.553-35.054   c-2.402-7.839-8.658-11.853-12.084-13.526c0.324-1.499,0.566-2.942,0.742-4.347c2.965-8.461,9.229-19.837,21.285-18.688   c7.959,12.811,15.193,29.545,14.387,47.317C3318.313,824.003,3305.367,845.106,3280.869,864.083z M3327.268,886.967l-29.598-19.837   c12.881-11.497,22.234-23.765,27.984-36.719l31.764,16.91C3350.721,860.675,3340.664,873.901,3327.268,886.967z M3369.609,830.05   v0.058l-0.025,0.049C3369.59,830.121,3369.598,830.086,3369.609,830.05z M3335.428,736.606c1.986,2.136,3.977,4.39,5.941,6.758   c14.004,16.88,26.639,39.515,26.006,65.87c-0.223,9.42-2.102,18.792-5.592,28.111l-34.057-12.097   c2.77-7.583,4.361-15.385,4.717-23.398c1.229-27.765-12.428-51.326-23.088-65.33c-0.162-0.216-0.326-0.426-0.49-0.64   c-4.719-6.119-8.787-10.323-10.605-12.115c2.891-2.165,5.83-4.601,8.811-7.281c0.918-0.829,1.84-1.674,2.768-2.549   c0.988,0.717,2.148,1.576,3.416,2.549C3318.945,720.833,3327.131,727.678,3335.428,736.606z M3339.088,703.175   c5.365-12.204,15.256-26.76,31.783-25.912c5.635,0.285,10.236,2.187,14.021,5.181   C3364.494,732.594,3339.111,703.204,3339.088,703.175z M3664.787,863.209c-5.449-12.864-11.322-25.136-17.242-36.007   c0.844,0.396,1.662,0.819,2.494,1.228c13.398,6.568,25.512,14.834,36.375,24.099c5.514,4.699,10.707,9.656,15.592,14.764   c5.248,5.49,10.15,11.158,14.697,16.89C3699.463,871.394,3675.762,865.424,3664.787,863.209z"
         fill="#2B3990" /><path
         id="path15"
         d="M2594.895,770.802c2.142-0.635,4.309-1.23,6.514-1.77c4.837-10.836,8.462-20.232,10.948-27.188   c0.15-0.29,0.307-0.579,0.434-0.845c1.525-3.181,2.545-6.493,3.166-9.858c0.411-1.309,0.628-2.064,0.654-2.168l-0.307-0.081   c1.604-12.146-1.697-24.766-5.364-34.29c5.017,0.072,10.138,0.461,15.339,1.099c2.965,4.628,16.18,27.431,13.697,62.166   c-0.155,2.164-0.38,4.408-0.676,6.718c0.375-0.002,0.745-0.016,1.123-0.016c1.689,0,3.345,0.027,4.981,0.071v-10.515   c0.14-3.476,0.132-6.825,0-10.043v-0.378c0,0.026-0.005,0.052-0.013,0.082c-0.988-23.123-8.206-39.455-12.438-47.129   c45.541,7.462,95.48,33.43,125.796,51.335c4.755-2.947,9.787-5.856,15.086-8.724c0.6-13.923,2.173-39.646,13.404-57.271   c-7.997-19.371-19.971-29.784-20.208-29.981l-0.235-0.176c-22.663-15.151-45.713-20.313-68.503-15.325   c-40.318,8.813-66.644,46.063-71.819,53.937c-5.855-0.695-11.648-1.11-17.304-1.11c-0.137,0-0.274,0-0.411,0.003   c-1.711-3.836-3.293-6.827-4.291-8.603c1.146-1.169,2.218-2.296,3.163-3.363c32.729-36.968,43.365-59.765,45.048-63.655   c20.393-15.415,34.462-47.624,34.462-84.792c0-0.654-0.023-1.299-0.031-1.95c0.011-0.621,0.031-1.234,0.031-1.859   c0-6.017-0.56-11.845-1.581-17.395c-5.967-39.73-28.303-69.948-55.492-72.993l-4.496-11.563l18.962,10.486l-3.755-7.535   c-40.355-81.055-106.233-115.948-154.392-130.953c-52.123-16.237-95.372-13.281-95.606-13.259   c-1.001-0.033-15.232,0.015-33.399,3.52c-66.871,8.178-132.589,54.418-169.271,127.044   c-24.501,48.513-31.813,100.46-24.116,147.101l-0.823-0.485c8.422,43.291,22.508,74.747,39.677,97.413l26.486,51.117   c-1.956,5.34-9.364,28.493,1.133,48.403c6.828,12.942,19.772,21.63,38.46,25.853c11.712,18.656,35.126,54.569,45.729,61.129   c-80.674,67.97-71.359,123.88-71.359,123.88h33.642c0-53.091,39.439-107.972,47.233-118.297c4.312,2.189,8.544,3.591,13.663,3.591   c5.595,0,12.25-1.66,21.22-5.739c1.051-0.477,2.624-1.285,4.62-2.368c-38.207,31.472-45.676,122.813-45.676,122.813s0,0,25.161,0   c0-44.702,14.382-81.964,20.121-95.061c-1.017,5.705-1.066,11.837-0.108,18.151c-0.005-0.016-0.013-0.031-0.019-0.055l2.461,24.895   c0,0,13.063,32.357,48.896,45.972c1.263-3.306,2.923-7.458,5.003-12.274c-13.649-4.523-24.91-12.526-33.428-22.333   c-2.497-2.873-4.73-5.888-6.729-8.991l8.521-18.646l-0.523-0.802c1.753,2.532,3.76,4.858,6.112,6.9   c10.894,9.459,26.075,11.824,38.547,11.824c1.17,0,2.308-0.024,3.425-0.063c1.011-1.798,2.057-3.619,3.137-5.461   c-12.434,0.81-30.128-0.223-41.684-10.267c-8.344-7.248-12.346-18.323-11.998-32.913c10.609,9.231,24.312,17.692,39.717,18.878   c1.001,0.078,2.01,0.115,3.047,0.115c9.807,0,21.217-3.405,33.471-9.186c19.833-25.463,46.135-50.138,79.851-64.843   c6.933-11.562,13.367-20.103,19.146-25.41c0.322-0.299,0.671-0.57,1.035-0.813c8.382-5.625,17.515-10.163,27.342-13.636    M2681.866,526.993c-0.652,33.078-18.561,59.694-40.496,59.694c-22.35,0-40.529-27.617-40.529-61.563   c0-33.949,18.18-61.563,40.529-61.563c18.587,0,34.283,19.11,39.041,45.073C2681.282,514.55,2681.781,520.69,2681.866,526.993z    M2668.622,471.491c-7.622-8.271-17.047-13.174-27.252-13.174c-25.24,0-45.773,29.972-45.773,66.807   c0,7.414,0.845,14.544,2.382,21.21h-0.005c-13.807,17.208-24.085,2.077-28.356-6.55c-0.272-3.56-0.431-7.176-0.431-10.851   c0-49.206,25.283-89.238,56.358-89.238C2642.807,439.695,2658.275,452.064,2668.622,471.491z M2611.282,437.035l-15.326-7.351   c-6.435-14.656-18.434-33.075-18.439-33.085l40.881,22.607l5.954,15.291C2619.86,434.632,2615.488,435.498,2611.282,437.035z    M2335.139,330.659c18.21,0,32.971,14.762,32.971,32.97c0,18.21-14.761,32.971-32.971,32.971c-18.208,0-32.97-14.761-32.97-32.971   C2302.169,345.42,2316.931,330.659,2335.139,330.659z M2280.726,707.467c0.023-0.204,0.042-0.416,0.063-0.611   c11.366,2.491,22.643,3.522,33.444,3.579c4.158-0.03,8.588-0.191,13.293-0.508c-6.191,7.825-16.047,16.333-29.789,16.615   c-6.667,0.16-11.43-1.566-14.134-5.06C2280.464,717.429,2280.313,711.602,2280.726,707.467z M2351.744,832.912   c0,0-13.513,20.18-37.823,2.779c-12.254-11.836-36.132-49.173-46.27-65.797c6.122,4.522,14.307,8.799,24.044,9.581   c1.048,0.086,2.094,0.128,3.145,0.128c8.451,0,16.792-2.813,24.935-8.272l5.431,2.279c0,0,14.091,26.212,22.936,41.614   C2356.985,830.621,2351.744,832.912,2351.744,832.912z M2374.714,857.792c1.595,1.743,3.327,3.541,5.188,5.354   c-0.441,5.688-0.299,10.941,0.398,15.768l-0.061-0.365l-12.274,5.515C2367.345,873.966,2369.508,864.665,2374.714,857.792z    M2386.199,895.958l-0.629-0.965l-11.836,11.759c-1.954-4.402-3.438-8.858-4.42-13.26l11.517-11.416   C2381.896,887.277,2383.709,891.883,2386.199,895.958z M2598.49,679.289c-0.089,0.058-93.12,59.943-170.407,103.589   c-77.318,43.662-85.838-34.825-85.838-34.825l21.293-25.227l-49.615,46.04c-7.191,4.159-14.481,5.975-21.771,5.39   c-18.376-1.457-31.191-17.66-32.279-19.075l-42.624-82.266c17.178,16.716,36.398,26.597,55.674,31.997l0.183,0.048   c-0.747,5.441-0.961,14.547,4.256,21.305c4.169,5.407,10.772,8.149,19.636,8.149c0.298,0,0.6-0.004,0.897-0.01   c20.694-0.424,33.612-15.327,40.007-25.416c1.561-0.166,3.089-0.319,4.7-0.521c30.13-4.26,51.658-13.871,51.658-13.871   l-0.014-0.003c49.964-19.311,95.444-59.595,123.697-115.533c54.271-107.451,24.43-231.85-66.649-277.854   c-13.241-6.684-27.055-11.287-41.15-14.042c17.267,0.743,44.524,3.594,74.871,13.068c45.575,14.235,107.374,46.691,147.115,120.575   l-86.832-48.008l15.651,45.908l44.089,21.151c-23.912,12.984-41.092,48.006-41.092,89.075c0,52.102,27.632,94.481,61.599,94.481   c6.468,0,12.704-1.546,18.571-4.396c-5.484,9.925-17.423,28.925-40.408,54.89C2602.242,675.562,2600.483,677.364,2598.49,679.289z    M2636.19,686.013 M2705.831,714.363c3.504-2.255,8.977-4.786,14.413-3.271c5.668,1.586,10.265,7.306,13.731,16.919   C2725.191,723.413,2715.724,718.767,2705.831,714.363z M2743.061,676.746c-29.71-8.306-61.602,20.971-61.602,20.971   c-18.722-14.186-45.14-11.758-45.237-11.745c10.294-13.239,32.863-37.723,63.22-44.342c18.252-3.978,36.752-0.944,55.122,8.965   C2766.627,658.192,2771.213,684.614,2743.061,676.746z"
         fill="#2B3990" /><path
         id="path17"
         d="M3590.459,769.457c14.188,3.653,27.102,9.331,38.604,17.047c0.365,0.243,0.713,0.518,1.033,0.816   c5.783,5.312,12.215,13.849,19.145,25.405c35.902,15.631,63.41,42.615,83.648,69.825c7.697,2.697,14.914,4.205,21.422,4.205   c1.037,0,2.047-0.037,3.045-0.115c15.408-1.186,29.105-9.646,39.717-18.878c0.348,14.59-3.656,25.665-11.998,32.913   c-9.143,7.948-22.131,10.251-33.314,10.466c1.027,1.753,2.025,3.489,2.988,5.205c11.412-0.583,24.219-3.428,33.752-11.704   c2.352-2.042,4.355-4.368,6.109-6.9l-0.523,0.802l8.52,18.646c-1.996,3.104-4.232,6.118-6.727,8.991   c-7.002,8.063-15.855,14.91-26.369,19.604c2.01,4.536,3.674,8.561,5.014,11.955c30.498-14.853,41.828-42.924,41.828-42.924   l2.461-24.895c-0.008,0.023-0.018,0.039-0.021,0.055c0.957-6.314,0.908-12.446-0.109-18.151   c5.744,13.097,20.127,50.358,20.127,95.061c25.158,0,25.158,0,25.158,0s-7.467-91.342-45.676-122.813   c1.996,1.083,3.57,1.892,4.621,2.368c8.969,4.079,15.621,5.739,21.219,5.739c5.117,0,9.35-1.401,13.664-3.591   c7.793,10.325,47.232,65.206,47.232,118.297h33.643c0,0,9.313-55.91-71.357-123.88c10.6-6.56,34.012-42.473,45.727-61.129   c18.684-4.223,31.631-12.91,38.459-25.853c10.498-19.91,3.086-43.063,1.133-48.403l26.49-51.117   c17.162-22.666,31.248-54.122,39.674-97.413l-0.824,0.485c7.697-46.641,0.383-98.588-24.119-147.101   c-36.68-72.626-102.396-118.866-169.271-127.044c-18.164-3.505-32.398-3.553-33.398-3.52c-0.234-0.022-43.479-2.979-95.605,13.259   c-48.156,15.005-114.035,49.898-154.391,130.953l-3.754,7.535l18.961-10.486l-4.496,11.563   c-27.191,3.045-49.527,33.263-55.492,72.993c-1.023,5.55-1.58,11.378-1.58,17.395c0,0.625,0.018,1.238,0.031,1.859   c-0.008,0.651-0.031,1.296-0.031,1.95c0,37.168,14.068,69.377,34.459,84.792c1.686,3.891,12.322,26.688,45.047,63.655   c0.945,1.067,2.018,2.194,3.166,3.363c-0.998,1.775-2.582,4.767-4.291,8.603c-0.137-0.003-0.273-0.003-0.41-0.003   c-5.656,0-11.449,0.415-17.305,1.11c-5.178-7.873-31.5-45.124-71.818-53.937c-22.793-4.987-45.842,0.174-68.504,15.325   l-0.234,0.176c-0.209,0.173-9.453,8.218-17.119,23.273c15.947,17.093,17.885,48.165,18.566,63.979   c3.82,2.066,7.492,4.157,11.033,6.266c30.592-17.742,78.1-41.752,121.594-48.878c-4.232,7.674-11.449,24.006-12.438,47.129   c-0.006-0.03-0.01-0.056-0.014-0.082v0.378c-0.129,3.218-0.139,6.567,0,10.043v10.902c1.988-0.136,4.029-0.242,6.121-0.319   c-0.305-2.354-0.533-4.64-0.689-6.842c-2.484-34.735,10.732-57.538,13.695-62.166c5.203-0.638,10.326-1.026,15.342-1.099   c-3.67,9.524-6.971,22.144-5.367,34.29l-0.307,0.081c0.029,0.104,0.246,0.859,0.654,2.168c0.623,3.365,1.637,6.678,3.166,9.858   c0.129,0.266,0.285,0.555,0.434,0.845c2.342,6.546,5.684,15.248,10.102,25.279c2.111,0.375,4.197,0.793,6.26,1.251    M3447.986,728.011c3.469-9.613,8.063-15.333,13.732-16.919c5.436-1.516,10.908,1.016,14.412,3.271   C3466.238,718.767,3456.773,723.413,3447.986,728.011z M3500.502,697.716c0,0-31.889-29.276-61.598-20.971   c-28.156,7.868-23.566-18.554-11.504-26.151c18.371-9.909,36.867-12.942,55.119-8.965c30.359,6.619,52.93,31.103,63.221,44.342   C3545.643,685.958,3519.227,683.531,3500.502,697.716z M3545.771,686.013 M3867.732,710.435   c10.799-0.057,22.074-1.088,33.441-3.579c0.023,0.195,0.041,0.407,0.063,0.611c0.412,4.135,0.264,9.962-2.877,14.016   c-2.705,3.493-7.465,5.22-14.131,5.06c-13.742-0.282-23.598-8.79-29.789-16.615C3859.145,710.244,3863.57,710.405,3867.732,710.435   z M3556.416,439.695c31.076,0,56.361,40.032,56.361,89.238c0,3.675-0.158,7.291-0.434,10.851   c-4.271,8.627-14.549,23.758-28.355,6.55h-0.006c1.541-6.666,2.383-13.796,2.383-21.21c0-36.835-20.531-66.807-45.773-66.807   c-10.201,0-19.631,4.903-27.252,13.174C3523.689,452.064,3539.154,439.695,3556.416,439.695z M3557.613,434.498l5.951-15.291   l40.881-22.607c-0.004,0.01-12.002,18.429-18.439,33.085l-15.324,7.351C3566.473,435.498,3562.102,434.632,3557.613,434.498z    M3500.096,526.993c0.088-6.303,0.586-12.442,1.457-18.358c4.758-25.963,20.455-45.073,39.039-45.073   c22.35,0,40.531,27.613,40.531,61.563c0,33.946-18.182,61.563-40.531,61.563C3518.66,586.687,3500.748,560.071,3500.096,526.993z    M3808.23,906.751l-11.836-11.759l-0.629,0.965c2.49-4.074,4.303-8.681,5.367-13.882l11.514,11.416   C3811.664,897.893,3810.184,902.349,3808.23,906.751z M3813.996,884.063l-12.271-5.515l-0.061,0.365   c0.697-4.826,0.84-10.08,0.398-15.768c1.859-1.813,3.594-3.611,5.186-5.354C3812.457,864.665,3814.619,873.966,3813.996,884.063z    M3868.043,835.691c-24.313,17.4-37.828-2.779-37.828-2.779s-5.238-2.291,3.609-17.688c8.844-15.402,22.936-41.614,22.936-41.614   l5.428-2.279c8.145,5.46,16.488,8.272,24.939,8.272c1.049,0,2.094-0.042,3.143-0.128c9.734-0.782,17.922-5.059,24.043-9.581   C3904.176,786.518,3880.295,823.855,3868.043,835.691z M3922.092,755.18c-1.088,1.415-13.906,17.618-32.279,19.075   c-7.289,0.585-14.58-1.23-21.773-5.39l-49.613-46.04l21.293,25.227c0,0-8.52,78.487-85.836,34.825   c-77.289-43.646-170.318-103.531-170.412-103.589c-1.992-1.925-3.752-3.727-5.215-5.38c-22.988-25.965-34.926-44.965-40.408-54.89   c5.867,2.85,12.104,4.396,18.568,4.396c33.971,0,61.602-42.38,61.602-94.481c0-41.069-17.182-76.091-41.092-89.075l44.092-21.151   l15.648-45.908l-86.834,48.008c39.744-73.884,101.543-106.34,147.119-120.575c30.346-9.475,57.605-12.325,74.869-13.068   c-14.096,2.755-27.906,7.358-41.148,14.042c-91.082,46.005-120.922,170.403-66.648,277.854   c28.252,55.938,73.732,96.223,123.695,115.533l-0.018,0.003c0,0,21.531,9.611,51.66,13.871c1.609,0.202,3.139,0.355,4.701,0.521   c6.395,10.089,19.311,24.992,40.008,25.416c0.299,0.006,0.6,0.01,0.896,0.01c8.861,0,15.465-2.742,19.637-8.149   c5.213-6.758,5-15.863,4.252-21.305l0.184-0.048c19.277-5.4,38.498-15.281,55.676-31.997L3922.092,755.18z M3766.771,363.628   c0,18.21-14.762,32.971-32.971,32.971s-32.971-14.761-32.971-32.971c0-18.208,14.762-32.97,32.971-32.97   S3766.771,345.42,3766.771,363.628z"
         fill="#2B3990" /></g><g
       id="g19"><path
         id="path21"
         d="M2656.848,1833.686h68.242l44.564-69.615h91.926v69.615h55.416v-300.818h-55.416L2656.848,1833.686z    M2861.58,1713.365h-59.621l59.621-93.611V1713.365z"
         fill="#2B3990" /><path
         id="path23"
         d="M2996.322,1564.826c-21.215,20.184-40.963,68.475-41.23,117.857h-0.008c0,0.205,0,0.373,0.008,0.566   c-0.008,0.207-0.008,0.379-0.008,0.566h0.008c0.268,49.389,14.049,91.9,35.363,111.998c26.611,25.137,63.359,37.826,95.705,37.826   h127.703v-68.512c-14.41,0-53.227,0-88.297,0c-44.035,0-55.801-8.523-55.801-8.523s-43.795-17.891-45.357-73.379   c1.58-55.449,39.492-73.318,39.492-73.318s17.631-14.395,61.666-14.395c35.07,0,73.887,0,88.297,0v-62.646H3074.41   C3042.064,1532.867,3019.195,1543.074,2996.322,1564.826z"
         fill="#2B3990" /><polygon
         id="polygon25"
         points="3353.076,1596.154 3380.797,1596.154 3525.117,1596.154 3525.117,1532.867 3265.051,1532.867    3265.051,1837.01 3324.951,1837.01 3324.951,1709.063 3353.076,1709.063 3353.076,1708.945 3495.633,1708.945 3495.633,1648.045    3380.797,1648.045 3353.076,1648.045 3324.951,1648.045 3324.951,1596.154  "
         fill="#2B3990" /></g><g
       id="g27"><polygon
         id="polygon29"
         points="3090.949,2096.879 3049.07,2096.879 3090.949,2143.309 3132.832,2096.879  "
         fill="#ED1C24" /><polygon
         id="polygon31"
         points="3090.949,2064.07 3166.787,2064.07 3208.666,2021.045 3090.949,2021.045 2976.631,2021.045    3017.363,2064.07  "
         fill="#ED1C24" /><polygon
         id="polygon33"
         points="3090.982,2206.49 2823.844,1931.047 3090.982,2353.635 3090.982,2353.639 3358.119,1931.047    3090.982,2206.49  "
         fill="#ED1C24" /></g><path
       id="path35"
       d="M3098.141,1984.852"
       fill="#ED1C24" /><g
       id="g37"><path
         id="path39"
         d="M3334.961,1358.918c-1.91-1.732-4.414-2.979-7.502-3.752c-3.092-0.771-6.91-1.152-11.441-1.152h-50.756   c-1.334,0-2.01,0.674-2.01,2.014v56.99c0,1.248,0.676,1.873,2.01,1.873h50.756c4.531,0,8.35-0.381,11.441-1.154   c3.088-0.768,5.592-2.023,7.502-3.754s3.27-4.041,4.105-6.92c0.824-2.887,1.23-6.443,1.23-10.676v-15.865   c0-4.238-0.406-7.795-1.23-10.68C3338.23,1362.955,3336.871,1360.65,3334.961,1358.918z"
         fill="#ED1C24" /><path
         id="path41"
         d="M2711.471,1201.295c-1.547-1.488-3.635-2.549-6.264-3.176c-2.635-0.625-5.951-0.938-9.982-0.938h-45.943   c-4.029,0-7.355,0.313-9.98,0.938c-2.631,0.627-4.721,1.688-6.271,3.176c-1.547,1.496-2.656,3.514-3.324,6.057   c-0.676,2.549-1.008,5.703-1.008,9.451v21.641c0,3.746,0.332,6.902,1.008,9.451c0.668,2.551,1.777,4.563,3.324,6.059   c1.551,1.49,3.641,2.547,6.271,3.174c2.625,0.627,5.951,0.934,9.98,0.934h45.943c4.031,0,7.348-0.307,9.982-0.934   c2.629-0.627,4.717-1.684,6.264-3.174c1.551-1.496,2.658-3.508,3.33-6.059c0.666-2.549,1.004-5.705,1.004-9.451v-21.641   c0-3.748-0.338-6.9-1.004-9.451C2714.129,1204.809,2713.021,1202.791,2711.471,1201.295z"
         fill="#ED1C24" /><path
         id="path43"
         d="M3126.275,1083.71c2.168-2.117,3.25-5.34,3.25-9.668v-6.063c0-4.326-1.082-7.547-3.25-9.662   c-2.156-2.119-5.879-3.178-11.139-3.178h-57.238c-1.344,0-2.016,0.58-2.016,1.734v30.004h59.254   C3120.396,1086.878,3124.119,1085.82,3126.275,1083.71z"
         fill="#ED1C24" /><path
         id="path45"
         d="M2957.994,1056.875c-0.35-0.676-0.818-1.008-1.428-1.008h-0.781c-0.605,0-1.084,0.332-1.43,1.008   l-20.416,42.266h44.734L2957.994,1056.875z"
         fill="#ED1C24" /><path
         id="path47"
         d="M2234.037,996.033l305.148,482.713h1103.598l305.145-482.713H2234.037z M3167.586,1038.55   c0-2.115,1.182-3.17,3.557-3.17h16.709c2.266,0,3.412,1.055,3.412,3.17v38.373h21.805c2.479,0,4.537-0.064,6.191-0.213   c1.645-0.148,3.094-0.457,4.33-0.938c1.24-0.479,2.375-1.158,3.402-2.021c1.035-0.867,2.117-1.969,3.254-3.318l26.609-33.182   c0.512-0.674,1.031-1.148,1.547-1.443c0.512-0.283,1.488-0.428,2.943-0.428h19.176c1.342,0,2.145,0.41,2.402,1.219   c0.252,0.826,0.123,1.572-0.387,2.244l-30.012,36.211c-1.758,2.211-3.381,4.086-4.877,5.623c-1.494,1.539-2.961,2.881-4.406,4.039   c4.014,2.309,7.936,5.768,11.754,10.389l31.711,37.508c0.422,0.482,0.574,1.227,0.475,2.234c-0.109,1.012-0.936,1.52-2.479,1.52   h-19.807c-1.34,0-2.271-0.148-2.781-0.441c-0.52-0.283-1.035-0.764-1.543-1.436l-28.471-34.338   c-2.064-2.502-4.285-4.203-6.648-5.121c-2.379-0.912-5.943-1.371-10.682-1.371h-23.508v39.531c0,2.113-1.146,3.176-3.412,3.176   h-16.709c-2.375,0-3.557-1.063-3.557-3.176V1038.55z M3032.211,1039.705c0-2.887,1.549-4.324,4.646-4.324h83.078   c11.857,0,20.367,2.502,25.529,7.496c5.152,5.004,7.732,12.41,7.732,22.217v8.227c0,8.273-1.805,14.811-5.424,19.623   c-3.602,4.809-9.484,7.883-17.629,9.225l26.461,30.582c0.512,0.488,0.662,1.213,0.457,2.17c-0.207,0.963-1.029,1.447-2.467,1.447   h-19.957c-1.346,0-2.275-0.148-2.785-0.441c-0.527-0.283-1.037-0.764-1.549-1.436l-24.447-30.012h-49.975v28.713   c0,2.113-1.135,3.176-3.4,3.176h-16.707c-2.379,0-3.564-1.063-3.564-3.176V1039.705z M2895.189,1133.042l42.65-86.701   c2.166-4.326,4.291-7.238,6.375-8.723c2.082-1.496,4.504-2.238,7.277-2.238h7.678c3.297,0,6.061,0.742,8.318,2.238   c2.252,1.484,4.463,4.396,6.631,8.723l43.041,86.701c0.436,0.963,0.543,1.76,0.33,2.381c-0.221,0.631-0.846,0.943-1.891,0.943   h-16.514c-1.469,0-2.467-0.629-2.986-1.877l-9.232-18.613h-61.117l-8.971,18.613c-0.613,1.248-1.607,1.869-2.994,1.869h-16.9   c-1.133,0-1.805-0.305-2.02-0.936C2894.645,1134.802,2894.754,1134.005,2895.189,1133.042z M2594.357,1194.439   c0,2.215-1.141,3.32-3.406,3.32h-68.846c-4.023,0-7.348,0.313-9.984,0.939c-2.627,0.629-4.709,1.682-6.264,3.172   c-1.539,1.494-2.65,3.486-3.322,5.982c-0.67,2.51-1.006,5.68-1.006,9.527v20.484c0,3.85,0.336,7.051,1.006,9.594   c0.672,2.549,1.783,4.568,3.322,6.057c1.555,1.496,3.637,2.553,6.264,3.17c2.637,0.633,5.961,0.941,9.984,0.941h68.846   c2.266,0,3.406,1.064,3.406,3.174v14.143c0,2.111-1.141,3.172-3.406,3.172h-69.771c-7.84,0-14.492-0.668-19.963-2.021   c-5.465-1.344-9.924-3.533-13.375-6.563c-3.461-3.029-5.984-6.973-7.586-11.83c-1.602-4.855-2.4-10.748-2.4-17.67v-24.814   c0-6.922,0.799-12.785,2.4-17.6c1.602-4.809,4.125-8.73,7.586-11.756c3.451-3.035,7.91-5.244,13.375-6.643   c5.471-1.387,12.123-2.092,19.963-2.092h69.771c2.266,0,3.406,1.068,3.406,3.178V1194.439z M2739.473,1240.031   c0,6.922-0.775,12.814-2.316,17.67c-1.545,4.857-4.047,8.801-7.508,11.83c-3.453,3.029-7.943,5.219-13.457,6.563   c-5.518,1.354-12.201,2.021-20.035,2.021h-47.805c-7.844,0-14.502-0.668-19.963-2.021c-5.467-1.344-9.93-3.533-13.387-6.563   c-3.453-3.029-5.973-6.973-7.578-11.83c-1.6-4.855-2.393-10.748-2.393-17.67v-24.814c0-6.922,0.793-12.785,2.393-17.6   c1.605-4.809,4.125-8.73,7.578-11.756c3.457-3.035,7.92-5.244,13.387-6.643c5.461-1.387,12.119-2.092,19.963-2.092h47.805   c7.834,0,14.518,0.705,20.035,2.092c5.514,1.399,10.004,3.608,13.457,6.643c3.461,3.025,5.963,6.947,7.508,11.756   c1.541,4.814,2.316,10.678,2.316,17.6V1240.031z M2812.648,1263.977l-31.246-64.629c-0.318-0.768-0.984-1.156-2.016-1.156h-1.393   c-0.828,0-1.236,0.482-1.236,1.447v75.305c0,2.111-1.141,3.172-3.408,3.172h-15.777c-2.375,0-3.557-1.061-3.557-3.172v-82.809   c0-5.48,0.93-9.355,2.785-11.615c1.857-2.256,5.514-3.393,10.984-3.393h16.863c2.268,0,4.223,0.148,5.877,0.438   c1.646,0.289,3.104,0.842,4.334,1.654c1.236,0.825,2.344,1.924,3.322,3.321c0.986,1.4,1.996,3.248,3.02,5.559l32.18,69.242   c0.406,0.865,1.135,1.305,2.17,1.305h1.852c1.033,0,1.75-0.439,2.164-1.305l32.186-69.242c1.029-2.311,2.031-4.158,3.012-5.559   c0.979-1.396,2.096-2.496,3.326-3.321c1.238-0.813,2.662-1.365,4.254-1.654c1.6-0.289,3.535-0.438,5.805-0.438h16.555   c5.365,0,8.975,1.137,10.83,3.393c1.854,2.26,2.783,6.135,2.783,11.615v82.809c0,2.117-1.178,3.172-3.561,3.172h-15.779   c-2.264,0-3.398-1.055-3.398-3.172v-75.305c0-0.965-0.414-1.447-1.24-1.447h-1.393c-1.031,0-1.701,0.389-2.008,1.156   l-31.252,64.629c-1.238,2.596-2.508,4.785-3.795,6.568c-1.289,1.781-2.676,3.244-4.18,4.398c-1.49,1.15-3.195,1.973-5.105,2.453   c-1.906,0.477-4.154,0.719-6.73,0.719h-7.422c-2.58,0-4.822-0.242-6.729-0.719c-1.918-0.48-3.613-1.303-5.105-2.453   c-1.494-1.154-2.889-2.617-4.176-4.398C2815.152,1268.762,2813.889,1266.572,2812.648,1263.977z M2932.951,1350.838   c0,2.119-1.188,3.176-3.557,3.176h-67.152c-4.02,0-7.344,0.313-9.977,0.934c-2.629,0.631-4.717,1.688-6.262,3.178   c-1.555,1.494-2.658,3.516-3.33,6.057c-0.674,2.549-1.006,5.703-1.006,9.451v2.889h86.951c2.266,0,3.398,1.053,3.398,3.17v11.398   c0,2.117-1.133,3.172-3.398,3.172h-86.951v37.508c0,2.121-1.139,3.174-3.398,3.174h-16.715c-2.373,0-3.559-1.053-3.559-3.174   v-59.725c0-6.924,0.797-12.787,2.398-17.6c1.602-4.809,4.123-8.729,7.576-11.758c3.459-3.027,7.918-5.24,13.389-6.637   c5.461-1.393,12.123-2.09,19.963-2.09h68.072c2.369,0,3.557,1.061,3.557,3.174V1350.838z M3077.289,1396.855   c0,6.926-0.771,12.818-2.318,17.674s-4.049,8.805-7.502,11.832c-3.459,3.027-7.951,5.219-13.461,6.561   c-5.521,1.352-12.199,2.021-20.039,2.021h-44.559c-7.838,0-14.484-0.67-19.953-2.021c-5.461-1.342-9.932-3.533-13.383-6.561   c-3.453-3.027-5.986-6.977-7.584-11.832c-1.594-4.855-2.396-10.748-2.396-17.674v-59.721c0-2.113,1.184-3.174,3.557-3.174h16.711   c2.266,0,3.4,1.061,3.4,3.174v57.557c0,3.852,0.334,7.051,1.008,9.598s1.781,4.564,3.33,6.061c1.541,1.49,3.639,2.551,6.268,3.168   c2.631,0.631,5.947,0.936,9.973,0.936h42.861c4.016,0,7.346-0.305,9.973-0.936c2.629-0.617,4.723-1.678,6.268-3.168   c1.543-1.49,2.629-3.514,3.252-6.061c0.617-2.547,0.926-5.746,0.926-9.598v-57.557c0-2.113,1.139-3.174,3.41-3.174h16.857   c2.268,0,3.402,1.061,3.402,3.174V1396.855z M3075.658,1274.943v-75.305c0-0.965-0.418-1.447-1.24-1.447h-1.389   c-1.033,0-1.703,0.389-2.01,1.156l-31.25,64.629c-1.234,2.596-2.506,4.785-3.799,6.568c-1.285,1.781-2.674,3.244-4.17,4.398   c-1.496,1.15-3.205,1.973-5.115,2.453c-1.902,0.477-4.145,0.719-6.721,0.719h-7.434c-2.578,0-4.816-0.242-6.727-0.719   c-1.906-0.48-3.609-1.303-5.102-2.453c-1.498-1.154-2.889-2.617-4.184-4.398c-1.291-1.783-2.555-3.973-3.783-6.568l-31.254-64.629   c-0.313-0.768-0.984-1.156-2.012-1.156h-1.389c-0.834,0-1.242,0.482-1.242,1.447v75.305c0,2.117-1.141,3.172-3.402,3.172h-15.783   c-2.377,0-3.561-1.055-3.561-3.172v-82.809c0-5.48,0.928-9.355,2.789-11.615c1.855-2.256,5.518-3.393,10.982-3.393h16.865   c2.268,0,4.227,0.148,5.879,0.438c1.643,0.289,3.092,0.842,4.334,1.654c1.234,0.825,2.342,1.924,3.32,3.321   c0.984,1.4,1.986,3.248,3.016,5.559l32.188,69.242c0.406,0.865,1.131,1.305,2.164,1.305h1.855c1.037,0,1.754-0.439,2.164-1.305   l32.186-69.242c1.021-2.311,2.029-4.158,3.014-5.559c0.975-1.396,2.086-2.496,3.326-3.321c1.24-0.813,2.652-1.365,4.256-1.654   c1.596-0.289,3.533-0.438,5.803-0.438h16.553c5.357,0,8.971,1.137,10.826,3.393c1.857,2.26,2.789,6.135,2.789,11.615v82.809   c0,2.117-1.188,3.172-3.557,3.172h-15.783C3076.785,1278.115,3075.658,1277.061,3075.658,1274.943z M3223.646,1419.936   c0,5.875-1.135,9.842-3.4,11.906c-2.277,2.07-5.777,3.102-10.521,3.102h-13.301c-2.387,0-4.361-0.096-5.965-0.289   c-1.604-0.191-3.014-0.578-4.252-1.152c-1.24-0.58-2.447-1.416-3.633-2.523c-1.191-1.109-2.559-2.621-4.104-4.541l-57.707-70.41   c-0.623-0.664-1.289-1.008-2.014-1.008h-1.395c-0.82,0-1.232,0.488-1.232,1.447v75.303c0,2.121-1.137,3.174-3.404,3.174h-16.248   c-2.367,0-3.557-1.053-3.557-3.174v-82.807c0-5.861,1.133-9.834,3.404-11.902c2.266-2.068,5.773-3.1,10.525-3.1h13.602   c2.484,0,4.545,0.092,6.189,0.289c1.658,0.191,3.102,0.598,4.342,1.229c1.236,0.623,2.42,1.484,3.561,2.592   c1.129,1.105,2.418,2.576,3.855,4.404l57.564,70.395c0.404,0.676,1.078,1.014,2.004,1.014h1.395c0.824,0,1.23-0.48,1.23-1.439   v-75.309c0-2.113,1.145-3.174,3.418-3.174h16.242c2.266,0,3.4,1.061,3.4,3.174V1419.936z M3221.777,1276.094   c-5.516,1.354-12.197,2.021-20.031,2.021h-44.557c-7.838,0-14.494-0.668-19.961-2.021c-5.465-1.344-9.924-3.533-13.381-6.563   c-3.451-3.029-5.98-6.973-7.578-11.83c-1.602-4.855-2.398-10.748-2.398-17.67v-59.727c0-2.11,1.186-3.178,3.553-3.178h16.713   c2.27,0,3.402,1.068,3.402,3.178v57.561c0,3.85,0.336,7.051,1.002,9.594c0.676,2.549,1.781,4.568,3.322,6.064   c1.561,1.488,3.641,2.545,6.275,3.162c2.629,0.633,5.953,0.941,9.982,0.941h42.855c4.018,0,7.342-0.309,9.971-0.941   c2.639-0.617,4.727-1.674,6.273-3.162c1.547-1.496,2.627-3.516,3.242-6.064c0.623-2.543,0.93-5.744,0.93-9.594v-57.561   c0-2.11,1.137-3.178,3.404-3.178h16.863c2.271,0,3.4,1.068,3.4,3.178v59.727c0,6.922-0.77,12.814-2.314,17.67   c-1.541,4.857-4.047,8.801-7.5,11.83C3231.781,1272.561,3227.295,1274.75,3221.777,1276.094z M3363.971,1394.262   c0,7.025-0.902,13.104-2.705,18.252c-1.811,5.145-4.613,9.375-8.434,12.691c-3.822,3.32-8.719,5.773-14.697,7.355   c-5.984,1.588-13.152,2.383-21.5,2.383h-72.416c-3.092,0-4.635-1.441-4.635-4.326v-92.332c0-2.887,1.543-4.324,4.635-4.324h72.416   c8.348,0,15.516,0.791,21.5,2.377c5.979,1.586,10.875,4.043,14.697,7.359c3.82,3.314,6.623,7.551,8.434,12.691   c1.803,5.152,2.705,11.23,2.705,18.256V1394.262z M3391.422,1263.107c0,5.873-1.137,9.842-3.408,11.908   c-2.268,2.07-5.773,3.1-10.512,3.1h-13.311c-2.373,0-4.357-0.094-5.961-0.289c-1.594-0.195-3.016-0.574-4.244-1.154   c-1.244-0.578-2.453-1.412-3.645-2.52c-1.186-1.113-2.551-2.623-4.098-4.553l-57.707-70.402c-0.621-0.666-1.295-1.006-2.008-1.006   h-1.395c-0.832,0-1.24,0.482-1.24,1.447v75.305c0,2.117-1.133,3.172-3.402,3.172h-16.246c-2.375,0-3.559-1.055-3.559-3.172v-82.809   c0-5.873,1.139-9.83,3.406-11.904c2.262-2.067,5.77-3.104,10.514-3.104h13.619c2.479,0,4.539,0.096,6.193,0.289   c1.645,0.193,3.092,0.602,4.318,1.234c1.25,0.623,2.436,1.485,3.566,2.592c1.139,1.107,2.428,2.57,3.865,4.4l57.555,70.404   c0.41,0.672,1.084,1.004,2.018,1.004h1.393c0.814,0,1.232-0.48,1.232-1.441v-75.305c0-2.11,1.135-3.178,3.404-3.178h16.242   c2.271,0,3.408,1.068,3.408,3.178V1263.107z M3431.029,1274.943c0,2.117-1.145,3.172-3.4,3.172h-16.717   c-2.377,0-3.559-1.055-3.559-3.172v-94.639c0-2.11,1.182-3.178,3.559-3.178h16.717c2.256,0,3.4,1.068,3.4,3.178V1274.943z    M3568.254,1194.439c0,2.215-1.191,3.32-3.563,3.32h-48.572v77.184c0,2.117-1.137,3.172-3.412,3.172h-16.859   c-2.27,0-3.4-1.055-3.4-3.172v-77.184h-48.582c-2.375,0-3.557-1.105-3.557-3.32v-14.135c0-2.11,1.182-3.178,3.557-3.178h120.826   c2.371,0,3.563,1.068,3.563,3.178V1194.439z M3648.086,1247.236v27.707c0,2.117-1.143,3.172-3.402,3.172h-16.715   c-2.373,0-3.559-1.055-3.559-3.172v-27.707l-54.922-67.221c-0.516-0.676-0.645-1.321-0.387-1.954   c0.26-0.617,0.857-0.936,1.779-0.936h20.732c1.652,0,2.887,0.584,3.707,1.736l41.316,52.079l41.615-52.079   c0.822-1.152,2.061-1.736,3.713-1.736h20.27c0.822,0,1.395,0.318,1.703,0.936c0.307,0.633,0.203,1.277-0.309,1.954   L3648.086,1247.236z"
         fill="#ED1C24" /></g></g><g
     id="g49"><path
       d="M1762.138,713.872c-3.061-10.486-17.91-10.486-17.91-10.486c-5.24-18.347-25.322-17.036-25.322-17.036   c-6.533-20.096-20.988-16.163-20.988-16.163c-5.678-17.912-20.313-13.107-20.313-13.107c-14.199,0.872-25.115,16.6-25.557,32.327   c-0.438,15.729,7.43,63.344,78.201,73.831c70.766,10.482,53.729-36.261,53.729-36.261   C1775.677,712.125,1762.138,713.872,1762.138,713.872z M1677.64,683.844c-6.281,6.778-11.008,6.365-10.479,1.543   c0.363-3.347,10.049-16.814,20.662-14.238C1697.159,673.412,1681.341,679.739,1677.64,683.844z M1692.29,697.59   c-5.816,7.152-10.555,7.031-10.352,2.185c0.145-3.367,8.908-17.395,19.674-15.476   C1711.077,685.983,1695.714,693.266,1692.29,697.59z M1709.837,710.514c-5.229,7.555-9.965,7.783-10.145,2.938   c-0.125-3.368,7.49-17.995,18.377-16.874C1727.646,697.56,1712.907,705.954,1709.837,710.514z M1727.011,724.494   c-3.746,8.325-8.363,9.357-9.443,4.623c-0.75-3.295,4.037-18.993,14.957-19.747C1742.13,708.703,1729.179,719.479,1727.011,724.494   z M1748.796,731.905c-3.033,8.591-7.549,9.979-9.021,5.346c-1.027-3.223,2.416-19.242,13.234-20.846   C1762.524,714.992,1750.532,726.736,1748.796,731.905z"
       id="path51" /><path
       d="M421.927,763.237c70.771-10.487,78.639-58.103,78.2-73.831c-0.44-15.728-11.357-31.455-25.557-32.327   c0,0-14.635-4.805-20.314,13.107c0,0-14.452-3.933-20.989,16.163c0,0-20.079-1.311-25.317,17.036c0,0-14.851,0-17.911,10.486   c0,0-13.544-1.747-21.845,13.104C368.193,726.976,351.156,773.719,421.927,763.237z M464.35,671.149   c10.616-2.576,20.298,10.892,20.662,14.238c0.528,4.822-4.195,5.235-10.476-1.543C470.832,679.739,455.017,673.412,464.35,671.149z    M450.563,684.299c10.767-1.919,19.529,12.108,19.675,15.476c0.203,4.847-4.538,4.968-10.354-2.185   C456.461,693.266,441.098,685.983,450.563,684.299z M434.106,696.578c10.886-1.121,18.503,13.506,18.376,16.874   c-0.183,4.846-4.919,4.617-10.146-2.938C439.266,705.954,424.527,697.56,434.106,696.578z M419.646,709.37   c10.926,0.754,15.71,16.452,14.96,19.747c-1.077,4.734-5.698,3.702-9.441-4.623C422.991,719.479,410.046,708.703,419.646,709.37z    M399.166,716.405c10.819,1.604,14.26,17.623,13.232,20.846c-1.471,4.634-5.988,3.245-9.02-5.346   C401.643,726.736,389.647,714.992,399.166,716.405z"
       id="path53" /><polygon
       points="924.782,948.185 924.782,948.191 924.788,948.191  "
       id="polygon55" /><polygon
       points="1233.388,948.191 1233.388,948.185 1233.384,948.191  "
       id="polygon57" /><path
       d="M1751.681,961.122c-1.361-3.472-3.07-7.615-5.135-12.276c-3.557-8.029-8.176-17.59-13.939-27.9   c-0.85-1.521-1.719-3.057-2.623-4.609c-1.055-1.822-2.148-3.666-3.277-5.522c-7.035-11.576-15.443-23.736-25.313-35.482   c-18.746-22.305-42.781-43.126-72.824-55.662l-0.213-0.093c-3.936-6.734-7.717-12.467-11.273-17.132l-0.084-0.134l-0.025-0.012   c-2.684-3.51-5.242-6.425-7.609-8.603c-6.879-4.614-14.326-8.435-22.281-11.493c-3.662-1.408-7.424-2.667-11.305-3.744   c-2.145-0.594-4.328-1.125-6.537-1.619c-10.695-2.39-22.146-3.609-34.322-3.609c-1.951,0-3.861,0.034-5.738,0.094   c-2.584,0.08-5.096,0.212-7.52,0.384c-4.881,0.346-9.4,0.853-13.451,1.423c-1.859,0.263-3.625,0.538-5.277,0.816   c-7.309,1.238-12.48,2.556-14.613,3.137l-0.188-0.104l-0.105,0.188c-0.482,0.132-0.785,0.225-0.811,0.229l-1.039,0.315   l-6.066,11.368c-6.236-7.478-12.855-11.434-19.686-11.775c-5.229-0.257-9.426,1.67-12.201,3.506   c-0.482,0.322-0.932,0.638-1.324,0.941c-0.914-1.145-1.824-2.215-2.738-3.246c-2.086-2.363-4.166-4.454-6.219-6.259   c-1.258-1.11-2.564-2.2-3.885-3.285c-10.955-9.008-23.826-17.158-37.277-24.4c-1.152-0.694-2.41-1.405-3.727-2.125   c-0.037-0.862-0.076-1.779-0.117-2.785c-0.588-14.199-1.74-41.698-13.936-57.568c-5.258-6.841-12.555-11.535-22.762-12.053   c-26.436-1.354-37.639,28.334-41.174,40.833c-1.123-0.377-1.748-0.586-1.748-0.586c-5.105-1.609-9.439-2.903-12.803-3.872   c15.354-16.254,22.947-33.701,25.418-49.624c11.576-16.851,21.084-33.577,28.891-49.757l51.744-31.723l0.836-0.818   c18.26-28.477,25.604-74.567,21.814-137.001c-1.791-29.594-41.539-52.661-44.041-54.086l-28.486-19.623   c-4.787-26.433-10.244-42.981-12.947-50.227h18.045h7.58c0,0-35.395-48.98-38.441-53.296c0,0,0.027,0.046,0.064,0.126   c-46.773-67.389-103.969-99.691-147.277-115.138c-41.178-14.686-76.459-16.878-93.815-16.878c-5.376,0-8.719,0.211-9.669,0.284   c-0.94-0.073-4.28-0.284-9.658-0.284c-17.364,0-52.641,2.192-93.822,16.878c-43.308,15.446-100.497,47.749-147.276,115.138   c0.037-0.08,0.063-0.126,0.063-0.126c-3.047,4.315-38.444,53.296-38.444,53.296h7.583h18.048c-2.7,7.245-8.16,23.794-12.947,50.227   l-28.482,19.623c-2.506,1.425-42.254,24.492-44.049,54.086c-3.787,62.434,3.559,108.524,21.818,137.001l0.834,0.818l51.748,31.723   c7.802,16.18,17.314,32.906,28.893,49.757c2.471,15.923,10.059,33.37,25.414,49.624c-3.363,0.969-7.699,2.263-12.805,3.872   c0,0-0.626,0.209-1.745,0.586c-3.536-12.499-14.738-42.187-41.177-40.833c-14.258,0.721-22.852,9.572-28.103,21.083   c-7.229,15.854-8.105,36.764-8.591,48.538c-0.043,1.006-0.082,1.923-0.122,2.785c-1.313,0.72-2.574,1.431-3.728,2.125   c-15.07,8.115-29.431,17.361-41.161,27.686c-2.944,2.592-5.956,5.738-8.953,9.505c-0.821-0.63-1.846-1.324-3.044-1.974   c-2.678-1.453-6.242-2.683-10.482-2.474c-4.628,0.232-9.161,2.129-13.544,5.653c-2.083,1.674-4.134,3.711-6.144,6.122l-3.818-7.152   l-2.249-4.216l-1.037-0.315c-0.024-0.005-0.325-0.098-0.808-0.229l-0.106-0.188l-0.19,0.104   c-4.237-1.155-20.469-5.209-41.636-5.783c-1.626-0.044-3.279-0.07-4.961-0.07c-0.855,0-1.7,0.026-2.548,0.037   c-14.877,0.21-28.662,2.236-41.258,6.062c-2.346,0.712-4.65,1.483-6.912,2.321c-5.732,2.119-11.2,4.632-16.386,7.547   c-2.511,1.408-4.961,2.904-7.337,4.499c-3.625,3.327-7.665,8.299-11.971,14.663c-1.17,1.727-2.357,3.554-3.56,5.481   c-1.143,1.827-2.297,3.734-3.466,5.735l-0.214,0.093c-3.488,1.453-6.886,3.029-10.216,4.698c-3.852,1.93-7.601,3.99-11.241,6.178   c-16.378,9.834-30.622,22.071-42.894,35.214c-13.288,14.229-24.256,29.51-33.108,43.948c-1.203,1.968-2.373,3.918-3.501,5.85   c-7.728,13.229-13.634,25.489-17.874,35.236c-2.149,4.939-3.868,9.225-5.185,12.67c-0.816,2.146-1.481,3.971-1.991,5.41h3.005   h2.558c0.437-1.192,0.962-2.603,1.571-4.186c1.35-3.494,3.131-7.887,5.37-12.962c0.254-0.568,0.51-1.147,0.771-1.735   c4.476-9.985,10.622-22.354,18.582-35.543c1.263-2.09,2.569-4.2,3.924-6.324c1.415-2.224,2.872-4.458,4.391-6.705   c0.082-0.048,1.922-1.065,4.9-2.641c10.664-5.646,36.145-18.567,49.955-20.805c1.396-0.225,2.688-0.354,3.815-0.342l0.013-0.012   c-0.715,1.852-1.415,3.712-2.106,5.576c-6.751,18.167-12.33,36.681-15.791,53.522c-1.719,8.366-2.912,16.313-3.464,23.6   c-0.225,2.961-0.356,5.829-0.362,8.556h5.235c0-3.274,0.178-6.738,0.502-10.35c0.697-7.777,2.112-16.264,4.09-25.153   c4.031-18.101,10.389-37.865,17.776-56.697c1.455-3.707,2.949-7.378,4.473-10.995c0.499-1.186,1.003-2.37,1.511-3.544l0.005-0.005   h-0.003c9.561-22.173,20.127-41.92,29.301-54.494c2.984-4.091,5.824-7.427,8.431-9.836c5.278-3.532,10.936-6.571,16.929-9.145   c2.377-1.021,4.801-1.975,7.285-2.842c13.008-4.549,27.5-7.008,43.31-7.327c1.183-0.023,2.36-0.051,3.557-0.051   c1.731,0,3.421,0.031,5.09,0.079c1.03,0.03,2.049,0.067,3.052,0.112c0.643,0.03,1.289,0.058,1.92,0.093   c0.319,0.018,0.634,0.039,0.945,0.058c1.135,0.067,2.249,0.146,3.345,0.233c1.007,0.08,1.999,0.165,2.971,0.259   c0.068,0.005,0.135,0.012,0.203,0.021c5.083,0.486,9.671,1.132,13.618,1.804c0.011,0.001,0.021,0.003,0.029,0.005   c4.57,0.776,8.293,1.585,10.898,2.213c-8.279,10.478-29.143,49.193-50.663,185.563h58.481h7.559   c-2.859-123.615,21.821-171.951,43.117-190.688c6.051-5.329,12.85-10.369,20.103-15.115c0.021-0.012,0.04-0.023,0.058-0.035   c6.078-3.978,12.473-7.746,19.025-11.3c2.842-1.54,5.711-3.045,8.594-4.503l0.386,0.013c0.003-0.067,0.006-0.147,0.006-0.211   c3.974-2.004,7.971-3.915,11.96-5.761c4.739-2.191,9.46-4.269,14.114-6.231c16.396-6.91,31.912-12.391,43.937-16.301l2.565-0.509   c-0.013-0.059-0.034-0.16-0.061-0.297c3.089-0.989,5.948-1.879,8.462-2.637c-3.892,3.139-8.348,7.003-12.982,11.509   c-3.049,2.968-6.17,6.215-9.264,9.731c-1.745,1.984-3.478,4.042-5.183,6.191c-13.782,17.387-25.592,40.125-24.964,66.616   c0.003,0.155,0.016,0.311,0.021,0.465c-6.675,29.908,7.73,112.673,126.765,159.062h114.118   c-135.499-10.531-185.006-72.258-185.006-72.258l25.476-24.064c0.75,0.606,1.471,1.211,2.241,1.812   c3.979,3.34,64.438,52.181,193.821,52.554v0.001c0.016,0,0.04-0.001,0.053-0.001c0.023,0,0.042,0.001,0.063,0.001v-0.001   c129.378-0.373,189.835-49.214,193.817-52.554c0.771-0.601,1.494-1.205,2.238-1.812l25.477,24.064   c0,0-49.502,61.727-185.005,72.258h114.114c119.043-46.389,133.439-129.153,126.768-159.062c0.006-0.154,0.021-0.31,0.021-0.465   c0.58-24.509-9.482-45.797-21.908-62.615c-2.52-3.409-5.131-6.635-7.773-9.667c-5.875-6.735-11.885-12.508-17.277-17.209   c-1.896-1.649-3.721-3.176-5.432-4.557c2.512,0.758,5.367,1.647,8.459,2.637c-0.023,0.137-0.041,0.238-0.057,0.297l2.563,0.509   c11.6,3.771,26.441,8.999,42.191,15.565c0.008,0.003,0.018,0.008,0.025,0.012c5.598,2.334,11.307,4.839,17.029,7.508   c3.592,1.674,7.188,3.403,10.762,5.208c0.004,0.063,0.004,0.144,0.008,0.211l0.389-0.013c11.4,5.768,22.559,12.178,32.646,19.192   c5.393,3.749,10.486,7.669,15.137,11.761c5.098,4.484,10.391,10.678,15.453,19.185c16.078,27.024,29.834,77.488,27.664,171.503   h66.033c-21.518-136.369-42.381-175.085-50.662-185.563c5.459-1.314,15.746-3.423,28.688-4.376c2.77-0.205,5.664-0.352,8.652-0.431   c1.553-0.042,3.127-0.069,4.732-0.069c12.398,0,24.004,1.293,34.754,3.841c0.793,0.189,1.572,0.395,2.354,0.595   c1.883,0.488,3.844,1.006,6.775,1.942c6.236,1.995,12.139,4.461,17.707,7.38c2.893,1.514,5.693,3.148,8.4,4.908   c0.361,0.235,0.734,0.459,1.09,0.698c3.805,3.512,8.102,8.999,12.627,15.934c8.113,12.432,16.973,29.533,25.107,48.396h-0.006   l0.006,0.005c2.084,4.831,4.117,9.777,6.08,14.788c1.191,3.05,2.363,6.123,3.496,9.211c6.512,17.706,11.947,35.845,15.268,52.336   c1.627,8.085,2.742,15.767,3.23,22.813c0.18,2.619,0.279,5.157,0.279,7.591h5.232c-0.002-1.983-0.086-4.057-0.209-6.168   c-0.377-6.621-1.318-13.835-2.732-21.449c-2.896-15.596-7.754-32.838-13.783-50.045c-0.982-2.8-1.992-5.599-3.031-8.391   c-0.65-1.737-1.299-3.474-1.967-5.201l0.008,0.012c15.432-0.154,58.262,23.555,58.676,23.787c1.959,2.901,3.83,5.786,5.619,8.643   c1.211,1.938,2.387,3.862,3.523,5.769c7.631,12.794,13.551,24.754,17.877,34.44c2.139,4.784,3.893,9.013,5.273,12.511   c0.941,2.388,1.713,4.439,2.314,6.093h4.607h0.955c-0.451-1.279-1.021-2.857-1.719-4.694   C1752.501,963.229,1752.104,962.207,1751.681,961.122z M510.574,863.209c-9.863,1.989-29.987,7.014-46.48,17.287   c-1.864,1.16-3.686,2.385-5.437,3.686c6.453-8.128,13.601-16.125,21.465-23.661c13.663-13.094,29.497-24.791,47.696-33.318   C521.898,838.074,516.026,850.345,510.574,863.209z M790.469,682.444c3.783-2.994,8.386-4.896,14.022-5.181   c16.524-0.848,26.415,13.708,31.78,25.912C836.248,703.204,810.864,732.594,790.469,682.444z M925.93,946.761l0.006,0.006h-0.006   V946.761z M882.604,921.547l-0.061-0.027c0,0-0.054-0.045-0.074-0.063C882.515,921.486,882.557,921.516,882.604,921.547z    M1234.534,946.767h-0.004l0.004-0.006V946.767z M1277.923,921.52l-0.061,0.027c0.047-0.031,0.086-0.062,0.131-0.091   C1277.976,921.475,1277.923,921.52,1277.923,921.52z M1300.452,645.044c-4.418-6.876-25.689-19.526-11.857-20.997   c15.719-1.663,26.703,20.366,26.512,25.433C1314.833,656.771,1307.991,656.421,1300.452,645.044z M1258.372,701.26   c-2.131,6.976-8.65,4.885-13.033-8.046c-2.504-7.778-19.822-25.456-6.082-23.33C1254.878,672.3,1259.851,696.408,1258.372,701.26z    M1258.581,656.168c15.77,1.173,22.629,24.807,21.535,29.764c-1.564,7.12-8.234,5.554-13.621-6.989   C1263.38,671.387,1244.716,655.137,1258.581,656.168z M1233.772,714.995c-3.52,6.391-9.473,3.007-11.1-10.548   c-0.859-8.126-14.18-28.984-1.166-24.086C1236.3,685.937,1236.216,710.554,1233.772,714.995z M1286.112,663.665   c-3.807-7.235-23.891-21.688-9.99-21.947c15.807-0.296,24.828,22.606,24.203,27.64   C1299.417,676.593,1292.636,675.654,1286.112,663.665z M1419.478,530.255c1.102-5.974,2.096-11.985,2.963-17.671   C1421.646,518.78,1420.653,524.664,1419.478,530.255z M1387.466,393.013c10.729,7.092,35.23,25.534,36.521,46.785   c1.072,17.673,1.217,33.952,0.502,48.892c-10.578,34.745-31.902,33.528-40.066,31.612   C1396.444,458.989,1390.251,409.558,1387.466,393.013z M1080.177,663.187v0.004c0.016,0,0.04-0.001,0.053-0.001   c0.023,0,0.042,0.001,0.063,0.001v-0.004c13.855-0.005,27.469-1.081,40.761-3.131c-3.426,8.343-13.36,23.764-40.006,23.764h-0.755   h-0.063h-0.053h-0.761c-26.645,0-36.577-15.421-40.004-23.764C1052.703,662.106,1066.315,663.182,1080.177,663.187z    M982.414,183.979c37.701,0,68.265,30.563,68.265,68.266s-30.563,68.266-68.265,68.266s-68.266-30.563-68.266-68.266   S944.713,183.979,982.414,183.979z M738.023,512.584c0.869,5.686,1.859,11.697,2.965,17.671   C739.816,524.664,738.821,518.78,738.023,512.584z M735.975,488.69c-0.715-14.939-0.57-31.219,0.502-48.892   c1.291-21.251,25.797-39.693,36.524-46.785c-2.782,16.545-8.979,65.976,3.042,127.289   C767.879,522.218,746.555,523.435,735.975,488.69z M833.602,648.056c-3.802-5.835-7.36-11.652-10.695-17.445   c-61.813-139.32-24.775-242.872-18.191-259.117l3.832-2.642l0.195-1.075c6.426-35.979,14.151-53.605,14.228-53.781l1.637-3.691   h-10.55c-0.412-4.968,1.479-12.571,4.058-20.272c41.851-72.063,95.79-109.935,140.272-129.788   c-85.668,44.31-144.364,133.767-144.364,236.678c0,127.833,90.557,234.904,210.887,260.46c0.708,3.415,8.839,37.643,51.015,39.448   v0.096h3.492h0.761h0.053h0.063h0.755h3.493v-0.096c42.171-1.806,50.308-36.033,51.013-39.448   c120.332-25.556,210.889-132.627,210.889-260.46c0-102.911-58.695-192.368-144.365-236.678   c44.482,19.854,98.422,57.726,140.275,129.788c2.578,7.701,4.469,15.305,4.061,20.272h-10.553l1.633,3.691   c0.076,0.176,7.809,17.802,14.234,53.781l0.189,1.075l3.832,2.642c6.584,16.245,43.621,119.797-18.189,259.117   c-3.338,5.793-6.893,11.61-10.693,17.445c0.311-17.955-5.73-32.836-13.631-39.979c-9.248-8.366-29.773,1.4-43.209,23.904   c-7.143,1.029-13.523,7.635-16.758,16.94c-7.262-0.633-14.828,4.587-19.76,13.117c-8.121-0.927-16.686,5.564-21.564,15.864   c-4.832,2.939-9.223,7.182-12.727,13.776c0,0-11.797,17.039,0,36.04c0,0,1.9,1.76,5.426,4.002   c6.941,4.414,20.188,10.714,37.674,9.188c-15.934,12.91-33.604,25.45-53.238,37.414l-11.834,9.297l-9.24-47.713l-4.018-20.759   l-4.164,2.081c-0.275,0.134-22.156,10.879-53.493,15.309c-8.137,1.152-16.899,1.885-26.101,1.888   c-30.431-0.009-56.191-7.918-69.617-13.005c-6.265-2.374-9.856-4.138-9.967-4.191l-4.163-2.081l-0.877,4.526l-12.391,63.945   l-11.831-9.297c-19.632-11.964-37.304-24.504-53.237-37.414c26.368,2.3,43.102-13.189,43.102-13.189   c1.608-2.587,2.768-5.141,3.588-7.621c5.199-15.706-3.588-28.419-3.588-28.419c-3.509-6.595-7.892-10.837-12.729-13.776   c-4.876-10.3-13.441-16.791-21.564-15.864c-4.933-8.53-12.496-13.75-19.757-13.117c-3.237-9.306-9.621-15.911-16.758-16.94   c-13.438-22.504-33.958-32.271-43.212-23.904C839.326,615.22,833.288,630.101,833.602,648.056z M1080.177,743.667h0.053h0.063   h1.193v-0.025c15.794-0.113,30.317-2.267,42.569-5.043c15.826-3.585,27.865-8.205,33.961-10.811l-1.193,14.618l-5.404,66.196   l-10.965,26.995c-3.611,3.021-27.251,21.652-60.225,21.671c-32.968-0.019-56.606-18.649-60.221-21.671l-10.968-26.995   l-6.595-80.814c10.819,4.622,40.337,15.591,76.534,15.854v0.025H1080.177z M901.883,656.168   c13.867-1.031-4.794,15.219-7.918,22.774c-5.383,12.543-12.053,14.109-13.618,6.989   C879.254,680.975,886.118,657.341,901.883,656.168z M874.352,663.665c-6.521,11.989-13.307,12.929-14.213,5.692   c-0.62-5.033,8.398-27.936,24.208-27.64C898.242,641.976,878.158,656.429,874.352,663.665z M921.209,669.884   c13.737-2.126-3.577,15.552-6.088,23.33c-4.375,12.931-10.896,15.021-13.027,8.046C900.615,696.408,905.582,672.3,921.209,669.884z    M926.693,714.995c-2.445-4.44-2.527-29.058,12.267-34.634c13.011-4.898-0.307,15.96-1.17,24.086   c-0.721,5.988-2.284,9.982-4.108,12.037c-1.745,1.96-3.723,2.131-5.436,0.559C927.696,716.535,927.168,715.863,926.693,714.995z    M845.359,649.48c-0.186-5.066,10.795-27.096,26.518-25.433c13.824,1.471-7.445,14.121-11.867,20.997   C852.472,656.421,845.631,656.771,845.359,649.48z M805.748,830.108v-0.058c0.013,0.036,0.021,0.07,0.026,0.106L805.748,830.108z    M807.981,809.234c-0.668-28,13.634-51.798,28.644-68.962c1.22-1.394,2.442-2.748,3.667-4.057   c4.003-4.278,7.969-8.067,11.639-11.329c5.515-4.903,10.357-8.615,13.592-10.951c3.358,3.169,6.661,6.005,9.908,8.537   c0.558,0.434,1.117,0.879,1.671,1.293c-5.956,5.864-35.98,37.49-34.18,78.085c0.352,8.014,1.943,15.815,4.713,23.398   l-34.057,12.097C810.088,828.026,808.206,818.654,807.981,809.234z M848.094,886.967c-13.398-13.066-23.453-26.292-30.153-39.646   l31.767-16.91c5.745,12.954,15.1,25.222,27.981,36.719L848.094,886.967z M1265.974,864.083l-0.24,0.196   c-0.578,0.495-59.146,49.166-185.504,49.527c-126.355-0.361-184.921-49.032-185.499-49.527l-0.24-0.196   c-24.496-18.977-37.443-40.079-38.479-62.726c-0.805-17.772,6.424-34.507,14.387-47.317c12.059-1.149,18.326,10.227,21.288,18.688   c0.175,1.404,0.412,2.848,0.745,4.347c-3.433,1.674-9.685,5.688-12.09,13.526c-2.931,9.573,0.958,21.367,11.554,35.054   c28.527,36.832,123.527,65.427,186.726,65.662v0.014h0.795h0.761h0.053h0.063h0.755h0.792v-0.014   c63.204-0.235,158.206-28.83,186.729-65.662c10.598-13.687,14.48-25.48,11.553-35.054c-2.402-7.839-8.658-11.853-12.084-13.526   c0.324-1.499,0.566-2.942,0.742-4.347c2.965-8.461,9.229-19.837,21.285-18.688c7.959,12.811,15.193,29.545,14.387,47.317   C1303.417,824.003,1290.472,845.106,1265.974,864.083z M1312.372,886.967l-29.598-19.837   c12.881-11.497,22.234-23.765,27.984-36.719l31.764,16.91C1335.825,860.675,1325.769,873.901,1312.372,886.967z M1354.714,830.05   v0.058l-0.025,0.049C1354.694,830.121,1354.702,830.086,1354.714,830.05z M1320.532,736.606c1.986,2.136,3.977,4.39,5.941,6.758   c14.004,16.88,26.639,39.515,26.006,65.87c-0.223,9.42-2.102,18.792-5.592,28.111l-34.057-12.097   c2.77-7.583,4.361-15.385,4.717-23.398c1.229-27.765-12.428-51.326-23.088-65.33c-0.162-0.216-0.326-0.426-0.49-0.64   c-4.719-6.119-8.787-10.323-10.605-12.115c2.891-2.165,5.83-4.601,8.811-7.281c0.918-0.829,1.84-1.674,2.768-2.549   c0.988,0.717,2.148,1.576,3.416,2.549C1304.05,720.833,1312.235,727.678,1320.532,736.606z M1324.192,703.175   c5.365-12.204,15.256-26.76,31.783-25.912c5.635,0.285,10.236,2.187,14.021,5.181   C1349.599,732.594,1324.216,703.204,1324.192,703.175z M1649.892,863.209c-5.449-12.864-11.322-25.136-17.242-36.007   c0.844,0.396,1.662,0.819,2.494,1.228c13.398,6.568,25.512,14.834,36.375,24.099c5.514,4.699,10.707,9.656,15.592,14.764   c5.248,5.49,10.15,11.158,14.697,16.89C1684.567,871.394,1660.866,865.424,1649.892,863.209z"
       id="path59" /><path
       d="M579.999,770.802c2.142-0.635,4.309-1.23,6.514-1.77c4.837-10.836,8.462-20.232,10.948-27.188   c0.15-0.29,0.307-0.579,0.434-0.845c1.525-3.181,2.545-6.493,3.166-9.858c0.411-1.309,0.628-2.064,0.654-2.168l-0.307-0.081   c1.604-12.146-1.697-24.766-5.364-34.29c5.017,0.072,10.138,0.461,15.339,1.099c2.965,4.628,16.18,27.431,13.697,62.166   c-0.155,2.164-0.38,4.408-0.676,6.718c0.375-0.002,0.745-0.016,1.123-0.016c1.689,0,3.345,0.027,4.981,0.071v-10.515   c0.14-3.476,0.132-6.825,0-10.043v-0.378c0,0.026-0.005,0.052-0.013,0.082c-0.988-23.123-8.206-39.455-12.438-47.129   c45.541,7.462,95.48,33.43,125.796,51.335c4.755-2.947,9.787-5.856,15.086-8.724c0.6-13.923,2.173-39.646,13.404-57.271   c-7.997-19.371-19.971-29.784-20.208-29.981l-0.235-0.176c-22.663-15.151-45.713-20.313-68.503-15.325   c-40.318,8.813-66.644,46.063-71.819,53.937c-5.855-0.695-11.648-1.11-17.304-1.11c-0.137,0-0.274,0-0.411,0.003   c-1.711-3.836-3.293-6.827-4.291-8.603c1.146-1.169,2.218-2.296,3.163-3.363c32.729-36.968,43.365-59.765,45.048-63.655   c20.393-15.415,34.462-47.624,34.462-84.792c0-0.654-0.023-1.299-0.031-1.95c0.011-0.621,0.031-1.234,0.031-1.859   c0-6.017-0.56-11.845-1.581-17.395c-5.967-39.73-28.303-69.948-55.492-72.993l-4.496-11.563l18.962,10.486l-3.755-7.535   c-40.355-81.055-106.233-115.948-154.392-130.953c-52.123-16.237-95.372-13.281-95.606-13.259   c-1.001-0.033-15.232,0.015-33.399,3.52c-66.871,8.178-132.589,54.418-169.271,127.044   c-24.501,48.513-31.813,100.46-24.116,147.101l-0.823-0.485c8.422,43.291,22.508,74.747,39.677,97.413l26.486,51.117   c-1.956,5.34-9.364,28.493,1.133,48.403c6.828,12.942,19.772,21.63,38.46,25.853c11.712,18.656,35.126,54.569,45.729,61.129   c-80.674,67.97-71.359,123.88-71.359,123.88h33.642c0-53.091,39.439-107.972,47.233-118.297c4.312,2.189,8.544,3.591,13.663,3.591   c5.595,0,12.25-1.66,21.22-5.739c1.051-0.477,2.624-1.285,4.62-2.368c-38.207,31.472-45.676,122.813-45.676,122.813s0,0,25.161,0   c0-44.702,14.382-81.964,20.121-95.061c-1.017,5.705-1.066,11.837-0.108,18.151c-0.005-0.016-0.013-0.031-0.019-0.055l2.461,24.895   c0,0,13.063,32.357,48.896,45.972c1.263-3.306,2.923-7.458,5.003-12.274c-13.649-4.523-24.91-12.526-33.428-22.333   c-2.497-2.873-4.73-5.888-6.729-8.991l8.521-18.646l-0.523-0.802c1.753,2.532,3.76,4.858,6.112,6.9   c10.894,9.459,26.075,11.824,38.547,11.824c1.17,0,2.308-0.024,3.425-0.063c1.011-1.798,2.057-3.619,3.137-5.461   c-12.434,0.81-30.128-0.223-41.684-10.267c-8.344-7.248-12.346-18.323-11.998-32.913c10.609,9.231,24.312,17.692,39.717,18.878   c1.001,0.078,2.01,0.115,3.047,0.115c9.807,0,21.217-3.405,33.471-9.186c19.833-25.463,46.135-50.138,79.851-64.843   c6.933-11.562,13.367-20.103,19.146-25.41c0.322-0.299,0.671-0.57,1.035-0.813c8.382-5.625,17.515-10.163,27.342-13.636    M666.971,526.993c-0.652,33.078-18.561,59.694-40.496,59.694c-22.35,0-40.529-27.617-40.529-61.563   c0-33.949,18.18-61.563,40.529-61.563c18.587,0,34.283,19.11,39.041,45.073C666.387,514.55,666.886,520.69,666.971,526.993z    M653.727,471.491c-7.622-8.271-17.047-13.174-27.252-13.174c-25.24,0-45.773,29.972-45.773,66.807   c0,7.414,0.845,14.544,2.382,21.21h-0.005c-13.807,17.208-24.085,2.077-28.356-6.55c-0.272-3.56-0.431-7.176-0.431-10.851   c0-49.206,25.283-89.238,56.358-89.238C627.911,439.695,643.38,452.064,653.727,471.491z M596.387,437.035l-15.326-7.351   c-6.435-14.656-18.434-33.075-18.439-33.085l40.881,22.607l5.954,15.291C604.965,434.632,600.593,435.498,596.387,437.035z    M320.243,330.659c18.21,0,32.971,14.762,32.971,32.97c0,18.21-14.761,32.971-32.971,32.971c-18.208,0-32.97-14.761-32.97-32.971   C287.273,345.42,302.035,330.659,320.243,330.659z M265.83,707.467c0.023-0.204,0.042-0.416,0.063-0.611   c11.366,2.491,22.643,3.522,33.444,3.579c4.158-0.03,8.588-0.191,13.293-0.508c-6.191,7.825-16.047,16.333-29.789,16.615   c-6.667,0.16-11.43-1.566-14.134-5.06C265.568,717.429,265.418,711.602,265.83,707.467z M336.849,832.912   c0,0-13.513,20.18-37.823,2.779c-12.254-11.836-36.132-49.173-46.27-65.797c6.122,4.522,14.307,8.799,24.044,9.581   c1.048,0.086,2.094,0.128,3.145,0.128c8.451,0,16.792-2.813,24.935-8.272l5.431,2.279c0,0,14.091,26.212,22.936,41.614   C342.09,830.621,336.849,832.912,336.849,832.912z M359.818,857.792c1.595,1.743,3.327,3.541,5.188,5.354   c-0.441,5.688-0.299,10.941,0.398,15.768l-0.061-0.365l-12.274,5.515C352.449,873.966,354.612,864.665,359.818,857.792z    M371.304,895.958l-0.629-0.965l-11.836,11.759c-1.954-4.402-3.438-8.858-4.42-13.26l11.517-11.416   C367,887.277,368.813,891.883,371.304,895.958z M583.595,679.289c-0.089,0.058-93.12,59.943-170.407,103.589   c-77.318,43.662-85.838-34.825-85.838-34.825l21.293-25.227l-49.615,46.04c-7.191,4.159-14.481,5.975-21.771,5.39   c-18.376-1.457-31.191-17.66-32.279-19.075l-42.624-82.266c17.178,16.716,36.398,26.597,55.674,31.997l0.183,0.048   c-0.747,5.441-0.961,14.547,4.256,21.305c4.169,5.407,10.772,8.149,19.636,8.149c0.298,0,0.6-0.004,0.897-0.01   c20.694-0.424,33.612-15.327,40.007-25.416c1.561-0.166,3.089-0.319,4.7-0.521c30.13-4.26,51.658-13.871,51.658-13.871   l-0.014-0.003c49.964-19.311,95.444-59.595,123.697-115.533c54.271-107.451,24.43-231.85-66.649-277.854   c-13.241-6.684-27.055-11.287-41.15-14.042c17.267,0.743,44.524,3.594,74.871,13.068c45.575,14.235,107.374,46.691,147.115,120.575   l-86.832-48.008l15.651,45.908l44.089,21.151c-23.912,12.984-41.092,48.006-41.092,89.075c0,52.102,27.632,94.481,61.599,94.481   c6.468,0,12.704-1.546,18.571-4.396c-5.484,9.925-17.423,28.925-40.408,54.89C587.347,675.562,585.588,677.364,583.595,679.289z    M621.295,686.013 M690.936,714.363c3.504-2.255,8.977-4.786,14.413-3.271c5.668,1.586,10.265,7.306,13.731,16.919   C710.296,723.413,700.828,718.767,690.936,714.363z M728.165,676.746c-29.71-8.306-61.602,20.971-61.602,20.971   c-18.722-14.186-45.14-11.758-45.237-11.745c10.294-13.239,32.863-37.723,63.22-44.342c18.252-3.978,36.752-0.944,55.122,8.965   C751.731,658.192,756.317,684.614,728.165,676.746z"
       id="path61" /><path
       d="M1575.563,769.457c14.188,3.653,27.102,9.331,38.604,17.047c0.365,0.243,0.713,0.518,1.033,0.816   c5.783,5.312,12.215,13.849,19.145,25.405c35.902,15.631,63.41,42.615,83.648,69.825c7.697,2.697,14.914,4.205,21.422,4.205   c1.037,0,2.047-0.037,3.045-0.115c15.408-1.186,29.105-9.646,39.717-18.878c0.348,14.59-3.656,25.665-11.998,32.913   c-9.143,7.948-22.131,10.251-33.314,10.466c1.027,1.753,2.025,3.489,2.988,5.205c11.412-0.583,24.219-3.428,33.752-11.704   c2.352-2.042,4.355-4.368,6.109-6.9l-0.523,0.802l8.52,18.646c-1.996,3.104-4.232,6.118-6.727,8.991   c-7.002,8.063-15.855,14.91-26.369,19.604c2.01,4.536,3.674,8.561,5.014,11.955c30.498-14.853,41.828-42.924,41.828-42.924   l2.461-24.895c-0.008,0.023-0.018,0.039-0.021,0.055c0.957-6.314,0.908-12.446-0.109-18.151   c5.744,13.097,20.127,50.358,20.127,95.061c25.158,0,25.158,0,25.158,0s-7.467-91.342-45.676-122.813   c1.996,1.083,3.57,1.892,4.621,2.368c8.969,4.079,15.621,5.739,21.219,5.739c5.117,0,9.35-1.401,13.664-3.591   c7.793,10.325,47.232,65.206,47.232,118.297h33.643c0,0,9.313-55.91-71.357-123.88c10.6-6.56,34.012-42.473,45.727-61.129   c18.684-4.223,31.631-12.91,38.459-25.853c10.498-19.91,3.086-43.063,1.133-48.403l26.49-51.117   c17.162-22.666,31.248-54.122,39.674-97.413l-0.824,0.485c7.697-46.641,0.383-98.588-24.119-147.101   c-36.68-72.626-102.396-118.866-169.271-127.044c-18.164-3.505-32.398-3.553-33.398-3.52c-0.234-0.022-43.479-2.979-95.605,13.259   c-48.156,15.005-114.035,49.898-154.391,130.953l-3.754,7.535l18.961-10.486l-4.496,11.563   c-27.191,3.045-49.527,33.263-55.492,72.993c-1.023,5.55-1.58,11.378-1.58,17.395c0,0.625,0.018,1.238,0.031,1.859   c-0.008,0.651-0.031,1.296-0.031,1.95c0,37.168,14.068,69.377,34.459,84.792c1.686,3.891,12.322,26.688,45.047,63.655   c0.945,1.067,2.018,2.194,3.166,3.363c-0.998,1.775-2.582,4.767-4.291,8.603c-0.137-0.003-0.273-0.003-0.41-0.003   c-5.656,0-11.449,0.415-17.305,1.11c-5.178-7.873-31.5-45.124-71.818-53.937c-22.793-4.987-45.842,0.174-68.504,15.325   l-0.234,0.176c-0.209,0.173-9.453,8.218-17.119,23.273c15.947,17.093,17.885,48.165,18.566,63.979   c3.82,2.066,7.492,4.157,11.033,6.266c30.592-17.742,78.1-41.752,121.594-48.878c-4.232,7.674-11.449,24.006-12.438,47.129   c-0.006-0.03-0.01-0.056-0.014-0.082v0.378c-0.129,3.218-0.139,6.567,0,10.043v10.902c1.988-0.136,4.029-0.242,6.121-0.319   c-0.305-2.354-0.533-4.64-0.689-6.842c-2.484-34.735,10.732-57.538,13.695-62.166c5.203-0.638,10.326-1.026,15.342-1.099   c-3.67,9.524-6.971,22.144-5.367,34.29l-0.307,0.081c0.029,0.104,0.246,0.859,0.654,2.168c0.623,3.365,1.637,6.678,3.166,9.858   c0.129,0.266,0.285,0.555,0.434,0.845c2.342,6.546,5.684,15.248,10.102,25.279c2.111,0.375,4.197,0.793,6.26,1.251    M1433.091,728.011c3.469-9.613,8.063-15.333,13.732-16.919c5.436-1.516,10.908,1.016,14.412,3.271   C1451.343,718.767,1441.878,723.413,1433.091,728.011z M1485.606,697.716c0,0-31.889-29.276-61.598-20.971   c-28.156,7.868-23.566-18.554-11.504-26.151c18.371-9.909,36.867-12.942,55.119-8.965c30.359,6.619,52.93,31.103,63.221,44.342   C1530.747,685.958,1504.331,683.531,1485.606,697.716z M1530.876,686.013 M1852.837,710.435   c10.799-0.057,22.074-1.088,33.441-3.579c0.023,0.195,0.041,0.407,0.063,0.611c0.412,4.135,0.264,9.962-2.877,14.016   c-2.705,3.493-7.465,5.22-14.131,5.06c-13.742-0.282-23.598-8.79-29.789-16.615   C1844.249,710.244,1848.675,710.405,1852.837,710.435z M1541.521,439.695c31.076,0,56.361,40.032,56.361,89.238   c0,3.675-0.158,7.291-0.434,10.851c-4.271,8.627-14.549,23.758-28.355,6.55h-0.006c1.541-6.666,2.383-13.796,2.383-21.21   c0-36.835-20.531-66.807-45.773-66.807c-10.201,0-19.631,4.903-27.252,13.174C1508.794,452.064,1524.259,439.695,1541.521,439.695z    M1542.718,434.498l5.951-15.291l40.881-22.607c-0.004,0.01-12.002,18.429-18.439,33.085l-15.324,7.351   C1551.577,435.498,1547.206,434.632,1542.718,434.498z M1485.2,526.993c0.088-6.303,0.586-12.442,1.457-18.358   c4.758-25.963,20.455-45.073,39.039-45.073c22.35,0,40.531,27.613,40.531,61.563c0,33.946-18.182,61.563-40.531,61.563   C1503.765,586.687,1485.853,560.071,1485.2,526.993z M1793.335,906.751l-11.836-11.759l-0.629,0.965   c2.49-4.074,4.303-8.681,5.367-13.882l11.514,11.416C1796.769,897.893,1795.288,902.349,1793.335,906.751z M1799.101,884.063   l-12.271-5.515l-0.061,0.365c0.697-4.826,0.84-10.08,0.398-15.768c1.859-1.813,3.594-3.611,5.186-5.354   C1797.562,864.665,1799.724,873.966,1799.101,884.063z M1853.147,835.691c-24.313,17.4-37.828-2.779-37.828-2.779   s-5.238-2.291,3.609-17.688c8.844-15.402,22.936-41.614,22.936-41.614l5.428-2.279c8.145,5.46,16.488,8.272,24.939,8.272   c1.049,0,2.094-0.042,3.143-0.128c9.734-0.782,17.922-5.059,24.043-9.581C1889.28,786.518,1865.399,823.855,1853.147,835.691z    M1907.196,755.18c-1.088,1.415-13.906,17.618-32.279,19.075c-7.289,0.585-14.58-1.23-21.773-5.39l-49.613-46.04l21.293,25.227   c0,0-8.52,78.487-85.836,34.825c-77.289-43.646-170.318-103.531-170.412-103.589c-1.992-1.925-3.752-3.727-5.215-5.38   c-22.988-25.965-34.926-44.965-40.408-54.89c5.867,2.85,12.104,4.396,18.568,4.396c33.971,0,61.602-42.38,61.602-94.481   c0-41.069-17.182-76.091-41.092-89.075l44.092-21.151l15.648-45.908l-86.834,48.008c39.744-73.884,101.543-106.34,147.119-120.575   c30.346-9.475,57.605-12.325,74.869-13.068c-14.096,2.755-27.906,7.358-41.148,14.042   c-91.082,46.005-120.922,170.403-66.648,277.854c28.252,55.938,73.732,96.223,123.695,115.533l-0.018,0.003   c0,0,21.531,9.611,51.66,13.871c1.609,0.202,3.139,0.355,4.701,0.521c6.395,10.089,19.311,24.992,40.008,25.416   c0.299,0.006,0.6,0.01,0.896,0.01c8.861,0,15.465-2.742,19.637-8.149c5.213-6.758,5-15.863,4.252-21.305l0.184-0.048   c19.277-5.4,38.498-15.281,55.676-31.997L1907.196,755.18z M1751.876,363.628c0,18.21-14.762,32.971-32.971,32.971   s-32.971-14.761-32.971-32.971c0-18.208,14.762-32.97,32.971-32.97S1751.876,345.42,1751.876,363.628z"
       id="path63" /></g><g
     id="g65"><path
       d="M641.952,1833.686h68.242l44.564-69.615h91.926v69.615h55.416v-300.818h-55.416L641.952,1833.686z M846.685,1713.365   h-59.621l59.621-93.611V1713.365z"
       id="path67" /><path
       d="M981.427,1564.826c-21.215,20.184-40.963,68.475-41.23,117.857h-0.008c0,0.205,0,0.373,0.008,0.566   c-0.008,0.207-0.008,0.379-0.008,0.566h0.008c0.268,49.389,14.049,91.9,35.363,111.998c26.611,25.137,63.359,37.826,95.705,37.826   h127.703v-68.512c-14.41,0-53.227,0-88.297,0c-44.035,0-55.801-8.523-55.801-8.523s-43.795-17.891-45.357-73.379   c1.58-55.449,39.492-73.318,39.492-73.318s17.631-14.395,61.666-14.395c35.07,0,73.887,0,88.297,0v-62.646h-139.453   C1027.169,1532.867,1004.3,1543.074,981.427,1564.826z"
       id="path69" /><polygon
       points="1338.181,1596.154 1365.901,1596.154 1510.222,1596.154 1510.222,1532.867 1250.155,1532.867 1250.155,1837.01    1310.056,1837.01 1310.056,1709.063 1338.181,1709.063 1338.181,1708.945 1480.737,1708.945 1480.737,1648.045 1365.901,1648.045    1338.181,1648.045 1310.056,1648.045 1310.056,1596.154  "
       id="polygon71" /></g><g
     id="g73"><polygon
       points="1076.054,2096.879 1034.175,2096.879 1076.054,2143.309 1117.937,2096.879  "
       id="polygon75" /><polygon
       points="1076.054,2064.07 1151.892,2064.07 1193.771,2021.045 1076.054,2021.045 961.735,2021.045 1002.468,2064.07  "
       id="polygon77" /><polygon
       points="1076.087,2206.49 808.948,1931.047 1076.087,2353.635 1076.087,2353.639 1343.224,1931.047 1076.087,2206.49  "
       id="polygon79" /></g><path
     fill="#ED1C24"
     d="M1083.245,1984.852"
     id="path81" /><g
     id="g83"><path
       d="M1320.065,1358.918c-1.91-1.732-4.414-2.979-7.502-3.752c-3.092-0.771-6.91-1.152-11.441-1.152h-50.756   c-1.334,0-2.01,0.674-2.01,2.014v56.99c0,1.248,0.676,1.873,2.01,1.873h50.756c4.531,0,8.35-0.381,11.441-1.154   c3.088-0.768,5.592-2.023,7.502-3.754s3.27-4.041,4.105-6.92c0.824-2.887,1.23-6.443,1.23-10.676v-15.865   c0-4.238-0.406-7.795-1.23-10.68C1323.335,1362.955,1321.976,1360.65,1320.065,1358.918z"
       id="path85" /><path
       d="M696.575,1201.295c-1.547-1.488-3.635-2.549-6.264-3.176c-2.635-0.625-5.951-0.938-9.982-0.938h-45.943   c-4.029,0-7.355,0.313-9.98,0.938c-2.631,0.627-4.721,1.688-6.271,3.176c-1.547,1.496-2.656,3.514-3.324,6.057   c-0.676,2.549-1.008,5.703-1.008,9.451v21.641c0,3.746,0.332,6.902,1.008,9.451c0.668,2.551,1.777,4.563,3.324,6.059   c1.551,1.49,3.641,2.547,6.271,3.174c2.625,0.627,5.951,0.934,9.98,0.934h45.943c4.031,0,7.348-0.307,9.982-0.934   c2.629-0.627,4.717-1.684,6.264-3.174c1.551-1.496,2.658-3.508,3.33-6.059c0.666-2.549,1.004-5.705,1.004-9.451v-21.641   c0-3.748-0.338-6.9-1.004-9.451C699.233,1204.809,698.126,1202.791,696.575,1201.295z"
       id="path87" /><path
       d="M1111.38,1083.71c2.168-2.117,3.25-5.34,3.25-9.668v-6.063c0-4.326-1.082-7.547-3.25-9.662   c-2.156-2.119-5.879-3.178-11.139-3.178h-57.238c-1.344,0-2.016,0.58-2.016,1.734v30.004h59.254   C1105.501,1086.878,1109.224,1085.82,1111.38,1083.71z"
       id="path89" /><path
       d="M943.099,1056.875c-0.35-0.676-0.818-1.008-1.428-1.008h-0.781c-0.605,0-1.084,0.332-1.43,1.008l-20.416,42.266h44.734   L943.099,1056.875z"
       id="path91" /><path
       d="M219.142,996.033l305.148,482.713h1103.598l305.145-482.713H219.142z M1152.69,1038.55c0-2.115,1.182-3.17,3.557-3.17   h16.709c2.266,0,3.412,1.055,3.412,3.17v38.373h21.805c2.479,0,4.537-0.064,6.191-0.213c1.645-0.148,3.094-0.457,4.33-0.938   c1.24-0.479,2.375-1.158,3.402-2.021c1.035-0.867,2.117-1.969,3.254-3.318l26.609-33.182c0.512-0.674,1.031-1.148,1.547-1.443   c0.512-0.283,1.488-0.428,2.943-0.428h19.176c1.342,0,2.145,0.41,2.402,1.219c0.252,0.826,0.123,1.572-0.387,2.244l-30.012,36.211   c-1.758,2.211-3.381,4.086-4.877,5.623c-1.494,1.539-2.961,2.881-4.406,4.039c4.014,2.309,7.936,5.768,11.754,10.389l31.711,37.508   c0.422,0.482,0.574,1.227,0.475,2.234c-0.109,1.012-0.936,1.52-2.479,1.52h-19.807c-1.34,0-2.271-0.148-2.781-0.441   c-0.52-0.283-1.035-0.764-1.543-1.436l-28.471-34.338c-2.064-2.502-4.285-4.203-6.648-5.121c-2.379-0.912-5.943-1.371-10.682-1.371   h-23.508v39.531c0,2.113-1.146,3.176-3.412,3.176h-16.709c-2.375,0-3.557-1.063-3.557-3.176V1038.55z M1017.315,1039.705   c0-2.887,1.549-4.324,4.646-4.324h83.078c11.857,0,20.367,2.502,25.529,7.496c5.152,5.004,7.732,12.41,7.732,22.217v8.227   c0,8.273-1.805,14.811-5.424,19.623c-3.602,4.809-9.484,7.883-17.629,9.225l26.461,30.582c0.512,0.488,0.662,1.213,0.457,2.17   c-0.207,0.963-1.029,1.447-2.467,1.447h-19.957c-1.346,0-2.275-0.148-2.785-0.441c-0.527-0.283-1.037-0.764-1.549-1.436   l-24.447-30.012h-49.975v28.713c0,2.113-1.135,3.176-3.4,3.176h-16.707c-2.379,0-3.564-1.063-3.564-3.176V1039.705z    M880.294,1133.042l42.65-86.701c2.166-4.326,4.291-7.238,6.375-8.723c2.082-1.496,4.504-2.238,7.277-2.238h7.678   c3.297,0,6.061,0.742,8.318,2.238c2.252,1.484,4.463,4.396,6.631,8.723l43.041,86.701c0.436,0.963,0.543,1.76,0.33,2.381   c-0.221,0.631-0.846,0.943-1.891,0.943H984.19c-1.469,0-2.467-0.629-2.986-1.877l-9.232-18.613h-61.117l-8.971,18.613   c-0.613,1.248-1.607,1.869-2.994,1.869h-16.9c-1.133,0-1.805-0.305-2.02-0.936C879.749,1134.802,879.858,1134.005,880.294,1133.042   z M579.462,1194.439c0,2.215-1.141,3.32-3.406,3.32H507.21c-4.023,0-7.348,0.313-9.984,0.939c-2.627,0.629-4.709,1.682-6.264,3.172   c-1.539,1.494-2.65,3.486-3.322,5.982c-0.67,2.51-1.006,5.68-1.006,9.527v20.484c0,3.85,0.336,7.051,1.006,9.594   c0.672,2.549,1.783,4.568,3.322,6.057c1.555,1.496,3.637,2.553,6.264,3.17c2.637,0.633,5.961,0.941,9.984,0.941h68.846   c2.266,0,3.406,1.064,3.406,3.174v14.143c0,2.111-1.141,3.172-3.406,3.172h-69.771c-7.84,0-14.492-0.668-19.963-2.021   c-5.465-1.344-9.924-3.533-13.375-6.563c-3.461-3.029-5.984-6.973-7.586-11.83c-1.602-4.855-2.4-10.748-2.4-17.67v-24.814   c0-6.922,0.799-12.785,2.4-17.6c1.602-4.809,4.125-8.73,7.586-11.756c3.451-3.035,7.91-5.244,13.375-6.643   c5.471-1.387,12.123-2.092,19.963-2.092h69.771c2.266,0,3.406,1.068,3.406,3.178V1194.439z M724.577,1240.031   c0,6.922-0.775,12.814-2.316,17.67c-1.545,4.857-4.047,8.801-7.508,11.83c-3.453,3.029-7.943,5.219-13.457,6.563   c-5.518,1.354-12.201,2.021-20.035,2.021h-47.805c-7.844,0-14.502-0.668-19.963-2.021c-5.467-1.344-9.93-3.533-13.387-6.563   c-3.453-3.029-5.973-6.973-7.578-11.83c-1.6-4.855-2.393-10.748-2.393-17.67v-24.814c0-6.922,0.793-12.785,2.393-17.6   c1.605-4.809,4.125-8.73,7.578-11.756c3.457-3.035,7.92-5.244,13.387-6.643c5.461-1.387,12.119-2.092,19.963-2.092h47.805   c7.834,0,14.518,0.705,20.035,2.092c5.514,1.399,10.004,3.608,13.457,6.643c3.461,3.025,5.963,6.947,7.508,11.756   c1.541,4.814,2.316,10.678,2.316,17.6V1240.031z M797.753,1263.977l-31.246-64.629c-0.318-0.768-0.984-1.156-2.016-1.156h-1.393   c-0.828,0-1.236,0.482-1.236,1.447v75.305c0,2.111-1.141,3.172-3.408,3.172h-15.777c-2.375,0-3.557-1.061-3.557-3.172v-82.809   c0-5.48,0.93-9.355,2.785-11.615c1.857-2.256,5.514-3.393,10.984-3.393h16.863c2.268,0,4.223,0.148,5.877,0.438   c1.646,0.289,3.104,0.842,4.334,1.654c1.236,0.825,2.344,1.924,3.322,3.321c0.986,1.4,1.996,3.248,3.02,5.559l32.18,69.242   c0.406,0.865,1.135,1.305,2.17,1.305h1.852c1.033,0,1.75-0.439,2.164-1.305l32.186-69.242c1.029-2.311,2.031-4.158,3.012-5.559   c0.979-1.396,2.096-2.496,3.326-3.321c1.238-0.813,2.662-1.365,4.254-1.654c1.6-0.289,3.535-0.438,5.805-0.438h16.555   c5.365,0,8.975,1.137,10.83,3.393c1.854,2.26,2.783,6.135,2.783,11.615v82.809c0,2.117-1.178,3.172-3.561,3.172h-15.779   c-2.264,0-3.398-1.055-3.398-3.172v-75.305c0-0.965-0.414-1.447-1.24-1.447h-1.393c-1.031,0-1.701,0.389-2.008,1.156   l-31.252,64.629c-1.238,2.596-2.508,4.785-3.795,6.568c-1.289,1.781-2.676,3.244-4.18,4.398c-1.49,1.15-3.195,1.973-5.105,2.453   c-1.906,0.477-4.154,0.719-6.73,0.719h-7.422c-2.58,0-4.822-0.242-6.729-0.719c-1.918-0.48-3.613-1.303-5.105-2.453   c-1.494-1.154-2.889-2.617-4.176-4.398C800.257,1268.762,798.993,1266.572,797.753,1263.977z M918.056,1350.838   c0,2.119-1.188,3.176-3.557,3.176h-67.152c-4.02,0-7.344,0.313-9.977,0.934c-2.629,0.631-4.717,1.688-6.262,3.178   c-1.555,1.494-2.658,3.516-3.33,6.057c-0.674,2.549-1.006,5.703-1.006,9.451v2.889h86.951c2.266,0,3.398,1.053,3.398,3.17v11.398   c0,2.117-1.133,3.172-3.398,3.172h-86.951v37.508c0,2.121-1.139,3.174-3.398,3.174h-16.715c-2.373,0-3.559-1.053-3.559-3.174   v-59.725c0-6.924,0.797-12.787,2.398-17.6c1.602-4.809,4.123-8.729,7.576-11.758c3.459-3.027,7.918-5.24,13.389-6.637   c5.461-1.393,12.123-2.09,19.963-2.09h68.072c2.369,0,3.557,1.061,3.557,3.174V1350.838z M1062.394,1396.855   c0,6.926-0.771,12.818-2.318,17.674s-4.049,8.805-7.502,11.832c-3.459,3.027-7.951,5.219-13.461,6.561   c-5.521,1.352-12.199,2.021-20.039,2.021h-44.559c-7.838,0-14.484-0.67-19.953-2.021c-5.461-1.342-9.932-3.533-13.383-6.561   c-3.453-3.027-5.986-6.977-7.584-11.832c-1.594-4.855-2.396-10.748-2.396-17.674v-59.721c0-2.113,1.184-3.174,3.557-3.174h16.711   c2.266,0,3.4,1.061,3.4,3.174v57.557c0,3.852,0.334,7.051,1.008,9.598s1.781,4.564,3.33,6.061c1.541,1.49,3.639,2.551,6.268,3.168   c2.631,0.631,5.947,0.936,9.973,0.936h42.861c4.016,0,7.346-0.305,9.973-0.936c2.629-0.617,4.723-1.678,6.268-3.168   c1.543-1.49,2.629-3.514,3.252-6.061c0.617-2.547,0.926-5.746,0.926-9.598v-57.557c0-2.113,1.139-3.174,3.41-3.174h16.857   c2.268,0,3.402,1.061,3.402,3.174V1396.855z M1060.763,1274.943v-75.305c0-0.965-0.418-1.447-1.24-1.447h-1.389   c-1.033,0-1.703,0.389-2.01,1.156l-31.25,64.629c-1.234,2.596-2.506,4.785-3.799,6.568c-1.285,1.781-2.674,3.244-4.17,4.398   c-1.496,1.15-3.205,1.973-5.115,2.453c-1.902,0.477-4.145,0.719-6.721,0.719h-7.434c-2.578,0-4.816-0.242-6.727-0.719   c-1.906-0.48-3.609-1.303-5.102-2.453c-1.498-1.154-2.889-2.617-4.184-4.398c-1.291-1.783-2.555-3.973-3.783-6.568l-31.254-64.629   c-0.313-0.768-0.984-1.156-2.012-1.156h-1.389c-0.834,0-1.242,0.482-1.242,1.447v75.305c0,2.117-1.141,3.172-3.402,3.172h-15.783   c-2.377,0-3.561-1.055-3.561-3.172v-82.809c0-5.48,0.928-9.355,2.789-11.615c1.855-2.256,5.518-3.393,10.982-3.393h16.865   c2.268,0,4.227,0.148,5.879,0.438c1.643,0.289,3.092,0.842,4.334,1.654c1.234,0.825,2.342,1.924,3.32,3.321   c0.984,1.4,1.986,3.248,3.016,5.559l32.188,69.242c0.406,0.865,1.131,1.305,2.164,1.305h1.855c1.037,0,1.754-0.439,2.164-1.305   l32.186-69.242c1.021-2.311,2.029-4.158,3.014-5.559c0.975-1.396,2.086-2.496,3.326-3.321c1.24-0.813,2.652-1.365,4.256-1.654   c1.596-0.289,3.533-0.438,5.803-0.438h16.553c5.357,0,8.971,1.137,10.826,3.393c1.857,2.26,2.789,6.135,2.789,11.615v82.809   c0,2.117-1.188,3.172-3.557,3.172h-15.783C1061.89,1278.115,1060.763,1277.061,1060.763,1274.943z M1208.751,1419.936   c0,5.875-1.135,9.842-3.4,11.906c-2.277,2.07-5.777,3.102-10.521,3.102h-13.301c-2.387,0-4.361-0.096-5.965-0.289   c-1.604-0.191-3.014-0.578-4.252-1.152c-1.24-0.58-2.447-1.416-3.633-2.523c-1.191-1.109-2.559-2.621-4.104-4.541l-57.707-70.41   c-0.623-0.664-1.289-1.008-2.014-1.008h-1.395c-0.82,0-1.232,0.488-1.232,1.447v75.303c0,2.121-1.137,3.174-3.404,3.174h-16.248   c-2.367,0-3.557-1.053-3.557-3.174v-82.807c0-5.861,1.133-9.834,3.404-11.902c2.266-2.068,5.773-3.1,10.525-3.1h13.602   c2.484,0,4.545,0.092,6.189,0.289c1.658,0.191,3.102,0.598,4.342,1.229c1.236,0.623,2.42,1.484,3.561,2.592   c1.129,1.105,2.418,2.576,3.855,4.404l57.564,70.395c0.404,0.676,1.078,1.014,2.004,1.014h1.395c0.824,0,1.23-0.48,1.23-1.439   v-75.309c0-2.113,1.145-3.174,3.418-3.174h16.242c2.266,0,3.4,1.061,3.4,3.174V1419.936z M1206.882,1276.094   c-5.516,1.354-12.197,2.021-20.031,2.021h-44.557c-7.838,0-14.494-0.668-19.961-2.021c-5.465-1.344-9.924-3.533-13.381-6.563   c-3.451-3.029-5.98-6.973-7.578-11.83c-1.602-4.855-2.398-10.748-2.398-17.67v-59.727c0-2.11,1.186-3.178,3.553-3.178h16.713   c2.27,0,3.402,1.068,3.402,3.178v57.561c0,3.85,0.336,7.051,1.002,9.594c0.676,2.549,1.781,4.568,3.322,6.064   c1.561,1.488,3.641,2.545,6.275,3.162c2.629,0.633,5.953,0.941,9.982,0.941h42.855c4.018,0,7.342-0.309,9.971-0.941   c2.639-0.617,4.727-1.674,6.273-3.162c1.547-1.496,2.627-3.516,3.242-6.064c0.623-2.543,0.93-5.744,0.93-9.594v-57.561   c0-2.11,1.137-3.178,3.404-3.178h16.863c2.271,0,3.4,1.068,3.4,3.178v59.727c0,6.922-0.77,12.814-2.314,17.67   c-1.541,4.857-4.047,8.801-7.5,11.83C1216.886,1272.561,1212.399,1274.75,1206.882,1276.094z M1349.075,1394.262   c0,7.025-0.902,13.104-2.705,18.252c-1.811,5.145-4.613,9.375-8.434,12.691c-3.822,3.32-8.719,5.773-14.697,7.355   c-5.984,1.588-13.152,2.383-21.5,2.383h-72.416c-3.092,0-4.635-1.441-4.635-4.326v-92.332c0-2.887,1.543-4.324,4.635-4.324h72.416   c8.348,0,15.516,0.791,21.5,2.377c5.979,1.586,10.875,4.043,14.697,7.359c3.82,3.314,6.623,7.551,8.434,12.691   c1.803,5.152,2.705,11.23,2.705,18.256V1394.262z M1376.526,1263.107c0,5.873-1.137,9.842-3.408,11.908   c-2.268,2.07-5.773,3.1-10.512,3.1h-13.311c-2.373,0-4.357-0.094-5.961-0.289c-1.594-0.195-3.016-0.574-4.244-1.154   c-1.244-0.578-2.453-1.412-3.645-2.52c-1.186-1.113-2.551-2.623-4.098-4.553l-57.707-70.402c-0.621-0.666-1.295-1.006-2.008-1.006   h-1.395c-0.832,0-1.24,0.482-1.24,1.447v75.305c0,2.117-1.133,3.172-3.402,3.172h-16.246c-2.375,0-3.559-1.055-3.559-3.172v-82.809   c0-5.873,1.139-9.83,3.406-11.904c2.262-2.067,5.77-3.104,10.514-3.104h13.619c2.479,0,4.539,0.096,6.193,0.289   c1.645,0.193,3.092,0.602,4.318,1.234c1.25,0.623,2.436,1.485,3.566,2.592c1.139,1.107,2.428,2.57,3.865,4.4l57.555,70.404   c0.41,0.672,1.084,1.004,2.018,1.004h1.393c0.814,0,1.232-0.48,1.232-1.441v-75.305c0-2.11,1.135-3.178,3.404-3.178h16.242   c2.271,0,3.408,1.068,3.408,3.178V1263.107z M1416.134,1274.943c0,2.117-1.145,3.172-3.4,3.172h-16.717   c-2.377,0-3.559-1.055-3.559-3.172v-94.639c0-2.11,1.182-3.178,3.559-3.178h16.717c2.256,0,3.4,1.068,3.4,3.178V1274.943z    M1553.358,1194.439c0,2.215-1.191,3.32-3.563,3.32h-48.572v77.184c0,2.117-1.137,3.172-3.412,3.172h-16.859   c-2.27,0-3.4-1.055-3.4-3.172v-77.184h-48.582c-2.375,0-3.557-1.105-3.557-3.32v-14.135c0-2.11,1.182-3.178,3.557-3.178h120.826   c2.371,0,3.563,1.068,3.563,3.178V1194.439z M1633.19,1247.236v27.707c0,2.117-1.143,3.172-3.402,3.172h-16.715   c-2.373,0-3.559-1.055-3.559-3.172v-27.707l-54.922-67.221c-0.516-0.676-0.645-1.321-0.387-1.954   c0.26-0.617,0.857-0.936,1.779-0.936h20.732c1.652,0,2.887,0.584,3.707,1.736l41.316,52.079l41.615-52.079   c0.822-1.152,2.061-1.736,3.713-1.736h20.27c0.822,0,1.395,0.318,1.703,0.936c0.307,0.633,0.203,1.277-0.309,1.954   L1633.19,1247.236z"
       id="path93" /></g></svg>