<?xml version="1.0" encoding="utf-8"?>
<!-- Generator: Adobe Illustrator 16.0.0, SVG Export Plug-In . SVG Version: 6.00 Build 0)  -->
<!DOCTYPE svg PUBLIC "-//W3C//DTD SVG 1.1//EN" "http://www.w3.org/Graphics/SVG/1.1/DTD/svg11.dtd">
<svg version="1.1" id="Layer_1" xmlns="http://www.w3.org/2000/svg" xmlns:xlink="http://www.w3.org/1999/xlink" x="0px" y="0px"
	 width="1282px" height="1659.059px" viewBox="0 0 1282 1659.059" enable-background="new 0 0 1282 1659.059" xml:space="preserve">
<g>
	<linearGradient id="SVGID_1_" gradientUnits="userSpaceOnUse" x1="468.4165" y1="83.8892" x2="107.756" y2="487.8985">
		<stop  offset="0" style="stop-color:#27AAE1"/>
		<stop  offset="0.1818" style="stop-color:#27AAE1;stop-opacity:0.13"/>
		<stop  offset="0.4848" style="stop-color:#27AAE1;stop-opacity:0"/>
		<stop  offset="0.7273" style="stop-color:#27AAE1;stop-opacity:0.13"/>
		<stop  offset="1" style="stop-color:#60499E"/>
	</linearGradient>
	<path fill-rule="evenodd" clip-rule="evenodd" fill="url(#SVGID_1_)" d="M293.508,265.938c16.462,0.478,33.376,3.112,48.791,3.292
		c-21.188-5.616-41.745-12.1-63.275-17.248c5.166,20.969,8.565,41.259,14.417,60.923
		C293.181,297.043,292.306,280.734,293.508,265.938z"/>
	<linearGradient id="SVGID_2_" gradientUnits="userSpaceOnUse" x1="463.582" y1="79.5752" x2="102.923" y2="483.5829">
		<stop  offset="0" style="stop-color:#27AAE1"/>
		<stop  offset="0.1818" style="stop-color:#27AAE1;stop-opacity:0.13"/>
		<stop  offset="0.4848" style="stop-color:#27AAE1;stop-opacity:0"/>
		<stop  offset="0.7273" style="stop-color:#27AAE1;stop-opacity:0.13"/>
		<stop  offset="1" style="stop-color:#60499E"/>
	</linearGradient>
	<path fill-rule="evenodd" clip-rule="evenodd" fill="url(#SVGID_2_)" d="M243.972,313.669c16.221-0.753,32.801,0.776,47.823-0.067
		c-20.829-4.374-41.007-9.644-62.241-13.462c5.646,20.891,10.955,42.243,17.256,62.232
		C245.824,346.109,244.137,329.335,243.972,313.669z"/>
	<linearGradient id="SVGID_3_" gradientUnits="userSpaceOnUse" x1="681.7705" y1="274.3501" x2="321.1075" y2="678.3623">
		<stop  offset="0" style="stop-color:#27AAE1"/>
		<stop  offset="0.1818" style="stop-color:#27AAE1;stop-opacity:0.13"/>
		<stop  offset="0.4848" style="stop-color:#27AAE1;stop-opacity:0"/>
		<stop  offset="0.7273" style="stop-color:#27AAE1;stop-opacity:0.13"/>
		<stop  offset="1" style="stop-color:#60499E"/>
	</linearGradient>
	<path fill-rule="evenodd" clip-rule="evenodd" fill="url(#SVGID_3_)" d="M625.789,272.006
		c12.145,29.671,23.984,59.76,35.316,90.548c-5.332-24.273-12.834-48.342-18.536-70.37c11.023-0.21,22.147,2.215,31.911,2
		C658.267,286.769,642.581,278.627,625.789,272.006z"/>
	<linearGradient id="SVGID_4_" gradientUnits="userSpaceOnUse" x1="465.5938" y1="81.3701" x2="104.9326" y2="485.3801">
		<stop  offset="0" style="stop-color:#27AAE1"/>
		<stop  offset="0.1818" style="stop-color:#27AAE1;stop-opacity:0.13"/>
		<stop  offset="0.4848" style="stop-color:#27AAE1;stop-opacity:0"/>
		<stop  offset="0.7273" style="stop-color:#27AAE1;stop-opacity:0.13"/>
		<stop  offset="1" style="stop-color:#60499E"/>
	</linearGradient>
	<path fill-rule="evenodd" clip-rule="evenodd" fill="url(#SVGID_4_)" d="M199.459,365.437c16.458-1.318,31.338-0.867,46.562-2.501
		c-20.616-3.452-41.009-7.209-61.408-10.96c6.766,21.957,13.963,43.317,21.514,64.195
		C203.197,397.235,200.896,383.348,199.459,365.437z"/>
	<linearGradient id="SVGID_5_" gradientUnits="userSpaceOnUse" x1="472.1689" y1="87.2451" x2="111.5111" y2="491.2514">
		<stop  offset="0" style="stop-color:#27AAE1"/>
		<stop  offset="0.1818" style="stop-color:#27AAE1;stop-opacity:0.13"/>
		<stop  offset="0.4848" style="stop-color:#27AAE1;stop-opacity:0"/>
		<stop  offset="0.7273" style="stop-color:#27AAE1;stop-opacity:0.13"/>
		<stop  offset="1" style="stop-color:#60499E"/>
	</linearGradient>
	<path fill-rule="evenodd" clip-rule="evenodd" fill="url(#SVGID_5_)" d="M161.119,420.183c14.732-2.007,29.856-1.776,43.656-4.238
		c-19.99-2.576-39.214-6.204-59.29-8.661c8.509,21.123,16.903,42.404,26.089,62.597C168.26,453.427,163.1,436.731,161.119,420.183z"
		/>
	<linearGradient id="SVGID_6_" gradientUnits="userSpaceOnUse" x1="484.293" y1="98.0596" x2="123.6307" y2="502.0709">
		<stop  offset="0" style="stop-color:#27AAE1"/>
		<stop  offset="0.1818" style="stop-color:#27AAE1;stop-opacity:0.13"/>
		<stop  offset="0.4848" style="stop-color:#27AAE1;stop-opacity:0"/>
		<stop  offset="0.7273" style="stop-color:#27AAE1;stop-opacity:0.13"/>
		<stop  offset="1" style="stop-color:#60499E"/>
	</linearGradient>
	<path fill-rule="evenodd" clip-rule="evenodd" fill="url(#SVGID_6_)" d="M129.54,476.059c13.37-1.351,28.413-2.224,41.38-4.758
		c-19.217-2.422-38.271-5.067-57.014-8.141c10.235,21.875,21.062,42.941,32.354,63.367
		C140.521,509.931,134.542,493.667,129.54,476.059z"/>
	<linearGradient id="SVGID_7_" gradientUnits="userSpaceOnUse" x1="717.5879" y1="306.3228" x2="356.9244" y2="710.3354">
		<stop  offset="0" style="stop-color:#27AAE1"/>
		<stop  offset="0.1818" style="stop-color:#27AAE1;stop-opacity:0.13"/>
		<stop  offset="0.4848" style="stop-color:#27AAE1;stop-opacity:0"/>
		<stop  offset="0.7273" style="stop-color:#27AAE1;stop-opacity:0.13"/>
		<stop  offset="1" style="stop-color:#60499E"/>
	</linearGradient>
	<path fill-rule="evenodd" clip-rule="evenodd" fill="url(#SVGID_7_)" d="M483.326,515.604
		c5.555,27.315,10.691,61.902,16.318,86.956c0.881-23.247,2.141-46.218,2.627-69.75c22.568-1.443,44.774-2.821,67.479-6.232
		c-29.185-3.663-57.895-7.977-86.626-12.259C483.191,514.749,483.259,515.176,483.326,515.604z"/>
	<linearGradient id="SVGID_8_" gradientUnits="userSpaceOnUse" x1="713.0322" y1="302.2578" x2="352.3702" y2="706.2688">
		<stop  offset="0" style="stop-color:#27AAE1"/>
		<stop  offset="0.1818" style="stop-color:#27AAE1;stop-opacity:0.13"/>
		<stop  offset="0.4848" style="stop-color:#27AAE1;stop-opacity:0"/>
		<stop  offset="0.7273" style="stop-color:#27AAE1;stop-opacity:0.13"/>
		<stop  offset="1" style="stop-color:#60499E"/>
	</linearGradient>
	<path fill-rule="evenodd" clip-rule="evenodd" fill="url(#SVGID_8_)" d="M403.984,588.652
		c5.823,25.692,10.008,52.075,15.759,77.827c2.001-20.029,2.458-41.183,4.898-60.892c23.896-0.358,49.226,0.09,73.357-2.33
		c-31.841-4.179-62.459-10.036-93.655-15.101C404.087,588.222,403.847,588.3,403.984,588.652z"/>
	<linearGradient id="SVGID_9_" gradientUnits="userSpaceOnUse" x1="534.7969" y1="143.147" x2="174.1387" y2="547.1537">
		<stop  offset="0" style="stop-color:#27AAE1"/>
		<stop  offset="0.1818" style="stop-color:#27AAE1;stop-opacity:0.13"/>
		<stop  offset="0.4848" style="stop-color:#27AAE1;stop-opacity:0"/>
		<stop  offset="0.7273" style="stop-color:#27AAE1;stop-opacity:0.13"/>
		<stop  offset="1" style="stop-color:#60499E"/>
	</linearGradient>
	<path fill-rule="evenodd" clip-rule="evenodd" fill="url(#SVGID_9_)" d="M509.109,146.87c16.525,7.855,32.102,17.014,47.585,26.301
		c2.834,1.307-1.093-1.553-1.126-1.578c-18.207-14.196-37.592-27.059-56.593-38.927c-0.927-0.578-1.893-2.669-3.336-1.67
		c4.075,16.798,7.696,34.22,11.582,51.278C508.084,170.642,508.422,158.628,509.109,146.87z"/>
	<linearGradient id="SVGID_10_" gradientUnits="userSpaceOnUse" x1="560.2305" y1="165.8506" x2="199.576" y2="569.8531">
		<stop  offset="0" style="stop-color:#27AAE1"/>
		<stop  offset="0.1818" style="stop-color:#27AAE1;stop-opacity:0.13"/>
		<stop  offset="0.4848" style="stop-color:#27AAE1;stop-opacity:0"/>
		<stop  offset="0.7273" style="stop-color:#27AAE1;stop-opacity:0.13"/>
		<stop  offset="1" style="stop-color:#60499E"/>
	</linearGradient>
	<path fill-rule="evenodd" clip-rule="evenodd" fill="url(#SVGID_10_)" d="M558.67,143.896c14.73,9.626,29.189,22.403,42.759,31.888
		c-17.656-14.839-35.429-32.931-53.457-46.88c-0.766-0.592-2.023-2.694-3.334-1.67c5.413,14.45,10.316,32.34,14.4,46.884
		C559.86,164.732,558.479,153.743,558.67,143.896z"/>
	<linearGradient id="SVGID_11_" gradientUnits="userSpaceOnUse" x1="511.5674" y1="122.4102" x2="150.9074" y2="526.4189">
		<stop  offset="0" style="stop-color:#27AAE1"/>
		<stop  offset="0.1818" style="stop-color:#27AAE1;stop-opacity:0.13"/>
		<stop  offset="0.4848" style="stop-color:#27AAE1;stop-opacity:0"/>
		<stop  offset="0.7273" style="stop-color:#27AAE1;stop-opacity:0.13"/>
		<stop  offset="1" style="stop-color:#60499E"/>
	</linearGradient>
	<path fill-rule="evenodd" clip-rule="evenodd" fill="url(#SVGID_11_)" d="M455.87,162.708
		c16.944,5.544,33.073,12.207,49.075,19.046c1.135,0.702,0.97-0.346-0.067-0.428c-17.604-10.531-37.27-21.155-55.313-30.79
		c-2.628-1.403-5.617-3.959-7.525-3.205c3.979,17.579,6.921,39.921,10.769,54.478C453.688,188.673,454.204,175.272,455.87,162.708z"
		/>
	<linearGradient id="SVGID_12_" gradientUnits="userSpaceOnUse" x1="584.4541" y1="187.4766" x2="223.7873" y2="591.4929">
		<stop  offset="0" style="stop-color:#27AAE1"/>
		<stop  offset="0.1818" style="stop-color:#27AAE1;stop-opacity:0.13"/>
		<stop  offset="0.4848" style="stop-color:#27AAE1;stop-opacity:0"/>
		<stop  offset="0.7273" style="stop-color:#27AAE1;stop-opacity:0.13"/>
		<stop  offset="1" style="stop-color:#60499E"/>
	</linearGradient>
	<path fill-rule="evenodd" clip-rule="evenodd" fill="url(#SVGID_12_)" d="M600.965,156.109
		c9.183,8.645,20.336,20.975,27.752,28.545c-13.584-16.062-27.391-31.819-41.985-46.491c6.591,12.994,12.698,26.652,18.662,40.507
		C604.712,170.406,601.705,162.56,600.965,156.109z"/>
	<linearGradient id="SVGID_13_" gradientUnits="userSpaceOnUse" x1="492.3945" y1="105.2935" x2="131.7316" y2="509.3055">
		<stop  offset="0" style="stop-color:#27AAE1"/>
		<stop  offset="0.1818" style="stop-color:#27AAE1;stop-opacity:0.13"/>
		<stop  offset="0.4848" style="stop-color:#27AAE1;stop-opacity:0"/>
		<stop  offset="0.7273" style="stop-color:#27AAE1;stop-opacity:0.13"/>
		<stop  offset="1" style="stop-color:#60499E"/>
	</linearGradient>
	<path fill-rule="evenodd" clip-rule="evenodd" fill="url(#SVGID_13_)" d="M400.754,188.938
		c16.867,3.394,32.533,8.437,48.921,12.487c0.036,0.237,0.424,0.432,0.428-0.067c-17.861-8.219-37.658-16.942-55.653-24.593
		c-2.789-1.186-5.632-3.176-7.391-2.348c3.612,18.71,6.519,40.371,10.677,56.686C398.584,216.932,398.994,202.443,400.754,188.938z"
		/>
	<linearGradient id="SVGID_14_" gradientUnits="userSpaceOnUse" x1="478.2559" y1="92.6729" x2="117.5952" y2="496.6823">
		<stop  offset="0" style="stop-color:#27AAE1"/>
		<stop  offset="0.1818" style="stop-color:#27AAE1;stop-opacity:0.13"/>
		<stop  offset="0.4848" style="stop-color:#27AAE1;stop-opacity:0"/>
		<stop  offset="0.7273" style="stop-color:#27AAE1;stop-opacity:0.13"/>
		<stop  offset="1" style="stop-color:#60499E"/>
	</linearGradient>
	<path fill-rule="evenodd" clip-rule="evenodd" fill="url(#SVGID_14_)" d="M344.175,258.841c0.412-11.909,0.753-24.273,1.955-34.977
		c17.032,2.125,33.289,5.316,49.961,7.935c-18.768-7.08-43.131-15.875-64.083-22.388c3.383,20.881,9.579,42.701,10.855,60.606
		C345.133,266.896,344.045,262.604,344.175,258.841z"/>
	<linearGradient id="SVGID_15_" gradientUnits="userSpaceOnUse" x1="619.0479" y1="218.3589" x2="258.3705" y2="622.3871">
		<stop  offset="0" style="stop-color:#27AAE1"/>
		<stop  offset="0.1818" style="stop-color:#27AAE1;stop-opacity:0.13"/>
		<stop  offset="0.4848" style="stop-color:#27AAE1;stop-opacity:0"/>
		<stop  offset="0.7273" style="stop-color:#27AAE1;stop-opacity:0.13"/>
		<stop  offset="1" style="stop-color:#60499E"/>
	</linearGradient>
	<path fill-rule="evenodd" clip-rule="evenodd" fill="url(#SVGID_15_)" d="M653.221,217.661c1.643,2.445,3.685,5.52,2.185,2.728
		c-9.624-17.922-23.589-35.441-34.051-49.057c4.523,7.675,10.571,13.256,14.412,21.868
		C643.224,201.433,648.416,210.508,653.221,217.661z"/>
	<linearGradient id="SVGID_16_" gradientUnits="userSpaceOnUse" x1="653.5176" y1="249.1284" x2="292.8565" y2="653.1383">
		<stop  offset="0" style="stop-color:#27AAE1"/>
		<stop  offset="0.1818" style="stop-color:#27AAE1;stop-opacity:0.13"/>
		<stop  offset="0.4848" style="stop-color:#27AAE1;stop-opacity:0"/>
		<stop  offset="0.7273" style="stop-color:#27AAE1;stop-opacity:0.13"/>
		<stop  offset="1" style="stop-color:#60499E"/>
	</linearGradient>
	<path fill-rule="evenodd" clip-rule="evenodd" fill="url(#SVGID_16_)" d="M635.375,213.009c-1.203-0.875-2.908-2.556-4.26-1.963
		c14.907,25.183,28.146,52.656,41.902,79.418c-8.06-21.395-17.675-40.651-26.677-60.75c7.396,1.996,14.688,6.906,20.729,9.025
		C656.837,230.712,645.73,220.549,635.375,213.009z"/>
	<linearGradient id="SVGID_17_" gradientUnits="userSpaceOnUse" x1="500.3584" y1="112.4063" x2="139.697" y2="516.4166">
		<stop  offset="0" style="stop-color:#27AAE1"/>
		<stop  offset="0.1818" style="stop-color:#27AAE1;stop-opacity:0.13"/>
		<stop  offset="0.4848" style="stop-color:#27AAE1;stop-opacity:0"/>
		<stop  offset="0.7273" style="stop-color:#27AAE1;stop-opacity:0.13"/>
		<stop  offset="1" style="stop-color:#60499E"/>
	</linearGradient>
	<path fill-rule="evenodd" clip-rule="evenodd" fill="url(#SVGID_17_)" d="M107.652,532.164c13.009-2.071,26.595-2.157,38.743-4.781
		c-18.92-2.137-37.086-5.307-55.301-8.411c12.357,20.871,25.277,40.972,38.508,60.644
		C123.476,565.896,114.099,547.61,107.652,532.164z"/>
	<linearGradient id="SVGID_18_" gradientUnits="userSpaceOnUse" x1="522.4121" y1="132.1123" x2="161.7607" y2="536.1114">
		<stop  offset="0" style="stop-color:#27AAE1"/>
		<stop  offset="0.1818" style="stop-color:#27AAE1;stop-opacity:0.13"/>
		<stop  offset="0.4848" style="stop-color:#27AAE1;stop-opacity:0"/>
		<stop  offset="0.7273" style="stop-color:#27AAE1;stop-opacity:0.13"/>
		<stop  offset="1" style="stop-color:#60499E"/>
	</linearGradient>
	<path fill-rule="evenodd" clip-rule="evenodd" fill="url(#SVGID_18_)" d="M126.287,631.042
		c-9.746-15.257-20.285-29.427-29.163-45.877c10.856-1.021,22.642-0.546,33.311-3.047c-17.529-2.138-34.886-7.289-51.086-9.515
		c15.608,18.668,29.991,40.408,45.947,57.717C125.38,630.413,127.188,632.119,126.287,631.042z"/>
	<linearGradient id="SVGID_19_" gradientUnits="userSpaceOnUse" x1="546.9082" y1="153.9727" x2="186.2527" y2="557.9763">
		<stop  offset="0" style="stop-color:#27AAE1"/>
		<stop  offset="0.1818" style="stop-color:#27AAE1;stop-opacity:0.13"/>
		<stop  offset="0.4848" style="stop-color:#27AAE1;stop-opacity:0"/>
		<stop  offset="0.7273" style="stop-color:#27AAE1;stop-opacity:0.13"/>
		<stop  offset="1" style="stop-color:#60499E"/>
	</linearGradient>
	<path fill-rule="evenodd" clip-rule="evenodd" fill="url(#SVGID_19_)" d="M134.109,672.379
		c-12.026-12.126-24.758-26.062-34.71-39.299c8.833-0.081,20.566,1.971,28.509-0.099c-14.123-1.984-32.873-9.335-47.208-12.757
		C98.363,637.453,116.195,657.228,134.109,672.379z"/>
	<linearGradient id="SVGID_20_" gradientUnits="userSpaceOnUse" x1="593.0977" y1="195.23" x2="232.4517" y2="599.223">
		<stop  offset="0" style="stop-color:#27AAE1"/>
		<stop  offset="0.1818" style="stop-color:#27AAE1;stop-opacity:0.13"/>
		<stop  offset="0.4848" style="stop-color:#27AAE1;stop-opacity:0"/>
		<stop  offset="0.7273" style="stop-color:#27AAE1;stop-opacity:0.13"/>
		<stop  offset="1" style="stop-color:#60499E"/>
	</linearGradient>
	<path fill-rule="evenodd" clip-rule="evenodd" fill="url(#SVGID_20_)" d="M199.475,725.277c-4.892-3.377-10.606-5.814-15.379-8.544
		c-23.034-13.171-48.97-26.726-66.665-44.362c6.298,1.767,13.609,4.916,20.056,4.743c-13.732-4.922-27.542-12.512-39.679-17.892
		c18.986,14.443,37.979,31.563,57.139,43.93c-1.577-1.063-3.637-2.684-3.476-4.104c15.708,9.498,31.898,18.335,48.147,27.09
		C200.83,726.417,200.011,725.688,199.475,725.277z"/>
	<linearGradient id="SVGID_21_" gradientUnits="userSpaceOnUse" x1="602.3057" y1="202.6968" x2="241.3571" y2="607.0288">
		<stop  offset="0" style="stop-color:#27AAE1"/>
		<stop  offset="0.1818" style="stop-color:#27AAE1;stop-opacity:0.13"/>
		<stop  offset="0.4848" style="stop-color:#27AAE1;stop-opacity:0"/>
		<stop  offset="0.7273" style="stop-color:#27AAE1;stop-opacity:0.13"/>
		<stop  offset="1" style="stop-color:#60499E"/>
	</linearGradient>
	<path fill-rule="evenodd" clip-rule="evenodd" fill="url(#SVGID_21_)" d="M154.947,703.152c0.271,0.182,0.53,0.351,0.759,0.496
		C155.453,703.486,155.201,703.315,154.947,703.152z"/>
	<linearGradient id="SVGID_22_" gradientUnits="userSpaceOnUse" x1="199.478" y1="725.2769" x2="199.4763" y2="725.2787">
		<stop  offset="0" style="stop-color:#27AAE1"/>
		<stop  offset="0.1818" style="stop-color:#27AAE1;stop-opacity:0.13"/>
		<stop  offset="0.4848" style="stop-color:#27AAE1;stop-opacity:0"/>
		<stop  offset="0.7273" style="stop-color:#27AAE1;stop-opacity:0.13"/>
		<stop  offset="1" style="stop-color:#60499E"/>
	</linearGradient>
	<polygon fill-rule="evenodd" clip-rule="evenodd" fill="url(#SVGID_22_)" points="199.47,725.272 199.475,725.277 199.484,725.282 
			"/>
	<linearGradient id="SVGID_23_" gradientUnits="userSpaceOnUse" x1="199.3086" y1="725.1279" x2="199.277" y2="725.1633">
		<stop  offset="0" style="stop-color:#27AAE1"/>
		<stop  offset="0.1818" style="stop-color:#27AAE1;stop-opacity:0.13"/>
		<stop  offset="0.4848" style="stop-color:#27AAE1;stop-opacity:0"/>
		<stop  offset="0.7273" style="stop-color:#27AAE1;stop-opacity:0.13"/>
		<stop  offset="1" style="stop-color:#60499E"/>
	</linearGradient>
	<path fill-rule="evenodd" clip-rule="evenodd" fill="url(#SVGID_23_)" d="M199.47,725.272
		C199.116,725.001,198.892,724.873,199.47,725.272L199.47,725.272z"/>
	<linearGradient id="SVGID_24_" gradientUnits="userSpaceOnUse" x1="697.5928" y1="288.4736" x2="336.9298" y2="692.4857">
		<stop  offset="0" style="stop-color:#27AAE1"/>
		<stop  offset="0.1818" style="stop-color:#27AAE1;stop-opacity:0.13"/>
		<stop  offset="0.4848" style="stop-color:#27AAE1;stop-opacity:0"/>
		<stop  offset="0.7273" style="stop-color:#27AAE1;stop-opacity:0.13"/>
		<stop  offset="1" style="stop-color:#60499E"/>
	</linearGradient>
	<path fill-rule="evenodd" clip-rule="evenodd" fill="url(#SVGID_24_)" d="M413.411,665.282
		c-31.005-6.371-62.27-13.382-91.467-20.711c5.756,22.126,11.48,44.298,18.155,65.164c0.814-16.216,1.626-32.435,2.435-48.656
		c24.35,2.838,49.869,4.068,75.068,5.738C418.036,665.756,414.736,665.555,413.411,665.282z"/>
	<linearGradient id="SVGID_25_" gradientUnits="userSpaceOnUse" x1="673.2227" y1="266.7192" x2="312.5614" y2="670.7294">
		<stop  offset="0" style="stop-color:#27AAE1"/>
		<stop  offset="0.1818" style="stop-color:#27AAE1;stop-opacity:0.13"/>
		<stop  offset="0.4848" style="stop-color:#27AAE1;stop-opacity:0"/>
		<stop  offset="0.7273" style="stop-color:#27AAE1;stop-opacity:0.13"/>
		<stop  offset="1" style="stop-color:#60499E"/>
	</linearGradient>
	<path fill-rule="evenodd" clip-rule="evenodd" fill="url(#SVGID_25_)" d="M332.776,707.815
		c-29.702-8.558-59.265-18.529-87.768-27.876c7.001,17.985,14.829,34.837,22.985,51.237c-0.71-11.892-2.502-24.571-2.101-35.654
		c23.396,5.189,47.171,9.856,71.142,14.256C337.742,708.819,334.245,708.237,332.776,707.815z"/>
	<linearGradient id="SVGID_26_" gradientUnits="userSpaceOnUse" x1="643.4961" y1="240.1851" x2="282.8356" y2="644.1944">
		<stop  offset="0" style="stop-color:#27AAE1"/>
		<stop  offset="0.1818" style="stop-color:#27AAE1;stop-opacity:0.13"/>
		<stop  offset="0.4848" style="stop-color:#27AAE1;stop-opacity:0"/>
		<stop  offset="0.7273" style="stop-color:#27AAE1;stop-opacity:0.13"/>
		<stop  offset="1" style="stop-color:#60499E"/>
	</linearGradient>
	<path fill-rule="evenodd" clip-rule="evenodd" fill="url(#SVGID_26_)" d="M179.826,692.392
		c8.829,13.74,18.845,25.849,28.806,38.035c-3.022-7.48-6.453-14.401-8.485-23.24c21.571,7.868,44.056,17.26,65.932,22.975
		C236.542,718.651,208.201,705.498,179.826,692.392z"/>
	<linearGradient id="SVGID_27_" gradientUnits="userSpaceOnUse" x1="708.6582" y1="298.3535" x2="347.9973" y2="702.3633">
		<stop  offset="0" style="stop-color:#27AAE1"/>
		<stop  offset="0.1818" style="stop-color:#27AAE1;stop-opacity:0.13"/>
		<stop  offset="0.4848" style="stop-color:#27AAE1;stop-opacity:0"/>
		<stop  offset="0.7273" style="stop-color:#27AAE1;stop-opacity:0.13"/>
		<stop  offset="1" style="stop-color:#60499E"/>
	</linearGradient>
	<path fill-rule="evenodd" clip-rule="evenodd" fill="url(#SVGID_27_)" d="M599.09,347.739
		c9.189,31.648,18.785,62.736,26.931,95.818c-24.657-2.762-50.505-8.403-75.65-12.229c7.184,31.572,13.448,63.327,20.597,94.62
		c-0.335-24.763-1.769-50.327-2.172-75.139c19.055-2.041,38.007-3.942,57.36-6.394c-1.361-23.498-6.753-50.376-9.855-76.563
		c15.124-1.678,31.03-1.654,45.075-3.583C640.604,358.772,620.09,352.921,599.09,347.739z"/>
</g>
<g>
	<path fill="#3B3275" d="M339.292,301.079c2.665,0,4.908,0.602,6.732,1.809c1.823,1.206,3.612,3.561,5.367,7.062l34.824,70.15
		c0.35,0.779,0.437,1.42,0.262,1.925c-0.176,0.508-0.684,0.759-1.525,0.759H371.59c-1.193,0-1.999-0.506-2.419-1.517l-7.471-15.058
		h-49.447l-7.259,15.058c-0.491,1.011-1.299,1.517-2.419,1.517h-13.678c-0.913,0-1.457-0.251-1.63-0.759
		c-0.176-0.505-0.088-1.146,0.263-1.925l34.508-70.15c1.753-3.501,3.473-5.855,5.156-7.062c1.683-1.207,3.645-1.809,5.892-1.809
		H339.292z M318.881,352.669h36.191l-16.729-34.198c-0.281-0.544-0.667-0.816-1.157-0.816h-0.631c-0.492,0-0.877,0.272-1.158,0.816
		L318.881,352.669z"/>
	<path fill="#3B3275" d="M469.366,301.079c9.596,0,16.48,2.024,20.653,6.069c4.172,4.047,6.26,10.039,6.26,17.975v6.654
		c0,6.694-1.462,11.985-4.382,15.873c-2.922,3.893-7.678,6.382-14.27,7.471l21.405,24.745c0.416,0.391,0.542,0.976,0.375,1.752
		c-0.168,0.779-0.835,1.167-2.002,1.167h-16.147c-1.086,0-1.838-0.116-2.254-0.351c-0.419-0.233-0.835-0.622-1.251-1.167
		l-19.778-24.278h-40.432v23.228c0,1.713-0.919,2.567-2.753,2.567h-13.52c-1.921,0-2.879-0.854-2.879-2.567V304.58
		c0-2.335,1.252-3.501,3.754-3.501H469.366z M417.544,342.75h47.941c4.257,0,7.261-0.856,9.014-2.57
		c1.752-1.709,2.628-4.318,2.628-7.821v-4.901c0-3.502-0.876-6.108-2.628-7.821c-1.753-1.71-4.757-2.567-9.014-2.567h-46.314
		c-1.086,0-1.627,0.467-1.627,1.401V342.75z"/>
	<path fill="#3B3275" d="M524.317,301.079c1.835,0,2.755,0.856,2.755,2.567v31.048h17.648c2.004,0,3.672-0.058,5.009-0.176
		c1.333-0.116,2.502-0.367,3.504-0.757c1.001-0.389,1.919-0.935,2.754-1.633c0.832-0.703,1.709-1.595,2.629-2.687l21.53-26.846
		c0.416-0.544,0.833-0.933,1.251-1.166c0.417-0.235,1.209-0.351,2.378-0.351h15.521c1.085,0,1.731,0.332,1.941,0.991
		c0.206,0.663,0.103,1.267-0.313,1.81l-24.283,29.297c-1.421,1.791-2.734,3.308-3.944,4.552c-1.211,1.245-2.398,2.334-3.567,3.268
		c3.255,1.868,6.426,4.669,9.514,8.405l25.661,30.346c0.333,0.39,0.457,0.993,0.375,1.811c-0.084,0.815-0.751,1.225-2.002,1.225
		h-16.021c-1.087,0-1.838-0.116-2.255-0.351c-0.419-0.233-0.834-0.622-1.251-1.167l-23.032-27.78
		c-1.671-2.023-3.465-3.402-5.383-4.143c-1.92-0.74-4.8-1.109-8.638-1.109h-19.025v31.982c0,1.713-0.92,2.567-2.755,2.567h-13.519
		c-1.921,0-2.879-0.854-2.879-2.567v-76.57c0-1.711,0.958-2.567,2.879-2.567H524.317z"/>
	<path fill="#3B3275" d="M305.345,398.964c1.836,0,2.755,0.858,2.755,2.568v11.439c0,1.791-0.919,2.684-2.755,2.684h-55.702
		c-3.254,0-5.945,0.254-8.073,0.76c-2.128,0.506-3.819,1.362-5.07,2.567c-1.251,1.207-2.149,2.822-2.691,4.843
		c-0.543,2.025-0.814,4.593-0.814,7.705v16.574c0,3.114,0.271,5.702,0.814,7.763c0.542,2.062,1.44,3.696,2.691,4.902
		c1.251,1.207,2.942,2.063,5.07,2.568c2.128,0.506,4.819,0.758,8.073,0.758h55.702c1.836,0,2.755,0.857,2.755,2.567v11.44
		c0,1.712-0.919,2.568-2.755,2.568h-56.452c-6.343,0-11.727-0.544-16.148-1.634c-4.425-1.089-8.033-2.86-10.828-5.312
		c-2.797-2.451-4.84-5.64-6.134-9.571c-1.295-3.927-1.94-8.695-1.94-14.297V429.78c0-5.604,0.645-10.349,1.94-14.24
		c1.293-3.892,3.336-7.062,6.134-9.513c2.795-2.451,6.403-4.241,10.828-5.371c4.421-1.126,9.805-1.692,16.148-1.692H305.345z"/>
	<path fill="#3B3275" d="M390.464,398.964c6.341,0,11.745,0.566,16.21,1.692c4.463,1.13,8.093,2.919,10.89,5.371
		c2.795,2.451,4.819,5.622,6.072,9.513c1.251,3.891,1.877,8.635,1.877,14.24v20.076c0,5.603-0.626,10.371-1.877,14.297
		c-1.253,3.931-3.277,7.12-6.072,9.571c-2.796,2.452-6.427,4.223-10.89,5.312c-4.466,1.09-9.869,1.634-16.21,1.634h-38.679
		c-6.343,0-11.725-0.544-16.147-1.634c-4.425-1.089-8.033-2.86-10.829-5.312c-2.797-2.451-4.84-5.64-6.133-9.571
		c-1.294-3.927-1.94-8.695-1.94-14.297V429.78c0-5.604,0.646-10.349,1.94-14.24c1.293-3.892,3.336-7.062,6.133-9.513
		c2.795-2.451,6.404-4.241,10.829-5.371c4.422-1.126,9.804-1.692,16.147-1.692H390.464z M335.888,448.571
		c0,3.035,0.269,5.585,0.813,7.646c0.542,2.063,1.439,3.696,2.692,4.901c1.252,1.208,2.942,2.064,5.07,2.568
		c2.127,0.508,4.819,0.76,8.074,0.76h37.176c3.255,0,5.947-0.251,8.074-0.76c2.129-0.504,3.818-1.359,5.069-2.568
		c1.252-1.205,2.149-2.839,2.692-4.901c0.542-2.062,0.814-4.611,0.814-7.646v-17.507c0-3.034-0.271-5.583-0.814-7.645
		c-0.543-2.061-1.44-3.695-2.692-4.903c-1.251-1.206-2.94-2.061-5.069-2.568c-2.127-0.505-4.819-0.758-8.074-0.758h-37.176
		c-3.254,0-5.946,0.253-8.074,0.758c-2.128,0.507-3.818,1.362-5.07,2.568c-1.253,1.208-2.15,2.843-2.692,4.903
		c-0.544,2.062-0.813,4.611-0.813,7.645V448.571z"/>
	<path fill="#3B3275" d="M462.063,398.964c1.835,0,3.421,0.118,4.757,0.351c1.334,0.233,2.503,0.682,3.505,1.341
		c1.001,0.663,1.896,1.558,2.691,2.685c0.792,1.128,1.606,2.628,2.441,4.495l26.036,56.026c0.331,0.701,0.917,1.052,1.753,1.052
		h1.501c0.833,0,1.417-0.351,1.753-1.052l26.036-56.026c0.833-1.867,1.647-3.366,2.441-4.495c0.792-1.127,1.689-2.022,2.691-2.685
		c1-0.659,2.147-1.107,3.441-1.341s2.858-0.351,4.694-0.351h13.395c4.337,0,7.26,0.916,8.762,2.744
		c1.503,1.828,2.253,4.96,2.253,9.396v67c0,1.712-0.961,2.568-2.879,2.568h-12.767c-1.839,0-2.756-0.855-2.756-2.568v-60.93
		c0-0.777-0.334-1.167-1.001-1.167h-1.126c-0.835,0-1.377,0.312-1.627,0.933l-25.286,52.292c-1.001,2.1-2.023,3.872-3.066,5.312
		c-1.044,1.438-2.171,2.626-3.38,3.559c-1.211,0.934-2.588,1.595-4.132,1.984c-1.545,0.39-3.359,0.584-5.443,0.584h-6.01
		c-2.086,0-3.901-0.194-5.444-0.584c-1.546-0.389-2.922-1.05-4.132-1.984c-1.21-0.933-2.336-2.121-3.379-3.559
		c-1.044-1.44-2.065-3.212-3.067-5.312l-25.285-52.292c-0.25-0.622-0.793-0.933-1.627-0.933h-1.126
		c-0.669,0-1.001,0.389-1.001,1.167v60.93c0,1.712-0.92,2.568-2.755,2.568h-12.768c-1.921,0-2.879-0.855-2.879-2.568v-67
		c0-4.436,0.751-7.568,2.252-9.396c1.503-1.828,4.463-2.744,8.889-2.744H462.063z"/>
	<path fill="#3B3275" d="M607.765,398.964c1.834,0,3.421,0.118,4.757,0.351c1.334,0.233,2.503,0.682,3.505,1.341
		c1.001,0.663,1.896,1.558,2.69,2.685c0.792,1.128,1.606,2.628,2.441,4.495l26.036,56.026c0.332,0.701,0.918,1.052,1.753,1.052
		h1.502c0.833,0,1.418-0.351,1.753-1.052l26.036-56.026c0.833-1.867,1.646-3.366,2.44-4.495c0.793-1.127,1.69-2.022,2.691-2.685
		c1.001-0.659,2.148-1.107,3.442-1.341c1.293-0.233,2.858-0.351,4.694-0.351H704.9c4.338,0,7.26,0.916,8.762,2.744
		c1.503,1.828,2.253,4.96,2.253,9.396v67c0,1.712-0.96,2.568-2.878,2.568h-12.769c-1.837,0-2.754-0.855-2.754-2.568v-60.93
		c0-0.777-0.334-1.167-1.001-1.167h-1.127c-0.835,0-1.377,0.312-1.627,0.933l-25.285,52.292c-1.002,2.1-2.024,3.872-3.067,5.312
		c-1.044,1.438-2.171,2.626-3.379,3.559c-1.211,0.934-2.587,1.595-4.132,1.984c-1.544,0.39-3.36,0.584-5.444,0.584h-6.009
		c-2.087,0-3.901-0.194-5.444-0.584c-1.546-0.389-2.923-1.05-4.132-1.984c-1.21-0.933-2.337-2.121-3.38-3.559
		c-1.044-1.44-2.065-3.212-3.066-5.312l-25.285-52.292c-0.251-0.622-0.794-0.933-1.628-0.933h-1.126
		c-0.669,0-1.001,0.389-1.001,1.167v60.93c0,1.712-0.92,2.568-2.754,2.568h-12.769c-1.92,0-2.878-0.855-2.878-2.568v-67
		c0-4.436,0.75-7.568,2.252-9.396c1.502-1.828,4.463-2.744,8.888-2.744H607.765z"/>
	<path fill="#3B3275" d="M744.829,398.964c1.835,0,2.754,0.858,2.754,2.568v46.571c0,3.114,0.27,5.702,0.813,7.763
		c0.542,2.062,1.44,3.696,2.691,4.902c1.253,1.207,2.942,2.063,5.069,2.568c2.129,0.506,4.818,0.758,8.074,0.758h34.673
		c3.256,0,5.946-0.252,8.075-0.758c2.126-0.505,3.816-1.361,5.07-2.568c1.251-1.206,2.127-2.84,2.627-4.902
		c0.502-2.062,0.752-4.649,0.752-7.763v-46.571c0-1.71,0.917-2.568,2.753-2.568h13.645c1.834,0,2.754,0.858,2.754,2.568v48.323
		c0,5.603-0.626,10.371-1.878,14.297c-1.251,3.931-3.276,7.12-6.07,9.571c-2.798,2.452-6.428,4.223-10.891,5.312
		c-4.466,1.09-9.87,1.634-16.21,1.634H763.48c-6.344,0-11.727-0.544-16.147-1.634c-4.425-1.089-8.032-2.86-10.827-5.312
		c-2.797-2.451-4.841-5.64-6.134-9.571c-1.295-3.927-1.941-8.695-1.941-14.297v-48.323c0-1.71,0.959-2.568,2.879-2.568H744.829z"/>
	<path fill="#3B3275" d="M869.503,398.964c2.002,0,3.671,0.078,5.006,0.234c1.333,0.156,2.504,0.487,3.505,0.993
		c1.003,0.507,1.96,1.206,2.88,2.101c0.916,0.896,1.96,2.083,3.129,3.561l46.565,56.96c0.332,0.545,0.876,0.816,1.627,0.816h1.127
		c0.667,0,1-0.389,1-1.167v-60.93c0-1.71,0.919-2.568,2.756-2.568h13.143c1.834,0,2.754,0.858,2.754,2.568v66.999
		c0,4.747-0.92,7.957-2.754,9.629c-1.837,1.675-4.675,2.51-8.512,2.51h-10.766c-1.921,0-3.526-0.078-4.819-0.234
		c-1.294-0.156-2.439-0.466-3.442-0.934c-1.001-0.466-1.982-1.146-2.941-2.042c-0.961-0.895-2.065-2.119-3.317-3.678l-46.69-56.961
		c-0.5-0.542-1.044-0.815-1.627-0.815h-1.126c-0.669,0-1.001,0.389-1.001,1.167v60.93c0,1.712-0.919,2.568-2.755,2.568h-13.143
		c-1.922,0-2.879-0.855-2.879-2.568v-67c0-4.746,0.916-7.955,2.753-9.629c1.835-1.672,4.673-2.51,8.512-2.51H869.503z"/>
	<path fill="#3B3275" d="M982.285,398.964c1.834,0,2.753,0.858,2.753,2.568v76.57c0,1.712-0.919,2.568-2.753,2.568h-13.519
		c-1.922,0-2.88-0.855-2.88-2.568v-76.57c0-1.71,0.958-2.568,2.88-2.568H982.285z"/>
	<path fill="#3B3275" d="M1093.188,398.964c1.92,0,2.881,0.858,2.881,2.568v11.439c0,1.791-0.961,2.684-2.881,2.684h-39.305v62.447
		c0,1.712-0.918,2.568-2.754,2.568h-13.644c-1.836,0-2.754-0.855-2.754-2.568v-62.447h-39.304c-1.923,0-2.88-0.893-2.88-2.684
		v-11.439c0-1.71,0.957-2.568,2.88-2.568H1093.188z"/>
	<path fill="#3B3275" d="M1114.968,398.964c1.334,0,2.335,0.468,3.003,1.4l33.423,42.138l33.673-42.138
		c0.666-0.932,1.667-1.4,3.004-1.4h16.397c0.667,0,1.126,0.254,1.376,0.76c0.251,0.506,0.166,1.031-0.25,1.576l-44.938,54.391
		v22.413c0,1.712-0.919,2.568-2.754,2.568h-13.519c-1.921,0-2.879-0.855-2.879-2.568V455.69l-44.438-54.391
		c-0.419-0.545-0.521-1.07-0.313-1.576c0.209-0.505,0.689-0.76,1.439-0.76H1114.968z"/>
	<path fill="#3B3275" d="M262.34,496.851c1.919,0,2.88,0.856,2.88,2.567v11.088c0,1.713-0.96,2.568-2.88,2.568h-54.326
		c-3.255,0-5.946,0.254-8.074,0.759c-2.128,0.507-3.819,1.362-5.069,2.568c-1.252,1.208-2.149,2.843-2.692,4.903
		c-0.543,2.062-0.813,4.61-0.813,7.645v2.334h70.349c1.834,0,2.753,0.856,2.753,2.567v9.223c0,1.711-0.919,2.567-2.753,2.567
		h-70.349v30.348c0,1.712-0.918,2.568-2.753,2.568h-13.519c-1.921,0-2.879-0.855-2.879-2.568v-48.323
		c0-5.604,0.645-10.348,1.94-14.24c1.292-3.892,3.335-7.063,6.133-9.513c2.795-2.45,6.404-4.24,10.828-5.37
		c4.422-1.125,9.805-1.692,16.148-1.692H262.34z"/>
	<path fill="#3B3275" d="M292.254,496.851c1.834,0,2.754,0.856,2.754,2.567v46.572c0,3.114,0.27,5.702,0.813,7.763
		c0.542,2.061,1.439,3.695,2.692,4.902c1.251,1.207,2.941,2.063,5.069,2.567c2.127,0.507,4.82,0.758,8.074,0.758h34.673
		c3.254,0,5.946-0.25,8.074-0.758c2.128-0.504,3.818-1.36,5.07-2.567c1.251-1.207,2.127-2.841,2.628-4.902
		c0.501-2.062,0.752-4.649,0.752-7.763v-46.572c0-1.711,0.917-2.567,2.753-2.567h13.645c1.835,0,2.753,0.856,2.753,2.567v48.323
		c0,5.604-0.625,10.371-1.877,14.299c-1.251,3.929-3.276,7.12-6.071,9.572c-2.798,2.45-6.427,4.222-10.89,5.312
		c-4.465,1.09-9.87,1.633-16.211,1.633h-36.051c-6.342,0-11.724-0.543-16.146-1.633c-4.425-1.089-8.034-2.861-10.828-5.312
		c-2.797-2.452-4.841-5.643-6.134-9.572c-1.295-3.928-1.94-8.695-1.94-14.299v-48.323c0-1.711,0.958-2.567,2.879-2.567H292.254z"/>
	<path fill="#3B3275" d="M416.928,496.851c2.002,0,3.671,0.078,5.007,0.234c1.334,0.156,2.503,0.487,3.505,0.992
		c1.001,0.507,1.959,1.206,2.878,2.101c0.918,0.895,1.959,2.083,3.13,3.56l46.565,56.961c0.332,0.544,0.876,0.817,1.627,0.817h1.126
		c0.667,0,1.002-0.389,1.002-1.167v-60.931c0-1.711,0.917-2.567,2.754-2.567h13.144c1.835,0,2.753,0.856,2.753,2.567v67
		c0,4.748-0.918,7.957-2.753,9.629c-1.838,1.675-4.674,2.51-8.512,2.51h-10.765c-1.921,0-3.526-0.077-4.82-0.233
		c-1.295-0.156-2.44-0.467-3.441-0.935c-1.003-0.466-1.983-1.147-2.943-2.042c-0.96-0.896-2.063-2.121-3.316-3.678l-46.689-56.96
		c-0.501-0.543-1.045-0.816-1.628-0.816h-1.127c-0.668,0-1,0.389-1,1.167v60.929c0,1.712-0.92,2.568-2.753,2.568h-13.143
		c-1.922,0-2.88-0.855-2.88-2.568v-67c0-4.745,0.918-7.956,2.755-9.629c1.834-1.672,4.671-2.509,8.511-2.509H416.928z"/>
	<path fill="#3B3275" d="M575.649,496.851c6.758,0,12.558,0.642,17.398,1.926c4.839,1.284,8.803,3.268,11.893,5.954
		c3.086,2.684,5.36,6.11,6.821,10.271c1.459,4.165,2.19,9.085,2.19,14.766v15.874c0,5.681-0.731,10.603-2.19,14.764
		c-1.461,4.165-3.735,7.587-6.821,10.272c-3.09,2.687-7.054,4.67-11.893,5.953c-4.841,1.285-10.641,1.927-17.398,1.927h-58.582
		c-2.505,0-3.756-1.167-3.756-3.5v-74.704c0-2.334,1.251-3.501,3.756-3.501H575.649z M532.464,560.814
		c0,1.013,0.542,1.517,1.627,1.517h41.058c3.671,0,6.76-0.309,9.262-0.934c2.504-0.621,4.526-1.633,6.072-3.034
		c1.543-1.4,2.647-3.267,3.317-5.603c0.667-2.334,1-5.211,1-8.637v-12.839c0-3.424-0.333-6.303-1-8.639
		c-0.67-2.333-1.774-4.2-3.317-5.602c-1.546-1.401-3.568-2.411-6.072-3.034c-2.502-0.623-5.591-0.935-9.262-0.935h-41.058
		c-1.085,0-1.627,0.547-1.627,1.634V560.814z"/>
	<path fill="#3B3275" d="M637.984,562.215c1.835,0,2.755,0.858,2.755,2.568v11.205c0,1.712-0.92,2.568-2.755,2.568h-12.267
		c-1.92,0-2.878-0.855-2.878-2.568v-11.205c0-1.71,0.958-2.568,2.878-2.568H637.984z"/>
</g>
<g>
	<linearGradient id="SVGID_28_" gradientUnits="userSpaceOnUse" x1="649.1924" y1="972.0537" x2="511.6364" y2="1347.2065">
		<stop  offset="0" style="stop-color:#27AAE1"/>
		<stop  offset="0.1818" style="stop-color:#27AAE1;stop-opacity:0.13"/>
		<stop  offset="0.4848" style="stop-color:#27AAE1;stop-opacity:0"/>
		<stop  offset="0.7273" style="stop-color:#27AAE1;stop-opacity:0.13"/>
		<stop  offset="1" style="stop-color:#2B3990"/>
	</linearGradient>
	<path fill-rule="evenodd" clip-rule="evenodd" fill="url(#SVGID_28_)" d="M589.245,1082.697
		c-1.242,21.246,0.096,42.479,0.092,63.722c-21.237,0.729-42.479,0.545-63.715,1.512c1.998,22.415,5.836,44.82,9.348,67.228
		c-19.174,2.702-38.357,3.624-57.531,6.219c6.115,22.313,13.791,44.622,23.321,66.918c-17.085-27.232-31.195-56.534-44.969-84.572
		c26.313,3.74,52.631,8.313,78.94,11.199c-10.022-28.217-19.892-56.434-28.861-84.656c27.737,4.355,55.487,11.039,83.229,15.918
		c-5.969-27.449-13.185-54.892-18.427-82.343c28.468,8.199,56.939,16.974,85.415,26.565c-3.646-26.117-9.332-52.226-13.431-78.341
		c28.335,13.067,56.669,25.938,85.02,41.73c-22.31-8.07-44.613-15.273-66.91-20.977c-2.521,18.92-2.066,39.315-4.914,57.825
		C633.644,1086.721,611.445,1084.959,589.245,1082.697z"/>
	<linearGradient id="SVGID_29_" gradientUnits="userSpaceOnUse" x1="755.5986" y1="1011.0703" x2="618.0436" y2="1386.2202">
		<stop  offset="0" style="stop-color:#27AAE1"/>
		<stop  offset="0.1818" style="stop-color:#27AAE1;stop-opacity:0.13"/>
		<stop  offset="0.4848" style="stop-color:#27AAE1;stop-opacity:0"/>
		<stop  offset="0.7273" style="stop-color:#27AAE1;stop-opacity:0.13"/>
		<stop  offset="1" style="stop-color:#2B3990"/>
	</linearGradient>
	<path fill-rule="evenodd" clip-rule="evenodd" fill="url(#SVGID_29_)" d="M713.572,983.274
		c27.176,17.824,54.37,38.978,81.574,62.355c-20.924-14.993-41.838-28.126-62.741-39.474c-1.104,7.38-0.832,15.718-1.536,23.934
		c-0.702,8.197-0.839,16.568-2.482,23.938c-0.488,0.202-0.263-0.309,0,0C724.938,1030.437,720.059,1006.852,713.572,983.274z"/>
	<linearGradient id="SVGID_30_" gradientUnits="userSpaceOnUse" x1="594.9873" y1="952.1753" x2="457.4306" y2="1327.33">
		<stop  offset="0" style="stop-color:#27AAE1"/>
		<stop  offset="0.1818" style="stop-color:#27AAE1;stop-opacity:0.13"/>
		<stop  offset="0.4848" style="stop-color:#27AAE1;stop-opacity:0"/>
		<stop  offset="0.7273" style="stop-color:#27AAE1;stop-opacity:0.13"/>
		<stop  offset="1" style="stop-color:#2B3990"/>
	</linearGradient>
	<path fill-rule="evenodd" clip-rule="evenodd" fill="url(#SVGID_30_)" d="M452.467,1294.229
		c11.984,20.549,25.127,41.089,41.771,61.613c-24.817-25.376-45.695-52.828-65.55-79.02c23.869,4.371,49.004,9.417,72.077,12.42
		C484.67,1291.74,468.567,1292.764,452.467,1294.229z"/>
	<linearGradient id="SVGID_31_" gradientUnits="userSpaceOnUse" x1="793.8359" y1="1025.0908" x2="656.2791" y2="1400.2458">
		<stop  offset="0" style="stop-color:#27AAE1"/>
		<stop  offset="0.1818" style="stop-color:#27AAE1;stop-opacity:0.13"/>
		<stop  offset="0.4848" style="stop-color:#27AAE1;stop-opacity:0"/>
		<stop  offset="0.7273" style="stop-color:#27AAE1;stop-opacity:0.13"/>
		<stop  offset="1" style="stop-color:#2B3990"/>
	</linearGradient>
	<path fill-rule="evenodd" clip-rule="evenodd" fill="url(#SVGID_31_)" d="M791.664,1013.432
		c3.211,11.038,4.679,22.085,5.382,33.137c-6.712-18.522-13.7-39.095-24.7-58.385c17.593,18.307,33.611,38.676,48.859,57.786
		C811.894,1036.068,802.659,1024.114,791.664,1013.432z"/>
	<linearGradient id="SVGID_32_" gradientUnits="userSpaceOnUse" x1="611.7246" y1="958.3188" x2="474.1701" y2="1333.4675">
		<stop  offset="0" style="stop-color:#27AAE1"/>
		<stop  offset="0.1818" style="stop-color:#27AAE1;stop-opacity:0.13"/>
		<stop  offset="0.4848" style="stop-color:#27AAE1;stop-opacity:0"/>
		<stop  offset="0.7273" style="stop-color:#27AAE1;stop-opacity:0.13"/>
		<stop  offset="1" style="stop-color:#2B3990"/>
	</linearGradient>
	<path fill-rule="evenodd" clip-rule="evenodd" fill="url(#SVGID_32_)" d="M461.774,1353.876
		c10.196,9.927,22.076,18.162,31.644,26.605c3.361,2.967-1.307-0.568-2.139-1.174c-17.521-12.732-37.464-28.625-55.895-44.009
		c19.789,9.379,39.569,17.116,59.338,22.435c0.91,0.699-0.536-1.545,0.709-0.24C486.173,1359.205,471.92,1356.059,461.774,1353.876z
		"/>
	<linearGradient id="SVGID_33_" gradientUnits="userSpaceOnUse" x1="844.46" y1="1043.6533" x2="706.9048" y2="1418.8036">
		<stop  offset="0" style="stop-color:#27AAE1"/>
		<stop  offset="0.1818" style="stop-color:#27AAE1;stop-opacity:0.13"/>
		<stop  offset="0.4848" style="stop-color:#27AAE1;stop-opacity:0"/>
		<stop  offset="0.7273" style="stop-color:#27AAE1;stop-opacity:0.13"/>
		<stop  offset="1" style="stop-color:#2B3990"/>
	</linearGradient>
	<path fill-rule="evenodd" clip-rule="evenodd" fill="url(#SVGID_33_)" d="M799.127,1036.845
		c15.243,10.508,30.981,25.01,44.979,40.276c-8.165-6.141-16.321-10.844-24.468-13.377c12.438,27.443,23.532,55.885,31.938,83.931
		c0.347,1.156,1.564,4.661,0.733,4.496C837.611,1113.713,819.415,1075.275,799.127,1036.845z"/>
	<linearGradient id="SVGID_34_" gradientUnits="userSpaceOnUse" x1="691.0859" y1="987.4063" x2="553.528" y2="1362.5645">
		<stop  offset="0" style="stop-color:#27AAE1"/>
		<stop  offset="0.1818" style="stop-color:#27AAE1;stop-opacity:0.13"/>
		<stop  offset="0.4848" style="stop-color:#27AAE1;stop-opacity:0"/>
		<stop  offset="0.7273" style="stop-color:#27AAE1;stop-opacity:0.13"/>
		<stop  offset="1" style="stop-color:#2B3990"/>
	</linearGradient>
	<path fill-rule="evenodd" clip-rule="evenodd" fill="url(#SVGID_34_)" d="M514.497,1379.663c0.63,4.2,2.757,8.456,5.038,12.528
		c2.351,4.194,5.371,8.46,9.304,12.508c-14.966-11.428-30.662-28.983-42.87-44.788c38.995,18.996,80.963,36.162,118.7,50.083
		C574.624,1402.295,544.57,1392.824,514.497,1379.663z"/>
	<linearGradient id="SVGID_35_" gradientUnits="userSpaceOnUse" x1="848.2988" y1="1045.0596" x2="710.7432" y2="1420.2114">
		<stop  offset="0" style="stop-color:#27AAE1"/>
		<stop  offset="0.1818" style="stop-color:#27AAE1;stop-opacity:0.13"/>
		<stop  offset="0.4848" style="stop-color:#27AAE1;stop-opacity:0"/>
		<stop  offset="0.7273" style="stop-color:#27AAE1;stop-opacity:0.13"/>
		<stop  offset="1" style="stop-color:#2B3990"/>
	</linearGradient>
	<path fill-rule="evenodd" clip-rule="evenodd" fill="url(#SVGID_35_)" d="M796.43,1157.196c4.48,33.615,7.931,67.235,9.048,100.867
		c-9.309-41.724-19.396-85.494-32.638-127.987c26.64,5.961,53.297,14.837,79.951,23.514
		C834.955,1155.308,815.057,1155.397,796.43,1157.196z"/>
	<linearGradient id="SVGID_36_" gradientUnits="userSpaceOnUse" x1="791.4229" y1="1024.2046" x2="653.8677" y2="1399.355">
		<stop  offset="0" style="stop-color:#27AAE1"/>
		<stop  offset="0.1818" style="stop-color:#27AAE1;stop-opacity:0.13"/>
		<stop  offset="0.4848" style="stop-color:#27AAE1;stop-opacity:0"/>
		<stop  offset="0.7273" style="stop-color:#27AAE1;stop-opacity:0.13"/>
		<stop  offset="1" style="stop-color:#2B3990"/>
	</linearGradient>
	<path fill-rule="evenodd" clip-rule="evenodd" fill="url(#SVGID_36_)" d="M605.62,1410.463c-0.227-0.313,0.104-0.37,0.234-0.238
		c-9.415-26.877-18.416-53.758-26.235-80.644c43.645,10.883,87.282,21.155,130.904,27.753
		c-5.805-38.267-12.832-76.528-20.252-114.786c38.324,5.527,76.657,12.32,114.974,16.228c-6.97,2.052-14.43,2.541-21.776,3.429
		c-21.804,2.636-44.528,4.12-66.535,5.792c-1.544,29.775-2.886,59.551-5.937,89.336c-34.187,0.896-68.389-1.227-102.599-5.395
		c-1.477,19.196-1.77,38.386-1.836,57.572C606.489,1410.136,606.244,1410.384,605.62,1410.463z"/>
</g>
<g>
	<path fill="#3B3275" d="M526.164,1151.72c3.266,0,6.015,0.738,8.25,2.216c2.233,1.479,4.426,4.362,6.575,8.652l42.671,85.957
		c0.429,0.953,0.536,1.739,0.321,2.358c-0.215,0.622-0.837,0.931-1.868,0.931H565.74c-1.462,0-2.449-0.621-2.964-1.859
		l-9.154-18.451h-60.589l-8.895,18.451c-0.603,1.238-1.592,1.859-2.964,1.859h-16.76c-1.119,0-1.785-0.309-1.998-0.931
		c-0.215-0.619-0.108-1.405,0.321-2.358l42.284-85.957c2.147-4.29,4.255-7.174,6.317-8.652c2.063-1.478,4.467-2.216,7.219-2.216
		H526.164z M501.155,1214.932h44.346l-20.498-41.902c-0.345-0.665-0.816-1-1.417-1h-0.773c-0.603,0-1.075,0.335-1.419,1
		L501.155,1214.932z"/>
	<path fill="#3B3275" d="M703.506,1151.719c2.249,0,3.375,1.051,3.375,3.146v14.018c0,2.193-1.126,3.287-3.375,3.287h-68.253
		c-3.987,0-7.285,0.312-9.893,0.932c-2.606,0.619-4.678,1.669-6.212,3.146c-1.533,1.479-2.634,3.458-3.298,5.934
		c-0.665,2.481-0.997,5.629-0.997,9.441v20.308c0,3.815,0.332,6.985,0.997,9.513c0.664,2.524,1.765,4.528,3.298,6.007
		c1.534,1.479,3.605,2.527,6.212,3.146c2.607,0.62,5.905,0.929,9.893,0.929h68.253c2.249,0,3.375,1.051,3.375,3.146v14.017
		c0,2.099-1.126,3.147-3.375,3.147h-69.172c-7.772,0-14.368-0.669-19.787-2.003c-5.42-1.335-9.842-3.506-13.267-6.51
		c-3.428-3.002-5.932-6.91-7.516-11.728c-1.587-4.812-2.377-10.653-2.377-17.519v-24.6c0-6.867,0.79-12.681,2.377-17.448
		c1.584-4.769,4.088-8.653,7.516-11.656c3.425-3.003,7.847-5.197,13.267-6.581c5.419-1.38,12.015-2.072,19.787-2.072H703.506z"/>
	<path fill="#3B3275" d="M837.254,1151.719c2.353,0,3.529,1.05,3.529,3.146v13.587c0,2.1-1.177,3.147-3.529,3.147h-66.566
		c-3.987,0-7.285,0.312-9.892,0.93c-2.607,0.621-4.681,1.669-6.213,3.146c-1.533,1.481-2.633,3.483-3.298,6.009
		s-0.997,5.646-0.997,9.366v2.86h86.2c2.248,0,3.374,1.05,3.374,3.146v11.3c0,2.097-1.126,3.146-3.374,3.146h-86.2v37.187
		c0,2.098-1.126,3.146-3.373,3.146h-16.564c-2.355,0-3.528-1.049-3.528-3.146v-59.212c0-6.865,0.79-12.681,2.377-17.448
		c1.584-4.769,4.088-8.653,7.515-11.656c3.425-3.002,7.847-5.196,13.268-6.581c5.419-1.379,12.015-2.072,19.787-2.072H837.254z"/>
</g>
<linearGradient id="SVGID_37_" gradientUnits="userSpaceOnUse" x1="73.3599" y1="11.7612" x2="73.3599" y2="11.7612">
	<stop  offset="0" style="stop-color:#27AAE1"/>
	<stop  offset="0.1818" style="stop-color:#27AAE1;stop-opacity:0.13"/>
	<stop  offset="0.4848" style="stop-color:#27AAE1;stop-opacity:0"/>
	<stop  offset="0.7273" style="stop-color:#27AAE1;stop-opacity:0.13"/>
	<stop  offset="1" style="stop-color:#60499E"/>
</linearGradient>
<path fill-rule="evenodd" clip-rule="evenodd" fill="url(#SVGID_37_)" d="M73.359,11.761"/>
<g>
	<path fill="#2C2E84" d="M327.572,1448.012c0.979,0,1.803,0.222,2.474,0.665c0.67,0.442,1.327,1.308,1.972,2.594l12.796,25.776
		c0.128,0.285,0.161,0.521,0.096,0.707c-0.065,0.187-0.251,0.279-0.561,0.279h-4.909c-0.438,0-0.735-0.187-0.889-0.557l-2.745-5.533
		h-18.169l-2.667,5.533c-0.181,0.37-0.478,0.556-0.889,0.556h-5.025c-0.336,0-0.536-0.092-0.599-0.278
		c-0.065-0.186-0.033-0.422,0.096-0.707l12.68-25.776c0.644-1.286,1.276-2.151,1.894-2.594c0.619-0.443,1.339-0.665,2.165-0.665
		H327.572z M320.073,1466.968h13.298l-6.147-12.565c-0.103-0.2-0.245-0.3-0.425-0.3h-0.232c-0.181,0-0.322,0.1-0.425,0.3
		L320.073,1466.968z"/>
	<path fill="#2C2E84" d="M375.367,1448.012c3.526,0,6.055,0.744,7.589,2.229c1.533,1.487,2.3,3.688,2.3,6.604v2.445
		c0,2.46-0.538,4.403-1.61,5.833c-1.073,1.43-2.821,2.345-5.243,2.744l7.865,9.092c0.153,0.145,0.199,0.358,0.138,0.644
		c-0.061,0.287-0.307,0.43-0.735,0.43h-5.933c-0.399,0-0.675-0.043-0.828-0.129c-0.154-0.086-0.306-0.229-0.46-0.428l-7.267-8.922
		h-14.856v8.535c0,0.629-0.337,0.943-1.012,0.943h-4.967c-0.706,0-1.058-0.314-1.058-0.943v-27.791c0-0.858,0.46-1.287,1.379-1.287
		H375.367z M356.325,1463.322h17.615c1.564,0,2.668-0.313,3.312-0.943c0.644-0.628,0.966-1.587,0.966-2.873v-1.802
		c0-1.287-0.322-2.244-0.966-2.874c-0.644-0.628-1.748-0.943-3.312-0.943h-17.018c-0.398,0-0.598,0.172-0.598,0.516V1463.322z"/>
	<path fill="#2C2E84" d="M395.558,1448.012c0.674,0,1.013,0.315,1.013,0.943v11.407h6.484c0.736,0,1.349-0.021,1.84-0.063
		c0.49-0.043,0.919-0.135,1.288-0.278c0.368-0.144,0.705-0.344,1.012-0.601c0.306-0.259,0.628-0.585,0.966-0.986l7.911-9.865
		c0.153-0.199,0.306-0.342,0.46-0.429c0.152-0.085,0.444-0.128,0.873-0.128h5.704c0.397,0,0.636,0.122,0.713,0.364
		c0.076,0.243,0.038,0.466-0.115,0.666l-8.922,10.764c-0.522,0.659-1.005,1.216-1.45,1.673c-0.444,0.457-0.881,0.857-1.311,1.2
		c1.196,0.687,2.361,1.716,3.496,3.089l9.428,11.15c0.123,0.144,0.169,0.365,0.139,0.665c-0.031,0.3-0.276,0.45-0.736,0.45h-5.887
		c-0.399,0-0.675-0.043-0.828-0.129c-0.154-0.086-0.307-0.229-0.46-0.428l-8.462-10.209c-0.614-0.743-1.273-1.25-1.978-1.521
		c-0.706-0.272-1.763-0.407-3.174-0.407h-6.99v11.751c0,0.629-0.338,0.943-1.013,0.943h-4.967c-0.706,0-1.058-0.314-1.058-0.943
		v-28.135c0-0.628,0.353-0.943,1.058-0.943H395.558z"/>
	<path fill="#2C2E84" d="M471.898,1448.012c0.675,0,1.013,0.315,1.013,0.943v4.203c0,0.659-0.338,0.986-1.013,0.986h-20.467
		c-1.196,0-2.185,0.094-2.967,0.279c-0.781,0.187-1.403,0.5-1.862,0.943c-0.46,0.443-0.79,1.036-0.989,1.778
		c-0.199,0.745-0.299,1.689-0.299,2.832v6.09c0,1.145,0.1,2.095,0.299,2.853s0.529,1.357,0.989,1.801
		c0.459,0.444,1.081,0.758,1.862,0.943c0.782,0.187,1.771,0.279,2.967,0.279h20.467c0.675,0,1.013,0.314,1.013,0.943v4.204
		c0,0.628-0.338,0.942-1.013,0.942h-20.742c-2.331,0-4.309-0.199-5.934-0.601c-1.626-0.399-2.951-1.051-3.979-1.951
		c-1.028-0.901-1.778-2.073-2.254-3.517c-0.476-1.444-0.713-3.195-0.713-5.254v-7.377c0-2.059,0.237-3.801,0.713-5.231
		c0.476-1.43,1.226-2.596,2.254-3.496c1.027-0.9,2.353-1.558,3.979-1.974c1.625-0.413,3.603-0.621,5.934-0.621H471.898z"/>
	<path fill="#2C2E84" d="M503.174,1448.012c2.33,0,4.315,0.208,5.957,0.621c1.64,0.416,2.974,1.073,4.001,1.974
		s1.771,2.066,2.23,3.496c0.46,1.431,0.689,3.173,0.689,5.231v7.377c0,2.059-0.229,3.81-0.689,5.254
		c-0.46,1.443-1.203,2.615-2.23,3.517c-1.027,0.9-2.361,1.552-4.001,1.951c-1.642,0.401-3.627,0.601-5.957,0.601h-14.212
		c-2.331,0-4.308-0.199-5.933-0.601c-1.626-0.399-2.952-1.051-3.979-1.951c-1.028-0.901-1.779-2.073-2.254-3.517
		c-0.477-1.444-0.713-3.195-0.713-5.254v-7.377c0-2.059,0.236-3.801,0.713-5.231c0.475-1.43,1.226-2.596,2.254-3.496
		c1.026-0.9,2.353-1.558,3.979-1.974c1.625-0.413,3.602-0.621,5.933-0.621H503.174z M483.121,1466.238
		c0,1.115,0.099,2.054,0.298,2.811c0.2,0.757,0.529,1.357,0.99,1.801c0.459,0.443,1.08,0.758,1.862,0.943s1.771,0.279,2.967,0.279
		h13.659c1.196,0,2.186-0.094,2.967-0.279c0.782-0.186,1.403-0.5,1.862-0.943c0.461-0.443,0.79-1.044,0.99-1.801
		c0.198-0.757,0.299-1.695,0.299-2.811v-6.433c0-1.114-0.101-2.051-0.299-2.809c-0.2-0.757-0.529-1.357-0.99-1.802
		c-0.459-0.442-1.08-0.757-1.862-0.943c-0.781-0.186-1.771-0.279-2.967-0.279h-13.659c-1.196,0-2.185,0.094-2.967,0.279
		c-0.782,0.187-1.403,0.501-1.862,0.943c-0.461,0.444-0.79,1.045-0.99,1.802c-0.199,0.757-0.298,1.694-0.298,2.809V1466.238z"/>
	<path fill="#2C2E84" d="M529.481,1448.012c0.675,0,1.258,0.043,1.748,0.128c0.49,0.087,0.92,0.252,1.287,0.493
		c0.368,0.245,0.697,0.572,0.989,0.986c0.291,0.416,0.591,0.967,0.897,1.652l9.566,20.585c0.122,0.258,0.337,0.388,0.645,0.388
		h0.552c0.306,0,0.521-0.13,0.644-0.388l9.566-20.585c0.307-0.686,0.605-1.236,0.897-1.652c0.291-0.414,0.621-0.741,0.988-0.986
		c0.368-0.241,0.789-0.406,1.266-0.493c0.475-0.085,1.05-0.128,1.725-0.128h4.921c1.594,0,2.668,0.336,3.22,1.008
		s0.827,1.823,0.827,3.452v24.619c0,0.628-0.353,0.942-1.058,0.942h-4.69c-0.676,0-1.013-0.314-1.013-0.942v-22.388
		c0-0.287-0.123-0.429-0.367-0.429h-0.414c-0.307,0-0.506,0.113-0.598,0.342l-9.291,19.214c-0.368,0.772-0.744,1.423-1.127,1.952
		c-0.384,0.529-0.798,0.965-1.242,1.309c-0.444,0.342-0.951,0.585-1.518,0.729c-0.568,0.142-1.234,0.213-2.001,0.213h-2.207
		c-0.768,0-1.435-0.071-2.001-0.213c-0.568-0.145-1.074-0.388-1.518-0.729c-0.445-0.344-0.859-0.779-1.242-1.309
		s-0.759-1.18-1.127-1.952l-9.291-19.214c-0.092-0.229-0.291-0.342-0.598-0.342h-0.414c-0.245,0-0.367,0.142-0.367,0.429v22.388
		c0,0.628-0.339,0.942-1.013,0.942h-4.691c-0.706,0-1.058-0.314-1.058-0.942v-24.619c0-1.629,0.276-2.78,0.828-3.452
		s1.64-1.008,3.266-1.008H529.481z"/>
	<path fill="#2C2E84" d="M583.018,1448.012c0.674,0,1.257,0.043,1.748,0.128c0.49,0.087,0.92,0.252,1.288,0.493
		c0.367,0.245,0.696,0.572,0.988,0.986c0.291,0.416,0.59,0.967,0.897,1.652l9.566,20.585c0.122,0.258,0.337,0.388,0.644,0.388h0.552
		c0.308,0,0.521-0.13,0.645-0.388l9.566-20.585c0.306-0.686,0.605-1.236,0.897-1.652c0.291-0.414,0.62-0.741,0.988-0.986
		c0.368-0.241,0.79-0.406,1.265-0.493c0.476-0.085,1.051-0.128,1.725-0.128h4.922c1.594,0,2.667,0.336,3.219,1.008
		s0.828,1.823,0.828,3.452v24.619c0,0.628-0.353,0.942-1.057,0.942h-4.692c-0.675,0-1.012-0.314-1.012-0.942v-22.388
		c0-0.287-0.123-0.429-0.368-0.429h-0.413c-0.308,0-0.507,0.113-0.599,0.342l-9.29,19.214c-0.368,0.772-0.744,1.423-1.128,1.952
		c-0.383,0.529-0.797,0.965-1.241,1.309c-0.444,0.342-0.951,0.585-1.518,0.729c-0.568,0.142-1.235,0.213-2,0.213h-2.209
		c-0.767,0-1.433-0.071-2-0.213c-0.567-0.145-1.074-0.388-1.519-0.729c-0.445-0.344-0.858-0.779-1.242-1.309
		c-0.383-0.529-0.758-1.18-1.126-1.952l-9.291-19.214c-0.092-0.229-0.292-0.342-0.598-0.342h-0.414
		c-0.246,0-0.368,0.142-0.368,0.429v22.388c0,0.628-0.338,0.942-1.012,0.942h-4.691c-0.706,0-1.058-0.314-1.058-0.942v-24.619
		c0-1.629,0.276-2.78,0.827-3.452c0.553-0.672,1.641-1.008,3.266-1.008H583.018z"/>
	<path fill="#2C2E84" d="M633.38,1448.012c0.674,0,1.012,0.315,1.012,0.943v17.112c0,1.145,0.1,2.095,0.299,2.853
		s0.529,1.357,0.989,1.802c0.46,0.443,1.081,0.757,1.863,0.942c0.782,0.187,1.77,0.279,2.967,0.279h12.74
		c1.194,0,2.184-0.093,2.966-0.279c0.782-0.186,1.403-0.499,1.863-0.942c0.46-0.444,0.781-1.044,0.966-1.802
		s0.275-1.708,0.275-2.853v-17.112c0-0.628,0.338-0.943,1.012-0.943h5.014c0.674,0,1.012,0.315,1.012,0.943v17.756
		c0,2.059-0.23,3.81-0.689,5.254c-0.46,1.443-1.204,2.615-2.229,3.517c-1.03,0.9-2.363,1.552-4.003,1.951
		c-1.641,0.401-3.627,0.601-5.956,0.601h-13.245c-2.332,0-4.31-0.199-5.935-0.601c-1.625-0.399-2.951-1.051-3.978-1.951
		c-1.028-0.901-1.779-2.073-2.254-3.517c-0.476-1.444-0.714-3.195-0.714-5.254v-17.756c0-0.628,0.353-0.943,1.058-0.943H633.38z"/>
	<path fill="#2C2E84" d="M679.189,1448.012c0.736,0,1.349,0.028,1.84,0.085c0.489,0.059,0.92,0.18,1.287,0.366
		c0.369,0.186,0.721,0.442,1.059,0.771c0.337,0.329,0.721,0.765,1.15,1.308l17.108,20.93c0.122,0.2,0.322,0.3,0.599,0.3h0.413
		c0.245,0,0.368-0.143,0.368-0.428v-22.389c0-0.628,0.338-0.943,1.013-0.943h4.829c0.674,0,1.012,0.315,1.012,0.943v24.618
		c0,1.744-0.338,2.924-1.012,3.538c-0.675,0.615-1.718,0.922-3.127,0.922h-3.957c-0.705,0-1.295-0.027-1.771-0.086
		c-0.475-0.058-0.896-0.171-1.264-0.344c-0.368-0.171-0.729-0.42-1.082-0.749c-0.353-0.33-0.758-0.779-1.219-1.352l-17.155-20.93
		c-0.184-0.199-0.384-0.299-0.598-0.299h-0.414c-0.246,0-0.368,0.142-0.368,0.429v22.388c0,0.628-0.337,0.942-1.013,0.942h-4.828
		c-0.706,0-1.057-0.314-1.057-0.942v-24.619c0-1.744,0.336-2.922,1.01-3.538c0.675-0.614,1.718-0.922,3.128-0.922H679.189z"/>
	<path fill="#2C2E84" d="M720.63,1448.012c0.674,0,1.012,0.315,1.012,0.943v28.136c0,0.628-0.338,0.942-1.012,0.942h-4.968
		c-0.705,0-1.057-0.314-1.057-0.942v-28.136c0-0.628,0.352-0.943,1.057-0.943H720.63z"/>
	<path fill="#2C2E84" d="M761.379,1448.012c0.706,0,1.059,0.315,1.059,0.944v4.202c0,0.659-0.353,0.986-1.059,0.986h-14.44v22.946
		c0,0.628-0.339,0.942-1.014,0.942h-5.013c-0.675,0-1.012-0.314-1.012-0.942v-22.946h-14.441c-0.707,0-1.059-0.327-1.059-0.986
		v-4.203c0-0.628,0.352-0.943,1.059-0.943H761.379z"/>
	<path fill="#2C2E84" d="M769.382,1448.012c0.491,0,0.858,0.172,1.104,0.516l12.28,15.482l12.373-15.482
		c0.244-0.344,0.612-0.516,1.104-0.516h6.025c0.244,0,0.414,0.094,0.506,0.279s0.061,0.378-0.092,0.578l-16.513,19.985v8.236
		c0,0.628-0.337,0.942-1.011,0.942h-4.968c-0.706,0-1.059-0.314-1.059-0.942v-8.236l-16.327-19.985
		c-0.154-0.2-0.191-0.393-0.114-0.578c0.076-0.186,0.253-0.279,0.527-0.279H769.382z"/>
	<path fill="#2C2E84" d="M850.894,1448.012c0.704,0,1.058,0.315,1.058,0.944v4.074c0,0.629-0.354,0.943-1.058,0.943h-19.961
		c-1.196,0-2.185,0.094-2.967,0.278c-0.782,0.187-1.403,0.501-1.863,0.944c-0.459,0.443-0.789,1.044-0.988,1.801
		c-0.2,0.758-0.3,1.694-0.3,2.81v0.857h25.85c0.674,0,1.012,0.314,1.012,0.943v3.389c0,0.629-0.338,0.942-1.012,0.942h-25.85v11.152
		c0,0.628-0.336,0.942-1.011,0.942h-4.969c-0.705,0-1.058-0.314-1.058-0.942v-17.756c0-2.06,0.237-3.802,0.713-5.232
		c0.476-1.43,1.227-2.596,2.254-3.495c1.027-0.9,2.353-1.559,3.979-1.974c1.626-0.414,3.603-0.622,5.934-0.622H850.894z"/>
	<path fill="#2C2E84" d="M861.885,1448.012c0.674,0,1.011,0.315,1.011,0.944v17.111c0,1.145,0.101,2.096,0.3,2.853
		c0.199,0.758,0.529,1.357,0.989,1.802c0.459,0.443,1.081,0.758,1.863,0.942c0.781,0.188,1.77,0.279,2.966,0.279h12.74
		c1.195,0,2.185-0.092,2.967-0.279c0.782-0.185,1.403-0.499,1.863-0.942c0.459-0.443,0.781-1.044,0.965-1.802
		c0.185-0.757,0.276-1.708,0.276-2.853v-17.111c0-0.629,0.337-0.944,1.013-0.944h5.013c0.674,0,1.012,0.315,1.012,0.944v17.755
		c0,2.06-0.23,3.811-0.69,5.254c-0.459,1.443-1.203,2.616-2.23,3.518c-1.028,0.9-2.361,1.551-4,1.951
		c-1.642,0.401-3.627,0.6-5.957,0.6h-13.247c-2.33,0-4.307-0.198-5.933-0.6c-1.625-0.4-2.952-1.051-3.979-1.951
		c-1.027-0.901-1.779-2.074-2.253-3.518c-0.477-1.443-0.715-3.194-0.715-5.254v-17.755c0-0.629,0.353-0.944,1.059-0.944H861.885z"/>
	<path fill="#2C2E84" d="M907.693,1448.012c0.736,0,1.351,0.028,1.839,0.087c0.492,0.057,0.922,0.178,1.29,0.364
		c0.366,0.186,0.72,0.442,1.058,0.771c0.337,0.328,0.72,0.766,1.149,1.308l17.11,20.93c0.121,0.2,0.321,0.3,0.597,0.3h0.414
		c0.246,0,0.368-0.142,0.368-0.428v-22.388c0-0.629,0.337-0.944,1.013-0.944h4.829c0.674,0,1.012,0.315,1.012,0.944v24.617
		c0,1.745-0.338,2.924-1.012,3.538c-0.677,0.615-1.718,0.922-3.128,0.922h-3.955c-0.706,0-1.295-0.027-1.771-0.086
		c-0.477-0.057-0.896-0.17-1.264-0.343c-0.369-0.171-0.729-0.421-1.081-0.75c-0.354-0.329-0.76-0.779-1.22-1.351l-17.155-20.931
		c-0.185-0.198-0.384-0.299-0.599-0.299h-0.413c-0.246,0-0.368,0.143-0.368,0.429v22.388c0,0.628-0.337,0.942-1.012,0.942h-4.83
		c-0.705,0-1.058-0.314-1.058-0.942v-24.619c0-1.742,0.338-2.923,1.013-3.538c0.674-0.614,1.716-0.922,3.127-0.922H907.693z"/>
	<path fill="#2C2E84" d="M966.014,1448.012c2.483,0,4.615,0.236,6.395,0.708c1.777,0.472,3.233,1.2,4.368,2.188
		c1.135,0.985,1.97,2.245,2.508,3.774c0.535,1.529,0.804,3.338,0.804,5.426v5.831c0,2.089-0.269,3.896-0.804,5.426
		c-0.538,1.53-1.373,2.788-2.508,3.774c-1.135,0.987-2.591,1.716-4.368,2.187c-1.779,0.473-3.911,0.708-6.395,0.708h-21.524
		c-0.92,0-1.38-0.429-1.38-1.286v-27.448c0-0.858,0.46-1.287,1.38-1.287H966.014z M950.146,1471.515
		c0,0.371,0.199,0.558,0.598,0.558h15.086c1.349,0,2.484-0.113,3.403-0.344c0.919-0.229,1.663-0.601,2.231-1.115
		c0.566-0.514,0.972-1.2,1.218-2.058s0.368-1.915,0.368-3.174v-4.718c0-1.258-0.122-2.316-0.368-3.174s-0.651-1.544-1.218-2.059
		c-0.568-0.515-1.313-0.885-2.231-1.115c-0.919-0.229-2.055-0.343-3.403-0.343h-15.086c-0.398,0-0.598,0.2-0.598,0.6V1471.515z"/>
	<path fill="#2C2E84" d="M988.919,1472.029c0.674,0,1.012,0.315,1.012,0.943v4.118c0,0.628-0.338,0.942-1.012,0.942h-4.509
		c-0.705,0-1.057-0.314-1.057-0.942v-4.118c0-0.628,0.352-0.943,1.057-0.943H988.919z"/>
</g>
</svg>
