<?xml version="1.0" encoding="utf-8"?>
<!-- Generator: Adobe Illustrator 15.1.0, SVG Export Plug-In . SVG Version: 6.00 Build 0)  -->
<!DOCTYPE svg PUBLIC "-//W3C//DTD SVG 1.1//EN" "http://www.w3.org/Graphics/SVG/1.1/DTD/svg11.dtd">
<svg version="1.1" id="Layer_1" xmlns="http://www.w3.org/2000/svg" xmlns:xlink="http://www.w3.org/1999/xlink" x="0px" y="0px"
	 width="1576px" height="557px" viewBox="0 0 1576 557" enable-background="new 0 0 1576 557" xml:space="preserve">
<g>
	<path fill="#ED1C24" d="M225.529,269.892c5.591,0.053,11.753-0.521,17.149-1.576c-0.024,0.004-0.046,0.01-0.071,0.015
		c5.171-1.006,10.344-2.013,15.515-3.02 M258.126,265.311c29.926-5.823,59.851-11.648,89.776-17.472
		c21.307,20.76,42.615,41.521,63.922,62.282c4.676,4.557,8.639,7.913,11.051,9.225l2.582,1.405c3.543,1.926,2.912-1.006-0.945-7.049
		c0.02,0.033,0.043,0.067,0.064,0.1c-15.264-23.992-30.525-47.983-45.789-71.974c8.887-1.729,17.775-3.46,26.662-5.189l23.279-4.531
		l23.018-4.48l15.848-3.084l-33.195-11.185c-21.531,4.191-43.533,8.473-65.6,12.768c0,0,0,0,0,0l65.6-12.768l-18.697-6.298
		l-0.248-0.027c-6.818-0.765-13.223-0.699-17,0.037c-4.654,0.906-10.861,2.114-15.514,3.019l-15.574,3.031l-6.088,1.185
		c-1.814-2.854-3.631-5.708-5.447-8.563c11.822-2.301,23.645-4.602,35.469-6.903l-49.457-16.662
		c-0.365-0.068-0.75-0.124-1.123-0.188c-24.953-39.221-49.904-78.442-74.858-117.666c0.013,0.021,0.025,0.042,0.038,0.063
		c-1.856-2.946-4.982-5.92-8.531-7.85l-2.583-1.404c-4.684-2.548-8.644-2.487-9.916-0.143
		c-42.089,77.532-84.177,155.055-126.266,232.586c-9.085,16.736-18.17,33.47-27.256,50.206
		c-7.773,14.317-10.413,26.414-5.729,28.962l2.582,1.405c4.691,2.553,15.273-5.278,25.598-18.259
		c-0.065,0.081-0.129,0.167-0.194,0.248c49.523-61.942,99.046-123.882,148.57-185.824c11.284,10.994,22.568,21.988,33.85,32.981
		c-4.415,3.5-8.829,7-13.245,10.5c-3.264,2.589-0.366,5.068,7.813,5.984l4.524,0.508c5.359,0.601,11.894,0.399,17.946-0.392
		c2.792,2.721,5.585,5.442,8.378,8.163c-0.346,0.067-0.689,0.134-1.035,0.201c-26.023,5.065-52.044,10.129-78.065,15.193
		c0.019-0.003,0.048-0.006,0.069-0.01c-0.462,0.086-0.801,0.194-0.981,0.328c-11.258,8.403-22.517,16.805-33.777,25.208
		c-3.541,2.644-0.855,5.158,7.311,6.074l4.523,0.507c1.879,0.211,3.922,0.313,6.041,0.333 M378.838,195.627
		c-1.758-0.575-3.619-1.184-5.553-1.818L378.838,195.627z M251.688,265.768c4.042-0.787,8.152-1.587,12.299-2.394L251.688,265.768z
		 M282.23,242.975l50.576-9.844v0C315.793,236.443,298.869,239.736,282.23,242.975z"/>
</g>
<g>
	<g>
		<g>
			<path fill="#D71920" d="M220.366,287.449L237,342.375l-8.251,1.16l-3.024-10.087l-11.151,1.567l-2.327,10.839l-8.25,1.159
				l12.62-59.038L220.366,287.449z M216.814,324.47l5.896-0.829l-3.308-11.02l-0.048,0.006L216.814,324.47"/>
		</g>
		<g>
			<path fill="#D71920" d="M268.23,306.538c-0.94,2.731-2.238,4.947-3.885,6.664l6.541,24.27l0.005,0.141l-8.123,1.142
				l-5.923-22.058l-3.46,0.486l0.812,22.776l-7.649,1.075l-2.031-56.979l3.844-0.54l8.9-1.251c1.603-0.225,3.116,0.021,4.551,0.73
				c1.435,0.718,2.695,1.77,3.808,3.169c1.104,1.401,2.002,3.087,2.692,5.068c0.691,1.98,1.074,4.146,1.158,6.504
				C269.583,300.884,269.171,303.815,268.23,306.538z M259.914,303.375c0.767-1.292,1.116-2.774,1.057-4.445s-0.51-3.023-1.36-4.071
				c-0.843-1.039-1.816-1.486-2.929-1.33l-4.119,0.579l0.429,12.018l4.118-0.579C258.223,305.389,259.155,304.666,259.914,303.375"
				/>
		</g>
		<g>
			<polygon fill="#D71920" points="310.262,274.885 303.881,287.638 294.881,305.719 312.293,331.874 303.24,333.146 
				290.658,314.172 288.547,318.395 289.143,335.127 281.492,336.203 279.461,279.214 287.111,278.139 287.986,302.692 
				289.391,299.825 301.209,276.157 			"/>
		</g>
		<g>
			<path fill="#D71920" d="M113.621,368.238c2.9-0.407,5.613,0.051,8.14,1.376c2.526,1.325,4.739,3.313,6.645,5.953l-7.303,6.508
				c-1.006-0.894-2.108-1.552-3.315-1.975c-1.199-0.424-2.451-0.548-3.756-0.365c-1.594,0.224-3.076,0.883-4.423,1.956
				c-1.354,1.083-2.529,2.46-3.524,4.129c-0.995,1.669-1.765,3.572-2.309,5.691c-0.544,2.127-0.787,4.346-0.745,6.665l0.013,0.37
				c0.123,2.308,0.521,4.436,1.21,6.381c0.689,1.954,1.586,3.623,2.69,4.997c1.104,1.375,2.364,2.409,3.782,3.103
				c1.409,0.686,2.923,0.916,4.517,0.691c1.306-0.184,2.537-0.648,3.694-1.403c1.165-0.756,2.209-1.716,3.141-2.891l7.692,4.401
				c-1.699,3.156-3.748,5.743-6.156,7.761c-2.407,2.019-5.061,3.231-7.961,3.639c-2.667,0.375-5.209-0.02-7.626-1.192
				c-2.416-1.163-4.548-2.915-6.394-5.246c-1.838-2.341-3.332-5.155-4.472-8.452c-1.14-3.297-1.776-6.912-1.916-10.844
				c-0.14-3.932,0.233-7.698,1.127-11.307c0.894-3.609,2.172-6.83,3.826-9.653c1.663-2.824,3.648-5.155,5.958-6.982
				C108.465,369.715,110.954,368.613,113.621,368.238z"/>
		</g>
		<g>
			<path fill="#D71920" d="M171.49,377.779c1.141,3.324,1.777,6.948,1.917,10.879c0.14,3.932-0.233,7.689-1.128,11.272
				c-0.895,3.583-2.182,6.788-3.852,9.613c-1.678,2.835-3.665,5.157-5.958,6.991c-2.294,1.825-4.798,2.928-7.49,3.307
				c-2.667,0.375-5.217-0.018-7.634-1.181c-2.417-1.172-4.548-2.916-6.394-5.255c-1.838-2.333-3.332-5.146-4.472-8.443
				c-1.139-3.297-1.775-6.912-1.916-10.844c-0.14-3.932,0.233-7.698,1.126-11.307c0.894-3.609,2.172-6.83,3.827-9.653
				c1.662-2.824,3.647-5.154,5.957-6.991c2.31-1.828,4.807-2.93,7.474-3.305c2.691-0.378,5.25,0.014,7.65,1.179
				c2.401,1.175,4.532,2.926,6.395,5.255C168.847,371.625,170.349,374.456,171.49,377.779z M164.895,396.486
				c0.528-2.126,0.746-4.368,0.662-6.725s-0.459-4.532-1.134-6.507c-0.674-1.983-1.564-3.67-2.668-5.071
				c-1.104-1.401-2.38-2.442-3.831-3.131c-1.45-0.69-2.971-0.917-4.565-0.694c-1.603,0.226-3.1,0.878-4.479,1.965
				c-1.386,1.087-2.576,2.475-3.57,4.171c-0.994,1.695-1.755,3.615-2.282,5.767c-0.527,2.143-0.745,4.401-0.661,6.759
				s0.459,4.516,1.133,6.473c0.673,1.956,1.563,3.634,2.667,5.036c1.105,1.4,2.382,2.441,3.831,3.122
				c1.442,0.69,2.971,0.917,4.573,0.692c1.594-0.224,3.084-0.875,4.47-1.963c1.387-1.08,2.577-2.467,3.571-4.162
				C163.606,400.521,164.367,398.611,164.895,396.486"/>
		</g>
		<g>
			<polygon fill="#D71920" points="214.579,354.121 216.61,411.109 208.96,412.184 207.557,373.931 198.775,393.617 
				188.753,376.724 190.112,414.833 182.462,415.908 180.431,358.92 188.081,357.845 198.102,374.738 206.833,355.209 			"/>
		</g>
		<g>
			<polygon fill="#D71920" points="256.225,348.268 258.256,405.256 250.606,406.331 249.203,368.078 240.421,387.764 
				230.399,370.871 231.758,408.98 224.108,410.055 222.077,353.067 229.727,351.992 239.748,368.885 248.479,349.356 			"/>
		</g>
		<g>
			<path fill="#D71920" d="M291.566,343.301c0.137-0.019,0.194-0.001,0.18,0.054c-0.014,0.046-0.018,0.179-0.01,0.373l0.07,1.988
				l0.268,7.521l0.701,19.679l0.24,6.712c0.036,1.029,0.049,2.053,0.036,3.063c-0.013,1.018-0.088,2.055-0.22,3.107
				c-0.321,2.273-0.881,4.412-1.703,6.428c-0.813,2.015-1.829,3.776-3.039,5.281c-1.217,1.55-2.592,2.733-4.117,3.54
				c-1.078,0.571-2.178,0.936-3.295,1.093c-0.462,0.065-0.928,0.094-1.396,0.088c-1.611-0.021-3.123-0.463-4.54-1.325
				c-1.415-0.862-2.681-2.045-3.789-3.543c-1.108-1.498-2.016-3.262-2.74-5.282c-0.725-2.029-1.165-4.212-1.313-6.562l-0.134-3.756
				l-0.279-7.82l-0.699-19.609l-0.223-6.264l-0.04-1.108l1.401-0.197l5.992-0.842l0.152-0.021l0.194,1.167l0.168,4.715
				c0.066,1.865,0.126,3.757,0.178,5.677c0.053,1.92,0.113,3.839,0.181,5.757l0.636,17.84l0.05,1.399
				c0.066,1.865,0.423,3.521,1.079,4.958c0.404,0.934,0.914,1.702,1.539,2.303c0.625,0.602,1.323,0.973,2.102,1.111
				c0.354,0.069,0.705,0.079,1.057,0.03c0.383-0.054,0.762-0.178,1.137-0.374c0.727-0.376,1.375-0.944,1.951-1.715
				c0.608-0.784,1.074-1.725,1.404-2.832c0.332-1.107,0.541-2.233,0.637-3.387c0.039-0.695,0.039-1.376,0-2.033
				c-0.041-0.667-0.072-1.334-0.097-2.029l-0.231-6.483l-0.438-12.316l-0.547-15.333L291.566,343.301z"/>
		</g>
		<g>
			<polygon fill="#D71920" points="333.918,337.349 335.949,394.337 328.299,395.412 310.751,361.355 312.047,397.696 
				304.404,398.77 302.373,341.782 310.016,340.708 327.564,374.774 326.268,338.424 			"/>
		</g>
		<g>
			<polygon fill="#D71920" points="352.912,334.679 354.943,391.667 347.301,392.742 345.27,335.753 			"/>
		</g>
		<g>
			<polygon fill="#D71920" points="386.193,330.002 386.596,341.289 378.451,342.433 380.08,388.135 372.43,389.21 370.801,343.508 
				362.654,344.653 362.252,333.367 			"/>
		</g>
		<g>
			<polygon fill="#D71920" points="423.57,324.749 412.805,354.05 413.852,383.389 406.201,384.463 405.156,355.125 
				392.475,329.119 401.574,327.84 408.545,342.271 414.471,326.028 			"/>
		</g>
		<g>
			<polygon fill="#D71920" points="216.386,418.593 216.788,429.872 200.495,432.162 200.91,443.809 214.055,441.961 
				214.457,453.24 201.312,455.087 202.124,477.863 194.474,478.938 192.443,421.958 200.093,420.883 			"/>
		</g>
		<g>
			<path fill="#D71920" d="M251.672,413.634c0.128-0.018,0.193,0,0.179,0.046c-0.015,0.055-0.019,0.18-0.011,0.373l0.071,1.997
				l0.268,7.513l0.702,19.688l0.239,6.704c0.037,1.029,0.049,2.053,0.029,3.072c-0.013,1.01-0.088,2.046-0.211,3.107
				c-0.322,2.264-0.89,4.404-1.703,6.419c-0.814,2.024-1.83,3.776-3.048,5.282c-1.216,1.559-2.583,2.733-4.108,3.548
				c-1.078,0.564-2.179,0.928-3.297,1.085c-0.465,0.065-0.932,0.095-1.402,0.088c-1.603-0.022-3.117-0.464-4.54-1.325
				c-1.416-0.862-2.673-2.047-3.782-3.544c-1.108-1.498-2.024-3.261-2.748-5.281c-0.724-2.021-1.164-4.204-1.313-6.553l-0.134-3.765
				l-0.278-7.812l-0.699-19.609l-0.223-6.263l-0.04-1.109l1.402-0.197l6-0.843l0.153-0.021l0.186,1.159l0.168,4.715
				c0.067,1.874,0.126,3.767,0.179,5.687c0.052,1.911,0.113,3.83,0.181,5.748l0.636,17.84l0.05,1.399
				c0.067,1.874,0.431,3.521,1.079,4.968c0.403,0.925,0.914,1.693,1.539,2.303c0.625,0.602,1.331,0.971,2.101,1.111
				c0.351,0.067,0.698,0.076,1.042,0.027c0.388-0.055,0.774-0.182,1.159-0.381c0.719-0.367,1.375-0.945,1.951-1.716
				c0.608-0.775,1.074-1.716,1.405-2.823c0.331-1.116,0.54-2.242,0.628-3.386c0.047-0.697,0.047-1.377,0.007-2.044
				c-0.04-0.657-0.071-1.333-0.096-2.02l-0.231-6.492l-0.439-12.308l-0.546-15.334L251.672,413.634z"/>
		</g>
		<g>
			<polygon fill="#D71920" points="293.109,407.811 295.141,464.791 287.49,465.866 269.95,431.808 271.246,468.149 
				263.596,469.224 261.565,412.244 269.215,411.169 286.755,445.228 285.459,408.886 			"/>
		</g>
		<g>
			<path fill="#D71920" d="M330.051,420.142c1.141,3.324,1.777,6.947,1.918,10.88c0.139,3.931-0.234,7.688-1.129,11.271
				s-2.166,6.785-3.828,9.609c-1.654,2.832-3.641,5.163-5.959,6.99c-2.309,1.829-4.797,2.929-7.465,3.304l-7.754,1.09l-2.031-56.979
				l7.755-1.089c2.667-0.375,5.21,0.019,7.626,1.191c2.424,1.162,4.557,2.914,6.395,5.246
				C327.424,413.986,328.908,416.819,330.051,420.142z M323.479,438.846c0.545-2.128,0.779-4.372,0.695-6.729
				c-0.084-2.358-0.477-4.531-1.166-6.503c-0.689-1.981-1.588-3.667-2.693-5.068c-1.104-1.4-2.373-2.443-3.797-3.135
				c-1.434-0.683-2.949-0.921-4.551-0.696l1.211,33.984c1.604-0.225,3.086-0.876,4.455-1.952c1.363-1.084,2.545-2.471,3.539-4.167
				C322.166,442.885,322.936,440.973,323.479,438.846"/>
		</g>
	</g>
</g>
<g>
	<path fill="#ED1C24" d="M727.988,302.488c5.504,0.052,11.57-0.512,16.883-1.551c-0.023,0.004-0.045,0.01-0.07,0.015
		c5.092-0.991,10.182-1.982,15.275-2.973 M760.08,297.978c29.461-5.733,58.922-11.468,88.385-17.202
		c20.977,20.439,41.953,40.878,62.932,61.317c4.605,4.486,8.504,7.79,10.879,9.082l2.543,1.383c3.488,1.897,2.865-0.99-0.932-6.939
		c0.02,0.032,0.045,0.066,0.064,0.098c-15.027-23.62-30.053-47.239-45.08-70.859c8.75-1.703,17.498-3.406,26.248-5.108l22.92-4.46
		l22.662-4.411l15.6-3.037l-32.682-11.011c-21.197,4.126-42.857,8.342-64.582,12.57l0,0l64.582-12.57l-18.406-6.201l-0.242-0.027
		c-6.713-0.753-13.02-0.688-16.74,0.036c-4.58,0.892-10.691,2.082-15.271,2.973l-15.334,2.984l-5.992,1.166
		c-1.787-2.81-3.574-5.62-5.363-8.43c11.641-2.265,23.279-4.531,34.92-6.796l-48.691-16.404c-0.359-0.066-0.738-0.122-1.104-0.185
		c-24.566-38.613-49.133-77.227-73.701-115.842c0.014,0.021,0.027,0.042,0.037,0.063c-1.826-2.901-4.902-5.828-8.398-7.729
		l-2.541-1.383c-4.611-2.509-8.51-2.448-9.764-0.141c-41.436,76.33-82.871,152.653-124.309,228.982
		c-8.945,16.476-17.889,32.952-26.834,49.428c-7.65,14.095-10.25,26.005-5.641,28.513l2.543,1.383
		c4.619,2.513,15.037-5.196,25.201-17.977c-0.063,0.081-0.127,0.165-0.191,0.245c48.756-60.983,97.512-121.962,146.268-182.945
		c11.109,10.824,22.217,21.647,33.326,32.47c-4.346,3.446-8.693,6.892-13.041,10.338c-3.211,2.548-0.357,4.989,7.693,5.891
		l4.453,0.5c5.279,0.591,11.711,0.394,17.67-0.386c2.75,2.679,5.498,5.358,8.248,8.037c-0.34,0.066-0.682,0.132-1.02,0.198
		c-25.619,4.986-51.236,9.972-76.855,14.958c0.02-0.003,0.047-0.006,0.07-0.009c-0.455,0.084-0.789,0.191-0.969,0.322
		c-11.084,8.272-22.166,16.545-33.252,24.817c-3.486,2.603-0.842,5.078,7.197,5.98l4.453,0.499c1.852,0.208,3.861,0.308,5.947,0.328
		 M878.92,229.375c-1.729-0.567-3.561-1.166-5.465-1.79L878.92,229.375z M753.74,298.428c3.979-0.774,8.027-1.563,12.109-2.357
		L753.74,298.428z M783.809,275.988l49.795-9.691v0C816.854,269.558,800.193,272.8,783.809,275.988z"/>
</g>
<g>
	<g>
		<g enable-background="new    ">
			<g enable-background="new    ">
				<defs>
					<path id="SVGID_1_" enable-background="new    " d="M1480.664,395.169c-7.088,1.271-14.174,2.542-21.26,3.814
						c-0.055,0.009-0.111,0.014-0.174,0.012c-0.396-0.007-0.969-0.236-1.729-0.701l21.262-3.813c0.76,0.465,1.332,0.693,1.727,0.701
						C1480.553,395.183,1480.611,395.179,1480.664,395.169z"/>
				</defs>
				<clipPath id="SVGID_2_">
					<use xlink:href="#SVGID_1_"  overflow="visible"/>
				</clipPath>
				<g clip-path="url(#SVGID_2_)" enable-background="new    ">
					<path fill="#8F0507" d="M1480.664,395.169l-21.26,3.814c-0.055,0.009-0.111,0.014-0.174,0.012
						c-0.396-0.007-0.969-0.236-1.729-0.701l21.262-3.813c0.76,0.465,1.332,0.693,1.727,0.701
						C1480.553,395.183,1480.611,395.179,1480.664,395.169"/>
				</g>
			</g>
			<g>
				<polygon fill="#8B0304" points="1478.764,394.481 1457.502,398.294 1454.814,396.646 1476.074,392.832 				"/>
			</g>
			<g enable-background="new    ">
				<defs>
					<path id="SVGID_3_" enable-background="new    " d="M1427.828,268.678c7.086-1.271,14.172-2.543,21.26-3.814
						c-0.1,0.018-0.197,0.036-0.293,0.055c-4.781,0.929-11.152,2.178-15.932,3.116l-21.262,3.814
						c4.781-0.938,11.15-2.187,15.932-3.116C1427.631,268.714,1427.729,268.695,1427.828,268.678z"/>
				</defs>
				<clipPath id="SVGID_4_">
					<use xlink:href="#SVGID_3_"  overflow="visible"/>
				</clipPath>
				<g clip-path="url(#SVGID_4_)" enable-background="new    ">
					<path fill="#920609" d="M1432.863,268.035l-21.262,3.814c4.781-0.938,11.15-2.187,15.932-3.116
						c0.098-0.019,0.195-0.038,0.295-0.055l21.26-3.814c-0.1,0.018-0.197,0.036-0.293,0.055
						C1444.014,265.848,1437.643,267.097,1432.863,268.035"/>
				</g>
			</g>
			<g>
				<polygon fill="#910608" points="1416.875,271.161 1395.615,274.974 1411.602,271.849 1432.863,268.035 				"/>
			</g>
			<g enable-background="new    ">
				<defs>
					<path id="SVGID_5_" enable-background="new    " d="M1418.604,285.949l-21.26,3.814c22.648-4.431,45.234-8.846,67.342-13.18
						l21.26-3.814C1463.838,277.103,1441.254,281.518,1418.604,285.949z"/>
				</defs>
				<clipPath id="SVGID_6_">
					<use xlink:href="#SVGID_5_"  overflow="visible"/>
				</clipPath>
				<g clip-path="url(#SVGID_6_)" enable-background="new    ">
					<path fill="#920609" d="M1418.604,285.949l-21.26,3.814c22.648-4.431,45.234-8.846,67.342-13.18l21.26-3.814
						C1463.838,277.103,1441.254,281.518,1418.604,285.949"/>
				</g>
			</g>
			<g>
				<polygon fill="#910608" points="1410.627,272.385 1389.367,276.199 1395.615,274.974 1416.875,271.161 				"/>
			</g>
			<g enable-background="new    ">
				<defs>
					<path id="SVGID_7_" enable-background="new    " d="M1476.074,392.832l-21.26,3.814c-2.51-1.538-6.654-5.422-11.561-10.683
						c-22.342-23.997-44.684-47.983-67.035-71.97l21.262-3.814c22.35,23.987,44.691,47.974,67.033,71.97
						C1469.422,387.411,1473.564,391.294,1476.074,392.832z"/>
				</defs>
				<clipPath id="SVGID_8_">
					<use xlink:href="#SVGID_7_"  overflow="visible"/>
				</clipPath>
				<g clip-path="url(#SVGID_8_)" enable-background="new    ">
					<path fill="#8F0507" d="M1476.074,392.832l-21.26,3.814c-2.51-1.538-6.654-5.422-11.561-10.683
						c-22.342-23.997-44.684-47.983-67.035-71.97l21.262-3.814c22.35,23.987,44.691,47.974,67.033,71.97
						C1469.422,387.411,1473.564,391.294,1476.074,392.832"/>
				</g>
			</g>
			<g enable-background="new    ">
				<defs>
					<path id="SVGID_9_" enable-background="new    " d="M1368.67,280.595l-21.26,3.814c-1.863-3.346-4.797-6.498-7.725-9.64
						l21.26-3.814C1363.873,274.097,1366.807,277.249,1368.67,280.595z"/>
				</defs>
				<clipPath id="SVGID_10_">
					<use xlink:href="#SVGID_9_"  overflow="visible"/>
				</clipPath>
				<g clip-path="url(#SVGID_10_)" enable-background="new    ">
					<path fill="#8F0507" d="M1368.67,280.595l-21.26,3.814c-1.863-3.346-4.797-6.498-7.725-9.64l21.26-3.814
						C1363.873,274.097,1366.807,277.249,1368.67,280.595"/>
				</g>
			</g>
			<g enable-background="new    ">
				<defs>
					<path id="SVGID_11_" enable-background="new    " d="M1360.945,270.955l-21.26,3.814c-3.773,0.471-7.729,0.694-11.492,0.621
						c-2.445-0.047-4.809-0.22-6.988-0.531l21.26-3.814c2.18,0.312,4.543,0.484,6.988,0.531
						C1353.217,271.649,1357.174,271.426,1360.945,270.955z"/>
				</defs>
				<clipPath id="SVGID_12_">
					<use xlink:href="#SVGID_11_"  overflow="visible"/>
				</clipPath>
				<g clip-path="url(#SVGID_12_)" enable-background="new    ">
					<path fill="#8F0507" d="M1360.945,270.955l-21.26,3.814c-3.773,0.471-7.729,0.694-11.492,0.621
						c-2.445-0.047-4.809-0.22-6.988-0.531l21.26-3.814c2.18,0.312,4.543,0.484,6.988,0.531
						C1353.217,271.649,1357.174,271.426,1360.945,270.955"/>
				</g>
			</g>
			<g>
				<polygon fill="#8B0304" points="1342.465,271.044 1321.205,274.858 1316.535,274.194 1337.797,270.38 				"/>
			</g>
			<g enable-background="new    ">
				<defs>
					<path id="SVGID_13_" enable-background="new    " d="M1337.797,270.38l-21.262,3.814c-8.445-1.205-11.473-4.08-8.166-6.948
						c4.486-3.888,8.965-7.773,13.451-11.66l21.26-3.814c-4.486,3.887-8.963,7.772-13.451,11.66
						C1326.322,266.301,1329.35,269.176,1337.797,270.38z"/>
				</defs>
				<clipPath id="SVGID_14_">
					<use xlink:href="#SVGID_13_"  overflow="visible"/>
				</clipPath>
				<g clip-path="url(#SVGID_14_)" enable-background="new    ">
					<path fill="#8F0507" d="M1337.797,270.38l-21.262,3.814c-8.119-1.158-11.23-3.86-8.521-6.615l21.26-3.814
						C1326.564,266.521,1329.676,269.223,1337.797,270.38"/>
					<path fill="#920609" d="M1329.273,263.765l-21.26,3.814c0.109-0.111,0.229-0.222,0.355-0.333
						c4.486-3.888,8.965-7.773,13.451-11.66l21.26-3.814c-4.486,3.887-8.963,7.772-13.451,11.66
						C1329.502,263.543,1329.383,263.654,1329.273,263.765"/>
				</g>
			</g>
			<g enable-background="new    ">
				<defs>
					<path id="SVGID_15_" enable-background="new    " d="M1343.08,251.772l-21.26,3.814
						c-11.838-12.697-23.668-25.404-35.498-38.109l21.262-3.814C1319.412,226.369,1331.242,239.076,1343.08,251.772z"/>
				</defs>
				<clipPath id="SVGID_16_">
					<use xlink:href="#SVGID_15_"  overflow="visible"/>
				</clipPath>
				<g clip-path="url(#SVGID_16_)" enable-background="new    ">
					<path fill="#8F0507" d="M1343.08,251.772l-21.26,3.814c-11.838-12.697-23.668-25.404-35.498-38.109l21.262-3.814
						C1319.412,226.369,1331.242,239.076,1343.08,251.772"/>
				</g>
			</g>
			<g enable-background="new    ">
				<defs>
					<path id="SVGID_17_" enable-background="new    " d="M1287.6,296.62l-21.26,3.814c27.639-5.562,54.354-10.793,81.07-16.025
						l21.26-3.814C1341.955,285.826,1315.238,291.058,1287.6,296.62z"/>
				</defs>
				<clipPath id="SVGID_18_">
					<use xlink:href="#SVGID_17_"  overflow="visible"/>
				</clipPath>
				<g clip-path="url(#SVGID_18_)" enable-background="new    ">
					<path fill="#920609" d="M1287.6,296.62l-21.26,3.814c27.639-5.562,54.354-10.793,81.07-16.025l21.26-3.814
						C1341.955,285.826,1315.238,291.058,1287.6,296.62"/>
				</g>
			</g>
			<g>
				<polygon fill="#910608" points="1289.383,331.331 1268.123,335.145 1268.203,335.128 1289.465,331.315 				"/>
			</g>
			<g>
				<polygon fill="#8B0304" points="1305.32,328.214 1284.061,332.028 1250.561,336.58 1271.82,332.766 				"/>
			</g>
			<g>
				<path fill="#E21B22" d="M1305.293,328.218c-5.301,1.043-10.602,2.079-15.91,3.113l0.082-0.016
					c-5.33,1.052-11.389,1.576-16.975,1.468c-0.223-0.004-0.447-0.01-0.67-0.016L1305.293,328.218z"/>
			</g>
			<g enable-background="new    ">
				<defs>
					<path id="SVGID_19_" enable-background="new    " d="M1288.277,331.538c-7.088,1.271-14.174,2.542-21.262,3.814
						c-5.029,0.902-10.611,1.345-15.785,1.245c-0.223-0.004-0.447-0.01-0.67-0.016l21.26-3.814c0.223,0.006,0.447,0.012,0.67,0.016
						C1277.666,332.883,1283.246,332.441,1288.277,331.538z"/>
				</defs>
				<clipPath id="SVGID_20_">
					<use xlink:href="#SVGID_19_"  overflow="visible"/>
				</clipPath>
				<g clip-path="url(#SVGID_20_)" enable-background="new    ">
					<path fill="#8F0507" d="M1288.277,331.538l-21.26,3.814c-5.031,0.902-10.613,1.345-15.787,1.245
						c-0.223-0.004-0.447-0.01-0.67-0.016l21.26-3.814c0.223,0.006,0.447,0.012,0.67,0.016
						C1277.666,332.883,1283.246,332.441,1288.277,331.538"/>
				</g>
			</g>
			<g enable-background="new    ">
				<defs>
					<path id="SVGID_21_" enable-background="new    " d="M1271.82,332.766l-21.26,3.814c-2.184-0.069-4.287-0.227-6.23-0.498
						l21.262-3.814C1267.533,332.539,1269.637,332.698,1271.82,332.766z"/>
				</defs>
				<clipPath id="SVGID_22_">
					<use xlink:href="#SVGID_21_"  overflow="visible"/>
				</clipPath>
				<g clip-path="url(#SVGID_22_)" enable-background="new    ">
					<path fill="#8F0507" d="M1271.82,332.766l-21.26,3.814c-2.184-0.069-4.287-0.227-6.23-0.498l21.262-3.814
						C1267.533,332.539,1269.637,332.698,1271.82,332.766"/>
				</g>
			</g>
			<g>
				<polygon fill="#8B0304" points="1265.592,332.269 1244.33,336.083 1239.662,335.418 1260.924,331.604 				"/>
			</g>
			<g enable-background="new    ">
				<defs>
					<path id="SVGID_23_" enable-background="new    " d="M1260.924,331.604l-21.262,3.814c-8.43-1.205-11.246-4.111-7.648-7.046
						c11.439-9.313,22.879-18.626,34.326-27.938l21.26-3.814c-11.447,9.313-22.885,18.626-34.324,27.938
						C1249.676,327.494,1252.494,330.4,1260.924,331.604z"/>
				</defs>
				<clipPath id="SVGID_24_">
					<use xlink:href="#SVGID_23_"  overflow="visible"/>
				</clipPath>
				<g clip-path="url(#SVGID_24_)" enable-background="new    ">
					<path fill="#8F0507" d="M1260.924,331.604l-21.262,3.814c-7.951-1.136-10.91-3.787-8.197-6.548l21.26-3.814
						C1250.014,327.817,1252.971,330.468,1260.924,331.604"/>
					<path fill="#920609" d="M1252.725,325.056l-21.26,3.814c0.162-0.166,0.346-0.332,0.549-0.498
						c11.439-9.313,22.879-18.626,34.326-27.938l21.26-3.814c-11.447,9.313-22.885,18.626-34.324,27.938
						C1253.07,324.724,1252.887,324.891,1252.725,325.056"/>
				</g>
			</g>
			<g enable-background="new    ">
				<defs>
					<path id="SVGID_25_" enable-background="new    " d="M1135.574,442.021c-7.088,1.271-14.174,2.542-21.262,3.814
						c-0.436,0.078-0.852,0.114-1.25,0.106c-0.797-0.016-1.512-0.208-2.131-0.588l21.26-3.813c0.619,0.38,1.336,0.572,2.133,0.587
						C1134.721,442.135,1135.139,442.099,1135.574,442.021z"/>
				</defs>
				<clipPath id="SVGID_26_">
					<use xlink:href="#SVGID_25_"  overflow="visible"/>
				</clipPath>
				<g clip-path="url(#SVGID_26_)" enable-background="new    ">
					<path fill="#8F0507" d="M1135.574,442.021l-21.262,3.814c-0.436,0.078-0.852,0.114-1.25,0.106
						c-0.797-0.016-1.512-0.208-2.131-0.588l21.26-3.813c0.619,0.38,1.336,0.572,2.133,0.587
						C1134.721,442.135,1135.139,442.099,1135.574,442.021"/>
				</g>
			</g>
			<g>
				<polygon fill="#8B0304" points="1132.191,441.54 1110.932,445.353 1108.25,443.705 1129.51,439.891 				"/>
			</g>
			<g>
				<path fill="#E21B22" d="M1485.945,272.769l34.41,13.36l-16.262,3.183l-23.633,4.627l-23.9,4.676
					c-9.121,1.787-18.252,3.574-27.373,5.362c16.18,27.527,32.359,55.063,48.533,82.599c3.18,5.396,4.293,8.636,2.77,8.606
					c-0.395-0.008-0.967-0.236-1.727-0.701l-2.689-1.649c-2.51-1.538-6.652-5.421-11.561-10.683
					c-22.342-23.997-44.684-47.983-67.033-71.97c-30.727,6.014-61.441,12.029-92.16,18.035l-33.5,4.552
					c-2.184-0.068-4.287-0.227-6.229-0.498l-4.668-0.664c-8.43-1.205-11.248-4.111-7.648-7.046
					c11.439-9.313,22.877-18.626,34.324-27.938c27.639-5.562,54.355-10.793,81.07-16.025c-1.863-3.346-4.797-6.498-7.725-9.64
					c-3.771,0.471-7.729,0.694-11.492,0.621c-2.445-0.047-4.809-0.22-6.988-0.531l-4.668-0.664
					c-8.447-1.205-11.475-4.08-8.168-6.948c4.488-3.888,8.965-7.773,13.451-11.66c-11.838-12.697-23.668-25.404-35.496-38.109
					c-49.855,69.317-99.711,138.627-149.557,207.945c-8.881,12.399-18.227,20.625-23.703,20.519
					c-0.797-0.015-1.514-0.208-2.133-0.587l-2.682-1.649c-4.877-2.982-2.387-16.658,5.348-32.751
					c9.051-18.813,18.094-37.626,27.135-56.439c41.896-87.161,83.799-174.311,125.695-261.462c0.627-1.308,1.947-1.964,3.709-1.93
					c1.795,0.035,4.051,0.786,6.508,2.29l2.689,1.649c3.693,2.26,6.967,5.696,8.938,9.08c26.41,44.938,52.855,89.958,79.309,134.968
					c0.385,0.08,0.777,0.15,1.16,0.238l51.268,19.902c-12.141,2.375-24.273,4.749-36.414,7.124c1.926,3.275,3.854,6.551,5.773,9.826
					l6.248-1.225l15.988-3.125c4.779-0.938,11.15-2.187,15.932-3.116c2.01-0.394,4.75-0.571,7.904-0.51
					c2.93,0.057,6.217,0.319,9.605,0.804L1485.945,272.769l-67.342,13.18C1441.254,281.518,1463.838,277.103,1485.945,272.769z"/>
			</g>
			<g enable-background="new    ">
				<defs>
					<path id="SVGID_27_" enable-background="new    " d="M1269.006,91.206c7.088-1.271,14.174-2.543,21.26-3.814
						c-1.195,0.214-2.094,0.836-2.578,1.847c-41.896,87.152-83.799,174.302-125.695,261.462
						c-9.041,18.813-18.084,37.626-27.135,56.439c-7.734,16.093-10.225,29.769-5.348,32.751l-21.26,3.814
						c-4.879-2.982-2.387-16.658,5.348-32.751c9.051-18.813,18.092-37.626,27.135-56.439
						c41.895-87.16,83.799-174.311,125.695-261.462C1266.912,92.042,1267.811,91.42,1269.006,91.206z"/>
				</defs>
				<clipPath id="SVGID_28_">
					<use xlink:href="#SVGID_27_"  overflow="visible"/>
				</clipPath>
				<g clip-path="url(#SVGID_28_)" enable-background="new    ">
					<path fill="#8F0507" d="M1129.51,439.891l-21.26,3.814c-4.879-2.982-2.387-16.658,5.348-32.751
						c9.051-18.813,18.092-37.626,27.135-56.439c41.895-87.16,83.799-174.311,125.695-261.462c0.158-0.328,0.357-0.615,0.598-0.86
						l21.262-3.814c-0.24,0.245-0.441,0.532-0.6,0.86c-41.896,87.152-83.799,174.302-125.695,261.462
						c-9.041,18.813-18.084,37.626-27.135,56.439C1127.123,423.233,1124.633,436.908,1129.51,439.891"/>
					<path fill="#920609" d="M1288.287,88.378l-21.262,3.814c0.5-0.511,1.172-0.842,1.98-0.987l21.26-3.814
						C1289.459,87.537,1288.787,87.867,1288.287,88.378"/>
				</g>
			</g>
		</g>
	</g>
</g>
<g>
	<path fill="#ED1C24" d="M612.204,471.434l36.243-79.946c3.643-8.096,11.047-12.144,22.22-12.144
		c11.047,0,18.395,4.048,22.037,12.144l36.243,79.946h-29.505l-8.924-19.733h-39.886l-8.924,19.733H612.204z M659.011,433.232h23.13
		l-13.295-29.601L659.011,433.232z"/>
	<path fill="#ED1C24" d="M734.777,451.194v-50.093c0-7.926,2.214-13.365,6.647-16.318c4.432-2.949,12.477-4.427,24.132-4.427h55.002
		v19.48h-50.995c-3.643,0.34-5.828,1.688-6.557,4.048v39.973c0,3.376,0.849,5.653,2.55,6.831c0.971,0.676,2.914,1.012,5.828,1.012
		h2.368h46.806v19.733h-59.19c-3.159,0-6.438-0.506-9.835-1.518C740.361,466.88,734.777,460.642,734.777,451.194z"/>
	<path fill="#ED1C24" d="M836.944,398.825c0-9.274,4.918-15.093,14.753-17.457c3.033-0.672,8.013-1.012,14.934-1.012h55.73v19.48
		h-47.534c-5.586,0-8.742,1.518-9.471,4.554c-0.122,0.17-0.183,0.593-0.183,1.265v10.12h57.188v19.733h-57.188v35.925h-28.229
		V398.825z"/>
</g>
</svg>
