<?xml version="1.0" encoding="utf-8"?>
<!-- Generator: Adobe Illustrator 15.1.0, SVG Export Plug-In . SVG Version: 6.00 Build 0)  -->
<!DOCTYPE svg PUBLIC "-//W3C//DTD SVG 1.1//EN" "http://www.w3.org/Graphics/SVG/1.1/DTD/svg11.dtd">
<svg version="1.1" id="Layer_1" xmlns="http://www.w3.org/2000/svg" xmlns:xlink="http://www.w3.org/1999/xlink" x="0px" y="0px"
	 width="683.965px" height="1000px" viewBox="0 0 683.965 1000" enable-background="new 0 0 683.965 1000" xml:space="preserve">
<polygon fill="#2B3990" points="272.925,714.953 258.457,689.895 170.638,689.895 126.727,765.949 170.638,842.002 224.787,842.002 
	258.457,842.002 302.367,765.949 "/>
<polyline opacity="0.58" fill="#27AAE1" enable-background="new    " points="170.638,842.002 126.727,765.949 258.457,842.002 
	258.457,689.895 "/>
<polygon fill="#939598" points="521.979,714.953 507.51,689.895 419.692,689.895 375.782,765.949 419.692,842.002 473.842,842.002 
	507.51,842.002 551.422,765.949 "/>
<polygon fill="#FFDE17" points="400.338,656.041 275.432,656.041 212.978,764.215 231.361,796.055 275.432,872.389 400.338,872.389 
	444.409,796.059 462.793,764.215 "/>
<polygon opacity="0.8" fill="#594A42" enable-background="new    " points="239.762,410.088 227.822,389.407 155.344,389.407 
	119.104,452.175 155.344,514.943 200.034,514.943 227.822,514.943 264.062,452.175 "/>
<polygon opacity="0.8" fill="#594A42" enable-background="new    " points="376.356,389.407 303.879,389.407 267.64,452.175 
	278.307,470.65 303.879,514.943 376.356,514.943 401.928,470.653 412.596,452.175 "/>
<polygon opacity="0.8" fill="#594A42" enable-background="new    " points="525.668,389.407 453.19,389.407 441.405,409.82 
	416.952,452.175 453.19,514.943 481.29,514.943 525.668,514.943 561.909,452.175 "/>
<polygon fill="#2B3990" points="238.827,396.992 226.886,376.311 154.409,376.311 118.169,439.078 154.409,501.848 199.098,501.848 
	226.886,501.848 263.125,439.078 "/>
<g>
	<g>
		<path fill="#262262" d="M213.198,479.138c-1.581,0-3.013-0.932-3.655-2.376l-8.585-19.317l-1.607-3.602v1.978c0,2.209-1.791,4-4,4
			h-17.3l-7.531,16.942c-0.642,1.444-2.075,2.376-3.655,2.376H156.28c-1.367,0-2.639-0.697-3.374-1.852
			c-0.734-1.152-0.83-2.602-0.252-3.84l33.752-72.388c0.657-1.407,2.07-2.309,3.624-2.31h0.001c1.553,0,2.966,0.899,3.624,2.307
			l33.824,72.389c0.579,1.237,0.485,2.688-0.25,3.841s-2.007,1.853-3.375,1.853L213.198,479.138L213.198,479.138z M194.166,442.197
			l-4.134-9.312l-4.135,9.312H194.166z"/>
	</g>
</g>
<polygon fill="#FFFFFF" points="189.787,402.75 156.036,475.136 166.619,475.136 175.206,455.819 195.105,455.819 195.105,446.196 
	179.499,446.196 189.787,423.03 200.075,446.196 204.368,455.819 212.953,475.136 223.611,475.136 "/>
<polygon fill="#FFF200" points="375.42,376.311 302.943,376.311 266.705,439.078 277.371,457.554 302.943,501.848 375.42,501.848 
	400.993,457.556 411.661,439.078 "/>
<g>
	<g>
		<g>
			<path fill="#FBB040" d="M334.921,478.605c-11.071,0-20.639-3.955-28.438-11.756c-7.8-7.801-11.755-17.368-11.755-28.438
				c0-11.015,3.952-20.579,11.746-28.428c7.813-7.812,17.379-11.767,28.449-11.767c8.62,0,16.506,2.547,23.442,7.571
				c6.803,4.9,11.668,11.37,14.449,19.223c0.434,1.226,0.244,2.583-0.506,3.645c-0.748,1.061-1.967,1.69-3.266,1.69h-10.51
				c-1.502,0-2.877-0.841-3.563-2.178c-1.904-3.726-4.563-6.628-8.121-8.875c-3.656-2.269-7.566-3.379-11.928-3.379
				c-6.307,0-11.531,2.159-15.972,6.6c-4.44,4.441-6.6,9.642-6.6,15.897c0,6.306,2.159,11.53,6.6,15.971
				c4.44,4.441,9.666,6.601,15.972,6.601h36.194c2.209,0,4,1.791,4,4v9.622c0,2.209-1.791,4-4,4H334.921L334.921,478.605z"/>
		</g>
	</g>
</g>
<g>
	<path fill="#FFFFFF" d="M370.87,464.983v9.622h-36.195c-10.017,0-18.553-3.527-25.608-10.584
		c-7.058-7.056-10.583-15.592-10.583-25.608c0-9.967,3.526-18.504,10.583-25.61c7.056-7.055,15.592-10.583,25.608-10.583
		c7.796,0,14.828,2.271,21.097,6.811c6.168,4.439,10.51,10.213,13.025,17.318h-10.51c-2.223-4.341-5.404-7.819-9.551-10.437
		c-4.291-2.664-8.98-3.997-14.063-3.997c-7.353,0-13.618,2.59-18.799,7.771c-5.181,5.182-7.771,11.424-7.771,18.727
		c0,7.352,2.59,13.618,7.771,18.799c5.182,5.182,11.447,7.772,18.799,7.772H370.87L370.87,464.983z"/>
</g>
<g>
	<path fill="#262262" d="M167.056,546.797l-1.798-4.815h-7.559l-1.83,4.815h-5.595l9.934-26.207h2.543l9.898,26.207H167.056z
		 M159.461,537.303h4.001l-1.968-5.258h-0.032L159.461,537.303z"/>
	<path fill="#262262" d="M192.602,528.455c0,1.445-0.351,2.764-1.05,3.949c-0.702,1.188-1.627,2.114-2.781,2.797l3.831,11.524v0.07
		h-5.507l-3.471-10.479h-2.343v10.479h-5.188V520.59h2.61h6.035c1.085,0,2.102,0.207,3.049,0.627c0.95,0.42,1.78,0.982,2.493,1.695
		c0.712,0.713,1.277,1.541,1.695,2.492C192.392,526.355,192.602,527.369,192.602,528.455z M181.281,531.236h2.798
		c0.748,0,1.397-0.271,1.94-0.814c0.548-0.543,0.821-1.199,0.821-1.967c0-0.766-0.273-1.418-0.821-1.951
		c-0.543-0.531-1.193-0.797-1.94-0.797h-2.798V531.236z"/>
	<path fill="#262262" d="M207.615,533.744l11.117,13.086h-6.136l-8.035-9.492l-1.522,1.795v7.697h-5.188v-26.209h5.188v11.293
		l1.015-1.223l8.542-10.07h6.136l-4.608,5.428h0.033L207.615,533.744z"/>
	<path fill="#6A5870" d="M450.854,525.742v5.354h8.914v5.189h-8.914v10.475h-5.186v-26.203h5.186h11.053v5.185H450.854z"/>
	<path fill="#6A5870" d="M483.786,520.559c0.09,0,0.129,0.009,0.115,0.033c-0.01,0.021-0.014,0.08-0.014,0.168v0.918v3.457v9.052
		v3.086c0,0.471-0.021,0.942-0.053,1.405c-0.033,0.461-0.105,0.933-0.219,1.406c-0.271,1.016-0.705,1.961-1.305,2.828
		c-0.6,0.871-1.32,1.613-2.18,2.225c-0.857,0.636-1.811,1.086-2.863,1.355c-1.045,0.27-2.109,0.352-3.195,0.238
		c-1.082-0.115-2.09-0.414-3.029-0.9c-0.936-0.488-1.756-1.105-2.469-1.861c-0.711-0.76-1.285-1.625-1.725-2.596
		c-0.441-0.975-0.684-1.996-0.729-3.088v-1.728v-3.592v-9.022v-2.875v-0.511h0.949h4.07h0.1l0.068,0.033h0.033v0.508v2.166
		c0,0.861-0.006,1.734-0.016,2.613c-0.016,0.883-0.018,1.766-0.018,2.646v8.205v0.645c0,0.855,0.201,1.641,0.609,2.336
		c0.248,0.453,0.576,0.84,0.984,1.156c0.404,0.317,0.871,0.526,1.391,0.643c0.496,0.111,0.992,0.107,1.49-0.018
		c0.496-0.123,0.947-0.344,1.354-0.66c0.434-0.316,0.77-0.719,1.018-1.205c0.25-0.486,0.42-0.988,0.51-1.506
		c0.045-0.318,0.061-0.629,0.051-0.934c-0.012-0.306-0.016-0.615-0.016-0.933v-2.981v-5.662v-7.052L483.786,520.559L483.786,520.559
		z"/>
	<path fill="#6A5870" d="M509.221,546.762h-5.182v0.035l-11.021-16.748v16.713h-5.186v-26.203h5.186v0.033l0.035-0.033
		l10.986,16.714v-16.714h5.182V546.762z"/>
	<path fill="#6A5870" d="M519.549,520.559c1.813,0,3.52,0.343,5.121,1.031c1.605,0.693,3,1.627,4.189,2.814
		c1.18,1.188,2.123,2.578,2.813,4.174c0.689,1.592,1.033,3.291,1.033,5.102c0,1.806-0.346,3.504-1.033,5.084
		s-1.633,2.966-2.813,4.148c-1.189,1.188-2.584,2.129-4.189,2.818c-1.604,0.686-3.311,1.03-5.121,1.03h-5.254v-26.203
		L519.549,520.559L519.549,520.559z M519.549,541.473c1.086,0,2.105-0.198,3.053-0.606c0.953-0.408,1.781-0.967,2.494-1.681
		c0.713-0.713,1.275-1.532,1.691-2.475c0.416-0.938,0.627-1.949,0.627-3.031c0-1.088-0.211-2.104-0.627-3.053
		c-0.416-0.951-0.979-1.781-1.691-2.492c-0.711-0.711-1.541-1.272-2.494-1.682c-0.947-0.404-1.967-0.609-3.053-0.609V541.473z"/>
</g>
<path fill="#FBB040" d="M236.634,541.441c0.881,0,1.721-0.138,2.523-0.41c0.802-0.269,1.532-0.642,2.187-1.115l5.085,2.51
	c-1.22,1.334-2.665,2.383-4.339,3.152c-1.675,0.768-3.493,1.152-5.457,1.152c-1.809,0-3.515-0.347-5.12-1.033
	c-1.605-0.691-3.001-1.629-4.187-2.818c-1.188-1.184-2.126-2.568-2.815-4.148c-0.689-1.581-1.033-3.276-1.033-5.084
	c0-1.813,0.344-3.51,1.033-5.104c0.689-1.594,1.628-2.982,2.815-4.168c1.185-1.189,2.582-2.125,4.187-2.818
	c1.604-0.686,3.311-1.03,5.12-1.03c1.964,0,3.782,0.385,5.457,1.151c1.674,0.769,3.119,1.818,4.339,3.152l-5.085,2.51
	c-0.655-0.475-1.384-0.848-2.187-1.117c-0.802-0.272-1.643-0.408-2.523-0.408c-1.088,0-2.099,0.199-3.035,0.607
	c-0.94,0.408-1.763,0.965-2.474,1.662c-0.713,0.701-1.277,1.52-1.698,2.461c-0.417,0.938-0.636,1.936-0.659,2.996v0.035v0.135
	c0.022,1.063,0.242,2.061,0.659,3c0.42,0.94,0.985,1.76,1.698,2.457c0.711,0.701,1.534,1.254,2.474,1.662
	C234.535,541.24,235.545,541.441,236.634,541.441z"/>
<path fill="#FBB040" d="M262.121,520.592c1.83,0,3.542,0.344,5.135,1.033c1.595,0.691,2.988,1.627,4.187,2.814
	c1.199,1.187,2.142,2.577,2.83,4.172c0.689,1.59,1.033,3.291,1.033,5.1s-0.344,3.504-1.033,5.084
	c-0.688,1.584-1.631,2.969-2.83,4.156c-1.199,1.184-2.592,2.121-4.187,2.811c-1.593,0.693-3.305,1.035-5.135,1.035
	c-1.812,0-3.517-0.342-5.12-1.035c-1.605-0.688-3.001-1.627-4.188-2.811c-1.186-1.188-2.124-2.572-2.813-4.156
	c-0.688-1.58-1.035-3.275-1.035-5.084s0.346-3.51,1.035-5.1c0.688-1.595,1.626-2.984,2.813-4.172
	c1.187-1.188,2.583-2.123,4.188-2.814C258.604,520.936,260.309,520.592,262.121,520.592z M262.121,541.512
	c1.083,0,2.104-0.207,3.068-0.612c0.958-0.406,1.794-0.966,2.506-1.679c0.713-0.713,1.273-1.537,1.679-2.475
	c0.406-0.939,0.61-1.951,0.61-3.035s-0.204-2.102-0.61-3.053c-0.406-0.945-0.966-1.777-1.679-2.49
	c-0.712-0.711-1.547-1.268-2.506-1.676c-0.964-0.408-1.985-0.613-3.068-0.613c-1.087,0-2.11,0.205-3.069,0.613
	c-0.962,0.408-1.798,0.965-2.51,1.676c-0.709,0.713-1.271,1.545-1.677,2.49c-0.408,0.951-0.61,1.969-0.61,3.053
	s0.203,2.096,0.61,3.035c0.406,0.938,0.968,1.762,1.677,2.475c0.712,0.713,1.548,1.271,2.51,1.679
	C260.011,541.305,261.034,541.512,262.121,541.512z"/>
<path fill="#FBB040" d="M301.987,520.561v26.205h-5.188l-0.027-17.598l-6.399,8.441l-6.355-8.373v17.528h-5.187V520.56h5.187
	l6.355,8.371l6.36-8.371l0.065,0.031v-0.031L301.987,520.561L301.987,520.561z"/>
<path fill="#FBB040" d="M330.227,520.561v26.205h-5.188l-0.027-17.598l-6.398,8.441l-6.354-8.373v17.528h-5.188V520.56h5.188
	l6.354,8.371l6.356-8.371l0.069,0.031v-0.031L330.227,520.561L330.227,520.561z"/>
<path fill="#FBB040" d="M354.194,520.561c0.086,0,0.129,0.011,0.117,0.031c-0.01,0.021-0.018,0.08-0.018,0.168v0.918v3.457v9.051
	v3.087c0,0.475-0.018,0.942-0.053,1.409c-0.031,0.461-0.105,0.929-0.215,1.404c-0.275,1.014-0.709,1.961-1.309,2.83
	c-0.596,0.867-1.324,1.611-2.18,2.221c-0.859,0.636-1.811,1.086-2.859,1.355c-1.049,0.272-2.113,0.352-3.195,0.238
	c-1.084-0.115-2.095-0.412-3.03-0.898c-0.938-0.486-1.759-1.107-2.472-1.863c-0.708-0.76-1.285-1.625-1.725-2.596
	s-0.684-1.996-0.729-3.086v-1.729v-3.592v-9.02v-2.879v-0.509h0.952h4.063h0.104l0.068,0.031h0.032v0.512v2.166
	c0,0.859-0.006,1.73-0.018,2.609c-0.012,0.883-0.016,1.766-0.016,2.646v8.204v0.646c0,0.859,0.2,1.641,0.61,2.34
	c0.247,0.451,0.575,0.836,0.979,1.152c0.406,0.317,0.871,0.531,1.395,0.646c0.498,0.109,0.99,0.104,1.49-0.021
	c0.498-0.119,0.949-0.344,1.357-0.66c0.426-0.314,0.766-0.715,1.016-1.201c0.246-0.485,0.414-0.987,0.508-1.51
	c0.045-0.318,0.063-0.629,0.053-0.935c-0.014-0.301-0.021-0.612-0.021-0.93v-2.983v-5.662v-7.05h5.092V520.561z"/>
<path fill="#FBB040" d="M381.813,546.766h-5.186v0.031l-11.018-16.746v16.715h-5.186v-26.205h5.186v0.031l0.033-0.031l10.982,16.712
	v-16.712h5.186v26.205H381.813z"/>
<path fill="#FBB040" d="M388.417,546.766v-26.205h5.186v26.205H388.417z"/>
<path fill="#FBB040" d="M415.708,525.744h-5.525v21.021h-5.186v-21.021h-5.527v-5.185h16.238V525.744z"/>
<path fill="#FBB040" d="M431.293,533.271v13.493h-5.186v-13.493l-7.938-12.712h6.176l4.352,7.05l4.391-7.05h6.17L431.293,533.271z"
	/>
<polygon fill="#939598" points="524.733,376.311 452.254,376.311 440.469,396.723 416.016,439.078 452.254,501.846 480.354,501.846 
	524.733,501.846 560.973,439.078 "/>
<g>
	<g>
		<path fill="#6A5870" d="M466.147,479.138c-2.211,0-4-1.791-4-4V402.75c0-2.209,1.789-4,4-4h48.258c2.209,0,4,1.791,4,4v9.696
			c0,2.209-1.791,4-4,4h-34.637v11.245h16.861c2.209,0,4,1.791,4,4v9.695c0,2.209-1.791,4-4,4h-16.861v29.751c0,2.209-1.791,4-4,4
			H466.147L466.147,479.138z"/>
	</g>
</g>
<g>
	<path fill="#FFFFFF" d="M514.159,402.75v9.696h-38.637v19.244h20.863v9.695h-20.863v33.75h-9.621V402.75H514.159z"/>
</g>
<polygon opacity="0.5" fill="#27AAE1" enable-background="new    " points="104.093,414.031 75.94,414.031 71.362,421.96 
	61.864,438.413 75.94,462.793 86.854,462.793 104.093,462.793 118.169,438.413 "/>
<polygon fill="#6A5870" points="554.774,159.405 511.458,84.379 424.827,84.379 410.741,108.778 470.85,212.89 458.415,234.431 
	511.458,234.431 "/>
<polygon fill="#939598" points="410.741,108.778 381.51,159.405 424.827,234.431 458.415,234.431 470.85,212.89 "/>
<g>
	<g>
		<path fill="#939598" d="M441.43,206.505c-2.209,0-4-1.791-4-4v-86.522c0-2.209,1.791-4,4-4h57.684c2.209,0,4,1.791,4,4v11.59
			c0,2.209-1.791,4-4,4H456.93v15.001h20.938c2.209,0,4,1.791,4,4v11.59c0,2.209-1.791,4-4,4H456.93v36.341c0,2.209-1.791,4-4,4
			H441.43z"/>
	</g>
</g>
<g>
	<path fill="#FFFFFF" d="M498.819,115.982v11.59h-46.18v23.002h24.936v11.588h-24.936v40.343h-11.502v-86.523H498.819z"/>
</g>
<polygon fill="#262262" points="278.17,110.057 263.898,85.337 177.267,85.337 133.949,160.364 177.267,235.39 230.684,235.39 
	218.248,213.849 "/>
<polygon fill="#2B3990" points="307.213,160.364 278.17,110.057 218.248,213.849 230.684,235.39 263.898,235.39 "/>
<g>
	<g>
		<path fill="#2B3990" d="M247.536,207.464c-1.581,0-3.013-0.931-3.655-2.375l-10.262-23.091l-3.416-7.655v6.031
			c0,2.209-1.791,4-4,4h-21.186l-9.208,20.715c-0.642,1.445-2.075,2.375-3.655,2.375h-12.65c-1.367,0-2.639-0.698-3.374-1.851
			c-0.735-1.153-0.83-2.601-0.252-3.84l40.342-86.523c0.657-1.408,2.07-2.309,3.624-2.31h0.001c1.553,0,2.966,0.899,3.624,2.307
			l40.429,86.523c0.579,1.239,0.485,2.688-0.25,3.841c-0.734,1.153-2.007,1.852-3.375,1.852L247.536,207.464L247.536,207.464z
			 M225.99,164.873l-6.144-13.835l-6.145,13.835H225.99z"/>
	</g>
</g>
<polygon fill="#FFFFFF" points="219.553,116.94 179.211,203.463 191.862,203.463 202.125,180.373 225.91,180.373 225.91,168.871 
	207.256,168.871 219.553,141.182 231.849,168.871 236.98,180.373 247.243,203.463 259.983,203.463 "/>
<polygon fill="#FFF200" points="413.274,173.511 418.342,182.287 431.094,160.202 387.776,85.176 301.145,85.176 257.831,160.202 
	270.58,182.285 275.644,173.511 "/>
<polygon fill="#FBB040" points="387.776,235.228 418.342,182.287 413.274,173.511 275.644,173.511 270.58,182.285 301.145,235.228 
	"/>
<g>
	<g>
		<g>
			<path fill="#FBB040" d="M339.367,206.667c-13.018,0-24.269-4.65-33.44-13.822c-9.171-9.171-13.821-20.421-13.821-33.438
				c0-12.953,4.647-24.201,13.812-33.429c9.184-9.182,20.435-13.832,33.45-13.832c10.136,0,19.408,2.995,27.56,8.9
				c8.004,5.762,13.725,13.37,16.994,22.606c0.434,1.224,0.246,2.583-0.504,3.643c-0.75,1.061-1.969,1.691-3.268,1.691H367.59
				c-1.502,0-2.877-0.841-3.563-2.178c-2.344-4.582-5.609-8.151-9.986-10.914c-4.502-2.794-9.311-4.16-14.674-4.16
				c-7.754,0-14.179,2.655-19.644,8.118c-5.461,5.461-8.115,11.858-8.115,19.554c0,7.755,2.654,14.18,8.116,19.642
				c5.464,5.463,11.889,8.118,19.644,8.118h43.263c2.209,0,4,1.791,4,4v11.501c0,2.209-1.791,4-4,4L339.367,206.667L339.367,206.667
				z"/>
		</g>
	</g>
</g>
<g>
	<path fill="#FFFFFF" d="M382.334,191.166v11.5h-43.261c-11.973,0-22.175-4.216-30.61-12.651c-8.434-8.433-12.65-18.636-12.65-30.61
		c0-11.913,4.216-22.118,12.65-30.61c8.436-8.433,18.638-12.65,30.61-12.65c9.318,0,17.724,2.712,25.214,8.14
		c7.373,5.307,12.564,12.208,15.572,20.701h-12.563c-2.656-5.189-6.461-9.348-11.416-12.475c-5.129-3.185-10.732-4.777-16.809-4.777
		c-8.789,0-16.277,3.096-22.471,9.289c-6.192,6.194-9.289,13.654-9.289,22.383c0,8.789,3.097,16.278,9.289,22.47
		c6.192,6.194,13.682,9.291,22.471,9.291L382.334,191.166L382.334,191.166z"/>
</g>
<g>
	<path fill="#262262" d="M221.427,262.51l-1.339-3.587h-5.629l-1.364,3.587h-4.167l7.399-19.519h1.894l7.372,19.519H221.427z
		 M215.771,255.439h2.98l-1.465-3.915h-0.025L215.771,255.439z"/>
	<path fill="#262262" d="M240.455,248.848c0,1.078-0.26,2.06-0.782,2.941c-0.523,0.885-1.211,1.578-2.071,2.085l2.854,8.584v0.052
		h-4.101l-2.586-7.804h-1.745v7.804h-3.863v-19.519h1.944h4.495c0.807,0,1.565,0.156,2.27,0.467
		c0.708,0.312,1.326,0.731,1.857,1.262c0.531,0.53,0.95,1.149,1.263,1.856C240.297,247.285,240.455,248.04,240.455,248.848z
		 M232.022,250.92h2.084c0.557,0,1.041-0.203,1.445-0.607c0.407-0.404,0.612-0.892,0.612-1.465c0-0.57-0.205-1.055-0.612-1.451
		c-0.404-0.396-0.889-0.594-1.445-0.594h-2.084V250.92z"/>
	<path fill="#262262" d="M251.636,252.788l8.28,9.747h-4.57l-5.985-7.07l-1.134,1.338v5.731h-3.865v-19.519h3.865v8.409l0.758-0.909
		l6.361-7.5h4.57l-3.433,4.041h0.024L251.636,252.788z"/>
	<path fill="#6A5870" d="M432.805,246.828v3.99h6.643v3.865h-6.643v7.802h-3.861v-19.518h3.861h8.232v3.861H432.805z"/>
	<path fill="#6A5870" d="M457.334,242.967c0.066,0,0.096,0.007,0.086,0.026c-0.008,0.015-0.012,0.06-0.012,0.125v0.683v2.576v6.741
		v2.299c0,0.352-0.016,0.703-0.037,1.047c-0.025,0.344-0.08,0.695-0.164,1.047c-0.203,0.758-0.525,1.461-0.973,2.108
		c-0.445,0.649-0.984,1.201-1.623,1.656c-0.639,0.472-1.348,0.808-2.131,1.01c-0.779,0.201-1.574,0.261-2.383,0.176
		c-0.805-0.084-1.557-0.307-2.256-0.669c-0.695-0.363-1.307-0.824-1.838-1.387c-0.529-0.565-0.957-1.21-1.285-1.934
		c-0.328-0.725-0.508-1.487-0.543-2.299v-1.286v-2.676v-6.719v-2.144v-0.379h0.707h3.033h0.074l0.051,0.026h0.023v0.377v1.615
		c0,0.639-0.004,1.29-0.012,1.946c-0.012,0.656-0.014,1.314-0.014,1.969v6.111v0.48c0,0.639,0.15,1.221,0.455,1.742
		c0.184,0.336,0.43,0.625,0.732,0.86c0.303,0.235,0.648,0.393,1.035,0.479c0.371,0.082,0.74,0.08,1.111-0.013
		c0.369-0.092,0.705-0.257,1.008-0.492c0.322-0.235,0.572-0.535,0.758-0.897c0.186-0.362,0.313-0.736,0.379-1.124
		c0.033-0.236,0.045-0.467,0.037-0.694c-0.008-0.228-0.012-0.459-0.012-0.695v-2.22v-4.217v-5.253L457.334,242.967L457.334,242.967z
		"/>
	<path fill="#6A5870" d="M476.28,262.485h-3.861v0.025l-8.207-12.474v12.449h-3.863v-19.518h3.863v0.026l0.025-0.026l8.182,12.449
		v-12.449h3.861V262.485z"/>
	<path fill="#6A5870" d="M483.969,242.967c1.352,0,2.621,0.256,3.816,0.769c1.195,0.515,2.234,1.212,3.119,2.096
		c0.881,0.884,1.584,1.92,2.096,3.107s0.771,2.454,0.771,3.8c0,1.345-0.26,2.609-0.771,3.787c-0.512,1.179-1.215,2.209-2.096,3.091
		c-0.885,0.884-1.924,1.585-3.119,2.098c-1.195,0.512-2.467,0.77-3.816,0.77h-3.91v-19.518H483.969L483.969,242.967z
		 M483.969,258.545c0.813,0,1.568-0.149,2.275-0.453c0.711-0.304,1.326-0.721,1.857-1.252c0.529-0.529,0.949-1.142,1.26-1.843
		c0.311-0.698,0.467-1.451,0.467-2.258c0-0.81-0.156-1.567-0.467-2.274c-0.311-0.706-0.729-1.326-1.26-1.856
		c-0.531-0.528-1.146-0.948-1.857-1.25c-0.707-0.303-1.463-0.454-2.275-0.454V258.545z"/>
</g>
<path fill="#FBB040" d="M273.25,258.521c0.656,0,1.282-0.102,1.878-0.303c0.598-0.202,1.142-0.479,1.63-0.833l3.789,1.869
	c-0.908,0.994-1.985,1.776-3.233,2.348c-1.246,0.573-2.6,0.86-4.063,0.86c-1.348,0-2.619-0.258-3.814-0.771
	c-1.195-0.514-2.234-1.212-3.118-2.098c-0.884-0.882-1.583-1.914-2.096-3.091c-0.513-1.179-0.77-2.441-0.77-3.786
	c0-1.349,0.257-2.615,0.77-3.803c0.514-1.186,1.212-2.221,2.096-3.104c0.884-0.885,1.923-1.583,3.118-2.097
	c1.195-0.513,2.466-0.771,3.814-0.771c1.463,0,2.817,0.287,4.063,0.858c1.248,0.573,2.325,1.355,3.233,2.349l-3.789,1.869
	c-0.488-0.354-1.032-0.631-1.63-0.833c-0.596-0.202-1.222-0.302-1.878-0.302c-0.811,0-1.563,0.148-2.261,0.452
	c-0.699,0.302-1.313,0.717-1.843,1.237c-0.529,0.523-0.951,1.133-1.264,1.832c-0.31,0.699-0.474,1.443-0.489,2.233v0.025v0.1
	c0.016,0.793,0.18,1.537,0.489,2.235c0.313,0.7,0.735,1.31,1.264,1.83c0.53,0.522,1.144,0.935,1.843,1.238
	C271.688,258.372,272.439,258.521,273.25,258.521z"/>
<path fill="#FBB040" d="M292.232,242.993c1.363,0,2.639,0.257,3.825,0.77c1.189,0.515,2.226,1.212,3.119,2.095
	c0.891,0.885,1.596,1.921,2.108,3.108c0.513,1.185,0.77,2.451,0.77,3.797c0,1.348-0.257,2.61-0.77,3.787
	c-0.512,1.181-1.217,2.21-2.108,3.096c-0.893,0.883-1.93,1.581-3.119,2.094c-1.186,0.515-2.461,0.77-3.825,0.77
	c-1.348,0-2.619-0.254-3.813-0.77c-1.196-0.514-2.236-1.211-3.121-2.094c-0.883-0.885-1.58-1.915-2.093-3.096
	c-0.514-1.177-0.771-2.439-0.771-3.787c0-1.346,0.258-2.612,0.771-3.797c0.513-1.187,1.21-2.223,2.093-3.108
	c0.885-0.883,1.924-1.581,3.121-2.095C289.613,243.25,290.884,242.993,292.232,242.993z M292.232,258.574
	c0.807,0,1.569-0.154,2.286-0.457c0.714-0.302,1.336-0.72,1.867-1.249c0.53-0.531,0.947-1.146,1.25-1.843
	c0.302-0.699,0.455-1.454,0.455-2.262c0-0.806-0.153-1.565-0.455-2.273c-0.302-0.704-0.719-1.323-1.25-1.854
	c-0.531-0.531-1.153-0.946-1.867-1.249c-0.717-0.303-1.479-0.456-2.286-0.456c-0.809,0-1.572,0.153-2.285,0.456
	c-0.716,0.303-1.338,0.718-1.87,1.249c-0.527,0.53-0.946,1.149-1.248,1.854c-0.305,0.708-0.455,1.467-0.455,2.273
	c0,0.808,0.15,1.563,0.455,2.262c0.302,0.698,0.721,1.312,1.248,1.843c0.532,0.529,1.154,0.947,1.87,1.249
	C290.661,258.419,291.423,258.574,292.232,258.574z"/>
<path fill="#FBB040" d="M321.926,242.969v19.52h-3.863l-0.02-13.107l-4.767,6.288l-4.733-6.236v13.056h-3.864V242.97h3.864
	l4.733,6.236l4.736-6.236l0.05,0.024v-0.024h3.863V242.969z"/>
<path fill="#FBB040" d="M342.959,242.969v19.52h-3.863l-0.02-13.107l-4.769,6.288l-4.73-6.236v13.056h-3.865V242.97h3.865
	l4.73,6.236l4.734-6.236l0.053,0.024v-0.024h3.864V242.969z"/>
<path fill="#FBB040" d="M360.813,242.969c0.063,0,0.096,0.008,0.088,0.024c-0.01,0.016-0.016,0.06-0.016,0.125v0.683v2.576v6.742
	v2.298c0,0.354-0.012,0.703-0.039,1.049c-0.021,0.344-0.078,0.693-0.158,1.046c-0.205,0.757-0.527,1.462-0.977,2.109
	c-0.443,0.647-0.984,1.201-1.621,1.654c-0.643,0.472-1.35,0.808-2.131,1.01c-0.781,0.203-1.576,0.261-2.381,0.177
	c-0.807-0.086-1.561-0.306-2.256-0.67c-0.699-0.362-1.311-0.825-1.842-1.388c-0.527-0.565-0.957-1.21-1.283-1.934
	c-0.328-0.723-0.51-1.487-0.543-2.296v-1.289v-2.676v-6.717v-2.146v-0.377h0.709h3.027h0.076l0.051,0.024h0.023v0.38v1.615
	c0,0.639-0.004,1.288-0.012,1.944c-0.008,0.656-0.014,1.314-0.014,1.97v6.109v0.481c0,0.64,0.15,1.22,0.455,1.743
	c0.186,0.336,0.43,0.622,0.73,0.857c0.303,0.235,0.648,0.396,1.037,0.481c0.371,0.082,0.738,0.078,1.111-0.015
	c0.369-0.09,0.707-0.257,1.012-0.492c0.316-0.233,0.568-0.532,0.754-0.896c0.186-0.362,0.311-0.737,0.379-1.125
	c0.035-0.236,0.047-0.467,0.041-0.694c-0.012-0.226-0.018-0.457-0.018-0.693v-2.222v-4.217v-5.251L360.813,242.969L360.813,242.969z
	"/>
<path fill="#FBB040" d="M381.381,262.487h-3.859v0.022l-8.207-12.472v12.45h-3.861v-19.519h3.861v0.024l0.025-0.024l8.182,12.447
	v-12.447h3.859V262.487z"/>
<path fill="#FBB040" d="M386.301,262.487v-19.519h3.861v19.519H386.301z"/>
<path fill="#FBB040" d="M406.627,246.831h-4.115v15.657h-3.861v-15.657h-4.117v-3.862h12.096v3.862H406.627z"/>
<path fill="#FBB040" d="M418.237,252.437v10.051h-3.863v-10.051l-5.91-9.468h4.598l3.242,5.251l3.271-5.251h4.596L418.237,252.437z"
	/>
<polygon opacity="0.5" fill="#FBB040" enable-background="new    " points="603.202,414.698 575.049,414.698 570.471,422.627 
	560.973,439.079 575.049,463.459 585.963,463.459 603.202,463.459 617.278,439.079 "/>
<polygon opacity="0.5" fill="#F15A29" enable-background="new    " points="638.063,426.844 623.932,426.844 621.637,430.822 
	616.87,439.078 623.932,451.313 629.411,451.313 638.063,451.313 645.125,439.078 "/>
<polygon opacity="0.5" fill="#F15A29" enable-background="new    " points="54.799,426.844 40.672,426.844 38.375,430.822 
	33.608,439.078 40.672,451.313 46.149,451.313 54.799,451.313 61.864,439.078 "/>
<g>
	<path d="M233.919,894.379l-1.088-2.918h-4.578l-1.108,2.918h-3.388l6.016-15.873h1.54l5.996,15.873H233.919z M229.319,888.629
		h2.424l-1.192-3.184h-0.019L229.319,888.629z"/>
	<path d="M249.391,883.27c0,0.875-0.212,1.675-0.636,2.394c-0.426,0.719-0.985,1.281-1.684,1.693l2.32,6.979v0.043h-3.335
		l-2.103-6.348h-1.419v6.348h-3.141v-15.873h1.581h3.655c0.657,0,1.272,0.127,1.846,0.381c0.576,0.254,1.078,0.595,1.51,1.025
		c0.431,0.432,0.772,0.936,1.026,1.51C249.264,881.998,249.391,882.611,249.391,883.27z M242.534,884.955h1.695
		c0.452,0,0.846-0.166,1.176-0.494c0.331-0.328,0.497-0.727,0.497-1.191c0-0.463-0.166-0.856-0.497-1.182
		c-0.33-0.32-0.724-0.481-1.176-0.481h-1.695V884.955z"/>
	<path d="M258.483,886.473l6.733,7.927H261.5l-4.865-5.748l-0.923,1.086v4.662h-3.143v-15.873h3.143v6.84l0.615-0.74l5.173-6.1
		h3.716l-2.791,3.287h0.019L258.483,886.473z"/>
	<path d="M415.602,881.627v3.244h5.4v3.145h-5.4v6.343h-3.141v-15.871h3.141h6.695v3.141L415.602,881.627L415.602,881.627z"/>
	<path d="M435.547,878.486c0.055,0,0.078,0.006,0.07,0.021c-0.006,0.015-0.008,0.049-0.008,0.103v0.557v2.094v5.48v1.869
		c0,0.284-0.014,0.571-0.031,0.852c-0.021,0.279-0.066,0.564-0.135,0.852c-0.164,0.617-0.426,1.188-0.789,1.714
		c-0.363,0.526-0.799,0.977-1.32,1.348c-0.52,0.385-1.096,0.658-1.732,0.82c-0.635,0.164-1.277,0.215-1.938,0.145
		c-0.654-0.067-1.266-0.25-1.834-0.545c-0.566-0.295-1.063-0.67-1.494-1.127c-0.432-0.461-0.779-0.984-1.045-1.572
		c-0.268-0.59-0.414-1.209-0.441-1.871v-1.045v-2.176v-5.465v-1.742v-0.309h0.574h2.467h0.061l0.043,0.021h0.02v0.308v1.313
		c0,0.521-0.004,1.049-0.01,1.582c-0.01,0.533-0.01,1.068-0.01,1.602v4.97v0.391c0,0.519,0.121,0.992,0.369,1.414
		c0.148,0.275,0.35,0.508,0.596,0.701c0.246,0.19,0.527,0.317,0.842,0.389c0.301,0.066,0.602,0.066,0.902-0.012
		c0.301-0.074,0.574-0.207,0.82-0.398c0.264-0.19,0.467-0.436,0.615-0.729c0.15-0.295,0.254-0.599,0.309-0.912
		c0.027-0.193,0.037-0.381,0.029-0.566c-0.006-0.184-0.008-0.373-0.008-0.563v-1.806v-3.43v-4.271h3.078V878.486z"/>
	<path d="M450.954,894.357h-3.139v0.021l-6.676-10.143v10.12h-3.141v-15.87h3.141v0.021l0.021-0.021l6.654,10.123v-10.123h3.139
		V894.357L450.954,894.357z"/>
	<path d="M457.208,878.486c1.098,0,2.131,0.209,3.102,0.625c0.975,0.42,1.818,0.985,2.537,1.705
		c0.715,0.719,1.287,1.561,1.703,2.526c0.416,0.965,0.627,1.994,0.627,3.09c0,1.095-0.211,2.123-0.627,3.08
		s-0.988,1.795-1.703,2.513c-0.719,0.719-1.563,1.291-2.537,1.707c-0.971,0.416-2.004,0.625-3.102,0.625h-3.182v-15.871H457.208
		L457.208,878.486z M457.208,891.154c0.658,0,1.275-0.121,1.848-0.367c0.578-0.248,1.08-0.586,1.514-1.021
		c0.432-0.43,0.77-0.928,1.021-1.498c0.254-0.567,0.381-1.18,0.381-1.836c0-0.657-0.127-1.274-0.381-1.848
		c-0.252-0.576-0.592-1.078-1.021-1.51c-0.434-0.431-0.936-0.771-1.514-1.019c-0.572-0.246-1.188-0.369-1.848-0.369V891.154z"/>
</g>
<path d="M281.287,891.135c0.534,0,1.043-0.082,1.528-0.246s0.929-0.391,1.325-0.678l3.081,1.521
	c-0.739,0.809-1.615,1.444-2.628,1.909c-1.013,0.466-2.115,0.697-3.305,0.697c-1.096,0-2.13-0.209-3.101-0.625
	c-0.972-0.42-1.818-0.986-2.536-1.707c-0.719-0.717-1.287-1.555-1.705-2.512c-0.417-0.959-0.626-1.986-0.626-3.08
	c0-1.098,0.209-2.125,0.626-3.092c0.417-0.965,0.985-1.805,1.705-2.523c0.718-0.721,1.564-1.287,2.536-1.705
	c0.971-0.416,2.005-0.627,3.101-0.627c1.19,0,2.291,0.232,3.305,0.699c1.014,0.465,1.89,1.1,2.628,1.908l-3.081,1.52
	c-0.396-0.287-0.839-0.514-1.325-0.676c-0.485-0.166-0.994-0.246-1.528-0.246c-0.659,0-1.271,0.119-1.838,0.367
	c-0.569,0.246-1.068,0.584-1.499,1.006c-0.432,0.424-0.774,0.92-1.029,1.49c-0.252,0.568-0.385,1.172-0.399,1.813v0.023v0.08
	c0.014,0.645,0.147,1.248,0.399,1.815c0.254,0.57,0.597,1.066,1.029,1.488c0.43,0.426,0.929,0.76,1.499,1.008
	C280.017,891.014,280.628,891.135,281.287,891.135z"/>
<path d="M296.723,878.508c1.108,0,2.145,0.209,3.11,0.625c0.966,0.42,1.81,0.986,2.536,1.705s1.297,1.562,1.714,2.527
	c0.417,0.963,0.625,1.992,0.625,3.088s-0.208,2.121-0.625,3.08s-0.988,1.797-1.714,2.516c-0.727,0.719-1.57,1.285-2.536,1.703
	c-0.965,0.418-2.002,0.627-3.11,0.627c-1.097,0-2.13-0.209-3.1-0.627c-0.973-0.418-1.818-0.984-2.538-1.703
	c-0.717-0.719-1.285-1.557-1.703-2.516s-0.626-1.984-0.626-3.08s0.209-2.125,0.626-3.088c0.417-0.967,0.985-1.81,1.703-2.527
	c0.719-0.719,1.565-1.285,2.538-1.705C294.593,878.717,295.626,878.508,296.723,878.508z M296.723,891.178
	c0.656,0,1.275-0.125,1.858-0.371c0.581-0.246,1.086-0.586,1.519-1.016c0.431-0.432,0.771-0.932,1.016-1.5
	c0.246-0.568,0.369-1.182,0.369-1.838s-0.123-1.273-0.369-1.848c-0.245-0.574-0.585-1.076-1.016-1.509
	c-0.432-0.432-0.938-0.77-1.519-1.018c-0.583-0.246-1.202-0.369-1.858-0.369c-0.658,0-1.277,0.123-1.859,0.369
	c-0.582,0.248-1.088,0.586-1.52,1.018c-0.429,0.433-0.77,0.935-1.016,1.509c-0.246,0.573-0.369,1.19-0.369,1.848
	s0.123,1.27,0.369,1.838s0.587,1.068,1.016,1.5c0.432,0.43,0.938,0.77,1.52,1.016C295.445,891.053,296.064,891.178,296.723,891.178z
	"/>
<path d="M320.867,878.488v15.871h-3.143l-0.016-10.656l-3.875,5.111l-3.85-5.07v10.615h-3.143v-15.871h3.143l3.85,5.069l3.852-5.069
	l0.04,0.02v-0.02H320.867z"/>
<path d="M337.971,878.488v15.871h-3.142l-0.016-10.656l-3.875,5.111l-3.851-5.07v10.615h-3.142v-15.871h3.142l3.851,5.069
	l3.85-5.069l0.041,0.02v-0.02H337.971z"/>
<path d="M352.487,878.488c0.053,0,0.078,0.006,0.07,0.02c-0.006,0.014-0.01,0.049-0.01,0.103v0.557v2.094v5.48v1.869
	c0,0.286-0.012,0.571-0.033,0.854c-0.02,0.279-0.063,0.563-0.129,0.853c-0.166,0.614-0.43,1.188-0.791,1.713
	c-0.361,0.524-0.803,0.977-1.32,1.346c-0.521,0.385-1.096,0.658-1.732,0.82c-0.635,0.166-1.281,0.215-1.936,0.145
	c-0.656-0.067-1.27-0.248-1.834-0.543c-0.568-0.295-1.066-0.672-1.498-1.129c-0.43-0.461-0.779-0.984-1.045-1.572
	c-0.266-0.588-0.412-1.209-0.439-1.869v-1.047v-2.176v-5.461v-1.746v-0.307h0.575h2.462h0.063l0.041,0.02h0.021v0.31v1.313
	c0,0.521-0.004,1.049-0.012,1.582c-0.006,0.533-0.01,1.068-0.01,1.603v4.969v0.391c0,0.521,0.123,0.992,0.369,1.418
	c0.15,0.271,0.35,0.504,0.596,0.697c0.244,0.191,0.527,0.32,0.844,0.391c0.301,0.066,0.6,0.064,0.902-0.014
	c0.303-0.072,0.576-0.207,0.822-0.398c0.258-0.188,0.463-0.434,0.613-0.729s0.252-0.598,0.309-0.914
	c0.027-0.193,0.039-0.381,0.031-0.566c-0.008-0.182-0.012-0.368-0.012-0.563v-1.807v-3.431v-4.27h3.082V878.488z"/>
<path d="M369.213,894.359h-3.141v0.02l-6.672-10.143v10.123h-3.143v-15.871h3.143v0.02l0.021-0.02l6.65,10.121v-10.121h3.141
	V894.359L369.213,894.359z"/>
<path d="M373.213,894.359v-15.871h3.143v15.871H373.213z"/>
<path d="M389.743,881.629h-3.348v12.73h-3.141v-12.73h-3.348v-3.141h9.836V881.629L389.743,881.629z"/>
<path d="M399.18,886.188v8.173h-3.141v-8.173l-4.805-7.698h3.738l2.637,4.27l2.658-4.27h3.736L399.18,886.188z"/>
<polyline fill="#FFF200" points="462.793,764.215 400.338,872.389 400.338,656.041 275.432,872.389 275.432,656.041 "/>
<g>
	<path d="M438.338,727.965v10.092h-40.207v20.025h21.709v10.09h-21.709v35.123h-10.014v-75.33H438.338z"/>
</g>
<polygon points="273.66,727.965 238.538,803.295 249.552,803.295 258.486,783.191 279.195,783.191 279.195,773.178 262.955,773.178 
	273.66,749.07 284.366,773.178 288.833,783.191 297.768,803.295 308.86,803.295 "/>
<g>
	<path d="M377.411,793.281v10.012h-37.666c-10.424,0-19.308-3.67-26.649-11.014c-7.342-7.342-11.014-16.226-11.014-26.65
		c0-10.371,3.672-19.256,11.014-26.65c7.344-7.342,16.227-11.014,26.649-11.014c8.113,0,15.431,2.361,21.953,7.088
		c6.418,4.619,10.938,10.627,13.557,18.023h-10.936c-2.313-4.521-5.625-8.139-9.939-10.861c-4.465-2.772-9.344-4.16-14.634-4.16
		c-7.651,0-14.171,2.695-19.563,8.088c-5.393,5.394-8.088,11.888-8.088,19.486c0,7.652,2.695,14.172,8.088,19.564
		s11.911,8.088,19.563,8.088H377.411L377.411,793.281z"/>
</g>
<polyline fill="#707071" points="507.51,842.002 469.999,764.533 507.51,689.895 551.422,765.949 "/>
</svg>
