<?xml version="1.0" encoding="utf-8"?>
<!-- Generator: Adobe Illustrator 16.0.0, SVG Export Plug-In . SVG Version: 6.00 Build 0)  -->
<!DOCTYPE svg PUBLIC "-//W3C//DTD SVG 1.1//EN" "http://www.w3.org/Graphics/SVG/1.1/DTD/svg11.dtd">
<svg version="1.1" id="Layer_1" xmlns="http://www.w3.org/2000/svg" xmlns:xlink="http://www.w3.org/1999/xlink" x="0px" y="0px"
	 width="612px" height="792px" viewBox="0 0 612 792" enable-background="new 0 0 612 792" xml:space="preserve">
<path fill="#151515" d="M461.434,690.898c0,6.075-4.924,11-11,11h-296.73c-6.075,0-11-4.925-11-11V504.224c0-6.075,4.925-11,11-11
	h296.73c6.076,0,11,4.925,11,11V690.898z"/>
<g>
	<linearGradient id="SVGID_1_" gradientUnits="userSpaceOnUse" x1="119.8838" y1="176.5049" x2="575.2718" y2="191.8397">
		<stop  offset="0" style="stop-color:#BCBEC0"/>
		<stop  offset="1" style="stop-color:#1C75BC"/>
	</linearGradient>
	<path fill="url(#SVGID_1_)" d="M385.021,170.565c-1.739,4.722-3.443,9.427-5.115,14.111c-0.151,0.425-0.159,1.218-0.011,1.637
		c1.655,4.648,3.335,9.318,5.064,13.99c0.192,0.525,0.73,0.989,1.119,1.027c0.433,0.042,0.867,0.072,1.299,0.096
		c0-10.608,0-21.217,0-31.826c-0.459,0.021-0.92,0.034-1.377,0.056C385.664,169.672,385.191,170.103,385.021,170.565z"/>
	<linearGradient id="SVGID_2_" gradientUnits="userSpaceOnUse" x1="120.4419" y1="160.8647" x2="575.7761" y2="176.1978">
		<stop  offset="0" style="stop-color:#BCBEC0"/>
		<stop  offset="1" style="stop-color:#1C75BC"/>
	</linearGradient>
	<path fill="url(#SVGID_2_)" d="M331.394,153.522c-3.352,0.28-6.702,0.521-10.054,0.726c-0.557,0.033-0.857,0.33-1.126,1.005
		c-1.637,4.104-3.292,8.151-4.968,12.136c-0.313,0.745-0.328,1.313-0.003,2.058c1.682,3.844,3.332,7.763,4.964,11.743
		c0.276,0.675,0.59,0.913,1.137,0.893c1.692-0.06,3.385-0.043,5.075-0.058c1.659-0.013,3.318-0.061,4.978-0.02
		c0.585,0.014,0.923-0.261,1.214-1c1.613-4.087,3.245-8.207,4.917-12.337c0.347-0.862,0.319-1.475-0.014-2.278
		c-1.662-4.005-3.295-7.99-4.913-11.946C332.313,153.74,331.983,153.472,331.394,153.522z"/>
	<linearGradient id="SVGID_3_" gradientUnits="userSpaceOnUse" x1="120.561" y1="157.7021" x2="575.8759" y2="173.0345">
		<stop  offset="0" style="stop-color:#BCBEC0"/>
		<stop  offset="1" style="stop-color:#1C75BC"/>
	</linearGradient>
	<path fill="url(#SVGID_3_)" d="M374.576,150.548c-3.382,0.173-6.766,0.423-10.146,0.728c-0.335,0.031-0.809,0.467-0.979,0.918
		c-1.738,4.593-3.437,9.168-5.106,13.722c-0.152,0.414-0.158,1.175-0.009,1.573c1.67,4.416,3.371,8.856,5.107,13.308
		c0.168,0.433,0.637,0.811,0.972,0.825c1.689,0.071,3.383,0.011,5.074-0.001c1.597-0.013,3.191-0.083,4.786-0.013
		c0.721,0.032,1.145-0.291,1.515-1.334c1.564-4.412,3.181-8.821,4.813-13.258c0.321-0.871,0.324-1.519,0.004-2.365
		c-1.68-4.438-3.307-8.885-4.999-13.218C375.423,150.961,374.93,150.532,374.576,150.548z"/>
	<linearGradient id="SVGID_4_" gradientUnits="userSpaceOnUse" x1="120.9395" y1="145.8496" x2="576.2933" y2="161.1833">
		<stop  offset="0" style="stop-color:#BCBEC0"/>
		<stop  offset="1" style="stop-color:#1C75BC"/>
	</linearGradient>
	<path fill="url(#SVGID_4_)" d="M310.917,139.044c-0.183-0.397-0.68-0.725-1.037-0.692c-3.382,0.318-6.765,0.695-10.147,1.133
		c-0.347,0.043-0.825,0.497-1.009,0.921c-1.691,3.937-3.313,7.874-4.998,11.723c-0.33,0.753-0.294,1.271,0.02,1.941
		c1.678,3.586,3.307,7.263,4.999,10.928c0.181,0.392,0.661,0.736,1.014,0.736c1.657,0.004,3.316-0.122,4.978-0.201
		c0-0.003,0-0.004,0-0.007c1.723-0.083,3.445-0.126,5.169-0.281c0.336-0.03,0.803-0.387,0.973-0.78
		c1.742-4.058,3.448-8.192,5.118-12.399c0.161-0.408,0.157-1.155-0.008-1.542C314.334,146.619,312.645,142.788,310.917,139.044z"/>
	<linearGradient id="SVGID_5_" gradientUnits="userSpaceOnUse" x1="118.5752" y1="216.3252" x2="573.9086" y2="231.6582">
		<stop  offset="0" style="stop-color:#BCBEC0"/>
		<stop  offset="1" style="stop-color:#1C75BC"/>
	</linearGradient>
	<path fill="url(#SVGID_5_)" d="M384.959,240.12c0.184,0.514,0.665,1.062,1.012,1.11c0.469,0.062,0.938,0.112,1.406,0.172
		c0-10.673,0-21.345,0-32.018c-0.381-0.022-0.762-0.038-1.145-0.068c-0.635-0.053-1.034,0.182-1.375,1.136
		c-1.615,4.531-3.273,8.978-4.959,13.348c-0.298,0.768-0.256,1.313,0.017,2.065C381.602,230.564,383.249,235.343,384.959,240.12z"/>
	<linearGradient id="SVGID_6_" gradientUnits="userSpaceOnUse" x1="121.2559" y1="136.7178" x2="576.5896" y2="152.0508">
		<stop  offset="0" style="stop-color:#BCBEC0"/>
		<stop  offset="1" style="stop-color:#1C75BC"/>
	</linearGradient>
	<path fill="url(#SVGID_6_)" d="M384.95,130.903c-1.71,4.771-3.355,9.551-5.049,14.24c-0.284,0.784-0.283,1.342-0.002,2.079
		c1.693,4.421,3.365,8.911,5.014,13.47c0.276,0.761,0.581,1.027,1.132,0.996c0.443-0.027,0.887-0.047,1.332-0.072
		c0-10.665,0-21.331,0-31.995c-0.469,0.061-0.938,0.127-1.405,0.207C385.616,129.888,385.131,130.395,384.95,130.903z"/>
	<linearGradient id="SVGID_7_" gradientUnits="userSpaceOnUse" x1="121.1143" y1="140.9272" x2="576.4481" y2="156.2602">
		<stop  offset="0" style="stop-color:#BCBEC0"/>
		<stop  offset="1" style="stop-color:#1C75BC"/>
	</linearGradient>
	<path fill="url(#SVGID_7_)" d="M354.157,134.344c-0.3-0.767-0.638-0.967-1.212-0.885c-1.628,0.233-3.257,0.381-4.885,0.563
		c-1.724,0.192-3.449,0.338-5.171,0.617c-0.361,0.058-0.867,0.483-1.045,0.941c-1.709,4.373-3.35,8.752-5.041,13.046
		c-0.297,0.752-0.313,1.292-0.01,2.013c1.699,4.017,3.342,8.132,5.052,12.232c0.182,0.436,0.675,0.831,1.026,0.822
		c3.383-0.097,6.768-0.305,10.152-0.429c0.563-0.021,0.843-0.36,1.113-1.083c1.618-4.349,3.252-8.728,4.924-13.122
		c0.34-0.892,0.351-1.53,0.013-2.371C357.404,142.558,355.765,138.445,354.157,134.344z"/>
	<linearGradient id="SVGID_8_" gradientUnits="userSpaceOnUse" x1="120.2354" y1="167.2207" x2="575.5424" y2="182.5528">
		<stop  offset="0" style="stop-color:#BCBEC0"/>
		<stop  offset="1" style="stop-color:#1C75BC"/>
	</linearGradient>
	<path fill="url(#SVGID_8_)" d="M235.365,182.726c3.221-0.076,6.443-0.097,9.664-0.08c0.67,0.002,1.031-0.278,1.352-0.932
		c1.601-3.264,3.219-6.559,4.872-9.875c0.332-0.663,0.271-1.146-0.033-1.742c-1.639-3.193-3.264-6.352-4.86-9.488
		c-0.328-0.645-0.725-0.855-1.376-0.802c-2.903,0.244-5.808,0.515-8.706,0.606c-0.361,0.011-0.693,0.05-0.997,0.125
		c0,7.396,0,14.792,0,22.188C235.309,182.725,235.335,182.728,235.365,182.726z"/>
	<linearGradient id="SVGID_9_" gradientUnits="userSpaceOnUse" x1="119.2739" y1="195.5435" x2="574.6081" y2="210.8765">
		<stop  offset="0" style="stop-color:#BCBEC0"/>
		<stop  offset="1" style="stop-color:#1C75BC"/>
	</linearGradient>
	<path fill="url(#SVGID_9_)" d="M245.113,211.25c0.576,0.048,0.918-0.105,1.215-0.686c1.632-3.194,3.294-6.412,4.969-9.663
		c0.314-0.612,0.319-1.104-0.003-1.752c-1.663-3.351-3.301-6.674-4.912-9.971c-0.308-0.634-0.653-0.871-1.278-0.869
		c-3.274,0.008-6.549-0.023-9.823-0.075c0,7.438,0,14.875,0,22.311c0.025,0.003,0.049,0.007,0.075,0.008
		C238.606,210.742,241.86,210.986,245.113,211.25z"/>
	<linearGradient id="SVGID_10_" gradientUnits="userSpaceOnUse" x1="118.7705" y1="210.6919" x2="574.0844" y2="226.0242">
		<stop  offset="0" style="stop-color:#BCBEC0"/>
		<stop  offset="1" style="stop-color:#1C75BC"/>
	</linearGradient>
	<path fill="url(#SVGID_10_)" d="M255.632,225.928c0.171,0.36,0.623,0.749,0.947,0.79c3.415,0.43,6.833,0.807,10.247,1.146
		c0.311,0.031,0.753-0.197,0.906-0.497c1.75-3.414,3.471-6.905,5.151-10.476c0.155-0.329,0.115-0.99-0.048-1.363
		c-1.637-3.727-3.331-7.372-4.975-11.001c-0.295-0.652-0.645-0.891-1.224-0.904c-1.628-0.039-3.254-0.142-4.884-0.219
		c-1.659-0.079-3.321-0.136-4.979-0.251c-0.569-0.039-0.919,0.129-1.221,0.743c-1.643,3.354-3.346,6.618-4.98,9.884
		c-0.171,0.341-0.163,1.008,0.009,1.38C252.227,218.724,253.915,222.312,255.632,225.928z"/>
	<linearGradient id="SVGID_11_" gradientUnits="userSpaceOnUse" x1="120.7837" y1="150.7388" x2="576.1166" y2="166.0717">
		<stop  offset="0" style="stop-color:#BCBEC0"/>
		<stop  offset="1" style="stop-color:#1C75BC"/>
	</linearGradient>
	<path fill="url(#SVGID_11_)" d="M267.877,143.75c-0.279-0.574-0.614-0.704-1.149-0.641c-3.352,0.401-6.703,0.777-10.054,1.124
		c-0.545,0.057-0.866,0.289-1.141,0.893c-1.649,3.61-3.318,7.165-5.012,10.656c-0.285,0.588-0.264,0.998,0.015,1.526
		c1.69,3.223,3.363,6.509,5.01,9.858c0.279,0.566,0.6,0.741,1.142,0.703c1.66-0.116,3.319-0.172,4.979-0.25
		c1.692-0.082,3.384-0.19,5.074-0.228c0.555-0.011,0.858-0.263,1.129-0.861c1.65-3.628,3.32-7.289,5.013-10.98
		c0.28-0.612,0.287-1.042,0.003-1.616C271.192,150.515,269.523,147.118,267.877,143.75z"/>
	<linearGradient id="SVGID_12_" gradientUnits="userSpaceOnUse" x1="120.335" y1="164.0396" x2="575.6674" y2="179.3725">
		<stop  offset="0" style="stop-color:#BCBEC0"/>
		<stop  offset="1" style="stop-color:#1C75BC"/>
	</linearGradient>
	<path fill="url(#SVGID_12_)" d="M288.234,156.633c-3.317,0.276-6.639,0.519-9.958,0.72c-0.59,0.035-0.92,0.294-1.206,0.949
		c-1.632,3.71-3.278,7.368-4.961,10.954c-0.328,0.698-0.296,1.189,0.021,1.838c1.647,3.385,3.281,6.829,4.864,10.35
		c0.354,0.785,0.762,1.017,1.442,0.986c1.596-0.071,3.192-0.044,4.788-0.057c1.659-0.012,3.32-0.055,4.979-0.023
		c0.604,0.011,0.976-0.201,1.295-0.934c1.607-3.699,3.25-7.417,4.915-11.163c0.321-0.723,0.321-1.266,0.005-1.956
		c-1.676-3.653-3.329-7.279-4.963-10.875C289.162,156.775,288.814,156.586,288.234,156.633z"/>
	<linearGradient id="SVGID_13_" gradientUnits="userSpaceOnUse" x1="121.1758" y1="139.1016" x2="576.5098" y2="154.4346">
		<stop  offset="0" style="stop-color:#BCBEC0"/>
		<stop  offset="1" style="stop-color:#1C75BC"/>
	</linearGradient>
	<path fill="url(#SVGID_13_)" d="M246.398,131.906c-0.35-0.667-0.759-0.831-1.44-0.718c-2.932,0.482-5.874,1.01-8.798,1.308
		c-0.323,0.032-0.614,0.092-0.879,0.178c0,7.466,0,14.932,0,22.398c0.057-0.004,0.114-0.005,0.175-0.013
		c3.22-0.338,6.441-0.605,9.661-0.854c0.58-0.046,0.918-0.269,1.212-0.892c1.627-3.458,3.275-6.948,4.958-10.465
		c0.347-0.726,0.299-1.227-0.032-1.841C249.608,137.952,247.982,134.924,246.398,131.906z"/>
	<linearGradient id="SVGID_14_" gradientUnits="userSpaceOnUse" x1="118.1909" y1="227.5083" x2="573.5439" y2="242.8419">
		<stop  offset="0" style="stop-color:#BCBEC0"/>
		<stop  offset="1" style="stop-color:#1C75BC"/>
	</linearGradient>
	<path fill="url(#SVGID_14_)" d="M288.175,246.35c0.618,0.113,0.979-0.083,1.293-0.75c1.627-3.472,3.314-6.937,4.929-10.512
		c0.188-0.415,0.202-1.226,0.019-1.681c-1.642-4.041-3.329-8.007-5.054-11.9c-0.183-0.411-0.684-0.818-1.043-0.856
		c-3.381-0.354-6.767-0.646-10.149-0.893c-0.329-0.025-0.792,0.262-0.959,0.601c-1.738,3.503-3.447,6.986-5.112,10.455
		c-0.174,0.363-0.166,1.088,0.012,1.495c1.65,3.833,3.341,7.69,5.07,11.571c0.183,0.408,0.676,0.822,1.036,0.895
		c1.659,0.33,3.318,0.538,4.979,0.791c0,0.005,0,0.007,0,0.011C284.854,245.827,286.516,246.046,288.175,246.35z"/>
	<linearGradient id="SVGID_15_" gradientUnits="userSpaceOnUse" x1="123.04" y1="83.7559" x2="578.3728" y2="99.0888">
		<stop  offset="0" style="stop-color:#BCBEC0"/>
		<stop  offset="1" style="stop-color:#1C75BC"/>
	</linearGradient>
	<path fill="url(#SVGID_15_)" d="M358.411,92.569c1.662,3.99,3.316,8.036,4.95,12.147c0.293,0.738,0.654,0.921,1.233,0.802
		c1.625-0.335,3.251-0.568,4.88-0.845c1.689-0.284,3.382-0.534,5.071-0.879c0.328-0.066,0.809-0.379,0.953-0.785
		c1.77-4.968,3.501-10.018,5.201-15.139c0.15-0.451,0.143-1.247-0.01-1.641c-0.978-2.554-1.97-5.075-2.972-7.57
		c-5.597,1.552-11.193,3.106-16.79,4.659c-0.851,2.436-1.7,4.86-2.563,7.262C358.072,91.398,358.147,91.937,358.411,92.569z"/>
	<linearGradient id="SVGID_16_" gradientUnits="userSpaceOnUse" x1="122.6738" y1="94.6143" x2="578.007" y2="109.9472">
		<stop  offset="0" style="stop-color:#BCBEC0"/>
		<stop  offset="1" style="stop-color:#1C75BC"/>
	</linearGradient>
	<path fill="url(#SVGID_16_)" d="M315.434,101.18c1.648,3.511,3.273,7.094,4.866,10.751c0.3,0.688,0.653,0.859,1.224,0.748
		c1.597-0.308,3.193-0.551,4.79-0.818c0-0.001,0-0.002,0-0.004c1.66-0.28,3.322-0.502,4.98-0.878
		c0.393-0.089,0.937-0.57,1.133-1.069c1.65-4.211,3.216-8.524,4.855-12.83c0.397-1.047,0.387-1.798-0.003-2.677
		c-0.596-1.346-1.181-2.689-1.767-4.034c-6.248,1.734-12.494,3.467-18.741,5.2c-0.447,1.147-0.892,2.302-1.343,3.44
		C315.088,99.868,315.096,100.461,315.434,101.18z"/>
	<linearGradient id="SVGID_17_" gradientUnits="userSpaceOnUse" x1="122.0684" y1="112.5669" x2="577.4015" y2="127.8999">
		<stop  offset="0" style="stop-color:#BCBEC0"/>
		<stop  offset="1" style="stop-color:#1C75BC"/>
	</linearGradient>
	<path fill="url(#SVGID_17_)" d="M293.675,121.562c1.698,3.484,3.346,7.065,5.055,10.633c0.186,0.385,0.669,0.729,1.016,0.692
		c3.387-0.372,6.772-0.803,10.156-1.297c0.355-0.051,0.848-0.516,1.032-0.961c1.727-4.164,3.416-8.402,5.065-12.712
		c0.174-0.451,0.175-1.247,0.004-1.641c-1.648-3.782-3.337-7.484-5.068-11.09c-0.194-0.405-0.729-0.68-1.119-0.627
		c-1.658,0.226-3.319,0.598-4.981,0.914c-1.565,0.302-3.131,0.648-4.694,0.881c-0.749,0.112-1.206,0.474-1.596,1.469
		c-1.58,4.042-3.215,8.007-4.864,11.918C293.381,120.452,293.371,120.939,293.675,121.562z"/>
	<linearGradient id="SVGID_18_" gradientUnits="userSpaceOnUse" x1="116.6362" y1="274.1328" x2="571.9497" y2="289.4651">
		<stop  offset="0" style="stop-color:#BCBEC0"/>
		<stop  offset="1" style="stop-color:#1C75BC"/>
	</linearGradient>
	<path fill="url(#SVGID_18_)" d="M316.02,287.456c-1.668-4.479-3.366-8.894-5.098-13.238c-0.174-0.435-0.615-0.941-0.938-1.012
		c-3.413-0.767-6.828-1.472-10.241-2.126c-0.332-0.063-0.796,0.191-0.967,0.532c-1.733,3.5-3.438,6.985-5.1,10.464
		c-0.167,0.348-0.129,1.101,0.048,1.55c0.059,0.148,0.118,0.298,0.177,0.448c7.184,1.992,14.366,3.987,21.548,5.979
		c0.186-0.4,0.371-0.798,0.554-1.2C316.152,288.525,316.165,287.849,316.02,287.456z"/>
	<linearGradient id="SVGID_19_" gradientUnits="userSpaceOnUse" x1="119.2358" y1="196.3882" x2="574.5884" y2="211.7218">
		<stop  offset="0" style="stop-color:#BCBEC0"/>
		<stop  offset="1" style="stop-color:#1C75BC"/>
	</linearGradient>
	<path fill="url(#SVGID_19_)" d="M363.4,218.741c0.193,0.51,0.728,0.978,1.115,1.029c1.659,0.225,3.32,0.284,4.981,0.408
		c1.66,0.119,3.321,0.202,4.981,0.377c0.577,0.061,0.924-0.18,1.221-0.977c1.633-4.399,3.292-8.816,4.969-13.262
		c0.3-0.791,0.3-1.42,0-2.243c-1.694-4.623-3.342-9.241-5.05-13.762c-0.169-0.451-0.623-0.891-0.948-0.899
		c-3.448-0.091-6.897-0.113-10.347-0.084c-0.303,0.003-0.729,0.387-0.887,0.791c-1.72,4.417-3.417,8.809-5.063,13.199
		c-0.188,0.499-0.188,1.445,0.001,1.958C360.006,209.754,361.682,214.243,363.4,218.741z"/>
	<linearGradient id="SVGID_20_" gradientUnits="userSpaceOnUse" x1="118.7046" y1="212.7104" x2="574.0192" y2="228.0428">
		<stop  offset="0" style="stop-color:#BCBEC0"/>
		<stop  offset="1" style="stop-color:#1C75BC"/>
	</linearGradient>
	<path fill="url(#SVGID_20_)" d="M299.738,231.577c1.69,0.274,3.385,0.417,5.076,0.608c1.694,0.188,3.389,0.417,5.078,0.537
		c0.343,0.024,0.83-0.212,0.993-0.57c1.758-3.824,3.472-7.734,5.16-11.719c0.149-0.351,0.159-1.035,0.011-1.406
		c-1.671-4.214-3.375-8.36-5.114-12.426c-0.184-0.429-0.671-0.858-1.024-0.88c-3.385-0.223-6.771-0.382-10.156-0.485
		c-0.353-0.009-0.847,0.334-1.027,0.724c-1.712,3.705-3.354,7.419-5.051,11.041c-0.301,0.641-0.315,1.125-0.013,1.82
		c1.694,3.893,3.339,7.87,5.047,11.848C298.899,231.09,299.383,231.521,299.738,231.577z"/>
	<linearGradient id="SVGID_21_" gradientUnits="userSpaceOnUse" x1="116.3281" y1="283.0571" x2="571.6614" y2="298.3901">
		<stop  offset="0" style="stop-color:#BCBEC0"/>
		<stop  offset="1" style="stop-color:#1C75BC"/>
	</linearGradient>
	<path fill="url(#SVGID_21_)" d="M359.118,297.542c-1.647-4.845-3.332-9.62-5.056-14.317c-0.183-0.499-0.677-1.016-1.035-1.11
		c-1.69-0.445-3.382-0.744-5.074-1.096c-1.691-0.351-3.383-0.753-5.071-1.012c-0.359-0.054-0.851,0.251-1.034,0.662
		c-1.723,3.863-3.408,7.719-5.055,11.569c-0.171,0.402-0.174,1.229-0.002,1.711c0.266,0.748,0.537,1.501,0.805,2.25
		c6.828,1.895,13.656,3.79,20.484,5.684c0.349-0.845,0.697-1.691,1.044-2.543C359.296,298.918,359.289,298.048,359.118,297.542z"/>
	<linearGradient id="SVGID_22_" gradientUnits="userSpaceOnUse" x1="119.8872" y1="177.6572" x2="575.2006" y2="192.9895">
		<stop  offset="0" style="stop-color:#BCBEC0"/>
		<stop  offset="1" style="stop-color:#1C75BC"/>
	</linearGradient>
	<path fill="url(#SVGID_22_)" d="M343.071,199.891c1.596-0.002,3.192,0.083,4.789,0.135c1.659,0.052,3.321,0.069,4.979,0.176
		c0.586,0.038,0.949-0.25,1.239-0.996c1.611-4.165,3.229-8.365,4.873-12.591c0.317-0.823,0.282-1.495-0.028-2.294
		c-1.629-4.186-3.245-8.337-4.826-12.479c-0.317-0.828-0.695-1.082-1.304-1.057c-3.225,0.134-6.449,0.236-9.673,0.306
		c-0.608,0.015-0.988,0.283-1.306,1.109c-1.581,4.123-3.199,8.174-4.825,12.173c-0.31,0.764-0.348,1.402-0.029,2.187
		c1.643,4.036,3.262,8.135,4.872,12.284C342.123,199.588,342.485,199.894,343.071,199.891z"/>
	<linearGradient id="SVGID_23_" gradientUnits="userSpaceOnUse" x1="119.2471" y1="196.0854" x2="574.6003" y2="211.4191">
		<stop  offset="0" style="stop-color:#BCBEC0"/>
		<stop  offset="1" style="stop-color:#1C75BC"/>
	</linearGradient>
	<path fill="url(#SVGID_23_)" d="M320.23,215.646c0.299,0.754,0.65,1.016,1.221,1.043c1.628,0.076,3.256,0.22,4.884,0.341
		c1.691,0.123,3.386,0.292,5.074,0.328c0.363,0.007,0.866-0.334,1.048-0.756c1.729-4.014,3.416-8.116,5.064-12.297
		c0.174-0.439,0.167-1.282-0.007-1.738c-1.633-4.272-3.304-8.468-5.013-12.583c-0.186-0.445-0.678-0.873-1.031-0.882
		c-3.384-0.093-6.767-0.118-10.151-0.083c-0.348,0.004-0.839,0.404-1.021,0.825c-1.69,3.933-3.314,7.875-4.994,11.725
		c-0.322,0.739-0.312,1.295,0.007,2.051C316.978,207.563,318.618,211.572,320.23,215.646z"/>
	<linearGradient id="SVGID_24_" gradientUnits="userSpaceOnUse" x1="119.8188" y1="179.1245" x2="575.1721" y2="194.4582">
		<stop  offset="0" style="stop-color:#BCBEC0"/>
		<stop  offset="1" style="stop-color:#1C75BC"/>
	</linearGradient>
	<path fill="url(#SVGID_24_)" d="M299.757,198.48c1.658,0.114,3.317,0.135,4.979,0.183c1.658,0.052,3.32,0.085,4.98,0.168
		c0.565,0.027,0.945-0.178,1.244-0.881c1.62-3.821,3.288-7.648,4.889-11.573c0.179-0.436,0.188-1.249,0.016-1.677
		c-1.634-4.001-3.313-7.921-5.021-11.766c-0.172-0.386-0.63-0.745-0.96-0.741c-3.383,0.053-6.768,0.164-10.151,0.319
		c-0.303,0.012-0.728,0.348-0.884,0.696c-1.69,3.802-3.334,7.596-5.007,11.319c-0.287,0.641-0.349,1.167-0.038,1.853
		c1.695,3.758,3.343,7.598,5.049,11.44C299.004,198.165,299.442,198.458,299.757,198.48z"/>
	<linearGradient id="SVGID_25_" gradientUnits="userSpaceOnUse" x1="119.2646" y1="195.8154" x2="574.5982" y2="211.1484">
		<stop  offset="0" style="stop-color:#BCBEC0"/>
		<stop  offset="1" style="stop-color:#1C75BC"/>
	</linearGradient>
	<path fill="url(#SVGID_25_)" d="M277.201,212.731c0.181,0.39,0.671,0.761,1.026,0.804c1.658,0.195,3.32,0.271,4.98,0.391
		c1.692,0.122,3.386,0.287,5.075,0.332c0.364,0.01,0.869-0.283,1.05-0.66c1.713-3.577,3.388-7.236,5.02-10.972
		c0.187-0.432,0.21-1.242,0.028-1.677c-1.627-3.874-3.297-7.673-5.013-11.387c-0.195-0.422-0.736-0.796-1.119-0.808
		c-3.353-0.087-6.706-0.111-10.058-0.083c-0.35,0.004-0.84,0.36-1.02,0.738c-1.677,3.503-3.284,7.014-4.952,10.436
		c-0.335,0.689-0.376,1.222-0.029,1.958C273.877,205.387,275.505,209.06,277.201,212.731z"/>
	<linearGradient id="SVGID_26_" gradientUnits="userSpaceOnUse" x1="119.7798" y1="180.5552" x2="575.1124" y2="195.8881">
		<stop  offset="0" style="stop-color:#BCBEC0"/>
		<stop  offset="1" style="stop-color:#1C75BC"/>
	</linearGradient>
	<path fill="url(#SVGID_26_)" d="M272.681,184.592c-1.58-3.451-3.232-6.806-4.809-10.172c-0.339-0.724-0.737-0.936-1.373-0.903
		c-1.628,0.084-3.256,0.114-4.883,0.165c-1.628,0.051-3.257,0.056-4.882,0.191c-0.38,0.032-0.898,0.409-1.096,0.803
		c-1.665,3.336-3.258,6.679-4.903,9.939c-0.316,0.628-0.332,1.118-0.011,1.753c1.664,3.29,3.28,6.658,4.955,10.031
		c0.173,0.348,0.623,0.707,0.948,0.724c3.35,0.156,6.702,0.263,10.052,0.314c0.361,0.005,0.871-0.311,1.053-0.68
		c1.73-3.474,3.421-7.029,5.065-10.66C272.963,185.729,272.867,184.999,272.681,184.592z"/>
	<linearGradient id="SVGID_27_" gradientUnits="userSpaceOnUse" x1="117.3823" y1="251.4253" x2="572.7361" y2="266.759">
		<stop  offset="0" style="stop-color:#BCBEC0"/>
		<stop  offset="1" style="stop-color:#1C75BC"/>
	</linearGradient>
	<path fill="url(#SVGID_27_)" d="M342.942,272.794c1.659,0.42,3.319,0.681,4.981,0.999c1.659,0.319,3.32,0.612,4.979,0.971
		c0.567,0.122,0.923-0.039,1.226-0.785c1.624-4.012,3.28-8.034,4.963-12.076c0.321-0.775,0.312-1.387-0.009-2.255
		c-1.685-4.575-3.312-9.148-5.012-13.62c-0.196-0.513-0.724-1.034-1.102-1.09c-3.35-0.502-6.705-0.882-10.057-1.345
		c-0.553-0.077-0.848,0.178-1.122,0.848c-1.617,3.943-3.263,7.818-4.927,11.625c-0.329,0.752-0.377,1.367-0.03,2.265
		c1.685,4.382,3.303,8.854,5.001,13.319C342.031,272.166,342.559,272.695,342.942,272.794z"/>
	<linearGradient id="SVGID_28_" gradientUnits="userSpaceOnUse" x1="116.6538" y1="273.374" x2="571.9875" y2="288.707">
		<stop  offset="0" style="stop-color:#BCBEC0"/>
		<stop  offset="1" style="stop-color:#1C75BC"/>
	</linearGradient>
	<path fill="url(#SVGID_28_)" d="M363.345,294.771c0.278,0.813,0.608,1.128,1.145,1.238c1.66,0.339,3.318,0.753,4.979,1.137
		c1.692,0.393,3.384,0.759,5.075,1.191c0.529,0.136,0.861-0.001,1.144-0.718c1.625-4.14,3.278-8.295,4.961-12.463
		c0.342-0.849,0.319-1.512-0.023-2.497c-1.671-4.788-3.297-9.564-4.911-14.308c-0.27-0.794-0.563-1.143-1.119-1.229
		c-3.382-0.526-6.767-1.094-10.149-1.704c-0.558-0.101-0.853,0.15-1.122,0.827c-1.65,4.156-3.345,8.215-4.979,12.296
		c-0.175,0.441-0.198,1.312-0.026,1.81C359.965,285.129,361.681,289.909,363.345,294.771z"/>
	<linearGradient id="SVGID_29_" gradientUnits="userSpaceOnUse" x1="116.1113" y1="289.498" x2="571.4448" y2="304.831">
		<stop  offset="0" style="stop-color:#BCBEC0"/>
		<stop  offset="1" style="stop-color:#1C75BC"/>
	</linearGradient>
	<path fill="url(#SVGID_29_)" d="M381.126,308.055c3.576,0.086,6.251-2.842,6.251-7.25c0-3.856,0-7.714,0-11.571
		c-0.464-0.09-0.931-0.189-1.396-0.277c-0.334-0.063-0.8,0.248-0.969,0.662c-1.754,4.351-3.47,8.696-5.157,13.025
		c-0.147,0.38-0.138,1.168,0.013,1.625C380.283,305.528,380.706,306.793,381.126,308.055z"/>
	<linearGradient id="SVGID_30_" gradientUnits="userSpaceOnUse" x1="116.8848" y1="266.2256" x2="572.2387" y2="281.5593">
		<stop  offset="0" style="stop-color:#BCBEC0"/>
		<stop  offset="1" style="stop-color:#1C75BC"/>
	</linearGradient>
	<path fill="url(#SVGID_30_)" d="M320.365,284.724c0.196,0.501,0.722,1.036,1.106,1.15c1.623,0.475,3.253,0.794,4.88,1.171
		c0-0.002,0-0.003,0-0.006c1.564,0.363,3.13,0.66,4.692,1.115c0.744,0.217,1.177-0.062,1.531-0.867
		c1.635-3.729,3.306-7.47,4.928-11.305c0.137-0.323,0.139-0.986,0-1.363c-1.678-4.61-3.381-9.158-5.12-13.629
		c-0.169-0.434-0.626-0.896-0.954-0.957c-3.351-0.621-6.702-1.184-10.053-1.69c-0.334-0.051-0.806,0.236-0.974,0.606
		c-1.702,3.7-3.374,7.385-4.998,11.072c-0.186,0.42-0.18,1.276,0.005,1.774C317.018,276.084,318.67,280.395,320.365,284.724z"/>
	<linearGradient id="SVGID_31_" gradientUnits="userSpaceOnUse" x1="118.0732" y1="231.2251" x2="573.4071" y2="246.5581">
		<stop  offset="0" style="stop-color:#BCBEC0"/>
		<stop  offset="1" style="stop-color:#1C75BC"/>
	</linearGradient>
	<path fill="url(#SVGID_31_)" d="M320.216,250.244c0.297,0.774,0.64,1.081,1.214,1.154c1.626,0.211,3.254,0.482,4.884,0.73
		c0-0.002,0-0.003,0-0.005c1.692,0.258,3.385,0.49,5.075,0.785c0.536,0.096,0.868-0.066,1.15-0.733
		c1.664-3.942,3.38-7.879,5.029-11.932c0.173-0.428,0.163-1.273-0.013-1.747c-1.648-4.445-3.337-8.817-5.063-13.108
		c-0.185-0.458-0.685-0.914-1.04-0.952c-3.383-0.359-6.767-0.655-10.151-0.886c-0.347-0.022-0.83,0.365-1.015,0.779
		c-1.725,3.872-3.413,7.729-5.062,11.573c-0.173,0.407-0.168,1.208,0.007,1.658C316.864,241.76,318.569,245.961,320.216,250.244z"/>
	<linearGradient id="SVGID_32_" gradientUnits="userSpaceOnUse" x1="117.5762" y1="245.9917" x2="572.9097" y2="261.3247">
		<stop  offset="0" style="stop-color:#BCBEC0"/>
		<stop  offset="1" style="stop-color:#1C75BC"/>
	</linearGradient>
	<path fill="url(#SVGID_32_)" d="M299.952,264.555c1.625,0.268,3.253,0.609,4.882,0.919c1.659,0.318,3.319,0.673,4.978,0.925
		c0.349,0.053,0.852-0.111,1.014-0.448c1.777-3.708,3.509-7.511,5.22-11.386c0.138-0.315,0.136-0.956-0.003-1.314
		c-1.677-4.34-3.376-8.619-5.12-12.819c-0.186-0.443-0.684-0.897-1.042-0.95c-3.382-0.494-6.766-0.925-10.147-1.297
		c-0.345-0.038-0.82,0.306-1.003,0.688c-1.688,3.531-3.306,7.086-4.997,10.524c-0.335,0.68-0.309,1.194,0.003,1.934
		c1.662,3.948,3.314,7.952,4.923,12.021C298.977,264.159,299.346,264.454,299.952,264.555z"/>
	<linearGradient id="SVGID_33_" gradientUnits="userSpaceOnUse" x1="117.1357" y1="259.0649" x2="572.4684" y2="274.3979">
		<stop  offset="0" style="stop-color:#BCBEC0"/>
		<stop  offset="1" style="stop-color:#1C75BC"/>
	</linearGradient>
	<path fill="url(#SVGID_33_)" d="M277.248,275.104c0.142,0.332,0.524,0.712,0.797,0.779c3.448,0.836,6.894,1.637,10.342,2.391
		c0.308,0.068,0.744-0.123,0.898-0.421c1.75-3.409,3.47-6.899,5.157-10.468c0.15-0.32,0.155-0.979,0.004-1.356
		c-1.67-4.202-3.371-8.341-5.113-12.405c-0.178-0.414-0.682-0.817-1.043-0.895c-1.657-0.354-3.318-0.589-4.978-0.87
		c-1.692-0.283-3.385-0.607-5.073-0.818c-0.355-0.044-0.854,0.186-1.03,0.526c-1.728,3.329-3.418,6.644-5.067,9.949
		c-0.175,0.35-0.172,1.072,0.003,1.494C273.809,267.012,275.519,271.04,277.248,275.104z"/>
	<linearGradient id="SVGID_34_" gradientUnits="userSpaceOnUse" x1="116.9292" y1="265.1719" x2="572.2635" y2="280.5049">
		<stop  offset="0" style="stop-color:#BCBEC0"/>
		<stop  offset="1" style="stop-color:#1C75BC"/>
	</linearGradient>
	<path fill="url(#SVGID_34_)" d="M272.902,277.012c-1.712-3.997-3.37-7.977-5.096-11.873c-0.182-0.41-0.671-0.85-1.03-0.941
		c-1.656-0.42-3.316-0.721-4.976-1.068c-1.691-0.351-3.383-0.673-5.074-1.069c-0.592-0.139-0.916,0.045-1.204,0.586
		c-1.649,3.082-3.348,6.076-4.979,9.082c-0.042,0.078-0.074,0.177-0.096,0.289c7.523,2.087,15.045,4.173,22.568,6.262
		C273.143,277.908,273.127,277.538,272.902,277.012z"/>
	<linearGradient id="SVGID_35_" gradientUnits="userSpaceOnUse" x1="117.3691" y1="251.9136" x2="572.7288" y2="267.2474">
		<stop  offset="0" style="stop-color:#BCBEC0"/>
		<stop  offset="1" style="stop-color:#1C75BC"/>
	</linearGradient>
	<path fill="url(#SVGID_35_)" d="M246.329,267.532c1.586-2.896,3.252-5.766,4.839-8.748c0.18-0.335,0.21-1.015,0.038-1.406
		c-1.655-3.757-3.353-7.45-5.09-11.071c-0.175-0.368-0.695-0.726-1.059-0.792c-2.843-0.527-5.691-0.861-8.525-1.509
		c-0.469-0.107-0.882-0.146-1.252-0.119c0,6.011,0,12.023,0,18.036c0,1.513,0.791,3.111,2.079,4.512
		c2.48,0.55,4.96,1.128,7.441,1.731C245.514,268.339,245.958,268.211,246.329,267.532z"/>
	<linearGradient id="SVGID_36_" gradientUnits="userSpaceOnUse" x1="122.3149" y1="105.4756" x2="577.6285" y2="120.8079">
		<stop  offset="0" style="stop-color:#BCBEC0"/>
		<stop  offset="1" style="stop-color:#1C75BC"/>
	</linearGradient>
	<path fill="url(#SVGID_36_)" d="M272.275,109.615c1.661,3.157,3.304,6.378,4.917,9.667c0.295,0.602,0.629,0.748,1.206,0.644
		c3.159-0.566,6.319-1.113,9.478-1.584c0.821-0.122,1.269-0.599,1.658-1.556c1.56-3.84,3.151-7.704,4.764-11.596
		c0.285-0.69,0.285-1.16,0.006-1.721c-0.242-0.489-0.481-0.977-0.723-1.465c-7.115,1.974-14.232,3.949-21.347,5.922
		C271.98,108.577,271.982,109.059,272.275,109.615z"/>
	<linearGradient id="SVGID_37_" gradientUnits="userSpaceOnUse" x1="117.7661" y1="240.5176" x2="573.0811" y2="255.8499">
		<stop  offset="0" style="stop-color:#BCBEC0"/>
		<stop  offset="1" style="stop-color:#1C75BC"/>
	</linearGradient>
	<path fill="url(#SVGID_37_)" d="M255.605,255.358c0.182,0.396,0.675,0.817,1.031,0.9c1.69,0.398,3.382,0.683,5.074,1.008
		c0-0.001,0-0.004,0-0.005c1.693,0.324,3.384,0.694,5.074,0.94c0.358,0.052,0.848-0.197,1.031-0.537
		c1.724-3.208,3.384-6.523,5.087-9.843c0.279-0.542,0.284-0.965-0.003-1.614c-1.699-3.821-3.369-7.615-5.013-11.376
		c-0.293-0.672-0.624-0.952-1.209-1.021c-3.318-0.395-6.638-0.818-9.957-1.274c-0.596-0.081-0.911,0.136-1.201,0.699
		c-1.648,3.215-3.316,6.371-5.017,9.448c-0.294,0.531-0.258,0.945,0.013,1.529C252.217,247.877,253.88,251.611,255.605,255.358z"/>
	<linearGradient id="SVGID_38_" gradientUnits="userSpaceOnUse" x1="117.2324" y1="256.1641" x2="572.5657" y2="271.497">
		<stop  offset="0" style="stop-color:#BCBEC0"/>
		<stop  offset="1" style="stop-color:#1C75BC"/>
	</linearGradient>
	<path fill="url(#SVGID_38_)" d="M385.01,279.868c0.184,0.524,0.68,1.054,1.042,1.146c0.441,0.111,0.883,0.211,1.325,0.304
		c0-10.659,0-21.321,0-31.981c-0.399-0.057-0.801-0.105-1.199-0.164c-0.683-0.099-1.035,0.322-1.348,1.151
		c-1.621,4.332-3.28,8.582-4.876,12.851c-0.173,0.466-0.181,1.377-0.01,1.892C381.595,269.981,383.281,274.916,385.01,279.868z"/>
	<linearGradient id="SVGID_39_" gradientUnits="userSpaceOnUse" x1="121.8394" y1="119.3364" x2="577.1733" y2="134.6694">
		<stop  offset="0" style="stop-color:#BCBEC0"/>
		<stop  offset="1" style="stop-color:#1C75BC"/>
	</linearGradient>
	<path fill="url(#SVGID_39_)" d="M374.529,111.686c-1.656,0.142-3.317,0.457-4.979,0.708c-1.66,0.252-3.321,0.545-4.979,0.733
		c-0.59,0.068-0.943,0.433-1.228,1.24c-1.655,4.683-3.341,9.292-4.972,13.897c-0.164,0.462-0.168,1.283-0.006,1.701
		c1.636,4.211,3.332,8.408,4.98,12.697c0.314,0.811,0.701,1.059,1.313,0.999c3.254-0.326,6.513-0.611,9.768-0.868
		c0.567-0.045,0.925-0.303,1.228-1.169c1.627-4.659,3.29-9.333,4.965-14.044c0.291-0.824,0.319-1.451,0.014-2.234
		c-1.679-4.306-3.301-8.626-5-12.82C375.438,112.039,374.915,111.653,374.529,111.686z"/>
	<linearGradient id="SVGID_40_" gradientUnits="userSpaceOnUse" x1="122.5972" y1="96.8628" x2="577.9309" y2="112.1958">
		<stop  offset="0" style="stop-color:#BCBEC0"/>
		<stop  offset="1" style="stop-color:#1C75BC"/>
	</linearGradient>
	<path fill="url(#SVGID_40_)" d="M379.853,107.685c1.69,4.468,3.411,8.949,5.162,13.45c0.158,0.408,0.582,0.779,0.884,0.746
		c0.492-0.054,0.986-0.119,1.479-0.174c0-10.695,0-21.389,0-32.083c-0.421,0.09-0.841,0.187-1.264,0.294
		c-0.391,0.101-0.932,0.634-1.126,1.186c-1.75,5-3.448,9.99-5.123,14.95C379.713,106.5,379.705,107.291,379.853,107.685z"/>
	<linearGradient id="SVGID_41_" gradientUnits="userSpaceOnUse" x1="118.3159" y1="223.7856" x2="573.6767" y2="239.1196">
		<stop  offset="0" style="stop-color:#BCBEC0"/>
		<stop  offset="1" style="stop-color:#1C75BC"/>
	</linearGradient>
	<path fill="url(#SVGID_41_)" d="M245.075,239.827c0.624,0.103,0.974-0.079,1.284-0.667c1.613-3.044,3.255-6.109,4.919-9.202
		c0.313-0.584,0.356-1.066,0.031-1.748c-1.678-3.528-3.335-7.021-4.961-10.487c-0.317-0.675-0.695-0.889-1.303-0.934
		c-2.715-0.204-5.437-0.332-8.143-0.745c-0.596-0.092-1.139-0.119-1.622-0.048c0,7.449,0,14.897,0,22.347
		c0.039,0.007,0.075,0.015,0.116,0.021C238.621,238.802,241.85,239.304,245.075,239.827z"/>
	<linearGradient id="SVGID_42_" gradientUnits="userSpaceOnUse" x1="117.9512" y1="234.8843" x2="573.2844" y2="250.2173">
		<stop  offset="0" style="stop-color:#BCBEC0"/>
		<stop  offset="1" style="stop-color:#1C75BC"/>
	</linearGradient>
	<path fill="url(#SVGID_42_)" d="M363.421,256.741c0.184,0.498,0.689,0.989,1.055,1.065c1.69,0.352,3.385,0.558,5.077,0.814
		c0-0.004,0-0.007,0-0.011c1.661,0.252,3.322,0.547,4.981,0.721c0.348,0.038,0.842-0.2,1.006-0.603
		c1.756-4.367,3.473-8.83,5.158-13.368c0.147-0.405,0.143-1.205-0.009-1.649c-1.672-4.896-3.374-9.721-5.111-14.466
		c-0.173-0.467-0.637-0.939-0.967-0.974c-3.385-0.362-6.772-0.658-10.156-0.893c-0.335-0.024-0.807,0.331-0.977,0.751
		c-1.74,4.316-3.446,8.617-5.113,12.908c-0.163,0.418-0.165,1.244-0.001,1.703C360.014,247.386,361.697,252.058,363.421,256.741z"/>
	<linearGradient id="SVGID_43_" gradientUnits="userSpaceOnUse" x1="118.6289" y1="214.7212" x2="573.9626" y2="230.0542">
		<stop  offset="0" style="stop-color:#BCBEC0"/>
		<stop  offset="1" style="stop-color:#1C75BC"/>
	</linearGradient>
	<path fill="url(#SVGID_43_)" d="M342.883,236.423c3.382,0.442,6.764,0.774,10.146,1.194c0.564,0.071,0.849-0.217,1.117-0.891
		c1.633-4.128,3.279-8.285,4.96-12.455c0.32-0.796,0.332-1.385,0.008-2.239c-1.685-4.436-3.341-8.85-4.966-13.244
		c-0.3-0.811-0.642-1.067-1.215-1.077c-1.624-0.026-3.254-0.137-4.88-0.214c-1.723-0.083-3.447-0.214-5.168-0.208
		c-0.357,0.001-0.856,0.361-1.037,0.792c-1.724,4.134-3.385,8.283-5.092,12.341c-0.282,0.667-0.278,1.17,0.004,1.886
		c1.706,4.329,3.362,8.747,5.084,13.16C342.021,235.928,342.528,236.376,342.883,236.423z"/>
	<linearGradient id="SVGID_44_" gradientUnits="userSpaceOnUse" x1="122.3501" y1="104.1948" x2="577.683" y2="119.5278">
		<stop  offset="0" style="stop-color:#BCBEC0"/>
		<stop  offset="1" style="stop-color:#1C75BC"/>
	</linearGradient>
	<path fill="url(#SVGID_44_)" d="M354.18,97.095c-0.339-0.841-0.733-1.018-1.37-0.876c-1.596,0.357-3.192,0.631-4.789,0.936
		c-1.628,0.313-3.257,0.677-4.883,0.916c-0.693,0.102-1.088,0.505-1.436,1.47c-1.607,4.466-3.255,8.863-4.917,13.202
		c-0.295,0.771-0.316,1.313-0.01,2.015c1.698,3.879,3.337,7.867,5.048,11.827c0.198,0.458,0.714,0.865,1.089,0.827
		c3.352-0.354,6.704-0.781,10.056-1.282c0.38-0.057,0.912-0.576,1.105-1.09c1.729-4.561,3.383-9.227,5.096-13.894
		c0.294-0.799,0.244-1.325-0.026-1.982C357.468,105.116,355.798,101.11,354.18,97.095z"/>
	<linearGradient id="SVGID_45_" gradientUnits="userSpaceOnUse" x1="121.7949" y1="120.8853" x2="577.1084" y2="136.2176">
		<stop  offset="0" style="stop-color:#BCBEC0"/>
		<stop  offset="1" style="stop-color:#1C75BC"/>
	</linearGradient>
	<path fill="url(#SVGID_45_)" d="M267.892,113.522c-0.336-0.663-0.737-0.797-1.38-0.667c-3.228,0.652-6.452,1.272-9.677,1.856
		c-0.618,0.112-0.982,0.394-1.297,1.109c-1.644,3.748-3.343,7.421-4.98,11.082c-0.159,0.354-0.155,0.971,0.002,1.276
		c1.631,3.14,3.323,6.275,4.965,9.499c0.316,0.62,0.708,0.772,1.314,0.68c1.628-0.247,3.256-0.43,4.886-0.638
		c0-0.003,0-0.004,0-0.005c1.629-0.208,3.258-0.447,4.886-0.609c0.624-0.063,0.983-0.383,1.292-1.09
		c1.617-3.692,3.256-7.415,4.92-11.17c0.303-0.678,0.293-1.156-0.004-1.731C271.154,119.892,269.504,116.702,267.892,113.522z"/>
	<linearGradient id="SVGID_46_" gradientUnits="userSpaceOnUse" x1="121.9478" y1="116.3794" x2="577.2525" y2="131.7114">
		<stop  offset="0" style="stop-color:#BCBEC0"/>
		<stop  offset="1" style="stop-color:#1C75BC"/>
	</linearGradient>
	<path fill="url(#SVGID_46_)" d="M235.28,124.066c0,1.043,0,2.086,0,3.128c3.34-0.526,6.681-1.082,10.021-1.688
		c0.326-0.058,0.785-0.447,0.952-0.805c1.707-3.595,3.35-7.268,5.044-10.962c0.001-0.001,0.001-0.001,0.001-0.003
		c-2.673,0.742-5.347,1.484-8.021,2.226C238.861,117.207,235.28,120.835,235.28,124.066z"/>
	<linearGradient id="SVGID_47_" gradientUnits="userSpaceOnUse" x1="121.6191" y1="125.8955" x2="576.9517" y2="141.2285">
		<stop  offset="0" style="stop-color:#BCBEC0"/>
		<stop  offset="1" style="stop-color:#1C75BC"/>
	</linearGradient>
	<path fill="url(#SVGID_47_)" d="M331.327,118.359c-3.32,0.419-6.644,0.936-9.963,1.495c-0.335,0.059-0.81,0.496-0.981,0.919
		c-1.708,4.242-3.387,8.458-5.014,12.662c-0.182,0.469-0.139,1.318,0.052,1.764c1.596,3.738,3.232,7.484,4.915,11.235
		c0.196,0.44,0.727,0.806,1.115,0.794c1.626-0.044,3.256-0.244,4.884-0.388c0,0.003,0,0.004,0,0.006
		c1.629-0.144,3.258-0.325,4.886-0.411c0.626-0.033,1.014-0.396,1.314-1.174c1.632-4.207,3.291-8.436,4.89-12.752
		c0.176-0.472,0.176-1.314,0.001-1.745c-1.6-3.933-3.233-7.792-4.92-11.551C332.289,118.73,331.732,118.307,331.327,118.359z"/>
	<linearGradient id="SVGID_48_" gradientUnits="userSpaceOnUse" x1="121.397" y1="132.499" x2="576.7305" y2="147.832">
		<stop  offset="0" style="stop-color:#BCBEC0"/>
		<stop  offset="1" style="stop-color:#1C75BC"/>
	</linearGradient>
	<path fill="url(#SVGID_48_)" d="M288.173,124.617c-3.287,0.532-6.574,1.032-9.862,1.5c-0.579,0.082-0.926,0.35-1.218,1.041
		c-1.647,3.879-3.347,7.683-4.974,11.481c-0.188,0.436-0.2,1.199-0.017,1.584c1.641,3.442,3.355,6.872,5.018,10.391
		c0.28,0.588,0.61,0.741,1.144,0.682c1.659-0.183,3.319-0.305,4.979-0.449c1.627-0.143,3.257-0.325,4.883-0.409
		c0.648-0.033,1.034-0.305,1.365-1.093c1.624-3.863,3.286-7.75,4.963-11.667c0.307-0.712,0.268-1.22-0.026-1.839
		c-1.674-3.521-3.329-7.011-4.953-10.486C289.159,124.678,288.783,124.518,288.173,124.617z"/>
</g>
<g>
	<linearGradient id="SVGID_49_" gradientUnits="userSpaceOnUse" x1="118.4331" y1="220.5698" x2="573.7669" y2="235.9028">
		<stop  offset="0" style="stop-color:#BCBEC0"/>
		<stop  offset="1" style="stop-color:#1C75BC"/>
	</linearGradient>
	<path fill="url(#SVGID_49_)" d="M496.148,148.1c-7.331-2.434-14.66-4.868-21.988-7.304V324.3c7.328-2.434,14.657-4.87,21.988-7.303
		V148.1z"/>
	<linearGradient id="SVGID_50_" gradientUnits="userSpaceOnUse" x1="118.3901" y1="221.8135" x2="573.7221" y2="237.1464">
		<stop  offset="0" style="stop-color:#BCBEC0"/>
		<stop  offset="1" style="stop-color:#1C75BC"/>
	</linearGradient>
	<path fill="url(#SVGID_50_)" d="M463.488,327.846V137.25c-8.774-2.914-17.55-5.828-26.324-8.742v208.08
		C445.938,333.674,454.714,330.76,463.488,327.846z"/>
	<linearGradient id="SVGID_51_" gradientUnits="userSpaceOnUse" x1="118.4702" y1="219.4707" x2="573.8029" y2="234.8037">
		<stop  offset="0" style="stop-color:#BCBEC0"/>
		<stop  offset="1" style="stop-color:#1C75BC"/>
	</linearGradient>
	<path fill="url(#SVGID_51_)" d="M518.474,155.514c-3.885-1.29-7.77-2.58-11.653-3.87v161.807c3.884-1.29,7.769-2.58,11.653-3.869
		c3.689-1.244,6.681-4.873,6.681-8.106c0-45.952,0-91.904,0-137.856C525.154,160.388,522.163,156.758,518.474,155.514z"/>
	<linearGradient id="SVGID_52_" gradientUnits="userSpaceOnUse" x1="118.3594" y1="222.9575" x2="573.681" y2="238.2901">
		<stop  offset="0" style="stop-color:#BCBEC0"/>
		<stop  offset="1" style="stop-color:#1C75BC"/>
	</linearGradient>
	<path fill="url(#SVGID_52_)" d="M426.492,124.963c-7.236-2.404-14.473-4.808-21.71-7.211c-3.692-1.244-6.684,1.883-6.683,6.986
		c0,71.872,0,143.747,0,215.621c0,5.102,2.99,8.23,6.683,6.986c7.237-2.405,14.474-4.809,21.71-7.213V124.963z"/>
</g>
<g>
	<linearGradient id="SVGID_53_" gradientUnits="userSpaceOnUse" x1="118.6968" y1="212.7056" x2="574.0298" y2="228.0385">
		<stop  offset="0" style="stop-color:#BCBEC0"/>
		<stop  offset="1" style="stop-color:#1C75BC"/>
	</linearGradient>
	<path fill="url(#SVGID_53_)" d="M179.828,207.557c-0.496-1.835-1.128-3.657-1.929-5.358c-0.682-1.445-1.567-2.83-2.576-4.03
		c-1.197-1.424-2.538-2.706-4.247-3.49c-1.339-0.613-2.655-1.196-4.118-1.281c-1.837-0.104-3.676-0.045-5.413,0.659
		c-1.82,0.738-3.557,1.717-4.936,3.231c-1.105,1.215-2.153,2.518-3.068,3.903c-0.718,1.09-1.285,2.329-1.755,3.574
		c-0.579,1.53-1.119,3.106-1.433,4.718c-0.331,1.692-0.373,3.448-0.542,5.177c0.023,2.749,0.496,5.404,1.148,8.03
		c0.143,0.575,0.372,1.133,0.599,1.681c0.325,0.788,0.648,1.58,1.037,2.332c0.427,0.827,0.853,1.674,1.411,2.391
		c0.816,1.05,1.697,2.056,2.65,2.953c0.746,0.705,1.607,1.291,2.484,1.792c0.718,0.409,1.523,0.665,2.311,0.899
		c0.711,0.211,1.449,0.401,2.18,0.42c0.927,0.026,1.874-0.049,2.785-0.229c1.138-0.226,2.301-0.473,3.357-0.957
		c1-0.459,1.94-1.151,2.791-1.896c1.052-0.919,2.059-1.93,2.949-3.031c1.093-1.349,2.053-2.825,2.617-4.556
		c0.232-0.71,0.475-1.427,0.798-2.093c0.792-1.631,1.072-3.43,1.299-5.196c0.231-1.789,0.204-3.634,0.139-5.446
		C180.318,210.344,180.19,208.901,179.828,207.557z M166.983,221.249c-0.264,0.143-0.621,0.066-0.925,0.139
		c-1.169,0.276-2.272-0.02-3.225-0.684c-0.589-0.412-1.036-1.115-1.452-1.759c-0.862-1.339-1.201-2.859-1.128-4.153
		c-0.038-2.845,0.696-5.004,2.488-6.656c1.16-1.067,2.53-1.457,4.013-1.129c1.345,0.295,2.306,1.255,3.054,2.459
		c0.83,1.335,1.134,2.88,1.125,4.43C170.915,217.126,169.774,219.74,166.983,221.249z"/>
	<linearGradient id="SVGID_54_" gradientUnits="userSpaceOnUse" x1="118.6919" y1="212.8228" x2="574.0317" y2="228.1559">
		<stop  offset="0" style="stop-color:#BCBEC0"/>
		<stop  offset="1" style="stop-color:#1C75BC"/>
	</linearGradient>
	<path fill="url(#SVGID_54_)" d="M196.096,195.73c-0.133-0.587-0.302-1.167-0.5-1.731c-0.456-1.305-0.924-2.604-1.417-3.893
		c-0.308-0.803-0.625-1.608-1.015-2.368c-0.801-1.561-1.611-3.118-2.496-4.623c-0.765-1.304-1.559-2.602-2.478-3.777
		c-1.741-2.224-3.582-4.331-5.729-6.142c-2.75-2.316-5.727-4.149-8.969-5.449c-1.47-0.588-3.033-0.98-4.585-1.226
		c-1.682-0.265-3.401-0.333-5.105-0.347c-2.299-0.021-4.569,0.299-6.774,1.073c-1.248,0.438-2.553,0.71-3.764,1.236
		c-1.339,0.583-2.663,1.262-3.878,2.097c-1.732,1.19-3.432,2.465-5.009,3.882c-1.337,1.2-2.486,2.649-3.71,3.998
		c-1.607,1.771-3.097,3.638-4.225,5.828c-0.563,1.094-1.279,2.099-1.87,3.179c-0.54,0.985-1.045,1.999-1.494,3.038
		c-0.528,1.225-1.008,2.475-1.455,3.738c-0.524,1.479-1.007,2.978-1.47,4.479c-0.205,0.667-0.312,1.369-0.474,2.052
		c-0.223,0.935-0.5,1.855-0.674,2.799c-0.189,1.026-0.289,2.072-0.426,3.108c-0.237,1.794-0.534,3.583-0.688,5.387
		c-0.108,1.281-0.02,2.578-0.02,3.87c-0.005,0-0.01-0.002-0.015-0.002c0,0.922-0.03,1.846,0.008,2.766
		c0.038,0.906,0.127,1.81,0.228,2.711c0.154,1.372,0.303,2.747,0.517,4.105c0.272,1.717,0.603,3.421,0.919,5.129
		c0.128,0.687,0.224,1.39,0.438,2.046c0.492,1.511,1.032,3.004,1.584,4.488c0.523,1.41,1.008,2.845,1.653,4.189
		c0.787,1.635,1.658,3.231,2.612,4.758c0.895,1.433,1.888,2.807,2.944,4.107c0.994,1.22,2.097,2.345,3.204,3.449
		c0.901,0.9,1.841,1.768,2.837,2.541c1.098,0.852,2.287,1.564,3.424,2.36c1.339,0.938,2.823,1.502,4.295,2.133
		c1.491,0.641,3.021,1.056,4.58,1.319c1.473,0.248,2.971,0.379,4.46,0.412c1.454,0.034,2.913-0.104,4.367-0.206
		c0.321-0.023,0.626-0.243,0.951-0.317c1.153-0.264,2.354-0.366,3.456-0.785c1.684-0.638,3.32-1.441,4.936-2.266
		c1.05-0.535,2.07-1.168,3.029-1.877c1.259-0.925,2.498-1.898,3.646-2.978c1.293-1.216,2.491-2.552,3.699-3.87
		c1.601-1.744,2.886-3.756,4.132-5.797c0.565-0.927,1.128-1.855,1.627-2.82c0.691-1.337,1.353-2.695,1.966-4.073
		c0.429-0.967,0.766-1.982,1.128-2.982c0.407-1.125,0.83-2.247,1.185-3.391c0.272-0.878,0.45-1.791,0.666-2.688
		c0.379-1.571,0.821-3.13,1.113-4.72c0.272-1.477,0.451-2.982,0.553-4.485c0.413-6.104,0.499-12.199-0.772-18.223
		C196.873,199.224,196.492,197.475,196.096,195.73z M189.16,219.398c-0.229,1.572-0.466,3.16-0.894,4.677
		c-0.617,2.188-1.333,4.357-2.145,6.471c-0.955,2.495-2.209,4.854-3.763,6.952c-1.393,1.882-2.987,3.609-4.617,5.259
		c-0.979,0.99-2.196,1.703-3.307,2.542c-1.406,1.061-2.978,1.778-4.578,2.362c-1.198,0.435-2.477,0.623-3.733,0.842
		c-1.008,0.177-2.032,0.289-3.051,0.325c-0.618,0.02-1.242-0.159-1.863-0.256c-0.415-0.063-0.827-0.174-1.245-0.209
		c-1.662-0.15-3.194-0.793-4.69-1.512c-0.97-0.467-1.898-1.063-2.79-1.694c-1.157-0.819-2.347-1.626-3.359-2.632
		c-1.034-1.026-1.914-2.251-2.783-3.457c-0.876-1.215-1.711-2.476-2.468-3.782c-1.048-1.811-1.962-3.701-2.511-5.78
		c-0.412-1.563-0.934-3.094-1.348-4.657c-0.202-0.761-0.285-1.559-0.395-2.344c-0.181-1.304-0.39-2.606-0.491-3.917
		c-0.08-1.031-0.017-2.073-0.018-3.11c0-0.99-0.082-1.99,0.019-2.97c0.155-1.526,0.437-3.037,0.658-4.554
		c0.066-0.455,0.059-0.927,0.172-1.365c0.437-1.704,0.899-3.399,1.372-5.091c0.204-0.732,0.413-1.468,0.694-2.166
		c0.853-2.113,1.663-4.247,2.977-6.104c0.934-1.319,1.693-2.795,2.694-4.045c1.126-1.405,2.339-2.77,3.692-3.904
		c1.757-1.476,3.548-2.951,5.758-3.647c1.098-0.347,2.132-0.942,3.231-1.279c0.875-0.267,1.802-0.375,2.711-0.442
		c1.079-0.079,2.166-0.017,3.247-0.061c1.317-0.051,2.552,0.316,3.822,0.64c1.742,0.447,3.388,1.143,4.907,2.081
		c2.125,1.312,4.1,2.87,5.772,4.875c1.372,1.644,2.613,3.362,3.679,5.247c1.071,1.894,2.021,3.848,2.634,5.973
		c0.5,1.739,0.945,3.498,1.405,5.25c0.513,1.957,0.75,3.956,0.809,5.985c0.051,1.782,0.19,3.566,0.165,5.348
		C189.514,216.633,189.359,218.027,189.16,219.398z"/>
	<linearGradient id="SVGID_55_" gradientUnits="userSpaceOnUse" x1="118.623" y1="214.9004" x2="573.956" y2="230.2334">
		<stop  offset="0" style="stop-color:#BCBEC0"/>
		<stop  offset="1" style="stop-color:#1C75BC"/>
	</linearGradient>
	<path fill="url(#SVGID_55_)" d="M217.629,136.977c-41.242-12.588-82.483-25.176-123.725-37.763
		c-4.016-1.244-7.273,1.884-7.271,6.985c0,71.874,0,143.748,0,215.621c0,5.104,3.255,8.23,7.271,6.986
		c41.242-12.587,82.483-25.175,123.725-37.762c4.016-1.244,7.271-4.873,7.271-8.105c0-45.952,0-91.905,0-137.856
		C224.901,141.85,221.646,138.22,217.629,136.977z M222.738,215.83c-0.12,1.294-0.237,2.588-0.36,3.882
		c-0.217,2.255-0.392,4.517-0.668,6.763c-0.311,2.54-0.66,5.075-1.097,7.592c-0.336,1.936-0.823,3.843-1.263,5.759
		c-0.3,1.301-0.592,2.609-0.965,3.885c-0.482,1.649-1.034,3.276-1.571,4.907c-0.563,1.702-1.083,3.428-1.739,5.087
		c-0.849,2.146-1.788,4.253-2.744,6.347c-0.736,1.612-1.517,3.204-2.355,4.756c-1.08,2.001-2.215,3.968-3.37,5.922
		c-0.82,1.388-1.646,2.785-2.585,4.076c-1.652,2.273-3.356,4.509-5.114,6.687c-1.069,1.327-2.241,2.566-3.441,3.758
		c-1.387,1.377-2.816,2.714-4.297,3.971c-1.732,1.473-3.507,2.897-5.328,4.237c-1.688,1.24-3.428,2.411-5.21,3.484
		c-1.472,0.886-3.021,1.637-4.571,2.355c-1.451,0.671-2.94,1.252-4.429,1.821c-0.976,0.372-1.968,0.713-2.975,0.964
		c-2.799,0.7-5.599,1.421-8.467,1.697c-1.629,0.157-3.266,0.249-4.9,0.292c-1.588,0.042-3.183,0.065-4.766-0.054
		c-1.552-0.118-3.096-0.398-4.635-0.656c-1.077-0.183-2.145-0.427-3.207-0.688c-0.746-0.183-1.475-0.439-2.21-0.664
		c-0.992-0.302-1.999-0.561-2.971-0.925c-0.957-0.361-1.877-0.83-2.816-1.249c-1.177-0.524-2.373-1.003-3.525-1.585
		c-0.96-0.482-1.863-1.094-2.797-1.639c-0.631-0.369-1.304-0.667-1.905-1.086c-1.313-0.916-2.609-1.865-3.88-2.843
		c-1.006-0.776-1.969-1.616-2.943-2.438c-0.221-0.186-0.392-0.44-0.616-0.622c-0.458-0.372-0.985-0.66-1.395-1.085
		c-0.908-0.94-1.75-1.951-2.633-2.92c-0.835-0.916-1.729-1.771-2.52-2.727c-0.846-1.02-1.673-2.056-2.46-3.139
		c-1.357-1.869-2.803-3.65-3.921-5.719c-1.055-1.949-2.269-3.796-3.321-5.747c-1.038-1.925-2.015-3.893-2.918-5.896
		c-0.714-1.584-1.293-3.24-1.9-4.877c-0.669-1.81-1.355-3.614-1.934-5.46c-0.524-1.67-0.91-3.393-1.364-5.09
		c-0.431-1.613-0.914-3.215-1.294-4.844c-0.322-1.375-0.553-2.775-0.78-4.172c-0.28-1.724-0.552-3.451-0.757-5.185
		c-0.218-1.853-0.374-3.714-0.517-5.575c-0.071-0.916-0.042-1.843-0.084-2.763c-0.009-0.194-0.134-0.381-0.206-0.572
		c0-4.058,0-8.115,0-12.173c0.07-0.122,0.196-0.242,0.204-0.369c0.109-1.617,0.193-3.236,0.302-4.853
		c0.083-1.227,0.178-2.454,0.295-3.677c0.073-0.77,0.177-1.538,0.301-2.301c0.213-1.315,0.446-2.627,0.678-3.938
		c0.15-0.837,0.303-1.675,0.477-2.507c0.121-0.577,0.292-1.14,0.426-1.713c0.23-0.979,0.445-1.963,0.675-2.942
		c0.189-0.808,0.391-1.614,0.589-2.421c0.203-0.821,0.38-1.652,0.621-2.462c0.366-1.229,0.779-2.439,1.17-3.66
		c0.363-1.137,0.682-2.291,1.095-3.404c0.525-1.419,1.105-2.816,1.696-4.204c0.72-1.694,1.454-3.38,2.225-5.044
		c0.462-1,0.995-1.961,1.517-2.927c1.065-1.971,2.125-3.947,3.226-5.896c0.528-0.934,1.145-1.809,1.722-2.71
		c0.789-1.229,1.516-2.513,2.38-3.675c1.141-1.535,2.374-2.996,3.596-4.458c1.184-1.418,2.367-2.842,3.622-4.184
		c1.078-1.154,2.228-2.235,3.401-3.276c1.188-1.054,2.443-2.022,3.673-3.021c1.028-0.833,2.06-1.66,3.094-2.484
		c0.373-0.298,0.739-0.62,1.144-0.863c0.873-0.527,1.805-0.943,2.645-1.523c1.501-1.032,3.105-1.811,4.721-2.599
		c1.38-0.671,2.725-1.391,4.195-1.828c1.245-0.37,2.44-0.933,3.667-1.375c0.433-0.154,0.9-0.188,1.344-0.313
		c0.63-0.176,1.244-0.427,1.88-0.567c0.868-0.189,1.751-0.291,2.625-0.456c0.529-0.101,1.047-0.287,1.579-0.371
		c0.983-0.151,1.972-0.262,2.96-0.377c0.524-0.063,1.05-0.136,1.577-0.142c0.896-0.011,1.792,0.043,2.687,0.042
		c1.13-0.001,2.266-0.121,3.387-0.025c1.494,0.129,2.984,0.363,4.46,0.646c2.063,0.396,4.119,0.849,6.165,1.338
		c0.818,0.197,1.604,0.558,2.403,0.845c0.932,0.337,1.883,0.625,2.792,1.025c1.467,0.644,2.923,1.324,4.352,2.061
		c1.268,0.655,2.519,1.356,3.728,2.129c1.325,0.846,2.606,1.776,3.885,2.706c0.93,0.674,1.847,1.373,2.729,2.118
		c0.723,0.61,1.345,1.367,2.084,1.951c1.889,1.49,3.46,3.335,5.091,5.123c1.947,2.134,3.696,4.447,5.364,6.831
		c1.135,1.623,2.196,3.309,3.239,5.004c0.775,1.262,1.502,2.564,2.189,3.885c0.835,1.606,1.649,3.227,2.393,4.881
		c0.874,1.94,1.709,3.902,2.47,5.896c0.729,1.911,1.37,3.864,2,5.817c0.468,1.45,0.898,2.918,1.268,4.402
		c0.53,2.127,1.003,4.272,1.471,6.417c0.265,1.217,0.505,2.44,0.696,3.673c0.289,1.871,0.59,3.746,0.769,5.632
		c0.285,3.035,0.473,6.08,0.705,9.119c0.008,0.111,0.055,0.215,0.083,0.323C222.738,209.929,222.738,212.878,222.738,215.83z"/>
	<linearGradient id="SVGID_56_" gradientUnits="userSpaceOnUse" x1="118.6812" y1="213.1807" x2="574.015" y2="228.5137">
		<stop  offset="0" style="stop-color:#BCBEC0"/>
		<stop  offset="1" style="stop-color:#1C75BC"/>
	</linearGradient>
	<path fill="url(#SVGID_56_)" d="M213.692,196.677c-0.265-1.686-0.563-3.365-0.844-5.048c-0.076-0.453-0.106-0.918-0.216-1.36
		c-0.298-1.198-0.631-2.385-0.947-3.577c-0.276-1.047-0.535-2.098-0.825-3.139c-0.191-0.691-0.398-1.379-0.643-2.048
		c-0.478-1.311-0.984-2.61-1.481-3.915c-0.437-1.14-0.827-2.304-1.326-3.41c-0.586-1.307-1.257-2.568-1.909-3.835
		c-0.791-1.541-1.516-3.131-2.418-4.592c-1.224-1.981-2.547-3.892-3.905-5.767c-1.109-1.529-2.282-3.014-3.514-4.43
		c-2.108-2.421-4.365-4.682-6.902-6.577c-1.853-1.381-3.702-2.782-5.634-4.022c-1.385-0.889-2.901-1.544-4.37-2.276
		c-0.783-0.39-1.577-0.769-2.39-1.072c-0.818-0.305-1.669-0.51-2.505-0.754c-0.573-0.168-1.146-0.344-1.725-0.491
		c-1.188-0.302-2.371-0.635-3.571-0.864c-0.97-0.184-1.961-0.243-2.943-0.339c-1.232-0.121-2.465-0.242-3.699-0.324
		c-0.46-0.029-0.926,0.06-1.389,0.078c-0.987,0.039-1.98,0.009-2.961,0.114c-1.222,0.13-2.435,0.369-3.652,0.559
		c-0.751,0.116-1.518,0.161-2.251,0.354c-1.136,0.299-2.257,0.673-3.373,1.057c-1.416,0.487-2.844,0.952-4.222,1.548
		c-1.661,0.718-3.32,1.472-4.895,2.384c-1.615,0.933-3.157,2.027-4.677,3.138c-1.289,0.941-2.519,1.984-3.746,3.025
		c-0.96,0.813-1.911,1.646-2.798,2.549c-1.007,1.027-1.967,2.111-2.897,3.221c-1.408,1.677-2.789,3.383-4.149,5.105
		c-1.33,1.682-2.587,3.419-3.623,5.343c-0.977,1.814-2.086,3.541-3.071,5.348c-0.693,1.273-1.293,2.612-1.902,3.937
		c-0.461,1.005-0.887,2.035-1.306,3.063c-0.457,1.124-0.912,2.248-1.326,3.39c-0.39,1.075-0.739,2.17-1.086,3.264
		c-0.369,1.16-0.726,2.323-1.07,3.491c-0.333,1.124-0.676,2.244-0.951,3.384c-0.194,0.809-0.252,1.653-0.418,2.472
		c-0.306,1.516-0.688,3.014-0.961,4.536c-0.299,1.668-0.557,3.349-0.75,5.036c-0.22,1.916-0.417,3.839-0.498,5.766
		c-0.084,2-0.019,4.009-0.019,6.011c-0.057,0.003-0.114,0.006-0.172,0.007c0.137,3.118,0.272,6.236,0.41,9.354
		c0.007,0.137,0.024,0.274,0.043,0.412c0.23,1.705,0.462,3.41,0.693,5.117c0.1,0.741,0.157,1.491,0.302,2.222
		c0.295,1.473,0.743,2.918,0.937,4.403c0.264,2.019,0.802,3.937,1.421,5.846c0.619,1.907,1.173,3.842,1.854,5.721
		c0.637,1.756,1.381,3.468,2.123,5.177c0.601,1.386,1.23,2.761,1.913,4.1c0.688,1.352,1.396,2.702,2.202,3.969
		c1.286,2.023,2.628,4.007,4.011,5.954c0.928,1.305,1.96,2.526,2.961,3.771c0.466,0.58,0.955,1.139,1.457,1.682
		c0.378,0.411,0.796,0.778,1.192,1.169c0.534,0.527,1.037,1.091,1.599,1.58c0.628,0.545,1.316,1.011,1.963,1.536
		c1.138,0.922,2.242,1.897,3.406,2.778c0.809,0.61,1.687,1.115,2.55,1.637c1.429,0.864,2.836,1.778,4.315,2.528
		c1.161,0.589,2.408,0.989,3.631,1.427c1.55,0.556,3.085,1.232,4.678,1.561c2.633,0.545,5.302,0.913,7.969,1.237
		c1.1,0.133,2.232-0.018,3.348-0.079c1.338-0.075,2.681-0.139,4.01-0.307c1.22-0.155,2.428-0.426,3.635-0.675
		c1.106-0.23,2.226-0.426,3.299-0.778c1.332-0.435,2.626-1.009,3.931-1.54c1.032-0.418,2.063-0.84,3.078-1.302
		c0.721-0.33,1.422-0.711,2.12-1.1c0.933-0.521,1.878-1.022,2.772-1.616c0.958-0.635,1.873-1.345,2.784-2.058
		c1.465-1.143,2.936-2.283,4.358-3.492c0.892-0.758,1.711-1.623,2.539-2.468c1.043-1.068,2.096-2.129,3.08-3.26
		c0.901-1.037,1.728-2.152,2.568-3.25c0.905-1.186,1.83-2.358,2.663-3.601c0.982-1.466,1.897-2.99,2.802-4.517
		c0.799-1.345,1.595-2.7,2.305-4.105c0.717-1.419,1.339-2.896,1.98-4.359c0.663-1.516,1.332-3.029,1.935-4.574
		c0.6-1.534,1.17-3.087,1.661-4.666c0.643-2.074,1.241-4.167,1.77-6.28c0.486-1.947,0.876-3.924,1.263-5.898
		c0.258-1.317,0.476-2.646,0.638-3.981c0.259-2.133,0.539-4.273,0.664-6.417c0.374-6.501,0.516-13.002-0.376-19.475
		C214.042,199.154,213.887,197.912,213.692,196.677z M206.626,215.478c-0.036,2.115-0.153,4.239-0.381,6.34
		c-0.234,2.151-0.611,4.286-1,6.412c-0.293,1.601-0.625,3.204-1.08,4.757c-0.718,2.447-1.529,4.863-2.348,7.275
		c-0.472,1.389-0.979,2.771-1.573,4.103c-1.015,2.275-1.989,4.573-3.337,6.659c-0.792,1.223-1.451,2.548-2.241,3.772
		c-0.742,1.154-1.553,2.257-2.381,3.341c-0.898,1.176-1.823,2.336-2.79,3.448c-0.703,0.809-1.486,1.537-2.242,2.29
		c-0.777,0.774-1.526,1.587-2.357,2.287c-1.258,1.058-2.534,2.11-3.882,3.025c-1.435,0.976-2.939,1.846-4.459,2.659
		c-1.419,0.76-2.887,1.421-4.359,2.053c-0.862,0.369-1.764,0.665-2.67,0.871c-1.972,0.449-3.955,0.858-5.943,1.208
		c-1.109,0.195-2.239,0.317-3.362,0.335c-0.988,0.017-1.979-0.159-2.969-0.242c-1.146-0.093-2.306-0.098-3.438-0.291
		c-1.01-0.172-1.993-0.539-2.983-0.837c-0.988-0.297-1.992-0.548-2.95-0.935c-1.409-0.569-2.797-1.211-4.168-1.882
		c-0.84-0.411-1.654-0.897-2.44-1.422c-1.015-0.677-1.997-1.417-2.982-2.146c-0.667-0.494-1.356-0.964-1.967-1.531
		c-1.16-1.076-2.28-2.203-3.398-3.33c-0.824-0.831-1.644-1.669-2.419-2.555c-0.532-0.604-0.997-1.28-1.466-1.944
		c-0.653-0.927-1.309-1.854-1.917-2.813c-0.749-1.185-1.483-2.384-2.164-3.616c-0.794-1.44-1.575-2.892-2.265-4.393
		c-0.635-1.383-1.141-2.836-1.702-4.26c-0.299-0.758-0.612-1.512-0.888-2.281c-0.245-0.685-0.461-1.386-0.667-2.086
		c-0.371-1.259-0.745-2.517-1.075-3.789c-0.231-0.887-0.405-1.792-0.575-2.697c-0.295-1.572-0.577-3.147-0.847-4.724
		c-0.113-0.668-0.207-1.341-0.267-2.017c-0.12-1.366-0.225-2.734-0.31-4.103c-0.121-1.939-0.222-3.878-0.33-5.817
		c0.043-0.003,0.086-0.006,0.129-0.007c0-1.43-0.063-2.863,0.017-4.286c0.107-1.933,0.277-3.866,0.506-5.785
		c0.238-1.999,0.533-3.994,0.893-5.971c0.225-1.243,0.616-2.451,0.929-3.675c0.293-1.15,0.541-2.315,0.881-3.448
		c0.447-1.484,0.948-2.95,1.456-4.414c0.543-1.562,1.096-3.119,1.698-4.654c0.287-0.729,0.71-1.391,1.051-2.095
		c0.586-1.209,1.11-2.458,1.749-3.632c0.682-1.258,1.449-2.462,2.21-3.666c0.769-1.219,1.565-2.417,2.373-3.606
		c0.358-0.528,0.75-1.032,1.163-1.511c1.067-1.235,2.128-2.478,3.241-3.664c1.042-1.11,2.097-2.213,3.235-3.201
		c1.356-1.178,2.804-2.229,4.215-3.331c0.264-0.205,0.537-0.4,0.819-0.574c1.002-0.62,1.989-1.273,3.02-1.832
		c1.223-0.665,2.477-1.27,3.736-1.848c0.954-0.438,1.925-0.844,2.913-1.174c0.829-0.277,1.694-0.427,2.544-0.632
		c0.913-0.218,1.825-0.445,2.742-0.644c0.392-0.083,0.796-0.114,1.196-0.142c0.992-0.069,1.984-0.121,2.975-0.188
		c0.32-0.022,0.642-0.124,0.958-0.102c1.468,0.1,2.932,0.23,4.399,0.349c0.189,0.015,0.382,0.002,0.568,0.036
		c1.037,0.186,2.073,0.376,3.108,0.573c0.389,0.073,0.777,0.155,1.161,0.257c0.517,0.136,1.037,0.271,1.54,0.454
		c1.047,0.378,2.12,0.706,3.12,1.204c1.95,0.965,3.944,1.878,5.759,3.097c2.556,1.716,4.962,3.701,7.159,5.942
		c0.918,0.938,1.745,1.986,2.567,3.026c1.139,1.445,2.271,2.898,3.335,4.409c0.783,1.111,1.489,2.292,2.16,3.487
		c0.854,1.524,1.672,3.075,2.438,4.653c0.491,1.011,0.868,2.087,1.276,3.146c0.614,1.588,1.217,3.184,1.809,4.783
		c0.201,0.54,0.375,1.094,0.525,1.652c0.266,0.982,0.536,1.964,0.747,2.961c0.417,1.97,0.812,3.947,1.182,5.93
		c0.205,1.094,0.33,2.207,0.508,3.307C206.775,206.322,206.705,210.903,206.626,215.478z"/>
</g>
<rect x="404.788" y="139.992" fill="#FFFFFF" width="101.81" height="134.624"/>
<rect x="242.794" y="97.727" fill="#FFFFFF" width="121.668" height="135.4"/>
<rect x="90.446" y="120.851" fill="#FFFFFF" width="121.667" height="135.398"/>
<g>
	<path fill="#FFFFFF" d="M159.938,645.569l21.875-0.029l14.258-22.341l29.467-0.041l0.03,22.322l17.768-0.024l-0.131-96.438
		l-17.768,0.024L159.938,645.569z M225.517,606.905l-19.11,0.025l19.069-30.032L225.517,606.905z"/>
	<path fill="#FFFFFF" d="M268.652,559.225c-6.794,6.482-13.104,21.974-13.166,37.806h-0.009c0,0.063,0.004,0.119,0.005,0.181
		c-0.001,0.063-0.005,0.123-0.005,0.186h0.009c0.106,15.83,4.546,29.449,11.385,35.886c8.543,8.043,20.327,12.096,30.698,12.082
		l40.94-0.056l-0.03-21.963c-4.619,0.006-17.063,0.023-28.306,0.039c-14.125,0.019-17.896-2.708-17.896-2.708
		s-14.044-5.713-14.575-23.505c0.488-17.775,12.629-23.523,12.629-23.523s5.644-4.624,19.768-4.643
		c11.242-0.016,23.684-0.033,28.305-0.039l-0.026-20.078l-44.707,0.062C283.301,548.964,275.973,552.243,268.652,559.225z"/>
	<polygon fill="#FFFFFF" points="383.033,569.115 391.922,569.104 438.187,569.041 438.158,548.753 354.785,548.867 
		354.918,646.369 374.125,646.343 374.07,605.324 383.082,605.312 383.084,605.276 428.782,605.215 428.755,585.687 
		391.943,585.736 383.057,585.749 374.043,585.762 374.021,569.128 	"/>
</g>
<g>
	<polygon fill="#151515" points="172.746,199.383 172.746,165.679 151.279,199.383 	"/>
	<path fill="#151515" d="M211.065,111.518C169.824,98.93,128.583,86.343,87.341,73.754c-4.016-1.244-7.272,1.884-7.272,6.986
		c0,71.874,0,143.748,0,215.621c0,5.102,3.256,8.229,7.272,6.985c41.242-12.587,82.483-25.176,123.725-37.764
		c4.016-1.243,7.272-4.873,7.272-8.103c0-45.954,0-91.906,0-137.858C218.337,116.39,215.082,112.762,211.065,111.518z
		 M192.706,242.714h-19.96v-25.072h-33.1l-16.049,25.072H99.023l73.723-108.328h19.96V242.714z"/>
</g>
<path fill="#151515" d="M372.566,49.883c-45.366,12.588-90.733,25.175-136.1,37.764c-4.417,1.244-8,4.873-8,8.105
	c0,45.951,0,91.903,0,137.855c0,3.233,3.582,6.861,8,8.105c45.366,12.587,90.733,25.175,136.1,37.764
	c4.417,1.244,7.999-1.884,7.999-6.986c0-71.874,0-143.747,0-215.621C380.565,51.766,376.983,48.639,372.566,49.883z
	 M348.655,134.168c-5.194,0-19.168,0-31.795,0c-15.866,0-22.214,5.182-22.214,5.182s-13.646,6.441-14.222,26.408
	c0.568,19.984,16.337,26.423,16.337,26.423s4.232,3.067,20.099,3.067c12.627,0,26.604,0,31.795,0v24.673h-45.987
	c-11.652,0-24.882-4.573-34.467-13.621c-7.671-7.241-12.639-22.547-12.734-40.328h-0.009c0-0.071,0.004-0.137,0.006-0.207
	c-0.001-0.069-0.006-0.135-0.006-0.206h0.009c0.095-17.781,7.206-35.171,14.85-42.444c8.231-7.832,16.468-11.504,28.121-11.504
	h50.218V134.168z"/>
<path fill="#151515" d="M512.538,130.056c-37.896-12.588-75.794-25.175-113.69-37.764c-3.69-1.244-6.685,1.884-6.683,6.986
	c0,71.874,0,143.747,0,215.621c0,5.103,2.992,8.229,6.683,6.986c37.896-12.588,75.794-25.176,113.69-37.763
	c3.69-1.244,6.681-4.873,6.681-8.105c0-45.953,0-91.905,0-137.856C519.219,134.929,516.229,131.3,512.538,130.056z M504.912,183.096
	h-51.97h-9.982h-10.124v18.682h10.124h9.982h41.351v21.937H442.96v0.04h-10.124v46.075H411.26V160.308h93.652V183.096z"/>
<g>
	<path d="M89.316,364.847c0.65,0,1.181,0.102,1.596,0.304c0.415,0.201,0.756,0.494,1.025,0.874l14.651,20.901
		c0.157,0.247,0.235,0.505,0.235,0.772c0,0.249-0.073,0.483-0.218,0.706c-0.146,0.225-0.336,0.415-0.571,0.571
		c-0.235,0.156-0.499,0.28-0.79,0.369c-0.291,0.09-0.583,0.136-0.873,0.136c-0.314,0-0.593-0.051-0.84-0.153
		c-0.247-0.099-0.459-0.273-0.638-0.52l-3.965-5.779H80.244l-3.731,5.779c-0.156,0.247-0.364,0.421-0.621,0.52
		c-0.258,0.102-0.533,0.153-0.824,0.153c-0.269,0-0.549-0.046-0.84-0.136c-0.292-0.088-0.555-0.218-0.791-0.384
		c-0.235-0.169-0.426-0.359-0.571-0.573c-0.146-0.212-0.218-0.453-0.218-0.723c0-0.225,0.079-0.47,0.235-0.739l13.777-20.901
		c0.248-0.379,0.583-0.673,1.009-0.874C88.095,364.949,88.644,364.847,89.316,364.847z M82.562,379.398H96.44l-7.124-10.451
		L82.562,379.398z"/>
	<path d="M119.996,370.326c0.514,0,0.845,0.146,0.99,0.437c0.146,0.292,0.219,0.717,0.219,1.276c0,0.56-0.074,0.98-0.219,1.26
		c-0.145,0.28-0.476,0.42-0.99,0.42h-2.621c-1.658,0-2.812,0.212-3.461,0.638c-0.65,0.426-0.975,1.021-0.975,1.78v11.729
		c0,0.649-0.18,1.073-0.538,1.275c-0.359,0.201-0.896,0.302-1.612,0.302c-0.718,0-1.25-0.101-1.597-0.302
		c-0.347-0.202-0.52-0.626-0.52-1.275v-11.729c0-1.948,0.745-3.403,2.235-4.369c1.489-0.961,3.646-1.444,6.468-1.444H119.996z"/>
	<path d="M127.791,377.818l13.777-7.258c0.291-0.155,0.622-0.257,0.992-0.302c0.369-0.044,0.902-0.067,1.596-0.067
		c0.448,0,0.834,0.101,1.16,0.303c0.324,0.201,0.487,0.516,0.487,0.941c0,0.313-0.09,0.559-0.269,0.739
		c-0.18,0.179-0.403,0.335-0.672,0.471l-13.508,7.09l13.744,6.956c0.649,0.335,0.975,0.806,0.975,1.411
		c0,0.494-0.196,0.839-0.588,1.041c-0.392,0.201-0.981,0.302-1.764,0.302c-0.717,0-1.282-0.055-1.697-0.167
		c-0.415-0.111-0.711-0.223-0.89-0.337l-13.341-7.056v5.982c0,0.649-0.179,1.073-0.538,1.275c-0.358,0.201-0.896,0.302-1.613,0.302
		s-1.249-0.101-1.596-0.302c-0.347-0.202-0.521-0.626-0.521-1.275v-21.474c0-0.649,0.174-1.075,0.521-1.276
		c0.347-0.203,0.878-0.302,1.596-0.302s1.254,0.1,1.613,0.302c0.359,0.201,0.538,0.626,0.538,1.276V377.818z"/>
	<path d="M169.661,389.313c-6.632,0-9.947-2.085-9.947-6.251V371.2c0-4.167,3.315-6.251,9.947-6.251h16.464
		c0.538,0,0.891,0.152,1.059,0.455c0.167,0.302,0.252,0.756,0.252,1.36c0,0.605-0.084,1.059-0.252,1.361
		c-0.168,0.303-0.521,0.454-1.059,0.454h-16.331c-1.972,0-3.406,0.252-4.301,0.756c-0.897,0.505-1.344,1.126-1.344,1.866v11.861
		c0,0.717,0.447,1.333,1.344,1.849c0.895,0.514,2.33,0.772,4.301,0.772h16.364c0.539,0,0.885,0.151,1.042,0.453
		c0.156,0.302,0.235,0.756,0.235,1.361c0,0.584-0.079,1.031-0.235,1.344c-0.157,0.313-0.504,0.471-1.042,0.471H169.661z"/>
	<path d="M189.151,376.172c0-3.897,3.169-5.846,9.51-5.846h7.325c6.34,0,9.51,1.949,9.51,5.846v7.291c0,3.899-3.17,5.849-9.51,5.849
		h-7.325c-6.34,0-9.51-1.95-9.51-5.849V376.172z M211.228,376.172c0-0.694-0.426-1.276-1.277-1.746
		c-0.852-0.472-2.218-0.706-4.099-0.706h-7.057c-1.882,0-3.249,0.234-4.1,0.706c-0.852,0.47-1.276,1.052-1.276,1.746v7.291
		c0,0.673,0.425,1.251,1.276,1.731c0.851,0.482,2.218,0.724,4.1,0.724h7.057c1.881,0,3.247-0.241,4.099-0.724
		c0.851-0.48,1.277-1.059,1.277-1.731V376.172z"/>
	<path d="M252.626,389.445c-0.717,0-1.254-0.101-1.613-0.302c-0.359-0.202-0.537-0.626-0.537-1.275v-11.695
		c0-0.694-0.381-1.276-1.143-1.746c-0.762-0.472-2.084-0.706-3.965-0.706h-1.882c-0.941,0-1.72,0.063-2.335,0.184
		c-0.616,0.124-1.115,0.299-1.496,0.522c-0.38,0.225-0.65,0.487-0.806,0.789c-0.157,0.302-0.235,0.622-0.235,0.957v11.695
		c0,0.649-0.18,1.073-0.539,1.275c-0.358,0.201-0.896,0.302-1.613,0.302c-0.762,0-1.305-0.112-1.63-0.335
		c-0.324-0.223-0.487-0.638-0.487-1.242v-11.695c0-0.335-0.078-0.655-0.234-0.957c-0.158-0.302-0.426-0.564-0.807-0.789
		c-0.381-0.223-0.879-0.398-1.496-0.522c-0.616-0.122-1.395-0.184-2.335-0.184h-1.882c-1.881,0-3.204,0.234-3.965,0.706
		c-0.761,0.47-1.143,1.052-1.143,1.746v11.695c0,0.649-0.18,1.073-0.537,1.275c-0.359,0.201-0.896,0.302-1.613,0.302
		s-1.25-0.101-1.596-0.302c-0.348-0.202-0.521-0.626-0.521-1.275v-11.695c0-1.969,0.756-3.437,2.268-4.402
		c1.513-0.961,3.634-1.444,6.367-1.444h3.328c2.823,0,4.916,0.561,6.283,1.68c1.389-1.119,3.495-1.68,6.317-1.68h3.327
		c2.733,0,4.856,0.483,6.368,1.444c1.512,0.965,2.268,2.433,2.268,4.402v11.695c0,0.649-0.173,1.073-0.521,1.275
		C253.875,389.344,253.343,389.445,252.626,389.445z"/>
	<path d="M292.043,389.445c-0.718,0-1.256-0.101-1.613-0.302c-0.359-0.202-0.537-0.626-0.537-1.275v-11.695
		c0-0.694-0.382-1.276-1.144-1.746c-0.761-0.472-2.083-0.706-3.965-0.706h-1.882c-0.94,0-1.719,0.063-2.336,0.184
		c-0.616,0.124-1.114,0.299-1.495,0.522c-0.38,0.225-0.649,0.487-0.806,0.789c-0.157,0.302-0.236,0.622-0.236,0.957v11.695
		c0,0.649-0.179,1.073-0.537,1.275c-0.358,0.201-0.896,0.302-1.613,0.302c-0.761,0-1.305-0.112-1.63-0.335
		c-0.324-0.223-0.486-0.638-0.486-1.242v-11.695c0-0.335-0.079-0.655-0.235-0.957c-0.157-0.302-0.426-0.564-0.807-0.789
		c-0.381-0.223-0.879-0.398-1.495-0.522c-0.616-0.122-1.395-0.184-2.336-0.184h-1.882c-1.882,0-3.203,0.234-3.965,0.706
		c-0.762,0.47-1.142,1.052-1.142,1.746v11.695c0,0.649-0.18,1.073-0.538,1.275c-0.359,0.201-0.896,0.302-1.612,0.302
		c-0.718,0-1.25-0.101-1.597-0.302c-0.348-0.202-0.521-0.626-0.521-1.275v-11.695c0-1.969,0.756-3.437,2.268-4.402
		c1.512-0.961,3.634-1.444,6.368-1.444h3.326c2.823,0,4.918,0.561,6.284,1.68c1.389-1.119,3.495-1.68,6.317-1.68h3.327
		c2.732,0,4.855,0.483,6.368,1.444c1.512,0.965,2.269,2.433,2.269,4.402v11.695c0,0.649-0.174,1.073-0.521,1.275
		C293.292,389.344,292.759,389.445,292.043,389.445z"/>
	<path d="M321.982,370.191c0.717,0,1.248,0.101,1.597,0.303c0.347,0.201,0.521,0.627,0.521,1.276v11.693
		c0,3.899-3.17,5.849-9.51,5.849h-8.031c-6.34,0-9.51-1.95-9.51-5.849V371.77c0-0.649,0.18-1.075,0.538-1.276
		c0.358-0.202,0.896-0.303,1.612-0.303s1.25,0.101,1.597,0.303c0.348,0.201,0.52,0.627,0.52,1.276v11.693
		c0,0.697,0.426,1.279,1.278,1.75c0.851,0.47,2.218,0.706,4.099,0.706h7.764c1.882,0,3.247-0.235,4.099-0.706
		c0.851-0.471,1.276-1.053,1.276-1.75V371.77c0-0.649,0.181-1.075,0.539-1.276C320.729,370.292,321.266,370.191,321.982,370.191z"/>
	<path d="M329.106,389.445c-0.717,0-1.25-0.101-1.596-0.302c-0.349-0.202-0.521-0.626-0.521-1.275v-11.695
		c0-3.897,3.17-5.846,9.51-5.846h7.325c6.34,0,9.51,1.949,9.51,5.846v11.695c0,0.649-0.18,1.073-0.538,1.275
		c-0.358,0.201-0.895,0.302-1.612,0.302c-0.717,0-1.25-0.101-1.596-0.302c-0.349-0.202-0.521-0.626-0.521-1.275v-11.695
		c0-0.694-0.425-1.276-1.276-1.746c-0.852-0.472-2.218-0.706-4.1-0.706h-7.058c-1.881,0-3.248,0.234-4.1,0.706
		c-0.852,0.47-1.276,1.052-1.276,1.746v11.695c0,0.649-0.18,1.073-0.538,1.275C330.36,389.344,329.822,389.445,329.106,389.445z"/>
	<path d="M355.82,366.897c0-0.715,0.208-1.243,0.621-1.579c0.415-0.336,1.093-0.503,2.034-0.503s1.618,0.167,2.032,0.503
		c0.415,0.336,0.622,0.863,0.622,1.579c0,0.718-0.207,1.244-0.622,1.58c-0.414,0.335-1.091,0.505-2.032,0.505
		s-1.619-0.169-2.034-0.505C356.028,368.142,355.82,367.616,355.82,366.897z M360.625,387.868c0,0.649-0.179,1.073-0.537,1.275
		c-0.358,0.201-0.896,0.302-1.612,0.302c-0.718,0-1.25-0.101-1.596-0.302c-0.349-0.202-0.521-0.626-0.521-1.275v-15.862
		c0-0.65,0.172-1.075,0.521-1.277c0.346-0.202,0.878-0.301,1.596-0.301c0.717,0,1.254,0.099,1.612,0.301
		c0.358,0.202,0.537,0.627,0.537,1.277V387.868z"/>
	<path d="M365.733,370.326v-3.932c0-0.649,0.174-1.075,0.521-1.276c0.348-0.203,0.88-0.302,1.596-0.302
		c0.717,0,1.254,0.1,1.613,0.302c0.358,0.201,0.538,0.626,0.538,1.276v3.932h7.091c0.514,0,0.844,0.146,0.99,0.437
		c0.146,0.292,0.219,0.717,0.219,1.276c0,0.56-0.073,0.98-0.219,1.26c-0.146,0.28-0.477,0.42-0.99,0.42h-7.091v14.147
		c0,0.649-0.18,1.073-0.538,1.275c-0.359,0.201-0.896,0.302-1.613,0.302c-0.716,0-1.248-0.101-1.596-0.302
		c-0.347-0.202-0.521-0.626-0.521-1.275V373.72h-1.915c-0.516,0-0.847-0.141-0.991-0.42c-0.146-0.28-0.219-0.7-0.219-1.26
		c0-0.559,0.073-0.985,0.219-1.276c0.145-0.292,0.476-0.437,0.991-0.437H365.733z"/>
	<path d="M402.427,385.447V371.77c0-0.649,0.175-1.075,0.522-1.276c0.346-0.202,0.879-0.303,1.594-0.303
		c0.72,0,1.256,0.101,1.615,0.303c0.358,0.201,0.538,0.627,0.538,1.276v17.239c0,1.949-0.746,3.405-2.235,4.369
		c-1.49,0.963-3.646,1.445-6.47,1.445h-4.636c-0.516,0-0.847-0.146-0.992-0.437c-0.146-0.292-0.218-0.717-0.218-1.277
		s0.072-0.98,0.218-1.26c0.146-0.281,0.477-0.42,0.992-0.42h4.636c1.657,0,2.813-0.208,3.463-0.623
		c0.648-0.413,0.973-1.014,0.973-1.797v-0.167h-12.769c-6.34,0-9.509-1.949-9.509-5.846V371.77c0-0.649,0.173-1.075,0.52-1.276
		c0.349-0.202,0.878-0.303,1.597-0.303c0.716,0,1.254,0.101,1.613,0.303c0.357,0.201,0.537,0.627,0.537,1.276v11.258
		c0,0.693,0.426,1.271,1.277,1.73c0.85,0.459,2.218,0.688,4.101,0.688H402.427z"/>
	<path d="M447.868,364.949c0.537,0,0.884,0.152,1.041,0.455c0.157,0.302,0.234,0.756,0.234,1.36c0,0.605-0.077,1.059-0.234,1.361
		c-0.157,0.303-0.504,0.454-1.041,0.454h-16.341c-1.971,0-3.399,0.252-4.284,0.756c-0.885,0.505-1.328,1.126-1.328,1.866v4.301
		h21.774c0.539,0,0.892,0.151,1.061,0.454c0.167,0.302,0.252,0.756,0.252,1.361c0,0.604-0.085,1.06-0.252,1.36
		c-0.169,0.302-0.521,0.454-1.061,0.454h-21.774v8.738c0,0.649-0.188,1.073-0.57,1.275c-0.382,0.201-0.941,0.302-1.68,0.302
		c-0.718,0-1.267-0.101-1.646-0.302c-0.382-0.202-0.572-0.626-0.572-1.275V371.2c0-4.167,3.315-6.251,9.946-6.251H447.868z"/>
	<path d="M475.782,370.191c0.719,0,1.249,0.101,1.598,0.303c0.347,0.201,0.52,0.627,0.52,1.276v11.693
		c0,3.899-3.169,5.849-9.51,5.849h-8.031c-6.338,0-9.509-1.95-9.509-5.849V371.77c0-0.649,0.179-1.075,0.538-1.276
		c0.358-0.202,0.895-0.303,1.611-0.303c0.719,0,1.249,0.101,1.598,0.303c0.348,0.201,0.521,0.627,0.521,1.276v11.693
		c0,0.697,0.426,1.279,1.276,1.75c0.852,0.47,2.217,0.706,4.099,0.706h7.764c1.881,0,3.247-0.235,4.099-0.706
		c0.852-0.471,1.276-1.053,1.276-1.75V371.77c0-0.649,0.181-1.075,0.539-1.276C474.527,370.292,475.066,370.191,475.782,370.191z"/>
	<path d="M482.907,389.445c-0.717,0-1.25-0.101-1.597-0.302c-0.347-0.202-0.521-0.626-0.521-1.275v-11.695
		c0-3.897,3.171-5.846,9.511-5.846h7.325c6.339,0,9.51,1.949,9.51,5.846v11.695c0,0.649-0.179,1.073-0.538,1.275
		c-0.359,0.201-0.896,0.302-1.613,0.302c-0.717,0-1.248-0.101-1.595-0.302c-0.349-0.202-0.522-0.626-0.522-1.275v-11.695
		c0-0.694-0.426-1.276-1.277-1.746c-0.851-0.472-2.217-0.706-4.098-0.706h-7.057c-1.882,0-3.249,0.234-4.101,0.706
		c-0.852,0.47-1.276,1.052-1.276,1.746v11.695c0,0.649-0.18,1.073-0.537,1.275C484.161,389.344,483.623,389.445,482.907,389.445z"/>
	<path d="M532.673,366.394c0-0.649,0.179-1.075,0.537-1.276c0.359-0.203,0.896-0.302,1.612-0.302c0.718,0,1.249,0.1,1.598,0.302
		c0.347,0.201,0.52,0.626,0.52,1.276v17.069c0,3.899-3.169,5.849-9.509,5.849h-8.063c-6.342,0-9.512-1.95-9.512-5.849v-7.291
		c0-3.897,3.17-5.846,9.512-5.846h13.306V366.394z M519.5,373.72c-1.881,0-3.248,0.234-4.101,0.706
		c-0.85,0.47-1.275,1.052-1.275,1.746v7.291c0,0.673,0.426,1.251,1.275,1.731c0.853,0.482,2.22,0.724,4.101,0.724h7.796
		c1.883,0,3.248-0.241,4.1-0.724c0.852-0.48,1.277-1.059,1.277-1.731v-9.743H519.5z"/>
</g>
<g>
	<path d="M157.926,708.265c0.435-0.001,0.791,0.068,1.069,0.2c0.278,0.135,0.506,0.333,0.688,0.588l9.832,13.984
		c0.105,0.166,0.158,0.337,0.159,0.519c0,0.164-0.049,0.324-0.146,0.473c-0.097,0.149-0.225,0.277-0.381,0.382
		c-0.159,0.104-0.336,0.188-0.531,0.248c-0.193,0.062-0.389,0.092-0.583,0.092c-0.21,0.001-0.397-0.034-0.563-0.102
		c-0.166-0.064-0.309-0.182-0.429-0.347l-2.661-3.867l-12.514,0.017l-2.493,3.874c-0.106,0.165-0.245,0.282-0.417,0.349
		c-0.172,0.067-0.355,0.104-0.551,0.104c-0.181,0-0.368-0.03-0.563-0.09c-0.195-0.061-0.372-0.147-0.53-0.259
		c-0.158-0.112-0.286-0.238-0.383-0.381s-0.146-0.303-0.147-0.484c0-0.151,0.052-0.316,0.157-0.495l9.208-14.011
		c0.166-0.255,0.39-0.454,0.676-0.589C157.108,708.334,157.476,708.265,157.926,708.265z M153.415,718.019l9.295-0.013l-4.781-6.996
		L153.415,718.019z"/>
	<path d="M178.479,711.904c0.344,0,0.566,0.101,0.664,0.295c0.098,0.193,0.147,0.479,0.148,0.855c0,0.373-0.049,0.654-0.146,0.843
		c-0.097,0.188-0.319,0.282-0.664,0.282l-1.755,0.003c-1.11,0.001-1.883,0.145-2.317,0.431c-0.437,0.286-0.652,0.685-0.652,1.192
		l0.011,7.854c0,0.438-0.119,0.721-0.359,0.857c-0.24,0.135-0.6,0.206-1.08,0.206c-0.48,0.001-0.837-0.069-1.07-0.204
		c-0.232-0.135-0.35-0.418-0.35-0.855l-0.011-7.854c-0.002-1.303,0.496-2.279,1.494-2.929c0.997-0.645,2.44-0.971,4.331-0.974
		L178.479,711.904z"/>
	<path d="M183.708,716.919l9.22-4.874c0.195-0.105,0.417-0.172,0.665-0.204c0.247-0.031,0.604-0.047,1.068-0.047
		c0.3-0.001,0.559,0.068,0.776,0.2c0.219,0.138,0.327,0.347,0.327,0.633c0,0.21-0.06,0.375-0.178,0.494
		c-0.121,0.121-0.271,0.227-0.451,0.315l-9.042,4.762l9.212,4.646c0.436,0.225,0.654,0.54,0.654,0.945
		c0,0.329-0.131,0.562-0.393,0.697c-0.263,0.135-0.657,0.206-1.181,0.206c-0.481,0.001-0.859-0.038-1.137-0.111
		c-0.278-0.076-0.477-0.15-0.597-0.227l-8.942-4.714l0.006,4.005c0,0.438-0.12,0.721-0.359,0.857
		c-0.24,0.135-0.599,0.206-1.08,0.207c-0.481,0-0.837-0.07-1.069-0.204c-0.233-0.136-0.35-0.419-0.35-0.856l-0.02-14.38
		c-0.001-0.435,0.115-0.719,0.347-0.854c0.231-0.136,0.588-0.203,1.069-0.204s0.84,0.066,1.081,0.201
		c0.24,0.135,0.36,0.418,0.361,0.854L183.708,716.919z"/>
	<path d="M211.762,724.576c-4.442,0.006-6.665-1.384-6.668-4.176l-0.011-7.944c-0.003-2.791,2.216-4.19,6.657-4.196l11.029-0.015
		c0.36-0.001,0.596,0.1,0.708,0.304c0.114,0.201,0.17,0.508,0.171,0.911c0,0.405-0.055,0.709-0.168,0.911
		c-0.112,0.202-0.347,0.304-0.707,0.305l-10.94,0.015c-1.32,0.002-2.28,0.174-2.88,0.512c-0.599,0.336-0.898,0.752-0.897,1.249
		l0.011,7.944c0,0.48,0.3,0.894,0.901,1.237c0.601,0.343,1.561,0.517,2.881,0.515l10.961-0.015c0.36-0.001,0.593,0.099,0.698,0.301
		c0.105,0.204,0.159,0.507,0.159,0.912c0,0.389-0.052,0.691-0.157,0.9c-0.104,0.21-0.337,0.314-0.697,0.315L211.762,724.576z"/>
	<path d="M224.803,715.76c-0.003-2.61,2.118-3.921,6.365-3.927l4.906-0.007c4.246-0.006,6.371,1.3,6.375,3.91l0.006,4.885
		c0.004,2.609-2.117,3.917-6.364,3.922l-4.906,0.008c-4.247,0.005-6.373-1.297-6.375-3.906L224.803,715.76z M239.591,715.739
		c-0.001-0.464-0.287-0.854-0.857-1.169s-1.485-0.47-2.746-0.469l-4.728,0.007c-1.26,0.002-2.175,0.159-2.745,0.476
		c-0.569,0.316-0.854,0.708-0.854,1.172l0.007,4.885c0,0.451,0.286,0.835,0.856,1.156c0.571,0.323,1.486,0.483,2.747,0.481
		l4.728-0.007c1.26-0.001,2.174-0.163,2.745-0.489c0.57-0.322,0.854-0.707,0.854-1.158L239.591,715.739z"/>
	<path d="M267.332,724.595c-0.481,0.001-0.842-0.069-1.081-0.204c-0.24-0.136-0.361-0.419-0.362-0.856l-0.01-7.83
		c-0.001-0.465-0.257-0.855-0.767-1.17c-0.511-0.315-1.396-0.471-2.657-0.469l-1.26,0.002c-0.631,0.001-1.152,0.042-1.564,0.127
		c-0.413,0.081-0.746,0.198-1.001,0.35c-0.255,0.149-0.436,0.325-0.54,0.529c-0.104,0.202-0.157,0.417-0.157,0.641l0.011,7.831
		c0,0.438-0.121,0.721-0.359,0.857c-0.24,0.135-0.6,0.206-1.08,0.207c-0.511,0-0.875-0.076-1.092-0.226
		c-0.218-0.151-0.327-0.427-0.327-0.834l-0.011-7.831c0-0.224-0.053-0.439-0.158-0.641c-0.106-0.204-0.287-0.379-0.542-0.528
		c-0.255-0.151-0.591-0.268-1.002-0.348c-0.413-0.083-0.935-0.123-1.564-0.122l-1.261,0.002c-1.26,0.002-2.146,0.159-2.656,0.477
		c-0.509,0.314-0.764,0.707-0.764,1.17l0.011,7.832c0,0.438-0.119,0.721-0.357,0.856c-0.241,0.135-0.601,0.206-1.081,0.207
		c-0.479,0.001-0.837-0.069-1.069-0.204c-0.232-0.136-0.35-0.418-0.35-0.855l-0.01-7.831c-0.002-1.321,0.502-2.304,1.515-2.952
		c1.013-0.646,2.433-0.971,4.264-0.974l2.229-0.004c1.891-0.002,3.294,0.375,4.21,1.122c0.929-0.75,2.339-1.131,4.229-1.133
		l2.228-0.004c1.831-0.002,3.254,0.32,4.267,0.962c1.013,0.646,1.521,1.627,1.523,2.948l0.01,7.832c0,0.438-0.115,0.721-0.348,0.856
		C268.168,724.522,267.812,724.594,267.332,724.595z"/>
	<path d="M293.732,724.559c-0.48,0.001-0.842-0.07-1.082-0.204c-0.239-0.136-0.361-0.418-0.36-0.855l-0.012-7.831
		c0-0.464-0.257-0.855-0.767-1.169c-0.508-0.316-1.395-0.471-2.656-0.47l-1.26,0.002c-0.631,0.001-1.152,0.043-1.565,0.127
		c-0.409,0.081-0.745,0.198-0.999,0.35c-0.255,0.15-0.437,0.325-0.541,0.53c-0.104,0.201-0.157,0.417-0.157,0.641l0.012,7.831
		c0,0.438-0.12,0.721-0.358,0.856c-0.241,0.135-0.6,0.206-1.079,0.207c-0.512,0.001-0.875-0.076-1.096-0.226
		c-0.216-0.151-0.326-0.426-0.325-0.834l-0.012-7.831c0-0.224-0.054-0.438-0.157-0.641c-0.105-0.204-0.286-0.379-0.541-0.528
		c-0.256-0.15-0.59-0.268-1.004-0.347c-0.412-0.084-0.934-0.123-1.564-0.123l-1.26,0.002c-1.261,0.002-2.146,0.159-2.654,0.477
		c-0.511,0.314-0.765,0.707-0.765,1.171l0.011,7.831c0,0.438-0.12,0.721-0.359,0.856c-0.239,0.136-0.601,0.206-1.079,0.207
		c-0.481,0.001-0.838-0.068-1.07-0.204c-0.232-0.135-0.349-0.418-0.349-0.855l-0.011-7.831c-0.002-1.321,0.502-2.304,1.514-2.952
		c1.011-0.645,2.433-0.972,4.264-0.974l2.229-0.003c1.892-0.003,3.293,0.374,4.211,1.121c0.928-0.75,2.337-1.13,4.229-1.133
		l2.227-0.003c1.83-0.002,3.253,0.319,4.266,0.962c1.015,0.646,1.522,1.626,1.523,2.948l0.012,7.83
		c-0.001,0.438-0.114,0.722-0.347,0.857S294.211,724.558,293.732,724.559z"/>
	<path d="M313.77,711.632c0.48-0.001,0.834,0.067,1.066,0.2c0.235,0.137,0.353,0.422,0.352,0.854l0.011,7.835
		c0.004,2.609-2.116,3.917-6.364,3.923l-5.379,0.007c-4.247,0.006-6.372-1.296-6.375-3.905l-0.012-7.835
		c0-0.433,0.12-0.718,0.36-0.854c0.239-0.134,0.6-0.203,1.081-0.204c0.479,0,0.836,0.068,1.068,0.201
		c0.234,0.136,0.351,0.421,0.351,0.854l0.012,7.835c0,0.466,0.286,0.855,0.854,1.169c0.571,0.314,1.487,0.471,2.749,0.469
		l5.197-0.007c1.262-0.002,2.176-0.16,2.746-0.477c0.569-0.315,0.854-0.705,0.854-1.171l-0.011-7.836
		c-0.001-0.433,0.12-0.717,0.357-0.854C312.928,711.702,313.289,711.633,313.77,711.632z"/>
	<path d="M318.558,724.524c-0.48,0.001-0.837-0.069-1.068-0.203c-0.233-0.136-0.351-0.418-0.351-0.855l-0.012-7.832
		c-0.003-2.61,2.118-3.921,6.364-3.926l4.906-0.007c4.246-0.006,6.371,1.299,6.374,3.909l0.013,7.83
		c-0.001,0.438-0.122,0.722-0.359,0.857c-0.241,0.135-0.602,0.206-1.08,0.207c-0.48,0-0.837-0.07-1.07-0.204
		c-0.231-0.136-0.349-0.418-0.349-0.855l-0.012-7.831c0-0.464-0.286-0.855-0.856-1.169c-0.571-0.315-1.486-0.471-2.746-0.47
		l-4.727,0.007c-1.26,0.002-2.177,0.159-2.746,0.477c-0.57,0.314-0.854,0.708-0.854,1.171l0.012,7.831
		c0,0.438-0.119,0.722-0.36,0.857C319.396,724.453,319.038,724.523,318.558,724.524z"/>
	<path d="M336.431,709.396c-0.002-0.479,0.136-0.833,0.413-1.058c0.278-0.227,0.732-0.338,1.361-0.339
		c0.631-0.001,1.087,0.109,1.361,0.336c0.277,0.223,0.419,0.575,0.419,1.055c0.002,0.481-0.138,0.834-0.416,1.059
		c-0.275,0.224-0.729,0.341-1.36,0.341c-0.629,0.002-1.085-0.114-1.362-0.338C336.569,710.229,336.431,709.877,336.431,709.396z
		 M339.667,723.434c-0.001,0.438-0.118,0.722-0.359,0.857c-0.239,0.136-0.6,0.206-1.08,0.207c-0.479,0.001-0.837-0.07-1.068-0.204
		c-0.231-0.136-0.351-0.418-0.35-0.855l-0.017-10.622c0.001-0.434,0.117-0.719,0.349-0.855c0.231-0.134,0.589-0.202,1.069-0.203
		c0.479,0,0.842,0.067,1.081,0.2c0.239,0.136,0.359,0.421,0.358,0.854L339.667,723.434z"/>
	<path d="M343.073,711.681l-0.005-2.632c0.001-0.435,0.114-0.719,0.348-0.854c0.23-0.137,0.588-0.204,1.068-0.203
		c0.48-0.001,0.84,0.064,1.08,0.2c0.243,0.134,0.362,0.418,0.363,0.853l0.003,2.632l4.746-0.007c0.346,0,0.569,0.101,0.667,0.294
		c0.097,0.194,0.145,0.479,0.146,0.855c0.001,0.374-0.046,0.655-0.143,0.843c-0.098,0.188-0.322,0.283-0.666,0.283l-4.746,0.007
		l0.012,9.474c0.001,0.438-0.118,0.721-0.358,0.856c-0.239,0.136-0.601,0.206-1.081,0.207s-0.836-0.069-1.069-0.204
		c-0.234-0.135-0.348-0.418-0.349-0.855l-0.014-9.474l-1.283,0.002c-0.346,0-0.566-0.094-0.664-0.282
		c-0.099-0.187-0.148-0.469-0.149-0.842c0.001-0.377,0.048-0.661,0.146-0.856c0.098-0.193,0.317-0.295,0.665-0.295L343.073,711.681z
		"/>
	<path d="M367.662,721.777l-0.013-9.163c0.001-0.433,0.116-0.718,0.35-0.854c0.233-0.133,0.59-0.202,1.066-0.203
		c0.482-0.001,0.843,0.067,1.082,0.2c0.239,0.136,0.36,0.422,0.361,0.854l0.016,11.548c0.001,1.307-0.495,2.281-1.492,2.93
		c-0.995,0.646-2.44,0.97-4.333,0.973l-3.105,0.004c-0.344,0.001-0.567-0.097-0.664-0.292c-0.098-0.194-0.146-0.479-0.147-0.855
		c0.001-0.375,0.048-0.656,0.146-0.843c0.097-0.19,0.318-0.281,0.662-0.282l3.107-0.004c1.111-0.002,1.884-0.143,2.317-0.421
		c0.438-0.278,0.652-0.681,0.65-1.205l0.001-0.114l-8.553,0.013c-4.246,0.005-6.371-1.297-6.374-3.906l-0.012-7.521
		c0.001-0.433,0.117-0.718,0.349-0.854c0.231-0.134,0.589-0.202,1.069-0.203s0.84,0.067,1.081,0.2
		c0.239,0.136,0.359,0.421,0.36,0.854l0.01,7.543c0,0.464,0.286,0.852,0.856,1.159c0.571,0.305,1.488,0.458,2.748,0.457
		L367.662,721.777z"/>
	<path d="M398.08,708.006c0.359,0,0.592,0.1,0.697,0.305c0.105,0.201,0.158,0.507,0.159,0.91c0,0.405-0.053,0.71-0.156,0.912
		c-0.104,0.201-0.338,0.303-0.697,0.304l-10.943,0.015c-1.32,0.003-2.276,0.174-2.869,0.512c-0.592,0.337-0.887,0.753-0.887,1.25
		l0.005,2.884l14.582-0.021c0.361,0,0.597,0.098,0.709,0.301c0.111,0.204,0.17,0.505,0.172,0.911
		c-0.001,0.404-0.06,0.71-0.169,0.909c-0.114,0.203-0.348,0.307-0.709,0.307l-14.582,0.02l0.009,5.851
		c-0.001,0.438-0.132,0.721-0.385,0.857c-0.255,0.135-0.631,0.206-1.125,0.206c-0.479,0.001-0.847-0.068-1.104-0.203
		c-0.255-0.135-0.384-0.418-0.384-0.855l-0.016-11.162c-0.005-2.791,2.215-4.189,6.656-4.195L398.08,708.006z"/>
	<path d="M416.781,711.491c0.482-0.001,0.839,0.068,1.07,0.201c0.231,0.136,0.349,0.421,0.348,0.854l0.011,7.835
		c0.005,2.609-2.116,3.917-6.36,3.923l-5.381,0.008c-4.246,0.006-6.37-1.297-6.373-3.906l-0.012-7.835
		c0.001-0.433,0.119-0.718,0.358-0.854c0.239-0.134,0.601-0.202,1.079-0.203c0.48-0.001,0.838,0.067,1.071,0.2
		c0.229,0.136,0.35,0.422,0.351,0.854l0.01,7.836c0.002,0.466,0.284,0.854,0.855,1.168c0.57,0.314,1.488,0.471,2.746,0.469
		l5.199-0.007c1.262-0.001,2.176-0.16,2.746-0.477c0.568-0.315,0.855-0.705,0.854-1.171l-0.011-7.835
		c0.001-0.433,0.12-0.718,0.357-0.854C415.942,711.562,416.303,711.492,416.781,711.491z"/>
	<path d="M421.571,724.385c-0.48,0-0.839-0.07-1.07-0.204c-0.233-0.136-0.349-0.419-0.349-0.856l-0.012-7.83
		c-0.003-2.61,2.118-3.921,6.364-3.927l4.906-0.007c4.246-0.006,6.37,1.298,6.372,3.908l0.013,7.832
		c-0.001,0.438-0.118,0.721-0.359,0.856c-0.239,0.135-0.6,0.206-1.078,0.207c-0.48,0.001-0.837-0.069-1.07-0.204
		c-0.231-0.136-0.349-0.418-0.348-0.855l-0.013-7.831c0.001-0.464-0.286-0.855-0.856-1.169c-0.571-0.316-1.486-0.471-2.746-0.469
		l-4.727,0.006c-1.26,0.002-2.177,0.16-2.744,0.477c-0.572,0.315-0.856,0.707-0.856,1.171l0.012,7.831
		c0,0.438-0.119,0.721-0.358,0.857C422.408,724.313,422.05,724.384,421.571,724.385z"/>
	<path d="M454.884,708.896c-0.002-0.435,0.117-0.719,0.358-0.854s0.6-0.203,1.078-0.203c0.48-0.001,0.839,0.065,1.07,0.2
		c0.233,0.135,0.349,0.419,0.349,0.854l0.017,11.435c0.002,2.609-2.116,3.917-6.362,3.922l-5.403,0.008
		c-4.248,0.006-6.371-1.296-6.374-3.905l-0.007-4.885c-0.004-2.61,2.116-3.921,6.364-3.927l8.912-0.012L454.884,708.896z
		 M446.065,713.815c-1.26,0.002-2.174,0.16-2.744,0.477c-0.569,0.315-0.854,0.707-0.854,1.171l0.007,4.885
		c0.002,0.451,0.286,0.835,0.856,1.156c0.571,0.323,1.486,0.483,2.746,0.482l5.225-0.008c1.259-0.002,2.173-0.164,2.743-0.489
		c0.569-0.322,0.855-0.707,0.854-1.158l-0.008-6.527L446.065,713.815z"/>
</g>
</svg>
