<?xml version="1.0" encoding="utf-8"?>
<!-- Generator: Adobe Illustrator 16.0.0, SVG Export Plug-In . SVG Version: 6.00 Build 0)  -->
<!DOCTYPE svg PUBLIC "-//W3C//DTD SVG 1.1//EN" "http://www.w3.org/Graphics/SVG/1.1/DTD/svg11.dtd">
<svg version="1.1" id="Layer_1" xmlns="http://www.w3.org/2000/svg" xmlns:xlink="http://www.w3.org/1999/xlink" x="0px" y="0px"
	 width="612px" height="792px" viewBox="0 0 612 792" enable-background="new 0 0 612 792" xml:space="preserve">
<g>
	<path fill-rule="evenodd" clip-rule="evenodd" fill="#FF0000" d="M80.68,412.871c6.424-2.95,12.784-6.054,19.284-8.826
		c33.799-14.417,68.34-27.045,101.193-43.747c29.585-15.041,58.293-31.587,85.947-49.782c32.69-21.51,65.138-21.061,98.42-2.626
		c8.613,4.77,16.215,10.961,23.63,18.13c-5.288,5.854-10.366,11.473-15.715,17.394c-7.006-6.962-14.427-12.773-23.015-17.036
		c-40.7-20.201-85.75,6.037-87.062,51.5c-1.227,42.541,37.605,70.234,75.229,61.823c9.291-2.077,17.497-7.129,25.294-12.709
		c16.5-11.81,30.927-25.802,44.231-41.041c8.67-9.933,17.779-19.366,29.499-25.87c5.772-3.204,11.736-5.062,18.429-5.023
		c23.161,0.13,46.323,0.05,69.485,0.05c1.632,0,3.266,0,5.269,0c0,8.666,0,16.909,0,26.115c-13.039,0-26.113,0-39.188,0
		c-13.113,0-26.228,0-39.732,0c0,29.127,0,57.565,0,86.374c-9.932,0-19.469,0-29.603,0c0-21.928,0-43.68,0-65.518
		c-3.025-0.105-3.901,2.008-5.111,3.374c-11.047,12.476-22.051,24.978-34.566,36.05c-7.505,6.638-15.46,12.664-23.918,18.007
		c-15.217,9.612-31.936,10.712-49.144,8.088c-39.426-6.013-68.412-34.512-75.079-73.812c-1.625-9.579-1.494-19.231,0.168-28.836
		c0.25-1.447,0.373-2.917,0.536-4.226c-1.319-1.04-2.154-0.123-2.91,0.293c-41.175,22.7-85.191,38.203-129.987,51.888
		c-27.635,8.442-54.301,19.181-77.04,37.782c-6.391,5.229-12.633,10.616-19.07,16.027c41.574-66.143,83.149-132.287,125.104-199.034
		c17.908,28.419,35.424,56.218,53.225,84.465c-8.914,4.764-17.372,9.284-25.25,13.495c-9.566-8.847-18.834-17.417-28.478-26.335
		c-23.169,23.973-46.834,48.458-70.499,72.942C80.398,412.453,80.539,412.662,80.68,412.871z"/>
	<path fill-rule="evenodd" clip-rule="evenodd" fill="#FF0000" d="M442.465,364.119c0-24.361,0-47.301,0-70.623
		c39.021,0,77.856,0,117.092,0c0,7.904,0.025,15.828-0.014,23.751c-0.015,2.865-2.248,2.383-3.995,2.388
		c-11.318,0.031-22.639,0.018-33.958,0.018c-16.307,0-32.613,0-49.495,0c0,10.12,0,20.012,0,29.924
		C461.292,352.729,451.506,356.876,442.465,364.119z"/>
	<path fill-rule="evenodd" clip-rule="evenodd" fill="#FF0000" d="M202.13,390.868c7.551-3.004,14.154-5.631,21.388-8.509
		c17.733,28.125,35.396,56.137,53.058,84.149c-0.248,0.199-0.496,0.398-0.744,0.598C251.486,441.924,227.141,416.74,202.13,390.868z
		"/>
</g>
<text transform="matrix(1 0 0 1 28.333 517.0049)"><tspan x="0" y="0" font-family="'Montserrat-Regular'" font-size="44">ARK </tspan><tspan x="109.074" y="0" font-family="'Montserrat-Light'" font-size="44">COMMUNITY FUND</tspan></text>
</svg>
