<?xml version="1.0" encoding="UTF-8" standalone="no"?>
<!-- Created with Inkscape (http://www.inkscape.org/) -->

<svg
   xmlns:dc="http://purl.org/dc/elements/1.1/"
   xmlns:cc="http://creativecommons.org/ns#"
   xmlns:rdf="http://www.w3.org/1999/02/22-rdf-syntax-ns#"
   xmlns:svg="http://www.w3.org/2000/svg"
   xmlns="http://www.w3.org/2000/svg"
   xmlns:sodipodi="http://sodipodi.sourceforge.net/DTD/sodipodi-0.dtd"
   xmlns:inkscape="http://www.inkscape.org/namespaces/inkscape"
   width="210mm"
   height="210mm"
   viewBox="0 0 210 210"
   version="1.1"
   id="svg4797"
   inkscape:version="0.92.2 (5c3e80d, 2017-08-06)"
   sodipodi:docname="acf-mikanele.svg"
   inkscape:export-filename="C:\Users\jens\Documents\GitHub\logo_contest\Mikanele\acf-mikanele.png"
   inkscape:export-xdpi="11.85"
   inkscape:export-ydpi="11.85">
  <defs
     id="defs4791" />
  <sodipodi:namedview
     id="base"
     pagecolor="#ffffff"
     bordercolor="#666666"
     borderopacity="1.0"
     inkscape:pageopacity="0.0"
     inkscape:pageshadow="2"
     inkscape:zoom="1.4"
     inkscape:cx="281.45509"
     inkscape:cy="613.641"
     inkscape:document-units="mm"
     inkscape:current-layer="layer1"
     showgrid="false"
     inkscape:window-width="2736"
     inkscape:window-height="1699"
     inkscape:window-x="-13"
     inkscape:window-y="-13"
     inkscape:window-maximized="1" />
  <metadata
     id="metadata4794">
    <rdf:RDF>
      <cc:Work
         rdf:about="">
        <dc:format>image/svg+xml</dc:format>
        <dc:type
           rdf:resource="http://purl.org/dc/dcmitype/StillImage" />
        <dc:title></dc:title>
      </cc:Work>
    </rdf:RDF>
  </metadata>
  <g
     inkscape:label="Layer 1"
     inkscape:groupmode="layer"
     id="layer1"
     transform="translate(0,-87)">
    <g
       id="g5139"
       transform="translate(-0.41328458,116.38678)">
      <g
         transform="matrix(0.59537943,0,-0.04383304,0.58106619,-14.303471,2.4446756)"
         id="g4810">
        <path
           inkscape:connector-curvature="0"
           id="path4872"
           d="m 66.693901,107.73307 c 0,-0.30201 41.281989,-65.925773 41.438949,-65.873278 0.24496,0.08192 41.41877,65.743608 41.29979,65.862588 -0.0858,0.0858 -29.56932,-30.217958 -39.23386,-40.325478 L 108.10119,65.203175 87.908204,86.091917 C 67.250019,107.46188 66.693901,108.02919 66.693901,107.73307 Z m 26.106015,-17.233965 3.395027,-3.565483 h 11.906247 11.90625 l 3.39503,3.565483 3.39503,3.565483 H 108.10119 89.404888 Z m 8.029944,-8.274622 c 0.003,-0.10914 1.6438,-1.841621 3.64714,-3.84996 l 3.64244,-3.651522 3.6289,3.70164 c 1.99589,2.0359 3.62889,3.768381 3.62889,3.84996 0,0.08158 -3.27421,0.14832 -7.27604,0.14832 -4.00182,0 -7.27392,-0.0893 -7.27133,-0.198438 z"
           style="fill:#f8e7e7;stroke-width:0.26458335" />
        <path
           inkscape:connector-curvature="0"
           id="path4870"
           d="m 66.730983,107.67026 c 0.119592,-0.35792 41.341217,-65.979781 41.403377,-65.91119 0.33772,0.372672 41.35966,65.90192 41.29544,65.96615 -0.0492,0.0492 -9.36334,-9.497299 -20.6981,-21.214426 l -20.60865,-21.303866 -2.15876,2.191851 C 104.77696,68.604296 96.391671,77.27016 87.330299,86.656254 69.344771,105.28631 66.587804,108.09878 66.730983,107.67026 Z m 26.035303,-17.139659 3.428657,-3.533984 11.772757,-0.03789 11.77275,-0.03789 3.57188,3.571875 3.57187,3.571875 H 108.11092 89.33763 Z m 8.323444,-8.315034 c 0,-0.114043 1.5759,-1.859518 3.502,-3.878829 l 3.502,-3.671477 3.50946,3.67769 c 1.9302,2.022731 3.50946,3.768203 3.50946,3.878831 0,0.110625 -3.15516,0.201139 -7.01146,0.201139 -3.8563,0 -7.01146,-0.09331 -7.01146,-0.207354 z"
           style="fill:#f3d7d7;stroke-width:0.26458335" />
        <path
           inkscape:connector-curvature="0"
           id="path4868"
           d="m 67.012443,107.26376 c 0.370456,-0.74698 41.067407,-65.568394 41.121297,-65.497313 0.29468,0.388629 40.55511,64.608103 40.91447,65.262723 0.36377,0.66266 -0.15695,0.24254 -1.83079,-1.47708 C 145.93089,104.23037 136.61649,94.616072 126.51874,84.186983 116.421,73.757896 108.1331,65.225004 108.10119,65.225004 c -0.0319,0 -8.319805,8.532892 -18.417547,18.961979 C 79.5859,94.616072 70.276828,104.23037 68.996818,105.55209 c -1.28001,1.32172 -2.172978,2.09197 -1.984375,1.71167 z m 25.875208,-16.771047 3.564522,-3.571875 h 11.649017 11.64902 l 3.56452,3.571875 3.56453,3.571875 H 108.10119 89.323128 Z m 8.209219,-8.26823 c 0.004,-0.10914 1.58254,-1.85153 3.50803,-3.871978 l 3.50088,-3.673542 3.50344,3.707633 c 1.92688,2.0392 3.50343,3.781589 3.50343,3.871979 0,0.09039 -3.15516,0.164346 -7.01146,0.164346 -3.8563,0 -7.00824,-0.0893 -7.00432,-0.198438 z"
           style="fill:#f1c8c8;stroke-width:0.26458335" />
        <path
           inkscape:connector-curvature="0"
           id="path4866"
           d="m 66.856127,107.55834 c 0.170985,-0.34458 13.66886,-21.896519 34.991063,-55.869932 3.4397,-5.480596 6.2672,-9.94544 6.28333,-9.921875 0.0161,0.02356 4.7338,7.543782 10.4837,16.711595 5.7499,9.167813 14.93611,23.793975 20.41379,32.502585 5.47768,8.708607 10.08934,16.090487 10.24812,16.404167 0.38177,0.75422 -0.52356,-0.16573 -18.70663,-19.008834 -8.56584,-8.876771 -17.12854,-17.726907 -19.02822,-19.666964 L 108.0873,65.1817 89.308831,84.556222 C 78.980672,95.21221 69.659346,104.83625 68.594774,105.94298 c -1.064571,1.10673 -1.846963,1.83364 -1.738647,1.61536 z m 26.031524,-17.065627 3.564522,-3.571875 h 11.673757 11.67376 l 3.47637,3.571875 3.47637,3.571875 H 108.03778 89.323128 Z m 8.214069,-8.26823 c 0.007,-0.10914 1.58836,-1.848188 3.51504,-3.864551 l 3.50305,-3.666118 3.49642,3.700209 c 1.92303,2.035114 3.49642,3.774162 3.49642,3.864552 0,0.09039 -3.15516,0.164346 -7.01146,0.164346 -3.8563,0 -7.00606,-0.0893 -6.99947,-0.198438 z"
           style="fill:#edc8c8;stroke-width:0.26458335" />
        <path
           inkscape:connector-curvature="0"
           id="path4864"
           d="m 67.271003,106.8738 c 0.724279,-1.27664 40.817137,-65.160298 40.858317,-65.103331 0.27347,0.37832 41.08211,65.509121 41.22033,65.787871 0.10825,0.21828 -0.61541,-0.44406 -1.60811,-1.47187 -12.81375,-13.266799 -39.58376,-40.861466 -39.64035,-40.861466 -0.0567,0 -27.899096,28.700651 -39.639562,40.861466 -1.623144,1.68126 -1.742595,1.76025 -1.190625,0.78733 z m 25.655322,-16.381087 3.476371,-3.571875 h 11.698494 11.6985 l 3.47637,3.571875 3.47637,3.571875 H 108.10119 89.449954 Z m 8.163405,-8.226343 c 0,-0.0861 1.57597,-1.822442 3.50214,-3.85853 l 3.50214,-3.701979 3.49733,3.660092 c 1.92353,2.013051 3.50273,3.74939 3.50932,3.85853 0.007,0.109141 -3.14317,0.198438 -6.99947,0.198438 -3.8563,0 -7.01146,-0.07045 -7.01146,-0.156551 z"
           style="fill:#eab6b6;stroke-width:0.26458335" />
        <path
           inkscape:connector-curvature="0"
           id="path4862"
           d="M 66.994707,107.38532 C 67.047545,107.2174 76.31812,92.385772 87.595984,74.426146 108.01082,41.916188 108.10304,41.775277 108.52022,42.452287 c 0.23047,0.374004 9.49437,15.129391 20.58644,32.789747 11.09208,17.660359 20.13086,32.143346 20.08618,32.184426 -0.0447,0.0411 -8.62007,-8.752841 -19.05643,-19.542033 -10.43635,-10.789193 -19.67544,-20.30953 -20.5313,-21.156303 L 108.049,65.188536 88.388959,85.51354 c -22.933111,23.70879 -21.516625,22.26069 -21.394252,21.87178 z m 25.960212,-16.892607 3.433624,-3.571875 h 11.712647 11.71265 l 3.43363,3.571875 3.43362,3.571875 h -18.5799 -18.579894 z m 8.134811,-8.22343 c 0,-0.0845 1.57738,-1.80567 3.50528,-3.82482 l 3.50527,-3.671178 3.44004,3.598489 c 1.89202,1.979168 3.47973,3.700336 3.52823,3.824817 0.0485,0.124481 -3.07688,0.22633 -6.94531,0.22633 -3.86843,0 -7.03351,-0.06914 -7.03351,-0.153638 z"
           style="fill:#e6a4a4;stroke-width:0.26458335" />
        <path
           inkscape:connector-curvature="0"
           id="path4860"
           d="m 66.993657,107.39416 c 0.05342,-0.16306 9.324454,-14.986343 20.602307,-32.940627 l 20.505186,-32.644155 20.57986,32.777801 c 11.31892,18.027794 20.54627,32.806011 20.50523,32.840481 -0.041,0.0345 -8.46854,-8.616351 -18.72776,-19.224061 C 120.19927,77.595889 110.95866,68.075798 109.92381,67.04784 L 108.04226,65.178826 87.989548,85.905563 C 76.960556,97.305266 67.702769,106.87042 67.416687,107.16146 c -0.286082,0.29105 -0.476445,0.39576 -0.42303,0.2327 z m 25.989769,-16.901447 3.410097,-3.571875 h 11.707667 11.70767 l 3.4101,3.571875 3.4101,3.571875 H 108.10119 89.573328 Z m 8.243564,-8.334375 c -0.043,-0.07276 1.48612,-1.749388 3.39802,-3.725839 l 3.47618,-3.593547 3.53489,3.659693 3.53489,3.659693 -3.4026,0.02008 c -1.87143,0.01106 -4.99123,0.04081 -6.93291,0.06614 -1.94166,0.02532 -3.56548,-0.01347 -3.60847,-0.08623 z"
           style="fill:#e69797;stroke-width:0.26458335" />
        <path
           inkscape:connector-curvature="0"
           id="path4858"
           d="m 66.958484,107.45526 c 0,-0.0549 8.590676,-13.776088 19.090391,-30.49158 10.499715,-16.715491 19.773035,-31.495251 20.607385,-32.843911 0.92218,-1.490636 1.57268,-2.307001 1.659,-2.082032 0.0781,0.203542 9.32236,14.9859 20.54279,32.849684 11.22042,17.863783 20.36765,32.503549 20.32717,32.532819 -0.0405,0.0293 -9.24142,-9.44108 -20.44653,-21.045206 -11.2051,-11.604125 -20.49198,-21.072372 -20.6375,-21.040547 -0.14552,0.03182 -8.122706,8.164244 -17.727081,18.072044 -9.604375,9.907799 -18.801953,19.394399 -20.439062,21.081339 -1.63711,1.68694 -2.976563,3.02226 -2.976563,2.96739 z M 92.56316,90.955734 c 1.600558,-1.70987 3.142774,-3.318465 3.427143,-3.574659 0.479692,-0.432157 1.363343,-0.460825 12.233337,-0.396875 l 11.7163,0.06893 3.30873,3.50573 3.30873,3.505729 H 108.10522 89.653053 Z m 11.93223,-12.364281 c 1.91605,-1.961785 3.53866,-3.566883 3.6058,-3.566883 0.0671,0 1.68975,1.605098 3.60581,3.566883 l 3.48373,3.566885 h -7.08954 -7.08953 z"
           style="fill:#e48787;stroke-width:0.26458335" />
        <path
           inkscape:connector-curvature="0"
           id="path4856"
           d="M 140.6545,98.714484 C 113.77662,70.90279 108.41804,65.38187 108.20465,65.281537 108.05197,65.209753 101.68605,71.707769 83.376383,90.625005 72.77206,101.58121 67.050073,107.31661 67.538501,106.50001 67.96413,105.7884 80.696601,85.473355 84.950425,78.718754 95.308062,62.271971 107.77028,42.342217 107.88679,42.038589 c 0.0884,-0.23041 0.45206,0.149219 0.98221,1.025378 0.46299,0.765184 3.08931,4.963119 5.83626,9.328744 8.21388,13.054048 13.42058,21.335385 21.04335,33.469793 3.97657,6.330157 8.64529,13.756138 10.37494,16.502186 1.72964,2.74604 3.10954,5.01709 3.06643,5.04677 -0.0431,0.0297 -3.88407,-3.88396 -8.53548,-8.696976 z M 91.174856,92.410942 c 0.867862,-0.909505 2.408967,-2.516849 3.424678,-3.571875 l 1.846747,-1.918229 H 108.115 119.78371 l 3.37446,3.571875 3.37446,3.571875 H 108.06478 89.596924 Z M 104.4979,78.608349 c 1.93336,-1.952496 3.56249,-3.557593 3.62028,-3.566885 0.0578,-0.0093 1.67276,1.588204 3.58882,3.549989 l 3.48373,3.566885 h -7.10402 -7.10402 z"
           style="fill:#db8b8b;stroke-width:0.26458335" />
        <path
           inkscape:connector-curvature="0"
           id="path4854"
           d="m 67.549233,106.43386 c 1.970301,-3.03067 40.215067,-64.076066 40.328237,-64.37098 0.10163,-0.264822 0.42073,0.05677 0.99334,1.001087 0.76584,1.262973 38.87986,61.972693 39.78409,63.369893 0.2119,0.32742 0.31809,0.59531 0.23598,0.59531 -0.0821,0 -9.23367,-9.37617 -20.3368,-20.835936 -11.10313,-11.459766 -20.30706,-20.835939 -20.45318,-20.835939 -0.14612,0 -9.35054,9.376173 -20.454269,20.835939 C 76.542903,97.653 67.391473,107.02917 67.310121,107.02917 c -0.08135,0 0.02625,-0.26789 0.239112,-0.59531 z m 25.485263,-15.941147 3.3701,-3.571875 h 11.689554 11.68956 l 3.37446,3.571875 3.37446,3.571875 H 108.09851 89.664396 Z M 104.4979,78.608349 c 1.93336,-1.952496 3.57457,-3.530074 3.64712,-3.505729 0.0725,0.02434 1.69404,1.621837 3.6033,3.549988 l 3.47138,3.50573 h -7.11851 -7.1185 z"
           style="fill:#e17676;stroke-width:0.26458335" />
        <path
           inkscape:connector-curvature="0"
           id="path4852"
           d="m 67.552012,106.43386 c 0.371853,-0.5679 3.267871,-5.17908 29.001772,-46.178088 6.145426,-9.790838 11.243636,-17.984266 11.329336,-18.207616 0.11403,-0.297139 0.31103,-0.135192 0.73429,0.603606 0.31815,0.555335 3.53822,5.712668 7.15572,11.460741 3.6175,5.748073 7.24908,11.522605 8.07018,12.832292 4.16871,6.649266 24.47947,38.974275 24.81215,39.489065 0.21159,0.32742 0.32554,0.59531 0.25322,0.59531 -0.12951,0 -8.94786,-9.042012 -23.74186,-24.344044 -13.15572,-13.60749 -16.77874,-17.325757 -16.95988,-17.40576 -0.20612,-0.09103 -3.06563,2.821516 -24.689257,25.147201 -8.844282,9.131433 -16.142379,16.602603 -16.217994,16.602603 -0.07561,0 0.03793,-0.26789 0.252323,-0.59531 z m 25.482484,-15.941147 3.3701,-3.571875 h 11.672154 11.67215 l 3.38976,3.571875 3.38975,3.571875 H 108.0964 89.664396 Z M 104.4979,78.608349 c 1.93336,-1.952496 3.57457,-3.530074 3.64712,-3.505729 0.0725,0.02434 1.69404,1.621837 3.6033,3.549988 l 3.47138,3.50573 h -7.11851 -7.1185 z"
           style="fill:#d77777;stroke-width:0.26458335" />
        <path
           inkscape:connector-curvature="0"
           id="path4850"
           d="m 67.551651,106.43386 c 1.118065,-1.7091 39.539009,-62.922463 40.023769,-63.767033 0.55795,-0.972084 0.57718,-0.981081 0.84784,-0.396875 0.21209,0.457788 38.41367,61.390138 40.22761,64.163908 0.21412,0.32742 0.324,0.59531 0.24418,0.59531 -0.0798,0 -9.22569,-9.37617 -20.32415,-20.835936 -11.09846,-11.459766 -20.30983,-20.835939 -20.46971,-20.835939 -0.15988,0 -9.371248,9.376173 -20.469707,20.835939 C 76.533024,97.653 67.387158,107.02917 67.307337,107.02917 c -0.07982,0 0.03012,-0.26789 0.244314,-0.59531 z M 93.063726,90.492713 96.45348,86.920838 h 11.64771 11.64771 l 3.38976,3.571875 3.38975,3.571875 H 108.10119 89.673972 Z M 104.54809,78.50913 c 3.07689,-3.160115 3.59888,-3.594621 3.89465,-3.241932 0.18784,0.224002 1.78492,1.866144 3.54905,3.649208 l 3.20751,3.241932 h -7.10216 -7.10215 z"
           style="fill:#d76868;stroke-width:0.26458335" />
        <path
           inkscape:connector-curvature="0"
           id="path4848"
           d="M 68.348682,105.22693 C 68.966521,104.2357 78.156661,89.597122 88.771216,72.696766 105.22357,46.501548 108.11663,42.035142 108.38373,42.418278 c 0.24049,0.344946 31.91422,50.746055 39.23189,62.428082 0.75203,1.20055 1.31706,2.18281 1.25563,2.18281 -0.0614,0 -9.18903,-9.37617 -20.28353,-20.835936 -11.09451,-11.459766 -20.31352,-20.835939 -20.48669,-20.835939 -0.17317,0 -9.392789,9.376173 -20.488039,20.835939 C 76.517741,97.653 67.391554,107.02917 67.332574,107.02917 c -0.05898,0 0.398269,-0.81101 1.016108,-1.80224 z m 24.713041,-14.723544 3.397803,-3.561204 11.524954,-0.01066 c 8.84427,-0.0082 11.61752,0.06625 11.92293,0.320056 0.2189,0.181901 1.80908,1.789245 3.53374,3.571875 l 3.13575,3.241146 H 108.12041 89.66392 l 3.397803,-3.561202 z m 9.045227,-9.337236 c 0.4384,-0.545703 1.96849,-2.152952 3.40019,-3.571666 l 2.6031,-2.579479 2.91732,2.976354 c 1.60452,1.636996 3.13899,3.244244 3.40992,3.571666 l 0.4926,0.595313 h -6.81011 -6.81012 z"
           style="fill:#d75858;stroke-width:0.26458335" />
        <path
           inkscape:connector-curvature="0"
           id="path4846"
           d="m 68.323251,105.2985 c 0.631826,-1.02464 9.83505,-15.690636 20.451608,-32.591111 16.292671,-25.936276 19.350601,-30.658866 19.609131,-30.28391 0.30738,0.445796 38.77967,61.694091 39.99951,63.679651 0.88317,1.43755 -1.04967,-0.51225 -22.37864,-22.574965 -9.7524,-10.087896 -17.82987,-18.320116 -17.94994,-18.293822 -0.12007,0.02629 -8.176723,8.280028 -17.903673,18.34163 -9.72695,10.061604 -18.875929,19.484447 -20.331066,20.939657 l -2.645704,2.64583 z M 92.90941,90.69115 c 1.806991,-1.85539 3.404521,-3.460911 3.550068,-3.567824 0.347467,-0.255233 22.939342,-0.253341 23.283382,0.0019 0.14552,0.107985 1.74677,1.713505 3.55832,3.567825 l 3.29374,3.371585 H 108.10944 89.623971 Z m 9.7221,-10.054167 c 0.73125,-0.836744 2.26351,-2.443887 3.40502,-3.57143 l 2.07548,-2.050077 2.51316,2.579243 c 1.38224,1.418585 2.92121,3.025728 3.41993,3.571431 l 0.90677,0.992188 h -6.82495 -6.82496 z"
           style="fill:#d44949;stroke-width:0.26458335" />
        <path
           inkscape:connector-curvature="0"
           id="path4844"
           d="m 73.740773,96.710422 c 7.584468,-12.10866 21.477701,-34.258324 29.075617,-46.354597 2.89739,-4.612787 5.28846,-8.363256 5.31349,-8.334375 0.025,0.02888 5.01796,7.970168 11.09539,17.647303 6.07743,9.677136 14.94031,23.786043 19.6953,31.353127 4.75498,7.567083 8.97233,14.29411 9.37188,14.94896 0.56168,0.92057 -0.0449,0.41048 -2.67429,-2.24896 -3.75436,-3.797247 -32.76121,-33.781083 -35.66667,-36.867966 l -1.82877,-1.942965 -1.46491,1.54609 c -2.63866,2.784887 -33.38546,34.543881 -36.461405,37.661721 l -3.001823,3.0427 z M 92.90941,90.69115 c 1.806991,-1.85539 3.363505,-3.432968 3.458919,-3.505729 0.09542,-0.07276 5.363311,-0.132292 11.706441,-0.132292 h 11.53295 l 3.5059,3.50573 3.50591,3.505729 H 108.12175 89.623971 Z m 9.51116,-9.789583 c 0.64704,-0.691224 2.18714,-2.298317 3.42245,-3.571314 l 2.24602,-2.314544 1.81202,1.785377 c 0.99661,0.981956 2.52965,2.589048 3.40676,3.571314 l 1.59474,1.785938 h -6.82921 -6.82921 z"
           style="fill:#c84848;stroke-width:0.26458335" />
        <path
           inkscape:connector-curvature="0"
           id="path4842"
           d="m 73.518284,97.040047 c 3.44987,-5.49402 12.640504,-20.130617 20.423628,-32.525774 7.783128,-12.395156 14.169578,-22.514972 14.192118,-22.48848 0.0476,0.056 36.9784,58.879227 39.31581,62.622127 l 1.56968,2.51354 -2.49807,-2.51354 c -1.37393,-1.38245 -9.97198,-10.252603 -19.10677,-19.711457 -9.13479,-9.458855 -17.21729,-17.821344 -17.9611,-18.58331 L 108.10119,64.96776 87.758024,85.998466 C 76.569281,97.565354 67.376816,107.02917 67.330323,107.02917 c -0.04649,0 2.73809,-4.49511 6.187961,-9.989123 z m 19.510034,-6.420921 3.445464,-3.445463 h 11.627408 11.62741 l 3.44547,3.445463 3.44546,3.445462 H 108.10119 89.582855 Z M 103.42087,79.843233 c 1.1681,-1.273307 2.70238,-2.879923 3.40952,-3.570261 l 1.2857,-1.255154 2.11165,2.181196 c 1.16141,1.19966 2.7014,2.806277 3.42219,3.570261 l 1.31054,1.389063 h -6.83171 -6.8317 z"
           style="fill:#d43838;stroke-width:0.26458335" />
        <path
           inkscape:connector-curvature="0"
           id="path4840"
           d="M 71.375651,100.48073 C 73.643103,96.879093 79.567399,87.44339 84.540754,79.512504 104.43073,47.794452 108.09104,41.976202 108.12506,42.024073 c 0.0907,0.127669 39.19069,62.402657 39.98348,63.682187 0.84007,1.35582 0.697,1.24741 -2.095,-1.5875 -1.64816,-1.67349 -9.8428,-10.126932 -18.21032,-18.785422 -8.36752,-8.65849 -16.22355,-16.787284 -17.45785,-18.063985 L 108.10119,64.948077 87.74654,85.988623 C 76.551481,97.560925 67.360641,107.02917 67.32245,107.02917 c -0.03819,0 1.78575,-2.9468 4.053201,-6.54844 z m 21.649527,-9.858464 3.442322,-3.442324 11.63071,-5.3e-4 11.63071,-5.29e-4 3.24812,3.240315 c 1.78646,1.782432 3.24811,3.331658 3.24811,3.442981 0,0.111326 -8.24452,0.202409 -18.32115,0.202409 H 89.582855 Z M 104.53598,78.711671 c 1.78298,-1.895665 3.32319,-3.496974 3.42268,-3.558463 0.16367,-0.10115 2.09992,1.809517 5.69127,5.616067 l 1.31054,1.389063 h -6.83314 -6.83314 z"
           style="fill:#c53838;stroke-width:0.26458335" />
        <path
           inkscape:connector-curvature="0"
           id="path4838"
           d="M 71.208119,100.74532 C 73.381788,97.289198 82.571958,82.655437 91.630718,68.22585 l 16.470472,-26.235616 0.44213,0.703322 C 147.3674,104.4532 149.08329,107.2419 146.90824,105.0448 145.75576,103.88063 137.28171,95.129536 128.07701,85.597921 118.87232,76.066306 110.61034,67.52281 109.71706,66.612375 L 108.09291,64.957038 87.744048,85.993105 C 76.552173,97.562941 67.363867,107.02917 67.32559,107.02917 c -0.03828,0 1.708861,-2.82773 3.882529,-6.28385 z m 18.769115,-6.855576 c 0,-0.09616 1.452416,-1.643976 3.227591,-3.439584 l 3.227592,-3.264739 h 11.659193 11.65919 l 3.23718,3.244967 c 1.78044,1.784731 3.23717,3.332543 3.23717,3.439583 0,0.10704 -8.15578,0.194617 -18.12396,0.194617 -9.968175,0 -18.123956,-0.07868 -18.123956,-0.174844 z M 104.53598,78.711671 c 1.78298,-1.895665 3.33083,-3.501694 3.43966,-3.568954 0.10883,-0.06726 1.7122,1.483739 3.56304,3.446664 l 3.36517,3.568957 h -6.80483 -6.80483 z"
           style="fill:#d22727;stroke-width:0.26458335" />
        <path
           inkscape:connector-curvature="0"
           id="path4836"
           d="M 134.94183,92.677843 C 127.31,84.784613 118.15304,75.316035 114.59304,71.636562 l -6.47274,-6.689955 -1.49771,1.528261 c -0.82374,0.840543 -5.52462,5.695448 -10.446391,10.788678 C 71.206909,103.10268 67.306313,107.10597 67.560846,106.6323 67.69688,106.37914 75.542305,93.867704 97.859987,58.312935 l 10.234483,-16.304776 0.42466,0.694359 c 0.23356,0.381898 4.39316,7.004672 9.24355,14.717277 19.73494,31.380542 31.16726,49.609375 31.1128,49.609375 -0.0317,0 -6.30182,-6.4581 -13.93365,-14.351327 z m -44.964596,1.211901 c 0,-0.09616 1.452416,-1.643976 3.227591,-3.439584 l 3.227592,-3.264739 h 11.659953 11.65994 l 2.64939,2.711979 c 1.45717,1.491589 2.93431,3.039402 3.28254,3.439584 l 0.63315,0.727604 h -18.17008 c -9.993541,0 -18.170076,-0.07868 -18.170076,-0.174844 z M 104.68588,78.586462 c 1.85595,-1.964531 3.39868,-3.571875 3.42829,-3.571875 0.0296,0 1.5694,1.607344 3.42176,3.571875 l 3.36792,3.571876 h -6.79621 -6.79622 z"
           style="fill:#c72828;stroke-width:0.26458335" />
        <path
           inkscape:connector-curvature="0"
           id="path4834"
           d="M 142.61404,100.61202 C 139.2027,97.082584 130.04593,87.614054 122.26565,79.570842 L 108.11969,64.94682 106.49888,66.607266 C 104.00098,69.166253 88.143655,85.543488 78.888484,95.122921 68.759895,105.60637 67.286335,107.08322 67.800742,106.23542 68.02148,105.87162 73.733218,96.763338 80.493493,85.994796 87.253768,75.226254 96.226865,60.928276 100.43371,54.221512 l 7.64881,-12.194117 2.01541,3.198283 c 1.10848,1.759056 10.09012,16.057034 19.9592,31.773284 9.86909,15.716251 18.17204,28.902428 18.45101,29.302608 0.27897,0.40018 0.46246,0.7276 0.40776,0.7276 -0.0547,0 -2.89053,-2.88772 -6.30186,-6.41715 z M 89.977234,93.889744 c 0,-0.09616 1.452416,-1.643976 3.227591,-3.439584 l 3.227592,-3.264739 h 11.659953 11.65994 l 2.64939,2.711979 c 1.45717,1.491589 2.93431,3.039402 3.28254,3.439584 l 0.63315,0.727604 h -18.17008 c -9.993541,0 -18.170076,-0.07868 -18.170076,-0.174844 z M 104.68588,78.586462 c 1.85595,-1.964531 3.39868,-3.571875 3.42829,-3.571875 0.0296,0 1.5694,1.607344 3.42176,3.571875 l 3.36792,3.571876 h -6.79621 -6.79622 z"
           style="fill:#bb2828;stroke-width:0.26458335" />
        <path
           inkscape:connector-curvature="0"
           id="path4832"
           d="m 67.819527,106.23542 c 0.210673,-0.3638 9.170395,-14.651301 19.910494,-31.749999 10.7401,-17.098699 19.717289,-31.396437 19.949309,-31.772752 0.42095,-0.682724 0.46479,-0.615844 20.20749,30.823958 10.8821,17.329495 20.03859,31.924893 20.34777,32.434213 0.75892,1.2502 0.54611,1.035 -19.23042,-19.446877 C 119.87105,77.065108 111.4271,68.340126 110.23984,67.135114 L 108.08117,64.944183 90.364101,83.238208 C 80.61971,93.299921 71.474655,102.73928 70.041756,104.21456 c -1.432898,1.47528 -2.432901,2.38466 -2.222229,2.02086 z M 90.518143,93.336984 c 0.348233,-0.400182 1.825375,-1.947995 3.28254,-3.439584 l 2.649389,-2.711979 h 11.651118 11.65112 l 2.64939,2.711979 c 1.45717,1.491589 2.93431,3.039402 3.28254,3.439584 l 0.63315,0.727604 H 108.10119 89.884993 Z M 104.68588,78.586462 c 1.85595,-1.964531 3.38918,-3.571875 3.40717,-3.571875 0.018,0 1.55416,1.607344 3.41371,3.571875 l 3.38101,3.571876 h -6.78817 -6.78818 z"
           style="fill:#c91717;stroke-width:0.26458335" />
        <path
           inkscape:connector-curvature="0"
           id="path4830"
           d="M 68.432097,105.30938 C 68.97502,104.43626 75.128943,94.613599 82.107483,83.481254 89.086022,72.34891 97.789465,58.464527 101.44846,52.627069 c 5.17184,-8.250985 6.70681,-10.518487 6.89568,-10.186459 0.28134,0.494604 17.31237,27.617016 30.75495,48.978145 5.08249,8.076406 9.34077,14.862965 9.46285,15.081255 0.35763,0.63945 0.64826,0.93736 -26.00555,-26.656777 -7.90661,-8.185547 -14.404,-14.882813 -14.43865,-14.882813 -0.0346,0 -3.1993,3.244454 -7.03255,7.209896 -3.833261,3.965443 -12.399048,12.805834 -19.035088,19.645314 -6.636041,6.839479 -12.63694,13.03073 -13.335333,13.75833 l -1.269805,1.32292 z M 90.518143,93.336984 c 0.348233,-0.400182 1.825375,-1.947995 3.28254,-3.439584 l 2.649389,-2.711979 h 11.653488 11.65349 l 1.71381,1.785938 c 0.94259,0.982265 2.42395,2.530078 3.29191,3.439583 l 1.57811,1.653646 H 108.11293 89.884993 Z M 104.53607,78.7849 c 1.79875,-1.855391 3.34248,-3.462515 3.43053,-3.571388 0.088,-0.108874 1.68133,1.409173 3.54062,3.373437 l 3.38055,3.571389 h -6.81107 -6.81106 z"
           style="fill:#b71818;stroke-width:0.26458335" />
        <path
           inkscape:connector-curvature="0"
           id="path4828"
           d="m 68.350685,105.44167 c 0.492462,-0.80036 9.5281,-15.206926 20.079195,-32.014583 10.551096,-16.807657 19.30552,-30.780768 19.45429,-31.051358 0.22678,-0.412499 0.29529,-0.427314 0.42407,-0.0917 0.0845,0.220154 8.81476,14.193265 19.40061,31.051359 10.58586,16.858092 19.65003,31.305922 20.14262,32.106282 l 0.89561,1.45521 -1.27612,-1.33904 c -3.49802,-3.67047 -39.30831,-40.597417 -39.36977,-40.597417 -0.0615,0 -35.871741,36.926947 -39.369765,40.597417 L 67.4553,106.89688 Z M 91.439614,92.410942 c 0.867959,-0.909505 2.349319,-2.457318 3.291913,-3.439583 l 1.713807,-1.785938 h 11.655856 11.65586 l 1.71381,1.785938 c 0.94259,0.982265 2.42395,2.530078 3.29191,3.439583 l 1.57811,1.653646 H 108.10119 89.861507 Z M 104.62752,78.7228 c 1.84232,-1.889546 3.40548,-3.435538 3.47367,-3.435538 0.0682,0 1.63135,1.545992 3.47368,3.435538 l 3.34968,3.435538 h -6.82336 -6.82336 z"
           style="fill:#cc0000;stroke-width:0.26458335" />
        <path
           inkscape:connector-curvature="0"
           id="path4826"
           d="M 132.72944,90.341805 C 124.01028,81.320122 115.16856,72.166996 113.08117,70.001527 l -3.79526,-3.937217 0.0691,-10.898351 0.0691,-10.89835 2.22902,3.533385 c 1.22596,1.943361 9.74713,15.499166 18.93594,30.12401 9.1888,14.624844 17.02762,27.096646 17.4196,27.715106 0.39199,0.61846 0.68144,1.12004 0.64324,1.11462 -0.0382,-0.005 -7.20332,-7.391241 -15.92247,-16.412925 z M 68.545984,105.36114 c 0,-0.22557 4.358541,-7.213285 25.529752,-40.929886 7.447054,-11.859949 13.675454,-21.801668 13.840884,-22.09271 0.22808,-0.40127 0.29934,2.252584 0.29483,10.980209 l -0.006,11.509376 -16.794548,17.330209 C 72.961506,101.19623 68.545984,105.67699 68.545984,105.36114 Z M 91.431332,92.425423 c 0.872514,-0.917469 2.357601,-2.471799 3.300195,-3.454064 l 1.713807,-1.785938 h 5.629496 5.62949 v 3.401232 3.401232 l -8.92969,0.05283 -8.929687,0.05284 z m 16.802148,-1.781167 v -3.458835 h 5.76179 5.76178 l 1.71381,1.785938 c 0.94259,0.982265 2.40442,2.510337 3.2485,3.395713 l 1.53469,1.609775 -9.01028,0.06312 -9.01029,0.06312 z m -6.87916,-8.5562 c 0,-0.03865 1.42875,-1.495308 3.175,-3.23701 l 3.175,-3.166729 v 3.23701 3.237011 h -3.175 c -1.74625,0 -3.175,-0.03163 -3.175,-0.07028 z m 6.87916,-3.4134 c 0,-1.916023 0.0346,-3.43407 0.0768,-3.373438 0.0423,0.06063 1.55049,1.628291 3.35163,3.483682 l 3.27481,3.373438 h -3.35164 -3.35163 z"
           style="fill:#c90000;stroke-width:0.26458335" />
        <path
           inkscape:connector-curvature="0"
           id="path4824"
           d="m 132.25813,89.886685 -16.3243,-16.856473 -0.0137,-9.114896 c -0.008,-5.568528 0.0812,-9.017101 0.23027,-8.863542 0.13419,0.138245 7.19696,11.324167 15.69504,24.857605 8.49808,13.533438 15.77166,25.112271 16.1635,25.730731 0.39185,0.61846 0.68119,1.11966 0.64299,1.11376 -0.0382,-0.006 -7.41541,-7.596124 -16.39378,-16.867185 z M 75.160568,96.731091 V 94.562767 L 91.387264,68.715239 c 8.924686,-14.21614 16.362466,-26.085653 16.528416,-26.376695 0.22932,-0.402199 0.30035,2.232371 0.29606,10.980209 l -0.006,11.509376 -12.090979,12.46183 C 89.465052,84.143967 82.029812,91.810007 79.592338,94.325602 l -4.43177,4.573813 z m 16.279046,-4.320149 c 0.867959,-0.909505 2.349319,-2.457318 3.291913,-3.439583 l 1.713807,-1.785938 h 4.174286 4.17428 v 3.439584 3.439583 h -7.466197 -7.466196 z m 16.793866,-1.785937 v -3.439584 h 5.78879 5.78878 l 1.75184,1.857042 1.75184,1.857044 v 1.582539 1.582542 h -7.54062 -7.54063 z m -5.29166,-10.186459 c 0.93747,-0.945886 1.73771,-1.719792 1.77829,-1.719792 0.0406,0 0.0738,0.773906 0.0738,1.719792 v 1.719792 h -1.77829 -1.7783 z m 5.29166,-1.76389 c 0,-1.916023 0.0346,-3.43407 0.0768,-3.373438 0.0423,0.06063 1.55049,1.628291 3.35163,3.483682 l 3.27481,3.373438 h -3.35164 -3.35163 z"
           style="fill:#c50000;stroke-width:0.26458335" />
        <path
           inkscape:connector-curvature="0"
           id="path4822"
           d="M 136.5439,94.294974 C 129.9227,87.447589 123.40227,80.674017 122.05406,79.242597 l -2.45131,-2.602582 0.0701,-8.001757 0.07,-8.001757 1.22002,1.963522 c 1.14403,1.841215 25.49804,40.597487 27.04591,43.040087 0.39192,0.61846 0.68132,1.12002 0.64312,1.11457 -0.0382,-0.005 -5.48681,-5.61232 -12.10801,-12.459706 z M 78.864734,91.842649 v -3.14342 l 8.56352,-13.655342 C 92.13819,67.533449 98.746158,56.99942 102.11263,51.634934 l 6.12085,-9.753611 -0.0144,11.473403 -0.0145,11.473403 L 95.381,78.057296 c -7.052966,7.276042 -13.654429,14.061578 -14.669919,15.07897 l -1.846347,1.849802 z m 12.57488,0.568293 c 0.867959,-0.909505 2.349319,-2.457318 3.291913,-3.439583 l 1.713807,-1.785938 h 3.380533 3.380533 v 3.439584 3.439583 h -6.672447 -6.672446 z m 16.793866,-1.785937 v -3.439584 h 5.76893 5.76894 l 0.84565,0.872493 c 0.83309,0.859531 0.84565,0.910622 0.84565,3.439583 v 2.567091 h -6.61458 -6.61459 z m -6.08541,-9.392709 c 0.49365,-0.509323 0.93373,-0.926042 0.97794,-0.926042 0.0442,0 0.0804,0.416719 0.0804,0.926042 0,0.891307 -0.0367,0.926042 -0.97794,0.926042 h -0.97795 z m 6.08541,-2.55764 c 0,-1.916023 0.0346,-3.43407 0.0768,-3.373438 0.0423,0.06063 1.55049,1.628291 3.35163,3.483682 l 3.27481,3.373438 h -3.35164 -3.35163 z"
           style="fill:#c10000;stroke-width:0.26458335" />
        <path
           inkscape:connector-curvature="0"
           id="path4820"
           d="m 136.75241,94.517819 -11.83003,-12.22719 -0.0101,-6.601354 c -0.006,-3.920406 0.0866,-6.499276 0.228,-6.35 0.13095,0.138244 5.16942,8.109479 11.1966,17.713854 6.02719,9.604376 11.27936,17.968521 11.67149,18.586981 0.39214,0.61846 0.68171,1.12007 0.64351,1.11469 -0.0382,-0.005 -5.39298,-5.51203 -11.8995,-12.236981 z M 91.439614,92.410942 c 0.867959,-0.909505 2.349319,-2.457318 3.291913,-3.439583 l 1.713807,-1.785938 h 2.189908 2.189908 v 3.287893 c 0,2.90884 0.0534,3.301838 0.46302,3.408889 0.25466,0.06655 -2.212156,0.134813 -5.481821,0.151693 l -5.944842,0.03069 z m 16.793866,-1.785937 v -3.439584 h 5.42396 5.42396 v 3.28889 c 0,3.200337 0.016,3.291978 0.59531,3.403553 0.32743,0.06306 -2.11336,0.130876 -5.42396,0.150693 l -6.01927,0.03603 z M 84.156401,84.918603 v -4.684588 l 6.002712,-9.555028 c 3.30149,-5.255264 8.718834,-13.884619 12.038547,-19.176345 l 6.03582,-9.621319 -0.0118,11.473403 -0.0118,11.473403 -7.83896,8.069792 c -4.311437,4.438385 -9.723466,10.012775 -12.026736,12.38753 l -4.187763,4.317738 z m 24.077079,-6.243947 c 0,-1.916023 0.0346,-3.43407 0.0768,-3.373438 0.0423,0.06063 1.55049,1.628291 3.35163,3.483682 l 3.27481,3.373438 h -3.35164 -3.35163 z m 15.18841,2.094619 -0.50403,-0.595312 0.59531,0.504028 c 0.55945,0.473663 0.71576,0.686597 0.50403,0.686597 -0.0502,0 -0.3181,-0.267891 -0.59531,-0.595313 z"
           style="fill:#bd0101;stroke-width:0.26458335" />
        <path
           inkscape:connector-curvature="0"
           id="path4818"
           d="m 138.859,96.666906 -9.72343,-10.081031 v -5.447641 c 0,-4.678249 0.0509,-5.373931 0.36068,-4.925748 0.19838,0.287041 4.20756,6.653612 8.90929,14.147935 4.70173,7.494324 8.9484,14.251119 9.43703,15.015109 0.48863,0.76398 0.855,1.38531 0.81415,1.38073 -0.0409,-0.005 -4.44982,-4.54479 -9.79772,-10.089354 z M 91.439614,92.410942 c 5.396192,-5.65449 4.881514,-5.225521 6.269587,-5.225521 h 1.263867 v 3.439584 3.439583 h -4.555781 -4.55578 z m 16.793866,-1.785937 v -3.439584 h 4.49792 4.49792 v 3.439584 3.439583 h -4.49792 -4.49792 z M 88.399804,79.36161 l -0.01007,-5.839437 4.716502,-7.522022 c 2.594076,-4.137112 7.058924,-11.256316 9.921874,-15.820452 l 5.20537,-8.29843 v 11.441167 11.441167 l -6.70223,6.911429 c -3.686223,3.801288 -8.146534,8.399712 -9.911801,10.218722 l -3.209575,3.307292 z m 19.833676,-0.686954 c 0,-1.916023 0.0346,-3.43407 0.0768,-3.373438 0.0423,0.06063 1.55049,1.628291 3.35163,3.483682 l 3.27481,3.373438 h -3.35164 -3.35163 z"
           style="fill:#b80101;stroke-width:0.26458335" />
        <path
           inkscape:connector-curvature="0"
           id="path4816"
           d="m 141.5113,99.415519 -7.07115,-7.335306 -0.006,-3.964022 -0.006,-3.964025 0.62059,0.921317 c 0.34132,0.506722 3.15992,4.969438 6.26355,9.917147 3.10364,4.947708 6.04272,9.62091 6.5313,10.3849 0.48858,0.76398 0.8549,1.38596 0.81405,1.38218 -0.0409,-0.004 -3.25629,-3.30777 -7.14542,-7.342191 z M 92.855588,90.923865 c 1.615875,-1.727399 3.117565,-3.28979 3.33709,-3.471982 0.352187,-0.292288 0.39914,0.05901 0.39914,2.986384 0,2.40655 0.09083,3.35429 0.330729,3.451093 0.181901,0.0734 -1.31979,0.142851 -3.337092,0.154339 l -3.667819,0.02089 z m 15.377892,-0.29886 v -3.439584 h 3.3073 3.30729 v 3.285244 c 0,2.380631 0.0911,3.32199 0.33073,3.418695 0.1819,0.0734 -1.30638,0.142851 -3.3073,0.154339 l -3.63802,0.02089 z m 0,-11.950349 c 0,-1.916023 0.0346,-3.43407 0.0768,-3.373438 0.0423,0.06063 1.55049,1.628291 3.35163,3.483682 l 3.27481,3.373438 h -3.35164 -3.35163 z m -14.539866,-6.272395 -0.01221,-7.242535 1.15276,-1.88559 c 0.634021,-1.037075 3.90824,-6.274716 7.276036,-11.639202 l 6.12328,-9.753611 -0.008,11.473403 -0.008,11.473403 -7.25561,7.408333 -7.255602,7.408334 -0.0122,-7.242535 z"
           style="fill:#b50101;stroke-width:0.26458335" />
        <path
           inkscape:connector-curvature="0"
           id="path4814"
           d="m 143.09234,101.03326 -5.49011,-5.719558 v -3.064677 c 0,-2.663119 0.0471,-2.996298 0.35976,-2.542789 0.19787,0.287042 2.30245,3.617519 4.67685,7.401061 2.3744,3.783543 4.71648,7.504243 5.20462,8.268233 0.48814,0.76398 0.85411,1.38641 0.81326,1.38317 -0.0409,-0.003 -2.54482,-2.57969 -5.56438,-5.72544 z M 92.384603,91.418755 c 1.346066,-1.455209 2.486163,-2.645834 2.533553,-2.645834 0.04739,0 0.08616,1.190625 0.08616,2.645834 v 2.645833 H 92.470763 89.93721 Z m 15.848877,-0.79375 v -3.439584 h 2.64584 2.64583 v 3.439584 3.439583 h -2.64583 -2.64584 z m 0,-11.908241 v -3.441573 l 2.63668,2.713969 c 2.02045,2.079684 2.63881,2.88402 2.64583,3.441573 l 0.009,0.727605 h -2.64583 -2.64584 z m -11.371166,-10.46493 -0.0059,-8.217962 5.688536,-9.077972 5.68854,-9.077972 -0.013,11.4751 -0.013,11.475101 -5.66958,5.820833 -5.669577,5.820834 -0.0059,-8.217962 z"
           style="fill:#b00101;stroke-width:0.26458335" />
        <path
           inkscape:connector-curvature="0"
           id="path4812"
           d="m 146.35498,104.39103 c -2.07626,-2.27171 -2.16583,-2.42144 -2.08761,-3.48937 l 0.0817,-1.115814 1.21462,1.968014 c 0.66803,1.08241 1.65396,2.65263 2.19094,3.48937 0.53698,0.83675 0.92982,1.52136 0.87299,1.52136 -0.0568,0 -1.07954,-1.0681 -2.27268,-2.37356 z m -55.439255,-11.400944 1.045884,-1.074502 0.08767,0.873752 c 0.04822,0.480565 0.226813,0.962266 0.396875,1.070451 0.170063,0.108183 -0.340036,0.198523 -1.133554,0.20075 l -1.442759,0.0041 z m 17.317755,-2.365081 v -3.439584 h 1.19063 1.19062 v 3.285244 c 0,2.380631 0.0911,3.32199 0.33073,3.418695 0.1819,0.0734 -0.35388,0.142851 -1.19062,0.154339 l -1.52136,0.02089 z m 0,-11.965152 v -3.498485 l 1.17877,1.315672 1.17877,1.315672 0.0119,2.182813 0.0118,2.182813 h -1.19063 -1.19062 v -3.498485 z m -7.27604,-6.555682 c 0.26339,-0.291042 0.53842,-0.529167 0.61118,-0.529167 0.0728,0 -0.0832,0.238125 -0.34659,0.529167 -0.26339,0.291041 -0.53843,0.529166 -0.61119,0.529166 -0.0728,0 0.0832,-0.238125 0.3466,-0.529166 z m 2.5202,-12.573226 0.007,-10.04865 2.3746,-3.817903 2.37459,-3.817902 v 11.496336 11.496335 l -2.38125,2.370218 -2.38125,2.370217 0.007,-10.048651 z"
           style="fill:#ad0202;stroke-width:0.26458335" />
      </g>
      <flowRoot
         transform="matrix(6.216359,0,0,6.216359,-140.28723,-934.15256)"
         style="font-style:italic;font-variant:normal;font-weight:bold;font-stretch:normal;font-size:29.33333397px;line-height:1.25;font-variant-ligatures:normal;font-variant-caps:normal;font-variant-numeric:normal;font-feature-settings:normal;text-align:start;letter-spacing:0px;word-spacing:0px;writing-mode:lr-tb;text-anchor:start;fill:#000000;fill-opacity:1;stroke:none"
         id="flowRoot4874"
         xml:space="preserve"><flowRegion
           style="font-size:96px"
           id="flowRegion4876"><rect
             style="font-size:96px"
             y="199.66254"
             x="0"
             height="468.57144"
             width="980"
             id="rect4878" /></flowRegion><flowPara
           id="flowPara4880" /></flowRoot>      <g
         transform="matrix(6.216359,0,0,6.216359,-202.17599,-959.48957)"
         id="g4923">
        <path
           inkscape:connector-curvature="0"
           id="path4898"
           style="font-style:italic;font-variant:normal;font-weight:bold;font-stretch:normal;font-size:74.66666412px;line-height:15.64999962;font-family:'Let\'s go Digital';-inkscape-font-specification:'Let\'s go Digital, Bold Italic';font-variant-ligatures:normal;font-variant-caps:normal;font-variant-numeric:normal;font-feature-settings:normal;text-align:center;letter-spacing:0px;word-spacing:0px;writing-mode:lr-tb;text-anchor:middle;fill:#c80000;fill-opacity:1;stroke:none;stroke-width:0.26458332"
           d="m 37.495158,166.44535 -0.251434,2.89149 -2.029436,1.8678 0.44899,-5.22624 0.772263,-0.70043 z m 6.12422,-0.46695 -0.44899,5.22624 -1.70616,-1.8678 0.251433,-2.89149 1.275133,-1.16738 z"
           sodipodi:nodetypes="cccccccccccc" />
        <path
           inkscape:connector-curvature="0"
           id="path4900"
           style="font-style:italic;font-variant:normal;font-weight:bold;font-stretch:normal;font-size:74.66666412px;line-height:15.64999962;font-family:'Let\'s go Digital';-inkscape-font-specification:'Let\'s go Digital, Bold Italic';font-variant-ligatures:normal;font-variant-caps:normal;font-variant-numeric:normal;font-feature-settings:normal;text-align:center;letter-spacing:0px;word-spacing:0px;writing-mode:lr-tb;text-anchor:middle;fill:#c80000;fill-opacity:1;stroke:none;stroke-width:0.26458332"
           d="m 47.511981,171.20464 -0.8441,-0.9339 1.005736,-0.9339 h 3.861314 l 1.70616,1.8678 z m 6.824646,-12.57172 -2.029433,1.88576 h -3.861313 l -0.844101,-0.95186 1.005737,-0.9339 z m -6.501373,4.7593 -1.27513,1.18533 -0.628587,-0.71838 0.251434,-2.99926 1.023697,-0.9339 0.844102,0.9339 z m -2.352707,5.58543 0.844101,0.9339 1.023696,-0.9339 0.215517,-2.5323 -1.059617,-1.16738 -0.772263,0.70043 z" />
        <path
           inkscape:connector-curvature="0"
           id="path4902"
           style="font-style:italic;font-variant:normal;font-weight:bold;font-stretch:normal;font-size:74.66666412px;line-height:15.64999962;font-family:'Let\'s go Digital';-inkscape-font-specification:'Let\'s go Digital, Bold Italic';font-variant-ligatures:normal;font-variant-caps:normal;font-variant-numeric:normal;font-feature-settings:normal;text-align:center;letter-spacing:0px;word-spacing:0px;writing-mode:lr-tb;text-anchor:middle;fill:#c80000;fill-opacity:1;stroke:none;stroke-width:0.26458332"
           d="m 64.40733,158.63292 -2.029433,1.88576 h -3.861313 l -1.706163,-1.88576 z m -6.770766,7.81243 -0.215517,2.5323 -2.029433,1.8678 0.41307,-4.86705 0.772263,-0.70043 z m -1.634324,-2.58618 0.41307,-4.86705 1.706163,1.86779 -0.215516,2.53231 -1.27513,1.18533 z m 5.962587,0.12571 0.86206,0.9339 -1.023697,0.9339 h -3.98703 l -0.844103,-0.9339 1.00574,-0.9339 z" />
      </g>
      <g
         id="flowRoot4925"
         style="font-style:italic;font-variant:normal;font-weight:bold;font-stretch:normal;font-size:16px;line-height:1.25;font-variant-ligatures:normal;font-variant-caps:normal;font-variant-numeric:normal;font-feature-settings:normal;text-align:start;letter-spacing:0px;word-spacing:0px;writing-mode:lr-tb;text-anchor:start;fill:#000000;fill-opacity:1;stroke:none"
         transform="matrix(1.3579242,0,0,1.3579242,-85.51557,-760.31196)"
         aria-label="ark community fund">
        <path
           style="fill:#000000"
           inkscape:connector-curvature="0"
           id="path4933"
           d="m 79.325916,641.42287 -1.643636,1.52727 h -2.850909 l -1.381818,-1.52727 z m -5.207273,6.32727 -0.203636,2.34182 -1.643636,1.51273 0.363636,-4.23273 0.625455,-0.56727 z m -1.323636,-2.09454 0.334546,-3.94182 1.381818,1.51273 -0.174546,2.0509 -1.032727,0.96 z m 6.283636,1.71636 -0.363636,4.23273 -1.381818,-1.51273 0.203636,-2.34182 1.032728,-0.94545 z m -1.323636,-2.09455 0.174546,-2.0509 1.643636,-1.51273 -0.334546,3.94182 -0.625454,0.58181 z m -0.130909,0.48 0.698182,0.75637 -0.829091,0.75636 h -3.229091 l -0.683636,-0.75636 0.814545,-0.75637 z" />
        <path
           style="fill:#000000"
           inkscape:connector-curvature="0"
           id="path4935"
           d="m 82.871257,648.6956 0.101818,-1.07637 h 1.090909 l 2.661819,2.89455 -0.101819,1.09091 h -1.090909 z m -0.596364,-0.94546 -0.203636,2.34182 -1.643636,1.51273 0.363636,-4.23273 0.625455,-0.56727 z m -1.323636,-2.09454 0.334546,-3.94182 1.381818,1.51273 -0.174546,2.0509 -1.032727,0.96 z m 4.829091,0.10181 0.698182,0.75637 -0.829091,0.75636 h -3.229091 l -0.683636,-0.75636 0.814545,-0.75637 z m 1.614545,-0.10181 -0.625454,0.58181 -0.858182,-0.96 0.174546,-2.0509 0.82909,-0.75637 0.683637,0.75637 z m -0.727272,-3.47637 -0.829091,0.77091 h -2.850909 l -1.381818,-1.52727 h 4.363636 z" />
        <path
           style="fill:#000000"
           inkscape:connector-curvature="0"
           id="path4937"
           d="m 90.431143,647.75014 -0.203636,2.34182 -1.643636,1.51273 0.363636,-4.23273 0.625455,-0.56727 z m -1.323636,-2.09454 0.363636,-4.23273 1.381819,1.52727 -0.203637,2.32727 -1.032727,0.96 z m 6.283636,1.71636 -0.363636,4.23273 -1.381818,-1.51273 0.203636,-2.34182 1.032728,-0.94545 z m -1.454545,-1.61455 0.698182,0.75637 -0.829091,0.75636 h -3.229091 l -0.683636,-0.75636 0.814545,-0.75637 z m 0.276364,-4.33454 h 1.076363 l -0.08727,1.09091 -3.098182,2.83636 h -1.076364 l 0.08727,-1.09091 z" />
        <path
           style="fill:#000000"
           inkscape:connector-curvature="0"
           id="path4939"
           d="m 102.32501,651.60469 -0.68364,-0.75637 0.81455,-0.75636 h 3.12727 l 1.38182,1.51273 z m 5.52727,-10.18182 -1.64364,1.52727 h -3.12727 l -0.68364,-0.77091 0.81455,-0.75636 z m -5.26545,3.85454 -1.03273,0.96 -0.50909,-0.58181 0.20363,-2.42909 0.82909,-0.75637 0.68364,0.75637 z m -1.90546,4.52364 0.68364,0.75636 0.82909,-0.75636 0.17454,-2.05091 -0.85818,-0.94545 -0.62545,0.56727 z" />
        <path
           style="fill:#000000"
           inkscape:connector-curvature="0"
           id="path4941"
           d="m 115.64489,645.6556 -0.62545,0.58181 -0.85818,-0.96 0.17454,-2.0509 0.82909,-0.75637 0.68364,0.75637 z m -0.72727,-3.47637 -0.82909,0.77091 h -2.85091 l -0.68364,-0.77091 0.81455,-0.75636 h 2.85091 z m 0.36364,7.62182 -0.82909,0.75636 -0.68364,-0.75636 0.17455,-2.05091 1.03272,-0.94545 0.50909,0.56727 z m -4.53818,-4.52364 -1.03273,0.96 -0.50909,-0.58181 0.20363,-2.42909 0.82909,-0.75637 0.68364,0.75637 z m -1.90546,4.52364 0.68364,0.75636 0.82909,-0.75636 0.17454,-2.05091 -0.85818,-0.94545 -0.62545,0.56727 z m 1.64364,1.80364 -0.68364,-0.75637 0.81455,-0.75636 h 2.85091 l 0.69818,0.75636 -0.82909,0.75637 z" />
        <path
           style="fill:#000000"
           inkscape:connector-curvature="0"
           id="path4943"
           d="m 123.88842,641.42287 -1.64364,1.52727 h -2.85091 l -1.38182,-1.52727 z m -5.20728,6.32727 -0.20363,2.34182 -1.64364,1.51273 0.36364,-4.23273 0.62545,-0.56727 z m -1.32363,-2.09454 0.33454,-3.94182 1.38182,1.51273 -0.17454,2.0509 -1.03273,0.96 z m 6.28363,1.71636 -0.36363,4.23273 -1.38182,-1.51273 0.20364,-2.34182 1.03272,-0.94545 z m -1.32363,-2.09455 0.17454,-2.0509 1.64364,-1.51273 -0.33455,3.94182 -0.62545,0.58181 z m -2.31273,-1.22181 0.84364,-0.75637 0.68363,0.75637 -0.26182,2.98181 -0.81454,0.77091 -0.71273,-0.77091 z" />
        <path
           style="fill:#000000"
           inkscape:connector-curvature="0"
           id="path4945"
           d="m 132.04467,641.42287 -1.64364,1.52727 h -2.85091 l -1.38182,-1.52727 z m -5.20728,6.32727 -0.20363,2.34182 -1.64364,1.51273 0.36364,-4.23273 0.62545,-0.56727 z m -1.32363,-2.09454 0.33454,-3.94182 1.38182,1.51273 -0.17454,2.0509 -1.03273,0.96 z m 6.28363,1.71636 -0.36363,4.23273 -1.38182,-1.51273 0.20364,-2.34182 1.03272,-0.94545 z m -1.32363,-2.09455 0.17454,-2.0509 1.64364,-1.51273 -0.33455,3.94182 -0.62545,0.58181 z m -2.31273,-1.22181 0.84364,-0.75637 0.68363,0.75637 -0.26182,2.98181 -0.81454,0.77091 -0.71273,-0.77091 z" />
        <path
           style="fill:#000000"
           inkscape:connector-curvature="0"
           id="path4947"
           d="m 139.75001,649.80105 -0.82909,0.75636 -0.68364,-0.75636 0.17455,-2.05091 1.03272,-0.94545 0.50909,0.56727 z m -6.44364,0 0.68364,0.75636 0.82909,-0.75636 0.17454,-2.05091 -0.85818,-0.94545 -0.62545,0.56727 z m 1.64364,1.80364 -0.68364,-0.75637 0.81455,-0.75636 h 2.85091 l 0.69818,0.75636 -0.82909,0.75637 z m 5.16363,-5.94909 -0.62545,0.58181 -0.85818,-0.96 0.20363,-2.32727 1.64364,-1.52727 z m -6.08,-4.23273 1.38182,1.52727 -0.20363,2.32727 -1.03273,0.96 -0.50909,-0.58181 z" />
        <path
           style="fill:#000000"
           inkscape:connector-curvature="0"
           id="path4949"
           d="m 143.14989,647.75014 -0.20363,2.34182 -1.64364,1.51273 0.36364,-4.23273 0.62545,-0.56727 z m -1.32363,-2.09454 0.36363,-4.23273 1.38182,1.52727 -0.20363,2.32727 -1.03273,0.96 z m 6.28363,1.71636 -0.36363,4.23273 -1.38182,-1.51273 0.20364,-2.34182 1.03272,-0.94545 z m -1.32363,-2.09455 0.20363,-2.32727 1.64364,-1.52727 -0.36364,4.23273 -0.62545,0.58181 z m -4.18909,-3.85454 h 2.21091 l 1.78909,2.08 -0.10182,1.09091 h -1.07637 z" />
        <path
           style="fill:#000000"
           inkscape:connector-curvature="0"
           id="path4951"
           d="m 152.01887,647.37196 -0.36364,4.23273 -1.38181,-1.51273 0.20363,-2.34182 1.03273,-0.94545 z m -1.32364,-2.09455 0.20364,-2.32727 1.64364,-1.52727 -0.36364,4.23273 -0.62545,0.58181 z" />
        <path
           style="fill:#000000"
           inkscape:connector-curvature="0"
           id="path4953"
           d="m 158.06501,650.90651 -0.81455,0.75636 -0.69818,-0.75636 0.27636,-3.15637 1.03273,-0.94545 0.50909,0.56727 z m 0.46545,-5.25091 -0.62545,0.58181 -0.85818,-0.96 0.10181,-1.16363 0.82909,-0.75637 0.68364,0.75637 z m 3.11273,-3.47637 -0.84364,0.77091 h -5.6 l -0.68363,-0.77091 0.81454,-0.75636 h 5.6 z" />
        <path
           style="fill:#000000"
           inkscape:connector-curvature="0"
           id="path4955"
           d="m 169.14489,645.6556 -0.62545,0.58181 -0.85818,-0.96 0.20363,-2.32727 1.64364,-1.52727 z m -6.44363,0 0.50909,0.58181 1.03273,-0.96 0.20363,-2.32727 -1.38182,-1.52727 z m 0.8,5.94909 -0.68364,-0.75637 0.81455,-0.75636 h 3.33091 l 0.69818,0.75636 -0.82909,0.75637 z m 5.28,-1.80364 -0.82909,0.75636 -0.68364,-0.75636 0.17455,-2.05091 1.03272,-0.94545 0.50909,0.56727 z m -1.25091,-4.04364 0.69818,0.75637 -0.82909,0.75636 h -3.22909 l -0.68364,-0.75636 0.81455,-0.75637 z" />
        <path
           style="fill:#000000"
           inkscape:connector-curvature="0"
           id="path4957"
           d="m 181.44603,641.42287 -1.64364,1.52727 h -3.12727 l -1.38182,-1.52727 z m -5.48364,6.32727 -0.17454,2.05091 -1.64364,1.51273 0.33455,-3.94182 0.62545,-0.56727 z m -1.32363,-2.09454 0.33454,-3.94182 1.38182,1.51273 -0.17454,2.0509 -1.03273,0.96 z m 4.82909,0.10181 0.69818,0.75637 -0.82909,0.75636 h -3.22909 l -0.68364,-0.75636 0.81455,-0.75637 z" />
        <path
           style="fill:#000000"
           inkscape:connector-curvature="0"
           id="path4959"
           d="m 188.87501,649.80105 -0.82909,0.75636 -0.68364,-0.75636 0.17455,-2.05091 1.03272,-0.94545 0.50909,0.56727 z m -6.44364,0 0.68364,0.75636 0.82909,-0.75636 0.17454,-2.05091 -0.85818,-0.94545 -0.62545,0.56727 z m 1.64364,1.80364 -0.68364,-0.75637 0.81455,-0.75636 h 2.85091 l 0.69818,0.75636 -0.82909,0.75637 z m 5.16363,-5.94909 -0.62545,0.58181 -0.85818,-0.96 0.20363,-2.32727 1.64364,-1.52727 z m -6.08,-4.23273 1.38182,1.52727 -0.20363,2.32727 -1.03273,0.96 -0.50909,-0.58181 z" />
        <path
           style="fill:#000000"
           inkscape:connector-curvature="0"
           id="path4961"
           d="m 192.27489,647.75014 -0.20363,2.34182 -1.64364,1.51273 0.36364,-4.23273 0.62545,-0.56727 z m -1.32363,-2.09454 0.36363,-4.23273 1.38182,1.52727 -0.20363,2.32727 -1.03273,0.96 z m 6.28363,1.71636 -0.36363,4.23273 -1.38182,-1.51273 0.20364,-2.34182 1.03272,-0.94545 z m -1.32363,-2.09455 0.20363,-2.32727 1.64364,-1.52727 -0.36364,4.23273 -0.62545,0.58181 z m -4.18909,-3.85454 h 2.21091 l 1.78909,2.08 -0.10182,1.09091 h -1.07637 z" />
        <path
           style="fill:#000000"
           inkscape:connector-curvature="0"
           id="path4963"
           d="m 200.43114,647.75014 -0.17454,2.05091 -1.64364,1.51273 0.33455,-3.94182 0.62545,-0.56727 z m -1.32363,-2.09454 0.33454,-3.94182 1.38182,1.51273 -0.17454,2.0509 -1.03273,0.96 z m -0.23273,5.94909 1.64364,-1.51273 h 2.85091 l 0.69818,0.75636 -0.82909,0.75637 z m 6.67636,-5.94909 -0.62545,0.58181 -0.85818,-0.96 0.17454,-2.0509 0.82909,-0.75637 0.68364,0.75637 z m -0.72727,-3.47637 -0.82909,0.77091 h -2.85091 l -1.38182,-1.52727 h 4.36364 z m 0.36364,7.62182 -0.82909,0.75636 -0.68364,-0.75636 0.17455,-2.05091 1.03272,-0.94545 0.50909,0.56727 z" />
      </g>
    </g>
  </g>
</svg>
