<?xml version="1.0" encoding="UTF-8"?>
<svg width="274px" height="222px" viewBox="0 0 274 222" version="1.1" xmlns="http://www.w3.org/2000/svg" xmlns:xlink="http://www.w3.org/1999/xlink">
    <!-- Generator: Sketch 45.2 (43514) - http://www.bohemiancoding.com/sketch -->
    <title>Combined Shape</title>
    <desc>Created with Sketch.</desc>
    <defs></defs>
    <g id="Page-1" stroke="none" stroke-width="1" fill="none" fill-rule="evenodd">
        <g id="Group-3-Copy" fill="#FF0000">
            <g id="Group-2-Copy-2">
                <path d="M207.047598,113.507786 L237.813724,118.962324 L237.813724,118.962324 C242.074571,119.717731 245.366125,123.128007 245.970146,127.412936 L254.952653,191.134957 L274,222 L183.024217,203.939832 L136.497872,212 L90.6902461,203.996516 L0,222 L19.0536701,191.12471 L28.9549112,127.270594 C29.6083743,123.056344 32.8625366,119.720217 37.0592312,118.962145 L37.0592312,118.962145 L66.9144858,113.569227 L137,0 L207.047598,113.507786 Z M165.382088,106.120893 L137,60 L108.676611,106.025506 L136.497872,101 L165.382088,106.120893 Z M72.4574234,132 L68.1149175,132 C66.544738,132 65.1708515,132.380272 63.9932169,133.140828 C62.8155823,133.901384 61.6134316,135.385672 60.3867289,137.593736 L36.2453399,184.828416 C35.9999993,185.319097 35.9386651,185.723903 36.0613354,186.042845 C36.1840056,186.361788 36.5642778,186.521257 37.2021632,186.521257 L46.7703967,186.521257 C47.5554864,186.521257 48.1197612,186.202319 48.463238,185.564434 L55.5417619,173.069802 L86.1346059,173.069802 L93.3603335,185.564434 C93.6547421,186.202319 94.2190169,186.521257 95.0531748,186.521257 L104.400603,186.521257 C104.98942,186.521257 105.345159,186.361788 105.467829,186.042845 C105.590499,185.723903 105.529165,185.319097 105.283824,184.828416 L80.92163,137.593736 C79.6949272,135.385672 78.4437092,133.901384 77.1679384,133.140828 C75.8921675,132.380272 74.3220116,132 72.4574234,132 Z M163.100102,132 L129.905693,132 C126.176516,132 123.011671,132.355738 120.411061,133.067226 C117.810451,133.778714 115.688287,134.907263 114.044506,136.452909 C112.400724,137.998554 111.198573,139.99805 110.438018,142.451455 C109.677462,144.90486 109.29719,147.89797 109.29719,151.430874 L109.29719,167.090383 C109.29719,170.623287 109.677462,173.628663 110.438018,176.106603 C111.198573,178.584543 112.400724,180.596305 114.044506,182.14195 C115.688287,183.687596 117.810451,184.803878 120.411061,185.490832 C123.011671,186.177785 126.176516,186.521257 129.905693,186.521257 L163.100102,186.521257 C164.179601,186.521257 164.719342,185.981516 164.719342,184.902018 L164.719342,177.689042 C164.719342,176.609543 164.179601,176.069802 163.100102,176.069802 L130.347303,176.069802 C128.433647,176.069802 126.851224,175.910333 125.599988,175.59139 C124.348751,175.272448 123.355136,174.732707 122.619115,173.972151 C121.883093,173.211595 121.355619,172.18118 121.036676,170.880875 C120.717733,169.580571 120.558264,167.94908 120.558264,165.986356 L120.558264,152.534901 C120.558264,150.572177 120.717733,148.952953 121.036676,147.677183 C121.355619,146.401412 121.883093,145.383264 122.619115,144.622708 C123.355136,143.862152 124.348751,143.322411 125.599988,143.003468 C126.851224,142.684526 128.433647,142.525057 130.347303,142.525057 L163.100102,142.525057 C164.179601,142.525057 164.719342,141.960782 164.719342,140.832216 L164.719342,133.61924 C164.719342,132.539741 164.179601,132 163.100102,132 Z M228.307159,132 L195.922369,132 C192.193192,132 189.028347,132.355738 186.427737,133.067226 C183.827127,133.778714 181.704963,134.907263 180.061182,136.452909 C178.4174,137.998554 177.215249,139.99805 176.454694,142.451455 C175.694138,144.90486 175.313866,147.89797 175.313866,151.430874 L175.313866,184.902018 C175.313866,185.981516 175.87814,186.521257 177.006707,186.521257 L184.955701,186.521257 C186.035199,186.521257 186.57494,185.981516 186.57494,184.902018 L186.57494,165.765551 L227.93915,165.765551 C229.018648,165.765551 229.558389,165.22581 229.558389,164.146311 L229.558389,158.331769 C229.558389,157.252271 229.018648,156.71253 227.93915,156.71253 L186.57494,156.71253 L186.57494,152.240494 C186.57494,150.326838 186.734409,148.719881 187.053352,147.419576 C187.372295,146.119271 187.899769,145.088856 188.635791,144.328301 C189.371812,143.567745 190.365427,143.028004 191.616663,142.709061 C192.8679,142.390119 194.450323,142.23065 196.363979,142.23065 L228.307159,142.23065 C229.435725,142.23065 230,141.690909 230,140.61141 L230,133.61924 C230,132.539741 229.435725,132 228.307159,132 Z M58.178675,164.531994 L69.734157,142.966668 C69.9304294,142.623191 70.2003,142.451455 70.5437767,142.451455 L70.9853875,142.451455 C71.3288643,142.451455 71.5987348,142.623191 71.7950073,142.966668 L83.4976928,164.531994 L58.178675,164.531994 Z" id="Combined-Shape"></path>
            </g>
        </g>
    </g>
</svg>