<?xml version="1.0" encoding="UTF-8"?>
<svg width="274px" height="222px" viewBox="0 0 274 222" version="1.1" xmlns="http://www.w3.org/2000/svg" xmlns:xlink="http://www.w3.org/1999/xlink">
    <!-- Generator: Sketch 45.2 (43514) - http://www.bohemiancoding.com/sketch -->
    <title>Combined Shape Copy 3</title>
    <desc>Created with Sketch.</desc>
    <defs></defs>
    <g id="Page-1" stroke="none" stroke-width="1" fill="none" fill-rule="evenodd">
        <g id="Group-3-Copy" transform="translate(-191.000000, -241.000000)" fill="#FFFFFF">
            <g id="Group-2-Copy-2">
                <path d="M398.047598,354.507786 L428.813724,359.962324 L428.813724,359.962324 C433.074571,360.717731 436.366125,364.128007 436.970146,368.412936 L445.952653,432.134957 L465,463 L374.024217,444.939832 L327.497872,453 L281.690246,444.996516 L191,463 L210.05367,432.12471 L219.954911,368.270594 C220.608374,364.056344 223.862537,360.720217 228.059231,359.962145 L228.059231,359.962145 L257.914486,354.569227 L328,241 L398.047598,354.507786 Z M356.382088,347.120893 L328,301 L299.676611,347.025506 L327.497872,342 L356.382088,347.120893 Z M263.457423,373 L259.114917,373 C257.544738,373 256.170852,373.380272 254.993217,374.140828 C253.815582,374.901384 252.613432,376.385672 251.386729,378.593736 L227.24534,425.828416 C226.999999,426.319097 226.938665,426.723903 227.061335,427.042845 C227.184006,427.361788 227.564278,427.521257 228.202163,427.521257 L237.770397,427.521257 C238.555486,427.521257 239.119761,427.202319 239.463238,426.564434 L246.541762,414.069802 L277.134606,414.069802 L284.360333,426.564434 C284.654742,427.202319 285.219017,427.521257 286.053175,427.521257 L295.400603,427.521257 C295.98942,427.521257 296.345159,427.361788 296.467829,427.042845 C296.590499,426.723903 296.529165,426.319097 296.283824,425.828416 L271.92163,378.593736 C270.694927,376.385672 269.443709,374.901384 268.167938,374.140828 C266.892168,373.380272 265.322012,373 263.457423,373 Z M354.100102,373 L320.905693,373 C317.176516,373 314.011671,373.355738 311.411061,374.067226 C308.810451,374.778714 306.688287,375.907263 305.044506,377.452909 C303.400724,378.998554 302.198573,380.99805 301.438018,383.451455 C300.677462,385.90486 300.29719,388.89797 300.29719,392.430874 L300.29719,408.090383 C300.29719,411.623287 300.677462,414.628663 301.438018,417.106603 C302.198573,419.584543 303.400724,421.596305 305.044506,423.14195 C306.688287,424.687596 308.810451,425.803878 311.411061,426.490832 C314.011671,427.177785 317.176516,427.521257 320.905693,427.521257 L354.100102,427.521257 C355.179601,427.521257 355.719342,426.981516 355.719342,425.902018 L355.719342,418.689042 C355.719342,417.609543 355.179601,417.069802 354.100102,417.069802 L321.347303,417.069802 C319.433647,417.069802 317.851224,416.910333 316.599988,416.59139 C315.348751,416.272448 314.355136,415.732707 313.619115,414.972151 C312.883093,414.211595 312.355619,413.18118 312.036676,411.880875 C311.717733,410.580571 311.558264,408.94908 311.558264,406.986356 L311.558264,393.534901 C311.558264,391.572177 311.717733,389.952953 312.036676,388.677183 C312.355619,387.401412 312.883093,386.383264 313.619115,385.622708 C314.355136,384.862152 315.348751,384.322411 316.599988,384.003468 C317.851224,383.684526 319.433647,383.525057 321.347303,383.525057 L354.100102,383.525057 C355.179601,383.525057 355.719342,382.960782 355.719342,381.832216 L355.719342,374.61924 C355.719342,373.539741 355.179601,373 354.100102,373 Z M419.307159,373 L386.922369,373 C383.193192,373 380.028347,373.355738 377.427737,374.067226 C374.827127,374.778714 372.704963,375.907263 371.061182,377.452909 C369.4174,378.998554 368.215249,380.99805 367.454694,383.451455 C366.694138,385.90486 366.313866,388.89797 366.313866,392.430874 L366.313866,425.902018 C366.313866,426.981516 366.87814,427.521257 368.006707,427.521257 L375.955701,427.521257 C377.035199,427.521257 377.57494,426.981516 377.57494,425.902018 L377.57494,406.765551 L418.93915,406.765551 C420.018648,406.765551 420.558389,406.22581 420.558389,405.146311 L420.558389,399.331769 C420.558389,398.252271 420.018648,397.71253 418.93915,397.71253 L377.57494,397.71253 L377.57494,393.240494 C377.57494,391.326838 377.734409,389.719881 378.053352,388.419576 C378.372295,387.119271 378.899769,386.088856 379.635791,385.328301 C380.371812,384.567745 381.365427,384.028004 382.616663,383.709061 C383.8679,383.390119 385.450323,383.23065 387.363979,383.23065 L419.307159,383.23065 C420.435725,383.23065 421,382.690909 421,381.61141 L421,374.61924 C421,373.539741 420.435725,373 419.307159,373 Z M249.178675,405.531994 L260.734157,383.966668 C260.930429,383.623191 261.2003,383.451455 261.543777,383.451455 L261.985388,383.451455 C262.328864,383.451455 262.598735,383.623191 262.795007,383.966668 L274.497693,405.531994 L249.178675,405.531994 Z" id="Combined-Shape-Copy-3"></path>
            </g>
        </g>
    </g>
</svg>