<?xml version="1.0" encoding="UTF-8"?>
<svg width="283px" height="259px" viewBox="0 0 283 259" version="1.1" xmlns="http://www.w3.org/2000/svg" xmlns:xlink="http://www.w3.org/1999/xlink">
    <!-- Generator: Sketch 45.2 (43514) - http://www.bohemiancoding.com/sketch -->
    <title>Group 4 Copy 2</title>
    <desc>Created with Sketch.</desc>
    <defs></defs>
    <g id="Page-1" stroke="none" stroke-width="1" fill="none" fill-rule="evenodd">
        <g id="Group-4-Copy-2">
            <g id="Group-3-Copy-3" transform="translate(5.000000, 0.000000)">
                <g id="Group-2-Copy-2">
                    <path d="M207.047598,113.507786 L237.813724,118.962324 L237.813724,118.962324 C242.074571,119.717731 245.366125,123.128007 245.970146,127.412936 L254.952653,191.134957 L274,222 L183.024217,203.939832 L136.497872,212 L90.6902461,203.996516 L0,222 L19.0536701,191.12471 L28.9549112,127.270594 C29.6083743,123.056344 32.8625366,119.720217 37.0592312,118.962145 L37.0592312,118.962145 L66.9144858,113.569227 L137,0 L207.047598,113.507786 Z M165.382088,106.120893 L137,60 L108.676611,106.025506 L136.497872,101 L165.382088,106.120893 Z M72.4574234,132 L68.1149175,132 C66.544738,132 65.1708515,132.380272 63.9932169,133.140828 C62.8155823,133.901384 61.6134316,135.385672 60.3867289,137.593736 L36.2453399,184.828416 C35.9999993,185.319097 35.9386651,185.723903 36.0613354,186.042845 C36.1840056,186.361788 36.5642778,186.521257 37.2021632,186.521257 L46.7703967,186.521257 C47.5554864,186.521257 48.1197612,186.202319 48.463238,185.564434 L55.5417619,173.069802 L86.1346059,173.069802 L93.3603335,185.564434 C93.6547421,186.202319 94.2190169,186.521257 95.0531748,186.521257 L104.400603,186.521257 C104.98942,186.521257 105.345159,186.361788 105.467829,186.042845 C105.590499,185.723903 105.529165,185.319097 105.283824,184.828416 L80.92163,137.593736 C79.6949272,135.385672 78.4437092,133.901384 77.1679384,133.140828 C75.8921675,132.380272 74.3220116,132 72.4574234,132 Z M58.178675,164.531994 L69.734157,142.966668 C69.9304294,142.623191 70.2003,142.451455 70.5437767,142.451455 L70.9853875,142.451455 C71.3288643,142.451455 71.5987348,142.623191 71.7950073,142.966668 L83.4976928,164.531994 L58.178675,164.531994 Z M163.100102,132 L129.905693,132 C126.176516,132 123.011671,132.355738 120.411061,133.067226 C117.810451,133.778714 115.688287,134.907263 114.044506,136.452909 C112.400724,137.998554 111.198573,139.99805 110.438018,142.451455 C109.677462,144.90486 109.29719,147.89797 109.29719,151.430874 L109.29719,167.090383 C109.29719,170.623287 109.677462,173.628663 110.438018,176.106603 C111.198573,178.584543 112.400724,180.596305 114.044506,182.14195 C115.688287,183.687596 117.810451,184.803878 120.411061,185.490832 C123.011671,186.177785 126.176516,186.521257 129.905693,186.521257 L163.100102,186.521257 C164.179601,186.521257 164.719342,185.981516 164.719342,184.902018 L164.719342,177.689042 C164.719342,176.609543 164.179601,176.069802 163.100102,176.069802 L130.347303,176.069802 C128.433647,176.069802 126.851224,175.910333 125.599988,175.59139 C124.348751,175.272448 123.355136,174.732707 122.619115,173.972151 C121.883093,173.211595 121.355619,172.18118 121.036676,170.880875 C120.717733,169.580571 120.558264,167.94908 120.558264,165.986356 L120.558264,152.534901 C120.558264,150.572177 120.717733,148.952953 121.036676,147.677183 C121.355619,146.401412 121.883093,145.383264 122.619115,144.622708 C123.355136,143.862152 124.348751,143.322411 125.599988,143.003468 C126.851224,142.684526 128.433647,142.525057 130.347303,142.525057 L163.100102,142.525057 C164.179601,142.525057 164.719342,141.960782 164.719342,140.832216 L164.719342,133.61924 C164.719342,132.539741 164.179601,132 163.100102,132 Z M228.307159,132 L195.922369,132 C192.193192,132 189.028347,132.355738 186.427737,133.067226 C183.827127,133.778714 181.704963,134.907263 180.061182,136.452909 C178.4174,137.998554 177.215249,139.99805 176.454694,142.451455 C175.694138,144.90486 175.313866,147.89797 175.313866,151.430874 L175.313866,184.902018 C175.313866,185.981516 175.87814,186.521257 177.006707,186.521257 L184.955701,186.521257 C186.035199,186.521257 186.57494,185.981516 186.57494,184.902018 L186.57494,165.765551 L227.93915,165.765551 C229.018648,165.765551 229.558389,165.22581 229.558389,164.146311 L229.558389,158.331769 C229.558389,157.252271 229.018648,156.71253 227.93915,156.71253 L186.57494,156.71253 L186.57494,152.240494 C186.57494,150.326838 186.734409,148.719881 187.053352,147.419576 C187.372295,146.119271 187.899769,145.088856 188.635791,144.328301 C189.371812,143.567745 190.365427,143.028004 191.616663,142.709061 C192.8679,142.390119 194.450323,142.23065 196.363979,142.23065 L228.307159,142.23065 C229.435725,142.23065 230,141.690909 230,140.61141 L230,133.61924 C230,132.539741 229.435725,132 228.307159,132 Z" id="Combined-Shape" fill="#393939"></path>
                    <g id="Rectangle-6" transform="translate(36.000000, 132.000000)"></g>
                </g>
            </g>
            <path d="M12.875,258 L11.75,254.725 L5.27499999,254.725 L4.14999999,258 L0.0249999866,258 L6.79999999,240.5 L10.225,240.5 L16.975,258 L12.875,258 Z M6.22499999,251.925 L10.8,251.925 L8.49999999,245.225 L6.22499999,251.925 Z M33.175,255.075 C33.175,256.525 33.25,257.25 33.675,258 L29.85,258 C29.45,257.25 29.35,256.525 29.35,255.075 L29.35,253.9 C29.35,252.525 28.425,251.65 26.925,251.65 L22.75,251.65 L22.75,258 L18.925,258 L18.925,240.5 L26.475,240.5 C31.05,240.5 33,242.8 33,245.775 C33,247.975 31.825,249.15 30.575,249.925 C32.5,250.825 33.175,252 33.175,253.775 L33.175,255.075 Z M26.325,248.65 C28.35,248.65 29.05,247.8 29.05,246.125 C29.05,244.55 28.1,243.8 26.4,243.8 L22.75,243.8 L22.75,248.65 L26.325,248.65 Z M44.175,248.375 L50.9,240.5 L46.525,240.5 L39.575,248.625 L39.575,240.5 L35.75,240.5 L35.75,258 L39.575,258 L39.575,253.775 L42.025,250.9 L42.025,251.1 L47.35,258 L51.575,258 L44.175,248.375 Z M68.025,254.925 C65.35,254.925 63.875,252.725 63.875,249.25 C63.875,245.75 65.35,243.575 68.025,243.575 C69.9,243.575 70.75,244.375 71.4,246.075 L75.175,246.075 C74.75,242.175 71.575,240.275 67.95,240.275 C63.15,240.275 59.875,243.45 59.875,249.25 C59.875,255.05 63.15,258.225 67.95,258.225 C71.6,258.225 74.8,256.325 75.225,252.4 L71.425,252.4 C70.8,254.125 69.925,254.925 68.025,254.925 Z M85.325,240.275 C90.35,240.275 93.625,243.575 93.625,249.25 C93.625,254.875 90.35,258.225 85.325,258.225 C80.3,258.225 77,254.875 77,249.25 C77,243.575 80.3,240.275 85.325,240.275 Z M85.325,254.925 C88.075,254.925 89.625,252.75 89.625,249.25 C89.625,245.725 88.075,243.575 85.325,243.575 C82.55,243.575 81,245.725 81,249.25 C81,252.75 82.55,254.925 85.325,254.925 Z M95.95,240.5 L95.95,258 L99.775,258 L99.775,246.925 L99.9,246.925 L103.85,258 L106.65,258 L110.625,246.925 L110.75,246.925 L110.75,258 L114.575,258 L114.575,240.5 L110.15,240.5 L105.25,252.925 L100.375,240.5 L95.95,240.5 Z M117.4,240.5 L117.4,258 L121.225,258 L121.225,246.925 L121.35,246.925 L125.3,258 L128.1,258 L132.075,246.925 L132.2,246.925 L132.2,258 L136.025,258 L136.025,240.5 L131.6,240.5 L126.7,252.925 L121.825,240.5 L117.4,240.5 Z M153.15,251.225 L153.15,240.5 L149.325,240.5 L149.325,251.075 C149.325,253.675 148.075,254.925 145.95,254.925 C143.825,254.925 142.55,253.675 142.55,251.075 L142.55,240.5 L138.725,240.5 L138.725,251.225 C138.725,255.725 141.65,258.225 145.95,258.225 C150.2,258.225 153.15,255.725 153.15,251.225 Z M170.625,240.5 L166.8,240.5 L166.8,251.875 L166.725,251.875 L159.725,240.5 L155.85,240.5 L155.85,258 L159.675,258 L159.675,246.85 L159.75,246.85 L166.6,258 L170.625,258 L170.625,240.5 Z M177.275,258 L177.275,240.5 L173.45,240.5 L173.45,258 L177.275,258 Z M193.125,240.5 L179.225,240.5 L179.225,243.8 L184.275,243.8 L184.275,258 L188.1,258 L188.1,243.8 L193.125,243.8 L193.125,240.5 Z M204.05,251.575 L210.35,240.5 L206.05,240.5 L202.075,247.9 L198.125,240.5 L193.825,240.5 L200.125,251.575 L200.125,258 L204.05,258 L204.05,251.575 Z M230.65,243.8 L230.65,240.5 L219.075,240.5 L219.075,258 L222.9,258 L222.9,250.9 L229.3,250.9 L229.3,247.825 L222.9,247.825 L222.9,243.8 L230.65,243.8 Z M247.225,251.225 L247.225,240.5 L243.4,240.5 L243.4,251.075 C243.4,253.675 242.15,254.925 240.025,254.925 C237.9,254.925 236.625,253.675 236.625,251.075 L236.625,240.5 L232.8,240.5 L232.8,251.225 C232.8,255.725 235.725,258.225 240.025,258.225 C244.275,258.225 247.225,255.725 247.225,251.225 Z M264.7,240.5 L260.875,240.5 L260.875,251.875 L260.8,251.875 L253.8,240.5 L249.925,240.5 L249.925,258 L253.75,258 L253.75,246.85 L253.825,246.85 L260.675,258 L264.7,258 L264.7,240.5 Z M274.175,240.5 C279.775,240.5 282.625,243.625 282.625,249.25 C282.625,254.875 279.775,258 274.175,258 L267.525,258 L267.525,240.5 L274.175,240.5 Z M273.825,254.7 C277.525,254.7 278.8,253.1 278.8,249.25 C278.8,245.4 277.525,243.8 273.825,243.8 L271.35,243.8 L271.35,254.7 L273.825,254.7 Z" id="Ark-Community-Fund-Copy-3" fill="#393939"></path>
        </g>
    </g>
</svg>