<?xml version="1.0" encoding="UTF-8"?>
<svg width="283px" height="259px" viewBox="0 0 283 259" version="1.1" xmlns="http://www.w3.org/2000/svg" xmlns:xlink="http://www.w3.org/1999/xlink">
    <!-- Generator: Sketch 45.2 (43514) - http://www.bohemiancoding.com/sketch -->
    <title>Group 3</title>
    <desc>Created with Sketch.</desc>
    <defs>
        <path d="M36.4574234,0 C38.3220116,0 39.8921675,0.380272143 41.1679384,1.14082784 C42.4437092,1.90138353 43.6949272,3.38567157 44.92163,5.59373649 L69.2838244,52.8284158 C69.5291649,53.3190969 69.5904991,53.7239027 69.4678289,54.0428454 C69.3451586,54.3617881 68.9894201,54.5212571 68.4006028,54.5212571 L59.0531748,54.5212571 C58.2190169,54.5212571 57.6547421,54.2023192 57.3603335,53.5644338 L50.1346059,41.0698021 L19.5417619,41.0698021 L12.463238,53.5644338 C12.1197612,54.2023192 11.5554864,54.5212571 10.7703967,54.5212571 L1.20216321,54.5212571 C0.564277791,54.5212571 0.184005648,54.3617881 0.0613353751,54.0428454 C-0.061334898,53.7239027 -6.8149727e-07,53.3190969 0.245339865,52.8284158 L24.3867289,5.59373649 C25.6134316,3.38567157 26.8155823,1.90138353 27.9932169,1.14082784 C29.1708515,0.380272143 30.544738,0 32.1149175,0 L36.4574234,0 Z M22.178675,32.5319938 L47.4976928,32.5319938 L35.7950073,10.9666676 C35.5987348,10.6231908 35.3288643,10.451455 34.9853875,10.451455 L34.5437767,10.451455 C34.2003,10.451455 33.9304294,10.6231908 33.734157,10.9666676 L22.178675,32.5319938 Z M127.100102,0 C128.179601,0 128.719342,0.539741106 128.719342,1.61923951 L128.719342,8.8322155 C128.719342,9.96078202 128.179601,10.5250568 127.100102,10.5250568 L94.3473033,10.5250568 C92.4336471,10.5250568 90.8512243,10.6845258 89.5999875,11.0034685 C88.3487507,11.3224112 87.3551364,11.8621523 86.6191148,12.622708 C85.8830931,13.3832637 85.3556189,14.4014117 85.0366762,15.6771825 C84.7177335,16.9529534 84.5582645,18.5721767 84.5582645,20.534901 L84.5582645,33.9863561 C84.5582645,35.9490804 84.7177335,37.5805706 85.0366762,38.8808755 C85.3556189,40.1811804 85.8830931,41.2115952 86.6191148,41.9721509 C87.3551364,42.7327066 88.3487507,43.2724477 89.5999875,43.5913904 C90.8512243,43.9103331 92.4336471,44.0698021 94.3473033,44.0698021 L127.100102,44.0698021 C128.179601,44.0698021 128.719342,44.6095432 128.719342,45.6890416 L128.719342,52.9020176 C128.719342,53.981516 128.179601,54.5212571 127.100102,54.5212571 L93.9056926,54.5212571 C90.1765163,54.5212571 87.0116707,54.1777855 84.4110609,53.490832 C81.8104511,52.8038784 79.6882872,51.6875957 78.0445056,50.1419502 C76.4007239,48.5963048 75.1985733,46.5845425 74.4380176,44.106603 C73.6774619,41.6286635 73.2971897,38.6232869 73.2971897,35.090383 L73.2971897,19.4308741 C73.2971897,15.8979702 73.6774619,12.9048605 74.4380176,10.451455 C75.1985733,7.99804955 76.4007239,5.99855409 78.0445056,4.45290865 C79.6882872,2.90726321 81.8104511,1.77871362 84.4110609,1.06722604 C87.0116707,0.355738456 90.1765163,0 93.9056926,0 L127.100102,0 Z M192.307159,0 C193.435725,0 194,0.539741106 194,1.61923951 L194,8.61141012 C194,9.69090852 193.435725,10.2306496 192.307159,10.2306496 L160.363979,10.2306496 C158.450323,10.2306496 156.8679,10.3901186 155.616663,10.7090613 C154.365427,11.028004 153.371812,11.5677451 152.635791,12.3283008 C151.899769,13.0888565 151.372295,14.1192713 151.053352,15.4195762 C150.734409,16.7198811 150.57494,18.3268376 150.57494,20.2404939 L150.57494,24.7125298 L191.93915,24.7125298 C193.018648,24.7125298 193.558389,25.2522709 193.558389,26.3317693 L193.558389,32.1463112 C193.558389,33.2258096 193.018648,33.7655507 191.93915,33.7655507 L150.57494,33.7655507 L150.57494,52.9020176 C150.57494,53.981516 150.035199,54.5212571 148.955701,54.5212571 L141.006707,54.5212571 C139.87814,54.5212571 139.313866,53.981516 139.313866,52.9020176 L139.313866,19.4308741 C139.313866,15.8979702 139.694138,12.9048605 140.454694,10.451455 C141.215249,7.99804955 142.4174,5.99855409 144.061182,4.45290865 C145.704963,2.90726321 147.827127,1.77871362 150.427737,1.06722604 C153.028347,0.355738456 156.193192,0 159.922369,0 L192.307159,0 Z" id="path-1"></path>
    </defs>
    <g id="Page-1" stroke="none" stroke-width="1" fill="none" fill-rule="evenodd">
        <g id="Group-3">
            <g id="Group-2-Copy-2" transform="translate(5.000000, 0.000000)">
                <path d="M207.047598,113.507786 L237.813724,118.962324 L237.813724,118.962324 C242.074571,119.717731 245.366125,123.128007 245.970146,127.412936 L254.952653,191.134957 L274,222 L183.024217,203.939832 L136.497872,212 L90.6902461,203.996516 L0,222 L19.0536701,191.12471 L28.9549112,127.270594 C29.6083743,123.056344 32.8625366,119.720217 37.0592312,118.962145 L37.0592312,118.962145 L66.9144858,113.569227 L137,0 L207.047598,113.507786 Z M165.382088,106.120893 L137,60 L108.676611,106.025506 L136.497872,101 L165.382088,106.120893 Z" id="Combined-Shape" fill="#D90000"></path>
                <path d="M137,0 L207.047598,113.507786 L237.813724,118.962324 L237.813724,118.962324 C242.074571,119.717731 245.366125,123.128007 245.970146,127.412936 L254.952653,191.134957 L274,222 L183.024217,203.939832 L137,211.913012 L137,101.089022 L165.382088,106.120893 L137,60 L137,5.32907052e-15 Z" id="Combined-Shape" fill="#FF0000"></path>
                <path d="M72.4574234,132 C74.3220116,132 75.8921675,132.380272 77.1679384,133.140828 C78.4437092,133.901384 79.6949272,135.385672 80.92163,137.593736 L105.283824,184.828416 C105.529165,185.319097 105.590499,185.723903 105.467829,186.042845 C105.345159,186.361788 104.98942,186.521257 104.400603,186.521257 L95.0531748,186.521257 C94.2190169,186.521257 93.6547421,186.202319 93.3603335,185.564434 L86.1346059,173.069802 L55.5417619,173.069802 L48.463238,185.564434 C48.1197612,186.202319 47.5554864,186.521257 46.7703967,186.521257 L37.2021632,186.521257 C36.5642778,186.521257 36.1840056,186.361788 36.0613354,186.042845 C35.9386651,185.723903 35.9999993,185.319097 36.2453399,184.828416 L60.3867289,137.593736 C61.6134316,135.385672 62.8155823,133.901384 63.9932169,133.140828 C65.1708515,132.380272 66.544738,132 68.1149175,132 L72.4574234,132 Z M58.178675,164.531994 L83.4976928,164.531994 L71.7950073,142.966668 C71.5987348,142.623191 71.3288643,142.451455 70.9853875,142.451455 L70.5437767,142.451455 C70.2003,142.451455 69.9304294,142.623191 69.734157,142.966668 L58.178675,164.531994 Z M163.100102,132 C164.179601,132 164.719342,132.539741 164.719342,133.61924 L164.719342,140.832216 C164.719342,141.960782 164.179601,142.525057 163.100102,142.525057 L130.347303,142.525057 C128.433647,142.525057 126.851224,142.684526 125.599988,143.003468 C124.348751,143.322411 123.355136,143.862152 122.619115,144.622708 C121.883093,145.383264 121.355619,146.401412 121.036676,147.677183 C120.717733,148.952953 120.558264,150.572177 120.558264,152.534901 L120.558264,165.986356 C120.558264,167.94908 120.717733,169.580571 121.036676,170.880875 C121.355619,172.18118 121.883093,173.211595 122.619115,173.972151 C123.355136,174.732707 124.348751,175.272448 125.599988,175.59139 C126.851224,175.910333 128.433647,176.069802 130.347303,176.069802 L163.100102,176.069802 C164.179601,176.069802 164.719342,176.609543 164.719342,177.689042 L164.719342,184.902018 C164.719342,185.981516 164.179601,186.521257 163.100102,186.521257 L129.905693,186.521257 C126.176516,186.521257 123.011671,186.177785 120.411061,185.490832 C117.810451,184.803878 115.688287,183.687596 114.044506,182.14195 C112.400724,180.596305 111.198573,178.584543 110.438018,176.106603 C109.677462,173.628663 109.29719,170.623287 109.29719,167.090383 L109.29719,151.430874 C109.29719,147.89797 109.677462,144.90486 110.438018,142.451455 C111.198573,139.99805 112.400724,137.998554 114.044506,136.452909 C115.688287,134.907263 117.810451,133.778714 120.411061,133.067226 C123.011671,132.355738 126.176516,132 129.905693,132 L163.100102,132 Z M228.307159,132 C229.435725,132 230,132.539741 230,133.61924 L230,140.61141 C230,141.690909 229.435725,142.23065 228.307159,142.23065 L196.363979,142.23065 C194.450323,142.23065 192.8679,142.390119 191.616663,142.709061 C190.365427,143.028004 189.371812,143.567745 188.635791,144.328301 C187.899769,145.088856 187.372295,146.119271 187.053352,147.419576 C186.734409,148.719881 186.57494,150.326838 186.57494,152.240494 L186.57494,156.71253 L227.93915,156.71253 C229.018648,156.71253 229.558389,157.252271 229.558389,158.331769 L229.558389,164.146311 C229.558389,165.22581 229.018648,165.765551 227.93915,165.765551 L186.57494,165.765551 L186.57494,184.902018 C186.57494,185.981516 186.035199,186.521257 184.955701,186.521257 L177.006707,186.521257 C175.87814,186.521257 175.313866,185.981516 175.313866,184.902018 L175.313866,151.430874 C175.313866,147.89797 175.694138,144.90486 176.454694,142.451455 C177.215249,139.99805 178.4174,137.998554 180.061182,136.452909 C181.704963,134.907263 183.827127,133.778714 186.427737,133.067226 C189.028347,132.355738 192.193192,132 195.922369,132 L228.307159,132 Z" id="ACF-Copy" fill="#FFFFFF"></path>
                <g id="Rectangle-6" transform="translate(36.000000, 132.000000)">
                    <mask id="mask-2" fill="white">
                        <use xlink:href="#path-1"></use>
                    </mask>
                    <use id="Mask" fill="#FFFFFF" xlink:href="#path-1"></use>
                    <rect fill="#DEDEDE" mask="url(#mask-2)" x="-4" y="-14" width="105" height="77"></rect>
                </g>
            </g>
            <path d="M12.85,258.004999 L11.725,254.729999 L5.25,254.729999 L4.125,258.004999 L0,258.004999 L6.775,240.504999 L10.2,240.504999 L16.95,258.004999 L12.85,258.004999 Z M6.2,251.929999 L10.775,251.929999 L8.475,245.229999 L6.2,251.929999 Z M33.15,255.079999 C33.15,256.529999 33.225,257.254999 33.65,258.004999 L29.825,258.004999 C29.425,257.254999 29.325,256.529999 29.325,255.079999 L29.325,253.904999 C29.325,252.529999 28.4,251.654999 26.9,251.654999 L22.725,251.654999 L22.725,258.004999 L18.9,258.004999 L18.9,240.504999 L26.45,240.504999 C31.025,240.504999 32.975,242.804999 32.975,245.779999 C32.975,247.979999 31.8,249.154999 30.55,249.929999 C32.475,250.829999 33.15,252.004999 33.15,253.779999 L33.15,255.079999 Z M26.3,248.654999 C28.325,248.654999 29.025,247.804999 29.025,246.129999 C29.025,244.554999 28.075,243.804999 26.375,243.804999 L22.725,243.804999 L22.725,248.654999 L26.3,248.654999 Z M44.15,248.379999 L50.875,240.504999 L46.5,240.504999 L39.55,248.629999 L39.55,240.504999 L35.725,240.504999 L35.725,258.004999 L39.55,258.004999 L39.55,253.779999 L42,250.904999 L42,251.104999 L47.325,258.004999 L51.55,258.004999 L44.15,248.379999 Z M68,254.929999 C65.325,254.929999 63.85,252.729999 63.85,249.254999 C63.85,245.754999 65.325,243.579999 68,243.579999 C69.875,243.579999 70.725,244.379999 71.375,246.079999 L75.15,246.079999 C74.725,242.179999 71.55,240.279999 67.925,240.279999 C63.125,240.279999 59.85,243.454999 59.85,249.254999 C59.85,255.054999 63.125,258.229999 67.925,258.229999 C71.575,258.229999 74.775,256.329999 75.2,252.404999 L71.4,252.404999 C70.775,254.129999 69.9,254.929999 68,254.929999 Z M85.3,240.279999 C90.325,240.279999 93.6,243.579999 93.6,249.254999 C93.6,254.879999 90.325,258.229999 85.3,258.229999 C80.275,258.229999 76.975,254.879999 76.975,249.254999 C76.975,243.579999 80.275,240.279999 85.3,240.279999 Z M85.3,254.929999 C88.05,254.929999 89.6,252.754999 89.6,249.254999 C89.6,245.729999 88.05,243.579999 85.3,243.579999 C82.525,243.579999 80.975,245.729999 80.975,249.254999 C80.975,252.754999 82.525,254.929999 85.3,254.929999 Z M95.925,240.504999 L95.925,258.004999 L99.75,258.004999 L99.75,246.929999 L99.875,246.929999 L103.825,258.004999 L106.625,258.004999 L110.6,246.929999 L110.725,246.929999 L110.725,258.004999 L114.55,258.004999 L114.55,240.504999 L110.125,240.504999 L105.225,252.929999 L100.35,240.504999 L95.925,240.504999 Z M117.375,240.504999 L117.375,258.004999 L121.2,258.004999 L121.2,246.929999 L121.325,246.929999 L125.275,258.004999 L128.075,258.004999 L132.05,246.929999 L132.175,246.929999 L132.175,258.004999 L136,258.004999 L136,240.504999 L131.575,240.504999 L126.675,252.929999 L121.8,240.504999 L117.375,240.504999 Z M153.125,251.229999 L153.125,240.504999 L149.3,240.504999 L149.3,251.079999 C149.3,253.679999 148.05,254.929999 145.925,254.929999 C143.8,254.929999 142.525,253.679999 142.525,251.079999 L142.525,240.504999 L138.7,240.504999 L138.7,251.229999 C138.7,255.729999 141.625,258.229999 145.925,258.229999 C150.175,258.229999 153.125,255.729999 153.125,251.229999 Z M170.6,240.504999 L166.775,240.504999 L166.775,251.879999 L166.7,251.879999 L159.7,240.504999 L155.825,240.504999 L155.825,258.004999 L159.65,258.004999 L159.65,246.854999 L159.725,246.854999 L166.575,258.004999 L170.6,258.004999 L170.6,240.504999 Z M177.25,258.004999 L177.25,240.504999 L173.425,240.504999 L173.425,258.004999 L177.25,258.004999 Z M193.1,240.504999 L179.2,240.504999 L179.2,243.804999 L184.25,243.804999 L184.25,258.004999 L188.075,258.004999 L188.075,243.804999 L193.1,243.804999 L193.1,240.504999 Z M204.025,251.579999 L210.325,240.504999 L206.025,240.504999 L202.05,247.904999 L198.1,240.504999 L193.8,240.504999 L200.1,251.579999 L200.1,258.004999 L204.025,258.004999 L204.025,251.579999 Z M230.625,243.804999 L230.625,240.504999 L219.05,240.504999 L219.05,258.004999 L222.875,258.004999 L222.875,250.904999 L229.275,250.904999 L229.275,247.829999 L222.875,247.829999 L222.875,243.804999 L230.625,243.804999 Z M247.2,251.229999 L247.2,240.504999 L243.375,240.504999 L243.375,251.079999 C243.375,253.679999 242.125,254.929999 240,254.929999 C237.875,254.929999 236.6,253.679999 236.6,251.079999 L236.6,240.504999 L232.775,240.504999 L232.775,251.229999 C232.775,255.729999 235.7,258.229999 240,258.229999 C244.25,258.229999 247.2,255.729999 247.2,251.229999 Z M264.675,240.504999 L260.85,240.504999 L260.85,251.879999 L260.775,251.879999 L253.775,240.504999 L249.9,240.504999 L249.9,258.004999 L253.725,258.004999 L253.725,246.854999 L253.8,246.854999 L260.65,258.004999 L264.675,258.004999 L264.675,240.504999 Z M274.15,240.504999 C279.75,240.504999 282.6,243.629999 282.6,249.254999 C282.6,254.879999 279.75,258.004999 274.15,258.004999 L267.5,258.004999 L267.5,240.504999 L274.15,240.504999 Z M273.8,254.704999 C277.5,254.704999 278.775,253.104999 278.775,249.254999 C278.775,245.404999 277.5,243.804999 273.8,243.804999 L271.325,243.804999 L271.325,254.704999 L273.8,254.704999 Z" id="Ark-Community-Fund-Copy-4" fill="#FF0000"></path>
        </g>
    </g>
</svg>