<?xml version="1.0" encoding="UTF-8"?>
<svg width="283px" height="19px" viewBox="0 0 283 19" version="1.1" xmlns="http://www.w3.org/2000/svg" xmlns:xlink="http://www.w3.org/1999/xlink">
    <!-- Generator: Sketch 45.2 (43514) - http://www.bohemiancoding.com/sketch -->
    <title>Ark Community Fund Copy</title>
    <desc>Created with Sketch.</desc>
    <defs></defs>
    <g id="Page-1" stroke="none" stroke-width="1" fill="none" fill-rule="evenodd">
        <g id="Group-4" transform="translate(0.000000, -240.000000)" fill="#FF0000">
            <path d="M12.875,258 L11.75,254.725 L5.27499999,254.725 L4.14999999,258 L0.0249999866,258 L6.79999999,240.5 L10.225,240.5 L16.975,258 L12.875,258 Z M6.22499999,251.925 L10.8,251.925 L8.49999999,245.225 L6.22499999,251.925 Z M33.175,255.075 C33.175,256.525 33.25,257.25 33.675,258 L29.85,258 C29.45,257.25 29.35,256.525 29.35,255.075 L29.35,253.9 C29.35,252.525 28.425,251.65 26.925,251.65 L22.75,251.65 L22.75,258 L18.925,258 L18.925,240.5 L26.475,240.5 C31.05,240.5 33,242.8 33,245.775 C33,247.975 31.825,249.15 30.575,249.925 C32.5,250.825 33.175,252 33.175,253.775 L33.175,255.075 Z M26.325,248.65 C28.35,248.65 29.05,247.8 29.05,246.125 C29.05,244.55 28.1,243.8 26.4,243.8 L22.75,243.8 L22.75,248.65 L26.325,248.65 Z M44.175,248.375 L50.9,240.5 L46.525,240.5 L39.575,248.625 L39.575,240.5 L35.75,240.5 L35.75,258 L39.575,258 L39.575,253.775 L42.025,250.9 L42.025,251.1 L47.35,258 L51.575,258 L44.175,248.375 Z M68.025,254.925 C65.35,254.925 63.875,252.725 63.875,249.25 C63.875,245.75 65.35,243.575 68.025,243.575 C69.9,243.575 70.75,244.375 71.4,246.075 L75.175,246.075 C74.75,242.175 71.575,240.275 67.95,240.275 C63.15,240.275 59.875,243.45 59.875,249.25 C59.875,255.05 63.15,258.225 67.95,258.225 C71.6,258.225 74.8,256.325 75.225,252.4 L71.425,252.4 C70.8,254.125 69.925,254.925 68.025,254.925 Z M85.325,240.275 C90.35,240.275 93.625,243.575 93.625,249.25 C93.625,254.875 90.35,258.225 85.325,258.225 C80.3,258.225 77,254.875 77,249.25 C77,243.575 80.3,240.275 85.325,240.275 Z M85.325,254.925 C88.075,254.925 89.625,252.75 89.625,249.25 C89.625,245.725 88.075,243.575 85.325,243.575 C82.55,243.575 81,245.725 81,249.25 C81,252.75 82.55,254.925 85.325,254.925 Z M95.95,240.5 L95.95,258 L99.775,258 L99.775,246.925 L99.9,246.925 L103.85,258 L106.65,258 L110.625,246.925 L110.75,246.925 L110.75,258 L114.575,258 L114.575,240.5 L110.15,240.5 L105.25,252.925 L100.375,240.5 L95.95,240.5 Z M117.4,240.5 L117.4,258 L121.225,258 L121.225,246.925 L121.35,246.925 L125.3,258 L128.1,258 L132.075,246.925 L132.2,246.925 L132.2,258 L136.025,258 L136.025,240.5 L131.6,240.5 L126.7,252.925 L121.825,240.5 L117.4,240.5 Z M153.15,251.225 L153.15,240.5 L149.325,240.5 L149.325,251.075 C149.325,253.675 148.075,254.925 145.95,254.925 C143.825,254.925 142.55,253.675 142.55,251.075 L142.55,240.5 L138.725,240.5 L138.725,251.225 C138.725,255.725 141.65,258.225 145.95,258.225 C150.2,258.225 153.15,255.725 153.15,251.225 Z M170.625,240.5 L166.8,240.5 L166.8,251.875 L166.725,251.875 L159.725,240.5 L155.85,240.5 L155.85,258 L159.675,258 L159.675,246.85 L159.75,246.85 L166.6,258 L170.625,258 L170.625,240.5 Z M177.275,258 L177.275,240.5 L173.45,240.5 L173.45,258 L177.275,258 Z M193.125,240.5 L179.225,240.5 L179.225,243.8 L184.275,243.8 L184.275,258 L188.1,258 L188.1,243.8 L193.125,243.8 L193.125,240.5 Z M204.05,251.575 L210.35,240.5 L206.05,240.5 L202.075,247.9 L198.125,240.5 L193.825,240.5 L200.125,251.575 L200.125,258 L204.05,258 L204.05,251.575 Z M230.65,243.8 L230.65,240.5 L219.075,240.5 L219.075,258 L222.9,258 L222.9,250.9 L229.3,250.9 L229.3,247.825 L222.9,247.825 L222.9,243.8 L230.65,243.8 Z M247.225,251.225 L247.225,240.5 L243.4,240.5 L243.4,251.075 C243.4,253.675 242.15,254.925 240.025,254.925 C237.9,254.925 236.625,253.675 236.625,251.075 L236.625,240.5 L232.8,240.5 L232.8,251.225 C232.8,255.725 235.725,258.225 240.025,258.225 C244.275,258.225 247.225,255.725 247.225,251.225 Z M264.7,240.5 L260.875,240.5 L260.875,251.875 L260.8,251.875 L253.8,240.5 L249.925,240.5 L249.925,258 L253.75,258 L253.75,246.85 L253.825,246.85 L260.675,258 L264.7,258 L264.7,240.5 Z M274.175,240.5 C279.775,240.5 282.625,243.625 282.625,249.25 C282.625,254.875 279.775,258 274.175,258 L267.525,258 L267.525,240.5 L274.175,240.5 Z M273.825,254.7 C277.525,254.7 278.8,253.1 278.8,249.25 C278.8,245.4 277.525,243.8 273.825,243.8 L271.35,243.8 L271.35,254.7 L273.825,254.7 Z" id="Ark-Community-Fund-Copy"></path>
        </g>
    </g>
</svg>