<?xml version="1.0" encoding="utf-8"?>
<!-- Generator: Adobe Illustrator 20.1.0, SVG Export Plug-In . SVG Version: 6.00 Build 0)  -->
<svg version="1.1" id="Layer_1" xmlns="http://www.w3.org/2000/svg" xmlns:xlink="http://www.w3.org/1999/xlink" x="0px" y="0px"
	 viewBox="0 0 960 560" style="enable-background:new 0 0 960 560;" xml:space="preserve">
<style type="text/css">
	.st0{fill:#C1272D;}
	.st1{fill:#ED1C24;}
	.st2{fill:#006837;}
	.st3{fill:#009245;}
	.st4{fill:#1A1A1A;}
</style>
<g>
	<polygon class="st0" points="343,164.4 578.4,399.9 343,40.1 	"/>
	<polygon class="st1" points="343,164.4 107.5,399.9 343,40.1 	"/>
	<g>
		<polygon class="st2" points="620.7,164.4 856.2,399.9 620.7,40.1 		"/>
		<polygon class="st3" points="620.7,164.4 385.3,399.9 620.7,40.1 		"/>
	</g>
	<polygon class="st0" points="343,164.4 578.4,399.9 343,40.1 	"/>
	<polygon class="st1" points="343,164.4 107.5,399.9 343,40.1 	"/>
	<polygon class="st2" points="343,164.4 578.4,399.9 343,40.1 	"/>
	<polygon class="st3" points="343,164.4 107.5,399.9 343,40.1 	"/>
	<g>
		<path class="st2" d="M80.2,480.5l-3.8,13.7H64L80.2,441H96l16.5,53.2H99.6l-4.1-13.7H80.2z M93.7,471.5l-3.3-11.3
			c-0.9-3.2-1.9-7.1-2.7-10.3h-0.2c-0.8,3.2-1.6,7.2-2.4,10.3L82,471.5H93.7z"/>
		<path class="st2" d="M119.6,441.7c3.9-0.6,9.6-1.1,16-1.1c7.9,0,13.4,1.2,17.2,4.2c3.2,2.5,4.9,6.2,4.9,11.1
			c0,6.8-4.8,11.4-9.4,13.1v0.2c3.7,1.5,5.8,5.1,7.1,9.9c1.7,6,3.3,12.9,4.3,15h-12.3c-0.9-1.5-2.1-5.8-3.7-12.4
			c-1.4-6.6-3.7-8.4-8.6-8.5h-3.6v20.9h-11.9V441.7z M131.5,464.6h4.7c6,0,9.5-3,9.5-7.7c0-4.9-3.3-7.3-8.8-7.4
			c-2.9,0-4.6,0.2-5.4,0.4V464.6z"/>
		<path class="st2" d="M166.4,441h11.9v23.5h0.2c1.2-2.1,2.4-3.9,3.6-5.8l12.1-17.7H209l-17.6,22.7l18.5,30.5h-14l-13-23l-4.6,5.6
			v17.4h-11.9V441z"/>
		<path class="st4" d="M269.9,492.7c-2.2,1.1-7.2,2.3-13.7,2.3c-18.4,0-27.9-11.4-27.9-26.6c0-18.2,12.9-28.3,29-28.3
			c6.2,0,11,1.3,13.1,2.4l-2.4,9.5c-2.4-1-5.8-2-10.1-2c-9.5,0-17,5.8-17,17.6c0,10.7,6.3,17.4,17,17.4c3.6,0,7.7-0.8,10-1.7
			L269.9,492.7z"/>
		<path class="st4" d="M324.1,467c0,17.4-10.6,28-26.1,28c-15.8,0-25-11.9-25-27.1c0-15.9,10.2-27.9,25.9-27.9
			C315.2,440.1,324.1,452.3,324.1,467z M285.7,467.7c0,10.4,4.9,17.8,12.9,17.8c8.1,0,12.8-7.7,12.8-18.1c0-9.5-4.6-17.8-12.9-17.8
			C290.4,449.7,285.7,457.4,285.7,467.7z"/>
		<path class="st4" d="M377,473.8c-0.2-6.4-0.5-14.1-0.5-21.9h-0.2c-1.7,6.8-3.9,14.4-5.9,20.6l-6.5,20.8h-9.4l-5.7-20.6
			c-1.7-6.2-3.6-13.8-4.8-20.8h-0.2c-0.3,7.2-0.6,15.4-0.9,22l-0.9,20.2h-11.1l3.4-53.2h16l5.2,17.8c1.7,6.2,3.3,12.8,4.5,19h0.2
			c1.5-6.2,3.3-13.2,5.1-19.1l5.7-17.7h15.7l2.9,53.2h-11.8L377,473.8z"/>
		<path class="st4" d="M443.8,473.8c-0.2-6.4-0.5-14.1-0.5-21.9H443c-1.7,6.8-3.9,14.4-5.9,20.6l-6.5,20.8h-9.4l-5.7-20.6
			c-1.7-6.2-3.6-13.8-4.8-20.8h-0.2c-0.3,7.2-0.6,15.4-0.9,22l-0.9,20.2h-11.1L401,441h16l5.2,17.8c1.7,6.2,3.3,12.8,4.5,19h0.2
			c1.5-6.2,3.3-13.2,5.1-19.1l5.7-17.7h15.7l2.9,53.2h-11.8L443.8,473.8z"/>
		<path class="st4" d="M477.5,441v30.6c0,9.2,3.5,13.8,9.6,13.8c6.3,0,9.8-4.4,9.8-13.8V441h12v29.8c0,16.4-8.3,24.2-22.2,24.2
			c-13.4,0-21.3-7.4-21.3-24.4V441H477.5z"/>
		<path class="st4" d="M519.4,494.2V441h14l11,19.5c3.2,5.6,6.3,12.2,8.7,18.2h0.2c-0.8-7-1-14.2-1-22.2V441h11v53.2h-12.6
			l-11.4-20.5c-3.2-5.7-6.6-12.5-9.2-18.8l-0.2,0.1c0.3,7,0.5,14.5,0.5,23.2v16H519.4z"/>
		<path class="st4" d="M585.9,441v53.2h-12.1V441H585.9z"/>
		<path class="st4" d="M606.6,451.1h-14.3V441h40.9v10.1h-14.5v43.1h-12.1V451.1z"/>
		<path class="st4" d="M652.4,494.2v-21.8L635.6,441h13.7l5.4,12.8c1.7,3.9,2.8,6.7,4.1,10.2h0.2c1.2-3.3,2.4-6.4,4-10.2l5.4-12.8
			h13.5l-17.5,31v22.2H652.4z"/>
		<path class="st4" d="M703.7,441h32.5v9.9h-20.4V463h19.1v9.8h-19.1v21.4h-12.1V441z"/>
		<path class="st4" d="M757.2,441v30.6c0,9.2,3.5,13.8,9.6,13.8c6.3,0,9.8-4.4,9.8-13.8V441h12v29.8c0,16.4-8.3,24.2-22.2,24.2
			c-13.4,0-21.3-7.4-21.3-24.4V441H757.2z"/>
		<path class="st4" d="M799.1,494.2V441h14l11,19.5c3.2,5.6,6.3,12.2,8.7,18.2h0.2c-0.8-7-1-14.2-1-22.2V441h11v53.2h-12.6
			l-11.4-20.5c-3.2-5.7-6.6-12.5-9.2-18.8l-0.2,0.1c0.3,7,0.5,14.5,0.5,23.2v16H799.1z"/>
		<path class="st4" d="M853.5,441.7c4.4-0.7,10.2-1.1,16.3-1.1c10.1,0,16.7,1.8,21.8,5.7c5.5,4.1,9,10.7,9,20
			c0,10.2-3.7,17.2-8.8,21.5c-5.6,4.7-14.1,6.9-24.5,6.9c-6.2,0-10.7-0.4-13.7-0.8V441.7z M865.6,485.1c1,0.2,2.7,0.2,4.2,0.2
			c10.9,0.1,18-5.9,18-18.6c0.1-11-6.4-16.9-16.7-16.9c-2.7,0-4.4,0.2-5.4,0.5V485.1z"/>
	</g>
	<polygon class="st2" points="481.1,164.4 716.6,399.9 481.1,40.1 	"/>
	<polygon class="st3" points="481.1,164.4 245.7,399.9 481.1,40.1 	"/>
</g>
<g>
</g>
<g>
</g>
<g>
</g>
<g>
</g>
<g>
</g>
</svg>
