<svg id="Layer_1" data-name="Layer 1" xmlns="http://www.w3.org/2000/svg" xmlns:xlink="http://www.w3.org/1999/xlink" viewBox="0 0 529.88483 437.06757">
  <defs>
    <style>
      .cls-1 {
        fill: none;
      }

      .cls-2 {
        fill: url(#linear-gradient);
      }

      .cls-3 {
        fill: url(#linear-gradient-2);
      }

      .cls-4 {
        fill: url(#linear-gradient-3);
      }

      .cls-5 {
        fill: url(#linear-gradient-4);
      }

      .cls-6 {
        fill: url(#linear-gradient-5);
      }

      .cls-7 {
        fill: url(#linear-gradient-6);
      }

      .cls-8 {
        fill: url(#linear-gradient-7);
      }

      .cls-9 {
        fill: url(#linear-gradient-8);
      }

      .cls-10 {
        fill: url(#linear-gradient-9);
      }

      .cls-11 {
        fill: url(#linear-gradient-10);
      }

      .cls-12 {
        fill: url(#linear-gradient-11);
      }

      .cls-13 {
        fill: url(#linear-gradient-12);
      }

      .cls-14 {
        fill: url(#linear-gradient-13);
      }

      .cls-15 {
        fill: url(#linear-gradient-14);
      }

      .cls-16 {
        fill: url(#linear-gradient-15);
      }

      .cls-17 {
        fill: url(#linear-gradient-16);
      }

      .cls-18 {
        font-size: 129.13707px;
        fill: #4d4d4d;
        font-family: MyriadPro-Bold, Myriad Pro;
        font-weight: 700;
        letter-spacing: -0.025em;
      }

      .cls-19 {
        letter-spacing: 0em;
      }
    </style>
    <linearGradient id="linear-gradient" x1="532.78386" y1="402.44799" x2="267.78386" y2="73.44799" gradientUnits="userSpaceOnUse">
      <stop offset="0" stop-color="#fff"/>
      <stop offset="0" stop-color="#666"/>
      <stop offset="0.24778" stop-color="#626262"/>
      <stop offset="0.46944" stop-color="#585858"/>
      <stop offset="0.68116" stop-color="#454545"/>
      <stop offset="0.88549" stop-color="#2c2c2c"/>
      <stop offset="1" stop-color="#1a1a1a"/>
      <stop offset="1"/>
    </linearGradient>
    <linearGradient id="linear-gradient-2" x1="526.86417" y1="407.21613" x2="261.86417" y2="78.21613" xlink:href="#linear-gradient"/>
    <linearGradient id="linear-gradient-3" x1="528.50613" y1="405.89358" x2="263.50613" y2="76.89358" xlink:href="#linear-gradient"/>
    <linearGradient id="linear-gradient-4" x1="78.81141" y1="350.9912" x2="-19.18859" y2="255.9912" gradientUnits="userSpaceOnUse">
      <stop offset="0" stop-color="#fff"/>
      <stop offset="0" stop-color="#d0d0d0"/>
      <stop offset="0" stop-color="#a2a2a2"/>
      <stop offset="0" stop-color="#818181"/>
      <stop offset="0" stop-color="#6d6d6d"/>
      <stop offset="0" stop-color="#666"/>
      <stop offset="0.16113" stop-color="#5a5a5a"/>
      <stop offset="0.45001" stop-color="#3b3b3b"/>
      <stop offset="0.51541" stop-color="#333"/>
      <stop offset="1" stop-color="#1a1a1a"/>
      <stop offset="1"/>
    </linearGradient>
    <linearGradient id="linear-gradient-5" x1="174.43665" y1="252.34622" x2="76.43665" y2="157.34622" xlink:href="#linear-gradient-4"/>
    <linearGradient id="linear-gradient-6" x1="263.40802" y1="160.56522" x2="165.40802" y2="65.56522" xlink:href="#linear-gradient-4"/>
    <linearGradient id="linear-gradient-7" x1="49.5918" y1="196.63431" x2="483.5918" y2="196.63431" gradientUnits="userSpaceOnUse">
      <stop offset="0" stop-color="#3ddeed"/>
      <stop offset="1" stop-color="blue"/>
      <stop offset="1" stop-color="#3ddeed" stop-opacity="0"/>
    </linearGradient>
    <linearGradient id="linear-gradient-8" x1="49.5918" y1="271.82492" x2="483.5918" y2="271.82492" xlink:href="#linear-gradient-7"/>
    <linearGradient id="linear-gradient-9" x1="49.5918" y1="231.30844" x2="483.5918" y2="231.30844" xlink:href="#linear-gradient-7"/>
    <linearGradient id="linear-gradient-10" x1="49.5918" y1="231.4136" x2="483.5918" y2="231.4136" xlink:href="#linear-gradient-7"/>
    <linearGradient id="linear-gradient-11" x1="528.36698" y1="406.00566" x2="263.36698" y2="77.00566" xlink:href="#linear-gradient"/>
    <linearGradient id="linear-gradient-12" x1="49.5918" y1="263.72028" x2="483.5918" y2="263.72028" xlink:href="#linear-gradient-7"/>
    <linearGradient id="linear-gradient-13" x1="526.73447" y1="407.32061" x2="261.73447" y2="78.32061" xlink:href="#linear-gradient"/>
    <linearGradient id="linear-gradient-14" x1="197.79355" y1="228.25173" x2="99.79355" y2="133.25173" xlink:href="#linear-gradient-4"/>
    <linearGradient id="linear-gradient-15" x1="141.38054" y1="286.44621" x2="43.38054" y2="191.44621" xlink:href="#linear-gradient-4"/>
    <linearGradient id="linear-gradient-16" x1="49.5918" y1="263.15112" x2="483.5918" y2="263.15112" xlink:href="#linear-gradient-7"/>
  </defs>
  <title>ACF_5</title>
  <path class="cls-1" d="M471.5918,235.6535c0-3.22607-10.22559-13.5376-56.918-22.38916q-5.56348-1.05469-11.46558-2.01971l28.27039,43.192C463.89673,246.56183,471.5918,238.44861,471.5918,235.6535Z"/>
  <path class="cls-1" d="M266.5918,201.6535c-22.57373,0-44.59192.67114-65.42377,1.96161l-58.38129,58.38123c35.65869,4.97107,78.62067,7.65717,123.80505,7.65717,43.96533,0,85.82727-2.54279,120.90405-7.2594l-58.9892-58.9892C308.7168,202.25238,287.90259,201.6535,266.5918,201.6535Z"/>
  <path class="cls-1" d="M315.84241,190.74066l-50.9-50.9-51.05957,51.05957c17.0238-.82184,34.69666-1.24677,52.70892-1.24677C283.38812,189.6535,299.88709,190.02454,315.84241,190.74066Z"/>
  <path class="cls-1" d="M118.50977,213.26434c-46.69238,8.85156-56.918,19.16309-56.918,22.38916,0,2.71191,7.2345,10.43054,37.2746,18.08L126.27,211.86591Q122.3125,212.5444,118.50977,213.26434Z"/>
  <path class="cls-2" d="M315.84241,190.74066c28.3963,1.27448,55.05341,3.65063,78.5379,7.01648L264.94244,0V139.8407Z"/>
  <path class="cls-3" d="M431.47864,254.43658l-28.27039-43.192a735.36291,735.36291,0,0,0-74.7016-7.83972l58.9892,58.9892c9.59851-1.29065,18.6922-2.743,27.178-4.35193C420.91187,256.85962,426.4798,255.65088,431.47864,254.43658Z"/>
  <path class="cls-4" d="M398.10571,273.004,529.88483,404.78308l-91.44629-139.713q-9.76529,2.52695-21.52936,4.76215C410.92444,270.9668,404.64166,272.02368,398.10571,273.004Z"/>
  <path class="cls-5" d="M91.93341,264.32581,0,404.78308,132.21442,272.56873q-8.2673-1.28412-15.93951-2.73651Q102.794,267.27661,91.93341,264.32581Z"/>
  <path class="cls-6" d="M126.27,211.86591,98.86639,253.73352c5.69519,1.45026,12.2019,2.89795,19.64337,4.30865,7.62579,1.44586,15.74457,2.76471,24.277,3.95416L201.168,203.61511A711.49647,711.49647,0,0,0,126.27,211.86591Z"/>
  <path class="cls-7" d="M264.94244,139.8407V0L135.15509,198.29108c23.41455-3.50836,50.15149-6.01117,78.72778-7.39081Z"/>
  <path class="cls-8" d="M328.50665,203.40491l-12.66425-12.66425c-15.95532-.71613-32.45428-1.08716-49.25061-1.08716-18.01227,0-35.68512.42493-52.70892,1.24677L201.168,203.61511c20.83185-1.29047,42.85-1.96161,65.42377-1.96161C287.90259,201.6535,308.7168,202.25238,328.50665,203.40491Z"/>
  <path class="cls-9" d="M398.10571,273.004,387.49585,262.3941c-35.07678,4.71661-76.93872,7.2594-120.90405,7.2594-45.18439,0-88.14636-2.6861-123.80505-7.65717l-10.57233,10.57239c37.8858,5.88458,84.85773,9.08478,134.37738,9.08478C314.87286,281.6535,360.728,278.61017,398.10571,273.004Z"/>
  <path class="cls-10" d="M61.5918,235.6535c0-3.22607,10.22559-13.5376,56.918-22.38916q3.79971-.72034,7.76019-1.39844l8.88513-13.57483c-6.56372.98352-12.87195,2.04425-18.88019,3.18323C96.437,205.235,80.77344,209.654,69.71924,214.60858c-13.54395,6.07031-20.12744,12.9541-20.12744,21.04492s6.5835,14.97461,20.12744,21.04492a153.252,153.252,0,0,0,22.21417,7.62738l6.933-10.59229C68.82629,246.084,61.5918,238.36542,61.5918,235.6535Z"/>
  <path class="cls-11" d="M414.67383,213.26434c46.69238,8.85156,56.918,19.16309,56.918,22.38916,0,2.79511-7.69507,10.90833-40.11316,18.78308l6.9599,10.63348a160.79077,160.79077,0,0,0,25.02631-8.37164c13.543-6.07031,20.127-12.9541,20.127-21.04492s-6.584-14.97461-20.127-21.04492c-11.05469-4.95459-26.71875-9.37354-46.55566-13.13428-7.113-1.34839-14.64581-2.58734-22.52887-3.71716l8.82794,13.48749Q409.10617,212.20941,414.67383,213.26434Z"/>
  <path class="cls-12" d="M414.67383,258.04218c-8.48578,1.60889-17.57947,3.06128-27.178,4.35193L398.10571,273.004c6.53595-.98029,12.81873-2.03717,18.80347-3.17175q11.76178-2.22986,21.52936-4.76215l-6.9599-10.63348C426.4798,255.65088,420.91187,256.85962,414.67383,258.04218Z"/>
  <path class="cls-13" d="M414.67383,258.04218c-8.48578,1.60889-17.57947,3.06128-27.178,4.35193L398.10571,273.004c6.53595-.98029,12.81873-2.03717,18.80347-3.17175q11.76178-2.22986,21.52936-4.76215l-6.9599-10.63348C426.4798,255.65088,420.91187,256.85962,414.67383,258.04218Z"/>
  <path class="cls-14" d="M328.50665,203.40491a735.36291,735.36291,0,0,1,74.7016,7.83972l-8.82794-13.48749c-23.4845-3.36584-50.1416-5.742-78.5379-7.01648Z"/>
  <path class="cls-15" d="M201.168,203.61511l12.71484-12.71484c-28.57629,1.37964-55.31323,3.88245-78.72778,7.39081L126.27,211.86591A711.49647,711.49647,0,0,1,201.168,203.61511Z"/>
  <path class="cls-16" d="M118.50977,258.04218c-7.44147-1.41071-13.94818-2.8584-19.64337-4.30865l-6.933,10.59229q10.85,2.94369,24.34149,5.50641,7.66013,1.45221,15.93951,2.73651l10.57233-10.57239C134.25433,260.80688,126.13556,259.488,118.50977,258.04218Z"/>
  <path class="cls-17" d="M118.50977,258.04218c-7.44147-1.41071-13.94818-2.8584-19.64337-4.30865l-6.933,10.59229q10.85,2.94369,24.34149,5.50641,7.66013,1.45221,15.93951,2.73651l10.57233-10.57239C134.25433,260.80688,126.13556,259.488,118.50977,258.04218Z"/>
  <text class="cls-18" transform="translate(150.01721 404.78308)">A<tspan class="cls-19" x="81.48486" y="0">CF</tspan></text>
</svg>
