<?xml version="1.0" encoding="UTF-8" standalone="no"?>
<!-- Generator: Adobe Illustrator 20.1.0, SVG Export Plug-In . SVG Version: 6.00 Build 0)  -->

<svg
   xmlns:dc="http://purl.org/dc/elements/1.1/"
   xmlns:cc="http://creativecommons.org/ns#"
   xmlns:rdf="http://www.w3.org/1999/02/22-rdf-syntax-ns#"
   xmlns:svg="http://www.w3.org/2000/svg"
   xmlns="http://www.w3.org/2000/svg"
   xmlns:sodipodi="http://sodipodi.sourceforge.net/DTD/sodipodi-0.dtd"
   xmlns:inkscape="http://www.inkscape.org/namespaces/inkscape"
   version="1.1"
   id="Layer_1"
   x="0px"
   y="0px"
   viewBox="0 0 960 560"
   style="enable-background:new 0 0 960 560;"
   xml:space="preserve"
   inkscape:version="0.91 r13725"
   sodipodi:docname="ACF_1_black.svg"
   inkscape:export-filename="F:\ark\acf\logo_contest\Pi\ACF_1_black.png"
   inkscape:export-xdpi="10"
   inkscape:export-ydpi="10"><metadata
     id="metadata75"><rdf:RDF><cc:Work
         rdf:about=""><dc:format>image/svg+xml</dc:format><dc:type
           rdf:resource="http://purl.org/dc/dcmitype/StillImage" /></cc:Work></rdf:RDF></metadata><defs
     id="defs73" /><sodipodi:namedview
     pagecolor="#ffffff"
     bordercolor="#666666"
     borderopacity="1"
     objecttolerance="10"
     gridtolerance="10"
     guidetolerance="10"
     inkscape:pageopacity="0"
     inkscape:pageshadow="2"
     inkscape:window-width="805"
     inkscape:window-height="480"
     id="namedview71"
     showgrid="false"
     inkscape:zoom="0.41354167"
     inkscape:cx="480"
     inkscape:cy="280"
     inkscape:window-x="0"
     inkscape:window-y="0"
     inkscape:window-maximized="0"
     inkscape:current-layer="Layer_1" /><style
     type="text/css"
     id="style3">
	.st0{fill:#C1272D;}
	.st1{fill:#4D4D4D;}
	.st2{fill:#1A1A1A;}
	.st3{fill:none;}
	.st4{fill:#666666;}
</style><g
     id="g5"><polygon
       class="st0"
       points="346.4,177 582.4,413 346.4,52.5  "
       id="polygon7" /><polygon
       class="st1"
       points="346.4,177 110.4,413 346.4,52.5  "
       id="polygon9" /><polygon
       class="st2"
       points="624.8,177 860.7,413 624.8,52.5  "
       id="polygon11" /><polygon
       class="st1"
       points="624.8,177 388.8,413 624.8,52.5  "
       id="polygon13" /><polygon
       class="st0"
       points="346.4,177 582.4,413 346.4,52.5  "
       id="polygon15" /><polygon
       class="st2"
       points="346.4,177 582.4,413 346.4,52.5  "
       id="polygon17" /><g
       id="g19"><polygon
         class="st3"
         points="346.4,177 110.4,413 346.4,52.5   "
         id="polygon21" /></g><g
       id="g23"><path
         class="st2"
         d="M80.7,493.8l-3.8,13.7H64.4l16.3-53.3h15.8l16.5,53.3h-13L96,493.8H80.7z M94.2,484.8l-3.3-11.3    c-0.9-3.2-1.9-7.1-2.7-10.3h-0.2c-0.8,3.2-1.6,7.2-2.5,10.3l-3.2,11.3H94.2z"
         id="path25" /><path
         class="st2"
         d="M120.2,454.9c3.9-0.6,9.6-1.1,16.1-1.1c7.9,0,13.4,1.2,17.2,4.2c3.2,2.5,4.9,6.2,4.9,11.2    c0,6.8-4.8,11.5-9.4,13.1v0.2c3.7,1.5,5.8,5.1,7.1,10c1.7,6,3.3,13,4.3,15h-12.3c-0.9-1.5-2.1-5.9-3.7-12.4    c-1.4-6.6-3.7-8.5-8.6-8.5h-3.6v21h-11.9V454.9z M132.1,477.8h4.7c6,0,9.6-3,9.6-7.7c0-4.9-3.3-7.4-8.9-7.4    c-2.9,0-4.6,0.2-5.5,0.4V477.8z"
         id="path27" /><path
         class="st2"
         d="M167.1,454.2H179v23.6h0.2c1.2-2.1,2.5-4,3.6-5.9l12.1-17.7h14.8l-17.6,22.7l18.6,30.6h-14.1l-13-23l-4.6,5.6    v17.4h-11.9V454.2z"
         id="path29" /><path
         class="st4"
         d="M270.8,506c-2.2,1.1-7.2,2.3-13.7,2.3c-18.4,0-27.9-11.5-27.9-26.7c0-18.2,13-28.3,29.1-28.3    c6.2,0,11,1.3,13.1,2.4l-2.5,9.6c-2.5-1-5.9-2-10.1-2c-9.6,0-17,5.8-17,17.6c0,10.7,6.3,17.4,17.1,17.4c3.6,0,7.7-0.8,10-1.7    L270.8,506z"
         id="path31" /><path
         class="st4"
         d="M325.1,480.3c0,17.5-10.6,28.1-26.2,28.1c-15.8,0-25.1-11.9-25.1-27.1c0-16,10.2-27.9,25.9-27.9    C316.2,453.3,325.1,465.6,325.1,480.3z M286.6,481c0,10.4,4.9,17.8,13,17.8c8.1,0,12.8-7.8,12.8-18.1c0-9.6-4.6-17.8-12.9-17.8    C291.3,462.9,286.6,470.6,286.6,481z"
         id="path33" /><path
         class="st4"
         d="M378.1,487.1c-0.2-6.4-0.5-14.2-0.5-21.9h-0.2c-1.7,6.8-3.9,14.4-5.9,20.6l-6.5,20.8h-9.4l-5.7-20.6    c-1.7-6.2-3.6-13.8-4.8-20.8h-0.2c-0.3,7.2-0.6,15.4-0.9,22.1l-0.9,20.2h-11.2l3.4-53.3h16.1l5.2,17.8c1.7,6.2,3.3,12.8,4.5,19.1    h0.2c1.5-6.2,3.3-13.2,5.1-19.1l5.7-17.7h15.7l2.9,53.3h-11.8L378.1,487.1z"
         id="path35" /><path
         class="st4"
         d="M445,487.1c-0.2-6.4-0.5-14.2-0.5-21.9h-0.2c-1.7,6.8-3.9,14.4-5.9,20.6l-6.5,20.8h-9.4l-5.7-20.6    c-1.7-6.2-3.6-13.8-4.8-20.8h-0.2c-0.3,7.2-0.6,15.4-0.9,22.1l-0.9,20.2h-11.2l3.4-53.3h16.1l5.2,17.8c1.7,6.2,3.3,12.8,4.5,19.1    h0.2c1.5-6.2,3.3-13.2,5.1-19.1l5.7-17.7h15.7l2.9,53.3h-11.8L445,487.1z"
         id="path37" /><path
         class="st4"
         d="M478.9,454.2v30.7c0,9.2,3.5,13.8,9.6,13.8c6.3,0,9.8-4.4,9.8-13.8v-30.7h12v29.9c0,16.4-8.3,24.3-22.2,24.3    c-13.4,0-21.4-7.4-21.4-24.4v-29.7H478.9z"
         id="path39" /><path
         class="st4"
         d="M520.8,507.5v-53.3h14.1l11.1,19.5c3.2,5.6,6.3,12.3,8.7,18.3h0.2c-0.8-7-1-14.2-1-22.2v-15.6h11.1v53.3    h-12.7l-11.4-20.6c-3.2-5.7-6.6-12.6-9.3-18.8l-0.2,0.1c0.3,7,0.5,14.6,0.5,23.3v16.1H520.8z"
         id="path41" /><path
         class="st4"
         d="M587.4,454.2v53.3h-12.1v-53.3H587.4z"
         id="path43" /><path
         class="st4"
         d="M608.2,464.3h-14.3v-10.1h41v10.1h-14.6v43.2h-12.1V464.3z"
         id="path45" /><path
         class="st4"
         d="M654.1,507.5v-21.8l-16.8-31.5H651l5.5,12.8c1.7,3.9,2.8,6.7,4.1,10.2h0.2c1.2-3.3,2.5-6.4,4-10.2l5.4-12.8    h13.5l-17.6,31.1v22.2H654.1z"
         id="path47" /><path
         class="st4"
         d="M705.4,454.2H738v9.9h-20.5v12.2h19.1v9.8h-19.1v21.4h-12.1V454.2z"
         id="path49" /><path
         class="st4"
         d="M759.1,454.2v30.7c0,9.2,3.5,13.8,9.6,13.8c6.3,0,9.8-4.4,9.8-13.8v-30.7h12v29.9c0,16.4-8.3,24.3-22.2,24.3    c-13.4,0-21.4-7.4-21.4-24.4v-29.7H759.1z"
         id="path51" /><path
         class="st4"
         d="M801.1,507.5v-53.3h14.1l11.1,19.5c3.2,5.6,6.3,12.3,8.7,18.3h0.2c-0.8-7-1-14.2-1-22.2v-15.6h11.1v53.3    h-12.7l-11.4-20.6c-3.2-5.7-6.6-12.6-9.3-18.8l-0.2,0.1c0.3,7,0.5,14.6,0.5,23.3v16.1H801.1z"
         id="path53" /><path
         class="st4"
         d="M855.6,454.9c4.4-0.7,10.2-1.1,16.3-1.1c10.1,0,16.7,1.8,21.8,5.7c5.5,4.1,9,10.7,9,20.1    c0,10.2-3.7,17.2-8.9,21.6c-5.6,4.7-14.2,6.9-24.6,6.9c-6.2,0-10.7-0.4-13.7-0.8V454.9z M867.7,498.4c1,0.2,2.7,0.2,4.2,0.2    c10.9,0.1,18-5.9,18-18.7c0.1-11.1-6.4-16.9-16.8-16.9c-2.7,0-4.4,0.2-5.5,0.5V498.4z"
         id="path55" /></g><polygon
       class="st2"
       points="485.1,177 721.1,413 485.1,52.5  "
       id="polygon57" /><polygon
       class="st1"
       points="485.1,177 249.2,413 485.1,52.5  "
       id="polygon59" /></g><g
     id="g61" /><g
     id="g63" /><g
     id="g65" /><g
     id="g67" /><g
     id="g69" /></svg>