<?xml version="1.0" encoding="utf-8"?>
<!-- Generator: Adobe Illustrator 20.1.0, SVG Export Plug-In . SVG Version: 6.00 Build 0)  -->
<svg version="1.1" id="Layer_1" xmlns="http://www.w3.org/2000/svg" xmlns:xlink="http://www.w3.org/1999/xlink" x="0px" y="0px"
	 viewBox="0 0 960 560" style="enable-background:new 0 0 960 560;" xml:space="preserve">
<style type="text/css">
	.st0{fill:#C1272D;}
	.st1{fill:#1A1A1A;}
	.st2{fill:#ED1C24;}
</style>
<g>
	<path class="st0" d="M77.5,491.3l-3.9,13.9H60.9l16.5-54.1h16.1l16.8,54.1H97.1L93,491.3H77.5z M91.2,482.2l-3.4-11.5
		c-1-3.2-1.9-7.2-2.7-10.4h-0.2c-0.8,3.2-1.6,7.3-2.5,10.4l-3.2,11.5H91.2z"/>
	<path class="st0" d="M117.5,451.8c3.9-0.6,9.8-1.1,16.3-1.1c8,0,13.7,1.2,17.5,4.3c3.2,2.6,5,6.3,5,11.3c0,6.9-4.9,11.6-9.6,13.3
		v0.2c3.8,1.5,5.9,5.1,7.2,10.1c1.7,6.1,3.4,13.2,4.4,15.3h-12.5c-0.9-1.5-2.2-5.9-3.8-12.6c-1.4-6.7-3.8-8.6-8.8-8.7h-3.7v21.3
		h-12.1V451.8z M129.7,475.1h4.8c6.1,0,9.7-3.1,9.7-7.8c0-5-3.4-7.5-9-7.5c-3,0-4.7,0.2-5.5,0.4V475.1z"/>
	<path class="st0" d="M165.2,451.1h12.1V475h0.2c1.2-2.1,2.5-4,3.7-5.9l12.3-18h15l-17.9,23.1l18.9,31.1h-14.3L182,481.9l-4.7,5.7
		v17.7h-12.1V451.1z"/>
	<path class="st1" d="M270.5,503.7c-2.2,1.1-7.3,2.3-13.9,2.3c-18.7,0-28.4-11.6-28.4-27.1c0-18.5,13.2-28.8,29.6-28.8
		c6.3,0,11.2,1.3,13.3,2.4l-2.5,9.7c-2.5-1-5.9-2-10.3-2c-9.7,0-17.3,5.9-17.3,17.9c0,10.8,6.4,17.7,17.3,17.7
		c3.7,0,7.8-0.8,10.2-1.8L270.5,503.7z"/>
	<path class="st1" d="M325.6,477.6c0,17.8-10.8,28.5-26.6,28.5c-16.1,0-25.5-12.1-25.5-27.6c0-16.2,10.4-28.4,26.3-28.4
		C316.6,450.2,325.6,462.7,325.6,477.6z M286.5,478.3c0,10.6,5,18.1,13.2,18.1c8.3,0,13-7.9,13-18.4c0-9.7-4.7-18.1-13.1-18.1
		C291.3,459.9,286.5,467.8,286.5,478.3z"/>
	<path class="st1" d="M379.5,484.5c-0.2-6.5-0.5-14.4-0.5-22.2h-0.2c-1.7,6.9-3.9,14.6-6,21l-6.6,21.1h-9.6l-5.8-21
		c-1.8-6.3-3.6-14.1-4.9-21.1h-0.2c-0.3,7.3-0.6,15.7-1,22.4l-1,20.6h-11.3l3.5-54.1h16.3l5.3,18.1c1.7,6.3,3.4,13,4.6,19.4h0.2
		c1.5-6.3,3.4-13.4,5.1-19.4l5.8-18h16l3,54.1h-12L379.5,484.5z"/>
	<path class="st1" d="M447.4,484.5c-0.2-6.5-0.5-14.4-0.5-22.2h-0.2c-1.7,6.9-3.9,14.6-6,21l-6.6,21.1h-9.6l-5.8-21
		c-1.8-6.3-3.6-14.1-4.9-21.1h-0.2c-0.3,7.3-0.6,15.7-1,22.4l-1,20.6h-11.3l3.5-54.1h16.3l5.3,18.1c1.7,6.3,3.4,13,4.6,19.4h0.2
		c1.5-6.3,3.4-13.4,5.1-19.4l5.8-18h16l3,54.1h-12L447.4,484.5z"/>
	<path class="st1" d="M481.8,451.1v31.2c0,9.3,3.5,14.1,9.8,14.1c6.4,0,10-4.5,10-14.1v-31.2h12.2v30.4c0,16.7-8.4,24.7-22.6,24.7
		c-13.7,0-21.7-7.6-21.7-24.8v-30.2H481.8z"/>
	<path class="st1" d="M524.4,505.2v-54.1h14.3l11.2,19.8c3.2,5.7,6.4,12.5,8.8,18.6h0.2c-0.8-7.1-1-14.5-1-22.6v-15.8h11.2v54.1
		h-12.9l-11.6-20.9c-3.2-5.8-6.7-12.8-9.4-19.1l-0.2,0.1c0.3,7.1,0.5,14.8,0.5,23.6v16.3H524.4z"/>
	<path class="st1" d="M592.1,451.1v54.1h-12.3v-54.1H592.1z"/>
	<path class="st1" d="M613.1,461.4h-14.5v-10.3h41.6v10.3h-14.8v43.9h-12.3V461.4z"/>
	<path class="st1" d="M659.8,505.2v-22.2l-17.1-32h14l5.5,13c1.7,3.9,2.8,6.8,4.2,10.4h0.2c1.2-3.4,2.5-6.5,4.1-10.4l5.5-13h13.7
		L672,482.7v22.6H659.8z"/>
	<path class="st1" d="M711.9,451.1H745v10h-20.8v12.4h19.4v10h-19.4v21.8h-12.3V451.1z"/>
	<path class="st1" d="M766.4,451.1v31.2c0,9.3,3.5,14.1,9.8,14.1c6.4,0,10-4.5,10-14.1v-31.2h12.2v30.4c0,16.7-8.4,24.7-22.6,24.7
		c-13.7,0-21.7-7.6-21.7-24.8v-30.2H766.4z"/>
	<path class="st1" d="M809,505.2v-54.1h14.3l11.2,19.8c3.2,5.7,6.4,12.5,8.8,18.6h0.2c-0.8-7.1-1-14.5-1-22.6v-15.8h11.2v54.1H841
		l-11.6-20.9c-3.2-5.8-6.7-12.8-9.4-19.1l-0.2,0.1c0.3,7.1,0.5,14.8,0.5,23.6v16.3H809z"/>
	<path class="st1" d="M864.4,451.8c4.5-0.7,10.4-1.1,16.5-1.1c10.3,0,16.9,1.8,22.2,5.8c5.6,4.2,9.2,10.8,9.2,20.4
		c0,10.4-3.8,17.5-9,21.9c-5.7,4.7-14.4,7-25,7c-6.3,0-10.8-0.4-13.9-0.8V451.8z M876.7,496c1,0.2,2.7,0.2,4.3,0.2
		c11.1,0.1,18.3-6,18.3-19c0.1-11.2-6.5-17.2-17-17.2c-2.7,0-4.5,0.2-5.5,0.5V496z"/>
</g>
<g>
	<polygon class="st0" points="347.3,169.6 586.9,409.3 347.3,43.2 	"/>
	<polygon class="st2" points="347.3,169.6 107.7,409.3 347.3,43.2 	"/>
	<g>
		<polygon class="st0" points="630,169.6 869.6,409.3 630,43.2 		"/>
		<polygon class="st2" points="630,169.6 390.3,409.3 630,43.2 		"/>
	</g>
	<polygon class="st0" points="347.3,169.6 586.9,409.3 347.3,43.2 	"/>
	<polygon class="st2" points="347.3,169.6 107.7,409.3 347.3,43.2 	"/>
	<polygon class="st0" points="347.3,169.6 586.9,409.3 347.3,43.2 	"/>
	<polygon class="st2" points="347.3,169.6 107.7,409.3 347.3,43.2 	"/>
	<polygon class="st0" points="487.6,169.6 727.3,409.3 487.6,43.2 	"/>
	<polygon class="st2" points="487.6,169.6 248,409.3 487.6,43.2 	"/>
</g>
<g>
</g>
<g>
</g>
<g>
</g>
<g>
</g>
<g>
</g>
</svg>
