<?xml version="1.0" encoding="utf-8"?>
<!-- Generator: Adobe Illustrator 20.1.0, SVG Export Plug-In . SVG Version: 6.00 Build 0)  -->
<svg version="1.1" id="Layer_1" xmlns="http://www.w3.org/2000/svg" xmlns:xlink="http://www.w3.org/1999/xlink" x="0px" y="0px"
	 viewBox="0 0 960 560" style="enable-background:new 0 0 960 560;" xml:space="preserve">
<style type="text/css">
	.st0{fill:#ED1C24;}
	.st1{fill:#CCCCCC;}
	.st2{fill:#E6E6E6;}
	.st3{fill:#C1272D;}
</style>
<rect width="981" height="597"/>
<g>
	<path class="st0" d="M93.8,492l-3.8,13.6H77.7l16.1-52.8h15.7l16.4,52.8H113L109,492H93.8z M107.2,483l-3.3-11.2
		c-0.9-3.1-1.9-7.1-2.7-10.2h-0.2c-0.8,3.1-1.6,7.1-2.4,10.2L95.6,483H107.2z"/>
	<path class="st1" d="M132.9,453.4c3.8-0.6,9.6-1.1,15.9-1.1c7.8,0,13.3,1.2,17.1,4.2c3.1,2.5,4.9,6.2,4.9,11.1
		c0,6.7-4.8,11.4-9.3,13v0.2c3.7,1.5,5.7,5,7.1,9.9c1.6,6,3.3,12.9,4.3,14.9h-12.2c-0.9-1.5-2.1-5.8-3.7-12.3
		c-1.4-6.6-3.7-8.4-8.5-8.5h-3.6v20.8h-11.8V453.4z M144.8,476.1h4.7c6,0,9.5-3,9.5-7.6c0-4.9-3.3-7.3-8.8-7.4
		c-2.9,0-4.5,0.2-5.4,0.4V476.1z"/>
	<path class="st1" d="M179.4,452.7h11.8V476h0.2c1.2-2,2.4-3.9,3.6-5.8l12-17.6h14.7l-17.5,22.5l18.4,30.3h-14l-12.9-22.8l-4.5,5.6
		v17.2h-11.8V452.7z"/>
	<path class="st0" d="M282.2,504c-2.2,1.1-7.1,2.3-13.6,2.3c-18.3,0-27.7-11.4-27.7-26.4c0-18,12.9-28.1,28.9-28.1
		c6.2,0,10.9,1.3,13,2.4l-2.4,9.5c-2.4-1-5.8-2-10-2c-9.5,0-16.9,5.7-16.9,17.5c0,10.6,6.3,17.2,16.9,17.2c3.6,0,7.6-0.8,10-1.7
		L282.2,504z"/>
	<path class="st2" d="M336.1,478.5c0,17.3-10.5,27.8-26,27.8c-15.7,0-24.9-11.8-24.9-26.9c0-15.8,10.1-27.7,25.7-27.7
		C327.2,451.8,336.1,464,336.1,478.5z M297.9,479.3c0,10.3,4.9,17.6,12.9,17.6c8.1,0,12.7-7.7,12.7-18c0-9.5-4.5-17.6-12.8-17.6
		C302.6,461.3,297.9,469,297.9,479.3z"/>
	<path class="st2" d="M388.6,485.3c-0.2-6.3-0.5-14-0.5-21.7h-0.2c-1.6,6.7-3.8,14.3-5.9,20.5l-6.4,20.6h-9.3l-5.6-20.5
		c-1.7-6.2-3.5-13.7-4.8-20.6h-0.2c-0.3,7.1-0.5,15.3-0.9,21.9l-0.9,20.1h-11.1l3.4-52.8H362l5.2,17.6c1.6,6.1,3.3,12.7,4.5,18.9
		h0.2c1.5-6.1,3.3-13.1,5-19l5.6-17.6h15.6l2.9,52.8h-11.7L388.6,485.3z"/>
	<path class="st2" d="M454.9,485.3c-0.2-6.3-0.5-14-0.5-21.7h-0.2c-1.6,6.7-3.8,14.3-5.9,20.5l-6.4,20.6h-9.3l-5.6-20.5
		c-1.7-6.2-3.5-13.7-4.8-20.6H422c-0.3,7.1-0.5,15.3-0.9,21.9l-0.9,20.1h-11.1l3.4-52.8h15.9l5.2,17.6c1.6,6.1,3.3,12.7,4.5,18.9
		h0.2c1.5-6.1,3.3-13.1,5-19l5.6-17.6h15.6l2.9,52.8h-11.7L454.9,485.3z"/>
	<path class="st2" d="M488.5,452.7v30.4c0,9.1,3.4,13.7,9.6,13.7c6.3,0,9.7-4.4,9.7-13.7v-30.4h11.9v29.6c0,16.3-8.2,24.1-22,24.1
		c-13.3,0-21.2-7.4-21.2-24.2v-29.5H488.5z"/>
	<path class="st2" d="M530,505.5v-52.8h14l11,19.4c3.1,5.6,6.3,12.2,8.6,18.1h0.2c-0.8-7-1-14.1-1-22v-15.4h11v52.8h-12.5L550,485.1
		c-3.1-5.6-6.6-12.5-9.2-18.7l-0.2,0.1c0.3,7,0.5,14.4,0.5,23v15.9H530z"/>
	<path class="st2" d="M596.1,452.7v52.8h-12v-52.8H596.1z"/>
	<path class="st2" d="M616.7,462.7h-14.2v-10h40.6v10h-14.4v42.8h-12V462.7z"/>
	<path class="st2" d="M662.2,505.5v-21.6l-16.7-31.2h13.6l5.4,12.7c1.6,3.8,2.7,6.7,4.1,10.1h0.2c1.2-3.3,2.4-6.4,4-10.1l5.3-12.7
		h13.4l-17.4,30.8v22H662.2z"/>
	<path class="st0" d="M713.1,452.7h32.3v9.8h-20.3v12.1h19v9.7h-19v21.2h-12V452.7z"/>
	<path class="st2" d="M766.3,452.7v30.4c0,9.1,3.5,13.7,9.6,13.7c6.3,0,9.7-4.4,9.7-13.7v-30.4h11.9v29.6c0,16.3-8.2,24.1-22,24.1
		c-13.3,0-21.2-7.4-21.2-24.2v-29.5H766.3z"/>
	<path class="st2" d="M807.9,505.5v-52.8h14l11,19.4c3.1,5.6,6.3,12.2,8.6,18.1h0.2c-0.8-7-1-14.1-1-22v-15.4h11v52.8h-12.5
		l-11.3-20.4c-3.1-5.6-6.6-12.5-9.2-18.7l-0.2,0.1c0.3,7,0.5,14.4,0.5,23v15.9H807.9z"/>
	<path class="st2" d="M862,453.4c4.4-0.7,10.1-1.1,16.2-1.1c10,0,16.5,1.8,21.6,5.6c5.5,4.1,8.9,10.6,8.9,19.9
		c0,10.1-3.7,17.1-8.8,21.4c-5.6,4.6-14,6.8-24.4,6.8c-6.2,0-10.6-0.4-13.6-0.8V453.4z M874,496.5c1,0.2,2.7,0.2,4.2,0.2
		c10.8,0.1,17.9-5.9,17.9-18.5c0.1-11-6.4-16.8-16.6-16.8c-2.7,0-4.4,0.2-5.4,0.5V496.5z"/>
</g>
<g>
	<polygon class="st3" points="357.2,177.9 591.1,411.8 357.2,54.5 	"/>
	<polygon class="st0" points="357.2,177.9 123.3,411.8 357.2,54.5 	"/>
	<g>
		<polygon class="st3" points="633.1,177.9 867,411.8 633.1,54.5 		"/>
		<polygon class="st0" points="633.1,177.9 399.2,411.8 633.1,54.5 		"/>
	</g>
	<polygon class="st3" points="357.2,177.9 591.1,411.8 357.2,54.5 	"/>
	<polygon class="st0" points="357.2,177.9 123.3,411.8 357.2,54.5 	"/>
	<polygon class="st3" points="357.2,177.9 591.1,411.8 357.2,54.5 	"/>
	<polygon class="st0" points="357.2,177.9 123.3,411.8 357.2,54.5 	"/>
	<polygon class="st3" points="494.2,177.9 728.1,411.8 494.2,54.5 	"/>
	<polygon class="st0" points="494.2,177.9 260.3,411.8 494.2,54.5 	"/>
</g>
<g>
</g>
<g>
</g>
<g>
</g>
<g>
</g>
<g>
</g>
</svg>
