<svg id="Layer_1" data-name="Layer 1" xmlns="http://www.w3.org/2000/svg" viewBox="0 0 981 597"><defs><style>.cls-1{font-size:78.4px;font-family:MyriadPro-Bold, Myriad Pro;font-weight:700;}.cls-1,.cls-7{fill:#ed1c24;}.cls-2{fill:#ccc;}.cls-3{letter-spacing:-0.03em;}.cls-4,.cls-5{fill:#e6e6e6;}.cls-5{letter-spacing:0.01em;}.cls-6{fill:#c1272d;}</style></defs><title>ACF_1_redBW1</title><rect width="981" height="597"/><text class="cls-1" transform="translate(76.34 505.52)">A<tspan class="cls-2" x="51.43" y="0">RK</tspan><tspan x="146.06" y="0"> </tspan><tspan class="cls-3" x="161.9" y="0">C</tspan><tspan class="cls-4" x="206.19" y="0">OMMUNI</tspan><tspan class="cls-5" x="524.97" y="0">T</tspan><tspan class="cls-4" x="568.48" y="0">Y </tspan><tspan x="631.59" y="0">F</tspan><tspan class="cls-4" x="672.91" y="0">UND</tspan></text><polygon class="cls-6" points="357.21 177.94 591.11 411.85 357.21 54.48 357.21 177.94"/><polygon class="cls-7" points="357.21 177.94 123.31 411.85 357.21 54.48 357.21 177.94"/><polygon class="cls-6" points="633.12 177.94 867.02 411.85 633.12 54.48 633.12 177.94"/><polygon class="cls-7" points="633.12 177.94 399.21 411.85 633.12 54.48 633.12 177.94"/><polygon class="cls-6" points="357.21 177.94 591.11 411.85 357.21 54.48 357.21 177.94"/><polygon class="cls-7" points="357.21 177.94 123.31 411.85 357.21 54.48 357.21 177.94"/><polygon class="cls-6" points="357.21 177.94 591.11 411.85 357.21 54.48 357.21 177.94"/><polygon class="cls-7" points="357.21 177.94 123.31 411.85 357.21 54.48 357.21 177.94"/><polygon class="cls-6" points="494.2 177.94 728.11 411.85 494.2 54.48 494.2 177.94"/><polygon class="cls-7" points="494.2 177.94 260.3 411.85 494.2 54.48 494.2 177.94"/></svg>