<svg id="Layer_1" data-name="Layer 1" xmlns="http://www.w3.org/2000/svg" xmlns:xlink="http://www.w3.org/1999/xlink" viewBox="0 0 533.18 471.31"><defs><style>.cls-1{fill:url(#linear-gradient);}.cls-2{fill:url(#linear-gradient-2);}.cls-3{fill:url(#White_Black);}.cls-100,.cls-101,.cls-15,.cls-17,.cls-19,.cls-21,.cls-23,.cls-25,.cls-26,.cls-28,.cls-29,.cls-31,.cls-32,.cls-34,.cls-35,.cls-37,.cls-38,.cls-39,.cls-4,.cls-41,.cls-42,.cls-43,.cls-45,.cls-46,.cls-47,.cls-49,.cls-5,.cls-50,.cls-51,.cls-52,.cls-54,.cls-55,.cls-56,.cls-57,.cls-59,.cls-6,.cls-60,.cls-61,.cls-62,.cls-63,.cls-7,.cls-70,.cls-72,.cls-75,.cls-78,.cls-8,.cls-80,.cls-81,.cls-83,.cls-84,.cls-87,.cls-88,.cls-9,.cls-90,.cls-91,.cls-92,.cls-94,.cls-95,.cls-96,.cls-98,.cls-99{opacity:0.2;}.cls-4{fill:url(#White_Black-2);}.cls-5{fill:url(#White_Black-3);}.cls-6{fill:url(#White_Black-4);}.cls-7{fill:url(#White_Black-5);}.cls-8{fill:url(#White_Black-6);}.cls-9{fill:url(#White_Black-7);}.cls-10{fill:none;}.cls-11{fill:url(#White_Black-8);}.cls-12{fill:url(#White_Black-9);}.cls-13{fill:url(#White_Black-10);}.cls-14{fill:url(#White_Black-11);}.cls-15{fill:url(#White_Black-12);}.cls-16{fill:url(#White_Black-13);}.cls-17{fill:url(#White_Black-14);}.cls-18{fill:url(#White_Black-15);}.cls-19{fill:url(#White_Black-16);}.cls-20{fill:url(#White_Black-17);}.cls-21{fill:url(#White_Black-18);}.cls-22{fill:url(#White_Black-19);}.cls-23{fill:url(#White_Black-20);}.cls-24{fill:url(#White_Black-21);}.cls-25{fill:url(#White_Black-22);}.cls-26{fill:url(#White_Black-23);}.cls-27{fill:url(#White_Black-24);}.cls-28{fill:url(#White_Black-25);}.cls-29{fill:url(#White_Black-26);}.cls-30{fill:url(#White_Black-27);}.cls-31{fill:url(#White_Black-28);}.cls-32{fill:url(#White_Black-29);}.cls-33{fill:url(#White_Black-30);}.cls-34{fill:url(#White_Black-31);}.cls-35{fill:url(#White_Black-32);}.cls-36{fill:url(#White_Black-33);}.cls-37{fill:url(#White_Black-34);}.cls-38{fill:url(#White_Black-35);}.cls-39{fill:url(#White_Black-36);}.cls-40{fill:url(#White_Black-37);}.cls-41{fill:url(#White_Black-38);}.cls-42{fill:url(#White_Black-39);}.cls-43{fill:url(#White_Black-40);}.cls-44{fill:url(#White_Black-41);}.cls-45{fill:url(#White_Black-42);}.cls-46{fill:url(#White_Black-43);}.cls-47{fill:url(#White_Black-44);}.cls-48{fill:url(#White_Black-45);}.cls-49{fill:url(#White_Black-46);}.cls-50{fill:url(#White_Black-47);}.cls-51{fill:url(#White_Black-48);}.cls-52{fill:url(#White_Black-49);}.cls-53{fill:url(#White_Black-50);}.cls-54{fill:url(#White_Black-51);}.cls-55{fill:url(#White_Black-52);}.cls-56{fill:url(#White_Black-53);}.cls-57{fill:url(#White_Black-54);}.cls-58{fill:url(#White_Black-55);}.cls-59{fill:url(#White_Black-56);}.cls-60{fill:url(#White_Black-57);}.cls-61{fill:url(#White_Black-58);}.cls-62{fill:url(#White_Black-59);}.cls-63{fill:url(#White_Black-60);}.cls-64{fill:url(#linear-gradient-3);}.cls-65{fill:url(#White_Black-61);}.cls-66{fill:url(#linear-gradient-5);}.cls-67{fill:url(#White_Black-62);}.cls-68{fill:url(#linear-gradient-6);}.cls-69{fill:url(#White_Black-63);}.cls-70{fill:url(#White_Black-64);}.cls-71{fill:url(#White_Black-65);}.cls-72{fill:url(#White_Black-66);}.cls-73{fill:url(#linear-gradient-7);}.cls-74{fill:url(#White_Black-67);}.cls-75{fill:url(#White_Black-68);}.cls-76{fill:url(#linear-gradient-8);}.cls-77{fill:url(#White_Black-69);}.cls-78{fill:url(#White_Black-70);}.cls-79{fill:url(#White_Black-71);}.cls-80{fill:url(#White_Black-72);}.cls-81{fill:url(#White_Black-73);}.cls-82{fill:url(#White_Black-74);}.cls-83{fill:url(#White_Black-75);}.cls-84{fill:url(#White_Black-76);}.cls-85{fill:url(#linear-gradient-9);}.cls-86{fill:url(#White_Black-77);}.cls-87{fill:url(#White_Black-78);}.cls-88{fill:url(#White_Black-79);}.cls-89{fill:url(#White_Black-80);}.cls-90{fill:url(#White_Black-81);}.cls-91{fill:url(#White_Black-82);}.cls-92{fill:url(#White_Black-83);}.cls-93{fill:url(#White_Black-84);}.cls-94{fill:url(#White_Black-85);}.cls-95{fill:url(#White_Black-86);}.cls-96{fill:url(#White_Black-87);}.cls-97{fill:url(#White_Black-88);}.cls-98{fill:url(#White_Black-89);}.cls-99{fill:url(#White_Black-90);}.cls-100{fill:url(#White_Black-91);}.cls-101{fill:url(#White_Black-92);}.cls-102{font-size:50.06px;fill:#c1272d;font-family:MyriadPro-Bold, Myriad Pro;font-weight:700;}.cls-103,.cls-106{fill:#1a1a1a;}.cls-104{fill:#ed1c24;}.cls-105{letter-spacing:-0.03em;}.cls-106{letter-spacing:0.01em;}.cls-107{letter-spacing:0em;}</style><linearGradient id="linear-gradient" x1="173.04" y1="236.12" x2="437.99" y2="236.12" gradientTransform="matrix(-1, 0, 0, 1, 702.93, -33.73)" gradientUnits="userSpaceOnUse"><stop offset="0" stop-color="#fff"/><stop offset="0.1" stop-color="#d8d8d8"/><stop offset="0.29" stop-color="#979797"/><stop offset="0.47" stop-color="#616161"/><stop offset="0.63" stop-color="#373737"/><stop offset="0.78" stop-color="#191919"/><stop offset="0.91" stop-color="#070707"/><stop offset="1"/></linearGradient><linearGradient id="linear-gradient-2" x1="307.41" y1="16.57" x2="-20.59" y2="428.57" gradientUnits="userSpaceOnUse"><stop offset="0" stop-color="#fff"/><stop offset="0.02" stop-color="#fef5f6"/><stop offset="0.13" stop-color="#f9b4b7"/><stop offset="0.24" stop-color="#f57e82"/><stop offset="0.35" stop-color="#f1545a"/><stop offset="0.44" stop-color="#ef353c"/><stop offset="0.52" stop-color="#ee232a"/><stop offset="0.57" stop-color="#ed1c24"/><stop offset="1" stop-color="#c1272d"/><stop offset="1"/></linearGradient><linearGradient id="White_Black" x1="446.24" y1="239.93" x2="556.95" y2="312.53" gradientTransform="matrix(0.94, 0.34, -0.34, 0.94, 153.21, -127.71)" gradientUnits="userSpaceOnUse"><stop offset="0" stop-color="#fff"/><stop offset="1"/></linearGradient><linearGradient id="White_Black-2" x1="437.31" y1="234.08" x2="548.02" y2="306.68" xlink:href="#White_Black"/><linearGradient id="White_Black-3" x1="428.94" y1="228.59" x2="539.65" y2="301.19" xlink:href="#White_Black"/><linearGradient id="White_Black-4" x1="420.86" y1="223.29" x2="531.58" y2="295.89" xlink:href="#White_Black"/><linearGradient id="White_Black-5" x1="412.41" y1="217.75" x2="523.12" y2="290.35" xlink:href="#White_Black"/><linearGradient id="White_Black-6" x1="403.12" y1="211.66" x2="513.84" y2="284.26" xlink:href="#White_Black"/><linearGradient id="White_Black-7" x1="393.02" y1="205.03" x2="503.73" y2="277.63" xlink:href="#White_Black"/><linearGradient id="White_Black-8" x1="435.52" y1="256.28" x2="546.24" y2="328.87" xlink:href="#White_Black"/><linearGradient id="White_Black-9" x1="397.77" y1="313.85" x2="508.48" y2="386.45" xlink:href="#White_Black"/><linearGradient id="White_Black-10" x1="404.97" y1="302.88" x2="515.68" y2="375.48" xlink:href="#White_Black"/><linearGradient id="White_Black-11" x1="432.14" y1="261.43" x2="542.86" y2="334.03" xlink:href="#White_Black"/><linearGradient id="White_Black-12" x1="423.21" y1="255.58" x2="533.93" y2="328.17" xlink:href="#White_Black"/><linearGradient id="White_Black-13" x1="447.46" y1="238.08" x2="558.17" y2="310.67" xlink:href="#White_Black"/><linearGradient id="White_Black-14" x1="438.53" y1="232.22" x2="549.24" y2="304.82" xlink:href="#White_Black"/><linearGradient id="White_Black-15" x1="400.3" y1="309.99" x2="511.01" y2="382.59" xlink:href="#White_Black"/><linearGradient id="White_Black-16" x1="391.37" y1="304.14" x2="502.08" y2="376.74" xlink:href="#White_Black"/><linearGradient id="White_Black-17" x1="408.5" y1="297.49" x2="519.21" y2="370.09" xlink:href="#White_Black"/><linearGradient id="White_Black-18" x1="399.57" y1="291.63" x2="510.28" y2="364.23" xlink:href="#White_Black"/><linearGradient id="White_Black-19" x1="407.17" y1="299.51" x2="517.89" y2="372.11" xlink:href="#White_Black"/><linearGradient id="White_Black-20" x1="398.24" y1="293.65" x2="508.96" y2="366.25" xlink:href="#White_Black"/><linearGradient id="White_Black-21" x1="406.85" y1="300" x2="517.56" y2="372.6" xlink:href="#White_Black"/><linearGradient id="White_Black-22" x1="397.92" y1="294.15" x2="508.63" y2="366.75" xlink:href="#White_Black"/><linearGradient id="White_Black-23" x1="389.55" y1="288.66" x2="500.26" y2="361.26" xlink:href="#White_Black"/><linearGradient id="White_Black-24" x1="448.02" y1="237.22" x2="558.73" y2="309.82" xlink:href="#White_Black"/><linearGradient id="White_Black-25" x1="439.09" y1="231.36" x2="549.8" y2="303.96" xlink:href="#White_Black"/><linearGradient id="White_Black-26" x1="430.72" y1="225.87" x2="541.43" y2="298.47" xlink:href="#White_Black"/><linearGradient id="White_Black-27" x1="422.09" y1="276.77" x2="532.8" y2="349.36" xlink:href="#White_Black"/><linearGradient id="White_Black-28" x1="413.16" y1="270.91" x2="523.87" y2="343.51" xlink:href="#White_Black"/><linearGradient id="White_Black-29" x1="404.79" y1="265.42" x2="515.5" y2="338.02" xlink:href="#White_Black"/><linearGradient id="White_Black-30" x1="411.12" y1="293.49" x2="521.83" y2="366.09" xlink:href="#White_Black"/><linearGradient id="White_Black-31" x1="402.19" y1="287.64" x2="512.9" y2="360.24" xlink:href="#White_Black"/><linearGradient id="White_Black-32" x1="393.82" y1="282.15" x2="504.53" y2="354.75" xlink:href="#White_Black"/><linearGradient id="White_Black-33" x1="424.94" y1="272.42" x2="535.65" y2="345.02" xlink:href="#White_Black"/><linearGradient id="White_Black-34" x1="416.01" y1="266.57" x2="526.72" y2="339.16" xlink:href="#White_Black"/><linearGradient id="White_Black-35" x1="407.64" y1="261.08" x2="518.35" y2="333.68" xlink:href="#White_Black"/><linearGradient id="White_Black-36" x1="399.56" y1="255.78" x2="510.27" y2="328.38" xlink:href="#White_Black"/><linearGradient id="White_Black-37" x1="415.37" y1="287" x2="526.09" y2="359.6" xlink:href="#White_Black"/><linearGradient id="White_Black-38" x1="406.45" y1="281.15" x2="517.16" y2="353.75" xlink:href="#White_Black"/><linearGradient id="White_Black-39" x1="398.07" y1="275.66" x2="508.79" y2="348.26" xlink:href="#White_Black"/><linearGradient id="White_Black-40" x1="390" y1="270.36" x2="500.71" y2="342.96" xlink:href="#White_Black"/><linearGradient id="White_Black-41" x1="447.32" y1="238.29" x2="558.03" y2="310.89" xlink:href="#White_Black"/><linearGradient id="White_Black-42" x1="438.39" y1="232.43" x2="549.1" y2="305.03" xlink:href="#White_Black"/><linearGradient id="White_Black-43" x1="430.02" y1="226.94" x2="540.73" y2="299.54" xlink:href="#White_Black"/><linearGradient id="White_Black-44" x1="421.94" y1="221.65" x2="532.66" y2="294.24" xlink:href="#White_Black"/><linearGradient id="White_Black-45" x1="426.6" y1="269.88" x2="537.32" y2="342.48" xlink:href="#White_Black"/><linearGradient id="White_Black-46" x1="417.67" y1="264.02" x2="528.39" y2="336.62" xlink:href="#White_Black"/><linearGradient id="White_Black-47" x1="409.3" y1="258.53" x2="520.02" y2="331.13" xlink:href="#White_Black"/><linearGradient id="White_Black-48" x1="401.23" y1="253.24" x2="511.94" y2="325.84" xlink:href="#White_Black"/><linearGradient id="White_Black-49" x1="392.77" y1="247.69" x2="503.49" y2="320.29" xlink:href="#White_Black"/><linearGradient id="White_Black-50" x1="436.15" y1="255.31" x2="546.87" y2="327.91" xlink:href="#White_Black"/><linearGradient id="White_Black-51" x1="427.22" y1="249.46" x2="537.94" y2="322.06" xlink:href="#White_Black"/><linearGradient id="White_Black-52" x1="418.85" y1="243.97" x2="529.57" y2="316.57" xlink:href="#White_Black"/><linearGradient id="White_Black-53" x1="410.78" y1="238.67" x2="521.49" y2="311.27" xlink:href="#White_Black"/><linearGradient id="White_Black-54" x1="402.32" y1="233.13" x2="513.04" y2="305.73" xlink:href="#White_Black"/><linearGradient id="White_Black-55" x1="441.19" y1="247.64" x2="551.9" y2="320.24" xlink:href="#White_Black"/><linearGradient id="White_Black-56" x1="432.26" y1="241.78" x2="542.97" y2="314.38" xlink:href="#White_Black"/><linearGradient id="White_Black-57" x1="423.89" y1="236.29" x2="534.6" y2="308.89" xlink:href="#White_Black"/><linearGradient id="White_Black-58" x1="415.81" y1="231" x2="526.52" y2="303.6" xlink:href="#White_Black"/><linearGradient id="White_Black-59" x1="407.36" y1="225.45" x2="518.07" y2="298.05" xlink:href="#White_Black"/><linearGradient id="White_Black-60" x1="398.07" y1="219.36" x2="508.79" y2="291.96" xlink:href="#White_Black"/><linearGradient id="linear-gradient-3" x1="356.78" y1="320.05" x2="592.72" y2="320.05" gradientTransform="matrix(0.94, 0.34, -0.34, 0.94, 153.21, -127.71)" gradientUnits="userSpaceOnUse"><stop offset="0" stop-color="#fff"/><stop offset="0.66" stop-color="#c14045"/><stop offset="0.92" stop-color="#c03d42"/><stop offset="1" stop-color="#ba2a30"/><stop offset="1" stop-color="#bb2a30"/><stop offset="1" stop-color="#ba2a30"/><stop offset="1" stop-color="#bb2a30"/><stop offset="1" stop-color="#ba2a30"/><stop offset="1" stop-color="#c1272d"/><stop offset="1" stop-color="#c22c32"/><stop offset="1"/></linearGradient><linearGradient id="White_Black-61" x1="391.75" y1="323.03" x2="502.46" y2="395.63" xlink:href="#White_Black"/><linearGradient id="linear-gradient-5" x1="356.78" y1="339.02" x2="592.72" y2="339.02" xlink:href="#linear-gradient-3"/><linearGradient id="White_Black-62" x1="426.62" y1="269.85" x2="537.33" y2="342.45" xlink:href="#White_Black"/><linearGradient id="linear-gradient-6" x1="356.78" y1="339.02" x2="592.72" y2="339.02" xlink:href="#linear-gradient-3"/><linearGradient id="White_Black-63" x1="406.83" y1="300.03" x2="517.55" y2="372.63" xlink:href="#White_Black"/><linearGradient id="White_Black-64" x1="397.9" y1="294.17" x2="508.62" y2="366.77" xlink:href="#White_Black"/><linearGradient id="White_Black-65" x1="397.44" y1="314.36" x2="508.15" y2="386.95" xlink:href="#White_Black"/><linearGradient id="White_Black-66" x1="388.51" y1="308.5" x2="499.22" y2="381.1" xlink:href="#White_Black"/><linearGradient id="linear-gradient-7" x1="356.78" y1="340.61" x2="592.72" y2="340.61" xlink:href="#linear-gradient-3"/><linearGradient id="White_Black-67" x1="419.23" y1="281.12" x2="529.94" y2="353.72" xlink:href="#White_Black"/><linearGradient id="White_Black-68" x1="410.3" y1="275.27" x2="521.01" y2="347.87" xlink:href="#White_Black"/><linearGradient id="linear-gradient-8" x1="356.78" y1="340.61" x2="592.72" y2="340.61" xlink:href="#linear-gradient-3"/><linearGradient id="White_Black-69" x1="445.77" y1="240.64" x2="556.49" y2="313.24" xlink:href="#White_Black"/><linearGradient id="White_Black-70" x1="436.84" y1="234.79" x2="547.56" y2="307.39" xlink:href="#White_Black"/><linearGradient id="White_Black-71" x1="444.5" y1="242.58" x2="555.21" y2="315.18" xlink:href="#White_Black"/><linearGradient id="White_Black-72" x1="435.57" y1="236.73" x2="546.29" y2="309.33" xlink:href="#White_Black"/><linearGradient id="White_Black-73" x1="427.2" y1="231.24" x2="537.91" y2="303.84" xlink:href="#White_Black"/><linearGradient id="White_Black-74" x1="409.62" y1="295.77" x2="520.34" y2="368.37" xlink:href="#White_Black"/><linearGradient id="White_Black-75" x1="400.69" y1="289.92" x2="511.41" y2="362.52" xlink:href="#White_Black"/><linearGradient id="White_Black-76" x1="392.32" y1="284.43" x2="503.04" y2="357.03" xlink:href="#White_Black"/><linearGradient id="linear-gradient-9" x1="356.78" y1="341.62" x2="592.72" y2="341.62" xlink:href="#linear-gradient-3"/><linearGradient id="White_Black-77" x1="408.89" y1="296.89" x2="519.6" y2="369.49" xlink:href="#White_Black"/><linearGradient id="White_Black-78" x1="399.96" y1="291.04" x2="510.67" y2="363.64" xlink:href="#White_Black"/><linearGradient id="White_Black-79" x1="391.59" y1="285.55" x2="502.3" y2="358.15" xlink:href="#White_Black"/><linearGradient id="White_Black-80" x1="440.94" y1="248.01" x2="551.65" y2="320.61" xlink:href="#White_Black"/><linearGradient id="White_Black-81" x1="432.01" y1="242.16" x2="542.72" y2="314.76" xlink:href="#White_Black"/><linearGradient id="White_Black-82" x1="423.64" y1="236.67" x2="534.35" y2="309.27" xlink:href="#White_Black"/><linearGradient id="White_Black-83" x1="415.56" y1="231.37" x2="526.28" y2="303.97" xlink:href="#White_Black"/><linearGradient id="White_Black-84" x1="413.28" y1="290.2" x2="523.99" y2="362.8" xlink:href="#White_Black"/><linearGradient id="White_Black-85" x1="404.35" y1="284.35" x2="515.06" y2="356.95" xlink:href="#White_Black"/><linearGradient id="White_Black-86" x1="395.98" y1="278.86" x2="506.69" y2="351.46" xlink:href="#White_Black"/><linearGradient id="White_Black-87" x1="387.9" y1="273.56" x2="498.61" y2="346.16" xlink:href="#White_Black"/><linearGradient id="White_Black-88" x1="428.8" y1="266.53" x2="539.51" y2="339.13" xlink:href="#White_Black"/><linearGradient id="White_Black-89" x1="419.87" y1="260.67" x2="530.58" y2="333.27" xlink:href="#White_Black"/><linearGradient id="White_Black-90" x1="411.5" y1="255.18" x2="522.21" y2="327.78" xlink:href="#White_Black"/><linearGradient id="White_Black-91" x1="403.42" y1="249.89" x2="514.14" y2="322.49" xlink:href="#White_Black"/><linearGradient id="White_Black-92" x1="394.97" y1="244.35" x2="505.68" y2="316.94" xlink:href="#White_Black"/></defs><title>ACF_2_red</title><polygon class="cls-1" points="264.94 139.84 529.88 404.78 264.94 0 264.94 139.84"/><polygon class="cls-2" points="264.94 139.84 0 404.78 264.94 0 264.94 139.84"/><path class="cls-3" d="M543.19,289.45a67.44,67.44,0,0,0-64.63-23.52,67.44,67.44,0,0,0,64.63,23.52Z" transform="translate(-224.97 -33.73)"/><path class="cls-4" d="M543.19,289.45a67.44,67.44,0,0,0-64.63-23.52,67.44,67.44,0,0,0,64.63,23.52Z" transform="translate(-224.97 -33.73)"/><path class="cls-5" d="M543.19,289.45a67.44,67.44,0,0,0-64.63-23.52,67.44,67.44,0,0,0,64.63,23.52Z" transform="translate(-224.97 -33.73)"/><path class="cls-6" d="M543.19,289.45a67.44,67.44,0,0,0-64.63-23.52,67.44,67.44,0,0,0,64.63,23.52Z" transform="translate(-224.97 -33.73)"/><path class="cls-7" d="M543.19,289.45a67.44,67.44,0,0,0-64.63-23.52,67.44,67.44,0,0,0,64.63,23.52Z" transform="translate(-224.97 -33.73)"/><path class="cls-8" d="M543.19,289.45a67.44,67.44,0,0,0-64.63-23.52,67.44,67.44,0,0,0,64.63,23.52Z" transform="translate(-224.97 -33.73)"/><path class="cls-9" d="M543.19,289.45a67.44,67.44,0,0,0-64.63-23.52,67.44,67.44,0,0,0,64.63,23.52Z" transform="translate(-224.97 -33.73)"/><path class="cls-10" d="M431.63,300.24c.39-.72.82-1.4,1.23-2.1-29.11-6.32-47-6.1-48.69-1.35s12.29,16.79,39.55,31a67.34,67.34,0,0,1,7.92-27.53Z" transform="translate(-224.97 -33.73)"/><path class="cls-10" d="M554.41,355.29a67.44,67.44,0,0,1-9,16.79c30,6.65,48.45,6.52,50.21,1.69s-11.8-16.39-38.17-30.26c-.14.8-.24,1.6-.41,2.4A68,68,0,0,1,554.41,355.29Z" transform="translate(-224.97 -33.73)"/><path class="cls-11" d="M557.08,345.9a67.11,67.11,0,0,1-21.54,23.84q5.14,1.29,9.9,2.34a67.34,67.34,0,0,0,11.63-26.18Z" transform="translate(-224.97 -33.73)"/><path class="cls-12" d="M427.64,309.15a67.44,67.44,0,0,0-3.92,18.63q4.32,2.25,9.09,4.57a67.11,67.11,0,0,1-1.17-32.1A68,68,0,0,0,427.64,309.15Z" transform="translate(-224.97 -33.73)"/><path class="cls-13" d="M474.61,377.31a67.25,67.25,0,0,1-39.34-37.85c-4-1.87-7.89-3.78-11.68-5.71a67.45,67.45,0,0,0,118.11,43c-4.15-1-8.37-2-12.62-3.14A67.25,67.25,0,0,1,474.61,377.31Z" transform="translate(-224.97 -33.73)"/><path class="cls-14" d="M513.35,363.57q11.81,3.59,22.19,6.17a67.11,67.11,0,0,0,21.54-23.84c.17-.8.27-1.6.41-2.4l-3.33-1.73A67.7,67.7,0,0,1,513.35,363.57Z" transform="translate(-224.97 -33.73)"/><path class="cls-15" d="M513.35,363.57q11.81,3.59,22.19,6.17a67.11,67.11,0,0,0,21.54-23.84c.17-.8.27-1.6.41-2.4l-3.33-1.73A67.7,67.7,0,0,1,513.35,363.57Z" transform="translate(-224.97 -33.73)"/><path class="cls-16" d="M558.22,337.83c0-.39.09-.79.12-1.18-.22.3-.46.59-.68.89Z" transform="translate(-224.97 -33.73)"/><path class="cls-17" d="M558.22,337.83c0-.39.09-.79.12-1.18-.22.3-.46.59-.68.89Z" transform="translate(-224.97 -33.73)"/><path class="cls-18" d="M436.52,299l-3.66-.82c-.41.7-.84,1.38-1.23,2.1a67.11,67.11,0,0,0,1.17,32.1q9.61,4.68,21,9.54A67.7,67.7,0,0,1,436.52,299Z" transform="translate(-224.97 -33.73)"/><path class="cls-19" d="M436.52,299l-3.66-.82c-.41.7-.84,1.38-1.23,2.1a67.11,67.11,0,0,0,1.17,32.1q9.61,4.68,21,9.54A67.7,67.7,0,0,1,436.52,299Z" transform="translate(-224.97 -33.73)"/><path class="cls-20" d="M436.62,292.34c-.23.32-.44.66-.67,1l.62.14C436.59,293.09,436.6,292.72,436.62,292.34Z" transform="translate(-224.97 -33.73)"/><path class="cls-21" d="M436.62,292.34c-.23.32-.44.66-.67,1l.62.14C436.59,293.09,436.6,292.72,436.62,292.34Z" transform="translate(-224.97 -33.73)"/><path class="cls-22" d="M480.86,360.16A67.56,67.56,0,0,1,466.72,353c-10.32-4.09-21.1-8.71-31.44-13.57a67.39,67.39,0,0,0,93.81,34.14c-11.05-2.92-22.28-6.32-32.81-9.81A67.56,67.56,0,0,1,480.86,360.16Z" transform="translate(-224.97 -33.73)"/><path class="cls-23" d="M480.86,360.16A67.56,67.56,0,0,1,466.72,353c-10.32-4.09-21.1-8.71-31.44-13.57a67.39,67.39,0,0,0,93.81,34.14c-11.05-2.92-22.28-6.32-32.81-9.81A67.56,67.56,0,0,1,480.86,360.16Z" transform="translate(-224.97 -33.73)"/><path class="cls-24" d="M466.72,353a67.51,67.51,0,0,0,29.56,10.76c-5.15-1.71-10.14-3.45-14.86-5.16S471.76,355,466.72,353Z" transform="translate(-224.97 -33.73)"/><path class="cls-25" d="M466.72,353a67.51,67.51,0,0,0,29.56,10.76c-5.15-1.71-10.14-3.45-14.86-5.16S471.76,355,466.72,353Z" transform="translate(-224.97 -33.73)"/><path class="cls-26" d="M466.72,353a67.51,67.51,0,0,0,29.56,10.76c-5.15-1.71-10.14-3.45-14.86-5.16S471.76,355,466.72,353Z" transform="translate(-224.97 -33.73)"/><path class="cls-27" d="M557.65,337.54c.23-.3.46-.59.68-.89a66.93,66.93,0,0,0,0-9.39,67.34,67.34,0,0,1-7.69,6.75Q554.19,335.76,557.65,337.54Z" transform="translate(-224.97 -33.73)"/><path class="cls-28" d="M557.65,337.54c.23-.3.46-.59.68-.89a66.93,66.93,0,0,0,0-9.39,67.34,67.34,0,0,1-7.69,6.75Q554.19,335.76,557.65,337.54Z" transform="translate(-224.97 -33.73)"/><path class="cls-29" d="M557.65,337.54c.23-.3.46-.59.68-.89a66.93,66.93,0,0,0,0-9.39,67.34,67.34,0,0,1-7.69,6.75Q554.19,335.76,557.65,337.54Z" transform="translate(-224.97 -33.73)"/><path class="cls-30" d="M453.77,341.89c9,3.86,18.88,7.76,29.5,11.62s20.66,7.2,30.07,10.06a67.7,67.7,0,0,0,40.81-21.79q-4.14-2.12-8.65-4.3a67.31,67.31,0,0,1-99.59-36.25q-4.86-1.24-9.39-2.27A67.7,67.7,0,0,0,453.77,341.89Z" transform="translate(-224.97 -33.73)"/><path class="cls-31" d="M453.77,341.89c9,3.86,18.88,7.76,29.5,11.62s20.66,7.2,30.07,10.06a67.7,67.7,0,0,0,40.81-21.79q-4.14-2.12-8.65-4.3a67.31,67.31,0,0,1-99.59-36.25q-4.86-1.24-9.39-2.27A67.7,67.7,0,0,0,453.77,341.89Z" transform="translate(-224.97 -33.73)"/><path class="cls-32" d="M453.77,341.89c9,3.86,18.88,7.76,29.5,11.62s20.66,7.2,30.07,10.06a67.7,67.7,0,0,0,40.81-21.79q-4.14-2.12-8.65-4.3a67.31,67.31,0,0,1-99.59-36.25q-4.86-1.24-9.39-2.27A67.7,67.7,0,0,0,453.77,341.89Z" transform="translate(-224.97 -33.73)"/><path class="cls-33" d="M444.24,295.29a67.34,67.34,0,0,1-1.55-10.11,66.93,66.93,0,0,0-6.06,7.17c0,.37,0,.75-.05,1.12Q440.36,294.33,444.24,295.29Z" transform="translate(-224.97 -33.73)"/><path class="cls-34" d="M444.24,295.29a67.34,67.34,0,0,1-1.55-10.11,66.93,66.93,0,0,0-6.06,7.17c0,.37,0,.75-.05,1.12Q440.36,294.33,444.24,295.29Z" transform="translate(-224.97 -33.73)"/><path class="cls-35" d="M444.24,295.29a67.34,67.34,0,0,1-1.55-10.11,66.93,66.93,0,0,0-6.06,7.17c0,.37,0,.75-.05,1.12Q440.36,294.33,444.24,295.29Z" transform="translate(-224.97 -33.73)"/><path class="cls-36" d="M493.19,326.29a67.06,67.06,0,0,1-28.38-19.79c-6.64-2-12.95-3.75-18.9-5.26a67.31,67.31,0,0,0,99.59,36.25q-8.29-4-17.86-8.12A67.06,67.06,0,0,1,493.19,326.29Z" transform="translate(-224.97 -33.73)"/><path class="cls-37" d="M493.19,326.29a67.06,67.06,0,0,1-28.38-19.79c-6.64-2-12.95-3.75-18.9-5.26a67.31,67.31,0,0,0,99.59,36.25q-8.29-4-17.86-8.12A67.06,67.06,0,0,1,493.19,326.29Z" transform="translate(-224.97 -33.73)"/><path class="cls-38" d="M493.19,326.29a67.06,67.06,0,0,1-28.38-19.79c-6.64-2-12.95-3.75-18.9-5.26a67.31,67.31,0,0,0,99.59,36.25q-8.29-4-17.86-8.12A67.06,67.06,0,0,1,493.19,326.29Z" transform="translate(-224.97 -33.73)"/><path class="cls-39" d="M493.19,326.29a67.06,67.06,0,0,1-28.38-19.79c-6.64-2-12.95-3.75-18.9-5.26a67.31,67.31,0,0,0,99.59,36.25q-8.29-4-17.86-8.12A67.06,67.06,0,0,1,493.19,326.29Z" transform="translate(-224.97 -33.73)"/><path class="cls-40" d="M459.56,299.38a67.87,67.87,0,0,1-9-21.13,67.29,67.29,0,0,0-7.9,6.93,67.34,67.34,0,0,0,1.55,10.11C449.3,296.55,454.44,297.92,459.56,299.38Z" transform="translate(-224.97 -33.73)"/><path class="cls-41" d="M459.56,299.38a67.87,67.87,0,0,1-9-21.13,67.29,67.29,0,0,0-7.9,6.93,67.34,67.34,0,0,0,1.55,10.11C449.3,296.55,454.44,297.92,459.56,299.38Z" transform="translate(-224.97 -33.73)"/><path class="cls-42" d="M459.56,299.38a67.87,67.87,0,0,1-9-21.13,67.29,67.29,0,0,0-7.9,6.93,67.34,67.34,0,0,0,1.55,10.11C449.3,296.55,454.44,297.92,459.56,299.38Z" transform="translate(-224.97 -33.73)"/><path class="cls-43" d="M459.56,299.38a67.87,67.87,0,0,1-9-21.13,67.29,67.29,0,0,0-7.9,6.93,67.34,67.34,0,0,0,1.55,10.11C449.3,296.55,454.44,297.92,459.56,299.38Z" transform="translate(-224.97 -33.73)"/><path class="cls-44" d="M536.24,327.29c4.86,2.18,9.68,4.43,14.37,6.72a67.34,67.34,0,0,0,7.69-6.75,67.29,67.29,0,0,0-1.59-10.39A67.87,67.87,0,0,1,536.24,327.29Z" transform="translate(-224.97 -33.73)"/><path class="cls-45" d="M536.24,327.29c4.86,2.18,9.68,4.43,14.37,6.72a67.34,67.34,0,0,0,7.69-6.75,67.29,67.29,0,0,0-1.59-10.39A67.87,67.87,0,0,1,536.24,327.29Z" transform="translate(-224.97 -33.73)"/><path class="cls-46" d="M536.24,327.29c4.86,2.18,9.68,4.43,14.37,6.72a67.34,67.34,0,0,0,7.69-6.75,67.29,67.29,0,0,0-1.59-10.39A67.87,67.87,0,0,1,536.24,327.29Z" transform="translate(-224.97 -33.73)"/><path class="cls-47" d="M536.24,327.29c4.86,2.18,9.68,4.43,14.37,6.72a67.34,67.34,0,0,0,7.69-6.75,67.29,67.29,0,0,0-1.59-10.39A67.87,67.87,0,0,1,536.24,327.29Z" transform="translate(-224.97 -33.73)"/><path class="cls-48" d="M527.65,329.37c-9.48-4.08-19.85-8.22-31.1-12.31s-21.85-7.59-31.74-10.56a67.31,67.31,0,0,0,62.83,22.87Z" transform="translate(-224.97 -33.73)"/><path class="cls-49" d="M527.65,329.37c-9.48-4.08-19.85-8.22-31.1-12.31s-21.85-7.59-31.74-10.56a67.31,67.31,0,0,0,62.83,22.87Z" transform="translate(-224.97 -33.73)"/><path class="cls-50" d="M527.65,329.37c-9.48-4.08-19.85-8.22-31.1-12.31s-21.85-7.59-31.74-10.56a67.31,67.31,0,0,0,62.83,22.87Z" transform="translate(-224.97 -33.73)"/><path class="cls-51" d="M527.65,329.37c-9.48-4.08-19.85-8.22-31.1-12.31s-21.85-7.59-31.74-10.56a67.31,67.31,0,0,0,62.83,22.87Z" transform="translate(-224.97 -33.73)"/><path class="cls-52" d="M527.65,329.37c-9.48-4.08-19.85-8.22-31.1-12.31s-21.85-7.59-31.74-10.56a67.31,67.31,0,0,0,62.83,22.87Z" transform="translate(-224.97 -33.73)"/><path class="cls-53" d="M459.56,299.38c13.56,3.85,27,8.26,38.85,12.56s25,9.58,37.83,15.35a67.87,67.87,0,0,0,20.46-10.42,67.74,67.74,0,0,0-4.16-12.29,67.4,67.4,0,0,1-90.87-33.08,67.74,67.74,0,0,0-11.09,6.74A67.87,67.87,0,0,0,459.56,299.38Z" transform="translate(-224.97 -33.73)"/><path class="cls-54" d="M459.56,299.38c13.56,3.85,27,8.26,38.85,12.56s25,9.58,37.83,15.35a67.87,67.87,0,0,0,20.46-10.42,67.74,67.74,0,0,0-4.16-12.29,67.4,67.4,0,0,1-90.87-33.08,67.74,67.74,0,0,0-11.09,6.74A67.87,67.87,0,0,0,459.56,299.38Z" transform="translate(-224.97 -33.73)"/><path class="cls-55" d="M459.56,299.38c13.56,3.85,27,8.26,38.85,12.56s25,9.58,37.83,15.35a67.87,67.87,0,0,0,20.46-10.42,67.74,67.74,0,0,0-4.16-12.29,67.4,67.4,0,0,1-90.87-33.08,67.74,67.74,0,0,0-11.09,6.74A67.87,67.87,0,0,0,459.56,299.38Z" transform="translate(-224.97 -33.73)"/><path class="cls-56" d="M459.56,299.38c13.56,3.85,27,8.26,38.85,12.56s25,9.58,37.83,15.35a67.87,67.87,0,0,0,20.46-10.42,67.74,67.74,0,0,0-4.16-12.29,67.4,67.4,0,0,1-90.87-33.08,67.74,67.74,0,0,0-11.09,6.74A67.87,67.87,0,0,0,459.56,299.38Z" transform="translate(-224.97 -33.73)"/><path class="cls-57" d="M459.56,299.38c13.56,3.85,27,8.26,38.85,12.56s25,9.58,37.83,15.35a67.87,67.87,0,0,0,20.46-10.42,67.74,67.74,0,0,0-4.16-12.29,67.4,67.4,0,0,1-90.87-33.08,67.74,67.74,0,0,0-11.09,6.74A67.87,67.87,0,0,0,459.56,299.38Z" transform="translate(-224.97 -33.73)"/><path class="cls-58" d="M552.54,304.58a67.72,67.72,0,0,0-9.36-15.13,67.44,67.44,0,0,1-64.63-23.52,67.72,67.72,0,0,0-16.89,5.58,67.4,67.4,0,0,0,90.87,33.08Z" transform="translate(-224.97 -33.73)"/><path class="cls-59" d="M552.54,304.58a67.72,67.72,0,0,0-9.36-15.13,67.44,67.44,0,0,1-64.63-23.52,67.72,67.72,0,0,0-16.89,5.58,67.4,67.4,0,0,0,90.87,33.08Z" transform="translate(-224.97 -33.73)"/><path class="cls-60" d="M552.54,304.58a67.72,67.72,0,0,0-9.36-15.13,67.44,67.44,0,0,1-64.63-23.52,67.72,67.72,0,0,0-16.89,5.58,67.4,67.4,0,0,0,90.87,33.08Z" transform="translate(-224.97 -33.73)"/><path class="cls-61" d="M552.54,304.58a67.72,67.72,0,0,0-9.36-15.13,67.44,67.44,0,0,1-64.63-23.52,67.72,67.72,0,0,0-16.89,5.58,67.4,67.4,0,0,0,90.87,33.08Z" transform="translate(-224.97 -33.73)"/><path class="cls-62" d="M552.54,304.58a67.72,67.72,0,0,0-9.36-15.13,67.44,67.44,0,0,1-64.63-23.52,67.72,67.72,0,0,0-16.89,5.58,67.4,67.4,0,0,0,90.87,33.08Z" transform="translate(-224.97 -33.73)"/><path class="cls-63" d="M552.54,304.58a67.72,67.72,0,0,0-9.36-15.13,67.44,67.44,0,0,1-64.63-23.52,67.72,67.72,0,0,0-16.89,5.58,67.4,67.4,0,0,0,90.87,33.08Z" transform="translate(-224.97 -33.73)"/><path class="cls-64" d="M384.17,296.79c1.73-4.75,19.58-5,48.69,1.35,1-1.66,2-3.27,3.09-4.82-28.7-6.47-53.28-8.33-56.9,1.61-3.71,10.18,17.43,25,44.54,38.82q-.07-3,.13-6C396.46,313.59,382.41,301.63,384.17,296.79Z" transform="translate(-224.97 -33.73)"/><path class="cls-64" d="M600.77,375.63c3.62-9.93-16.41-24.31-42.55-37.8-.16,1.89-.41,3.78-.73,5.68,26.36,13.88,39.9,25.51,38.17,30.26s-20.21,5-50.21-1.69q-1.77,2.43-3.74,4.66C571.33,383.61,597.06,385.82,600.77,375.63Z" transform="translate(-224.97 -33.73)"/><path class="cls-65" d="M432.81,332.35q-4.76-2.32-9.09-4.57-.2,3-.13,6c3.79,1.93,7.71,3.84,11.68,5.71A67.78,67.78,0,0,1,432.81,332.35Z" transform="translate(-224.97 -33.73)"/><path class="cls-66" d="M432.81,332.35q-4.76-2.32-9.09-4.57-.2,3-.13,6c3.79,1.93,7.71,3.84,11.68,5.71A67.78,67.78,0,0,1,432.81,332.35Z" transform="translate(-224.97 -33.73)"/><path class="cls-67" d="M535.54,369.74a67.77,67.77,0,0,1-6.46,3.87c4.25,1.12,8.47,2.18,12.62,3.14q2-2.24,3.74-4.66Q540.68,371,535.54,369.74Z" transform="translate(-224.97 -33.73)"/><path class="cls-68" d="M535.54,369.74a67.77,67.77,0,0,1-6.46,3.87c4.25,1.12,8.47,2.18,12.62,3.14q2-2.24,3.74-4.66Q540.68,371,535.54,369.74Z" transform="translate(-224.97 -33.73)"/><path class="cls-69" d="M436.52,299q-.09-2.74,0-5.5l-.62-.14c-1.09,1.55-2.12,3.16-3.09,4.82Z" transform="translate(-224.97 -33.73)"/><path class="cls-70" d="M436.52,299q-.09-2.74,0-5.5l-.62-.14c-1.09,1.55-2.12,3.16-3.09,4.82Z" transform="translate(-224.97 -33.73)"/><path class="cls-71" d="M453.77,341.89q-11.35-4.84-21-9.54a67.78,67.78,0,0,0,2.46,7.11c10.34,4.87,21.13,9.48,31.44,13.57A67,67,0,0,1,453.77,341.89Z" transform="translate(-224.97 -33.73)"/><path class="cls-72" d="M453.77,341.89q-11.35-4.84-21-9.54a67.78,67.78,0,0,0,2.46,7.11c10.34,4.87,21.13,9.48,31.44,13.57A67,67,0,0,1,453.77,341.89Z" transform="translate(-224.97 -33.73)"/><path class="cls-73" d="M453.77,341.89q-11.35-4.84-21-9.54a67.78,67.78,0,0,0,2.46,7.11c10.34,4.87,21.13,9.48,31.44,13.57A67,67,0,0,1,453.77,341.89Z" transform="translate(-224.97 -33.73)"/><path class="cls-74" d="M496.27,363.79c10.53,3.5,21.76,6.89,32.81,9.81a67.77,67.77,0,0,0,6.46-3.87q-10.37-2.6-22.19-6.17A67,67,0,0,1,496.27,363.79Z" transform="translate(-224.97 -33.73)"/><path class="cls-75" d="M496.27,363.79c10.53,3.5,21.76,6.89,32.81,9.81a67.77,67.77,0,0,0,6.46-3.87q-10.37-2.6-22.19-6.17A67,67,0,0,1,496.27,363.79Z" transform="translate(-224.97 -33.73)"/><path class="cls-76" d="M496.27,363.79c10.53,3.5,21.76,6.89,32.81,9.81a67.77,67.77,0,0,0,6.46-3.87q-10.37-2.6-22.19-6.17A67,67,0,0,1,496.27,363.79Z" transform="translate(-224.97 -33.73)"/><path class="cls-77" d="M554.16,341.78l3.33,1.73c.32-1.89.57-3.79.73-5.68l-.56-.29Q556,339.74,554.16,341.78Z" transform="translate(-224.97 -33.73)"/><path class="cls-78" d="M554.16,341.78l3.33,1.73c.32-1.89.57-3.79.73-5.68l-.56-.29Q556,339.74,554.16,341.78Z" transform="translate(-224.97 -33.73)"/><path class="cls-79" d="M554.16,341.78q1.83-2,3.5-4.24-3.46-1.78-7-3.53c-1.65,1.24-3.36,2.39-5.11,3.47Q550,339.66,554.16,341.78Z" transform="translate(-224.97 -33.73)"/><path class="cls-80" d="M554.16,341.78q1.83-2,3.5-4.24-3.46-1.78-7-3.53c-1.65,1.24-3.36,2.39-5.11,3.47Q550,339.66,554.16,341.78Z" transform="translate(-224.97 -33.73)"/><path class="cls-81" d="M554.16,341.78q1.83-2,3.5-4.24-3.46-1.78-7-3.53c-1.65,1.24-3.36,2.39-5.11,3.47Q550,339.66,554.16,341.78Z" transform="translate(-224.97 -33.73)"/><path class="cls-82" d="M453.77,341.89A67,67,0,0,0,466.72,353c5,2,10,3.88,14.7,5.59s9.7,3.45,14.86,5.16a67,67,0,0,0,17.08-.22q-14.11-4.29-30.07-10.06C472.66,349.65,462.82,345.75,453.77,341.89Z" transform="translate(-224.97 -33.73)"/><path class="cls-83" d="M453.77,341.89A67,67,0,0,0,466.72,353c5,2,10,3.88,14.7,5.59s9.7,3.45,14.86,5.16a67,67,0,0,0,17.08-.22q-14.11-4.29-30.07-10.06C472.66,349.65,462.82,345.75,453.77,341.89Z" transform="translate(-224.97 -33.73)"/><path class="cls-84" d="M453.77,341.89A67,67,0,0,0,466.72,353c5,2,10,3.88,14.7,5.59s9.7,3.45,14.86,5.16a67,67,0,0,0,17.08-.22q-14.11-4.29-30.07-10.06C472.66,349.65,462.82,345.75,453.77,341.89Z" transform="translate(-224.97 -33.73)"/><path class="cls-85" d="M453.77,341.89A67,67,0,0,0,466.72,353c5,2,10,3.88,14.7,5.59s9.7,3.45,14.86,5.16a67,67,0,0,0,17.08-.22q-14.11-4.29-30.07-10.06C472.66,349.65,462.82,345.75,453.77,341.89Z" transform="translate(-224.97 -33.73)"/><path class="cls-86" d="M444.24,295.29q-3.87-1-7.67-1.83-.14,2.76,0,5.5,4.53,1,9.39,2.27C445.27,299.28,444.7,297.3,444.24,295.29Z" transform="translate(-224.97 -33.73)"/><path class="cls-87" d="M444.24,295.29q-3.87-1-7.67-1.83-.14,2.76,0,5.5,4.53,1,9.39,2.27C445.27,299.28,444.7,297.3,444.24,295.29Z" transform="translate(-224.97 -33.73)"/><path class="cls-88" d="M444.24,295.29q-3.87-1-7.67-1.83-.14,2.76,0,5.5,4.53,1,9.39,2.27C445.27,299.28,444.7,297.3,444.24,295.29Z" transform="translate(-224.97 -33.73)"/><path class="cls-89" d="M545.5,337.48c1.75-1.08,3.46-2.23,5.11-3.47-4.69-2.29-9.51-4.54-14.37-6.72a67.51,67.51,0,0,1-8.59,2.08Q537.19,333.48,545.5,337.48Z" transform="translate(-224.97 -33.73)"/><path class="cls-90" d="M545.5,337.48c1.75-1.08,3.46-2.23,5.11-3.47-4.69-2.29-9.51-4.54-14.37-6.72a67.51,67.51,0,0,1-8.59,2.08Q537.19,333.48,545.5,337.48Z" transform="translate(-224.97 -33.73)"/><path class="cls-91" d="M545.5,337.48c1.75-1.08,3.46-2.23,5.11-3.47-4.69-2.29-9.51-4.54-14.37-6.72a67.51,67.51,0,0,1-8.59,2.08Q537.19,333.48,545.5,337.48Z" transform="translate(-224.97 -33.73)"/><path class="cls-92" d="M545.5,337.48c1.75-1.08,3.46-2.23,5.11-3.47-4.69-2.29-9.51-4.54-14.37-6.72a67.51,67.51,0,0,1-8.59,2.08Q537.19,333.48,545.5,337.48Z" transform="translate(-224.97 -33.73)"/><path class="cls-93" d="M464.81,306.5a67.52,67.52,0,0,1-5.25-7.12c-5.13-1.46-10.26-2.83-15.33-4.09.46,2,1,4,1.68,5.94C451.86,302.75,458.17,304.5,464.81,306.5Z" transform="translate(-224.97 -33.73)"/><path class="cls-94" d="M464.81,306.5a67.52,67.52,0,0,1-5.25-7.12c-5.13-1.46-10.26-2.83-15.33-4.09.46,2,1,4,1.68,5.94C451.86,302.75,458.17,304.5,464.81,306.5Z" transform="translate(-224.97 -33.73)"/><path class="cls-95" d="M464.81,306.5a67.52,67.52,0,0,1-5.25-7.12c-5.13-1.46-10.26-2.83-15.33-4.09.46,2,1,4,1.68,5.94C451.86,302.75,458.17,304.5,464.81,306.5Z" transform="translate(-224.97 -33.73)"/><path class="cls-96" d="M464.81,306.5a67.52,67.52,0,0,1-5.25-7.12c-5.13-1.46-10.26-2.83-15.33-4.09.46,2,1,4,1.68,5.94C451.86,302.75,458.17,304.5,464.81,306.5Z" transform="translate(-224.97 -33.73)"/><path class="cls-97" d="M496.55,317.05c11.25,4.09,21.62,8.23,31.1,12.31a67.51,67.51,0,0,0,8.59-2.08c-12.86-5.77-26-11.05-37.83-15.35s-25.28-8.71-38.85-12.56a67.52,67.52,0,0,0,5.25,7.12Q479.64,310.95,496.55,317.05Z" transform="translate(-224.97 -33.73)"/><path class="cls-98" d="M496.55,317.05c11.25,4.09,21.62,8.23,31.1,12.31a67.51,67.51,0,0,0,8.59-2.08c-12.86-5.77-26-11.05-37.83-15.35s-25.28-8.71-38.85-12.56a67.52,67.52,0,0,0,5.25,7.12Q479.64,310.95,496.55,317.05Z" transform="translate(-224.97 -33.73)"/><path class="cls-99" d="M496.55,317.05c11.25,4.09,21.62,8.23,31.1,12.31a67.51,67.51,0,0,0,8.59-2.08c-12.86-5.77-26-11.05-37.83-15.35s-25.28-8.71-38.85-12.56a67.52,67.52,0,0,0,5.25,7.12Q479.64,310.95,496.55,317.05Z" transform="translate(-224.97 -33.73)"/><path class="cls-100" d="M496.55,317.05c11.25,4.09,21.62,8.23,31.1,12.31a67.51,67.51,0,0,0,8.59-2.08c-12.86-5.77-26-11.05-37.83-15.35s-25.28-8.71-38.85-12.56a67.52,67.52,0,0,0,5.25,7.12Q479.64,310.95,496.55,317.05Z" transform="translate(-224.97 -33.73)"/><path class="cls-101" d="M496.55,317.05c11.25,4.09,21.62,8.23,31.1,12.31a67.51,67.51,0,0,0,8.59-2.08c-12.86-5.77-26-11.05-37.83-15.35s-25.28-8.71-38.85-12.56a67.52,67.52,0,0,0,5.25,7.12Q479.64,310.95,496.55,317.05Z" transform="translate(-224.97 -33.73)"/><text class="cls-102" transform="translate(0 458.79)">A<tspan class="cls-103" x="32.84" y="0">RK</tspan><tspan class="cls-104" x="93.26" y="0"> </tspan><tspan class="cls-105" x="103.37" y="0">C</tspan><tspan class="cls-103" x="131.66" y="0">OMMUNI</tspan><tspan class="cls-106" x="335.2" y="0">T</tspan><tspan class="cls-103" x="362.98" y="0">Y </tspan><tspan class="cls-107" x="403.28" y="0">F</tspan><tspan class="cls-103" x="429.66" y="0">UND</tspan></text></svg>