<?xml version="1.0" encoding="utf-8"?>
<!-- Generator: Adobe Illustrator 20.1.0, SVG Export Plug-In . SVG Version: 6.00 Build 0)  -->
<svg version="1.1" id="Layer_1" xmlns="http://www.w3.org/2000/svg" xmlns:xlink="http://www.w3.org/1999/xlink" x="0px" y="0px"
	 viewBox="0 0 960 560" style="enable-background:new 0 0 960 560;" xml:space="preserve">
<style type="text/css">
	.st0{fill:#C1272D;}
	.st1{fill:#ED1C24;}
	.st2{fill:#0049C5;}
	.st3{fill:#4890FF;}
	.st4{fill:#1A1A1A;}
</style>
<g>
	<polygon class="st0" points="346.9,176.8 583.5,413.3 346.9,51.9 	"/>
	<polygon class="st1" points="346.9,176.8 110.4,413.3 346.9,51.9 	"/>
	<g>
		<polygon class="st2" points="626,176.8 862.5,413.3 626,51.9 		"/>
		<polygon class="st3" points="626,176.8 389.4,413.3 626,51.9 		"/>
	</g>
	<polygon class="st0" points="346.9,176.8 583.5,413.3 346.9,51.9 	"/>
	<polygon class="st1" points="346.9,176.8 110.4,413.3 346.9,51.9 	"/>
	<polygon class="st2" points="346.9,176.8 583.5,413.3 346.9,51.9 	"/>
	<polygon class="st3" points="346.9,176.8 110.4,413.3 346.9,51.9 	"/>
	<g>
		<path class="st2" d="M80.6,494.4l-3.8,13.7H64.2l16.3-53.4h15.9l16.6,53.4h-13l-4.1-13.7H80.6z M94.1,485.3L90.8,474
			c-1-3.2-1.9-7.1-2.7-10.3h-0.2c-0.8,3.2-1.6,7.2-2.5,10.3l-3.2,11.3H94.1z"/>
		<path class="st2" d="M120.1,455.3c3.9-0.6,9.7-1.1,16.1-1.1c7.9,0,13.5,1.2,17.3,4.2c3.2,2.5,4.9,6.3,4.9,11.2
			c0,6.8-4.8,11.5-9.4,13.2v0.2c3.7,1.5,5.8,5.1,7.1,10c1.7,6,3.3,13,4.4,15.1h-12.4c-0.9-1.5-2.1-5.9-3.7-12.4
			c-1.4-6.7-3.7-8.5-8.6-8.6h-3.6v21h-12V455.3z M132.1,478.3h4.8c6,0,9.6-3,9.6-7.7c0-4.9-3.3-7.4-8.9-7.5c-2.9,0-4.6,0.2-5.5,0.4
			V478.3z"/>
		<path class="st2" d="M167.1,454.6h12v23.6h0.2c1.2-2.1,2.5-4,3.6-5.9l12.1-17.8H210l-17.7,22.8l18.6,30.7h-14.1L183.7,485
			l-4.6,5.6v17.4h-12V454.6z"/>
		<path class="st4" d="M271.1,506.6c-2.2,1.1-7.2,2.3-13.7,2.3c-18.5,0-28-11.5-28-26.7c0-18.2,13-28.4,29.2-28.4
			c6.3,0,11,1.3,13.2,2.4l-2.5,9.6c-2.5-1-5.9-2-10.1-2c-9.6,0-17,5.8-17,17.7c0,10.7,6.3,17.4,17.1,17.4c3.6,0,7.7-0.8,10.1-1.7
			L271.1,506.6z"/>
		<path class="st4" d="M325.6,480.8c0,17.5-10.6,28.1-26.2,28.1c-15.9,0-25.1-12-25.1-27.2c0-16,10.2-28,26-28
			C316.6,453.8,325.6,466,325.6,480.8z M286.9,481.5c0,10.5,4.9,17.8,13,17.8c8.2,0,12.8-7.8,12.8-18.2c0-9.6-4.6-17.8-12.9-17.8
			C291.7,463.4,286.9,471.1,286.9,481.5z"/>
		<path class="st4" d="M378.7,487.6c-0.2-6.4-0.5-14.2-0.5-22H378c-1.7,6.8-3.9,14.4-5.9,20.7l-6.5,20.9h-9.4l-5.7-20.7
			c-1.7-6.3-3.6-13.9-4.8-20.9h-0.2c-0.3,7.2-0.6,15.5-1,22.1l-1,20.3h-11.2l3.4-53.4h16.1l5.2,17.8c1.7,6.2,3.3,12.8,4.5,19.1h0.2
			c1.5-6.2,3.3-13.2,5.1-19.2l5.7-17.8h15.8l2.9,53.4h-11.8L378.7,487.6z"/>
		<path class="st4" d="M445.8,487.6c-0.2-6.4-0.5-14.2-0.5-22H445c-1.7,6.8-3.9,14.4-5.9,20.7l-6.5,20.9h-9.4l-5.7-20.7
			c-1.7-6.3-3.6-13.9-4.8-20.9h-0.2c-0.3,7.2-0.6,15.5-1,22.1l-1,20.3h-11.2l3.4-53.4h16.1l5.2,17.8c1.7,6.2,3.3,12.8,4.5,19.1h0.2
			c1.5-6.2,3.3-13.2,5.1-19.2l5.7-17.8h15.8l2.9,53.4h-11.8L445.8,487.6z"/>
		<path class="st4" d="M479.7,454.6v30.8c0,9.2,3.5,13.9,9.7,13.9c6.3,0,9.8-4.4,9.8-13.9v-30.8h12.1v30c0,16.5-8.3,24.3-22.3,24.3
			c-13.5,0-21.4-7.5-21.4-24.5v-29.8H479.7z"/>
		<path class="st4" d="M521.7,508.1v-53.4h14.1l11.1,19.6c3.2,5.6,6.3,12.3,8.7,18.3h0.2c-0.8-7.1-1-14.3-1-22.3v-15.6H566v53.4
			h-12.7l-11.4-20.6c-3.2-5.7-6.7-12.6-9.3-18.9l-0.2,0.1c0.3,7.1,0.5,14.6,0.5,23.3v16.1H521.7z"/>
		<path class="st4" d="M588.6,454.6v53.4h-12.1v-53.4H588.6z"/>
		<path class="st4" d="M609.3,464.8H595v-10.1H636v10.1h-14.6v43.3h-12.1V464.8z"/>
		<path class="st4" d="M655.4,508.1v-21.9l-16.9-31.6h13.8l5.5,12.8c1.7,3.9,2.8,6.7,4.1,10.2h0.2c1.2-3.3,2.5-6.4,4-10.2l5.4-12.8
			H685l-17.6,31.2v22.3H655.4z"/>
		<path class="st4" d="M706.9,454.6h32.7v9.9H719v12.2h19.2v9.8H719v21.5h-12.1V454.6z"/>
		<path class="st4" d="M760.7,454.6v30.8c0,9.2,3.5,13.9,9.7,13.9c6.3,0,9.8-4.4,9.8-13.9v-30.8h12.1v30c0,16.5-8.3,24.3-22.3,24.3
			c-13.5,0-21.4-7.5-21.4-24.5v-29.8H760.7z"/>
		<path class="st4" d="M802.7,508.1v-53.4h14.1l11.1,19.6c3.2,5.6,6.3,12.3,8.7,18.3h0.2c-0.8-7.1-1-14.3-1-22.3v-15.6H847v53.4
			h-12.7l-11.4-20.6c-3.2-5.7-6.7-12.6-9.3-18.9l-0.2,0.1c0.3,7.1,0.5,14.6,0.5,23.3v16.1H802.7z"/>
		<path class="st4" d="M857.4,455.3c4.4-0.7,10.2-1.1,16.3-1.1c10.1,0,16.7,1.8,21.9,5.7c5.5,4.1,9,10.7,9,20.1
			c0,10.2-3.7,17.3-8.9,21.6c-5.6,4.7-14.2,6.9-24.7,6.9c-6.3,0-10.7-0.4-13.7-0.8V455.3z M869.5,499c1,0.2,2.7,0.2,4.2,0.2
			c10.9,0.1,18.1-5.9,18.1-18.7c0.1-11.1-6.4-17-16.8-17c-2.7,0-4.4,0.2-5.5,0.5V499z"/>
	</g>
	<polygon class="st2" points="485.5,176.8 722,413.3 485.5,51.9 	"/>
	<polygon class="st3" points="485.5,176.8 248.9,413.3 485.5,51.9 	"/>
</g>
<g>
</g>
<g>
</g>
<g>
</g>
<g>
</g>
<g>
</g>
</svg>
