<?xml version="1.0" encoding="utf-8"?>
<!-- Generator: Adobe Illustrator 20.1.0, SVG Export Plug-In . SVG Version: 6.00 Build 0)  -->
<svg version="1.1" id="Layer_1" xmlns="http://www.w3.org/2000/svg" xmlns:xlink="http://www.w3.org/1999/xlink" x="0px" y="0px"
	 viewBox="0 0 1920 1080" style="enable-background:new 0 0 1920 1080;" xml:space="preserve">
<style type="text/css">
	.st0{stroke:#000000;stroke-miterlimit:10;}
	.st1{fill:url(#SVGID_1_);}
	.st2{fill:url(#SVGID_2_);}
	.st3{fill:url(#SVGID_3_);}
	.st4{fill:url(#SVGID_4_);}
	.st5{fill:url(#SVGID_5_);}
	.st6{fill:url(#SVGID_6_);}
	.st7{fill:url(#SVGID_7_);}
	.st8{fill:url(#SVGID_8_);}
	.st9{fill:url(#SVGID_9_);}
	.st10{fill:url(#SVGID_10_);}
	.st11{fill:url(#SVGID_11_);}
	.st12{fill:url(#SVGID_12_);}
	.st13{fill:url(#SVGID_13_);}
	.st14{fill:url(#SVGID_14_);}
	.st15{fill:url(#SVGID_15_);}
	.st16{fill:url(#SVGID_16_);}
	.st17{fill:url(#SVGID_17_);}
	.st18{fill:url(#SVGID_18_);}
	.st19{fill:url(#SVGID_19_);}
	.st20{fill:url(#SVGID_20_);}
	.st21{fill:url(#SVGID_21_);}
	.st22{fill:url(#SVGID_22_);}
	.st23{fill:url(#SVGID_23_);}
	.st24{fill:url(#SVGID_24_);}
	.st25{fill:url(#SVGID_25_);}
	.st26{fill:url(#SVGID_26_);}
	.st27{fill:url(#SVGID_27_);}
	.st28{fill:url(#SVGID_28_);}
	.st29{fill:url(#SVGID_29_);}
	.st30{fill:url(#SVGID_30_);}
	.st31{fill:url(#SVGID_31_);}
	.st32{fill:url(#SVGID_32_);}
	.st33{fill:url(#SVGID_33_);}
	.st34{fill:url(#SVGID_34_);}
	.st35{fill:url(#SVGID_35_);}
	.st36{fill:url(#SVGID_36_);}
	.st37{fill:url(#SVGID_37_);}
	.st38{fill:url(#SVGID_38_);}
	.st39{fill:url(#SVGID_39_);}
	.st40{fill:url(#ring_3_);}
	.st41{fill:url(#SVGID_40_);}
	.st42{fill:url(#SVGID_41_);}
	.st43{fill:url(#SVGID_42_);}
	.st44{fill:url(#ring_4_);}
	.st45{fill:url(#SVGID_43_);}
	.st46{fill:url(#SVGID_44_);}
	.st47{fill:url(#SVGID_45_);}
	.st48{fill:url(#ring_5_);}
	.st49{fill:#AB1A1A;}
	.st50{fill:#B3B3B3;}
</style>
<rect x="-44.6" y="-62" class="st0" width="2075" height="1252"/>
<linearGradient id="SVGID_1_" gradientUnits="userSpaceOnUse" x1="2468.8765" y1="-274.05" x2="2678.3765" y2="-274.05" gradientTransform="matrix(-1 0 0 1 3076.4766 520)">
	<stop  offset="0" style="stop-color:#CC0000"/>
	<stop  offset="0.5225" style="stop-color:#A32321"/>
	<stop  offset="1" style="stop-color:#97272D"/>
</linearGradient>
<polygon class="st1" points="607.6,193.4 398.1,416 607.6,75.9 "/>
<linearGradient id="SVGID_2_" gradientUnits="userSpaceOnUse" x1="2259.3765" y1="-274.05" x2="2468.8765" y2="-274.05" gradientTransform="matrix(-1 0 0 1 3076.4766 520)">
	<stop  offset="0" style="stop-color:#CC0000"/>
	<stop  offset="0.5225" style="stop-color:#A32321"/>
	<stop  offset="1" style="stop-color:#97272D"/>
</linearGradient>
<polygon class="st2" points="607.6,193.4 817.1,416 607.6,75.9 "/>
<linearGradient id="SVGID_3_" gradientUnits="userSpaceOnUse" x1="2743.3625" y1="-349.0215" x2="2948.4646" y2="-76.9476" gradientTransform="matrix(-1 0 0 1 3076.4766 520)">
	<stop  offset="0" style="stop-color:#CC0000"/>
	<stop  offset="0.5225" style="stop-color:#A32321"/>
	<stop  offset="1" style="stop-color:#97272D"/>
</linearGradient>
<polygon class="st3" points="360.5,193.4 151,416 360.5,75.9 "/>
<linearGradient id="SVGID_4_" gradientUnits="userSpaceOnUse" x1="2611.2266" y1="-104" x2="2611.2266" y2="-444.1" gradientTransform="matrix(-1 0 0 1 3076.4766 520)">
	<stop  offset="0" style="stop-color:#CC0000"/>
	<stop  offset="0.5225" style="stop-color:#A32321"/>
	<stop  offset="1" style="stop-color:#97272D"/>
</linearGradient>
<polygon class="st4" points="360.5,193.4 570,416 360.5,75.9 "/>
<linearGradient id="SVGID_5_" gradientUnits="userSpaceOnUse" x1="2468.8765" y1="-274.05" x2="2678.3765" y2="-274.05" gradientTransform="matrix(-1 0 0 1 3076.4766 520)">
	<stop  offset="0" style="stop-color:#CC0000"/>
	<stop  offset="0.5225" style="stop-color:#A32321"/>
	<stop  offset="1" style="stop-color:#97272D"/>
</linearGradient>
<polygon class="st5" points="607.6,193.4 398.1,416 607.6,75.9 "/>
<linearGradient id="SVGID_6_" gradientUnits="userSpaceOnUse" x1="2259.3765" y1="-274.05" x2="2468.8765" y2="-274.05" gradientTransform="matrix(-1 0 0 1 3076.4766 520)">
	<stop  offset="0" style="stop-color:#CC0000"/>
	<stop  offset="0.5225" style="stop-color:#A32321"/>
	<stop  offset="1" style="stop-color:#97272D"/>
</linearGradient>
<polygon class="st6" points="607.6,193.4 817.1,416 607.6,75.9 "/>
<linearGradient id="SVGID_7_" gradientUnits="userSpaceOnUse" x1="2499.4104" y1="-344.5874" x2="2834.2705" y2="102.4509" gradientTransform="matrix(-1 0 0 1 3076.4766 520)">
	<stop  offset="0" style="stop-color:#CC0000"/>
	<stop  offset="0.5225" style="stop-color:#A32321"/>
	<stop  offset="1" style="stop-color:#97272D"/>
</linearGradient>
<polygon class="st7" points="607.6,193.4 398.1,416 607.6,75.9 "/>
<linearGradient id="SVGID_8_" gradientUnits="userSpaceOnUse" x1="2364.1265" y1="-105.409" x2="2364.1265" y2="-402.3623" gradientTransform="matrix(-1 0 0 1 3076.4766 520)">
	<stop  offset="0" style="stop-color:#CC0000"/>
	<stop  offset="0.5225" style="stop-color:#A32321"/>
	<stop  offset="1" style="stop-color:#97272D"/>
</linearGradient>
<polygon class="st8" points="607.6,193.4 817.1,416 607.6,75.9 "/>
<linearGradient id="SVGID_9_" gradientUnits="userSpaceOnUse" x1="2624.5061" y1="-339.2487" x2="2833.7937" y2="-46.246" gradientTransform="matrix(-1 0 0 1 3076.4766 520)">
	<stop  offset="0" style="stop-color:#CC0000"/>
	<stop  offset="0.5225" style="stop-color:#A32321"/>
	<stop  offset="1" style="stop-color:#97272D"/>
</linearGradient>
<polygon class="st9" points="484.9,193.4 275.4,416 484.9,75.9 "/>
<linearGradient id="SVGID_10_" gradientUnits="userSpaceOnUse" x1="2486.8267" y1="-95.5487" x2="2486.8267" y2="-617.5291" gradientTransform="matrix(-1 0 0 1 3076.4766 520)">
	<stop  offset="0" style="stop-color:#CC0000"/>
	<stop  offset="0.5225" style="stop-color:#A32321"/>
	<stop  offset="1" style="stop-color:#97272D"/>
</linearGradient>
<polygon class="st10" points="484.9,193.4 694.4,416 484.9,75.9 "/>
<linearGradient id="SVGID_11_" gradientUnits="userSpaceOnUse" x1="1847.0765" y1="-274.1" x2="1972.2766" y2="-274.1" gradientTransform="matrix(-1 0 0 1 3076.4766 520)">
	<stop  offset="0" style="stop-color:#0071BC"/>
	<stop  offset="0.5" style="stop-color:#113192"/>
	<stop  offset="1" style="stop-color:#1B1464"/>
</linearGradient>
<polygon class="st11" points="1229.4,214.5 1104.2,347.5 1229.4,144.3 "/>
<linearGradient id="SVGID_12_" gradientUnits="userSpaceOnUse" x1="1721.9766" y1="-274.1" x2="1847.0765" y2="-274.1" gradientTransform="matrix(-1 0 0 1 3076.4766 520)">
	<stop  offset="0" style="stop-color:#0071BC"/>
	<stop  offset="0.5" style="stop-color:#113192"/>
	<stop  offset="1" style="stop-color:#1B1464"/>
</linearGradient>
<polygon class="st12" points="1229.4,214.5 1354.5,347.5 1229.4,144.3 "/>
<linearGradient id="SVGID_13_" gradientUnits="userSpaceOnUse" x1="2011.0725" y1="-318.8503" x2="2133.5725" y2="-156.3503" gradientTransform="matrix(-1 0 0 1 3076.4766 520)">
	<stop  offset="0" style="stop-color:#0071BC"/>
	<stop  offset="0.5" style="stop-color:#113192"/>
	<stop  offset="1" style="stop-color:#1B1464"/>
</linearGradient>
<polygon class="st13" points="1081.8,214.5 956.6,347.5 1081.8,144.3 "/>
<linearGradient id="SVGID_14_" gradientUnits="userSpaceOnUse" x1="1932.1265" y1="-172.5" x2="1932.1265" y2="-375.7" gradientTransform="matrix(-1 0 0 1 3076.4766 520)">
	<stop  offset="0" style="stop-color:#0071BC"/>
	<stop  offset="0.5" style="stop-color:#113192"/>
	<stop  offset="1" style="stop-color:#1B1464"/>
</linearGradient>
<polygon class="st14" points="1081.8,214.5 1206.9,347.5 1081.8,144.3 "/>
<linearGradient id="SVGID_15_" gradientUnits="userSpaceOnUse" x1="1847.0765" y1="-274.1" x2="1972.2766" y2="-274.1" gradientTransform="matrix(-1 0 0 1 3076.4766 520)">
	<stop  offset="0" style="stop-color:#0071BC"/>
	<stop  offset="0.5" style="stop-color:#113192"/>
	<stop  offset="1" style="stop-color:#1B1464"/>
</linearGradient>
<polygon class="st15" points="1229.4,214.5 1104.2,347.5 1229.4,144.3 "/>
<linearGradient id="SVGID_16_" gradientUnits="userSpaceOnUse" x1="1721.9766" y1="-274.1" x2="1847.0765" y2="-274.1" gradientTransform="matrix(-1 0 0 1 3076.4766 520)">
	<stop  offset="0" style="stop-color:#0071BC"/>
	<stop  offset="0.5" style="stop-color:#113192"/>
	<stop  offset="1" style="stop-color:#1B1464"/>
</linearGradient>
<polygon class="st16" points="1229.4,214.5 1354.5,347.5 1229.4,144.3 "/>
<linearGradient id="SVGID_17_" gradientUnits="userSpaceOnUse" x1="1865.3582" y1="-316.1941" x2="2065.3582" y2="-49.1941" gradientTransform="matrix(-1 0 0 1 3076.4766 520)">
	<stop  offset="0" style="stop-color:#0071BC"/>
	<stop  offset="0.5" style="stop-color:#113192"/>
	<stop  offset="1" style="stop-color:#1B1464"/>
</linearGradient>
<polygon class="st17" points="1229.4,214.5 1104.2,347.5 1229.4,144.3 "/>
<linearGradient id="SVGID_18_" gradientUnits="userSpaceOnUse" x1="1784.5266" y1="-173.3445" x2="1784.5266" y2="-350.704" gradientTransform="matrix(-1 0 0 1 3076.4766 520)">
	<stop  offset="0" style="stop-color:#0071BC"/>
	<stop  offset="0.5" style="stop-color:#113192"/>
	<stop  offset="1" style="stop-color:#1B1464"/>
</linearGradient>
<polygon class="st18" points="1229.4,214.5 1354.5,347.5 1229.4,144.3 "/>
<linearGradient id="SVGID_19_" gradientUnits="userSpaceOnUse" x1="1940.0823" y1="-313.0121" x2="2065.0823" y2="-138.0121" gradientTransform="matrix(-1 0 0 1 3076.4766 520)">
	<stop  offset="0" style="stop-color:#0071BC"/>
	<stop  offset="0.5" style="stop-color:#113192"/>
	<stop  offset="1" style="stop-color:#1B1464"/>
</linearGradient>
<polygon class="st19" points="1156.1,214.5 1030.9,347.5 1156.1,144.3 "/>
<linearGradient id="SVGID_20_" gradientUnits="userSpaceOnUse" x1="1857.8267" y1="-167.4553" x2="1857.8267" y2="-479.2155" gradientTransform="matrix(-1 0 0 1 3076.4766 520)">
	<stop  offset="0" style="stop-color:#0071BC"/>
	<stop  offset="0.5" style="stop-color:#113192"/>
	<stop  offset="1" style="stop-color:#1B1464"/>
</linearGradient>
<polygon class="st20" points="1156.1,214.5 1281.2,347.5 1156.1,144.3 "/>
<linearGradient id="SVGID_21_" gradientUnits="userSpaceOnUse" x1="1407.0765" y1="-274.1" x2="1532.1765" y2="-274.1" gradientTransform="matrix(-1 0 0 1 3076.4766 520)">
	<stop  offset="0" style="stop-color:#B3B3B3"/>
	<stop  offset="1" style="stop-color:#131313"/>
</linearGradient>
<polygon class="st21" points="1669.4,214.5 1544.3,347.5 1669.4,144.3 "/>
<linearGradient id="SVGID_22_" gradientUnits="userSpaceOnUse" x1="1281.8766" y1="-274.1" x2="1407.0765" y2="-274.1" gradientTransform="matrix(-1 0 0 1 3076.4766 520)">
	<stop  offset="0" style="stop-color:#B3B3B3"/>
	<stop  offset="1" style="stop-color:#131313"/>
</linearGradient>
<polygon class="st22" points="1669.4,214.5 1794.6,347.5 1669.4,144.3 "/>
<linearGradient id="SVGID_23_" gradientUnits="userSpaceOnUse" x1="1570.9763" y1="-318.8451" x2="1693.4763" y2="-156.3451" gradientTransform="matrix(-1 0 0 1 3076.4766 520)">
	<stop  offset="0" style="stop-color:#B3B3B3"/>
	<stop  offset="1" style="stop-color:#131313"/>
</linearGradient>
<polygon class="st23" points="1521.9,214.5 1396.7,347.5 1521.9,144.3 "/>
<linearGradient id="SVGID_24_" gradientUnits="userSpaceOnUse" x1="1492.0266" y1="-172.5" x2="1492.0266" y2="-375.7" gradientTransform="matrix(-1 0 0 1 3076.4766 520)">
	<stop  offset="0" style="stop-color:#B3B3B3"/>
	<stop  offset="1" style="stop-color:#131313"/>
</linearGradient>
<polygon class="st24" points="1521.9,214.5 1647,347.5 1521.9,144.3 "/>
<linearGradient id="SVGID_25_" gradientUnits="userSpaceOnUse" x1="1407.0765" y1="-274.1" x2="1532.1765" y2="-274.1" gradientTransform="matrix(-1 0 0 1 3076.4766 520)">
	<stop  offset="0" style="stop-color:#B3B3B3"/>
	<stop  offset="1" style="stop-color:#131313"/>
</linearGradient>
<polygon class="st25" points="1669.4,214.5 1544.3,347.5 1669.4,144.3 "/>
<linearGradient id="SVGID_26_" gradientUnits="userSpaceOnUse" x1="1281.8766" y1="-274.1" x2="1407.0765" y2="-274.1" gradientTransform="matrix(-1 0 0 1 3076.4766 520)">
	<stop  offset="0" style="stop-color:#B3B3B3"/>
	<stop  offset="1" style="stop-color:#131313"/>
</linearGradient>
<polygon class="st26" points="1669.4,214.5 1794.6,347.5 1669.4,144.3 "/>
<linearGradient id="SVGID_27_" gradientUnits="userSpaceOnUse" x1="1425.326" y1="-316.237" x2="1625.326" y2="-49.2369" gradientTransform="matrix(-1 0 0 1 3076.4766 520)">
	<stop  offset="0" style="stop-color:#B3B3B3"/>
	<stop  offset="1" style="stop-color:#131313"/>
</linearGradient>
<polygon class="st27" points="1669.4,214.5 1544.3,347.5 1669.4,144.3 "/>
<linearGradient id="SVGID_28_" gradientUnits="userSpaceOnUse" x1="1344.4766" y1="-173.3445" x2="1344.4766" y2="-350.704" gradientTransform="matrix(-1 0 0 1 3076.4766 520)">
	<stop  offset="0" style="stop-color:#B3B3B3"/>
	<stop  offset="1" style="stop-color:#131313"/>
</linearGradient>
<polygon class="st28" points="1669.4,214.5 1794.6,347.5 1669.4,144.3 "/>
<linearGradient id="SVGID_29_" gradientUnits="userSpaceOnUse" x1="1499.9858" y1="-313.0071" x2="1624.9858" y2="-138.0071" gradientTransform="matrix(-1 0 0 1 3076.4766 520)">
	<stop  offset="0" style="stop-color:#B3B3B3"/>
	<stop  offset="1" style="stop-color:#131313"/>
</linearGradient>
<polygon class="st29" points="1596.2,214.5 1471,347.5 1596.2,144.3 "/>
<linearGradient id="SVGID_30_" gradientUnits="userSpaceOnUse" x1="1417.7266" y1="-167.4553" x2="1417.7266" y2="-479.2155" gradientTransform="matrix(-1 0 0 1 3076.4766 520)">
	<stop  offset="0" style="stop-color:#B3B3B3"/>
	<stop  offset="1" style="stop-color:#131313"/>
</linearGradient>
<polygon class="st30" points="1596.2,214.5 1721.3,347.5 1596.2,144.3 "/>
<linearGradient id="SVGID_31_" gradientUnits="userSpaceOnUse" x1="486.8864" y1="129.8242" x2="747.6134" y2="454.6875" gradientTransform="matrix(1 0 0 1 0 520)">
	<stop  offset="0" style="stop-color:#CC0000"/>
	<stop  offset="0.5225" style="stop-color:#A32321"/>
	<stop  offset="1" style="stop-color:#97272D"/>
</linearGradient>
<polygon class="st31" points="484.7,715 742,972.3 484.7,579.2 "/>
<linearGradient id="SVGID_32_" gradientUnits="userSpaceOnUse" x1="227.0806" y1="467.3257" x2="483.6249" y2="128.5199" gradientTransform="matrix(1 0 0 1 0 520)">
	<stop  offset="0" style="stop-color:#CC0000"/>
	<stop  offset="0.5225" style="stop-color:#A32321"/>
	<stop  offset="1" style="stop-color:#97272D"/>
</linearGradient>
<polygon class="st32" points="484.7,715 227.3,972.3 484.7,579.2 "/>
<linearGradient id="SVGID_33_" gradientUnits="userSpaceOnUse" x1="1148.4" y1="255.7" x2="1333" y2="255.7" gradientTransform="matrix(1 0 0 1 0 520)">
	<stop  offset="0" style="stop-color:#0071BC"/>
	<stop  offset="0.5" style="stop-color:#113192"/>
	<stop  offset="1" style="stop-color:#1B1464"/>
</linearGradient>
<polygon class="st33" points="1148.4,732.1 1333,916.7 1148.4,634.7 "/>
<linearGradient id="SVGID_34_" gradientUnits="userSpaceOnUse" x1="1012.5272" y1="255.7" x2="1134.5436" y2="255.7" gradientTransform="matrix(1 0 0 1 0 520)">
	<stop  offset="0" style="stop-color:#0071BC"/>
	<stop  offset="0.5" style="stop-color:#113192"/>
	<stop  offset="1" style="stop-color:#1B1464"/>
</linearGradient>
<polygon class="st34" points="1148.4,732.1 963.8,916.7 1148.4,634.7 "/>
<linearGradient id="SVGID_35_" gradientUnits="userSpaceOnUse" x1="1610.3099" y1="264.3571" x2="1724.3099" y2="264.8571" gradientTransform="matrix(1 0 0 1 0 520)">
	<stop  offset="0" style="stop-color:#999999"/>
	<stop  offset="1.510495e-02" style="stop-color:#969696"/>
	<stop  offset="0.2401" style="stop-color:#6A6A6A"/>
	<stop  offset="0.4572" style="stop-color:#474747"/>
	<stop  offset="0.6614" style="stop-color:#2E2E2E"/>
	<stop  offset="0.8478" style="stop-color:#1F1F1F"/>
	<stop  offset="1" style="stop-color:#1A1A1A"/>
</linearGradient>
<polygon class="st35" points="1596.2,741.1 1780.8,925.7 1596.2,643.7 "/>
<linearGradient id="SVGID_36_" gradientUnits="userSpaceOnUse" x1="1460.3418" y1="264.7" x2="1582.3583" y2="264.7" gradientTransform="matrix(1 0 0 1 0 520)">
	<stop  offset="0" style="stop-color:#999999"/>
	<stop  offset="1.510495e-02" style="stop-color:#969696"/>
	<stop  offset="0.2401" style="stop-color:#6A6A6A"/>
	<stop  offset="0.4572" style="stop-color:#474747"/>
	<stop  offset="0.6614" style="stop-color:#2E2E2E"/>
	<stop  offset="0.8478" style="stop-color:#1F1F1F"/>
	<stop  offset="1" style="stop-color:#1A1A1A"/>
</linearGradient>
<polygon class="st36" points="1596.2,741.1 1411.7,925.7 1596.2,643.7 "/>
<g>
	
		<linearGradient id="SVGID_37_" gradientUnits="userSpaceOnUse" x1="446.9799" y1="233.7941" x2="527.9431" y2="156.6697" gradientTransform="matrix(1 0 0 -1 0 1080)">
		<stop  offset="0" style="stop-color:#CC0000"/>
		<stop  offset="0.3425" style="stop-color:#A32321"/>
		<stop  offset="1" style="stop-color:#7A272D"/>
	</linearGradient>
	<circle class="st37" cx="487.6" cy="884.9" r="56.1"/>
	<g>
		
			<linearGradient id="SVGID_38_" gradientUnits="userSpaceOnUse" x1="391.066" y1="340.8246" x2="584.0073" y2="340.8246" gradientTransform="matrix(1 0 0 1 0 520)">
			<stop  offset="0" style="stop-color:#999999"/>
			<stop  offset="1" style="stop-color:#1A1A1A"/>
		</linearGradient>
		<path class="st38" d="M418.8,866.9c-18.8-12.3-21.1-18.4-20.7-19.4c0.2-0.5,2.2-1.6,7.6-1.6c4.4,0,11,0.7,20.7,2.7
			c4.8,1,10,2.3,15.5,3.9c1.5-2.1,3-4,4.7-5.8c-26.3-7.7-50.9-11.6-55-1.9c-4.1,9.7,16,24.5,40,37.8c0.1-2.5,0.4-5,0.8-7.5
			C427.5,872.4,422.9,869.6,418.8,866.9z"/>
		
			<linearGradient id="SVGID_39_" gradientUnits="userSpaceOnUse" x1="391.0582" y1="389.1" x2="583.9995" y2="389.1" gradientTransform="matrix(1 0 0 1 0 520)">
			<stop  offset="0" style="stop-color:#999999"/>
			<stop  offset="1" style="stop-color:#1A1A1A"/>
		</linearGradient>
		<path class="st39" d="M543.6,887.3c-0.1,2.5-0.4,5-0.8,7.5c4.9,2.8,9.5,5.6,13.6,8.3c18.8,12.3,21.1,18.4,20.7,19.4
			c-0.4,0.9-6.4,3.5-28.3-1.2c-4.8-1-10-2.3-15.5-3.9c-1.5,2.1-3,4-4.7,5.8c15.2,4.5,29.9,7.7,40.4,7.7c7.5,0,12.9-1.7,14.6-5.7
			C587.6,915.5,567.5,900.7,543.6,887.3z"/>
		
			<linearGradient id="ring_3_" gradientUnits="userSpaceOnUse" x1="391.0582" y1="379.25" x2="583.9995" y2="379.25" gradientTransform="matrix(1 0 0 1 0 520)">
			<stop  offset="0" style="stop-color:#999999"/>
			<stop  offset="1" style="stop-color:#1A1A1A"/>
		</linearGradient>
		<path id="ring_1_" class="st40" d="M481.7,899.1c-18.2-7.6-35.2-15.9-49.3-23.9c-0.4,2.5-0.7,5-0.8,7.5c16.1,9,34,17.3,47.4,22.9
			c13.4,5.6,31.8,12.5,49.6,17.7c1.7-1.8,3.3-3.8,4.7-5.8C517.7,913,499.9,906.7,481.7,899.1z"/>
	</g>
</g>
<g>
	
		<linearGradient id="SVGID_40_" gradientUnits="userSpaceOnUse" x1="1120.3063" y1="247.5617" x2="1176.2474" y2="194.2729" gradientTransform="matrix(1 0 0 -1 0 1080)">
		<stop  offset="0" style="stop-color:#0071BC"/>
		<stop  offset="0.5" style="stop-color:#113192"/>
		<stop  offset="1" style="stop-color:#1B1464"/>
	</linearGradient>
	<circle class="st41" cx="1148.4" cy="859.2" r="38.8"/>
	<g>
		
			<linearGradient id="SVGID_41_" gradientUnits="userSpaceOnUse" x1="1081.7391" y1="322.6644" x2="1215.0511" y2="322.6644" gradientTransform="matrix(1 0 0 1 0 520)">
			<stop  offset="0" style="stop-color:#999999"/>
			<stop  offset="1" style="stop-color:#1A1A1A"/>
		</linearGradient>
		<path class="st42" d="M1100.9,846.8c-13-8.5-14.6-12.7-14.3-13.4c0.1-0.3,1.5-1.1,5.3-1.1c3,0,7.6,0.5,14.3,1.9
			c3.3,0.7,6.9,1.6,10.7,2.7c1-1.5,2.1-2.8,3.2-4c-18.2-5.3-35.2-8-38-1.3s11.1,16.9,27.6,26.1c0.1-1.7,0.3-3.5,0.6-5.2
			C1106.9,850.6,1103.7,848.6,1100.9,846.8z"/>
		
			<linearGradient id="SVGID_42_" gradientUnits="userSpaceOnUse" x1="1081.7294" y1="355.95" x2="1215.0414" y2="355.95" gradientTransform="matrix(1 0 0 1 0 520)">
			<stop  offset="0" style="stop-color:#999999"/>
			<stop  offset="1" style="stop-color:#1A1A1A"/>
		</linearGradient>
		<path class="st43" d="M1187.1,860.9c-0.1,1.7-0.3,3.5-0.6,5.2c3.4,1.9,6.6,3.9,9.4,5.7c13,8.5,14.6,12.7,14.3,13.4
			c-0.3,0.6-4.4,2.4-19.6-0.8c-3.3-0.7-6.9-1.6-10.7-2.7c-1,1.5-2.1,2.8-3.2,4c10.5,3.1,20.7,5.3,27.9,5.3c5.2,0,8.9-1.2,10.1-3.9
			C1217.5,880.4,1203.6,870.1,1187.1,860.9z"/>
		
			<linearGradient id="ring_4_" gradientUnits="userSpaceOnUse" x1="1081.7294" y1="349.1" x2="1215.0414" y2="349.1" gradientTransform="matrix(1 0 0 1 0 520)">
			<stop  offset="0" style="stop-color:#999999"/>
			<stop  offset="1" style="stop-color:#1A1A1A"/>
		</linearGradient>
		<path id="ring_2_" class="st44" d="M1144.3,869c-12.6-5.3-24.3-11-34.1-16.5c-0.3,1.7-0.5,3.5-0.6,5.2c11.1,6.2,23.5,12,32.8,15.8
			c9.3,3.9,22,8.6,34.3,12.2c1.2-1.2,2.3-2.6,3.2-4C1169.2,878.6,1156.9,874.3,1144.3,869z"/>
	</g>
</g>
<linearGradient id="SVGID_43_" gradientUnits="userSpaceOnUse" x1="1571.5891" y1="246.0686" x2="1628.0232" y2="192.3103" gradientTransform="matrix(1 0 0 -1 0 1080)">
	<stop  offset="0" style="stop-color:#999999"/>
	<stop  offset="1.510495e-02" style="stop-color:#969696"/>
	<stop  offset="0.2401" style="stop-color:#6A6A6A"/>
	<stop  offset="0.4572" style="stop-color:#474747"/>
	<stop  offset="0.6614" style="stop-color:#2E2E2E"/>
	<stop  offset="0.8478" style="stop-color:#1F1F1F"/>
	<stop  offset="1" style="stop-color:#1A1A1A"/>
</linearGradient>
<circle class="st45" cx="1599.9" cy="860.9" r="39.1"/>
<g>
	
		<linearGradient id="SVGID_44_" gradientUnits="userSpaceOnUse" x1="1532.6471" y1="324.2279" x2="1667.134" y2="324.2279" gradientTransform="matrix(1 0 0 1 0 520)">
		<stop  offset="0" style="stop-color:#999999"/>
		<stop  offset="1" style="stop-color:#1A1A1A"/>
	</linearGradient>
	<path class="st46" d="M1552,848.4c-13.1-8.6-14.7-12.8-14.4-13.5c0.1-0.3,1.5-1.1,5.3-1.1c3.1,0,7.7,0.5,14.4,1.9
		c3.3,0.7,7,1.6,10.8,2.7c1-1.5,2.1-2.8,3.3-4c-18.3-5.4-35.5-8.1-38.3-1.3c-2.9,6.8,11.2,17.1,27.9,26.3c0.1-1.7,0.3-3.5,0.6-5.2
		C1558,852.2,1554.8,850.2,1552,848.4z"/>
	
		<linearGradient id="SVGID_45_" gradientUnits="userSpaceOnUse" x1="1532.6682" y1="357.8" x2="1667.1552" y2="357.8" gradientTransform="matrix(1 0 0 1 0 520)">
		<stop  offset="0" style="stop-color:#999999"/>
		<stop  offset="1" style="stop-color:#1A1A1A"/>
	</linearGradient>
	<path class="st47" d="M1639,862.6c-0.1,1.7-0.3,3.5-0.6,5.2c3.4,2,6.6,3.9,9.5,5.8c13.1,8.6,14.7,12.8,14.4,13.5
		c-0.3,0.6-4.5,2.4-19.7-0.8c-3.3-0.7-7-1.6-10.8-2.7c-1,1.5-2.1,2.8-3.3,4c10.6,3.1,20.8,5.4,28.2,5.4c5.2,0,9-1.2,10.2-4
		C1669.6,882.2,1655.6,871.9,1639,862.6z"/>
	
		<linearGradient id="ring_5_" gradientUnits="userSpaceOnUse" x1="1532.6682" y1="350.85" x2="1667.1552" y2="350.85" gradientTransform="matrix(1 0 0 1 0 520)">
		<stop  offset="0" style="stop-color:#999999"/>
		<stop  offset="1" style="stop-color:#1A1A1A"/>
	</linearGradient>
	<path id="ring" class="st48" d="M1595.8,870.8c-12.7-5.3-24.5-11.1-34.4-16.7c-0.3,1.7-0.5,3.5-0.6,5.2c11.2,6.3,23.7,12.1,33,16
		s22.2,8.7,34.6,12.3c1.2-1.3,2.3-2.6,3.3-4C1620.9,880.5,1608.5,876.1,1595.8,870.8z"/>
</g>
<path class="st49" d="M165.3,487.3l-3,10.8h-9.9l12.9-42.3h12.5l13.1,42.3h-10.3l-3.3-10.8H165.3z M176,480.2l-2.6-9
	c-0.8-2.5-1.5-5.6-2.1-8.2h-0.1c-0.6,2.5-1.3,5.7-1.9,8.2l-2.5,9H176z"/>
<path class="st49" d="M196.6,456.5c3.1-0.5,7.7-0.9,12.7-0.9c6.3,0,10.7,0.9,13.7,3.3c2.5,2,3.9,5,3.9,8.8c0,5.4-3.8,9.1-7.5,10.4
	v0.2c2.9,1.2,4.6,4,5.6,7.9c1.3,4.8,2.6,10.3,3.4,11.9h-9.8c-0.7-1.2-1.7-4.6-2.9-9.8c-1.1-5.3-2.9-6.7-6.8-6.8H206v16.6h-9.5v-41.6
	H196.6z M206,474.7h3.8c4.8,0,7.6-2.4,7.6-6.1c0-3.9-2.6-5.8-7-5.9c-2.3,0-3.6,0.2-4.3,0.3v11.7H206z"/>
<path class="st49" d="M233.8,455.9h9.5v18.7h0.2c0.9-1.6,1.9-3.1,2.9-4.6l9.6-14h11.7l-14,18l14.7,24.3h-11.2L246.9,480l-3.6,4.5
	v13.8h-9.5L233.8,455.9L233.8,455.9z"/>
<path class="st50" d="M316,497c-1.8,0.9-5.7,1.8-10.8,1.8c-14.6,0-22.1-9.1-22.1-21.1c0-14.4,10.3-22.5,23.1-22.5
	c5,0,8.7,1,10.4,1.9l-1.9,7.6c-1.9-0.8-4.6-1.6-8-1.6c-7.6,0-13.5,4.6-13.5,14c0,8.5,5,13.8,13.5,13.8c2.9,0,6.1-0.6,8-1.4L316,497z
	"/>
<path class="st50" d="M359.1,476.6c0,13.9-8.4,22.3-20.8,22.3c-12.5,0-19.9-9.5-19.9-21.5c0-12.7,8.1-22.1,20.6-22.1
	C352,455.2,359.1,464.9,359.1,476.6z M328.5,477.2c0,8.3,3.9,14.1,10.3,14.1c6.5,0,10.2-6.1,10.2-14.4c0-7.6-3.6-14.1-10.2-14.1
	C332.3,462.8,328.5,469,328.5,477.2z"/>
<path class="st50" d="M401.1,482c-0.2-5.1-0.4-11.2-0.4-17.4h-0.2c-1.3,5.4-3.1,11.4-4.7,16.4l-5.1,16.5h-7.5l-4.5-16.4
	c-1.4-5-2.8-11-3.8-16.5h-0.1c-0.3,5.7-0.4,12.2-0.8,17.5l-0.8,16.1h-8.8l2.7-42.3h12.7l4.1,14.1c1.3,4.9,2.6,10.2,3.6,15.1h0.2
	c1.2-4.9,2.6-10.5,4-15.2l4.5-14h12.5l2.3,42.3h-9.3L401.1,482z"/>
<path class="st50" d="M454.1,482c-0.2-5.1-0.4-11.2-0.4-17.4h-0.2c-1.3,5.4-3.1,11.4-4.7,16.4l-5.1,16.5h-7.5l-4.5-16.4
	c-1.4-5-2.8-11-3.8-16.5h-0.1c-0.3,5.7-0.4,12.2-0.8,17.5l-0.8,16.1h-8.8l2.7-42.3h12.7l4.1,14.1c1.3,4.9,2.6,10.2,3.6,15.1h0.2
	c1.2-4.9,2.6-10.5,4-15.2l4.5-14h12.5l2.3,42.3h-9.3L454.1,482z"/>
<path class="st50" d="M481,455.9v24.3c0,7.3,2.8,11,7.7,11c5,0,7.8-3.5,7.8-11v-24.3h9.5v23.7c0,13-6.6,19.3-17.6,19.3
	c-10.7,0-16.9-5.9-16.9-19.4v-23.6H481z"/>
<path class="st50" d="M514.2,498.2v-42.3h11.2l8.8,15.5c2.5,4.5,5,9.7,6.9,14.5h0.2c-0.6-5.6-0.8-11.3-0.8-17.6v-12.4h8.8v42.3h-10
	l-9-16.3c-2.5-4.5-5.3-10-7.3-14.9l-0.2,0.1c0.3,5.6,0.4,11.5,0.4,18.4v12.7L514.2,498.2L514.2,498.2z"/>
<path class="st50" d="M567.1,455.9v42.3h-9.6v-42.3H567.1z"/>
<path class="st50" d="M583.5,463.9h-11.4v-8h32.5v8h-11.5v34.2h-9.6V463.9z"/>
<path class="st50" d="M619.9,498.2v-17.3l-13.4-25h10.9l4.3,10.2c1.3,3.1,2.2,5.3,3.3,8.1h0.1c0.9-2.6,1.9-5.1,3.2-8.1l4.3-10.2
	h10.7l-13.9,24.6v17.6L619.9,498.2L619.9,498.2z"/>
<path class="st50" d="M660.6,455.9h25.8v7.8h-16.2v9.7h15.2v7.8h-15.2v17h-9.6V455.9z"/>
<path class="st50" d="M703.2,455.9v24.3c0,7.3,2.8,11,7.7,11c5,0,7.8-3.5,7.8-11v-24.3h9.5v23.7c0,13-6.6,19.3-17.6,19.3
	c-10.7,0-16.9-5.9-16.9-19.4v-23.6H703.2z"/>
<path class="st50" d="M736.4,498.2v-42.3h11.2l8.8,15.5c2.5,4.5,5,9.7,6.9,14.5h0.2c-0.6-5.6-0.8-11.3-0.8-17.6v-12.4h8.8v42.3h-10
	l-9-16.3c-2.5-4.5-5.3-10-7.3-14.9l-0.2,0.1c0.3,5.6,0.4,11.5,0.4,18.4v12.7L736.4,498.2L736.4,498.2z"/>
<path class="st50" d="M779.7,456.5c3.5-0.6,8.1-0.9,12.9-0.9c8,0,13.2,1.4,17.3,4.5c4.4,3.3,7.1,8.5,7.1,15.9c0,8.1-2.9,13.7-7,17.1
	c-4.5,3.7-11.2,5.5-19.5,5.5c-5,0-8.5-0.3-10.8-0.6V456.5z M789.3,491c0.8,0.2,2.1,0.2,3.3,0.2c8.7,0.1,14.3-4.7,14.3-14.8
	c0.1-8.8-5.1-13.4-13.3-13.4c-2.1,0-3.5,0.2-4.3,0.4V491z"/>
<path class="st49" d="M238.4,1025.3l-2.3,8.4h-7.6l10-32.6h9.7l10.1,32.6h-8l-2.5-8.4L238.4,1025.3L238.4,1025.3z M246.7,1019.8
	l-2-6.9c-0.6-1.9-1.2-4.4-1.6-6.3H243c-0.5,1.9-1,4.4-1.5,6.3l-1.9,6.9H246.7z"/>
<path class="st49" d="M262.5,1001.5c2.4-0.4,5.9-0.7,9.8-0.7c4.8,0,8.2,0.7,10.5,2.6c1.9,1.5,3,3.8,3,6.8c0,4.2-3,7-5.8,8v0.1
	c2.3,0.9,3.5,3.1,4.4,6.1c1,3.7,2,7.9,2.7,9.2h-7.5c-0.5-0.9-1.3-3.6-2.3-7.6c-0.9-4.1-2.3-5.2-5.3-5.2h-2.2v12.8h-7.3L262.5,1001.5
	L262.5,1001.5z M269.9,1015.5h2.9c3.7,0,5.9-1.8,5.9-4.7c0-3-2-4.5-5.4-4.5c-1.8,0-2.8,0.1-3.3,0.2v9H269.9z"/>
<path class="st49" d="M291.2,1001.1h7.3v14.4h0.1c0.7-1.3,1.5-2.4,2.2-3.6l7.4-10.8h9l-10.8,13.9l11.4,18.7h-8.5l-8-14.1l-2.8,3.4
	v10.6h-7.3L291.2,1001.1L291.2,1001.1z"/>
<path class="st50" d="M354.6,1032.7c-1.4,0.7-4.4,1.4-8.4,1.4c-11.3,0-17.1-7-17.1-16.3c0-11.1,7.9-17.3,17.8-17.3
	c3.8,0,6.7,0.8,8,1.5l-1.5,5.9c-1.5-0.6-3.6-1.2-6.2-1.2c-5.9,0-10.4,3.5-10.4,10.8c0,6.5,3.9,10.6,10.4,10.6c2.2,0,4.7-0.5,6.1-1.1
	L354.6,1032.7z"/>
<path class="st50" d="M387.9,1017c0,10.7-6.5,17.2-16,17.2c-9.7,0-15.3-7.3-15.3-16.6c0-9.8,6.2-17.1,15.9-17.1
	C382.4,1000.5,387.9,1008,387.9,1017z M364.3,1017.4c0,6.4,3,10.9,7.9,10.9c5,0,7.8-4.7,7.8-11.1c0-5.9-2.8-10.9-7.9-10.9
	C367.2,1006.4,364.3,1011.1,364.3,1017.4z"/>
<path class="st50" d="M420.3,1021.2c-0.1-3.9-0.3-8.7-0.3-13.4h-0.1c-1,4.2-2.4,8.8-3.6,12.6l-4,12.7h-5.8l-3.5-12.6
	c-1.1-3.8-2.2-8.5-3-12.7h-0.1c-0.2,4.4-0.3,9.4-0.6,13.5l-0.6,12.4h-6.8l2.1-32.6h9.8l3.2,10.9c1,3.8,2,7.8,2.8,11.7h0.1
	c0.9-3.8,2-8.1,3.1-11.7l3.5-10.8h9.6l1.8,32.6h-7.2L420.3,1021.2z"/>
<path class="st50" d="M461.2,1021.2c-0.1-3.9-0.3-8.7-0.3-13.4h-0.1c-1,4.2-2.4,8.8-3.6,12.6l-4,12.7h-5.8l-3.5-12.6
	c-1.1-3.8-2.2-8.5-3-12.7h-0.1c-0.2,4.4-0.3,9.4-0.6,13.5l-0.6,12.4h-6.8l2.1-32.6h9.8l3.2,10.9c1,3.8,2,7.8,2.8,11.7h0.1
	c0.9-3.8,2-8.1,3.1-11.7l3.5-10.8h9.6l1.8,32.6h-7.2L461.2,1021.2z"/>
<path class="st50" d="M481.9,1001.1v18.8c0,5.6,2.1,8.5,5.9,8.5c3.9,0,6-2.7,6-8.5v-18.8h7.4v18.3c0,10.1-5.1,14.8-13.6,14.8
	c-8.2,0-13.1-4.5-13.1-14.9v-18.2L481.9,1001.1L481.9,1001.1z"/>
<path class="st50" d="M507.5,1033.7v-32.6h8.6l6.8,11.9c1.9,3.4,3.9,7.5,5.3,11.2h0.1c-0.5-4.3-0.6-8.7-0.6-13.6v-9.5h6.8v32.6h-7.7
	l-7-12.6c-1.9-3.5-4.1-7.7-5.7-11.5H514c0.2,4.3,0.3,8.9,0.3,14.2v9.8L507.5,1033.7L507.5,1033.7z"/>
<path class="st50" d="M548.3,1001.1v32.6h-7.4v-32.6H548.3z"/>
<path class="st50" d="M561,1007.2h-8.8v-6.2h25.1v6.2h-8.9v26.4H561L561,1007.2L561,1007.2z"/>
<path class="st50" d="M589.1,1033.7v-13.4l-10.3-19.3h8.4l3.3,7.8c1,2.4,1.7,4.1,2.5,6.2h0.1c0.7-2,1.5-3.9,2.5-6.2l3.3-7.8h8.3
	l-10.7,19v13.6L589.1,1033.7L589.1,1033.7z"/>
<path class="st50" d="M620.5,1001.1h19.9v6H628v7.4h11.7v6H628v13.1h-7.4V1001.1z"/>
<path class="st50" d="M653.3,1001.1v18.8c0,5.6,2.1,8.5,5.9,8.5c3.9,0,6-2.7,6-8.5v-18.8h7.4v18.3c0,10.1-5.1,14.8-13.6,14.8
	c-8.2,0-13.1-4.5-13.1-14.9v-18.2L653.3,1001.1L653.3,1001.1z"/>
<path class="st50" d="M679,1033.7v-32.6h8.6l6.8,11.9c1.9,3.4,3.9,7.5,5.3,11.2h0.1c-0.5-4.3-0.6-8.7-0.6-13.6v-9.5h6.8v32.6h-7.7
	l-7-12.6c-1.9-3.5-4.1-7.7-5.7-11.5h-0.1c0.2,4.3,0.3,8.9,0.3,14.2v9.8L679,1033.7L679,1033.7z"/>
<path class="st50" d="M712.3,1001.5c2.7-0.4,6.2-0.7,10-0.7c6.2,0,10.2,1.1,13.4,3.5c3.4,2.5,5.5,6.5,5.5,12.3
	c0,6.2-2.3,10.5-5.4,13.2c-3.4,2.9-8.7,4.2-15,4.2c-3.8,0-6.5-0.2-8.4-0.5L712.3,1001.5L712.3,1001.5z M719.8,1028.1
	c0.6,0.1,1.6,0.1,2.6,0.1c6.7,0,11-3.6,11-11.4c0-6.8-3.9-10.4-10.3-10.4c-1.6,0-2.7,0.1-3.3,0.3V1028.1z"/>
</svg>
