<?xml version="1.0" encoding="utf-8"?>
<!-- Generator: Adobe Illustrator 20.1.0, SVG Export Plug-In . SVG Version: 6.00 Build 0)  -->
<svg version="1.1" id="Layer_1" xmlns="http://www.w3.org/2000/svg" xmlns:xlink="http://www.w3.org/1999/xlink" x="0px" y="0px"
	 viewBox="0 0 1920 1080" style="enable-background:new 0 0 1920 1080;" xml:space="preserve">
<style type="text/css">
	.st0{fill:url(#SVGID_1_);}
	.st1{fill:url(#SVGID_2_);}
	.st2{fill:url(#SVGID_3_);}
	.st3{fill:url(#SVGID_4_);}
	.st4{fill:url(#SVGID_5_);}
	.st5{fill:url(#SVGID_6_);}
	.st6{fill:url(#SVGID_7_);}
	.st7{fill:url(#SVGID_8_);}
	.st8{fill:url(#SVGID_9_);}
	.st9{fill:url(#SVGID_10_);}
	.st10{fill:#AB1A1A;}
	.st11{fill:#191717;}
	.st12{fill:url(#SVGID_11_);}
	.st13{fill:url(#SVGID_12_);}
	.st14{fill:url(#SVGID_13_);}
	.st15{fill:url(#SVGID_14_);}
	.st16{fill:url(#SVGID_15_);}
	.st17{fill:url(#SVGID_16_);}
	.st18{fill:url(#SVGID_17_);}
	.st19{fill:url(#SVGID_18_);}
	.st20{fill:url(#SVGID_19_);}
	.st21{fill:url(#SVGID_20_);}
	.st22{fill:url(#SVGID_21_);}
	.st23{fill:url(#SVGID_22_);}
	.st24{fill:url(#SVGID_23_);}
	.st25{fill:url(#SVGID_24_);}
	.st26{fill:url(#SVGID_25_);}
	.st27{fill:url(#SVGID_26_);}
	.st28{fill:url(#SVGID_27_);}
	.st29{fill:url(#SVGID_28_);}
	.st30{fill:url(#SVGID_29_);}
	.st31{fill:url(#SVGID_30_);}
	.st32{fill:url(#SVGID_31_);}
	.st33{fill:url(#SVGID_32_);}
	.st34{fill:url(#SVGID_33_);}
	.st35{fill:url(#SVGID_34_);}
	.st36{fill:url(#SVGID_35_);}
	.st37{fill:url(#SVGID_36_);}
	.st38{fill:url(#SVGID_37_);}
	.st39{fill:url(#SVGID_38_);}
	.st40{fill:url(#SVGID_39_);}
	.st41{fill:url(#ring_1_);}
	.st42{fill:url(#SVGID_40_);}
	.st43{fill:url(#SVGID_41_);}
	.st44{fill:url(#SVGID_42_);}
	.st45{fill:url(#SVGID_43_);}
	.st46{fill:url(#SVGID_44_);}
	.st47{fill:url(#SVGID_45_);}
	.st48{fill:url(#SVGID_46_);}
	.st49{fill:url(#SVGID_47_);}
	.st50{fill:url(#SVGID_48_);}
	.st51{fill:url(#SVGID_49_);}
	.st52{fill:url(#SVGID_50_);}
	.st53{fill:url(#SVGID_51_);}
	.st54{fill:url(#SVGID_52_);}
	.st55{fill:url(#SVGID_53_);}
	.st56{fill:url(#SVGID_54_);}
	.st57{fill:url(#SVGID_55_);}
	.st58{fill:url(#SVGID_56_);}
	.st59{fill:url(#SVGID_57_);}
	.st60{fill:url(#SVGID_58_);}
	.st61{fill:url(#SVGID_59_);}
</style>
<linearGradient id="SVGID_1_" gradientUnits="userSpaceOnUse" x1="548.8716" y1="245.906" x2="758.3624" y2="245.906" gradientTransform="matrix(-1 0 0 1 1156.4764 0)">
	<stop  offset="0" style="stop-color:#CC0000"/>
	<stop  offset="0.5225" style="stop-color:#A32321"/>
	<stop  offset="1" style="stop-color:#97272D"/>
</linearGradient>
<polygon class="st0" points="607.6,193.4 398.1,416 607.6,75.9 "/>
<linearGradient id="SVGID_2_" gradientUnits="userSpaceOnUse" x1="339.3809" y1="245.906" x2="548.8716" y2="245.906" gradientTransform="matrix(-1 0 0 1 1156.4764 0)">
	<stop  offset="0" style="stop-color:#CC0000"/>
	<stop  offset="0.5225" style="stop-color:#A32321"/>
	<stop  offset="1" style="stop-color:#97272D"/>
</linearGradient>
<polygon class="st1" points="607.6,193.4 817.1,416 607.6,75.9 "/>
<linearGradient id="SVGID_3_" gradientUnits="userSpaceOnUse" x1="823.3891" y1="170.9586" x2="1028.491" y2="443.0325" gradientTransform="matrix(-1 0 0 1 1156.4764 0)">
	<stop  offset="0" style="stop-color:#CC0000"/>
	<stop  offset="0.5225" style="stop-color:#A32321"/>
	<stop  offset="1" style="stop-color:#97272D"/>
</linearGradient>
<polygon class="st2" points="360.5,193.4 151,416 360.5,75.9 "/>
<linearGradient id="SVGID_4_" gradientUnits="userSpaceOnUse" x1="691.2394" y1="415.9519" x2="691.2394" y2="75.86" gradientTransform="matrix(-1 0 0 1 1156.4764 0)">
	<stop  offset="0" style="stop-color:#CC0000"/>
	<stop  offset="0.5225" style="stop-color:#A32321"/>
	<stop  offset="1" style="stop-color:#97272D"/>
</linearGradient>
<polygon class="st3" points="360.5,193.4 570,416 360.5,75.9 "/>
<linearGradient id="SVGID_5_" gradientUnits="userSpaceOnUse" x1="548.8716" y1="245.906" x2="758.3624" y2="245.906" gradientTransform="matrix(-1 0 0 1 1156.4764 0)">
	<stop  offset="0" style="stop-color:#CC0000"/>
	<stop  offset="0.5225" style="stop-color:#A32321"/>
	<stop  offset="1" style="stop-color:#97272D"/>
</linearGradient>
<polygon class="st4" points="607.6,193.4 398.1,416 607.6,75.9 "/>
<linearGradient id="SVGID_6_" gradientUnits="userSpaceOnUse" x1="339.3809" y1="245.906" x2="548.8716" y2="245.906" gradientTransform="matrix(-1 0 0 1 1156.4764 0)">
	<stop  offset="0" style="stop-color:#CC0000"/>
	<stop  offset="0.5225" style="stop-color:#A32321"/>
	<stop  offset="1" style="stop-color:#97272D"/>
</linearGradient>
<polygon class="st5" points="607.6,193.4 817.1,416 607.6,75.9 "/>
<linearGradient id="SVGID_7_" gradientUnits="userSpaceOnUse" x1="579.4283" y1="175.3991" x2="914.2885" y2="622.4375" gradientTransform="matrix(-1 0 0 1 1156.4764 0)">
	<stop  offset="0" style="stop-color:#CC0000"/>
	<stop  offset="0.5225" style="stop-color:#A32321"/>
	<stop  offset="1" style="stop-color:#97272D"/>
</linearGradient>
<polygon class="st6" points="607.6,193.4 398.1,416 607.6,75.9 "/>
<linearGradient id="SVGID_8_" gradientUnits="userSpaceOnUse" x1="444.1262" y1="414.591" x2="444.1262" y2="117.6377" gradientTransform="matrix(-1 0 0 1 1156.4764 0)">
	<stop  offset="0" style="stop-color:#CC0000"/>
	<stop  offset="0.5225" style="stop-color:#A32321"/>
	<stop  offset="1" style="stop-color:#97272D"/>
</linearGradient>
<polygon class="st7" points="607.6,193.4 817.1,416 607.6,75.9 "/>
<linearGradient id="SVGID_9_" gradientUnits="userSpaceOnUse" x1="704.5232" y1="180.7391" x2="913.8108" y2="473.7418" gradientTransform="matrix(-1 0 0 1 1156.4764 0)">
	<stop  offset="0" style="stop-color:#CC0000"/>
	<stop  offset="0.5225" style="stop-color:#A32321"/>
	<stop  offset="1" style="stop-color:#97272D"/>
</linearGradient>
<polygon class="st8" points="484.9,193.4 275.4,416 484.9,75.9 "/>
<linearGradient id="SVGID_10_" gradientUnits="userSpaceOnUse" x1="566.8256" y1="424.4513" x2="566.8256" y2="-97.5291" gradientTransform="matrix(-1 0 0 1 1156.4764 0)">
	<stop  offset="0" style="stop-color:#CC0000"/>
	<stop  offset="0.5225" style="stop-color:#A32321"/>
	<stop  offset="1" style="stop-color:#97272D"/>
</linearGradient>
<polygon class="st9" points="484.9,193.4 694.4,416 484.9,75.9 "/>
<g>
	<path class="st10" d="M165,493.2l-3,10.8h-9.9l12.9-42.3h12.5l13.1,42.3h-10.3l-3.3-10.8H165z M175.7,486.1l-2.6-9
		c-0.8-2.5-1.5-5.6-2.1-8.2h-0.1c-0.6,2.5-1.3,5.7-1.9,8.2l-2.5,9H175.7z"/>
	<path class="st10" d="M196.3,462.4c3.1-0.5,7.7-0.9,12.7-0.9c6.3,0,10.7,0.9,13.7,3.3c2.5,2,3.9,5,3.9,8.8c0,5.4-3.8,9.1-7.5,10.4
		v0.2c2.9,1.2,4.6,4,5.6,7.9c1.3,4.8,2.6,10.3,3.4,11.9h-9.8c-0.7-1.2-1.7-4.6-2.9-9.8c-1.1-5.3-2.9-6.7-6.8-6.8h-2.9v16.6h-9.5
		V462.4z M205.7,480.6h3.8c4.8,0,7.6-2.4,7.6-6.1c0-3.9-2.6-5.8-7-5.9c-2.3,0-3.6,0.2-4.3,0.3V480.6z"/>
	<path class="st10" d="M233.5,461.8h9.5v18.7h0.2c0.9-1.6,1.9-3.1,2.9-4.6l9.6-14h11.7l-14,18l14.7,24.3h-11.2l-10.3-18.3l-3.6,4.5
		v13.8h-9.5V461.8z"/>
	<path class="st11" d="M315.7,502.9c-1.8,0.9-5.7,1.8-10.8,1.8c-14.6,0-22.1-9.1-22.1-21.1c0-14.4,10.3-22.5,23.1-22.5
		c5,0,8.7,1,10.4,1.9l-1.9,7.6c-1.9-0.8-4.6-1.6-8-1.6c-7.6,0-13.5,4.6-13.5,14c0,8.5,5,13.8,13.5,13.8c2.9,0,6.1-0.6,8-1.4
		L315.7,502.9z"/>
	<path class="st11" d="M358.8,482.5c0,13.9-8.4,22.3-20.8,22.3c-12.5,0-19.9-9.5-19.9-21.5c0-12.7,8.1-22.1,20.6-22.1
		C351.7,461.1,358.8,470.8,358.8,482.5z M328.2,483.1c0,8.3,3.9,14.1,10.3,14.1c6.5,0,10.2-6.1,10.2-14.4c0-7.6-3.6-14.1-10.2-14.1
		C332,468.7,328.2,474.9,328.2,483.1z"/>
	<path class="st11" d="M400.8,487.9c-0.2-5.1-0.4-11.2-0.4-17.4h-0.2c-1.3,5.4-3.1,11.4-4.7,16.4l-5.1,16.5h-7.5l-4.5-16.4
		c-1.4-5-2.8-11-3.8-16.5h-0.1c-0.3,5.7-0.4,12.2-0.8,17.5l-0.8,16.1h-8.8l2.7-42.3h12.7l4.1,14.1c1.3,4.9,2.6,10.2,3.6,15.1h0.2
		c1.2-4.9,2.6-10.5,4-15.2l4.5-14h12.5l2.3,42.3h-9.3L400.8,487.9z"/>
	<path class="st11" d="M453.8,487.9c-0.2-5.1-0.4-11.2-0.4-17.4h-0.2c-1.3,5.4-3.1,11.4-4.7,16.4l-5.1,16.5h-7.5l-4.5-16.4
		c-1.4-5-2.8-11-3.8-16.5h-0.1c-0.3,5.7-0.4,12.2-0.8,17.5l-0.8,16.1h-8.8l2.7-42.3h12.7l4.1,14.1c1.3,4.9,2.6,10.2,3.6,15.1h0.2
		c1.2-4.9,2.6-10.5,4-15.2l4.5-14h12.5l2.3,42.3h-9.3L453.8,487.9z"/>
	<path class="st11" d="M480.7,461.8v24.3c0,7.3,2.8,11,7.7,11c5,0,7.8-3.5,7.8-11v-24.3h9.5v23.7c0,13-6.6,19.3-17.6,19.3
		c-10.7,0-16.9-5.9-16.9-19.4v-23.6H480.7z"/>
	<path class="st11" d="M513.9,504.1v-42.3h11.2l8.8,15.5c2.5,4.5,5,9.7,6.9,14.5h0.2c-0.6-5.6-0.8-11.3-0.8-17.6v-12.4h8.8v42.3h-10
		l-9-16.3c-2.5-4.5-5.3-10-7.3-14.9l-0.2,0.1c0.3,5.6,0.4,11.5,0.4,18.4v12.7H513.9z"/>
	<path class="st11" d="M566.8,461.8v42.3h-9.6v-42.3H566.8z"/>
	<path class="st11" d="M583.2,469.8h-11.4v-8h32.5v8h-11.5v34.2h-9.6V469.8z"/>
	<path class="st11" d="M619.6,504.1v-17.3l-13.4-25h10.9l4.3,10.2c1.3,3.1,2.2,5.3,3.3,8.1h0.1c0.9-2.6,1.9-5.1,3.2-8.1l4.3-10.2
		h10.7l-13.9,24.6v17.6H619.6z"/>
	<path class="st11" d="M660.3,461.8h25.8v7.8h-16.2v9.7h15.2v7.8h-15.2v17h-9.6V461.8z"/>
	<path class="st11" d="M702.9,461.8v24.3c0,7.3,2.8,11,7.7,11c5,0,7.8-3.5,7.8-11v-24.3h9.5v23.7c0,13-6.6,19.3-17.6,19.3
		c-10.7,0-16.9-5.9-16.9-19.4v-23.6H702.9z"/>
	<path class="st11" d="M736.1,504.1v-42.3h11.2l8.8,15.5c2.5,4.5,5,9.7,6.9,14.5h0.2c-0.6-5.6-0.8-11.3-0.8-17.6v-12.4h8.8v42.3h-10
		l-9-16.3c-2.5-4.5-5.3-10-7.3-14.9l-0.2,0.1c0.3,5.6,0.4,11.5,0.4,18.4v12.7H736.1z"/>
	<path class="st11" d="M779.4,462.4c3.5-0.6,8.1-0.9,12.9-0.9c8,0,13.2,1.4,17.3,4.5c4.4,3.3,7.1,8.5,7.1,15.9
		c0,8.1-2.9,13.7-7,17.1c-4.5,3.7-11.2,5.5-19.5,5.5c-5,0-8.5-0.3-10.8-0.6V462.4z M789,496.9c0.8,0.2,2.1,0.2,3.3,0.2
		c8.7,0.1,14.3-4.7,14.3-14.8c0.1-8.8-5.1-13.4-13.3-13.4c-2.1,0-3.5,0.2-4.3,0.4V496.9z"/>
</g>
<linearGradient id="SVGID_11_" gradientUnits="userSpaceOnUse" x1="-72.8775" y1="245.906" x2="52.2438" y2="245.906" gradientTransform="matrix(-1 0 0 1 1156.4764 0)">
	<stop  offset="0" style="stop-color:#0071BC"/>
	<stop  offset="0.5" style="stop-color:#113192"/>
	<stop  offset="1" style="stop-color:#1B1464"/>
</linearGradient>
<polygon class="st12" points="1229.4,214.5 1104.2,347.5 1229.4,144.3 "/>
<linearGradient id="SVGID_12_" gradientUnits="userSpaceOnUse" x1="-197.9989" y1="245.906" x2="-72.8775" y2="245.906" gradientTransform="matrix(-1 0 0 1 1156.4764 0)">
	<stop  offset="0" style="stop-color:#0071BC"/>
	<stop  offset="0.5" style="stop-color:#113192"/>
	<stop  offset="1" style="stop-color:#1B1464"/>
</linearGradient>
<polygon class="st13" points="1229.4,214.5 1354.5,347.5 1229.4,144.3 "/>
<linearGradient id="SVGID_13_" gradientUnits="userSpaceOnUse" x1="91.0819" y1="201.1426" x2="213.5819" y2="363.6426" gradientTransform="matrix(-1 0 0 1 1156.4764 0)">
	<stop  offset="0" style="stop-color:#0071BC"/>
	<stop  offset="0.5" style="stop-color:#113192"/>
	<stop  offset="1" style="stop-color:#1B1464"/>
</linearGradient>
<polygon class="st14" points="1081.8,214.5 956.6,347.5 1081.8,144.3 "/>
<linearGradient id="SVGID_14_" gradientUnits="userSpaceOnUse" x1="12.1536" y1="347.4683" x2="12.1536" y2="144.3436" gradientTransform="matrix(-1 0 0 1 1156.4764 0)">
	<stop  offset="0" style="stop-color:#0071BC"/>
	<stop  offset="0.5" style="stop-color:#113192"/>
	<stop  offset="1" style="stop-color:#1B1464"/>
</linearGradient>
<polygon class="st15" points="1081.8,214.5 1206.9,347.5 1081.8,144.3 "/>
<linearGradient id="SVGID_15_" gradientUnits="userSpaceOnUse" x1="-72.8775" y1="245.906" x2="52.2438" y2="245.906" gradientTransform="matrix(-1 0 0 1 1156.4764 0)">
	<stop  offset="0" style="stop-color:#0071BC"/>
	<stop  offset="0.5" style="stop-color:#113192"/>
	<stop  offset="1" style="stop-color:#1B1464"/>
</linearGradient>
<polygon class="st16" points="1229.4,214.5 1104.2,347.5 1229.4,144.3 "/>
<linearGradient id="SVGID_16_" gradientUnits="userSpaceOnUse" x1="-197.9989" y1="245.906" x2="-72.8775" y2="245.906" gradientTransform="matrix(-1 0 0 1 1156.4764 0)">
	<stop  offset="0" style="stop-color:#0071BC"/>
	<stop  offset="0.5" style="stop-color:#113192"/>
	<stop  offset="1" style="stop-color:#1B1464"/>
</linearGradient>
<polygon class="st17" points="1229.4,214.5 1354.5,347.5 1229.4,144.3 "/>
<linearGradient id="SVGID_17_" gradientUnits="userSpaceOnUse" x1="-54.6271" y1="203.7948" x2="145.3729" y2="470.7948" gradientTransform="matrix(-1 0 0 1 1156.4764 0)">
	<stop  offset="0" style="stop-color:#0071BC"/>
	<stop  offset="0.5" style="stop-color:#113192"/>
	<stop  offset="1" style="stop-color:#1B1464"/>
</linearGradient>
<polygon class="st18" points="1229.4,214.5 1104.2,347.5 1229.4,144.3 "/>
<linearGradient id="SVGID_18_" gradientUnits="userSpaceOnUse" x1="-135.4382" y1="346.6555" x2="-135.4382" y2="169.296" gradientTransform="matrix(-1 0 0 1 1156.4764 0)">
	<stop  offset="0" style="stop-color:#0071BC"/>
	<stop  offset="0.5" style="stop-color:#113192"/>
	<stop  offset="1" style="stop-color:#1B1464"/>
</linearGradient>
<polygon class="st19" points="1229.4,214.5 1354.5,347.5 1229.4,144.3 "/>
<linearGradient id="SVGID_19_" gradientUnits="userSpaceOnUse" x1="20.0876" y1="206.9841" x2="145.0876" y2="381.9841" gradientTransform="matrix(-1 0 0 1 1156.4764 0)">
	<stop  offset="0" style="stop-color:#0071BC"/>
	<stop  offset="0.5" style="stop-color:#113192"/>
	<stop  offset="1" style="stop-color:#1B1464"/>
</linearGradient>
<polygon class="st20" points="1156.1,214.5 1030.9,347.5 1156.1,144.3 "/>
<linearGradient id="SVGID_20_" gradientUnits="userSpaceOnUse" x1="-62.1543" y1="352.5447" x2="-62.1543" y2="40.7845" gradientTransform="matrix(-1 0 0 1 1156.4764 0)">
	<stop  offset="0" style="stop-color:#0071BC"/>
	<stop  offset="0.5" style="stop-color:#113192"/>
	<stop  offset="1" style="stop-color:#1B1464"/>
</linearGradient>
<polygon class="st21" points="1156.1,214.5 1281.2,347.5 1156.1,144.3 "/>
<linearGradient id="SVGID_21_" gradientUnits="userSpaceOnUse" x1="-512.9668" y1="245.906" x2="-387.8455" y2="245.906" gradientTransform="matrix(-1 0 0 1 1156.4764 0)">
	<stop  offset="0" style="stop-color:#B3B3B3"/>
	<stop  offset="1" style="stop-color:#131313"/>
</linearGradient>
<polygon class="st22" points="1669.4,214.5 1544.3,347.5 1669.4,144.3 "/>
<linearGradient id="SVGID_22_" gradientUnits="userSpaceOnUse" x1="-638.0881" y1="245.906" x2="-512.9668" y2="245.906" gradientTransform="matrix(-1 0 0 1 1156.4764 0)">
	<stop  offset="0" style="stop-color:#B3B3B3"/>
	<stop  offset="1" style="stop-color:#131313"/>
</linearGradient>
<polygon class="st23" points="1669.4,214.5 1794.6,347.5 1669.4,144.3 "/>
<linearGradient id="SVGID_23_" gradientUnits="userSpaceOnUse" x1="-349.0074" y1="201.1426" x2="-226.5074" y2="363.6426" gradientTransform="matrix(-1 0 0 1 1156.4764 0)">
	<stop  offset="0" style="stop-color:#B3B3B3"/>
	<stop  offset="1" style="stop-color:#131313"/>
</linearGradient>
<polygon class="st24" points="1521.9,214.5 1396.7,347.5 1521.9,144.3 "/>
<linearGradient id="SVGID_24_" gradientUnits="userSpaceOnUse" x1="-427.9356" y1="347.4683" x2="-427.9356" y2="144.3436" gradientTransform="matrix(-1 0 0 1 1156.4764 0)">
	<stop  offset="0" style="stop-color:#B3B3B3"/>
	<stop  offset="1" style="stop-color:#131313"/>
</linearGradient>
<polygon class="st25" points="1521.9,214.5 1647,347.5 1521.9,144.3 "/>
<linearGradient id="SVGID_25_" gradientUnits="userSpaceOnUse" x1="-512.9668" y1="245.906" x2="-387.8455" y2="245.906" gradientTransform="matrix(-1 0 0 1 1156.4764 0)">
	<stop  offset="0" style="stop-color:#B3B3B3"/>
	<stop  offset="1" style="stop-color:#131313"/>
</linearGradient>
<polygon class="st26" points="1669.4,214.5 1544.3,347.5 1669.4,144.3 "/>
<linearGradient id="SVGID_26_" gradientUnits="userSpaceOnUse" x1="-638.0881" y1="245.906" x2="-512.9668" y2="245.906" gradientTransform="matrix(-1 0 0 1 1156.4764 0)">
	<stop  offset="0" style="stop-color:#B3B3B3"/>
	<stop  offset="1" style="stop-color:#131313"/>
</linearGradient>
<polygon class="st27" points="1669.4,214.5 1794.6,347.5 1669.4,144.3 "/>
<linearGradient id="SVGID_27_" gradientUnits="userSpaceOnUse" x1="-494.7164" y1="203.7948" x2="-294.7164" y2="470.7948" gradientTransform="matrix(-1 0 0 1 1156.4764 0)">
	<stop  offset="0" style="stop-color:#B3B3B3"/>
	<stop  offset="1" style="stop-color:#131313"/>
</linearGradient>
<polygon class="st28" points="1669.4,214.5 1544.3,347.5 1669.4,144.3 "/>
<linearGradient id="SVGID_28_" gradientUnits="userSpaceOnUse" x1="-575.5275" y1="346.6555" x2="-575.5275" y2="169.296" gradientTransform="matrix(-1 0 0 1 1156.4764 0)">
	<stop  offset="0" style="stop-color:#B3B3B3"/>
	<stop  offset="1" style="stop-color:#131313"/>
</linearGradient>
<polygon class="st29" points="1669.4,214.5 1794.6,347.5 1669.4,144.3 "/>
<linearGradient id="SVGID_29_" gradientUnits="userSpaceOnUse" x1="-420.0017" y1="206.9841" x2="-295.0017" y2="381.9841" gradientTransform="matrix(-1 0 0 1 1156.4764 0)">
	<stop  offset="0" style="stop-color:#B3B3B3"/>
	<stop  offset="1" style="stop-color:#131313"/>
</linearGradient>
<polygon class="st30" points="1596.2,214.5 1471,347.5 1596.2,144.3 "/>
<linearGradient id="SVGID_30_" gradientUnits="userSpaceOnUse" x1="-502.2436" y1="352.5447" x2="-502.2436" y2="40.7845" gradientTransform="matrix(-1 0 0 1 1156.4764 0)">
	<stop  offset="0" style="stop-color:#B3B3B3"/>
	<stop  offset="1" style="stop-color:#131313"/>
</linearGradient>
<polygon class="st31" points="1596.2,214.5 1721.3,347.5 1596.2,144.3 "/>
<linearGradient id="SVGID_31_" gradientUnits="userSpaceOnUse" x1="486.8727" y1="649.8351" x2="747.5998" y2="974.6984">
	<stop  offset="0" style="stop-color:#CC0000"/>
	<stop  offset="0.5225" style="stop-color:#A32321"/>
	<stop  offset="1" style="stop-color:#97272D"/>
</linearGradient>
<polygon class="st32" points="484.7,715 742,972.3 484.7,579.2 "/>
<linearGradient id="SVGID_32_" gradientUnits="userSpaceOnUse" x1="227.053" y1="987.3049" x2="483.5973" y2="648.499">
	<stop  offset="0" style="stop-color:#CC0000"/>
	<stop  offset="0.5225" style="stop-color:#A32321"/>
	<stop  offset="1" style="stop-color:#97272D"/>
</linearGradient>
<polygon class="st33" points="484.7,715 227.3,972.3 484.7,579.2 "/>
<linearGradient id="SVGID_33_" gradientUnits="userSpaceOnUse" x1="424.9574" y1="861.7162" x2="505.8246" y2="938.7493">
	<stop  offset="0" style="stop-color:#CC0000"/>
	<stop  offset="0.3425" style="stop-color:#A32321"/>
	<stop  offset="1" style="stop-color:#7A272D"/>
</linearGradient>
<path class="st34" d="M428.7,877.9c-1,22.8,12.1,44.7,34.4,54c22.2,9.3,47.1,3.2,62.6-13.5c-17.7-5.2-36.2-12.1-49.6-17.7
	C462.7,895.2,444.8,886.9,428.7,877.9z"/>
<linearGradient id="SVGID_34_" gradientUnits="userSpaceOnUse" x1="388.1964" y1="856.175" x2="581.1377" y2="856.175">
	<stop  offset="0" style="stop-color:#999999"/>
	<stop  offset="1" style="stop-color:#1A1A1A"/>
</linearGradient>
<path class="st35" d="M415.9,862.2c-18.8-12.3-21.1-18.4-20.7-19.4c0.2-0.5,2.2-1.6,7.6-1.6c4.4,0,11,0.7,20.7,2.7
	c4.8,1,10,2.3,15.5,3.9c1.5-2.1,3-4,4.7-5.8c-26.3-7.7-50.9-11.6-55-1.9c-4.1,9.7,16,24.5,40,37.8c0.1-2.5,0.4-5,0.8-7.5
	C424.6,867.7,420,864.9,415.9,862.2z"/>
<linearGradient id="SVGID_35_" gradientUnits="userSpaceOnUse" x1="388.1963" y1="904.4176" x2="581.1376" y2="904.4176">
	<stop  offset="0" style="stop-color:#999999"/>
	<stop  offset="1" style="stop-color:#1A1A1A"/>
</linearGradient>
<path class="st36" d="M540.7,882.6c-0.1,2.5-0.4,5-0.8,7.5c4.9,2.8,9.5,5.6,13.6,8.3c18.8,12.3,21.1,18.4,20.7,19.4
	c-0.4,0.9-6.4,3.5-28.3-1.2c-4.8-1-10-2.3-15.5-3.9c-1.5,2.1-3,4-4.7,5.8c15.2,4.5,29.9,7.7,40.4,7.7c7.5,0,12.9-1.7,14.6-5.7
	C584.7,910.8,564.6,896,540.7,882.6z"/>
<linearGradient id="SVGID_36_" gradientUnits="userSpaceOnUse" x1="444.084" y1="841.6376" x2="524.9512" y2="918.6707">
	<stop  offset="0" style="stop-color:#CC0000"/>
	<stop  offset="0.3425" style="stop-color:#A32321"/>
	<stop  offset="1" style="stop-color:#7A272D"/>
</linearGradient>
<path class="st37" d="M439,847.9c-2.3,3.3-4.4,6.9-6,10.8c-1.6,3.9-2.8,7.8-3.5,11.8c14.1,8,31,16.3,49.3,23.9
	c18.2,7.6,36,13.9,51.6,18.3c2.3-3.3,4.4-6.9,6-10.8c1.6-3.9,2.8-7.8,3.5-11.8c-14.1-8-31-16.3-49.3-23.9
	C472.4,858.6,454.6,852.3,439,847.9z"/>
<linearGradient id="SVGID_37_" gradientUnits="userSpaceOnUse" x1="463.2146" y1="821.5612" x2="544.0818" y2="898.5942">
	<stop  offset="0" style="stop-color:#CC0000"/>
	<stop  offset="0.3425" style="stop-color:#A32321"/>
	<stop  offset="1" style="stop-color:#7A272D"/>
</linearGradient>
<path class="st38" d="M506.3,828.6c-22.2-9.3-47.1-3.2-62.6,13.5c17.7,5.2,36.2,12.1,49.6,17.7c13.4,5.6,31.3,13.9,47.4,22.9
	C541.6,859.9,528.5,837.9,506.3,828.6z"/>
<g>
	<linearGradient id="SVGID_38_" gradientUnits="userSpaceOnUse" x1="454.0392" y1="831.1975" x2="534.9065" y2="908.2305">
		<stop  offset="0" style="stop-color:#CC0000"/>
		<stop  offset="0.3425" style="stop-color:#A32321"/>
		<stop  offset="1" style="stop-color:#7A272D"/>
	</linearGradient>
	<path class="st39" d="M443.7,842.1c-1.7,1.8-3.3,3.8-4.7,5.8c15.6,4.4,33.4,10.7,51.6,18.3c18.2,7.6,35.2,15.9,49.3,23.9
		c0.4-2.5,0.7-5,0.8-7.5c-16.1-9-34-17.3-47.4-22.9C479.9,854.2,461.4,847.3,443.7,842.1z"/>
</g>
<linearGradient id="SVGID_39_" gradientUnits="userSpaceOnUse" x1="434.134" y1="852.0829" x2="515.0012" y2="929.1159">
	<stop  offset="0" style="stop-color:#CC0000"/>
	<stop  offset="0.3425" style="stop-color:#A32321"/>
	<stop  offset="1" style="stop-color:#7A272D"/>
</linearGradient>
<path class="st40" d="M478.8,894.4c-18.2-7.6-35.2-15.9-49.3-23.9c-0.4,2.5-0.7,5-0.8,7.5c16.1,9,34,17.3,47.4,22.9
	c13.4,5.6,31.8,12.5,49.6,17.7c1.7-1.8,3.3-3.8,4.7-5.8C514.8,908.3,497,902,478.8,894.4z"/>
<linearGradient id="ring_1_" gradientUnits="userSpaceOnUse" x1="388.1963" y1="894.505" x2="581.1376" y2="894.505">
	<stop  offset="0" style="stop-color:#999999"/>
	<stop  offset="1" style="stop-color:#1A1A1A"/>
</linearGradient>
<path id="ring" class="st41" d="M478.8,894.4c-18.2-7.6-35.2-15.9-49.3-23.9c-0.4,2.5-0.7,5-0.8,7.5c16.1,9,34,17.3,47.4,22.9
	c13.4,5.6,31.8,12.5,49.6,17.7c1.7-1.8,3.3-3.8,4.7-5.8C514.8,908.3,497,902,478.8,894.4z"/>
<g>
	<path class="st10" d="M238.1,1020.3l-2.3,8.4h-7.6l10-32.6h9.7l10.1,32.6H250l-2.5-8.4H238.1z M246.4,1014.8l-2-6.9
		c-0.6-1.9-1.2-4.4-1.6-6.3h-0.1c-0.5,1.9-1,4.4-1.5,6.3l-1.9,6.9H246.4z"/>
	<path class="st10" d="M262.2,996.5c2.4-0.4,5.9-0.7,9.8-0.7c4.8,0,8.2,0.7,10.5,2.6c1.9,1.5,3,3.8,3,6.8c0,4.2-3,7-5.8,8v0.1
		c2.3,0.9,3.5,3.1,4.4,6.1c1,3.7,2,7.9,2.7,9.2h-7.5c-0.5-0.9-1.3-3.6-2.3-7.6c-0.9-4.1-2.3-5.2-5.3-5.2h-2.2v12.8h-7.3V996.5z
		 M269.6,1010.5h2.9c3.7,0,5.9-1.8,5.9-4.7c0-3-2-4.5-5.4-4.5c-1.8,0-2.8,0.1-3.3,0.2V1010.5z"/>
	<path class="st10" d="M290.9,996.1h7.3v14.4h0.1c0.7-1.3,1.5-2.4,2.2-3.6l7.4-10.8h9l-10.8,13.9l11.4,18.7H309l-8-14.1l-2.8,3.4
		v10.6h-7.3V996.1z"/>
	<path class="st11" d="M354.3,1027.7c-1.4,0.7-4.4,1.4-8.4,1.4c-11.3,0-17.1-7-17.1-16.3c0-11.1,7.9-17.3,17.8-17.3
		c3.8,0,6.7,0.8,8,1.5l-1.5,5.9c-1.5-0.6-3.6-1.2-6.2-1.2c-5.9,0-10.4,3.5-10.4,10.8c0,6.5,3.9,10.6,10.4,10.6
		c2.2,0,4.7-0.5,6.1-1.1L354.3,1027.7z"/>
	<path class="st11" d="M387.6,1012c0,10.7-6.5,17.2-16,17.2c-9.7,0-15.3-7.3-15.3-16.6c0-9.8,6.2-17.1,15.9-17.1
		C382.1,995.5,387.6,1003,387.6,1012z M364,1012.4c0,6.4,3,10.9,7.9,10.9c5,0,7.8-4.7,7.8-11.1c0-5.9-2.8-10.9-7.9-10.9
		C366.9,1001.4,364,1006.1,364,1012.4z"/>
	<path class="st11" d="M420,1016.2c-0.1-3.9-0.3-8.7-0.3-13.4h-0.1c-1,4.2-2.4,8.8-3.6,12.6l-4,12.7h-5.8l-3.5-12.6
		c-1.1-3.8-2.2-8.5-3-12.7h-0.1c-0.2,4.4-0.3,9.4-0.6,13.5l-0.6,12.4h-6.8l2.1-32.6h9.8l3.2,10.9c1,3.8,2,7.8,2.8,11.7h0.1
		c0.9-3.8,2-8.1,3.1-11.7l3.5-10.8h9.6l1.8,32.6h-7.2L420,1016.2z"/>
	<path class="st11" d="M460.9,1016.2c-0.1-3.9-0.3-8.7-0.3-13.4h-0.1c-1,4.2-2.4,8.8-3.6,12.6l-4,12.7h-5.8l-3.5-12.6
		c-1.1-3.8-2.2-8.5-3-12.7h-0.1c-0.2,4.4-0.3,9.4-0.6,13.5l-0.6,12.4h-6.8l2.1-32.6h9.8l3.2,10.9c1,3.8,2,7.8,2.8,11.7h0.1
		c0.9-3.8,2-8.1,3.1-11.7l3.5-10.8h9.6l1.8,32.6h-7.2L460.9,1016.2z"/>
	<path class="st11" d="M481.6,996.1v18.8c0,5.6,2.1,8.5,5.9,8.5c3.9,0,6-2.7,6-8.5v-18.8h7.4v18.3c0,10.1-5.1,14.8-13.6,14.8
		c-8.2,0-13.1-4.5-13.1-14.9v-18.2H481.6z"/>
	<path class="st11" d="M507.2,1028.7v-32.6h8.6l6.8,11.9c1.9,3.4,3.9,7.5,5.3,11.2h0.1c-0.5-4.3-0.6-8.7-0.6-13.6v-9.5h6.8v32.6
		h-7.7l-7-12.6c-1.9-3.5-4.1-7.7-5.7-11.5l-0.1,0c0.2,4.3,0.3,8.9,0.3,14.2v9.8H507.2z"/>
	<path class="st11" d="M548,996.1v32.6h-7.4v-32.6H548z"/>
	<path class="st11" d="M560.7,1002.2h-8.8v-6.2H577v6.2h-8.9v26.4h-7.4V1002.2z"/>
	<path class="st11" d="M588.8,1028.7v-13.4l-10.3-19.3h8.4l3.3,7.8c1,2.4,1.7,4.1,2.5,6.2h0.1c0.7-2,1.5-3.9,2.5-6.2l3.3-7.8h8.3
		l-10.7,19v13.6H588.8z"/>
	<path class="st11" d="M620.2,996.1h19.9v6h-12.5v7.4h11.7v6h-11.7v13.1h-7.4V996.1z"/>
	<path class="st11" d="M653,996.1v18.8c0,5.6,2.1,8.5,5.9,8.5c3.9,0,6-2.7,6-8.5v-18.8h7.4v18.3c0,10.1-5.1,14.8-13.6,14.8
		c-8.2,0-13.1-4.5-13.1-14.9v-18.2H653z"/>
	<path class="st11" d="M678.7,1028.7v-32.6h8.6l6.8,11.9c1.9,3.4,3.9,7.5,5.3,11.2h0.1c-0.5-4.3-0.6-8.7-0.6-13.6v-9.5h6.8v32.6
		h-7.7l-7-12.6c-1.9-3.5-4.1-7.7-5.7-11.5l-0.1,0c0.2,4.3,0.3,8.9,0.3,14.2v9.8H678.7z"/>
	<path class="st11" d="M712,996.5c2.7-0.4,6.2-0.7,10-0.7c6.2,0,10.2,1.1,13.4,3.5c3.4,2.5,5.5,6.5,5.5,12.3
		c0,6.2-2.3,10.5-5.4,13.2c-3.4,2.9-8.7,4.2-15,4.2c-3.8,0-6.5-0.2-8.4-0.5V996.5z M719.4,1023.1c0.6,0.1,1.6,0.1,2.6,0.1
		c6.7,0,11-3.6,11-11.4c0-6.8-3.9-10.4-10.3-10.4c-1.6,0-2.7,0.1-3.3,0.3V1023.1z"/>
</g>
<linearGradient id="SVGID_40_" gradientUnits="userSpaceOnUse" x1="1133.0569" y1="808.5101" x2="1191.0569" y2="863.7601">
	<stop  offset="0" style="stop-color:#0071BC"/>
	<stop  offset="0.5" style="stop-color:#113192"/>
	<stop  offset="1" style="stop-color:#1B1464"/>
</linearGradient>
<path class="st42" d="M1188.6,852.3c0.7-16.3-8.7-32.1-24.6-38.8c-15.9-6.7-33.7-2.3-44.9,9.6c10.9,3.2,23.1,7.5,35.5,12.7
	C1164.2,839.9,1177,845.9,1188.6,852.3z"/>
<linearGradient id="SVGID_41_" gradientUnits="userSpaceOnUse" x1="1119.3165" y1="822.9282" x2="1177.3165" y2="878.1782">
	<stop  offset="0" style="stop-color:#0071BC"/>
	<stop  offset="0.5" style="stop-color:#113192"/>
	<stop  offset="1" style="stop-color:#1B1464"/>
</linearGradient>
<path class="st43" d="M1115.6,827.4c-1.7,2.4-3.1,4.9-4.3,7.7c-1.2,2.8-2,5.6-2.5,8.5c10.1,5.8,22.3,11.7,35.3,17.1
	c13.1,5.5,25.8,10,37,13.1c1.7-2.4,3.1-4.9,4.3-7.7c1.2-2.8,2-5.6,2.5-8.5c-10.1-5.8-22.3-11.7-35.3-17.1
	C1139.6,835.1,1126.8,830.6,1115.6,827.4z"/>
<linearGradient id="SVGID_42_" gradientUnits="userSpaceOnUse" x1="1105.5793" y1="837.3491" x2="1163.5793" y2="892.5991">
	<stop  offset="0" style="stop-color:#0071BC"/>
	<stop  offset="0.5" style="stop-color:#113192"/>
	<stop  offset="1" style="stop-color:#1B1464"/>
</linearGradient>
<path class="st44" d="M1108.3,849c-0.7,16.3,8.7,32,24.6,38.7c15.9,6.7,33.7,2.3,44.9-9.6c-10.9-3.2-23.1-7.5-35.5-12.7
	C1129.8,860.2,1118.2,854.5,1108.3,849z"/>
<linearGradient id="SVGID_43_" gradientUnits="userSpaceOnUse" x1="1079.2123" y1="867.986" x2="1217.6149" y2="867.986">
	<stop  offset="0" style="stop-color:#999999"/>
	<stop  offset="1" style="stop-color:#1A1A1A"/>
</linearGradient>
<path class="st45" d="M1188.6,852.3c-0.1,1.8-0.3,3.6-0.6,5.3c3.5,2,6.8,4,9.8,6c13.5,8.8,15.2,13.2,14.9,13.9
	c-0.3,0.7-4.6,2.5-20.3-0.8c-3.5-0.7-7.2-1.7-11.1-2.8c-1.1,1.5-2.2,2.9-3.4,4.2c4.8,1.4,9.3,2.6,13.5,3.4
	c6.4,1.4,11.6,2.1,15.7,2.1c5.7,0,9.2-1.4,10.3-4.2C1220.1,872.5,1205.7,861.9,1188.6,852.3z"/>
<linearGradient id="SVGID_44_" gradientUnits="userSpaceOnUse" x1="1079.2123" y1="833.3517" x2="1217.6149" y2="833.3517">
	<stop  offset="0" style="stop-color:#999999"/>
	<stop  offset="1" style="stop-color:#1A1A1A"/>
</linearGradient>
<path class="st46" d="M1099.1,837.7c-13.5-8.8-15.2-13.2-14.9-13.9c0.2-0.4,1.6-1.1,5.5-1.1c3.1,0,7.9,0.5,14.8,2
	c3.5,0.7,7.2,1.7,11.1,2.8c1.1-1.5,2.2-2.9,3.4-4.2c-4.8-1.4-9.3-2.6-13.5-3.4c-15.5-3.3-24-2.6-26,2.1c-2,4.8,3.5,11.3,16.7,20
	c3.6,2.3,7.6,4.8,11.9,7.2c0.1-1.8,0.3-3.6,0.6-5.4C1105.3,841.6,1102.1,839.6,1099.1,837.7z"/>
<linearGradient id="SVGID_45_" gradientUnits="userSpaceOnUse" x1="1126.457" y1="815.4407" x2="1184.457" y2="870.6907">
	<stop  offset="0" style="stop-color:#0071BC"/>
	<stop  offset="0.5" style="stop-color:#113192"/>
	<stop  offset="1" style="stop-color:#1B1464"/>
</linearGradient>
<path class="st47" d="M1152.7,840.5c13.1,5.5,25.2,11.4,35.3,17.1c0.3-1.8,0.5-3.6,0.6-5.3c-11.6-6.4-24.4-12.4-34-16.4
	c-12.4-5.2-24.6-9.6-35.5-12.7c-1.2,1.3-2.4,2.7-3.4,4.2C1126.8,830.6,1139.6,835.1,1152.7,840.5z"/>
<linearGradient id="SVGID_46_" gradientUnits="userSpaceOnUse" x1="1112.1665" y1="830.4341" x2="1170.1665" y2="885.6841">
	<stop  offset="0" style="stop-color:#0071BC"/>
	<stop  offset="0.5" style="stop-color:#113192"/>
	<stop  offset="1" style="stop-color:#1B1464"/>
</linearGradient>
<path class="st48" d="M1144.2,860.8c-13.1-5.5-25.2-11.4-35.3-17.1c-0.3,1.8-0.5,3.6-0.6,5.4c9.9,5.5,21.6,11.2,34,16.4
	c12.4,5.2,24.6,9.6,35.5,12.7c1.2-1.3,2.4-2.7,3.4-4.2C1170,870.7,1157.3,866.2,1144.2,860.8z"/>
<linearGradient id="SVGID_47_" gradientUnits="userSpaceOnUse" x1="1079.2123" y1="860.8658" x2="1217.6149" y2="860.8658">
	<stop  offset="0" style="stop-color:#999999"/>
	<stop  offset="1" style="stop-color:#1A1A1A"/>
</linearGradient>
<path class="st49" d="M1144.2,860.8c-13.1-5.5-25.2-11.4-35.3-17.1c-0.3,1.8-0.5,3.6-0.6,5.4c9.9,5.5,21.6,11.2,34,16.4
	c12.4,5.2,24.6,9.6,35.5,12.7c1.2-1.3,2.4-2.7,3.4-4.2C1170,870.7,1157.3,866.2,1144.2,860.8z"/>
<linearGradient id="SVGID_48_" gradientUnits="userSpaceOnUse" x1="1148.4236" y1="775.678" x2="1332.9972" y2="775.678">
	<stop  offset="0" style="stop-color:#0071BC"/>
	<stop  offset="0.5" style="stop-color:#113192"/>
	<stop  offset="1" style="stop-color:#1B1464"/>
</linearGradient>
<polygon class="st50" points="1148.4,732.1 1333,916.7 1148.4,634.7 "/>
<linearGradient id="SVGID_49_" gradientUnits="userSpaceOnUse" x1="1012.5272" y1="775.678" x2="1134.5436" y2="775.678">
	<stop  offset="0" style="stop-color:#0071BC"/>
	<stop  offset="0.5" style="stop-color:#113192"/>
	<stop  offset="1" style="stop-color:#1B1464"/>
</linearGradient>
<polygon class="st51" points="1148.4,732.1 963.8,916.7 1148.4,634.7 "/>
<linearGradient id="SVGID_50_" gradientUnits="userSpaceOnUse" x1="1580.8518" y1="817.5443" x2="1638.8518" y2="872.7943">
	<stop  offset="0" style="stop-color:#999999"/>
	<stop  offset="1.510495e-02" style="stop-color:#969696"/>
	<stop  offset="0.2401" style="stop-color:#6A6A6A"/>
	<stop  offset="0.4572" style="stop-color:#474747"/>
	<stop  offset="0.6614" style="stop-color:#2E2E2E"/>
	<stop  offset="0.8478" style="stop-color:#1F1F1F"/>
	<stop  offset="1" style="stop-color:#1A1A1A"/>
</linearGradient>
<path class="st52" d="M1636.4,861.3c0.7-16.3-8.7-32-24.6-38.7c-16-6.7-33.8-2.3-44.9,9.7c12.7,3.7,26,8.7,35.6,12.7
	C1614.8,850.2,1626.5,855.8,1636.4,861.3z"/>
<linearGradient id="SVGID_51_" gradientUnits="userSpaceOnUse" x1="1567.1313" y1="831.9431" x2="1625.1313" y2="887.1931">
	<stop  offset="0" style="stop-color:#999999"/>
	<stop  offset="1.510495e-02" style="stop-color:#969696"/>
	<stop  offset="0.2401" style="stop-color:#6A6A6A"/>
	<stop  offset="0.4572" style="stop-color:#474747"/>
	<stop  offset="0.6614" style="stop-color:#2E2E2E"/>
	<stop  offset="0.8478" style="stop-color:#1F1F1F"/>
	<stop  offset="1" style="stop-color:#1A1A1A"/>
</linearGradient>
<path class="st53" d="M1563.5,836.4c-1.7,2.4-3.1,4.9-4.3,7.7c-1.2,2.8-2,5.6-2.5,8.5c10.1,5.8,22.3,11.7,35.3,17.1
	c13.1,5.5,25.8,10,37,13.1c1.7-2.4,3.1-4.9,4.3-7.7s2-5.6,2.5-8.5c-10.1-5.8-22.3-11.7-35.3-17.1
	C1587.4,844.1,1574.6,839.6,1563.5,836.4z"/>
<linearGradient id="SVGID_52_" gradientUnits="userSpaceOnUse" x1="1553.3939" y1="846.3643" x2="1611.3939" y2="901.6143">
	<stop  offset="0" style="stop-color:#999999"/>
	<stop  offset="1.510495e-02" style="stop-color:#969696"/>
	<stop  offset="0.2401" style="stop-color:#6A6A6A"/>
	<stop  offset="0.4572" style="stop-color:#474747"/>
	<stop  offset="0.6614" style="stop-color:#2E2E2E"/>
	<stop  offset="0.8478" style="stop-color:#1F1F1F"/>
	<stop  offset="1" style="stop-color:#1A1A1A"/>
</linearGradient>
<path class="st54" d="M1556.1,858c-0.7,16.3,8.7,32.1,24.6,38.8c15.9,6.7,33.7,2.3,44.9-9.6c-10.9-3.2-23.1-7.5-35.5-12.7
	C1580.5,870.4,1567.7,864.4,1556.1,858z"/>
<linearGradient id="SVGID_53_" gradientUnits="userSpaceOnUse" x1="1574.2852" y1="824.4408" x2="1632.2852" y2="879.6908">
	<stop  offset="0" style="stop-color:#999999"/>
	<stop  offset="1.510495e-02" style="stop-color:#969696"/>
	<stop  offset="0.2401" style="stop-color:#6A6A6A"/>
	<stop  offset="0.4572" style="stop-color:#474747"/>
	<stop  offset="0.6614" style="stop-color:#2E2E2E"/>
	<stop  offset="0.8478" style="stop-color:#1F1F1F"/>
	<stop  offset="1" style="stop-color:#1A1A1A"/>
</linearGradient>
<path class="st55" d="M1600.5,849.6c13.1,5.5,25.2,11.4,35.3,17.1c0.3-1.8,0.5-3.6,0.6-5.4c-9.9-5.5-21.6-11.2-34-16.4
	c-9.6-4-22.8-9-35.6-12.7c-1.2,1.3-2.3,2.7-3.4,4.2C1574.6,839.6,1587.4,844.1,1600.5,849.6z"/>
<linearGradient id="SVGID_54_" gradientUnits="userSpaceOnUse" x1="1559.9948" y1="839.4348" x2="1617.9948" y2="894.6848">
	<stop  offset="0" style="stop-color:#999999"/>
	<stop  offset="1.510495e-02" style="stop-color:#969696"/>
	<stop  offset="0.2401" style="stop-color:#6A6A6A"/>
	<stop  offset="0.4572" style="stop-color:#474747"/>
	<stop  offset="0.6614" style="stop-color:#2E2E2E"/>
	<stop  offset="0.8478" style="stop-color:#1F1F1F"/>
	<stop  offset="1" style="stop-color:#1A1A1A"/>
</linearGradient>
<path class="st56" d="M1592,869.8c-13.1-5.5-25.2-11.4-35.3-17.1c-0.3,1.8-0.5,3.6-0.6,5.3c11.6,6.4,24.4,12.4,34,16.4
	c12.4,5.2,24.6,9.6,35.5,12.7c1.2-1.3,2.4-2.7,3.4-4.2C1617.8,879.8,1605.1,875.3,1592,869.8z"/>
<linearGradient id="SVGID_55_" gradientUnits="userSpaceOnUse" x1="1610.3099" y1="784.3501" x2="1724.3099" y2="784.8501">
	<stop  offset="0" style="stop-color:#999999"/>
	<stop  offset="1.510495e-02" style="stop-color:#969696"/>
	<stop  offset="0.2401" style="stop-color:#6A6A6A"/>
	<stop  offset="0.4572" style="stop-color:#474747"/>
	<stop  offset="0.6614" style="stop-color:#2E2E2E"/>
	<stop  offset="0.8478" style="stop-color:#1F1F1F"/>
	<stop  offset="1" style="stop-color:#1A1A1A"/>
</linearGradient>
<polygon class="st57" points="1596.2,741.1 1780.8,925.7 1596.2,643.7 "/>
<linearGradient id="SVGID_56_" gradientUnits="userSpaceOnUse" x1="1460.3418" y1="784.6931" x2="1582.3583" y2="784.6931">
	<stop  offset="0" style="stop-color:#999999"/>
	<stop  offset="1.510495e-02" style="stop-color:#969696"/>
	<stop  offset="0.2401" style="stop-color:#6A6A6A"/>
	<stop  offset="0.4572" style="stop-color:#474747"/>
	<stop  offset="0.6614" style="stop-color:#2E2E2E"/>
	<stop  offset="0.8478" style="stop-color:#1F1F1F"/>
	<stop  offset="1" style="stop-color:#1A1A1A"/>
</linearGradient>
<polygon class="st58" points="1596.2,741.1 1411.7,925.7 1596.2,643.7 "/>
<linearGradient id="SVGID_57_" gradientUnits="userSpaceOnUse" x1="1527.2123" y1="876.986" x2="1665.6149" y2="876.986">
	<stop  offset="0" style="stop-color:#999999"/>
	<stop  offset="1" style="stop-color:#1A1A1A"/>
</linearGradient>
<path class="st59" d="M1636.6,861.3c-0.1,1.8-0.3,3.6-0.6,5.3c3.5,2,6.8,4,9.8,6c13.5,8.8,15.2,13.2,14.9,13.9
	c-0.3,0.7-4.6,2.5-20.3-0.8c-3.5-0.7-7.2-1.7-11.1-2.8c-1.1,1.5-2.2,2.9-3.4,4.2c4.8,1.4,9.3,2.6,13.5,3.4
	c6.4,1.4,11.6,2.1,15.7,2.1c5.7,0,9.2-1.4,10.3-4.2C1668.1,881.5,1653.7,870.9,1636.6,861.3z"/>
<linearGradient id="SVGID_58_" gradientUnits="userSpaceOnUse" x1="1527.2123" y1="842.3517" x2="1665.6149" y2="842.3517">
	<stop  offset="0" style="stop-color:#999999"/>
	<stop  offset="1" style="stop-color:#1A1A1A"/>
</linearGradient>
<path class="st60" d="M1547.1,846.7c-13.5-8.8-15.2-13.2-14.9-13.9c0.2-0.4,1.6-1.1,5.5-1.1c3.1,0,7.9,0.5,14.8,2
	c3.5,0.7,7.2,1.7,11.1,2.8c1.1-1.5,2.2-2.9,3.4-4.2c-4.8-1.4-9.3-2.6-13.5-3.4c-15.5-3.3-24-2.6-26,2.1c-2,4.8,3.5,11.3,16.7,20
	c3.6,2.3,7.6,4.8,11.9,7.2c0.1-1.8,0.3-3.6,0.6-5.4C1553.3,850.6,1550.1,848.6,1547.1,846.7z"/>
<linearGradient id="SVGID_59_" gradientUnits="userSpaceOnUse" x1="1527.2123" y1="869.8658" x2="1665.6149" y2="869.8658">
	<stop  offset="0" style="stop-color:#999999"/>
	<stop  offset="1" style="stop-color:#1A1A1A"/>
</linearGradient>
<path class="st61" d="M1592.2,869.8c-13.1-5.5-25.2-11.4-35.3-17.1c-0.3,1.8-0.5,3.6-0.6,5.4c9.9,5.5,21.6,11.2,34,16.4
	c12.4,5.2,24.6,9.6,35.5,12.7c1.2-1.3,2.4-2.7,3.4-4.2C1618,879.7,1605.3,875.2,1592.2,869.8z"/>
</svg>
