<?xml version="1.0" encoding="utf-8"?>
<!-- Generator: Adobe Illustrator 20.1.0, SVG Export Plug-In . SVG Version: 6.00 Build 0)  -->
<svg version="1.1" id="Layer_1" xmlns="http://www.w3.org/2000/svg" xmlns:xlink="http://www.w3.org/1999/xlink" x="0px" y="0px"
	 viewBox="0 0 1920 1080" style="enable-background:new 0 0 1920 1080;" xml:space="preserve">
<style type="text/css">
	.st0{fill:url(#SVGID_1_);}
	.st1{fill:url(#SVGID_2_);}
	.st2{fill:url(#SVGID_3_);}
	.st3{fill:url(#SVGID_4_);}
	.st4{fill:url(#SVGID_5_);}
	.st5{fill:url(#SVGID_6_);}
	.st6{fill:url(#SVGID_7_);}
	.st7{fill:url(#SVGID_8_);}
	.st8{fill:url(#SVGID_9_);}
	.st9{fill:url(#SVGID_10_);}
	.st10{fill:#AB1A1A;}
	.st11{fill:#191717;}
	.st12{fill:url(#SVGID_11_);}
	.st13{fill:url(#SVGID_12_);}
	.st14{fill:url(#SVGID_13_);}
	.st15{fill:url(#SVGID_14_);}
	.st16{fill:url(#SVGID_15_);}
	.st17{fill:url(#SVGID_16_);}
	.st18{fill:url(#SVGID_17_);}
	.st19{fill:url(#SVGID_18_);}
	.st20{fill:url(#SVGID_19_);}
	.st21{fill:url(#SVGID_20_);}
	.st22{fill:url(#SVGID_21_);}
	.st23{fill:url(#SVGID_22_);}
	.st24{fill:url(#SVGID_23_);}
	.st25{fill:url(#SVGID_24_);}
	.st26{fill:url(#SVGID_25_);}
	.st27{fill:url(#SVGID_26_);}
	.st28{fill:url(#SVGID_27_);}
	.st29{fill:url(#SVGID_28_);}
	.st30{fill:url(#SVGID_29_);}
	.st31{fill:url(#SVGID_30_);}
	.st32{fill:url(#SVGID_31_);}
	.st33{fill:url(#SVGID_32_);}
	.st34{fill:url(#SVGID_33_);}
	.st35{fill:url(#SVGID_34_);}
	.st36{fill:url(#SVGID_35_);}
	.st37{fill:url(#SVGID_36_);}
	.st38{fill:url(#SVGID_37_);}
	.st39{fill:url(#SVGID_38_);}
	.st40{fill:url(#SVGID_39_);}
	.st41{fill:url(#ring_3_);}
	.st42{fill:url(#SVGID_40_);}
	.st43{fill:url(#SVGID_41_);}
	.st44{fill:url(#SVGID_42_);}
	.st45{fill:url(#ring_4_);}
	.st46{fill:url(#SVGID_43_);}
	.st47{fill:url(#SVGID_44_);}
	.st48{fill:url(#SVGID_45_);}
	.st49{fill:url(#ring_5_);}
</style>
<linearGradient id="SVGID_1_" gradientUnits="userSpaceOnUse" x1="1508.8765" y1="834.05" x2="1718.3765" y2="834.05" gradientTransform="matrix(-1 0 0 -1 2116.4766 1080)">
	<stop  offset="0" style="stop-color:#CC0000"/>
	<stop  offset="0.5225" style="stop-color:#A32321"/>
	<stop  offset="1" style="stop-color:#97272D"/>
</linearGradient>
<polygon class="st0" points="607.6,193.4 398.1,416 607.6,75.9 "/>
<linearGradient id="SVGID_2_" gradientUnits="userSpaceOnUse" x1="1299.3765" y1="834.05" x2="1508.8765" y2="834.05" gradientTransform="matrix(-1 0 0 -1 2116.4766 1080)">
	<stop  offset="0" style="stop-color:#CC0000"/>
	<stop  offset="0.5225" style="stop-color:#A32321"/>
	<stop  offset="1" style="stop-color:#97272D"/>
</linearGradient>
<polygon class="st1" points="607.6,193.4 817.1,416 607.6,75.9 "/>
<linearGradient id="SVGID_3_" gradientUnits="userSpaceOnUse" x1="1783.3625" y1="909.0214" x2="1988.4645" y2="636.9475" gradientTransform="matrix(-1 0 0 -1 2116.4766 1080)">
	<stop  offset="0" style="stop-color:#CC0000"/>
	<stop  offset="0.5225" style="stop-color:#A32321"/>
	<stop  offset="1" style="stop-color:#97272D"/>
</linearGradient>
<polygon class="st2" points="360.5,193.4 151,416 360.5,75.9 "/>
<linearGradient id="SVGID_4_" gradientUnits="userSpaceOnUse" x1="1651.2264" y1="664" x2="1651.2264" y2="1004.1" gradientTransform="matrix(-1 0 0 -1 2116.4766 1080)">
	<stop  offset="0" style="stop-color:#CC0000"/>
	<stop  offset="0.5225" style="stop-color:#A32321"/>
	<stop  offset="1" style="stop-color:#97272D"/>
</linearGradient>
<polygon class="st3" points="360.5,193.4 570,416 360.5,75.9 "/>
<linearGradient id="SVGID_5_" gradientUnits="userSpaceOnUse" x1="1508.8765" y1="834.05" x2="1718.3765" y2="834.05" gradientTransform="matrix(-1 0 0 -1 2116.4766 1080)">
	<stop  offset="0" style="stop-color:#CC0000"/>
	<stop  offset="0.5225" style="stop-color:#A32321"/>
	<stop  offset="1" style="stop-color:#97272D"/>
</linearGradient>
<polygon class="st4" points="607.6,193.4 398.1,416 607.6,75.9 "/>
<linearGradient id="SVGID_6_" gradientUnits="userSpaceOnUse" x1="1299.3765" y1="834.05" x2="1508.8765" y2="834.05" gradientTransform="matrix(-1 0 0 -1 2116.4766 1080)">
	<stop  offset="0" style="stop-color:#CC0000"/>
	<stop  offset="0.5225" style="stop-color:#A32321"/>
	<stop  offset="1" style="stop-color:#97272D"/>
</linearGradient>
<polygon class="st5" points="607.6,193.4 817.1,416 607.6,75.9 "/>
<linearGradient id="SVGID_7_" gradientUnits="userSpaceOnUse" x1="1539.4103" y1="904.5874" x2="1874.2705" y2="457.549" gradientTransform="matrix(-1 0 0 -1 2116.4766 1080)">
	<stop  offset="0" style="stop-color:#CC0000"/>
	<stop  offset="0.5225" style="stop-color:#A32321"/>
	<stop  offset="1" style="stop-color:#97272D"/>
</linearGradient>
<polygon class="st6" points="607.6,193.4 398.1,416 607.6,75.9 "/>
<linearGradient id="SVGID_8_" gradientUnits="userSpaceOnUse" x1="1404.1265" y1="665.409" x2="1404.1265" y2="962.3623" gradientTransform="matrix(-1 0 0 -1 2116.4766 1080)">
	<stop  offset="0" style="stop-color:#CC0000"/>
	<stop  offset="0.5225" style="stop-color:#A32321"/>
	<stop  offset="1" style="stop-color:#97272D"/>
</linearGradient>
<polygon class="st7" points="607.6,193.4 817.1,416 607.6,75.9 "/>
<linearGradient id="SVGID_9_" gradientUnits="userSpaceOnUse" x1="1664.506" y1="899.2486" x2="1873.7936" y2="606.246" gradientTransform="matrix(-1 0 0 -1 2116.4766 1080)">
	<stop  offset="0" style="stop-color:#CC0000"/>
	<stop  offset="0.5225" style="stop-color:#A32321"/>
	<stop  offset="1" style="stop-color:#97272D"/>
</linearGradient>
<polygon class="st8" points="484.9,193.4 275.4,416 484.9,75.9 "/>
<linearGradient id="SVGID_10_" gradientUnits="userSpaceOnUse" x1="1526.8264" y1="655.5487" x2="1526.8264" y2="1177.5291" gradientTransform="matrix(-1 0 0 -1 2116.4766 1080)">
	<stop  offset="0" style="stop-color:#CC0000"/>
	<stop  offset="0.5225" style="stop-color:#A32321"/>
	<stop  offset="1" style="stop-color:#97272D"/>
</linearGradient>
<polygon class="st9" points="484.9,193.4 694.4,416 484.9,75.9 "/>
<g>
	<path class="st10" d="M165,493.2l-3,10.8h-9.9l12.9-42.3h12.5l13.1,42.3h-10.3l-3.3-10.8H165z M175.7,486.1l-2.6-9
		c-0.8-2.5-1.5-5.6-2.1-8.2h-0.1c-0.6,2.5-1.3,5.7-1.9,8.2l-2.5,9H175.7z"/>
	<path class="st10" d="M196.3,462.4c3.1-0.5,7.7-0.9,12.7-0.9c6.3,0,10.7,0.9,13.7,3.3c2.5,2,3.9,5,3.9,8.8c0,5.4-3.8,9.1-7.5,10.4
		v0.2c2.9,1.2,4.6,4,5.6,7.9c1.3,4.8,2.6,10.3,3.4,11.9h-9.8c-0.7-1.2-1.7-4.6-2.9-9.8c-1.1-5.3-2.9-6.7-6.8-6.8h-2.9V504h-9.5
		v-41.6H196.3z M205.7,480.6h3.8c4.8,0,7.6-2.4,7.6-6.1c0-3.9-2.6-5.8-7-5.9c-2.3,0-3.6,0.2-4.3,0.3v11.7H205.7z"/>
	<path class="st10" d="M233.5,461.8h9.5v18.7h0.2c0.9-1.6,1.9-3.1,2.9-4.6l9.6-14h11.7l-14,18l14.7,24.3h-11.2l-10.3-18.3l-3.6,4.5
		v13.8h-9.5L233.5,461.8L233.5,461.8z"/>
	<path class="st11" d="M315.7,502.9c-1.8,0.9-5.7,1.8-10.8,1.8c-14.6,0-22.1-9.1-22.1-21.1c0-14.4,10.3-22.5,23.1-22.5
		c5,0,8.7,1,10.4,1.9l-1.9,7.6c-1.9-0.8-4.6-1.6-8-1.6c-7.6,0-13.5,4.6-13.5,14c0,8.5,5,13.8,13.5,13.8c2.9,0,6.1-0.6,8-1.4
		L315.7,502.9z"/>
	<path class="st11" d="M358.8,482.5c0,13.9-8.4,22.3-20.8,22.3c-12.5,0-19.9-9.5-19.9-21.5c0-12.7,8.1-22.1,20.6-22.1
		C351.7,461.1,358.8,470.8,358.8,482.5z M328.2,483.1c0,8.3,3.9,14.1,10.3,14.1c6.5,0,10.2-6.1,10.2-14.4c0-7.6-3.6-14.1-10.2-14.1
		C332,468.7,328.2,474.9,328.2,483.1z"/>
	<path class="st11" d="M400.8,487.9c-0.2-5.1-0.4-11.2-0.4-17.4h-0.2c-1.3,5.4-3.1,11.4-4.7,16.4l-5.1,16.5h-7.5l-4.5-16.4
		c-1.4-5-2.8-11-3.8-16.5h-0.1c-0.3,5.7-0.4,12.2-0.8,17.5l-0.8,16.1h-8.8l2.7-42.3h12.7l4.1,14.1c1.3,4.9,2.6,10.2,3.6,15.1h0.2
		c1.2-4.9,2.6-10.5,4-15.2l4.5-14h12.5l2.3,42.3h-9.3L400.8,487.9z"/>
	<path class="st11" d="M453.8,487.9c-0.2-5.1-0.4-11.2-0.4-17.4h-0.2c-1.3,5.4-3.1,11.4-4.7,16.4l-5.1,16.5h-7.5l-4.5-16.4
		c-1.4-5-2.8-11-3.8-16.5h-0.1c-0.3,5.7-0.4,12.2-0.8,17.5l-0.8,16.1h-8.8l2.7-42.3h12.7l4.1,14.1c1.3,4.9,2.6,10.2,3.6,15.1h0.2
		c1.2-4.9,2.6-10.5,4-15.2l4.5-14h12.5l2.3,42.3h-9.3L453.8,487.9z"/>
	<path class="st11" d="M480.7,461.8v24.3c0,7.3,2.8,11,7.7,11c5,0,7.8-3.5,7.8-11v-24.3h9.5v23.7c0,13-6.6,19.3-17.6,19.3
		c-10.7,0-16.9-5.9-16.9-19.4v-23.6H480.7z"/>
	<path class="st11" d="M513.9,504.1v-42.3h11.2l8.8,15.5c2.5,4.5,5,9.7,6.9,14.5h0.2c-0.6-5.6-0.8-11.3-0.8-17.6v-12.4h8.8v42.3h-10
		l-9-16.3c-2.5-4.5-5.3-10-7.3-14.9l-0.2,0.1c0.3,5.6,0.4,11.5,0.4,18.4v12.7L513.9,504.1L513.9,504.1z"/>
	<path class="st11" d="M566.8,461.8v42.3h-9.6v-42.3H566.8z"/>
	<path class="st11" d="M583.2,469.8h-11.4v-8h32.5v8h-11.5V504h-9.6V469.8z"/>
	<path class="st11" d="M619.6,504.1v-17.3l-13.4-25h10.9l4.3,10.2c1.3,3.1,2.2,5.3,3.3,8.1h0.1c0.9-2.6,1.9-5.1,3.2-8.1l4.3-10.2
		H643l-13.9,24.6V504L619.6,504.1L619.6,504.1z"/>
	<path class="st11" d="M660.3,461.8h25.8v7.8h-16.2v9.7h15.2v7.8h-15.2v17h-9.6V461.8z"/>
	<path class="st11" d="M702.9,461.8v24.3c0,7.3,2.8,11,7.7,11c5,0,7.8-3.5,7.8-11v-24.3h9.5v23.7c0,13-6.6,19.3-17.6,19.3
		c-10.7,0-16.9-5.9-16.9-19.4v-23.6H702.9z"/>
	<path class="st11" d="M736.1,504.1v-42.3h11.2l8.8,15.5c2.5,4.5,5,9.7,6.9,14.5h0.2c-0.6-5.6-0.8-11.3-0.8-17.6v-12.4h8.8v42.3h-10
		l-9-16.3c-2.5-4.5-5.3-10-7.3-14.9l-0.2,0.1c0.3,5.6,0.4,11.5,0.4,18.4v12.7L736.1,504.1L736.1,504.1z"/>
	<path class="st11" d="M779.4,462.4c3.5-0.6,8.1-0.9,12.9-0.9c8,0,13.2,1.4,17.3,4.5c4.4,3.3,7.1,8.5,7.1,15.9
		c0,8.1-2.9,13.7-7,17.1c-4.5,3.7-11.2,5.5-19.5,5.5c-5,0-8.5-0.3-10.8-0.6V462.4z M789,496.9c0.8,0.2,2.1,0.2,3.3,0.2
		c8.7,0.1,14.3-4.7,14.3-14.8c0.1-8.8-5.1-13.4-13.3-13.4c-2.1,0-3.5,0.2-4.3,0.4V496.9z"/>
</g>
<linearGradient id="SVGID_11_" gradientUnits="userSpaceOnUse" x1="887.0764" y1="834.1" x2="1012.2765" y2="834.1" gradientTransform="matrix(-1 0 0 -1 2116.4766 1080)">
	<stop  offset="0" style="stop-color:#0071BC"/>
	<stop  offset="0.5" style="stop-color:#113192"/>
	<stop  offset="1" style="stop-color:#1B1464"/>
</linearGradient>
<polygon class="st12" points="1229.4,214.5 1104.2,347.5 1229.4,144.3 "/>
<linearGradient id="SVGID_12_" gradientUnits="userSpaceOnUse" x1="761.9764" y1="834.1" x2="887.0764" y2="834.1" gradientTransform="matrix(-1 0 0 -1 2116.4766 1080)">
	<stop  offset="0" style="stop-color:#0071BC"/>
	<stop  offset="0.5" style="stop-color:#113192"/>
	<stop  offset="1" style="stop-color:#1B1464"/>
</linearGradient>
<polygon class="st13" points="1229.4,214.5 1354.5,347.5 1229.4,144.3 "/>
<linearGradient id="SVGID_13_" gradientUnits="userSpaceOnUse" x1="1051.0724" y1="878.8502" x2="1173.5724" y2="716.3502" gradientTransform="matrix(-1 0 0 -1 2116.4766 1080)">
	<stop  offset="0" style="stop-color:#0071BC"/>
	<stop  offset="0.5" style="stop-color:#113192"/>
	<stop  offset="1" style="stop-color:#1B1464"/>
</linearGradient>
<polygon class="st14" points="1081.8,214.5 956.6,347.5 1081.8,144.3 "/>
<linearGradient id="SVGID_14_" gradientUnits="userSpaceOnUse" x1="972.1264" y1="732.5" x2="972.1264" y2="935.7" gradientTransform="matrix(-1 0 0 -1 2116.4766 1080)">
	<stop  offset="0" style="stop-color:#0071BC"/>
	<stop  offset="0.5" style="stop-color:#113192"/>
	<stop  offset="1" style="stop-color:#1B1464"/>
</linearGradient>
<polygon class="st15" points="1081.8,214.5 1206.9,347.5 1081.8,144.3 "/>
<linearGradient id="SVGID_15_" gradientUnits="userSpaceOnUse" x1="887.0764" y1="834.1" x2="1012.2765" y2="834.1" gradientTransform="matrix(-1 0 0 -1 2116.4766 1080)">
	<stop  offset="0" style="stop-color:#0071BC"/>
	<stop  offset="0.5" style="stop-color:#113192"/>
	<stop  offset="1" style="stop-color:#1B1464"/>
</linearGradient>
<polygon class="st16" points="1229.4,214.5 1104.2,347.5 1229.4,144.3 "/>
<linearGradient id="SVGID_16_" gradientUnits="userSpaceOnUse" x1="761.9764" y1="834.1" x2="887.0764" y2="834.1" gradientTransform="matrix(-1 0 0 -1 2116.4766 1080)">
	<stop  offset="0" style="stop-color:#0071BC"/>
	<stop  offset="0.5" style="stop-color:#113192"/>
	<stop  offset="1" style="stop-color:#1B1464"/>
</linearGradient>
<polygon class="st17" points="1229.4,214.5 1354.5,347.5 1229.4,144.3 "/>
<linearGradient id="SVGID_17_" gradientUnits="userSpaceOnUse" x1="905.358" y1="876.194" x2="1105.358" y2="609.194" gradientTransform="matrix(-1 0 0 -1 2116.4766 1080)">
	<stop  offset="0" style="stop-color:#0071BC"/>
	<stop  offset="0.5" style="stop-color:#113192"/>
	<stop  offset="1" style="stop-color:#1B1464"/>
</linearGradient>
<polygon class="st18" points="1229.4,214.5 1104.2,347.5 1229.4,144.3 "/>
<linearGradient id="SVGID_18_" gradientUnits="userSpaceOnUse" x1="824.5264" y1="733.3445" x2="824.5264" y2="910.704" gradientTransform="matrix(-1 0 0 -1 2116.4766 1080)">
	<stop  offset="0" style="stop-color:#0071BC"/>
	<stop  offset="0.5" style="stop-color:#113192"/>
	<stop  offset="1" style="stop-color:#1B1464"/>
</linearGradient>
<polygon class="st19" points="1229.4,214.5 1354.5,347.5 1229.4,144.3 "/>
<linearGradient id="SVGID_19_" gradientUnits="userSpaceOnUse" x1="980.0822" y1="873.012" x2="1105.0822" y2="698.012" gradientTransform="matrix(-1 0 0 -1 2116.4766 1080)">
	<stop  offset="0" style="stop-color:#0071BC"/>
	<stop  offset="0.5" style="stop-color:#113192"/>
	<stop  offset="1" style="stop-color:#1B1464"/>
</linearGradient>
<polygon class="st20" points="1156.1,214.5 1030.9,347.5 1156.1,144.3 "/>
<linearGradient id="SVGID_20_" gradientUnits="userSpaceOnUse" x1="897.8265" y1="727.4553" x2="897.8265" y2="1039.2155" gradientTransform="matrix(-1 0 0 -1 2116.4766 1080)">
	<stop  offset="0" style="stop-color:#0071BC"/>
	<stop  offset="0.5" style="stop-color:#113192"/>
	<stop  offset="1" style="stop-color:#1B1464"/>
</linearGradient>
<polygon class="st21" points="1156.1,214.5 1281.2,347.5 1156.1,144.3 "/>
<linearGradient id="SVGID_21_" gradientUnits="userSpaceOnUse" x1="447.0764" y1="834.1" x2="572.1764" y2="834.1" gradientTransform="matrix(-1 0 0 -1 2116.4766 1080)">
	<stop  offset="0" style="stop-color:#B3B3B3"/>
	<stop  offset="1" style="stop-color:#131313"/>
</linearGradient>
<polygon class="st22" points="1669.4,214.5 1544.3,347.5 1669.4,144.3 "/>
<linearGradient id="SVGID_22_" gradientUnits="userSpaceOnUse" x1="321.8765" y1="834.1" x2="447.0764" y2="834.1" gradientTransform="matrix(-1 0 0 -1 2116.4766 1080)">
	<stop  offset="0" style="stop-color:#B3B3B3"/>
	<stop  offset="1" style="stop-color:#131313"/>
</linearGradient>
<polygon class="st23" points="1669.4,214.5 1794.6,347.5 1669.4,144.3 "/>
<linearGradient id="SVGID_23_" gradientUnits="userSpaceOnUse" x1="610.9763" y1="878.8451" x2="733.4763" y2="716.3451" gradientTransform="matrix(-1 0 0 -1 2116.4766 1080)">
	<stop  offset="0" style="stop-color:#B3B3B3"/>
	<stop  offset="1" style="stop-color:#131313"/>
</linearGradient>
<polygon class="st24" points="1521.9,214.5 1396.7,347.5 1521.9,144.3 "/>
<linearGradient id="SVGID_24_" gradientUnits="userSpaceOnUse" x1="532.0264" y1="732.5" x2="532.0264" y2="935.7" gradientTransform="matrix(-1 0 0 -1 2116.4766 1080)">
	<stop  offset="0" style="stop-color:#B3B3B3"/>
	<stop  offset="1" style="stop-color:#131313"/>
</linearGradient>
<polygon class="st25" points="1521.9,214.5 1647,347.5 1521.9,144.3 "/>
<linearGradient id="SVGID_25_" gradientUnits="userSpaceOnUse" x1="447.0764" y1="834.1" x2="572.1764" y2="834.1" gradientTransform="matrix(-1 0 0 -1 2116.4766 1080)">
	<stop  offset="0" style="stop-color:#B3B3B3"/>
	<stop  offset="1" style="stop-color:#131313"/>
</linearGradient>
<polygon class="st26" points="1669.4,214.5 1544.3,347.5 1669.4,144.3 "/>
<linearGradient id="SVGID_26_" gradientUnits="userSpaceOnUse" x1="321.8765" y1="834.1" x2="447.0764" y2="834.1" gradientTransform="matrix(-1 0 0 -1 2116.4766 1080)">
	<stop  offset="0" style="stop-color:#B3B3B3"/>
	<stop  offset="1" style="stop-color:#131313"/>
</linearGradient>
<polygon class="st27" points="1669.4,214.5 1794.6,347.5 1669.4,144.3 "/>
<linearGradient id="SVGID_27_" gradientUnits="userSpaceOnUse" x1="465.3259" y1="876.2369" x2="665.3259" y2="609.2369" gradientTransform="matrix(-1 0 0 -1 2116.4766 1080)">
	<stop  offset="0" style="stop-color:#B3B3B3"/>
	<stop  offset="1" style="stop-color:#131313"/>
</linearGradient>
<polygon class="st28" points="1669.4,214.5 1544.3,347.5 1669.4,144.3 "/>
<linearGradient id="SVGID_28_" gradientUnits="userSpaceOnUse" x1="384.4764" y1="733.3445" x2="384.4764" y2="910.704" gradientTransform="matrix(-1 0 0 -1 2116.4766 1080)">
	<stop  offset="0" style="stop-color:#B3B3B3"/>
	<stop  offset="1" style="stop-color:#131313"/>
</linearGradient>
<polygon class="st29" points="1669.4,214.5 1794.6,347.5 1669.4,144.3 "/>
<linearGradient id="SVGID_29_" gradientUnits="userSpaceOnUse" x1="539.9858" y1="873.007" x2="664.9858" y2="698.007" gradientTransform="matrix(-1 0 0 -1 2116.4766 1080)">
	<stop  offset="0" style="stop-color:#B3B3B3"/>
	<stop  offset="1" style="stop-color:#131313"/>
</linearGradient>
<polygon class="st30" points="1596.2,214.5 1471,347.5 1596.2,144.3 "/>
<linearGradient id="SVGID_30_" gradientUnits="userSpaceOnUse" x1="457.7264" y1="727.4553" x2="457.7264" y2="1039.2155" gradientTransform="matrix(-1 0 0 -1 2116.4766 1080)">
	<stop  offset="0" style="stop-color:#B3B3B3"/>
	<stop  offset="1" style="stop-color:#131313"/>
</linearGradient>
<polygon class="st31" points="1596.2,214.5 1721.3,347.5 1596.2,144.3 "/>
<linearGradient id="SVGID_31_" gradientUnits="userSpaceOnUse" x1="486.8864" y1="430.1758" x2="747.6134" y2="105.3125" gradientTransform="matrix(1 0 0 -1 0 1080)">
	<stop  offset="0" style="stop-color:#CC0000"/>
	<stop  offset="0.5225" style="stop-color:#A32321"/>
	<stop  offset="1" style="stop-color:#97272D"/>
</linearGradient>
<polygon class="st32" points="484.7,715 742,972.3 484.7,579.2 "/>
<linearGradient id="SVGID_32_" gradientUnits="userSpaceOnUse" x1="227.0806" y1="92.6743" x2="483.6249" y2="431.4801" gradientTransform="matrix(1 0 0 -1 0 1080)">
	<stop  offset="0" style="stop-color:#CC0000"/>
	<stop  offset="0.5225" style="stop-color:#A32321"/>
	<stop  offset="1" style="stop-color:#97272D"/>
</linearGradient>
<polygon class="st33" points="484.7,715 227.3,972.3 484.7,579.2 "/>
<g>
	<path class="st10" d="M238.1,1020.3l-2.3,8.4h-7.6l10-32.6h9.7l10.1,32.6h-8l-2.5-8.4L238.1,1020.3L238.1,1020.3z M246.4,1014.8
		l-2-6.9c-0.6-1.9-1.2-4.4-1.6-6.3h-0.1c-0.5,1.9-1,4.4-1.5,6.3l-1.9,6.9H246.4z"/>
	<path class="st10" d="M262.2,996.5c2.4-0.4,5.9-0.7,9.8-0.7c4.8,0,8.2,0.7,10.5,2.6c1.9,1.5,3,3.8,3,6.8c0,4.2-3,7-5.8,8v0.1
		c2.3,0.9,3.5,3.1,4.4,6.1c1,3.7,2,7.9,2.7,9.2h-7.5c-0.5-0.9-1.3-3.6-2.3-7.6c-0.9-4.1-2.3-5.2-5.3-5.2h-2.2v12.8h-7.3L262.2,996.5
		L262.2,996.5z M269.6,1010.5h2.9c3.7,0,5.9-1.8,5.9-4.7c0-3-2-4.5-5.4-4.5c-1.8,0-2.8,0.1-3.3,0.2v9H269.6z"/>
	<path class="st10" d="M290.9,996.1h7.3v14.4h0.1c0.7-1.3,1.5-2.4,2.2-3.6l7.4-10.8h9l-10.8,13.9l11.4,18.7H309l-8-14.1l-2.8,3.4
		v10.6h-7.3L290.9,996.1L290.9,996.1z"/>
	<path class="st11" d="M354.3,1027.7c-1.4,0.7-4.4,1.4-8.4,1.4c-11.3,0-17.1-7-17.1-16.3c0-11.1,7.9-17.3,17.8-17.3
		c3.8,0,6.7,0.8,8,1.5l-1.5,5.9c-1.5-0.6-3.6-1.2-6.2-1.2c-5.9,0-10.4,3.5-10.4,10.8c0,6.5,3.9,10.6,10.4,10.6
		c2.2,0,4.7-0.5,6.1-1.1L354.3,1027.7z"/>
	<path class="st11" d="M387.6,1012c0,10.7-6.5,17.2-16,17.2c-9.7,0-15.3-7.3-15.3-16.6c0-9.8,6.2-17.1,15.9-17.1
		C382.1,995.5,387.6,1003,387.6,1012z M364,1012.4c0,6.4,3,10.9,7.9,10.9c5,0,7.8-4.7,7.8-11.1c0-5.9-2.8-10.9-7.9-10.9
		C366.9,1001.4,364,1006.1,364,1012.4z"/>
	<path class="st11" d="M420,1016.2c-0.1-3.9-0.3-8.7-0.3-13.4h-0.1c-1,4.2-2.4,8.8-3.6,12.6l-4,12.7h-5.8l-3.5-12.6
		c-1.1-3.8-2.2-8.5-3-12.7h-0.1c-0.2,4.4-0.3,9.4-0.6,13.5l-0.6,12.4h-6.8l2.1-32.6h9.8l3.2,10.9c1,3.8,2,7.8,2.8,11.7h0.1
		c0.9-3.8,2-8.1,3.1-11.7l3.5-10.8h9.6l1.8,32.6h-7.2L420,1016.2z"/>
	<path class="st11" d="M460.9,1016.2c-0.1-3.9-0.3-8.7-0.3-13.4h-0.1c-1,4.2-2.4,8.8-3.6,12.6l-4,12.7h-5.8l-3.5-12.6
		c-1.1-3.8-2.2-8.5-3-12.7h-0.1c-0.2,4.4-0.3,9.4-0.6,13.5l-0.6,12.4h-6.8l2.1-32.6h9.8l3.2,10.9c1,3.8,2,7.8,2.8,11.7h0.1
		c0.9-3.8,2-8.1,3.1-11.7l3.5-10.8h9.6l1.8,32.6h-7.2L460.9,1016.2z"/>
	<path class="st11" d="M481.6,996.1v18.8c0,5.6,2.1,8.5,5.9,8.5c3.9,0,6-2.7,6-8.5v-18.8h7.4v18.3c0,10.1-5.1,14.8-13.6,14.8
		c-8.2,0-13.1-4.5-13.1-14.9v-18.2L481.6,996.1L481.6,996.1z"/>
	<path class="st11" d="M507.2,1028.7v-32.6h8.6l6.8,11.9c1.9,3.4,3.9,7.5,5.3,11.2h0.1c-0.5-4.3-0.6-8.7-0.6-13.6v-9.5h6.8v32.6
		h-7.7l-7-12.6c-1.9-3.5-4.1-7.7-5.7-11.5h-0.1c0.2,4.3,0.3,8.9,0.3,14.2v9.8L507.2,1028.7L507.2,1028.7z"/>
	<path class="st11" d="M548,996.1v32.6h-7.4v-32.6H548z"/>
	<path class="st11" d="M560.7,1002.2h-8.8V996H577v6.2h-8.9v26.4h-7.4L560.7,1002.2L560.7,1002.2z"/>
	<path class="st11" d="M588.8,1028.7v-13.4L578.5,996h8.4l3.3,7.8c1,2.4,1.7,4.1,2.5,6.2h0.1c0.7-2,1.5-3.9,2.5-6.2l3.3-7.8h8.3
		l-10.7,19v13.6L588.8,1028.7L588.8,1028.7z"/>
	<path class="st11" d="M620.2,996.1h19.9v6h-12.5v7.4h11.7v6h-11.7v13.1h-7.4V996.1z"/>
	<path class="st11" d="M653,996.1v18.8c0,5.6,2.1,8.5,5.9,8.5c3.9,0,6-2.7,6-8.5v-18.8h7.4v18.3c0,10.1-5.1,14.8-13.6,14.8
		c-8.2,0-13.1-4.5-13.1-14.9v-18.2L653,996.1L653,996.1z"/>
	<path class="st11" d="M678.7,1028.7v-32.6h8.6l6.8,11.9c1.9,3.4,3.9,7.5,5.3,11.2h0.1c-0.5-4.3-0.6-8.7-0.6-13.6v-9.5h6.8v32.6H698
		l-7-12.6c-1.9-3.5-4.1-7.7-5.7-11.5h-0.1c0.2,4.3,0.3,8.9,0.3,14.2v9.8L678.7,1028.7L678.7,1028.7z"/>
	<path class="st11" d="M712,996.5c2.7-0.4,6.2-0.7,10-0.7c6.2,0,10.2,1.1,13.4,3.5c3.4,2.5,5.5,6.5,5.5,12.3
		c0,6.2-2.3,10.5-5.4,13.2c-3.4,2.9-8.7,4.2-15,4.2c-3.8,0-6.5-0.2-8.4-0.5L712,996.5L712,996.5z M719.4,1023.1
		c0.6,0.1,1.6,0.1,2.6,0.1c6.7,0,11-3.6,11-11.4c0-6.8-3.9-10.4-10.3-10.4c-1.6,0-2.7,0.1-3.3,0.3V1023.1z"/>
</g>
<linearGradient id="SVGID_33_" gradientUnits="userSpaceOnUse" x1="1148.4" y1="304.3" x2="1333" y2="304.3" gradientTransform="matrix(1 0 0 -1 0 1080)">
	<stop  offset="0" style="stop-color:#0071BC"/>
	<stop  offset="0.5" style="stop-color:#113192"/>
	<stop  offset="1" style="stop-color:#1B1464"/>
</linearGradient>
<polygon class="st34" points="1148.4,732.1 1333,916.7 1148.4,634.7 "/>
<linearGradient id="SVGID_34_" gradientUnits="userSpaceOnUse" x1="1012.5272" y1="304.3" x2="1134.5436" y2="304.3" gradientTransform="matrix(1 0 0 -1 0 1080)">
	<stop  offset="0" style="stop-color:#0071BC"/>
	<stop  offset="0.5" style="stop-color:#113192"/>
	<stop  offset="1" style="stop-color:#1B1464"/>
</linearGradient>
<polygon class="st35" points="1148.4,732.1 963.8,916.7 1148.4,634.7 "/>
<linearGradient id="SVGID_35_" gradientUnits="userSpaceOnUse" x1="1610.3099" y1="295.6429" x2="1724.3099" y2="295.1429" gradientTransform="matrix(1 0 0 -1 0 1080)">
	<stop  offset="0" style="stop-color:#999999"/>
	<stop  offset="1.510495e-02" style="stop-color:#969696"/>
	<stop  offset="0.2401" style="stop-color:#6A6A6A"/>
	<stop  offset="0.4572" style="stop-color:#474747"/>
	<stop  offset="0.6614" style="stop-color:#2E2E2E"/>
	<stop  offset="0.8478" style="stop-color:#1F1F1F"/>
	<stop  offset="1" style="stop-color:#1A1A1A"/>
</linearGradient>
<polygon class="st36" points="1596.2,741.1 1780.8,925.7 1596.2,643.7 "/>
<linearGradient id="SVGID_36_" gradientUnits="userSpaceOnUse" x1="1460.3418" y1="295.3" x2="1582.3583" y2="295.3" gradientTransform="matrix(1 0 0 -1 0 1080)">
	<stop  offset="0" style="stop-color:#999999"/>
	<stop  offset="1.510495e-02" style="stop-color:#969696"/>
	<stop  offset="0.2401" style="stop-color:#6A6A6A"/>
	<stop  offset="0.4572" style="stop-color:#474747"/>
	<stop  offset="0.6614" style="stop-color:#2E2E2E"/>
	<stop  offset="0.8478" style="stop-color:#1F1F1F"/>
	<stop  offset="1" style="stop-color:#1A1A1A"/>
</linearGradient>
<polygon class="st37" points="1596.2,741.1 1411.7,925.7 1596.2,643.7 "/>
<g>
	<linearGradient id="SVGID_37_" gradientUnits="userSpaceOnUse" x1="446.9455" y1="846.1526" x2="527.9086" y2="923.2769">
		<stop  offset="0" style="stop-color:#CC0000"/>
		<stop  offset="0.3425" style="stop-color:#A32321"/>
		<stop  offset="1" style="stop-color:#7A272D"/>
	</linearGradient>
	<circle class="st38" cx="487.6" cy="884.9" r="56.1"/>
	<g>
		
			<linearGradient id="SVGID_38_" gradientUnits="userSpaceOnUse" x1="391.0279" y1="219.1508" x2="583.9692" y2="219.1508" gradientTransform="matrix(1 0 0 -1 0 1080)">
			<stop  offset="0" style="stop-color:#999999"/>
			<stop  offset="1" style="stop-color:#1A1A1A"/>
		</linearGradient>
		<path class="st39" d="M418.8,866.9c-18.8-12.3-21.1-18.4-20.7-19.4c0.2-0.5,2.2-1.6,7.6-1.6c4.4,0,11,0.7,20.7,2.7
			c4.8,1,10,2.3,15.5,3.9c1.5-2.1,3-4,4.7-5.8c-26.3-7.7-50.9-11.6-55-1.9c-4.1,9.7,16,24.5,40,37.8c0.1-2.5,0.4-5,0.8-7.5
			C427.5,872.4,422.9,869.6,418.8,866.9z"/>
		
			<linearGradient id="SVGID_39_" gradientUnits="userSpaceOnUse" x1="391.0582" y1="170.8755" x2="583.9995" y2="170.8755" gradientTransform="matrix(1 0 0 -1 0 1080)">
			<stop  offset="0" style="stop-color:#999999"/>
			<stop  offset="1" style="stop-color:#1A1A1A"/>
		</linearGradient>
		<path class="st40" d="M543.6,887.3c-0.1,2.5-0.4,5-0.8,7.5c4.9,2.8,9.5,5.6,13.6,8.3c18.8,12.3,21.1,18.4,20.7,19.4
			c-0.4,0.9-6.4,3.5-28.3-1.2c-4.8-1-10-2.3-15.5-3.9c-1.5,2.1-3,4-4.7,5.8c15.2,4.5,29.9,7.7,40.4,7.7c7.5,0,12.9-1.7,14.6-5.7
			C587.6,915.5,567.5,900.7,543.6,887.3z"/>
		
			<linearGradient id="ring_3_" gradientUnits="userSpaceOnUse" x1="391.0582" y1="180.7254" x2="583.9995" y2="180.7254" gradientTransform="matrix(1 0 0 -1 0 1080)">
			<stop  offset="0" style="stop-color:#999999"/>
			<stop  offset="1" style="stop-color:#1A1A1A"/>
		</linearGradient>
		<path id="ring_1_" class="st41" d="M481.7,899.1c-18.2-7.6-35.2-15.9-49.3-23.9c-0.4,2.5-0.7,5-0.8,7.5c16.1,9,34,17.3,47.4,22.9
			c13.4,5.6,31.8,12.5,49.6,17.7c1.7-1.8,3.3-3.8,4.7-5.8C517.7,913,499.9,906.7,481.7,899.1z"/>
	</g>
</g>
<g>
	<linearGradient id="SVGID_40_" gradientUnits="userSpaceOnUse" x1="1120.3445" y1="832.4184" x2="1176.2856" y2="885.7072">
		<stop  offset="0" style="stop-color:#0071BC"/>
		<stop  offset="0.5" style="stop-color:#113192"/>
		<stop  offset="1" style="stop-color:#1B1464"/>
	</linearGradient>
	<circle class="st42" cx="1148.4" cy="859.2" r="38.8"/>
	<g>
		
			<linearGradient id="SVGID_41_" gradientUnits="userSpaceOnUse" x1="1081.7085" y1="237.4271" x2="1215.0205" y2="237.4271" gradientTransform="matrix(1 0 0 -1 0 1080)">
			<stop  offset="0" style="stop-color:#999999"/>
			<stop  offset="1" style="stop-color:#1A1A1A"/>
		</linearGradient>
		<path class="st43" d="M1100.9,846.8c-13-8.5-14.6-12.7-14.3-13.4c0.1-0.3,1.5-1.1,5.3-1.1c3,0,7.6,0.5,14.3,1.9
			c3.3,0.7,6.9,1.6,10.7,2.7c1-1.5,2.1-2.8,3.2-4c-18.2-5.3-35.2-8-38-1.3c-2.8,6.7,11.1,16.9,27.6,26.1c0.1-1.7,0.3-3.5,0.6-5.2
			C1106.9,850.6,1103.7,848.6,1100.9,846.8z"/>
		
			<linearGradient id="SVGID_42_" gradientUnits="userSpaceOnUse" x1="1081.7294" y1="204.0714" x2="1215.0414" y2="204.0714" gradientTransform="matrix(1 0 0 -1 0 1080)">
			<stop  offset="0" style="stop-color:#999999"/>
			<stop  offset="1" style="stop-color:#1A1A1A"/>
		</linearGradient>
		<path class="st44" d="M1187.1,860.9c-0.1,1.7-0.3,3.5-0.6,5.2c3.4,1.9,6.6,3.9,9.4,5.7c13,8.5,14.6,12.7,14.3,13.4
			c-0.3,0.6-4.4,2.4-19.6-0.8c-3.3-0.7-6.9-1.6-10.7-2.7c-1,1.5-2.1,2.8-3.2,4c10.5,3.1,20.7,5.3,27.9,5.3c5.2,0,8.9-1.2,10.1-3.9
			C1217.5,880.4,1203.6,870.1,1187.1,860.9z"/>
		
			<linearGradient id="ring_4_" gradientUnits="userSpaceOnUse" x1="1081.7294" y1="210.8772" x2="1215.0414" y2="210.8772" gradientTransform="matrix(1 0 0 -1 0 1080)">
			<stop  offset="0" style="stop-color:#999999"/>
			<stop  offset="1" style="stop-color:#1A1A1A"/>
		</linearGradient>
		<path id="ring_2_" class="st45" d="M1144.3,869c-12.6-5.3-24.3-11-34.1-16.5c-0.3,1.7-0.5,3.5-0.6,5.2c11.1,6.2,23.5,12,32.8,15.8
			c9.3,3.9,22,8.6,34.3,12.2c1.2-1.2,2.3-2.6,3.2-4C1169.2,878.6,1156.9,874.3,1144.3,869z"/>
	</g>
</g>
<linearGradient id="SVGID_43_" gradientUnits="userSpaceOnUse" x1="1571.6237" y1="833.8876" x2="1628.0577" y2="887.6459">
	<stop  offset="0" style="stop-color:#999999"/>
	<stop  offset="1.510495e-02" style="stop-color:#969696"/>
	<stop  offset="0.2401" style="stop-color:#6A6A6A"/>
	<stop  offset="0.4572" style="stop-color:#474747"/>
	<stop  offset="0.6614" style="stop-color:#2E2E2E"/>
	<stop  offset="0.8478" style="stop-color:#1F1F1F"/>
	<stop  offset="1" style="stop-color:#1A1A1A"/>
</linearGradient>
<circle class="st46" cx="1599.9" cy="860.9" r="39.1"/>
<g>
	
		<linearGradient id="SVGID_44_" gradientUnits="userSpaceOnUse" x1="1532.6471" y1="235.8685" x2="1667.134" y2="235.8685" gradientTransform="matrix(1 0 0 -1 0 1080)">
		<stop  offset="0" style="stop-color:#999999"/>
		<stop  offset="1" style="stop-color:#1A1A1A"/>
	</linearGradient>
	<path class="st47" d="M1552,848.4c-13.1-8.6-14.7-12.8-14.4-13.5c0.1-0.3,1.5-1.1,5.3-1.1c3.1,0,7.7,0.5,14.4,1.9
		c3.3,0.7,7,1.6,10.8,2.7c1-1.5,2.1-2.8,3.3-4c-18.3-5.4-35.5-8.1-38.3-1.3c-2.9,6.8,11.2,17.1,27.9,26.3c0.1-1.7,0.3-3.5,0.6-5.2
		C1558,852.2,1554.8,850.2,1552,848.4z"/>
	
		<linearGradient id="SVGID_45_" gradientUnits="userSpaceOnUse" x1="1532.6682" y1="202.2188" x2="1667.1552" y2="202.2188" gradientTransform="matrix(1 0 0 -1 0 1080)">
		<stop  offset="0" style="stop-color:#999999"/>
		<stop  offset="1" style="stop-color:#1A1A1A"/>
	</linearGradient>
	<path class="st48" d="M1639,862.6c-0.1,1.7-0.3,3.5-0.6,5.2c3.4,2,6.6,3.9,9.5,5.8c13.1,8.6,14.7,12.8,14.4,13.5
		c-0.3,0.6-4.5,2.4-19.7-0.8c-3.3-0.7-7-1.6-10.8-2.7c-1,1.5-2.1,2.8-3.3,4c10.6,3.1,20.8,5.4,28.2,5.4c5.2,0,9-1.2,10.2-4
		C1669.6,882.2,1655.6,871.9,1639,862.6z"/>
	
		<linearGradient id="ring_5_" gradientUnits="userSpaceOnUse" x1="1532.6682" y1="209.0845" x2="1667.1552" y2="209.0845" gradientTransform="matrix(1 0 0 -1 0 1080)">
		<stop  offset="0" style="stop-color:#999999"/>
		<stop  offset="1" style="stop-color:#1A1A1A"/>
	</linearGradient>
	<path id="ring" class="st49" d="M1595.8,870.8c-12.7-5.3-24.5-11.1-34.4-16.7c-0.3,1.7-0.5,3.5-0.6,5.2c11.2,6.3,23.7,12.1,33,16
		c9.3,3.9,22.2,8.7,34.6,12.3c1.2-1.3,2.3-2.6,3.3-4C1620.9,880.5,1608.5,876.1,1595.8,870.8z"/>
</g>
</svg>
