<?xml version="1.0" encoding="utf-8"?>
<!-- Generator: Adobe Illustrator 20.1.0, SVG Export Plug-In . SVG Version: 6.00 Build 0)  -->
<svg version="1.1" id="Layer_1" xmlns="http://www.w3.org/2000/svg" xmlns:xlink="http://www.w3.org/1999/xlink" x="0px" y="0px"
	 viewBox="0 0 960 560" style="enable-background:new 0 0 960 560;" xml:space="preserve">
<style type="text/css">
	.st0{fill:url(#SVGID_1_);}
	.st1{fill:url(#SVGID_2_);}
	.st2{fill:url(#SVGID_3_);}
	.st3{fill:url(#SVGID_4_);}
	.st4{fill:url(#SVGID_5_);}
	.st5{fill:url(#SVGID_6_);}
	.st6{fill:url(#SVGID_7_);}
	.st7{fill:url(#SVGID_8_);}
	.st8{fill:url(#SVGID_9_);}
	.st9{fill:url(#SVGID_10_);}
	.st10{fill:url(#SVGID_11_);}
	.st11{fill:url(#SVGID_12_);}
	.st12{fill:url(#SVGID_13_);}
	.st13{fill:url(#SVGID_14_);}
	.st14{fill:url(#SVGID_15_);}
	.st15{fill:url(#SVGID_16_);}
	.st16{fill:url(#SVGID_17_);}
	.st17{fill:url(#SVGID_18_);}
	.st18{fill:none;}
	.st19{fill:url(#SVGID_19_);}
	.st20{fill:url(#SVGID_20_);}
	.st21{fill:url(#SVGID_21_);}
	.st22{fill:url(#SVGID_22_);}
	.st23{fill:url(#SVGID_23_);}
	.st24{fill:url(#SVGID_24_);}
	.st25{fill:url(#SVGID_25_);}
	.st26{fill:url(#SVGID_26_);}
	.st27{fill:url(#SVGID_27_);}
	.st28{fill:url(#SVGID_28_);}
	.st29{fill:url(#SVGID_29_);}
	.st30{fill:url(#SVGID_30_);}
	.st31{fill:#D7D6CB;}
	.st32{fill:url(#SVGID_31_);}
	.st33{fill:url(#SVGID_32_);}
	.st34{fill:url(#SVGID_33_);}
	.st35{fill:url(#SVGID_34_);}
	.st36{fill:url(#SVGID_35_);}
	.st37{fill:url(#SVGID_36_);}
	.st38{fill:url(#SVGID_37_);}
	.st39{fill:url(#SVGID_38_);}
</style>
<rect x="-60" y="-28" width="1108" height="612"/>
<linearGradient id="SVGID_1_" gradientUnits="userSpaceOnUse" x1="876.9846" y1="492.2346" x2="922.5846" y2="492.2346" gradientTransform="matrix(0 -1 -1 0 629.5846 1036.5846)">
	<stop  offset="0" style="stop-color:#CC0000"/>
	<stop  offset="0.3425" style="stop-color:#A32321"/>
	<stop  offset="1" style="stop-color:#7A272D"/>
</linearGradient>
<path class="st0" d="M182,159.6c4.7,0,9.3-0.2,13.8-0.5c-46.1-3.3-90-22.1-90-45.1H78.9C78.9,140,131.2,159.6,182,159.6z"/>
<linearGradient id="SVGID_2_" gradientUnits="userSpaceOnUse" x1="922.5846" y1="492.2346" x2="968.1846" y2="492.2346" gradientTransform="matrix(0 -1 -1 0 629.5846 1036.5846)">
	<stop  offset="0" style="stop-color:#CC0000"/>
	<stop  offset="0.5225" style="stop-color:#A32321"/>
	<stop  offset="1" style="stop-color:#97272D"/>
</linearGradient>
<path class="st1" d="M78.9,114h26.9c0-22,43.9-41.8,90-45.1c-4.5-0.3-9.1-0.5-13.8-0.5C131.2,68.4,78.9,90,78.9,114z"/>
<linearGradient id="SVGID_3_" gradientUnits="userSpaceOnUse" x1="217.2846" y1="-289.3346" x2="262.6131" y2="-289.3346" gradientTransform="matrix(6.123234e-17 1 1 -6.123234e-17 543.5846 -148.5846)">
	<stop  offset="0" style="stop-color:#999999"/>
	<stop  offset="1.510495e-02" style="stop-color:#969696"/>
	<stop  offset="0.2401" style="stop-color:#6A6A6A"/>
	<stop  offset="0.4572" style="stop-color:#474747"/>
	<stop  offset="0.6614" style="stop-color:#2E2E2E"/>
	<stop  offset="0.8478" style="stop-color:#1F1F1F"/>
	<stop  offset="1" style="stop-color:#1A1A1A"/>
</linearGradient>
<path class="st2" d="M209.6,68.7c-4.7,0-9.3,0-13.8,0.4c46.1,3.3,90,22,90,45h26.9C312.7,88,260.4,68.7,209.6,68.7z"/>
<linearGradient id="SVGID_4_" gradientUnits="userSpaceOnUse" x1="262.5846" y1="-289.3346" x2="308.3846" y2="-289.3346" gradientTransform="matrix(6.123234e-17 1 1 -6.123234e-17 543.5846 -148.5846)">
	<stop  offset="0" style="stop-color:#999999"/>
	<stop  offset="1.510495e-02" style="stop-color:#969696"/>
	<stop  offset="0.2401" style="stop-color:#6A6A6A"/>
	<stop  offset="0.4572" style="stop-color:#474747"/>
	<stop  offset="0.6614" style="stop-color:#2E2E2E"/>
	<stop  offset="0.8478" style="stop-color:#1F1F1F"/>
	<stop  offset="1" style="stop-color:#1A1A1A"/>
</linearGradient>
<path class="st3" d="M312.7,114h-26.9c0,23-43.9,42.1-90,45.4c4.5,0.3,9.1,0.4,13.8,0.4C260.4,159.8,312.7,139,312.7,114z"/>
<linearGradient id="SVGID_5_" gradientUnits="userSpaceOnUse" x1="196.1803" y1="471.7261" x2="240.888" y2="416.0208" gradientTransform="matrix(1 0 0 -1 0 560)">
	<stop  offset="0" style="stop-color:#CC0000"/>
	<stop  offset="0.5225" style="stop-color:#A32321"/>
	<stop  offset="1" style="stop-color:#97272D"/>
</linearGradient>
<polygon class="st4" points="195.8,99.4 239.9,143.6 195.8,76.2 "/>
<linearGradient id="SVGID_6_" gradientUnits="userSpaceOnUse" x1="151.6318" y1="413.8692" x2="195.6223" y2="471.9654" gradientTransform="matrix(1 0 0 -1 0 560)">
	<stop  offset="0" style="stop-color:#CC0000"/>
	<stop  offset="0.5225" style="stop-color:#A32321"/>
	<stop  offset="1" style="stop-color:#97272D"/>
</linearGradient>
<polygon class="st5" points="195.8,99.4 151.7,143.6 195.8,76.2 "/>
<linearGradient id="SVGID_7_" gradientUnits="userSpaceOnUse" x1="863.6846" y1="167.5346" x2="916.571" y2="167.5346" gradientTransform="matrix(0 -1 -1 0 629.5846 1036.5846)">
	<stop  offset="0" style="stop-color:#CC0000"/>
	<stop  offset="0.3425" style="stop-color:#A32321"/>
	<stop  offset="1" style="stop-color:#7A272D"/>
</linearGradient>
<path class="st6" d="M514.1,172.9c5.5,0,10.9,0,16.1-0.4c-53.7-3.9-104.9-25.4-104.9-52.4h-31.4C393.9,150,454.9,172.9,514.1,172.9z
	"/>
<linearGradient id="SVGID_8_" gradientUnits="userSpaceOnUse" x1="916.5846" y1="167.5346" x2="969.9518" y2="167.5346" gradientTransform="matrix(0 -1 -1 0 629.5846 1036.5846)">
	<stop  offset="0" style="stop-color:#CC0000"/>
	<stop  offset="0.5225" style="stop-color:#A32321"/>
	<stop  offset="1" style="stop-color:#97272D"/>
</linearGradient>
<path class="st7" d="M393.9,120h31.4c0-26,51.2-49.1,104.9-52.9c-5.3-0.4-10.6-0.4-16.1-0.4C454.9,66.6,393.9,91,393.9,120z"/>
<linearGradient id="SVGID_9_" gradientUnits="userSpaceOnUse" x1="182.6846" y1="-13.5345" x2="235.5846" y2="-13.5345" gradientTransform="matrix(6.123234e-17 1 1 -6.123234e-17 543.5846 -148.5846)">
	<stop  offset="0" style="stop-color:#999999"/>
	<stop  offset="1.510495e-02" style="stop-color:#969696"/>
	<stop  offset="0.2401" style="stop-color:#6A6A6A"/>
	<stop  offset="0.4572" style="stop-color:#474747"/>
	<stop  offset="0.6614" style="stop-color:#2E2E2E"/>
	<stop  offset="0.8478" style="stop-color:#1F1F1F"/>
	<stop  offset="1" style="stop-color:#1A1A1A"/>
</linearGradient>
<path class="st8" d="M478,34.1c-5.5,0-10.9,0-16.1,0.4C515.6,38.4,566.8,60,566.8,87h31.4C598.3,57,537.3,34.1,478,34.1z"/>
<linearGradient id="SVGID_10_" gradientUnits="userSpaceOnUse" x1="235.5846" y1="-13.4346" x2="288.9518" y2="-13.4346" gradientTransform="matrix(6.123234e-17 1 1 -6.123234e-17 543.5846 -148.5846)">
	<stop  offset="0" style="stop-color:#999999"/>
	<stop  offset="1.510495e-02" style="stop-color:#969696"/>
	<stop  offset="0.2401" style="stop-color:#6A6A6A"/>
	<stop  offset="0.4572" style="stop-color:#474747"/>
	<stop  offset="0.6614" style="stop-color:#2E2E2E"/>
	<stop  offset="0.8478" style="stop-color:#1F1F1F"/>
	<stop  offset="1" style="stop-color:#1A1A1A"/>
</linearGradient>
<path class="st9" d="M598.3,87h-31.4c0,26-51.2,49.1-104.9,52.9c5.3,0.4,10.6,0.4,16.1,0.4C537.3,140.4,598.3,116,598.3,87z"/>
<linearGradient id="SVGID_11_" gradientUnits="userSpaceOnUse" x1="-566.3641" y1="-163.3292" x2="-509.8092" y2="-163.3292" gradientTransform="matrix(0.7017 0.7125 0.7125 -0.7017 692.1417 593.7705)">
	<stop  offset="0" style="stop-color:#999999"/>
	<stop  offset="1.510495e-02" style="stop-color:#969696"/>
	<stop  offset="0.2401" style="stop-color:#6A6A6A"/>
	<stop  offset="0.4572" style="stop-color:#474747"/>
	<stop  offset="0.6614" style="stop-color:#2E2E2E"/>
	<stop  offset="0.8478" style="stop-color:#1F1F1F"/>
	<stop  offset="1" style="stop-color:#1A1A1A"/>
</linearGradient>
<path class="st10" d="M138.7,343.9c-4.2,4.1-8.2,8.2-11.9,12.4c43.8-37.3,98.6-59.6,119.2-38.7l23.9-23.6
	C247.6,271.4,183.8,299.5,138.7,343.9z"/>
<linearGradient id="SVGID_12_" gradientUnits="userSpaceOnUse" x1="-509.8536" y1="-163.3587" x2="-452.7826" y2="-163.3587" gradientTransform="matrix(0.7017 0.7125 0.7125 -0.7017 692.1417 593.7705)">
	<stop  offset="0" style="stop-color:#999999"/>
	<stop  offset="1.510495e-02" style="stop-color:#969696"/>
	<stop  offset="0.2401" style="stop-color:#6A6A6A"/>
	<stop  offset="0.4572" style="stop-color:#474747"/>
	<stop  offset="0.6614" style="stop-color:#2E2E2E"/>
	<stop  offset="0.8478" style="stop-color:#1F1F1F"/>
	<stop  offset="1" style="stop-color:#1A1A1A"/>
</linearGradient>
<path class="st11" d="M269.9,294L246,317.6c18.9,19.2-2.2,75.7-40.2,119c4.3-3.6,8.4-7.6,12.6-11.8
	C263.5,380.4,291.3,315.8,269.9,294z"/>
<linearGradient id="SVGID_13_" gradientUnits="userSpaceOnUse" x1="884.9846" y1="-95.7654" x2="930.5846" y2="-95.7654" gradientTransform="matrix(0 -1 -1 0 629.5846 1036.5846)">
	<stop  offset="0" style="stop-color:#CC0000"/>
	<stop  offset="0.5225" style="stop-color:#A32321"/>
	<stop  offset="1" style="stop-color:#97272D"/>
</linearGradient>
<path class="st12" d="M770,151.6c4.7,0,9.3-0.2,13.8-0.5c-46.1-3.3-90-22.1-90-45.1h-26.9C666.9,132,719.2,151.6,770,151.6z"/>
<linearGradient id="SVGID_14_" gradientUnits="userSpaceOnUse" x1="930.5846" y1="-95.7654" x2="976.1846" y2="-95.7654" gradientTransform="matrix(0 -1 -1 0 629.5846 1036.5846)">
	<stop  offset="0" style="stop-color:#CC0000"/>
	<stop  offset="0.5225" style="stop-color:#A32321"/>
	<stop  offset="1" style="stop-color:#97272D"/>
</linearGradient>
<path class="st13" d="M666.9,106h26.9c0-22,43.9-41.8,90-45.1c-4.5-0.3-9.1-0.5-13.8-0.5C719.2,60.4,666.9,82,666.9,106z"/>
<linearGradient id="SVGID_15_" gradientUnits="userSpaceOnUse" x1="209.2846" y1="298.6654" x2="254.613" y2="298.6654" gradientTransform="matrix(6.123234e-17 1 1 -6.123234e-17 543.5846 -148.5846)">
	<stop  offset="0" style="stop-color:#999999"/>
	<stop  offset="1.510495e-02" style="stop-color:#969696"/>
	<stop  offset="0.2401" style="stop-color:#6A6A6A"/>
	<stop  offset="0.4572" style="stop-color:#474747"/>
	<stop  offset="0.6614" style="stop-color:#2E2E2E"/>
	<stop  offset="0.8478" style="stop-color:#1F1F1F"/>
	<stop  offset="1" style="stop-color:#1A1A1A"/>
</linearGradient>
<path class="st14" d="M797.6,60.7c-4.7,0-9.3,0-13.8,0.4c46.1,3.3,90,22,90,45h26.9C900.7,80,848.4,60.7,797.6,60.7z"/>
<linearGradient id="SVGID_16_" gradientUnits="userSpaceOnUse" x1="254.5846" y1="298.6654" x2="300.3846" y2="298.6654" gradientTransform="matrix(6.123234e-17 1 1 -6.123234e-17 543.5846 -148.5846)">
	<stop  offset="0" style="stop-color:#999999"/>
	<stop  offset="1.510495e-02" style="stop-color:#969696"/>
	<stop  offset="0.2401" style="stop-color:#6A6A6A"/>
	<stop  offset="0.4572" style="stop-color:#474747"/>
	<stop  offset="0.6614" style="stop-color:#2E2E2E"/>
	<stop  offset="0.8478" style="stop-color:#1F1F1F"/>
	<stop  offset="1" style="stop-color:#1A1A1A"/>
</linearGradient>
<path class="st15" d="M900.7,106h-26.9c0,23-43.9,42.1-90,45.4c4.5,0.3,9.1,0.4,13.8,0.4C848.4,151.8,900.7,131,900.7,106z"/>
<linearGradient id="SVGID_17_" gradientUnits="userSpaceOnUse" x1="1440.9471" y1="361.6355" x2="1497.3661" y2="361.6355" gradientTransform="matrix(-0.6016 -0.7988 -0.7988 0.6016 1367.8113 1410.2749)">
	<stop  offset="0" style="stop-color:#CC0000"/>
	<stop  offset="0.5225" style="stop-color:#A32321"/>
	<stop  offset="1" style="stop-color:#97272D"/>
</linearGradient>
<path class="st16" d="M256.5,443.4c4.7-3.5,9.3-7,13.5-10.7c-48.3,31.2-106.3,45.2-123.2,22.7L120,475.6
	C139,500.9,205.9,481.4,256.5,443.4z"/>
<linearGradient id="SVGID_18_" gradientUnits="userSpaceOnUse" x1="1497.3557" y1="361.6827" x2="1554.4387" y2="361.6827" gradientTransform="matrix(-0.6016 -0.7988 -0.7988 0.6016 1367.8113 1410.2749)">
	<stop  offset="0" style="stop-color:#CC0000"/>
	<stop  offset="0.5225" style="stop-color:#A32321"/>
	<stop  offset="1" style="stop-color:#97272D"/>
</linearGradient>
<path class="st17" d="M119.9,475.6l26.8-20.2c-16.9-22.4,12.1-74.9,55.5-112.7c-4.7,3-9.3,6.5-14,10
	C137.6,390.8,100.8,450.2,119.9,475.6z"/>
<line class="st18" x1="774.8" y1="298.1" x2="803.3" y2="298.1"/>
<linearGradient id="SVGID_19_" gradientUnits="userSpaceOnUse" x1="503.7796" y1="233.604" x2="608.4773" y2="103.1517" gradientTransform="matrix(1 0 0 -1 0 560)">
	<stop  offset="0" style="stop-color:#CC0000"/>
	<stop  offset="0.5225" style="stop-color:#A32321"/>
	<stop  offset="1" style="stop-color:#97272D"/>
</linearGradient>
<polygon class="st19" points="502.9,352.6 606.2,455.9 502.9,298 "/>
<linearGradient id="SVGID_20_" gradientUnits="userSpaceOnUse" x1="399.4406" y1="98.0663" x2="502.4588" y2="234.1174" gradientTransform="matrix(1 0 0 -1 0 560)">
	<stop  offset="0" style="stop-color:#CC0000"/>
	<stop  offset="0.5225" style="stop-color:#A32321"/>
	<stop  offset="1" style="stop-color:#97272D"/>
</linearGradient>
<polygon class="st20" points="502.9,352.6 399.5,455.9 502.9,298 "/>
<linearGradient id="SVGID_21_" gradientUnits="userSpaceOnUse" x1="733.7238" y1="122.85" x2="871.0012" y2="122.85" gradientTransform="matrix(1 0 0 -1 0 560)">
	<stop  offset="0" style="stop-color:#CC0000"/>
	<stop  offset="0.3425" style="stop-color:#A32321"/>
	<stop  offset="1" style="stop-color:#7A272D"/>
</linearGradient>
<rect x="794.2" y="417.9" class="st21" width="15.1" height="38.5"/>
<g>
	<path class="st18" d="M609.1,342.5c-4.9-1.4-9.7-2.6-14-3.5c-8.8-1.9-14.8-2.5-18.8-2.5c-5,0-6.7,0.9-6.9,1.4
		c-0.4,0.9,1.8,6.4,18.8,17.6c3.8,2.5,7.9,5,12.4,7.5c0.6-3.6,1.7-7.2,3.2-10.7C605.1,348.8,607,345.5,609.1,342.5z"/>
	<path class="st18" d="M692.1,401.3c4.9,1.4,9.6,2.6,14,3.5c19.9,4.3,25.4,1.9,25.7,1.1c0.4-0.9-1.8-6.4-18.8-17.6
		c-3.8-2.5-7.9-5-12.4-7.5c-0.6,3.6-1.7,7.2-3.2,10.7C696,395.1,694.2,398.3,692.1,401.3z"/>
	
		<linearGradient id="SVGID_22_" gradientUnits="userSpaceOnUse" x1="596.4019" y1="204.9644" x2="669.7872" y2="135.0585" gradientTransform="matrix(1 0 0 -1 0 560)">
		<stop  offset="0" style="stop-color:#CC0000"/>
		<stop  offset="0.3425" style="stop-color:#A32321"/>
		<stop  offset="1" style="stop-color:#7A272D"/>
	</linearGradient>
	<path class="st22" d="M599.8,369.8c-0.9,20.7,11,40.6,31.2,49s42.7,2.9,56.8-12.2c-16.1-4.7-32.8-11-45-16.1
		C630.6,385.5,614.4,377.9,599.8,369.8z"/>
	
		<linearGradient id="SVGID_23_" gradientUnits="userSpaceOnUse" x1="563.0216" y1="209.9654" x2="738.1121" y2="209.9654" gradientTransform="matrix(1 0 0 -1 0 560)">
		<stop  offset="0" style="stop-color:#999999"/>
		<stop  offset="1" style="stop-color:#1A1A1A"/>
	</linearGradient>
	<path class="st23" d="M588.2,355.5c-17-11.2-19.2-16.7-18.8-17.6c0.2-0.5,2-1.4,6.9-1.4c4,0,9.9,0.6,18.8,2.5
		c4.4,0.9,9.1,2.1,14,3.5c1.3-1.9,2.8-3.6,4.3-5.3c-23.8-7-46.2-10.5-49.9-1.7s14.6,22.2,36.3,34.3c0.1-2.3,0.4-4.5,0.8-6.8
		C596.1,360.5,591.9,357.9,588.2,355.5z"/>
	
		<linearGradient id="SVGID_24_" gradientUnits="userSpaceOnUse" x1="563.0303" y1="166.2" x2="738.1207" y2="166.2" gradientTransform="matrix(1 0 0 -1 0 560)">
		<stop  offset="0" style="stop-color:#999999"/>
		<stop  offset="1" style="stop-color:#1A1A1A"/>
	</linearGradient>
	<path class="st24" d="M701.4,374c-0.1,2.3-0.4,4.5-0.8,6.8c4.5,2.5,8.6,5.1,12.4,7.5c17,11.2,19.2,16.7,18.8,17.6
		s-5.8,3.2-25.7-1.1c-4.4-0.9-9.1-2.1-14-3.5c-1.3,1.9-2.8,3.6-4.3,5.3c13.8,4.1,27.2,7,36.6,7c6.9,0,11.7-1.5,13.2-5.2
		C741.3,399.5,723.1,386.1,701.4,374z"/>
	
		<linearGradient id="SVGID_25_" gradientUnits="userSpaceOnUse" x1="613.7396" y1="223.1651" x2="687.125" y2="153.2592" gradientTransform="matrix(1 0 0 -1 0 560)">
		<stop  offset="0" style="stop-color:#CC0000"/>
		<stop  offset="0.3425" style="stop-color:#A32321"/>
		<stop  offset="1" style="stop-color:#7A272D"/>
	</linearGradient>
	<path class="st25" d="M609.1,342.5c-2.1,3-4,6.3-5.4,9.8c-1.5,3.5-2.5,7.1-3.2,10.7c12.8,7.3,28.2,14.8,44.7,21.7
		c16.5,6.9,32.7,12.6,46.8,16.6c2.1-3,4-6.3,5.4-9.8c1.5-3.5,2.5-7.1,3.2-10.7c-12.8-7.3-28.2-14.8-44.7-21.7
		C639.4,352.2,623.3,346.5,609.1,342.5z"/>
	
		<linearGradient id="SVGID_26_" gradientUnits="userSpaceOnUse" x1="631.1222" y1="241.4079" x2="704.5077" y2="171.502" gradientTransform="matrix(1 0 0 -1 0 560)">
		<stop  offset="0" style="stop-color:#CC0000"/>
		<stop  offset="0.3425" style="stop-color:#A32321"/>
		<stop  offset="1" style="stop-color:#7A272D"/>
	</linearGradient>
	<path class="st26" d="M670.2,325c-20.2-8.4-42.7-2.9-56.8,12.2c16.1,4.7,32.8,11,45,16.1c12.1,5.1,28.4,12.6,43,20.8
		C702.3,353.4,690.4,333.4,670.2,325z"/>
	
		<linearGradient id="SVGID_27_" gradientUnits="userSpaceOnUse" x1="622.7968" y1="232.6645" x2="696.1823" y2="162.7586" gradientTransform="matrix(1 0 0 -1 0 560)">
		<stop  offset="0" style="stop-color:#CC0000"/>
		<stop  offset="0.3425" style="stop-color:#A32321"/>
		<stop  offset="1" style="stop-color:#7A272D"/>
	</linearGradient>
	<path class="st27" d="M613.4,337.2c-1.5,1.6-3,3.4-4.3,5.3c14.2,4,30.3,9.7,46.8,16.6s31.9,14.4,44.7,21.7c0.4-2.3,0.7-4.5,0.8-6.8
		c-14.7-8.2-30.9-15.7-43-20.8C646.2,348.2,629.5,341.9,613.4,337.2z"/>
	
		<linearGradient id="SVGID_28_" gradientUnits="userSpaceOnUse" x1="604.6617" y1="213.6354" x2="678.0471" y2="143.7295" gradientTransform="matrix(1 0 0 -1 0 560)">
		<stop  offset="0" style="stop-color:#CC0000"/>
		<stop  offset="0.3425" style="stop-color:#A32321"/>
		<stop  offset="1" style="stop-color:#7A272D"/>
	</linearGradient>
	<path class="st28" d="M645.2,384.7c-16.5-6.9-31.9-14.4-44.7-21.7c-0.4,2.3-0.7,4.5-0.8,6.8c14.7,8.2,30.9,15.7,43,20.8
		c12.1,5.1,28.9,11.3,45,16.1c1.5-1.6,3-3.4,4.3-5.3C677.9,397.3,661.8,391.6,645.2,384.7z"/>
	
		<linearGradient id="SVGID_29_" gradientUnits="userSpaceOnUse" x1="563.0303" y1="175.15" x2="738.1207" y2="175.15" gradientTransform="matrix(1 0 0 -1 0 560)">
		<stop  offset="0" style="stop-color:#999999"/>
		<stop  offset="1" style="stop-color:#1A1A1A"/>
	</linearGradient>
	<path class="st29" d="M645.2,384.7c-16.5-6.9-31.9-14.4-44.7-21.7c-0.4,2.3-0.7,4.5-0.8,6.8c14.7,8.2,30.9,15.7,43,20.8
		c12.1,5.1,28.9,11.3,45,16.1c1.5-1.6,3-3.4,4.3-5.3C677.9,397.3,661.8,391.6,645.2,384.7z"/>
</g>
<linearGradient id="SVGID_30_" gradientUnits="userSpaceOnUse" x1="734.7" y1="182.65" x2="874" y2="182.65" gradientTransform="matrix(1 0 0 -1 0 560)">
	<stop  offset="0" style="stop-color:#CC0000"/>
	<stop  offset="0.3425" style="stop-color:#A32321"/>
	<stop  offset="1" style="stop-color:#7A272D"/>
</linearGradient>
<path class="st30" d="M874,456.3h-30.2l-12.5-37.6h-60.2l-12.3,37.6h-24.1l52-157.9h34.8L874,456.3z M823.8,395.9L801,325.5
	l-22.8,70.4H823.8z"/>
<g>
	<path class="st31" d="M409.5,498.5l-2.1,7.7h-7.1l9.2-30.1h8.9l9.3,30.1h-7.3l-2.3-7.7H409.5z M417.1,493.4l-1.9-6.4
		c-0.5-1.8-1.1-4-1.5-5.8h-0.1c-0.4,1.8-0.9,4.1-1.4,5.8l-1.8,6.4H417.1z"/>
	<path class="st31" d="M431.8,476.5c2.2-0.4,5.5-0.6,9.1-0.6c4.5,0,7.6,0.7,9.7,2.4c1.8,1.4,2.8,3.5,2.8,6.3c0,3.8-2.7,6.5-5.3,7.4
		v0.1c2.1,0.8,3.3,2.9,4,5.6c0.9,3.4,1.9,7.3,2.5,8.5h-7c-0.5-0.8-1.2-3.3-2.1-7c-0.8-3.8-2.1-4.8-4.9-4.8h-2.1v11.8h-6.7V476.5z
		 M438.5,489.5h2.7c3.4,0,5.4-1.7,5.4-4.3c0-2.8-1.9-4.2-5-4.2c-1.7,0-2.6,0.1-3.1,0.2V489.5z"/>
	<path class="st31" d="M458.3,476.1h6.7v13.3h0.1c0.7-1.2,1.4-2.2,2.1-3.3l6.8-10h8.4l-10,12.8l10.5,17.3h-8l-7.4-13l-2.6,3.2v9.8
		h-6.7v-30.1H458.3z"/>
	<path class="st31" d="M516.9,505.4c-1.3,0.6-4.1,1.3-7.7,1.3c-10.4,0-15.8-6.5-15.8-15.1c0-10.3,7.3-16,16.4-16
		c3.5,0,6.2,0.7,7.4,1.3l-1.4,5.4c-1.4-0.6-3.3-1.1-5.7-1.1c-5.4,0-9.6,3.3-9.6,10c0,6,3.6,9.8,9.7,9.8c2.1,0,4.3-0.4,5.7-1
		L516.9,505.4z"/>
	<path class="st31" d="M547.5,490.9c0,9.9-6,15.9-14.8,15.9c-8.9,0-14.2-6.7-14.2-15.3c0-9,5.8-15.8,14.7-15.8
		C542.5,475.6,547.5,482.6,547.5,490.9z M525.8,491.3c0,5.9,2.8,10.1,7.3,10.1c4.6,0,7.2-4.4,7.2-10.2c0-5.4-2.6-10.1-7.3-10.1
		C528.5,481,525.8,485.4,525.8,491.3z"/>
	<path class="st31" d="M577.5,494.7c-0.1-3.6-0.3-8-0.3-12.4h-0.1c-0.9,3.8-2.2,8.1-3.4,11.7l-3.7,11.8h-5.3l-3.2-11.7
		c-1-3.5-2-7.8-2.7-11.8h-0.1c-0.2,4.1-0.3,8.7-0.5,12.5l-0.5,11.4h-6.3l1.9-30.1h9.1l2.9,10.1c0.9,3.5,1.9,7.2,2.5,10.8h0.1
		c0.8-3.5,1.9-7.5,2.9-10.8l3.2-10h8.9l1.7,30.1h-6.7L577.5,494.7z"/>
	<path class="st31" d="M615.3,494.7c-0.1-3.6-0.3-8-0.3-12.4h-0.1c-0.9,3.8-2.2,8.1-3.4,11.7l-3.7,11.8h-5.3l-3.2-11.7
		c-1-3.5-2-7.8-2.7-11.8h-0.1c-0.2,4.1-0.3,8.7-0.5,12.5l-0.5,11.4h-6.3l1.9-30.1h9.1l2.9,10.1c0.9,3.5,1.9,7.2,2.5,10.8h0.1
		c0.8-3.5,1.9-7.5,2.9-10.8l3.2-10h8.9l1.7,30.1h-6.7L615.3,494.7z"/>
	<path class="st31" d="M634.4,476.1v17.3c0,5.2,2,7.8,5.5,7.8c3.6,0,5.5-2.5,5.5-7.8v-17.3h6.8V493c0,9.3-4.7,13.7-12.6,13.7
		c-7.6,0-12.1-4.2-12.1-13.8v-16.8L634.4,476.1L634.4,476.1z"/>
	<path class="st31" d="M658.1,506.2v-30.1h8l6.3,11c1.8,3.2,3.6,6.9,4.9,10.3h0.1c-0.4-4-0.6-8-0.6-12.6V476h6.3v30.1H676l-6.4-11.6
		c-1.8-3.2-3.8-7.1-5.2-10.6h-0.1c0.2,4,0.3,8.2,0.3,13.1v9.1h-6.5V506.2z"/>
	<path class="st31" d="M695.7,476.1v30.1h-6.8v-30.1H695.7z"/>
	<path class="st31" d="M707.4,481.8h-8.1v-5.7h23.1v5.7h-8.2v24.4h-6.8V481.8z"/>
	<path class="st31" d="M733.4,506.2v-12.3l-9.5-17.8h7.8l3.1,7.2c0.9,2.2,1.6,3.8,2.3,5.8h0.1c0.7-1.9,1.4-3.6,2.3-5.8l3-7.2h7.6
		l-9.9,17.6v12.6h-6.8V506.2z"/>
	<path class="st31" d="M762.4,476.1h18.4v5.6h-11.6v6.9H780v5.5h-10.8v12.1h-6.8V476.1z"/>
	<path class="st31" d="M792.7,476.1v17.3c0,5.2,2,7.8,5.5,7.8c3.6,0,5.5-2.5,5.5-7.8v-17.3h6.8V493c0,9.3-4.7,13.7-12.6,13.7
		c-7.6,0-12.1-4.2-12.1-13.8v-16.8L792.7,476.1L792.7,476.1z"/>
	<path class="st31" d="M816.4,506.2v-30.1h8l6.3,11c1.8,3.2,3.6,6.9,4.9,10.3h0.1c-0.4-4-0.6-8-0.6-12.6V476h6.3v30.1h-7.1
		l-6.4-11.6c-1.8-3.2-3.8-7.1-5.2-10.6h-0.1c0.2,4,0.3,8.2,0.3,13.1v9.1h-6.5V506.2z"/>
	<path class="st31" d="M847.2,476.5c2.5-0.4,5.8-0.6,9.2-0.6c5.7,0,9.4,1,12.3,3.2c3.1,2.3,5.1,6,5.1,11.3c0,5.8-2.1,9.7-5,12.2
		c-3.2,2.6-8,3.9-13.9,3.9c-3.5,0-6-0.2-7.7-0.4L847.2,476.5L847.2,476.5z M854.1,501.1c0.6,0.1,1.5,0.1,2.4,0.1
		c6.2,0,10.2-3.4,10.2-10.5c0-6.3-3.6-9.6-9.5-9.6c-1.5,0-2.5,0.1-3.1,0.3L854.1,501.1L854.1,501.1z"/>
</g>
<g>
	<path class="st18" d="M763.3,91.1c-2.4-0.7-4.8-1.3-6.9-1.7c-4.4-0.9-7.3-1.2-9.3-1.2c-2.5,0-3.3,0.5-3.4,0.7
		c-0.2,0.4,0.9,3.2,9.3,8.7c1.9,1.2,3.9,2.5,6.1,3.7c0.3-1.8,0.8-3.6,1.6-5.3C761.4,94.2,762.3,92.6,763.3,91.1z"/>
	<path class="st18" d="M804.3,120.2c2.4,0.7,4.8,1.3,6.9,1.7c9.9,2.1,12.5,1,12.7,0.5c0.2-0.4-0.9-3.2-9.3-8.7
		c-1.9-1.2-3.9-2.5-6.1-3.7c-0.3,1.8-0.8,3.6-1.6,5.3S805.4,118.7,804.3,120.2z"/>
	
		<linearGradient id="SVGID_31_" gradientUnits="userSpaceOnUse" x1="756.9713" y1="462.6648" x2="793.265" y2="428.092" gradientTransform="matrix(1 0 0 -1 0 560)">
		<stop  offset="0" style="stop-color:#CC0000"/>
		<stop  offset="0.3425" style="stop-color:#A32321"/>
		<stop  offset="1" style="stop-color:#7A272D"/>
	</linearGradient>
	<path class="st32" d="M758.7,104.6c-0.4,10.2,5.4,20.1,15.4,24.3s21.1,1.4,28.1-6c-8-2.3-16.2-5.4-22.2-7.9
		C774,112.3,765.9,108.6,758.7,104.6z"/>
	
		<linearGradient id="SVGID_32_" gradientUnits="userSpaceOnUse" x1="740.5277" y1="465.277" x2="827.1207" y2="465.277" gradientTransform="matrix(1 0 0 -1 0 560)">
		<stop  offset="0" style="stop-color:#999999"/>
		<stop  offset="1" style="stop-color:#1A1A1A"/>
	</linearGradient>
	<path class="st33" d="M753,97.5c-8.4-5.5-9.5-8.3-9.3-8.7c0.1-0.2,1-0.7,3.4-0.7c2,0,4.9,0.3,9.3,1.2c2.2,0.5,4.5,1.1,6.9,1.7
		c0.7-0.9,1.4-1.8,2.1-2.6c-11.8-3.5-22.8-5.2-24.7-0.9c-1.8,4.4,7.2,11,17.9,17c0-1.1,0.2-2.2,0.4-3.3
		C756.9,100,754.8,98.7,753,97.5z"/>
	
		<linearGradient id="SVGID_33_" gradientUnits="userSpaceOnUse" x1="740.5277" y1="443.55" x2="827.1206" y2="443.55" gradientTransform="matrix(1 0 0 -1 0 560)">
		<stop  offset="0" style="stop-color:#999999"/>
		<stop  offset="1" style="stop-color:#1A1A1A"/>
	</linearGradient>
	<path class="st34" d="M809,106.7c0,1.1-0.2,2.2-0.4,3.3c2.2,1.3,4.3,2.5,6.1,3.7c8.4,5.5,9.5,8.3,9.3,8.7
		c-0.2,0.4-2.9,1.6-12.7-0.5c-2.2-0.5-4.5-1.1-6.9-1.7c-0.7,0.9-1.4,1.8-2.1,2.6c6.8,2,13.4,3.4,18.1,3.4c3.4,0,5.8-0.7,6.5-2.6
		C828.7,119.3,819.7,112.6,809,106.7z"/>
	
		<linearGradient id="SVGID_34_" gradientUnits="userSpaceOnUse" x1="765.6072" y1="471.7303" x2="801.9006" y2="437.1576" gradientTransform="matrix(1 0 0 -1 0 560)">
		<stop  offset="0" style="stop-color:#CC0000"/>
		<stop  offset="0.3425" style="stop-color:#A32321"/>
		<stop  offset="1" style="stop-color:#7A272D"/>
	</linearGradient>
	<path class="st35" d="M763.3,91.1c-1,1.5-2,3.1-2.7,4.8c-0.7,1.7-1.2,3.5-1.6,5.3c6.3,3.6,13.9,7.3,22.1,10.7
		c8.2,3.4,16.2,6.2,23.2,8.2c1-1.5,2-3.1,2.7-4.8s1.2-3.5,1.6-5.3c-6.3-3.6-13.9-7.3-22.1-10.7C778.3,95.9,770.3,93,763.3,91.1z"/>
	
		<linearGradient id="SVGID_35_" gradientUnits="userSpaceOnUse" x1="774.1992" y1="480.7472" x2="810.4928" y2="446.1745" gradientTransform="matrix(1 0 0 -1 0 560)">
		<stop  offset="0" style="stop-color:#CC0000"/>
		<stop  offset="0.3425" style="stop-color:#A32321"/>
		<stop  offset="1" style="stop-color:#7A272D"/>
	</linearGradient>
	<path class="st36" d="M793.5,82.4c-10-4.2-21.1-1.4-28.1,6c8,2.3,16.2,5.4,22.2,7.9s14,6.2,21.3,10.3
		C809.4,96.5,803.5,86.6,793.5,82.4z"/>
	
		<linearGradient id="SVGID_36_" gradientUnits="userSpaceOnUse" x1="770.0746" y1="476.4132" x2="806.3682" y2="441.8405" gradientTransform="matrix(1 0 0 -1 0 560)">
		<stop  offset="0" style="stop-color:#CC0000"/>
		<stop  offset="0.3425" style="stop-color:#A32321"/>
		<stop  offset="1" style="stop-color:#7A272D"/>
	</linearGradient>
	<path class="st37" d="M765.4,88.5c-0.8,0.8-1.5,1.7-2.1,2.6c7,2,15,4.8,23.2,8.2c8.2,3.4,15.8,7.1,22.1,10.7
		c0.2-1.1,0.3-2.2,0.4-3.3c-7.2-4-15.3-7.8-21.3-10.3C781.7,93.9,773.4,90.8,765.4,88.5z"/>
	
		<linearGradient id="SVGID_37_" gradientUnits="userSpaceOnUse" x1="761.1668" y1="467.0691" x2="797.4604" y2="432.4963" gradientTransform="matrix(1 0 0 -1 0 560)">
		<stop  offset="0" style="stop-color:#CC0000"/>
		<stop  offset="0.3425" style="stop-color:#A32321"/>
		<stop  offset="1" style="stop-color:#7A272D"/>
	</linearGradient>
	<path class="st38" d="M781.2,111.9c-8.2-3.4-15.8-7.1-22.1-10.7c-0.2,1.1-0.3,2.2-0.4,3.3c7.2,4,15.3,7.8,21.3,10.3
		s14.3,5.6,22.2,7.9c0.8-0.8,1.5-1.7,2.1-2.6C797.3,118.2,789.4,115.4,781.2,111.9z"/>
	
		<linearGradient id="SVGID_38_" gradientUnits="userSpaceOnUse" x1="740.5277" y1="448.05" x2="827.1206" y2="448.05" gradientTransform="matrix(1 0 0 -1 0 560)">
		<stop  offset="0" style="stop-color:#999999"/>
		<stop  offset="1" style="stop-color:#1A1A1A"/>
	</linearGradient>
	<path class="st39" d="M781.2,111.9c-8.2-3.4-15.8-7.1-22.1-10.7c-0.2,1.1-0.3,2.2-0.4,3.3c7.2,4,15.3,7.8,21.3,10.3
		s14.3,5.6,22.2,7.9c0.8-0.8,1.5-1.7,2.1-2.6C797.3,118.2,789.4,115.4,781.2,111.9z"/>
</g>
<rect x="441.2" y="488.8" class="st18" width="3.2" height="0.7"/>
</svg>
