<?xml version="1.0" encoding="UTF-8" standalone="no"?>
<!-- Generator: Adobe Illustrator 16.0.0, SVG Export Plug-In . SVG Version: 6.00 Build 0)  -->

<svg
   xmlns:dc="http://purl.org/dc/elements/1.1/"
   xmlns:cc="http://creativecommons.org/ns#"
   xmlns:rdf="http://www.w3.org/1999/02/22-rdf-syntax-ns#"
   xmlns:svg="http://www.w3.org/2000/svg"
   xmlns="http://www.w3.org/2000/svg"
   xmlns:sodipodi="http://sodipodi.sourceforge.net/DTD/sodipodi-0.dtd"
   xmlns:inkscape="http://www.inkscape.org/namespaces/inkscape"
   version="1.1"
   id="Layer_1"
   x="0px"
   y="0px"
   width="612"
   height="612"
   viewBox="0 0 612 612"
   enable-background="new 0 0 612 792"
   xml:space="preserve"
   sodipodi:docname="AcfLogotthrhmral.svg"
   inkscape:version="0.92.2 (5c3e80d, 2017-08-06)"
   inkscape:export-filename="C:\Users\jens\Documents\GitHub\logo_contest\TTH Submission\AcfLogotthrhmral.png"
   inkscape:export-xdpi="15.37"
   inkscape:export-ydpi="15.37"><metadata
     id="metadata3739"><rdf:RDF><cc:Work
         rdf:about=""><dc:format>image/svg+xml</dc:format><dc:type
           rdf:resource="http://purl.org/dc/dcmitype/StillImage" /><dc:title></dc:title></cc:Work></rdf:RDF></metadata><defs
     id="defs3737" /><sodipodi:namedview
     pagecolor="#ffffff"
     bordercolor="#666666"
     borderopacity="1"
     objecttolerance="10"
     gridtolerance="10"
     guidetolerance="10"
     inkscape:pageopacity="0"
     inkscape:pageshadow="2"
     inkscape:window-width="2736"
     inkscape:window-height="1699"
     id="namedview3735"
     showgrid="false"
     showguides="false"
     inkscape:zoom="1.7575758"
     inkscape:cx="68.741379"
     inkscape:cy="396"
     inkscape:window-x="-13"
     inkscape:window-y="-13"
     inkscape:window-maximized="1"
     inkscape:current-layer="Layer_1" /><g
     id="g3748"
     transform="translate(13.140555,93.34602)"><g
       transform="translate(0,-180)"
       id="g3726"><path
         style="clip-rule:evenodd;fill:#ff0000;fill-rule:evenodd"
         inkscape:connector-curvature="0"
         id="path3720"
         d="m 80.68,412.871 c 6.424,-2.95 12.784,-6.054 19.284,-8.826 33.799,-14.417 68.34,-27.045 101.193,-43.747 29.585,-15.041 58.293,-31.587 85.947,-49.782 32.69,-21.51 65.138,-21.061 98.42,-2.626 8.613,4.77 16.215,10.961 23.63,18.13 -5.288,5.854 -10.366,11.473 -15.715,17.394 -7.006,-6.962 -14.427,-12.773 -23.015,-17.036 -40.7,-20.201 -85.75,6.037 -87.062,51.5 -1.227,42.541 37.605,70.234 75.229,61.823 9.291,-2.077 17.497,-7.129 25.294,-12.709 16.5,-11.81 30.927,-25.802 44.231,-41.041 8.67,-9.933 17.779,-19.366 29.499,-25.87 5.772,-3.204 11.736,-5.062 18.429,-5.023 23.161,0.13 46.323,0.05 69.485,0.05 1.632,0 3.266,0 5.269,0 0,8.666 0,16.909 0,26.115 -13.039,0 -26.113,0 -39.188,0 -13.113,0 -26.228,0 -39.732,0 0,29.127 0,57.565 0,86.374 -9.932,0 -19.469,0 -29.603,0 0,-21.928 0,-43.68 0,-65.518 -3.025,-0.105 -3.901,2.008 -5.111,3.374 -11.047,12.476 -22.051,24.978 -34.566,36.05 -7.505,6.638 -15.46,12.664 -23.918,18.007 -15.217,9.612 -31.936,10.712 -49.144,8.088 -39.426,-6.013 -68.412,-34.512 -75.079,-73.812 -1.625,-9.579 -1.494,-19.231 0.168,-28.836 0.25,-1.447 0.373,-2.917 0.536,-4.226 -1.319,-1.04 -2.154,-0.123 -2.91,0.293 -41.175,22.7 -85.191,38.203 -129.987,51.888 -27.635,8.442 -54.301,19.181 -77.04,37.782 -6.391,5.229 -12.633,10.616 -19.07,16.027 41.574,-66.143 83.149,-132.287 125.104,-199.034 17.908,28.419 35.424,56.218 53.225,84.465 -8.914,4.764 -17.372,9.284 -25.25,13.495 -9.566,-8.847 -18.834,-17.417 -28.478,-26.335 -23.169,23.973 -46.834,48.458 -70.499,72.942 0.142,0.206 0.283,0.415 0.424,0.624 z" /><path
         style="clip-rule:evenodd;fill:#ff0000;fill-rule:evenodd"
         inkscape:connector-curvature="0"
         id="path3722"
         d="m 442.465,364.119 c 0,-24.361 0,-47.301 0,-70.623 39.021,0 77.856,0 117.092,0 0,7.904 0.025,15.828 -0.014,23.751 -0.015,2.865 -2.248,2.383 -3.995,2.388 -11.318,0.031 -22.639,0.018 -33.958,0.018 -16.307,0 -32.613,0 -49.495,0 0,10.12 0,20.012 0,29.924 -10.803,3.152 -20.589,7.299 -29.63,14.542 z" /><path
         style="clip-rule:evenodd;fill:#ff0000;fill-rule:evenodd"
         inkscape:connector-curvature="0"
         id="path3724"
         d="m 202.13,390.868 c 7.551,-3.004 14.154,-5.631 21.388,-8.509 17.733,28.125 35.396,56.137 53.058,84.149 -0.248,0.199 -0.496,0.398 -0.744,0.598 -24.346,-25.182 -48.691,-50.366 -73.702,-76.238 z" /></g><text
       y="337.00491"
       x="28.333"
       id="text3732"><tspan
         style="font-size:44px;font-family:Montserrat-Regular"
         id="tspan3728"
         font-size="44"
         y="337.00491"
         x="28.333">ARK </tspan><tspan
         style="font-size:44px;font-family:Montserrat-Light"
         id="tspan3730"
         font-size="44"
         y="337.00491"
         x="137.407">COMMUNITY FUND</tspan></text>
</g></svg>