<?xml version="1.0" encoding="utf-8"?>
<!-- Generator: Adobe Illustrator 21.0.0, SVG Export Plug-In . SVG Version: 6.00 Build 0)  -->
<svg version="1.1" xmlns="http://www.w3.org/2000/svg" xmlns:xlink="http://www.w3.org/1999/xlink" x="0px" y="0px"
	 viewBox="0 0 800 800" style="enable-background:new 0 0 800 800;" xml:space="preserve">
<style type="text/css">
	.st0{fill:#FFD84D;}
	.st1{font-family:'Impact';}
	.st2{font-size:100px;}
	.st3{fill:#999999;}
	.st4{font-size:50px;}
	.st5{fill:none;stroke:#FFD94D;stroke-miterlimit:10;}
	.st6{fill:none;stroke:#000000;stroke-linecap:round;stroke-miterlimit:10;}
	.st7{fill:#FFD94D;}
	.st8{fill:#0071BC;}
</style>
<g id="Laag_1">
	<text transform="matrix(1 0 0 1 400 380.6315)" class="st0 st1 st2">rk</text>
	<text transform="matrix(1 0 0 1 453.5 427.75)" class="st3 st1 st4">fund</text>
</g>
<g id="Laag_2">
	<path class="st5" d="M339.6,297.8"/>
	<polyline class="st5" points="282.2,379.7 302.2,379.7 339.6,337.8 	"/>
	<path class="st6" d="M282.2,297.8"/>
	<path class="st5" d="M339.7,297.8"/>
	<polyline class="st5" points="397.1,379.7 377.1,379.7 339.7,337.8 	"/>
	<line class="st5" x1="282.2" y1="379.7" x2="339.6" y2="297.8"/>
	<line class="st5" x1="397.1" y1="379.7" x2="339.7" y2="297.8"/>
	<g>
		<g>
			<path class="st7" d="M297.9,377c9.2-5.7,16.1-13.8,22.1-22.6c3.3-4.9,6.3-10,9.5-15c1.6-2.5,3.3-5,5-7.4c0.3-0.4,2.8-4.2,3.4-4.2
				c-0.9-0.1,0.5,1.3,0.7,1.7c5.5,9.3,14.4,15.8,20.6,24.4c6.6,9.2,11,20,21.8,25.2c6.9,3.3,13-7,6.1-10.4
				c-10.9-5.3-15.2-19-23-27.8c-3.9-4.4-8.3-8.4-11.9-13c-3.3-4.2-5.6-10.2-11.2-12c-6.1-1.9-10.5,2-14.1,6.5
				c-4,5.1-7.5,10.6-11,16.2c-6.5,10.5-13.2,21.3-24,28C285.3,370.7,291.3,381.1,297.9,377L297.9,377z"/>
		</g>
	</g>
	<g>
		<g>
			<path class="st7" d="M310.3,339.6c-1.6,2.2-2.2,5.2-4.2,7c2.6,2,5.2,4,7.9,6.1c1.1-1.5,2.1-3.1,3.2-4.6c3-4.4-2.7-9-6.8-6.8
				c-5.2,2.8-7.1,10.2-10.8,14.6c-4,4.9,2.5,11.8,7.1,7.1c1.4-1.4,2.6-3,3.6-4.7c3.2-5.2-3.7-9.3-7.9-6.1c-1.3,1-2.4,2.3-3.2,3.8
				c3,1.3,6.1,2.6,9.1,3.9c-0.1,0.2-0.2,0.4-0.3,0.5c1.7-2.1,2-5,0-7.1c-1.7-1.8-5.4-2.1-7.1,0c-1,1.3-1.7,2.4-2.2,3.9
				c-2,5.4,6.3,8.6,9.1,3.9c0.5-0.8,1-1.2,1.7-1.7c-2.6-2-5.2-4-7.9-6.1c-0.6,1-1.2,1.8-2.1,2.7c2.4,2.4,4.7,4.7,7.1,7.1
				c1.9-2.2,3.5-4.6,5-7.1c1-1.6,2.3-5.2,3.7-6c-2.3-2.3-4.6-4.6-6.8-6.8c-1.1,1.5-2.1,3.1-3.2,4.6c-3.3,4.8,3.8,9.8,7.9,6.1
				c2.8-2.6,3.6-6.1,5.7-9C322.7,339.4,314,334.4,310.3,339.6L310.3,339.6z"/>
		</g>
	</g>
	<g>
		<g>
			<path class="st7" d="M301.8,369.9c0.7-0.5,1.2-1.3,1.6-2c0.9-2,1-4.5-0.8-6.1c-1.8-1.6-3.9-1.7-6.1-0.8c-2,0.9-3.2,3-4.5,4.6
				c-1.5,2-0.5,5.1,1.3,6.5c2,1.5,4.8,1.4,6.6-0.4c2.7-2.7,4.7-5.9,6-9.5c0.9-2.4-1-5.6-3.5-6.2c-2.9-0.7-5.1,0.9-6.2,3.5
				c-0.2,0.6-0.2,0.6-0.1,0.2c-0.1,0.3-0.3,0.6-0.4,0.9c-0.3,0.6-0.6,1.1-1,1.7c-0.2,0.3-0.4,0.5-0.6,0.8c0.3-0.4,0.3-0.3-0.1,0.1
				c-0.4,0.5-0.9,1-1.3,1.4c2.6,2,5.2,4,7.9,6.1c0.1-0.1,1-1.4,0.7-1c-0.2,0.3-0.2,0.2,0.2-0.2c-0.5,0.3-0.5,0.3,0,0.1
				c-2.3-2.3-4.6-4.6-6.8-6.8c-0.2,0.5-0.2,0.5,0,0c-2,1.7-1.9,5.4,0,7.1C296.8,371.9,299.6,371.7,301.8,369.9L301.8,369.9z"/>
		</g>
	</g>
	<g>
		<g>
			<path class="st7" d="M326.2,344.6c-1,1.5-1.9,3-2.8,4.7c-0.7,1.4,1.2,3.2,2.4,1.8c3.1-3.7,5.7-7.7,7.8-12.1
				c0.7-1.4-1.2-3.2-2.4-1.8c-2.5,2.8-4.9,6-7.8,8.4c0.8,0.6,1.6,1.2,2.4,1.8c2.6-4.8,5.9-9.1,9.2-13.3c1.2-1.5-0.9-3.6-2.1-2.1
				c-1.2,1.4-2.4,2.9-3.6,4.3c0.8,0.6,1.6,1.2,2.4,1.8c2.2-4,4.4-8,6.6-12c-0.9-0.5-1.7-1-2.6-1.5c-1.3,2.8-3,5.2-4.8,7.6
				c-1,1.4,1.2,3.1,2.4,1.8c1.3-1.5,2.7-2.7,4.4-3.7c-0.7-0.7-1.4-1.4-2.1-2.1c-0.4,0.6-0.7,1.1-1.1,1.7c-1,1.5,1.1,2.8,2.4,1.8
				c0.8-0.7,1.7-1.4,2.5-2c-0.8-0.6-1.6-1.2-2.4-1.8c-1,1.8-2.1,3.5-3.2,5.2c-1,1.5,1.1,2.9,2.4,1.8c1.3-1.2,2.6-2.3,3.8-3.5
				c-0.7-0.7-1.4-1.4-2.1-2.1c-1.8,1.9-3.7,3.7-5.6,5.5c-1.4,1.3,0.7,3.4,2.1,2.1c1-1,2.1-1.7,3.3-2.4c-0.6-0.8-1.2-1.6-1.8-2.4
				c-2,1.8-4.2,3.2-6.4,4.6c-1.6,1-0.2,3.6,1.5,2.6c1.7-1,3.4-1.9,5-2.9c-0.5-0.9-1-1.7-1.5-2.6c-1.3,1-2.7,2-4.1,2.9
				c-1.6,1.1-0.2,3.4,1.5,2.6c1.5-0.7,3-1.4,4.6-1.9c-0.4-0.9-0.8-1.8-1.2-2.7c-1.8,1.3-3.5,2.7-5.2,4.3c-1.3,1.3,0.4,3,1.8,2.4
				c1.3-0.6,2.5-1.2,3.8-1.9c-0.6-0.8-1.2-1.6-1.8-2.4c-0.7,0.6-1.3,1.2-2,1.8c-1.1,1,0.1,2.9,1.5,2.5c0.7-0.2,1.3-0.4,2-0.6
				c-0.5-0.8-1-1.7-1.5-2.5c-0.5,0.5-1,0.9-1.6,1.4c-1.1,0.9,0.1,3.1,1.5,2.5c0.9-0.4,1.6-0.7,2.5-1.1c-0.5-0.9-1-1.7-1.5-2.6
				c-0.2,0.1-0.3,0.2-0.5,0.4c0.5,0.9,1,1.7,1.5,2.6c2.7-2,4.7-4.3,6.2-7.3c0.5-1-0.4-2.8-1.7-2.2c-1.4,0.6-1.9,0.8-3.1,1.8
				c0.7,0.7,1.4,1.4,2.1,2.1c0.6-0.8,1.3-1.6,1.9-2.4c1.2-1.5-0.7-3.5-2.1-2.1c-0.6,0.6-1.2,1.1-1.9,1.6c0.7,0.7,1.4,1.4,2.1,2.1
				c0.5-0.4,0.9-0.8,1.4-1.2c-0.8-0.4-1.5-0.9-2.3-1.3c0.2,2.9,1.7,3.6,3.5,5.8c0.5-0.8,1-1.7,1.5-2.5c-0.5-0.2-1.1-0.4-1.6-0.6
				c-1.5-0.7-3.1,1.1-1.8,2.4c2.6,2.5,5.4,4.5,8.6,6.2c1.7,0.9,3.1-1.5,1.5-2.6c-2.3-1.6-4.2-2.6-4.9-5.4c-0.4-1.4-2.6-1.5-2.9,0
				c-1.3,5.9,5.2,9.5,9.1,12.9c0.6-0.8,1.2-1.6,1.8-2.4c-1.7-0.9-3.2-1.9-4.6-3.2c-1.4-1.3-3.5,0.8-2.1,2.1c1.6,1.6,3.2,2.7,5.2,3.7
				c1.4,0.7,3.2-1.2,1.8-2.4c-2.4-2.1-9.1-6.2-8.3-9.9c-1,0-1.9,0-2.9,0c1.1,3.9,3,4.9,6.3,7.2c0.5-0.9,1-1.7,1.5-2.6
				c-3-1.6-5.6-3.4-8-5.7c-0.6,0.8-1.2,1.6-1.8,2.4c0.9,0.4,1.4,0.6,2.3,0.9c1.6,0.4,2.3-1.4,1.5-2.5c-1-1.1-1.9-2.4-2.6-3.7
				c-0.1-1-1.3-2-2.3-1.3c-1,0.7-1.2,0.8-2,1.7c-1.3,1.5,0.6,3.3,2.1,2.1c0.7-0.5,1.3-1.1,1.9-1.6c-0.7-0.7-1.4-1.4-2.1-2.1
				c-0.6,0.8-1.3,1.6-1.9,2.4c-1.2,1.5,0.6,3.3,2.1,2.1c0.6-0.3,1.2-0.7,1.7-1c-0.6-0.7-1.1-1.5-1.7-2.2c-1.3,2.5-2.9,4.5-5.1,6.2
				c-1.5,1.1-0.1,3.7,1.5,2.6c0.2-0.1,0.3-0.2,0.5-0.4c1.5-1.1,0.2-3.5-1.5-2.6c-0.6,0.3-1.2,0.6-1.7,0.8c0.5,0.8,1,1.7,1.5,2.5
				c0.5-0.5,1-0.9,1.6-1.4c1.2-1-0.1-2.9-1.5-2.5c-0.7,0.2-1.3,0.4-2,0.6c0.5,0.8,1,1.7,1.5,2.5c0.7-0.6,1.3-1.2,2-1.8
				c1.3-1.1-0.4-3.2-1.8-2.4c-1.2,0.7-2.4,1.3-3.8,1.9c0.6,0.8,1.2,1.6,1.8,2.4c1.5-1.4,2.9-2.6,4.6-3.8c1.3-0.9,0.6-3.4-1.2-2.7
				c-1.8,0.7-3.5,1.4-5.3,2.2c0.5,0.9,1,1.7,1.5,2.6c1.4-0.9,2.8-1.9,4.1-2.9c1.5-1.1,0.2-3.6-1.5-2.6c-1.7,1-3.4,1.9-5,2.9
				c0.5,0.9,1,1.7,1.5,2.6c2.5-1.5,4.9-3.1,7-5.1c1.3-1.2-0.4-3.2-1.8-2.4c-1.5,0.8-2.7,1.7-3.9,2.8c0.7,0.7,1.4,1.4,2.1,2.1
				c1.9-1.8,3.8-3.6,5.6-5.5c1.3-1.4-0.7-3.4-2.1-2.1c-1.3,1.2-2.6,2.3-3.8,3.5c0.8,0.6,1.6,1.2,2.4,1.8c1.2-1.7,2.2-3.4,3.2-5.2
				c0.9-1.6-1.1-2.8-2.4-1.8c-0.8,0.7-1.7,1.4-2.5,2c0.8,0.6,1.6,1.2,2.4,1.8c0.4-0.6,0.7-1.1,1.1-1.7c0.8-1.3-0.8-2.8-2.1-2.1
				c-1.9,1.2-3.5,2.5-5,4.2c0.8,0.6,1.6,1.2,2.4,1.8c1.8-2.5,3.5-4.9,4.8-7.6c0.8-1.7-1.7-3.2-2.6-1.5c-2.2,4-4.4,8-6.6,12
				c-0.8,1.4,1.2,3.2,2.4,1.8c1.2-1.4,2.4-2.9,3.6-4.3c-0.7-0.7-1.4-1.4-2.1-2.1c-3.5,4.5-6.9,9-9.7,13.9c-0.9,1.6,1.1,2.9,2.4,1.8
				c2.9-2.4,5.3-5.6,7.8-8.4c-0.8-0.6-1.6-1.2-2.4-1.8c-2,4.2-4.4,7.9-7.3,11.5c0.8,0.6,1.6,1.2,2.4,1.8c0.9-1.6,1.8-3.2,2.8-4.7
				C329.8,344.5,327.2,343,326.2,344.6L326.2,344.6z"/>
		</g>
	</g>
	<g>
		<g>
			<path class="st7" d="M343.9,336.9c-1.1,0.1-1.2,0.2-2.2,0.7c-1,0.5-0.9,2,0,2.6c7.8,4.9,11.4,12.4,17,19.3
				c1.2,1.5,3.3-0.6,2.1-2.1c-3-3.7-5.4-7.9-8.3-11.7c-2.6-3.4-5.6-5.8-9.2-8.1c0,0.9,0,1.7,0,2.6c0.5-0.1,1-0.3,1.5-0.4
				C346.6,339.5,345.7,336.6,343.9,336.9L343.9,336.9z"/>
		</g>
	</g>
	<g>
		<g>
			<path class="st7" d="M353.4,347.6c-0.9-0.6-1.7-1.2-2.6-1.8c-1.5-1-2.8,1.1-1.8,2.4c4.4,5.7,10.4,9.9,15.5,15.1
				c0.6-0.8,1.2-1.6,1.8-2.4c-1.8-1.4-3.3-2.9-4.7-4.7c-0.9-1.1-2.5-0.1-2.6,1.1c-0.1,1.8,0.7,2.7,1.9,4c2.2,2.4,4.6,4.8,6.9,7.2
				c0.6-0.8,1.2-1.6,1.8-2.4c-1-0.5-1.8-1.2-2.3-2.2c-1.1-1.5-3.7,0-2.6,1.5c1,1.3,1.9,2.4,3.4,3.2c1.5,0.8,3-1.1,1.8-2.4
				c-1.4-1.5-2.8-2.9-4.2-4.4c-1-1-3.8-3-3.7-4.6c-0.9,0.4-1.7,0.7-2.6,1.1c1.6,2,3.3,3.6,5.4,5.1c1.4,1,3-1.2,1.8-2.4
				c-5.1-5.2-11.1-9.3-15.5-15.1c-0.6,0.8-1.2,1.6-1.8,2.4c0.9,0.6,1.7,1.2,2.6,1.8C353.5,351.2,355,348.6,353.4,347.6L353.4,347.6z
				"/>
		</g>
	</g>
	<g>
		<g>
			<path class="st7" d="M367.1,368.5c1.6,1.2,3,2.6,4.3,4c0.7-0.7,1.4-1.4,2.1-2.1c-0.8-0.9-1.7-1.7-2.5-2.6
				c-1.2-1.3-3.1,0.3-2.4,1.8c1.8,3.7,5.7,5.5,7.9,8.8c0.7-0.7,1.4-1.4,2.1-2.1c-0.5-0.2-0.8-0.5-1.1-0.8c-1.2-1.2-3.3,0.4-2.4,1.8
				c0.6,0.9,1.2,1.7,2,2.4c1.4,1.3,3.5-0.8,2.1-2.1c-0.6-0.6-1.1-1.1-1.6-1.8c-0.8,0.6-1.6,1.2-2.4,1.8c0.5,0.6,1.1,1,1.7,1.3
				c1.2,0.6,3-0.7,2.1-2.1c-2.2-3.3-6.2-5.2-7.9-8.8c-0.8,0.6-1.6,1.2-2.4,1.8c0.8,0.9,1.7,1.7,2.5,2.6c1.4,1.4,3.4-0.7,2.1-2.1
				c-1.3-1.5-2.7-2.8-4.3-4C367.7,365.2,365.5,367.3,367.1,368.5L367.1,368.5z"/>
		</g>
	</g>
	<g>
		<g>
			<path class="st7" d="M395.1,380.1c1.9,0,1.9-3,0-3C393.2,377.1,393.1,380.1,395.1,380.1L395.1,380.1z"/>
		</g>
	</g>
	<g>
		<g>
			<path class="st7" d="M393.8,376.2c-1.8-0.3-3.5-0.7-5.2-1.2c0,1,0,1.9,0,2.9c0.8-0.2,1.8,0.5,2.5,0.8c0.7,0.3,1.5,0.6,2.3,0.9
				c0.3-1,0.5-1.9,0.8-2.9c-1.7-0.4-3.5-0.6-5.2-0.6c-1.3,0-3-0.2-4,0.7c-0.4,0.3-0.6,1-0.4,1.5c0.4,1.2,1.2,1.4,2.4,1.6
				c1.2,0.1,2.9,0.2,4-0.4c2.7-1.5,0.7-4.7-0.4-6.5c-1-1.6-3.6-0.1-2.6,1.5c0.3,0.4,1.5,2,1.3,2.4c-0.1,0.2-2.5-0.1-2.8-0.2
				c0.3,0.3,0.7,0.7,1,1c0-0.1-0.1-0.2-0.1-0.3c-0.1,0.5-0.3,1-0.4,1.5c-0.4,0.4,0.9,0.2,1,0.2c0.6,0,1.1,0,1.7,0
				c1.2,0.1,2.4,0.2,3.6,0.5c1.9,0.4,2.6-2.2,0.8-2.9c-2-0.8-4.1-2.2-6.3-1.7c-1.5,0.3-1.4,2.5,0,2.9c1.7,0.5,3.4,0.9,5.2,1.2
				C394.9,379.4,395.7,376.5,393.8,376.2L393.8,376.2z"/>
		</g>
	</g>
	<g>
		<g>
			<path class="st7" d="M393.5,375.4c-0.7-0.4-1.3-0.8-1.9-1.4c-0.4,0.9-0.7,1.7-1.1,2.6c0.4,0.1,0.8,0.1,1.3,0.2
				c1.4,0.4,2.5-1.4,1.5-2.5c-1.1-1.1-2.1-2.3-3.1-3.6c-0.7,0.7-1.4,1.4-2.1,2.1c0.6,0.2,1.1,0.6,1.4,1.2c0.8-0.6,1.6-1.2,2.4-1.8
				c-3.1-2.5-5-6.2-8.4-8.3c-1.3-0.8-2.7,0.8-2.1,2.1c1.5,2.8,4.5,3.4,6.5,5.6c1.3,1.4,3.4-0.7,2.1-2.1c-1.7-1.9-4.8-2.7-6.1-5
				c-0.7,0.7-1.4,1.4-2.1,2.1c3.2,2,4.9,5.5,7.8,7.8c1.2,1,3.3-0.2,2.4-1.8c-0.6-1-1.4-1.7-2.4-2.3c-1.2-0.6-3,0.7-2.1,2.1
				c1,1.5,2.2,2.9,3.5,4.2c0.5-0.8,1-1.7,1.5-2.5c-0.8-0.2-1.3-0.3-2.1-0.3c-1.3-0.1-1.9,1.7-1.1,2.6c0.8,0.8,1.6,1.3,2.5,1.8
				C393.7,378.9,395.2,376.3,393.5,375.4L393.5,375.4z"/>
		</g>
	</g>
	<g>
		<g>
			<path class="st7" d="M380,379.8C380,379.8,380.1,379.8,380,379.8c0.9,0,1.6-0.7,1.6-1.5c0-0.8-0.7-1.5-1.5-1.5c0,0-0.1,0-0.1,0
				c-0.8,0-1.5,0.7-1.5,1.5C378.5,379.1,379.2,379.8,380,379.8L380,379.8z"/>
		</g>
	</g>
	<g>
		<g>
			<path class="st7" d="M361,355.2c-3-4.5-6-8.7-10.1-12.2c-1.5-1.2-3.6,0.9-2.1,2.1c3.9,3.4,6.8,7.3,9.6,11.6
				C359.5,358.3,362.1,356.8,361,355.2L361,355.2z"/>
		</g>
	</g>
	<g>
		<g>
			<path class="st7" d="M333.1,337.4c-1.2,0.9-2.4,1.8-3.4,3c-0.4,0.5-0.8,1.1-1.1,1.7c-0.3,0.7-0.5,1.5-1,2
				c-1.4,1.4,0.7,3.3,2.1,2.1c0.1,0,0.1-0.1,0.2-0.1c1.5-1.2-0.6-3.3-2.1-2.1c-0.1,0-0.1,0.1-0.2,0.1c0.7,0.7,1.4,1.4,2.1,2.1
				c1-1,1.2-2.2,1.9-3.4c0.7-1.2,1.9-2.1,3-2.9C336.1,338.8,334.6,336.2,333.1,337.4L333.1,337.4z"/>
		</g>
	</g>
	<g>
		<g>
			<path class="st7" d="M332.7,339.3c-3.1,2.3-5.1,5.8-8.4,8.1c-3.2,2.3-6.5,4.2-9.3,7.1c-1.3,1.4,0.7,3.5,2.1,2.1
				c1.9-1.9,3.9-3.2,6.3-4.3c-0.6-0.8-1.2-1.6-1.8-2.4c-4.9,5.8-9.9,12.6-15.7,17.5c-1.9,1.6-4,1.8-5.2,3.8c-1.3,2.2-1.4,5-0.7,7.4
				c0.4,1.3,2,1.4,2.7,0.4c1.1-1.6,2.3-3.1,3.6-4.5c-0.8-0.6-1.6-1.2-2.4-1.8c-0.4,0.5-0.7,1.1-1.1,1.6c0.7,0,1.4,0,2.1,0
				c-0.5-0.5,2.4-2.3,3.1-2.9c-0.8-0.6-1.6-1.2-2.4-1.8c-0.4,0.8-0.8,1.7-1.2,2.5c-0.7,1.4,0.7,2.7,2.1,2.1c2.6-1.2,4.4-4.3,6.2-6.4
				c2.8-3.2,5.5-6.5,8.3-9.7c1-1.2-0.3-3.4-1.8-2.4c-0.8,0.6-1.1,0.8-1.5,1.7c-0.6,1.2,0.4,2.5,1.7,2.2c0.9-0.2,1.3-0.5,1.7-1.3
				c0.6-1.5-1-3-2.4-1.8c-0.5,0.4-1,0.9-1.4,1.5c-1.2,1.5,0.9,3.6,2.1,2.1c0.4-0.6,0.8-1.1,1.4-1.5c-0.8-0.6-1.6-1.2-2.4-1.8
				c0,0,0.1,0,0.1-0.1c0.6,0.7,1.1,1.5,1.7,2.2c0.1-0.2,0.3-0.4,0.4-0.6c-0.6-0.8-1.2-1.6-1.8-2.4c-2.3,2.8-4.6,5.5-7,8.2
				c-1.9,2.2-4.2,6.1-6.9,7.4c0.7,0.7,1.4,1.4,2.1,2.1c0.4-0.8,0.8-1.7,1.2-2.5c0.8-1.6-1-2.9-2.4-1.8c-2.7,2.1-6.1,3.8-3.1,7.2
				c0.5,0.6,1.6,0.6,2.1,0c0.7-0.9,1-1.3,1.6-2.3c0.8-1.4-1.2-3.1-2.4-1.8c-1.5,1.6-2.8,3.3-4,5.1c0.9,0.1,1.8,0.2,2.7,0.4
				c-1.4-4.8,1.1-5,3.8-7c1.9-1.3,3.4-3.3,5-5c4.2-4.5,8.2-9.1,12.2-13.8c1.1-1.3-0.3-3.1-1.8-2.4c-2.7,1.2-4.8,2.7-6.9,4.8
				c0.7,0.7,1.4,1.4,2.1,2.1c2.9-3,6.5-5,9.8-7.4c2.8-2.1,4.6-5.3,7.2-7.3C335.7,340.7,334.2,338.1,332.7,339.3L332.7,339.3z"/>
		</g>
	</g>
	<g>
		<g>
			<path class="st7" d="M321.9,356.3c4.6-5.1,9.2-10.1,13.9-15c-0.7-0.7-1.4-1.4-2.1-2.1c-0.7,0.8-1.4,1.6-2.1,2.4
				c-1.1,1.5,0.8,3.6,2.1,2.1c0.4-0.5,0.9-0.9,1.3-1.4c1.3-1.4-0.8-3.5-2.1-2.1c-0.4,0.5-0.9,0.9-1.3,1.4c0.7,0.7,1.4,1.4,2.1,2.1
				c0.7-0.9,1.4-1.6,2.1-2.4c1.3-1.4-0.8-3.5-2.1-2.1c-4.7,4.9-9.4,9.9-13.9,15C318.5,355.6,320.6,357.7,321.9,356.3L321.9,356.3z"
				/>
		</g>
	</g>
	<g>
		<g>
			<path class="st7" d="M330.9,342.6c-5.9,7.2-12.3,14.2-19.3,20.4c-7.6,6.7-16.3,10.3-26.1,12.4c-1.9,0.4-1.1,3.3,0.8,2.9
				c9.1-2,17.7-5.2,25-11.1c8.1-6.6,15.2-14.5,21.7-22.5C334.3,343.3,332.1,341.1,330.9,342.6L330.9,342.6z"/>
		</g>
	</g>
	<g>
		<g>
			<path class="st7" d="M289.2,371.4c-1.1,0.9-2.2,1.9-3.3,2.8c-1.5,1.3,0.6,3.3,2.1,2.1c0.8-0.6,1.3-1.4,1.9-2.1
				c0.2-0.3,1.3-1.5,0.4-1.2c0.4-0.1,2.1,1.4,2.4,1.7c2,1.5,4.6,2.6,6.1,4.5c0.5-0.8,1-1.7,1.5-2.5c-2.8-0.4-5.5-0.6-8.4-0.5
				c-1.6,0.1-2.2,2.7-0.4,2.9c1.6,0.2,3.2,0.4,4.8,0.5c1.9,0.2,1.9-2.8,0-3c-3-0.3-6-0.7-9.1-0.3c-1.5,0.2-1.4,2.6,0,2.9
				c1.2,0.2,2.2,0.3,3.4,0.3c2,0,1.9-2.8,0-3c-1.8-0.2-3.5-0.2-5.3-0.1c-1.9,0.1-1.9,3.1,0,3c1.8-0.1,3.5-0.1,5.3,0.1c0-1,0-2,0-3
				c-0.9,0.1-1.8,0-2.6-0.2c0,1,0,1.9,0,2.9c2.7-0.4,5.6,0.1,8.3,0.4c0-1,0-2,0-3c-1.3-0.1-2.6-0.3-4-0.4c-0.1,1-0.3,2-0.4,2.9
				c2.5-0.1,5,0,7.6,0.3c1.5,0.2,2.4-1.3,1.5-2.5c-0.6-0.8-1.3-1.8-2.2-2.3c-0.9-0.5-1.6-0.5-2.6-1.2c-1.5-1-2.8-2.6-4.5-3.2
				c-2.8-1.1-4,2.5-5.7,3.9c0.7,0.7,1.4,1.4,2.1,2.1c1.1-0.9,2.2-1.9,3.3-2.8C292.8,372.3,290.6,370.2,289.2,371.4L289.2,371.4z"/>
		</g>
	</g>
	<g>
		<g>
			<path class="st7" d="M286.6,379.8c1.9,0,1.9-3,0-3C284.6,376.8,284.6,379.8,286.6,379.8L286.6,379.8z"/>
		</g>
	</g>
	<g>
		<g>
			<path class="st7" d="M284.5,380.2c1.9,0,1.9-3,0-3C282.6,377.2,282.6,380.2,284.5,380.2L284.5,380.2z"/>
		</g>
	</g>
	<g>
		<g>
			<path class="st7" d="M339.4,302.9c1.9,0,1.9-3,0-3C337.5,299.9,337.5,302.9,339.4,302.9L339.4,302.9z"/>
		</g>
	</g>
	<g>
		<g>
			<path class="st7" d="M339.7,301.9c1.9,0,1.9-3,0-3C337.7,298.9,337.7,301.9,339.7,301.9L339.7,301.9z"/>
		</g>
	</g>
	<g>
		<g>
			<path class="st7" d="M339.6,301.3c1.9,0,1.9-3,0-3C337.7,298.3,337.6,301.3,339.6,301.3L339.6,301.3z"/>
		</g>
	</g>
	<g>
		<g>
			<path class="st7" d="M338.4,301c-0.7,0.6-1.4,1.3-2.1,1.9c0.8,0.6,1.6,1.2,2.4,1.8c0.5-0.7,0.9-1.5,1.4-2.2
				c1-1.6-1.6-3.2-2.6-1.5c-8.9,14.3-17.4,28.9-25.5,43.7c0.9,0.3,1.9,0.5,2.8,0.8c0.4-3.2-0.2-6.4,1.4-9.1c2.2-3.6,5-7,7.5-10.4
				c4.8-6.7,9.6-13.3,14.4-20c1-1.4-1.2-3-2.4-1.8c-3.7,3.7-5.3,9.7-7.8,14.3c-3.3,6-6.4,13.5-12.4,17.3c0.7,0.7,1.4,1.4,2.1,2.1
				c1-1.5,1.9-2.5,3.3-3.6c1.5-1.2-0.7-3.4-2.1-2.1c-1.5,1.3-2.7,2.6-3.7,4.2c-0.8,1.3,0.8,2.8,2.1,2.1c5.2-3.3,8-8.6,11-13.8
				c1.7-3,3.4-6,5-9.1c1.5-3,2.5-6.7,4.9-9.1c-0.8-0.6-1.6-1.2-2.4-1.8c-5.4,7.5-10.7,14.9-16.1,22.4c-2.1,2.9-5.9,6.7-7.2,10
				c-0.9,2.4-0.1,6-0.5,8.6c-0.2,1.5,2.1,2,2.8,0.8c8.1-14.8,16.6-29.4,25.5-43.7c-0.9-0.5-1.7-1-2.6-1.5c-0.5,0.7-0.9,1.5-1.4,2.2
				c-0.9,1.5,1.1,2.9,2.4,1.8c0.7-0.6,1.4-1.3,2.1-1.9C342,301.8,339.8,299.7,338.4,301L338.4,301z"/>
		</g>
	</g>
	<g>
		<g>
			<path class="st7" d="M345.7,310c-0.1-3.6-3.3-5.1-4.1-8.4c-0.4-1.8-2.8-1.2-2.9,0.4c-0.7,5.5-0.5,10.9,0.5,16.4
				c0.3,1.7,3,1.3,2.9-0.4c0-3-0.2-6-0.4-9c-0.1-1.3-2.1-2.3-2.8-0.8c-1.2,2.7-2.4,5.4-3.5,8.1c0.9,0.3,1.9,0.5,2.8,0.8
				c0.3-2.7,0.6-5.4,1-8.1c0.3-1.9-2.2-2.6-2.9-0.8c-0.9,2.4-1.9,4.7-3.1,7c0.9,0.4,1.8,0.8,2.7,1.2c0.6-2.3,1.3-4.6,1.9-7
				c0.4-1.6-2-2.7-2.7-1.2c-1.1,2.2-2.2,4.4-3.3,6.6c0.9,0.4,1.8,0.8,2.7,1.2c0.5-1.4,0.9-2.8,1.4-4.2c0.5-1.6-1.9-2.7-2.7-1.2
				c-0.8,1.6-1.7,3.1-2.5,4.7c0.9,0.5,1.7,1,2.6,1.5c0.9-2.1,1.8-4.1,2.4-6.3c0.5-1.6-2.1-2.7-2.7-1.2c-1,2.3-1.9,4.6-2.6,6.9
				c1,0.3,1.9,0.5,2.9,0.8c0.8-3,1.8-5.9,2.9-8.8c-1-0.1-2-0.3-2.9-0.4c-0.1,1.9,0,3.8,0.2,5.7c0.1,1.6,2.5,2.1,2.9,0.4
				c0.5-2,1.1-3.9,1.6-5.9c-1-0.1-2-0.3-2.9-0.4c0.1,1.7,0.1,3.3,0.2,5c0.1,1.6,2.6,2.1,2.9,0.4c0.4-2.3,0.7-4.6,0.9-7c-1,0-2,0-3,0
				c0,2.6,0.2,5.2,0.6,7.8c0.2,1.5,2.5,1.3,2.9,0c0.7-2.6,1.3-5.1,2-7.7c-1-0.1-2-0.3-2.9-0.4c-0.2,3.9,0.2,7.5,1.2,11.3
				c0.4,1.7,2.9,1.3,2.9-0.4c0.2-4.1,0-8.1-0.6-12.2c-0.3-1.7-2.9-1.2-2.9,0.4c-0.2,4.9,0.3,9.5,1.5,14.2c0.4,1.5,2.5,1.4,2.9,0
				c1.3-4.3-0.7-9.8-1.3-14.1c-0.3-1.7-3-1.3-2.9,0.4c0.3,5,1.6,9.6,4,14c0.7,1.2,3,0.8,2.8-0.8c-0.5-4.5-1.5-8.8-3.1-13.1
				c-0.7-1.8-3.2-1.1-2.9,0.8c1,5.6,3.2,10.5,6.7,15c1,1.3,2.8-0.2,2.5-1.5c-0.7-3.3-1.8-6.2-3.5-9.1c-0.8-1.4-3.4-0.5-2.7,1.2
				c1.9,4.8,4.1,9.4,8.9,11.8c1.3,0.6,2.8-0.7,2.1-2.1c-1.1-2-2.3-3.5-3.9-5c-1.1-1-2.8,0-2.5,1.5c0.8,3.9,3.8,7.1,6.2,10.2
				c3.4,4.3,7,8.4,10.2,12.8c6.2,8.5,12,17.2,17.9,25.8c0.9-0.5,1.7-1,2.6-1.5c-6.5-9.2-12.8-18.8-19.8-27.7
				c-5.8-7.4-13.7-12.8-18.6-20.9c-0.8,0.6-1.6,1.2-2.4,1.8c4.7,5.1,9.7,9.9,15,14.4c1.3,1.1,3.2-0.3,2.4-1.8
				c-5.8-10.4-12.8-20.2-19.2-30.2c-1-1.6-3.6-0.1-2.6,1.5c6.4,10,13.4,19.8,19.2,30.2c0.8-0.6,1.6-1.2,2.4-1.8
				c-5.3-4.5-10.3-9.3-15-14.4c-1.2-1.3-3.2,0.4-2.4,1.8c4.7,7.8,12,13.1,17.8,20c7.5,8.9,13.8,19.1,20.6,28.6
				c1.1,1.6,3.7,0.1,2.6-1.5c-5.6-8.1-11.2-16.3-16.9-24.4c-2.5-3.4-5.1-6.7-7.7-10c-3.2-3.9-8.2-8.5-9.3-13.7
				c-0.8,0.5-1.7,1-2.5,1.5c1.4,1.3,2.5,2.7,3.5,4.4c0.7-0.7,1.4-1.4,2.1-2.1c-4.1-2-5.9-5.9-7.5-10c-0.9,0.4-1.8,0.8-2.7,1.2
				c1.6,2.7,2.6,5.4,3.2,8.4c0.8-0.5,1.7-1,2.5-1.5c-3.2-4.1-5-8.6-5.9-13.7c-1,0.3-1.9,0.5-2.9,0.8c1.5,4,2.5,8,3,12.3
				c0.9-0.3,1.9-0.5,2.8-0.8c-2.2-4-3.4-7.9-3.6-12.5c-1,0.1-2,0.3-2.9,0.4c0.6,3.5,2.4,9.1,1.3,12.5c1,0,1.9,0,2.9,0
				c-1.2-4.5-1.6-8.8-1.4-13.4c-1,0.1-2,0.3-2.9,0.4c0.6,3.8,0.7,7.5,0.5,11.4c1-0.1,2-0.3,2.9-0.4c-0.9-3.5-1.2-6.9-1.1-10.5
				c0.1-1.7-2.5-2-2.9-0.4c-0.7,2.6-1.3,5.1-2,7.7c1,0,1.9,0,2.9,0c-0.4-2.4-0.5-4.6-0.5-7c0-1.9-2.9-1.9-3,0
				c-0.1,2.1-0.4,4.1-0.8,6.2c1,0.1,2,0.3,2.9,0.4c-0.1-1.7-0.1-3.3-0.2-5c-0.1-1.7-2.5-2.1-2.9-0.4c-0.5,2-1.1,3.9-1.6,5.9
				c1,0.1,2,0.3,2.9,0.4c-0.2-1.9-0.2-3.8-0.2-5.7c0-1.8-2.4-1.9-2.9-0.4c-1.1,2.9-2.1,5.8-2.9,8.8c-0.5,1.9,2.3,2.6,2.9,0.8
				c0.7-2.1,1.5-4.1,2.3-6.2c-0.9-0.4-1.8-0.8-2.7-1.2c-0.6,1.9-1.3,3.7-2.1,5.6c-0.8,1.7,1.7,3.2,2.6,1.5c0.8-1.6,1.7-3.1,2.5-4.7
				c-0.9-0.4-1.8-0.8-2.7-1.2c-0.5,1.4-0.9,2.8-1.4,4.2c-0.5,1.6,2,2.7,2.7,1.2c1.1-2.2,2.2-4.4,3.3-6.6c-0.9-0.4-1.8-0.8-2.7-1.2
				c-0.6,2.3-1.3,4.6-1.9,7c-0.4,1.6,2,2.7,2.7,1.2c1.3-2.5,2.4-5.1,3.4-7.8c-1-0.3-1.9-0.5-2.9-0.8c-0.5,3-0.8,5.9-1.1,8.9
				c-0.1,1.4,2.2,2.1,2.8,0.8c1.2-2.7,2.4-5.4,3.5-8.1c-0.9-0.3-1.9-0.5-2.8-0.8c0.3,3,0.4,6,0.4,9c1-0.1,2-0.3,2.9-0.4
				c-1-5.2-1.1-10.3-0.4-15.6c-1,0.1-2,0.3-2.9,0.4c0.6,2.6,3.9,5,4,7.6C342.8,311.9,345.8,311.9,345.7,310L345.7,310z"/>
		</g>
	</g>
	<g>
		<g>
			<path class="st7" d="M355.8,330.5c-4-5.2-12-11.2-10.6-18.6c-0.9,0.1-1.8,0.2-2.7,0.4c1.9,3.1,4,6,6.4,8.6
				c1.2,1.3,3.2-0.4,2.4-1.8c-1.5-2.8-3.3-5.4-5.2-7.9c-0.7,0.7-1.4,1.4-2.1,2.1c0.7,0.6,3.2,2.8,3.1,3.6c0-0.2-1.4-1.4-2.1-1.9
				c-1.3-1-3.2,0.2-2.4,1.8c3,5.6,6.1,11.1,10.4,15.8c1.1,1.3,3.3-0.4,2.4-1.8c-3.1-4.7-6.6-9.4-9.1-14.5c-0.7,0.7-1.4,1.4-2.1,2.1
				c2.4,1.1,3.7,4.7,4.9,6.8c1.3,2.3,2.6,4.5,4.2,6.5c1.2,1.5,3.8,0,2.6-1.5c-2.1-2.8-3.8-5.9-5.5-9c-1.2-2.1-2.4-4.4-4.6-5.4
				c-1.4-0.7-2.7,0.7-2.1,2.1c2.5,5.1,6,9.8,9.1,14.5c0.8-0.6,1.6-1.2,2.4-1.8c-4.1-4.5-7-9.8-9.9-15.2c-0.8,0.6-1.6,1.2-2.4,1.8
				c1.7,1.3,5.1,4.7,7.2,2.2c2.2-2.5-2.4-6.7-4-8.1c-1.5-1.3-3.3,0.6-2.1,2.1c1.8,2.3,3.4,4.7,4.8,7.3c0.8-0.6,1.6-1.2,2.4-1.8
				c-2.2-2.5-4.2-5.2-5.9-8c-0.6-1-2.5-1-2.7,0.4c-1.6,8.8,6.2,14.6,10.9,20.9C354.4,333.5,357,332,355.8,330.5L355.8,330.5z"/>
		</g>
	</g>
	<g>
		<g>
			<path class="st7" d="M377.3,357.5c-3.1-3.3-6-6.8-8.7-10.4c-1.1-1.5-3.7,0-2.6,1.5c2.9,3.8,5.9,7.5,9.2,11
				C376.5,361,378.6,358.9,377.3,357.5L377.3,357.5z"/>
		</g>
	</g>
	<g>
		<g>
			<path class="st7" d="M387.2,367.9c-0.3-0.8-0.6-1.5-0.9-2.3c-0.8,0.5-1.7,1-2.5,1.5c0.8,0.9,1.6,1.6,2.7,2.2
				c1.3,0.7,2.9-0.7,2.1-2.1c-1.9-3.2-4.4-5.9-6.3-9c-2.4-3.8-5.5-7.1-7.8-10.9c-1-1.7-3.6-0.1-2.6,1.5c2.2,3.7,5,6.8,7.3,10.3
				c0.9,1.3,1.3,2.6,2.3,3.8c1.6,1.9,3.2,3.7,4.5,5.8c0.7-0.7,1.4-1.4,2.1-2.1c-0.9-0.4-1.6-0.9-2.1-1.7c-0.9-1.1-3.1,0.1-2.5,1.5
				c0.3,0.8,0.6,1.5,0.9,2.3C385,370.4,387.9,369.7,387.2,367.9L387.2,367.9z"/>
		</g>
	</g>
	<g>
		<g>
			<path class="st7" d="M373.4,347.4c-1-0.6-2-1.1-2.9-1.9c-0.5,0.8-1,1.7-1.5,2.5c1.2,0.2,2.3,1.1,3.6,0.4c1.2-0.7,1.2-2.1,0.6-3.1
				c-0.4-0.8-1.3-1.3-1.9-2c-0.7-0.8-1.3-1.7-1.9-2.6c-1-1.5-2-3.1-3.3-4.3c-1.4-1.3-3.6,0.8-2.1,2.1c1.5,1.3,2.3,2.9,3.4,4.5
				c0.5,0.7,1,1.4,1.5,2.1c0.5,0.6,1.6,1.3,1.7,2c0.1-0.5,0.3-1,0.4-1.5c0.2-0.3-1.1-0.5-1.3-0.6c-1.3-0.2-2.8,1.4-1.5,2.5
				c1.1,0.9,2.2,1.7,3.5,2.3C373.6,350.9,375.1,348.3,373.4,347.4L373.4,347.4z"/>
		</g>
	</g>
	<g>
		<g>
			<path class="st7" d="M365.9,335.2c-2.2-1-3.6-2.2-4.9-4.2c-0.8,0.6-1.6,1.2-2.4,1.8c1.4,1.1,2.8,2.2,4.2,3.3
				c1.2,1,3.3-0.2,2.4-1.8c-2.6-4.2-5.3-8.3-8.4-12.2c-2.2-2.9-4.2-6.3-6.8-8.9c-0.7-0.7-1.8-0.5-2.4,0.3c-1.3,1.8-1.8,3.9-3.2,5.6
				c-1.2,1.5,1.4,3,2.6,1.5c1.4-1.8,1.9-3.9,3.2-5.6c-0.8,0.1-1.6,0.2-2.4,0.3c1.1,1.1,1.6,2.5,2.5,3.7c1.5,2.1,3.4,4,4.9,6
				c2.6,3.5,5,7.1,7.3,10.8c0.8-0.6,1.6-1.2,2.4-1.8c-1.4-1.1-2.8-2.2-4.2-3.3c-1.2-1-3.3,0.2-2.4,1.8c1.5,2.4,3.4,4.1,6,5.3
				C366.1,338.6,367.7,336.1,365.9,335.2L365.9,335.2z"/>
		</g>
	</g>
	<path class="st5" d="M339.6,359.9"/>
	<line class="st5" x1="339.6" y1="359.9" x2="349.6" y2="359.9"/>
	<line class="st5" x1="339.6" y1="359.9" x2="329.6" y2="359.9"/>
	<line class="st5" x1="339.6" y1="359.9" x2="339.6" y2="349.9"/>
	<line class="st5" x1="339.6" y1="349.9" x2="339.6" y2="347.9"/>
	<line class="st5" x1="329.6" y1="359.9" x2="339.6" y2="348"/>
	<line class="st5" x1="349.6" y1="359.9" x2="339.5" y2="348"/>
	<g>
		<g>
			<path class="st7" d="M336.7,353.5c-1.2,0.8-1.1,2.3,0.1,3c1,0.6,2.9,1.5,4,1.2c1.4-0.3,1.5-1.7,1.1-2.8c-0.4-1.3-1.1-2.5-2.5-2.9
				c-1.1-0.3-2.7-0.1-3.5,0.7c-1,1.1-0.3,2.8,1,3.3c1.2,0.5,2.6-0.2,3.1-1.5c0.2-0.5,0.1-1,0.1-1.5c0.1-0.3,0.1-1.5,0.2-1.7
				c-0.8-0.6-1.6-1.2-2.4-1.8c-1.3,1.9-2.2,4-4,5.5c0.8,0.5,1.7,1,2.5,1.5c0.2-0.5,0.4-0.8,0.8-1.1c1.5-1.3-0.7-3.4-2.1-2.1
				c-0.8,0.7-1.3,1.5-1.6,2.4c-0.5,1.5,1.5,2.4,2.5,1.5c1.9-1.7,3-4,4.5-6.1c1-1.4-1.2-3-2.4-1.8c-0.6,0.6-0.8,1.3-0.9,2.2
				c0,0.4-0.1,0.8-0.2,1.2c0,0.2-0.1,0.5-0.1,0.7c0,0.6,0.5,0.8,1.4,0.4c-0.1,0.4-0.3,0.7-0.4,1.1c-0.2,0.2,0,0,0.2,0
				c0.3,0.1,0.3-0.1,0.5,0.2c0.2,0.3,0.4,0.9,0.4,1.3c0.1-0.4,0.1-0.8,0.2-1.2c0,0.1-0.1,0.1-0.1,0.2c0.3-0.2,0.6-0.5,0.9-0.7
				c0.6,0,0.7,0,0.1-0.1c-0.2-0.1-0.4-0.1-0.6-0.2c-0.4-0.1-1-0.3-1.3-0.5c0.1,0.4,0.3,0.7,0.4,1.1c0-0.1,0-0.1,0-0.2
				c-0.2,0.4-0.5,0.9-0.7,1.3c0,0,0.1,0,0.1-0.1C339.9,355.1,338.4,352.5,336.7,353.5L336.7,353.5z"/>
		</g>
	</g>
	<g>
		<g>
			<path class="st7" d="M337.9,357.9c0.3,0.1,0.6,0.2,0.8,0.3c0.3-0.9,0.5-1.9,0.8-2.8c-1.3,0.1-3.1-0.1-4.3,0.8
				c-0.9,0.7-1,1.9,0,2.6c1.4,0.9,2.9,0.8,4.5,0.8c2.4,0,4.7,0.2,7.1,0.6c1.9,0.3,2.7-2.6,0.8-2.9c-1.8-0.3-3.6-0.5-5.4-0.7
				c-1.7-0.1-4.1,0.4-5.5-0.5c0,0.9,0,1.7,0,2.6c0.5-0.4,2.1-0.3,2.8-0.4c1.3-0.1,2.2-2.1,0.8-2.8c-0.6-0.3-1-0.4-1.6-0.6
				C336.8,354.5,336,357.4,337.9,357.9L337.9,357.9z"/>
		</g>
	</g>
	<g>
		<g>
			<path class="st7" d="M346.5,355.9c-2.2-1.1-3-3.6-4.6-5.4c-0.8-0.9-2.7-0.2-2.6,1.1c0.2,1.9,0.6,4.6,2.1,6
				c1.4,1.3,3.6-0.8,2.1-2.1c-0.9-0.8-1.1-2.7-1.2-3.8c-0.9,0.4-1.7,0.7-2.6,1.1c0.9,1,1.4,2.2,2.2,3.2c0.8,1.1,1.8,2,3,2.6
				C346.7,359.4,348.2,356.8,346.5,355.9L346.5,355.9z"/>
		</g>
	</g>
	<g>
		<g>
			<path class="st7" d="M337.6,359.5C337.6,359.5,337.6,359.5,337.6,359.5c0.6-0.6,0.6-1.6,0-2.1c-0.6-0.6-1.5-0.6-2.1,0
				c0,0,0,0,0,0c-0.6,0.6-0.6,1.5,0,2.1C336,360.1,337,360.1,337.6,359.5L337.6,359.5z"/>
		</g>
	</g>
	<g>
		<g>
			<path class="st7" d="M335,359.8c1.9,0,1.9-3,0-3C333.1,356.8,333.1,359.8,335,359.8L335,359.8z"/>
		</g>
	</g>
	<g>
		<g>
			<path class="st7" d="M333.7,358.9c1.9,0,1.9-3,0-3C331.8,355.9,331.8,358.9,333.7,358.9L333.7,358.9z"/>
		</g>
	</g>
	<g>
		<g>
			<path class="st7" d="M333.9,358.2c1.9,0,1.9-3,0-3C332,355.2,332,358.2,333.9,358.2L333.9,358.2z"/>
		</g>
	</g>
	<g>
		<g>
			<path class="st7" d="M333.8,359.1c1.9,0,1.9-3,0-3C331.8,356.1,331.8,359.1,333.8,359.1L333.8,359.1z"/>
		</g>
	</g>
	<g>
		<g>
			<path class="st7" d="M333.6,359.6c1.9,0,1.9-3,0-3C331.7,356.6,331.6,359.6,333.6,359.6L333.6,359.6z"/>
		</g>
	</g>
	<g>
		<g>
			<path class="st7" d="M333.1,360c1.9,0,1.9-3,0-3C331.2,357,331.1,360,333.1,360L333.1,360z"/>
		</g>
	</g>
	<g>
		<g>
			<path class="st7" d="M332.6,360.1c1.9,0,1.9-3,0-3C330.7,357.1,330.6,360.1,332.6,360.1L332.6,360.1z"/>
		</g>
	</g>
	<g>
		<g>
			<path class="st7" d="M332.4,360.1c1.9,0,1.9-3,0-3C330.5,357.1,330.5,360.1,332.4,360.1L332.4,360.1z"/>
		</g>
	</g>
	<g>
		<g>
			<path class="st7" d="M332.3,360.2c1.9,0,1.9-3,0-3C330.4,357.2,330.4,360.2,332.3,360.2L332.3,360.2z"/>
		</g>
	</g>
	<g>
		<g>
			<path class="st7" d="M332.3,360.2c1.9,0,1.9-3,0-3C330.4,357.2,330.4,360.2,332.3,360.2L332.3,360.2z"/>
		</g>
	</g>
	<g>
		<g>
			<path class="st7" d="M332.3,360.2c1.9,0,1.9-3,0-3C330.4,357.2,330.4,360.2,332.3,360.2L332.3,360.2z"/>
		</g>
	</g>
	<g>
		<g>
			<path class="st7" d="M332.2,360.3c1.9,0,1.9-3,0-3C330.2,357.3,330.2,360.3,332.2,360.3L332.2,360.3z"/>
		</g>
	</g>
	<g>
		<g>
			<path class="st7" d="M332,360.3c1.9,0,1.9-3,0-3C330.1,357.3,330.1,360.3,332,360.3L332,360.3z"/>
		</g>
	</g>
	<g>
		<g>
			<path class="st7" d="M331.9,360.4c1.9,0,1.9-3,0-3C330,357.4,330,360.4,331.9,360.4L331.9,360.4z"/>
		</g>
	</g>
	<g>
		<g>
			<path class="st7" d="M346,359.9c1.9,0,1.9-3,0-3C344.1,356.9,344.1,359.9,346,359.9L346,359.9z"/>
		</g>
	</g>
	<g>
		<g>
			<path class="st7" d="M346.7,360.2c1.9,0,1.9-3,0-3C344.8,357.2,344.8,360.2,346.7,360.2L346.7,360.2z"/>
		</g>
	</g>
	<g>
		<g>
			<path class="st7" d="M347.2,360.4c1.9,0,1.9-3,0-3C345.3,357.4,345.3,360.4,347.2,360.4L347.2,360.4z"/>
		</g>
	</g>
	<text transform="matrix(1 0 0 1 208 427.75)" class="st8 st1 st4">community</text>
</g>
</svg>
