<?xml version="1.0" encoding="UTF-8" standalone="no"?>
<!-- Created with Inkscape (http://www.inkscape.org/) -->

<svg
   xmlns:dc="http://purl.org/dc/elements/1.1/"
   xmlns:cc="http://creativecommons.org/ns#"
   xmlns:rdf="http://www.w3.org/1999/02/22-rdf-syntax-ns#"
   xmlns:svg="http://www.w3.org/2000/svg"
   xmlns="http://www.w3.org/2000/svg"
   xmlns:sodipodi="http://sodipodi.sourceforge.net/DTD/sodipodi-0.dtd"
   xmlns:inkscape="http://www.inkscape.org/namespaces/inkscape"
   version="1.1"
   id="svg442"
   xml:space="preserve"
   width="1532.6667"
   height="912.0907"
   viewBox="0 0 1532.6667 912.0907"
   sodipodi:docname="acf-2.svg"
   inkscape:version="0.92.2 (5c3e80d, 2017-08-06)"
   inkscape:export-filename="C:\Users\jens\Documents\GitHub\logo_contest\M-Dominguez-Silva\acf2.png"
   inkscape:export-xdpi="11.85"
   inkscape:export-ydpi="11.85"><metadata
     id="metadata448"><rdf:RDF><cc:Work
         rdf:about=""><dc:format>image/svg+xml</dc:format><dc:type
           rdf:resource="http://purl.org/dc/dcmitype/StillImage" /><dc:title></dc:title></cc:Work></rdf:RDF></metadata><defs
     id="defs446"><clipPath
       clipPathUnits="userSpaceOnUse"
       id="clipPath460"><path
         d="M 0,684.068 H 1149.503 V 0 H 0 Z"
         id="path458"
         inkscape:connector-curvature="0" /></clipPath><clipPath
       clipPathUnits="userSpaceOnUse"
       id="clipPath470"><path
         d="M 0,684.068 H 1149.503 V 0 H 0 Z"
         id="path468"
         inkscape:connector-curvature="0" /></clipPath></defs><sodipodi:namedview
     pagecolor="#ffffff"
     bordercolor="#666666"
     borderopacity="1"
     objecttolerance="10"
     gridtolerance="10"
     guidetolerance="10"
     inkscape:pageopacity="0"
     inkscape:pageshadow="2"
     inkscape:window-width="2736"
     inkscape:window-height="1699"
     id="namedview444"
     showgrid="false"
     inkscape:zoom="0.2587462"
     inkscape:cx="766.33337"
     inkscape:cy="456.04535"
     inkscape:window-x="-13"
     inkscape:window-y="-13"
     inkscape:window-maximized="1"
     inkscape:current-layer="g450" /><g
     id="g450"
     inkscape:groupmode="layer"
     inkscape:label="acf_proposal_mdominguez(at)gmailcom"
     transform="matrix(1.3333333,0,0,-1.3333333,0,912.09067)"><path
       d="M 0,0 H 1149.503 V 684.068 H 0 Z"
       style="fill:#00a79d;fill-opacity:1;fill-rule:nonzero;stroke:none"
       id="path452"
       inkscape:connector-curvature="0" /><g
       id="g454"><g
         id="g456"
         clip-path="url(#clipPath460)"><path
           d="M 2299.007,0 H 1149.504 v 684.068 h 1149.503 z"
           style="fill:#414042;fill-opacity:1;fill-rule:nonzero;stroke:none"
           id="path462"
           inkscape:connector-curvature="0" /></g></g><g
       id="g464"><g
         id="g466"
         clip-path="url(#clipPath470)"><g
           id="g472"
           transform="translate(574.9863,541.0661)"><path
             d="m 0,0 c -92.608,0 -171.058,-60.57 -197.928,-144.251 32.721,73.105 109.02,124.37 197.928,124.37 88.908,0 165.207,-51.265 197.928,-124.37 C 171.058,-60.57 92.608,0 0,0"
             style="fill:#ffffff;fill-opacity:1;fill-rule:nonzero;stroke:none"
             id="path474"
             inkscape:connector-curvature="0" /></g><g
           id="g476"
           transform="translate(316.2695,168.7145)"><path
             d="m 0,0 -4.444,12.67 h -0.04 L -8.929,0 Z m 1.509,-4.304 h -11.947 l -2.192,-6.295 h -5.188 l 10.92,29.262 h 4.847 L 8.93,-10.599 H 3.721 Z"
             style="fill:#f1f2f2;fill-opacity:1;fill-rule:nonzero;stroke:none"
             id="path478"
             inkscape:connector-curvature="0" /></g><g
           id="g480"
           transform="translate(338.7817,173.0182)"><path
             d="m 0,0 h 4.747 c 4.002,0 5.932,2.052 5.932,4.968 0,3.076 -2.011,4.927 -5.591,4.927 H 0 Z M 10.92,-14.902 3.942,-4.465 H 0 v -10.437 h -4.967 v 29.261 h 10.8 c 6.938,0 9.995,-4.042 9.995,-9.492 0,-4.806 -2.454,-7.703 -6.416,-8.808 v -0.081 l 7.482,-10.88 z"
             style="fill:#f1f2f2;fill-opacity:1;fill-rule:nonzero;stroke:none"
             id="path482"
             inkscape:connector-curvature="0" /></g><g
           id="g484"
           transform="translate(373.1602,170.3229)"><path
             d="m 0,0 -3.298,-3.921 v -8.286 h -4.968 v 29.262 h 4.968 V 3.037 h 0.08 L 8.024,17.055 h 6.315 L 3.359,4.002 14.681,-12.207 H 8.507 L 0.081,0 Z"
             style="fill:#f1f2f2;fill-opacity:1;fill-rule:nonzero;stroke:none"
             id="path486"
             inkscape:connector-curvature="0" /></g><g
           id="g488"
           transform="translate(410.1655,172.6354)"><path
             d="m 0,0 c 0,8.346 5.289,15.063 14.761,15.063 4.002,0 8.326,-1.668 11.525,-5.611 L 22.625,6.355 c -1.89,2.333 -4.726,4.002 -7.864,4.002 C 9.09,10.357 5.189,6.215 5.189,0 c 0,-5.992 4.002,-10.096 9.572,-10.096 3.299,0 6.014,1.67 7.864,3.983 L 26.286,-9.23 C 23.771,-12.388 19.91,-14.781 14.761,-14.781 6.797,-14.781 0,-9.593 0,0"
             style="fill:#f1f2f2;fill-opacity:1;fill-rule:nonzero;stroke:none"
             id="path490"
             inkscape:connector-curvature="0" /></g><g
           id="g492"
           transform="translate(468.5957,172.7565)"><path
             d="m 0,0 c 0,5.993 -4.163,10.297 -9.573,10.297 -5.711,0 -9.633,-4.585 -9.633,-10.297 0,-5.731 3.922,-10.316 9.633,-10.316 C -4.163,-10.316 0,-5.992 0,0 m -24.375,0 c 0,8.588 6.014,14.942 14.802,14.942 8.447,0 14.742,-6.013 14.742,-14.942 0,-8.93 -6.295,-14.962 -14.742,-14.962 -8.788,0 -14.802,6.355 -14.802,14.962"
             style="fill:#f1f2f2;fill-opacity:1;fill-rule:nonzero;stroke:none"
             id="path494"
             inkscape:connector-curvature="0" /></g><g
           id="g496"
           transform="translate(513.0273,187.3776)"><path
             d="m 0,0 v -29.262 h -4.968 v 19.609 h -0.06 l -8.004,-13.978 h -3.258 l -8.004,13.978 h -0.06 v -19.609 h -4.968 V 0 h 4.988 l 9.653,-17.518 h 0.08 L -4.987,0 Z"
             style="fill:#f1f2f2;fill-opacity:1;fill-rule:nonzero;stroke:none"
             id="path498"
             inkscape:connector-curvature="0" /></g><g
           id="g500"
           transform="translate(553.6182,187.3776)"><path
             d="m 0,0 v -29.262 h -4.968 v 19.609 h -0.06 l -8.004,-13.978 h -3.258 l -8.004,13.978 h -0.06 v -19.609 h -4.968 V 0 h 4.988 l 9.653,-17.518 h 0.08 L -4.987,0 Z"
             style="fill:#f1f2f2;fill-opacity:1;fill-rule:nonzero;stroke:none"
             id="path502"
             inkscape:connector-curvature="0" /></g><g
           id="g504"
           transform="translate(564.4639,170.1423)"><path
             d="M 0,0 V 17.235 H 4.968 V 0.382 c 0,-4.646 2.473,-8.025 6.656,-8.025 3.922,0 6.718,2.977 6.718,8.025 v 16.853 h 4.967 V 0 c 0,-7.582 -4.384,-12.348 -11.685,-12.348 C 4.706,-12.348 0,-7.884 0,0"
             style="fill:#f1f2f2;fill-opacity:1;fill-rule:nonzero;stroke:none"
             id="path506"
             inkscape:connector-curvature="0" /></g><g
           id="g508"
           transform="translate(622.8945,187.3776)"><path
             d="m 0,0 v -29.262 h -5.067 l -14.159,20.695 h -0.081 v -20.695 h -4.967 V 0 h 4.927 l 14.28,-20.996 h 0.099 l 0,20.996 z"
             style="fill:#f1f2f2;fill-opacity:1;fill-rule:nonzero;stroke:none"
             id="path510"
             inkscape:connector-curvature="0" /></g><path
           d="m 634.346,187.378 h 4.987 v -29.262 h -4.987 z"
           style="fill:#f1f2f2;fill-opacity:1;fill-rule:nonzero;stroke:none"
           id="path512"
           inkscape:connector-curvature="0" /><g
           id="g514"
           transform="translate(656.8213,182.9128)"><path
             d="m 0,0 h -8.306 v 4.465 h 21.66 V 0 H 4.968 V -24.797 H 0 Z"
             style="fill:#f1f2f2;fill-opacity:1;fill-rule:nonzero;stroke:none"
             id="path516"
             inkscape:connector-curvature="0" /></g><g
           id="g518"
           transform="translate(701.6377,187.3776)"><path
             d="m 0,0 -9.834,-16.33 v -12.932 h -4.987 V -16.33 L -24.595,0 h 5.691 l 6.536,-11.343 h 0.121 L -5.751,0 Z"
             style="fill:#f1f2f2;fill-opacity:1;fill-rule:nonzero;stroke:none"
             id="path520"
             inkscape:connector-curvature="0" /></g><g
           id="g522"
           transform="translate(725.0273,187.3776)"><path
             d="M 0,0 H 19.126 V -4.465 H 4.968 v -8.749 h 11.886 v -4.464 H 4.968 V -29.262 H 0 Z"
             style="fill:#f1f2f2;fill-opacity:1;fill-rule:nonzero;stroke:none"
             id="path524"
             inkscape:connector-curvature="0" /></g><g
           id="g526"
           transform="translate(753.2324,170.1423)"><path
             d="M 0,0 V 17.235 H 4.968 V 0.382 c 0,-4.646 2.473,-8.025 6.656,-8.025 3.922,0 6.718,2.977 6.718,8.025 v 16.853 h 4.967 V 0 c 0,-7.582 -4.384,-12.348 -11.685,-12.348 C 4.706,-12.348 0,-7.884 0,0"
             style="fill:#f1f2f2;fill-opacity:1;fill-rule:nonzero;stroke:none"
             id="path528"
             inkscape:connector-curvature="0" /></g><g
           id="g530"
           transform="translate(811.6631,187.3776)"><path
             d="m 0,0 v -29.262 h -5.067 l -14.159,20.695 h -0.081 v -20.695 h -4.967 V 0 h 4.927 l 14.28,-20.996 h 0.099 l 0,20.996 z"
             style="fill:#f1f2f2;fill-opacity:1;fill-rule:nonzero;stroke:none"
             id="path532"
             inkscape:connector-curvature="0" /></g><g
           id="g534"
           transform="translate(832.0635,162.5807)"><path
             d="m 0,0 c 6.194,0 10.236,4.323 10.236,10.116 0,5.933 -4.102,10.216 -9.955,10.216 H -4.163 L -4.163,0 Z m -9.131,24.797 h 9.312 c 9.271,0 15.184,-6.033 15.184,-14.682 0,-8.627 -5.672,-14.58 -15.063,-14.58 h -9.433 z"
             style="fill:#f1f2f2;fill-opacity:1;fill-rule:nonzero;stroke:none"
             id="path536"
             inkscape:connector-curvature="0" /></g><g
           id="g538"
           transform="translate(549.8057,415.8972)"><path
             d="M 0,0 23.744,-19.082 V 9.424 Z"
             style="fill:#d1d3d4;fill-opacity:1;fill-rule:nonzero;stroke:none"
             id="path540"
             inkscape:connector-curvature="0" /></g><g
           id="g542"
           transform="translate(573.5498,453.8268)"><path
             d="M 0,0 -23.744,-37.93 0,-28.506 Z"
             style="fill:#e6e7e8;fill-opacity:1;fill-rule:nonzero;stroke:none"
             id="path544"
             inkscape:connector-curvature="0" /></g><g
           id="g546"
           transform="translate(573.5498,425.321)"><path
             d="M 0,0 V -28.506 L 23.744,-9.424 Z"
             style="fill:#e6e7e8;fill-opacity:1;fill-rule:nonzero;stroke:none"
             id="path548"
             inkscape:connector-curvature="0" /></g><g
           id="g550"
           transform="translate(597.2939,415.8972)"><path
             d="M 0,0 -23.744,37.93 V 9.424 Z"
             style="fill:#ffffff;fill-opacity:1;fill-rule:nonzero;stroke:none"
             id="path552"
             inkscape:connector-curvature="0" /></g><g
           id="g554"
           transform="translate(673.9072,430.0456)"><path
             d="M 0,0 V 0 L -100.357,-56.787 V -90.243 Z"
             style="fill:#ffffff;fill-opacity:1;fill-rule:nonzero;stroke:none"
             id="path556"
             inkscape:connector-curvature="0" /></g><g
           id="g558"
           transform="translate(573.5498,373.2585)"><path
             d="M 0,0 -100.357,56.786 0,-33.456 Z"
             style="fill:#ffffff;fill-opacity:1;fill-rule:nonzero;stroke:none"
             id="path560"
             inkscape:connector-curvature="0" /></g><g
           id="g562"
           transform="translate(537.8604,339.8024)"><path
             d="M 0,0 -64.668,-103.303 11.139,0 Z"
             style="fill:#e6e7e8;fill-opacity:1;fill-rule:nonzero;stroke:none"
             id="path564"
             inkscape:connector-curvature="0" /></g><g
           id="g566"
           transform="translate(548.999,339.8024)"><path
             d="M 0,0 -75.807,-103.303 24.551,0 v 33.456 z"
             style="fill:#bcbec0;fill-opacity:1;fill-rule:nonzero;stroke:none"
             id="path568"
             inkscape:connector-curvature="0" /></g><g
           id="g570"
           transform="translate(573.5498,373.2585)"><path
             d="m 0,0 v 23.557 l -35.689,-57.013 h 11.138 z"
             style="fill:#e6e7e8;fill-opacity:1;fill-rule:nonzero;stroke:none"
             id="path572"
             inkscape:connector-curvature="0" /></g><g
           id="g574"
           transform="translate(673.9072,236.4997)"><path
             d="M 0,0 -64.668,103.303 H -75.807 Z"
             style="fill:#e6e7e8;fill-opacity:1;fill-rule:nonzero;stroke:none"
             id="path576"
             inkscape:connector-curvature="0" /></g><g
           id="g578"
           transform="translate(598.1006,339.8024)"><path
             d="M 0,0 -24.551,33.456 V 0 L 75.807,-103.303 Z"
             style="fill:#d1d3d4;fill-opacity:1;fill-rule:nonzero;stroke:none"
             id="path580"
             inkscape:connector-curvature="0" /></g><g
           id="g582"
           transform="translate(598.1006,339.8024)"><path
             d="m 0,0 h 11.139 l -35.69,57.013 V 33.456 Z"
             style="fill:#e6e7e8;fill-opacity:1;fill-rule:nonzero;stroke:none"
             id="path584"
             inkscape:connector-curvature="0" /></g><g
           id="g586"
           transform="translate(573.5498,396.8151)"><path
             d="M 0,0 V -23.557 L 100.357,33.23 Z"
             style="fill:#d1d3d4;fill-opacity:1;fill-rule:nonzero;stroke:none"
             id="path588"
             inkscape:connector-curvature="0" /></g><g
           id="g590"
           transform="translate(573.5498,396.8151)"><path
             d="M 0,0 -100.357,33.23 V 33.229 L 0,-23.557 Z"
             style="fill:#e6e7e8;fill-opacity:1;fill-rule:nonzero;stroke:none"
             id="path592"
             inkscape:connector-curvature="0" /></g><g
           id="g594"
           transform="translate(28.1196,43.5974)"><path
             d="m 0,0 v -3.662 h -0.622 v 2.455 h -0.007 l -1.002,-1.75 h -0.408 l -1.002,1.75 H -3.049 V -3.662 H -3.67 V 0 h 0.624 l 1.209,-2.191 h 0.009 L -0.624,0 Z"
             style="fill:#ffffff;fill-opacity:1;fill-rule:nonzero;stroke:none"
             id="path596"
             inkscape:connector-curvature="0" /></g><g
           id="g598"
           transform="translate(30.3467,42.8005)"><path
             d="M 0,0 H -0.586 L 0.005,0.744 0.64,0.748 Z m 0.453,-1.621 c 0,0.445 -0.299,0.785 -0.712,0.785 -0.403,0 -0.725,-0.303 -0.725,-0.785 0,-0.447 0.297,-0.762 0.722,-0.762 0.39,0 0.715,0.305 0.715,0.762 M 1.007,-0.35 V -2.865 H 0.456 v 0.336 H 0.448 c -0.183,-0.241 -0.453,-0.377 -0.801,-0.377 -0.697,0 -1.218,0.51 -1.218,1.287 0,0.76 0.521,1.307 1.214,1.307 0.319,0 0.588,-0.116 0.777,-0.34 h 0.011 v 0.302 z"
             style="fill:#ffffff;fill-opacity:1;fill-rule:nonzero;stroke:none"
             id="path600"
             inkscape:connector-curvature="0" /></g><g
           id="g602"
           transform="translate(33.5098,42.486)"><path
             d="m 0,0 v -0.643 c -0.066,0.004 -0.134,0.008 -0.174,0.008 -0.438,0 -0.687,-0.314 -0.687,-0.722 v -1.194 h -0.577 v 2.516 h 0.577 v -0.379 h 0.007 c 0.197,0.268 0.476,0.416 0.783,0.416 0.026,0 0.05,0 0.071,-0.002"
             style="fill:#ffffff;fill-opacity:1;fill-rule:nonzero;stroke:none"
             id="path604"
             inkscape:connector-curvature="0" /></g><path
           d="m 34.022,42.451 h 0.576 v -2.516 h -0.576 z m -0.098,0.758 c 0,0.209 0.171,0.381 0.39,0.381 0.212,0 0.388,-0.172 0.388,-0.381 0,-0.213 -0.176,-0.383 -0.388,-0.383 -0.219,0 -0.39,0.17 -0.39,0.383"
           style="fill:#ffffff;fill-opacity:1;fill-rule:nonzero;stroke:none"
           id="path606"
           inkscape:connector-curvature="0" /><g
           id="g608"
           transform="translate(37.2891,41.1892)"><path
             d="m 0,0 c 0,0.461 -0.32,0.775 -0.733,0.775 -0.44,0 -0.735,-0.338 -0.735,-0.775 0,-0.432 0.302,-0.771 0.735,-0.771 C -0.325,-0.771 0,-0.453 0,0 m -2.055,0 c 0,0.742 0.527,1.299 1.322,1.299 0.771,0 1.319,-0.529 1.319,-1.299 0,-0.766 -0.548,-1.295 -1.319,-1.295 -0.795,0 -1.322,0.557 -1.322,1.295"
             style="fill:#ffffff;fill-opacity:1;fill-rule:nonzero;stroke:none"
             id="path610"
             inkscape:connector-curvature="0" /></g><g
           id="g612"
           transform="translate(41.0596,40.4939)"><path
             d="m 0,0 c 0.775,0 1.281,0.541 1.281,1.266 0,0.744 -0.513,1.279 -1.246,1.279 h -0.556 l 0,-2.545 z m -1.143,3.104 h 1.165 c 1.161,0 1.901,-0.754 1.901,-1.838 0,-1.08 -0.71,-1.825 -1.885,-1.825 h -1.181 z"
             style="fill:#ffffff;fill-opacity:1;fill-rule:nonzero;stroke:none"
             id="path614"
             inkscape:connector-curvature="0" /></g><g
           id="g616"
           transform="translate(45.5347,41.1892)"><path
             d="m 0,0 c 0,0.461 -0.32,0.775 -0.733,0.775 -0.44,0 -0.735,-0.338 -0.735,-0.775 0,-0.432 0.302,-0.771 0.735,-0.771 C -0.325,-0.771 0,-0.453 0,0 m -2.055,0 c 0,0.742 0.527,1.299 1.322,1.299 0.771,0 1.319,-0.529 1.319,-1.299 0,-0.766 -0.548,-1.295 -1.319,-1.295 -0.795,0 -1.322,0.557 -1.322,1.295"
             style="fill:#ffffff;fill-opacity:1;fill-rule:nonzero;stroke:none"
             id="path618"
             inkscape:connector-curvature="0" /></g><g
           id="g620"
           transform="translate(50.6284,41.3903)"><path
             d="m 0,0 v -1.459 h -0.577 v 1.313 c 0,0.455 -0.148,0.72 -0.493,0.72 -0.325,0 -0.587,-0.283 -0.587,-0.775 v -1.258 h -0.576 v 1.313 c 0,0.455 -0.159,0.72 -0.501,0.72 -0.343,0 -0.604,-0.283 -0.604,-0.775 v -1.254 h -0.577 v 2.516 h 0.577 V 0.713 h 0.007 c 0.206,0.252 0.496,0.385 0.786,0.385 0.339,0 0.599,-0.137 0.75,-0.418 h 0.01 c 0.212,0.271 0.531,0.418 0.901,0.418 C -0.33,1.098 0,0.75 0,0"
             style="fill:#ffffff;fill-opacity:1;fill-rule:nonzero;stroke:none"
             id="path622"
             inkscape:connector-curvature="0" /></g><path
           d="m 51.362,42.451 h 0.576 v -2.516 h -0.576 z m -0.098,0.758 c 0,0.209 0.171,0.381 0.39,0.381 0.212,0 0.388,-0.172 0.388,-0.381 0,-0.213 -0.176,-0.383 -0.388,-0.383 -0.219,0 -0.39,0.17 -0.39,0.383"
           style="fill:#ffffff;fill-opacity:1;fill-rule:nonzero;stroke:none"
           id="path624"
           inkscape:connector-curvature="0" /><g
           id="g626"
           transform="translate(55.0737,41.4157)"><path
             d="m 0,0 v -1.484 h -0.577 v 1.336 c 0,0.531 -0.198,0.697 -0.546,0.697 -0.39,0 -0.652,-0.272 -0.652,-0.766 V -1.48 h -0.577 v 2.515 h 0.577 V 0.689 h 0.007 c 0.215,0.25 0.519,0.383 0.844,0.383 C -0.373,1.072 0,0.754 0,0"
             style="fill:#ffffff;fill-opacity:1;fill-rule:nonzero;stroke:none"
             id="path628"
             inkscape:connector-curvature="0" /></g><g
           id="g630"
           transform="translate(57.6274,41.2439)"><path
             d="m 0,0 c 0,0.432 -0.31,0.715 -0.71,0.715 -0.428,0 -0.717,-0.297 -0.717,-0.723 0,-0.451 0.312,-0.726 0.717,-0.726 C -0.29,-0.734 0,-0.426 0,0 m 0.552,1.207 v -2.256 c 0,-0.763 -0.35,-1.318 -1.282,-1.318 -0.377,0 -0.743,0.094 -1.024,0.262 l 0.135,0.509 c 0.275,-0.146 0.499,-0.25 0.856,-0.25 0.496,0 0.751,0.284 0.751,0.619 v 0.268 h -0.01 c -0.189,-0.197 -0.449,-0.307 -0.763,-0.307 -0.705,0 -1.229,0.493 -1.229,1.241 0,0.736 0.498,1.271 1.199,1.271 0.289,0 0.568,-0.103 0.78,-0.305 h 0.01 v 0.266 z"
             style="fill:#ffffff;fill-opacity:1;fill-rule:nonzero;stroke:none"
             id="path632"
             inkscape:connector-curvature="0" /></g><g
           id="g634"
           transform="translate(61.1455,42.4509)"><path
             d="m 0,0 v -2.516 h -0.577 v 0.327 h -0.007 c -0.202,-0.241 -0.481,-0.368 -0.775,-0.368 -0.555,0 -0.94,0.278 -0.94,1.026 V 0 h 0.577 v -1.375 c 0,-0.504 0.151,-0.654 0.498,-0.654 0.338,0 0.647,0.281 0.647,0.824 V 0 Z"
             style="fill:#ffffff;fill-opacity:1;fill-rule:nonzero;stroke:none"
             id="path636"
             inkscape:connector-curvature="0" /></g><g
           id="g638"
           transform="translate(62.3252,41.4587)"><path
             d="M 0,0 H 1.259 C 1.186,0.305 0.977,0.506 0.647,0.506 0.332,0.506 0.083,0.326 0,0 M 1.823,-0.467 H -0.01 c 0.075,-0.357 0.347,-0.574 0.718,-0.574 0.292,0 0.498,0.137 0.626,0.297 L 1.737,-1.088 C 1.523,-1.363 1.17,-1.564 0.677,-1.564 c -0.733,0 -1.286,0.513 -1.286,1.298 0,0.772 0.526,1.295 1.226,1.295 0.742,0 1.221,-0.533 1.221,-1.267 0,-0.088 -0.008,-0.184 -0.015,-0.229"
             style="fill:#ffffff;fill-opacity:1;fill-rule:nonzero;stroke:none"
             id="path640"
             inkscape:connector-curvature="0" /></g><g
           id="g642"
           transform="translate(65.3101,40.4333)"><path
             d="m 0,0 v -0.008 h 1.294 v -0.49 h -2.069 v 0.404 L 0.519,1.518 V 1.525 H -0.69 V 2.018 H 1.314 V 1.619 Z"
             style="fill:#ffffff;fill-opacity:1;fill-rule:nonzero;stroke:none"
             id="path644"
             inkscape:connector-curvature="0" /></g><g
           id="g646"
           transform="translate(27.9336,35.2712)"><path
             d="m 0,0 -0.202,-1.506 h -0.266 l 0.196,1.488 c 0.078,0.602 -0.108,0.789 -0.393,0.789 -0.395,0 -0.883,-0.539 -0.981,-1.212 l -0.142,-1.065 h -0.269 l 0.196,1.488 c 0.078,0.602 -0.1,0.789 -0.388,0.789 -0.395,0 -0.911,-0.548 -0.999,-1.226 l -0.128,-1.051 h -0.27 l 0.308,2.504 h 0.266 l -0.07,-0.582 h 0.007 c 0.262,0.383 0.622,0.605 0.952,0.605 0.36,0 0.577,-0.187 0.609,-0.605 h 0.013 c 0.252,0.383 0.607,0.605 0.957,0.605 C -0.131,1.021 0.093,0.713 0,0"
             style="fill:#ffffff;fill-opacity:1;fill-rule:nonzero;stroke:none"
             id="path648"
             inkscape:connector-curvature="0" /></g><g
           id="g650"
           transform="translate(30.4736,35.32)"><path
             d="m 0,0 0.05,0.402 c -0.178,0.254 -0.521,0.317 -0.735,0.317 -0.619,0 -1.012,-0.621 -1.012,-1.303 0,-0.434 0.217,-0.748 0.627,-0.748 0.544,0 0.982,0.629 1.07,1.332 M 0.541,2.242 0.078,-1.555 h -0.269 l 0.08,0.659 h -0.01 C -0.343,-1.289 -0.69,-1.58 -1.11,-1.58 c -0.564,0 -0.862,0.441 -0.862,1.002 0,0.822 0.501,1.551 1.277,1.551 0.284,0 0.587,-0.078 0.77,-0.274 h 0.01 l 0.189,1.543 z"
             style="fill:#ffffff;fill-opacity:1;fill-rule:nonzero;stroke:none"
             id="path652"
             inkscape:connector-curvature="0" /></g><g
           id="g654"
           transform="translate(31.6479,34.8103)"><path
             d="m 0,0 c 0,-0.504 0.29,-0.818 0.753,-0.818 0.599,0 1.025,0.523 1.025,1.261 0,0.539 -0.32,0.786 -0.751,0.786 C 0.423,1.229 0,0.678 0,0 m 1.038,1.482 c 0.606,0 1.014,-0.361 1.014,-1.021 0,-0.852 -0.486,-1.531 -1.304,-1.531 -0.615,0 -1.02,0.381 -1.02,1.045 0,0.8 0.499,1.507 1.309,1.507 z"
             style="fill:#ffffff;fill-opacity:1;fill-rule:nonzero;stroke:none"
             id="path656"
             inkscape:connector-curvature="0" /></g><g
           id="g658"
           transform="translate(37.8687,35.2712)"><path
             d="m 0,0 -0.202,-1.506 h -0.266 l 0.196,1.488 c 0.078,0.602 -0.108,0.789 -0.393,0.789 -0.395,0 -0.883,-0.539 -0.981,-1.212 l -0.142,-1.065 h -0.269 l 0.196,1.488 c 0.078,0.602 -0.1,0.789 -0.388,0.789 -0.395,0 -0.911,-0.548 -0.999,-1.226 l -0.128,-1.051 h -0.27 l 0.308,2.504 h 0.266 l -0.07,-0.582 h 0.007 c 0.262,0.383 0.622,0.605 0.952,0.605 0.36,0 0.577,-0.187 0.609,-0.605 h 0.013 c 0.252,0.383 0.607,0.605 0.957,0.605 C -0.131,1.021 0.093,0.713 0,0"
             style="fill:#ffffff;fill-opacity:1;fill-rule:nonzero;stroke:none"
             id="path660"
             inkscape:connector-curvature="0" /></g><g
           id="g662"
           transform="translate(39.2402,37.0368)"><path
             d="m 0,0 c 0,-0.119 -0.088,-0.209 -0.209,-0.209 -0.113,0 -0.199,0.086 -0.199,0.201 0,0.121 0.088,0.209 0.207,0.209 C -0.085,0.201 0,0.115 0,0 M -0.176,-0.768 -0.481,-3.271 H -0.75 l 0.307,2.503 z"
             style="fill:#ffffff;fill-opacity:1;fill-rule:nonzero;stroke:none"
             id="path664"
             inkscape:connector-curvature="0" /></g><g
           id="g666"
           transform="translate(41.8398,35.2712)"><path
             d="m 0,0 -0.199,-1.506 h -0.269 l 0.197,1.488 c 0.08,0.602 -0.106,0.786 -0.416,0.786 -0.461,0 -1.017,-0.545 -1.105,-1.223 L -1.921,-1.506 H -2.19 l 0.307,2.504 h 0.267 L -1.692,0.385 h 0.01 C -1.402,0.785 -1,1.021 -0.619,1.021 -0.131,1.021 0.096,0.713 0,0"
             style="fill:#ffffff;fill-opacity:1;fill-rule:nonzero;stroke:none"
             id="path668"
             inkscape:connector-curvature="0" /></g><g
           id="g670"
           transform="translate(44.3872,35.3298)"><path
             d="m 0,0 v -0.004 l 0.05,0.4 c -0.183,0.239 -0.521,0.313 -0.722,0.313 -0.62,0 -1.013,-0.621 -1.013,-1.227 0,-0.431 0.217,-0.746 0.627,-0.746 0.532,0 0.973,0.629 1.058,1.264 M 0.385,0.939 0.118,-1.234 c -0.138,-1.123 -0.682,-1.375 -1.359,-1.375 -0.295,0 -0.564,0.068 -0.821,0.213 l 0.088,0.248 c 0.262,-0.153 0.516,-0.209 0.745,-0.209 0.549,0 0.965,0.197 1.083,1.146 l 0.048,0.383 h -0.01 c -0.222,-0.387 -0.574,-0.684 -0.99,-0.684 -0.564,0 -0.861,0.442 -0.861,1 0,0.746 0.501,1.475 1.277,1.475 0.289,0 0.581,-0.096 0.755,-0.291 h 0.01 l 0.033,0.267 z"
             style="fill:#ffffff;fill-opacity:1;fill-rule:nonzero;stroke:none"
             id="path672"
             inkscape:connector-curvature="0" /></g><g
           id="g674"
           transform="translate(47.4854,36.2692)"><path
             d="m 0,0 -0.305,-2.504 h -0.269 l 0.071,0.584 h -0.011 c -0.236,-0.369 -0.584,-0.609 -0.959,-0.609 -0.508,0 -0.756,0.293 -0.667,1.015 L -1.954,0 h 0.269 l -0.183,-1.496 c -0.076,-0.617 0.128,-0.777 0.455,-0.777 0.423,0 0.925,0.525 1.013,1.177 L -0.267,0 Z"
             style="fill:#ffffff;fill-opacity:1;fill-rule:nonzero;stroke:none"
             id="path676"
             inkscape:connector-curvature="0" /></g><g
           id="g678"
           transform="translate(48.2446,34.9392)"><path
             d="M 0,0 C 0.652,0.061 1.503,0.262 1.503,0.732 1.503,1.025 1.204,1.1 1.012,1.1 0.499,1.1 0.061,0.656 0,0 M 1.433,-0.592 1.644,-0.748 C 1.393,-1.033 1.108,-1.195 0.708,-1.195 c -0.587,0 -0.982,0.388 -0.982,1.037 0,0.818 0.516,1.512 1.299,1.512 0.292,0 0.753,-0.151 0.753,-0.606 0,-0.658 -0.982,-0.914 -1.783,-0.992 0.033,-0.449 0.327,-0.699 0.72,-0.699 0.28,0 0.514,0.123 0.718,0.351"
             style="fill:#ffffff;fill-opacity:1;fill-rule:nonzero;stroke:none"
             id="path680"
             inkscape:connector-curvature="0" /></g><g
           id="g682"
           transform="translate(50.5566,34.0153)"><path
             d="M 0,0 V -0.01 C 0.665,-0.014 1.13,-0.023 1.475,-0.139 L 1.402,-0.373 C 0.995,-0.246 0.486,-0.25 -0.39,-0.25 l 0.022,0.215 1.677,2.041 v 0.008 h -1.357 l 0.028,0.24 H 1.709 L 1.684,2.049 Z"
             style="fill:#ffffff;fill-opacity:1;fill-rule:nonzero;stroke:none"
             id="path684"
             inkscape:connector-curvature="0" /></g><g
           id="g686"
           transform="translate(52.9844,33.9489)"><path
             d="m 0,0 c 0,-0.121 -0.088,-0.209 -0.209,-0.209 -0.113,0 -0.199,0.086 -0.199,0.201 0,0.121 0.088,0.209 0.206,0.209 C -0.085,0.201 0,0.117 0,0"
             style="fill:#ffffff;fill-opacity:1;fill-rule:nonzero;stroke:none"
             id="path688"
             inkscape:connector-curvature="0" /></g><g
           id="g690"
           transform="translate(54.4058,33.988)"><path
             d="m 0,0 c 0.345,0 0.602,0.166 0.602,0.447 0,0.276 -0.282,0.375 -0.594,0.51 -0.318,0.137 -0.602,0.307 -0.602,0.668 0,0.422 0.373,0.68 0.793,0.68 0.272,0 0.534,-0.08 0.748,-0.317 L 0.766,1.803 C 0.587,2.004 0.4,2.059 0.184,2.059 -0.093,2.059 -0.32,1.902 -0.32,1.633 -0.32,1.406 -0.096,1.285 0.164,1.172 0.489,1.027 0.874,0.881 0.876,0.479 0.879,-0.004 0.479,-0.248 0,-0.248 c -0.35,0 -0.649,0.131 -0.854,0.379 l 0.179,0.185 C -0.488,0.105 -0.267,0 0,0"
             style="fill:#ffffff;fill-opacity:1;fill-rule:nonzero;stroke:none"
             id="path692"
             inkscape:connector-curvature="0" /></g><g
           id="g694"
           transform="translate(56.6274,37.0368)"><path
             d="m 0,0 c 0,-0.119 -0.088,-0.209 -0.209,-0.209 -0.113,0 -0.199,0.086 -0.199,0.201 0,0.121 0.088,0.209 0.207,0.209 C -0.085,0.201 0,0.115 0,0 M -0.176,-0.768 -0.481,-3.271 H -0.75 l 0.307,2.503 z"
             style="fill:#ffffff;fill-opacity:1;fill-rule:nonzero;stroke:none"
             id="path696"
             inkscape:connector-curvature="0" /></g><g
           id="g698"
           transform="translate(57.7998,37.5622)"><path
             d="m 0,0 -0.463,-3.797 h -0.27 L -0.27,0 Z"
             style="fill:#ffffff;fill-opacity:1;fill-rule:nonzero;stroke:none"
             id="path700"
             inkscape:connector-curvature="0" /></g><g
           id="g702"
           transform="translate(58.897,33.7399)"><path
             d="m 0,0 c -0.509,0 -0.738,0.326 -0.645,1.08 l 0.182,1.449 h 0.266 L -0.375,1.098 C -0.456,0.439 -0.28,0.256 0.02,0.256 c 0.438,0 0.982,0.568 1.052,1.508 0.02,0.263 0.006,0.496 -0.035,0.765 H 1.314 C 1.349,2.314 1.367,2.029 1.352,1.818 1.264,0.527 0.546,0 0,0"
             style="fill:#ffffff;fill-opacity:1;fill-rule:nonzero;stroke:none"
             id="path704"
             inkscape:connector-curvature="0" /></g><g
           id="g706"
           transform="translate(62.6255,35.3298)"><path
             d="m 0,0 v -0.004 l 0.05,0.4 c -0.183,0.241 -0.521,0.313 -0.722,0.313 -0.62,0 -1.012,-0.619 -1.012,-1.303 0,-0.433 0.216,-0.748 0.626,-0.748 0.532,0 0.973,0.629 1.058,1.342 M 0.383,0.939 0.078,-1.564 h -0.269 l 0.08,0.65 h -0.01 C -0.342,-1.303 -0.69,-1.59 -1.098,-1.59 c -0.564,0 -0.861,0.442 -0.861,1.002 0,0.824 0.501,1.551 1.277,1.551 0.289,0 0.579,-0.096 0.755,-0.289 h 0.01 l 0.033,0.265 z"
             style="fill:#ffffff;fill-opacity:1;fill-rule:nonzero;stroke:none"
             id="path708"
             inkscape:connector-curvature="0" /></g><g
           id="g710"
           transform="translate(66.2271,35.2966)"><path
             d="m 0,0 0.05,0.389 c -0.163,0.16 -0.413,0.232 -0.622,0.232 -0.556,0 -0.871,-0.484 -0.871,-1.004 0,-0.377 0.179,-0.611 0.529,-0.611 0.405,0 0.849,0.443 0.914,0.994 m -0.085,-0.766 h -0.013 c -0.212,-0.295 -0.531,-0.478 -0.886,-0.478 -0.441,0 -0.738,0.301 -0.738,0.842 0,0.689 0.42,1.279 1.12,1.279 0.29,0 0.531,-0.102 0.67,-0.25 h 0.01 L 0.103,0.855 H 0.375 L 0.199,-0.568 c -0.026,-0.319 -0.018,-0.504 0.252,-0.504 0.518,0 0.735,0.664 0.735,1.08 0,0.965 -0.66,1.615 -1.632,1.615 -1.448,0 -2.032,-1.143 -2.032,-1.986 0,-0.959 0.695,-1.647 1.602,-1.647 0.433,0 0.831,0.1 1.148,0.274 l 0.113,-0.17 c -0.35,-0.209 -0.79,-0.323 -1.261,-0.323 -1.048,0 -1.828,0.768 -1.828,1.866 0,0.861 0.597,2.201 2.258,2.201 1.106,0 1.861,-0.731 1.861,-1.828 0,-0.526 -0.257,-1.315 -1.042,-1.315 -0.312,0 -0.464,0.237 -0.458,0.539"
             style="fill:#ffffff;fill-opacity:1;fill-rule:nonzero;stroke:none"
             id="path712"
             inkscape:connector-curvature="0" /></g><g
           id="g714"
           transform="translate(70.0977,35.3298)"><path
             d="m 0,0 v -0.004 l 0.05,0.4 c -0.183,0.239 -0.521,0.313 -0.722,0.313 -0.62,0 -1.013,-0.621 -1.013,-1.227 0,-0.431 0.217,-0.746 0.627,-0.746 0.532,0 0.972,0.629 1.058,1.264 M 0.385,0.939 0.118,-1.234 c -0.138,-1.123 -0.682,-1.375 -1.359,-1.375 -0.295,0 -0.564,0.068 -0.821,0.213 l 0.088,0.248 c 0.262,-0.153 0.516,-0.209 0.745,-0.209 0.549,0 0.965,0.197 1.083,1.146 l 0.048,0.383 h -0.01 c -0.222,-0.387 -0.574,-0.684 -0.99,-0.684 -0.564,0 -0.861,0.442 -0.861,1 0,0.746 0.501,1.475 1.277,1.475 0.289,0 0.581,-0.096 0.755,-0.291 h 0.01 l 0.033,0.267 z"
             style="fill:#ffffff;fill-opacity:1;fill-rule:nonzero;stroke:none"
             id="path716"
             inkscape:connector-curvature="0" /></g><g
           id="g718"
           transform="translate(74.6489,35.2712)"><path
             d="m 0,0 -0.202,-1.506 h -0.266 l 0.196,1.488 c 0.078,0.602 -0.108,0.789 -0.393,0.789 -0.395,0 -0.883,-0.539 -0.981,-1.212 l -0.142,-1.065 h -0.269 l 0.196,1.488 c 0.078,0.602 -0.1,0.789 -0.388,0.789 -0.395,0 -0.911,-0.548 -0.999,-1.226 l -0.128,-1.051 h -0.27 l 0.308,2.504 h 0.266 l -0.07,-0.582 h 0.007 c 0.262,0.383 0.622,0.605 0.952,0.605 0.36,0 0.577,-0.187 0.609,-0.605 h 0.013 c 0.252,0.383 0.607,0.605 0.957,0.605 C -0.131,1.021 0.093,0.713 0,0"
             style="fill:#ffffff;fill-opacity:1;fill-rule:nonzero;stroke:none"
             id="path720"
             inkscape:connector-curvature="0" /></g><g
           id="g722"
           transform="translate(77.1763,35.3298)"><path
             d="m 0,0 v -0.004 l 0.05,0.4 c -0.183,0.241 -0.521,0.313 -0.722,0.313 -0.62,0 -1.012,-0.619 -1.012,-1.303 0,-0.433 0.216,-0.748 0.626,-0.748 0.532,0 0.973,0.629 1.058,1.342 M 0.383,0.939 0.078,-1.564 h -0.269 l 0.08,0.65 h -0.01 C -0.342,-1.303 -0.69,-1.59 -1.098,-1.59 c -0.564,0 -0.861,0.442 -0.861,1.002 0,0.824 0.501,1.551 1.277,1.551 0.289,0 0.579,-0.096 0.755,-0.289 h 0.01 l 0.033,0.265 z"
             style="fill:#ffffff;fill-opacity:1;fill-rule:nonzero;stroke:none"
             id="path724"
             inkscape:connector-curvature="0" /></g><g
           id="g726"
           transform="translate(78.8369,37.0368)"><path
             d="m 0,0 c 0,-0.119 -0.088,-0.209 -0.209,-0.209 -0.113,0 -0.199,0.086 -0.199,0.201 0,0.121 0.088,0.209 0.207,0.209 C -0.085,0.201 0,0.115 0,0 M -0.176,-0.768 -0.481,-3.271 H -0.75 l 0.307,2.503 z"
             style="fill:#ffffff;fill-opacity:1;fill-rule:nonzero;stroke:none"
             id="path728"
             inkscape:connector-curvature="0" /></g><g
           id="g730"
           transform="translate(80.0093,37.5622)"><path
             d="m 0,0 -0.463,-3.797 h -0.27 L -0.27,0 Z"
             style="fill:#ffffff;fill-opacity:1;fill-rule:nonzero;stroke:none"
             id="path732"
             inkscape:connector-curvature="0" /></g><g
           id="g734"
           transform="translate(80.7158,33.9489)"><path
             d="m 0,0 c 0,-0.121 -0.088,-0.209 -0.209,-0.209 -0.113,0 -0.199,0.086 -0.199,0.201 0,0.121 0.088,0.209 0.206,0.209 C -0.085,0.201 0,0.117 0,0"
             style="fill:#ffffff;fill-opacity:1;fill-rule:nonzero;stroke:none"
             id="path736"
             inkscape:connector-curvature="0" /></g><g
           id="g738"
           transform="translate(81.3521,34.7751)"><path
             d="m 0,0 c 0,0.816 0.496,1.518 1.317,1.518 0.33,0 0.655,-0.127 0.841,-0.407 L 1.939,0.949 c -0.144,0.219 -0.38,0.315 -0.627,0.315 -0.64,0 -1.04,-0.575 -1.04,-1.248 0,-0.496 0.31,-0.795 0.695,-0.795 0.317,0 0.574,0.107 0.783,0.351 L 1.959,-0.584 C 1.705,-0.881 1.393,-1.031 0.949,-1.031 0.438,-1.031 0,-0.674 0,0"
             style="fill:#ffffff;fill-opacity:1;fill-rule:nonzero;stroke:none"
             id="path740"
             inkscape:connector-curvature="0" /></g><g
           id="g742"
           transform="translate(84.1191,34.8103)"><path
             d="m 0,0 c 0,-0.504 0.29,-0.818 0.753,-0.818 0.599,0 1.025,0.523 1.025,1.261 0,0.539 -0.32,0.786 -0.751,0.786 C 0.423,1.229 0,0.678 0,0 m 1.038,1.482 c 0.606,0 1.014,-0.361 1.014,-1.021 0,-0.852 -0.486,-1.531 -1.304,-1.531 -0.615,0 -1.02,0.381 -1.02,1.045 0,0.8 0.499,1.507 1.309,1.507 z"
             style="fill:#ffffff;fill-opacity:1;fill-rule:nonzero;stroke:none"
             id="path744"
             inkscape:connector-curvature="0" /></g><g
           id="g746"
           transform="translate(90.3394,35.2712)"><path
             d="m 0,0 -0.202,-1.506 h -0.266 l 0.196,1.488 c 0.078,0.602 -0.108,0.789 -0.393,0.789 -0.395,0 -0.883,-0.539 -0.981,-1.212 l -0.142,-1.065 h -0.269 l 0.196,1.488 c 0.078,0.602 -0.1,0.789 -0.388,0.789 -0.395,0 -0.911,-0.548 -0.999,-1.226 l -0.128,-1.051 h -0.27 l 0.308,2.504 h 0.266 l -0.07,-0.582 h 0.007 c 0.262,0.383 0.622,0.605 0.952,0.605 0.36,0 0.577,-0.187 0.609,-0.605 h 0.013 c 0.252,0.383 0.607,0.605 0.957,0.605 C -0.131,1.021 0.093,0.713 0,0"
             style="fill:#ffffff;fill-opacity:1;fill-rule:nonzero;stroke:none"
             id="path748"
             inkscape:connector-curvature="0" /></g><g
           id="g750"
           transform="translate(25.2046,24.8708)"><path
             d="M 0,0 H -1.04 V 0.559 H 1.671 V 0 H 0.622 V -3.105 H 0 Z"
             style="fill:#ffffff;fill-opacity:1;fill-rule:nonzero;stroke:none"
             id="path752"
             inkscape:connector-curvature="0" /></g><g
           id="g754"
           transform="translate(29.3354,24.2809)"><path
             d="m 0,0 -1.382,-3.535 h -0.607 l 0.453,1.16 L -2.558,0 h 0.607 l 0.695,-1.697 h 0.005 L -0.604,0 Z"
             style="fill:#ffffff;fill-opacity:1;fill-rule:nonzero;stroke:none"
             id="path756"
             inkscape:connector-curvature="0" /></g><g
           id="g758"
           transform="translate(31.8145,23.0095)"><path
             d="m 0,0 c 0,0.484 -0.322,0.785 -0.725,0.785 -0.433,0 -0.733,-0.34 -0.733,-0.785 0,-0.455 0.325,-0.76 0.735,-0.76 C -0.297,-0.76 0,-0.445 0,0 m 0.586,0.002 c 0,-0.777 -0.521,-1.285 -1.218,-1.285 -0.343,0 -0.612,0.125 -0.796,0.349 h -0.007 v -1.33 h -0.577 v 3.535 h 0.577 V 0.967 h 0.01 c 0.191,0.224 0.466,0.342 0.798,0.342 0.692,0 1.213,-0.545 1.213,-1.307"
             style="fill:#ffffff;fill-opacity:1;fill-rule:nonzero;stroke:none"
             id="path760"
             inkscape:connector-curvature="0" /></g><g
           id="g762"
           transform="translate(34.8994,23.0192)"><path
             d="m 0,0 c 0,0.461 -0.32,0.775 -0.733,0.775 -0.44,0 -0.735,-0.338 -0.735,-0.775 0,-0.43 0.302,-0.77 0.735,-0.77 C -0.325,-0.77 0,-0.453 0,0 m -2.055,0 c 0,0.742 0.527,1.299 1.322,1.299 0.771,0 1.319,-0.528 1.319,-1.299 0,-0.766 -0.548,-1.293 -1.319,-1.293 -0.795,0 -1.322,0.555 -1.322,1.293"
             style="fill:#ffffff;fill-opacity:1;fill-rule:nonzero;stroke:none"
             id="path764"
             inkscape:connector-curvature="0" /></g><g
           id="g766"
           transform="translate(37.9336,23.0759)"><path
             d="m 0,0 c 0,0.43 -0.31,0.715 -0.71,0.715 -0.428,0 -0.717,-0.297 -0.717,-0.723 0,-0.451 0.312,-0.728 0.717,-0.728 0.42,0 0.71,0.31 0.71,0.736 m 0.552,1.205 v -2.256 c 0,-0.763 -0.35,-1.316 -1.282,-1.316 -0.377,0 -0.743,0.094 -1.024,0.262 l 0.135,0.507 c 0.275,-0.144 0.499,-0.248 0.856,-0.248 0.496,0 0.751,0.282 0.751,0.619 v 0.266 h -0.01 c -0.189,-0.195 -0.449,-0.307 -0.763,-0.307 -0.705,0 -1.229,0.495 -1.229,1.243 0,0.734 0.498,1.271 1.199,1.271 0.289,0 0.568,-0.103 0.78,-0.305 h 0.01 v 0.264 z"
             style="fill:#ffffff;fill-opacity:1;fill-rule:nonzero;stroke:none"
             id="path768"
             inkscape:connector-curvature="0" /></g><g
           id="g770"
           transform="translate(40.6387,24.3161)"><path
             d="m 0,0 v -0.643 c -0.066,0.006 -0.134,0.008 -0.174,0.008 -0.438,0 -0.687,-0.314 -0.687,-0.722 v -1.194 h -0.577 v 2.516 h 0.577 v -0.377 h 0.007 c 0.197,0.266 0.476,0.414 0.783,0.414 0.026,0 0.05,0 0.071,-0.002"
             style="fill:#ffffff;fill-opacity:1;fill-rule:nonzero;stroke:none"
             id="path772"
             inkscape:connector-curvature="0" /></g><g
           id="g774"
           transform="translate(42.9136,23.0095)"><path
             d="m 0,0 c 0,0.445 -0.299,0.785 -0.712,0.785 -0.403,0 -0.725,-0.301 -0.725,-0.785 0,-0.445 0.297,-0.76 0.722,-0.76 C -0.325,-0.76 0,-0.455 0,0 M 0.554,1.271 V -1.244 H 0.002 v 0.338 h -0.007 c -0.183,-0.242 -0.453,-0.377 -0.801,-0.377 -0.697,0 -1.218,0.508 -1.218,1.285 0,0.762 0.521,1.307 1.213,1.307 0.32,0 0.59,-0.116 0.778,-0.34 h 0.011 v 0.302 z"
             style="fill:#ffffff;fill-opacity:1;fill-rule:nonzero;stroke:none"
             id="path776"
             inkscape:connector-curvature="0" /></g><g
           id="g778"
           transform="translate(46.1973,23.0095)"><path
             d="m 0,0 c 0,0.484 -0.322,0.785 -0.725,0.785 -0.433,0 -0.733,-0.34 -0.733,-0.785 0,-0.455 0.325,-0.76 0.735,-0.76 C -0.297,-0.76 0,-0.445 0,0 m 0.586,0.002 c 0,-0.777 -0.521,-1.285 -1.218,-1.285 -0.343,0 -0.612,0.125 -0.796,0.349 h -0.007 v -1.33 h -0.577 v 3.535 h 0.577 V 0.967 h 0.01 c 0.191,0.224 0.466,0.342 0.798,0.342 0.692,0 1.213,-0.545 1.213,-1.307"
             style="fill:#ffffff;fill-opacity:1;fill-rule:nonzero;stroke:none"
             id="path780"
             inkscape:connector-curvature="0" /></g><g
           id="g782"
           transform="translate(49.7529,23.2712)"><path
             d="m 0,0 v -1.508 h -0.577 v 1.36 c 0,0.502 -0.198,0.671 -0.546,0.671 -0.416,0 -0.677,-0.255 -0.677,-0.75 V -1.506 H -2.377 V 2.291 H -1.8 V 0.695 h 0.01 C -1.579,0.93 -1.274,1.047 -0.939,1.047 -0.385,1.047 0,0.75 0,0"
             style="fill:#ffffff;fill-opacity:1;fill-rule:nonzero;stroke:none"
             id="path784"
             inkscape:connector-curvature="0" /></g><g
           id="g786"
           transform="translate(52.6143,24.2809)"><path
             d="m 0,0 -1.382,-3.535 h -0.607 l 0.453,1.16 L -2.558,0 h 0.607 l 0.695,-1.697 h 0.005 L -0.604,0 Z"
             style="fill:#ffffff;fill-opacity:1;fill-rule:nonzero;stroke:none"
             id="path788"
             inkscape:connector-curvature="0" /></g><g
           id="g790"
           transform="translate(56.708,24.2809)"><path
             d="m 0,0 v -2.516 h -0.577 v 0.328 h -0.007 c -0.202,-0.242 -0.481,-0.367 -0.775,-0.367 -0.555,0 -0.94,0.276 -0.94,1.024 V 0 h 0.577 v -1.375 c 0,-0.504 0.151,-0.654 0.498,-0.654 0.338,0 0.647,0.281 0.647,0.826 V 0 Z"
             style="fill:#ffffff;fill-opacity:1;fill-rule:nonzero;stroke:none"
             id="path792"
             inkscape:connector-curvature="0" /></g><g
           id="g794"
           transform="translate(57.2148,22.0934)"><path
             d="M 0,0 0.292,0.434 C 0.494,0.234 0.708,0.135 1.017,0.135 1.239,0.135 1.37,0.236 1.37,0.383 1.37,0.514 1.201,0.576 0.871,0.689 0.458,0.83 0.104,1.02 0.104,1.514 c 0,0.41 0.372,0.711 0.886,0.711 0.319,0 0.609,-0.088 0.891,-0.315 L 1.591,1.457 C 1.387,1.646 1.158,1.727 0.959,1.727 0.846,1.727 0.685,1.664 0.685,1.51 0.685,1.385 0.844,1.299 1.085,1.203 1.619,0.992 1.956,0.896 1.956,0.395 1.956,-0.027 1.657,-0.367 1.017,-0.367 0.612,-0.367 0.267,-0.234 0,0"
             style="fill:#ffffff;fill-opacity:1;fill-rule:nonzero;stroke:none"
             id="path796"
             inkscape:connector-curvature="0" /></g><g
           id="g798"
           transform="translate(60.1714,23.2888)"><path
             d="M 0,0 H 1.259 C 1.186,0.305 0.977,0.506 0.647,0.506 0.332,0.506 0.083,0.328 0,0 M 1.823,-0.465 H -0.01 c 0.075,-0.357 0.347,-0.574 0.718,-0.574 0.292,0 0.498,0.135 0.626,0.297 L 1.737,-1.088 C 1.523,-1.361 1.17,-1.562 0.677,-1.562 c -0.733,0 -1.286,0.513 -1.286,1.298 0,0.77 0.526,1.293 1.226,1.293 0.742,0 1.221,-0.533 1.221,-1.265 0,-0.088 -0.008,-0.184 -0.015,-0.229"
             style="fill:#ffffff;fill-opacity:1;fill-rule:nonzero;stroke:none"
             id="path800"
             inkscape:connector-curvature="0" /></g><g
           id="g802"
           transform="translate(64.4907,23.0095)"><path
             d="m 0,0 c 0,0.445 -0.3,0.785 -0.733,0.785 -0.403,0 -0.725,-0.301 -0.725,-0.785 0,-0.445 0.297,-0.76 0.723,-0.76 C -0.325,-0.76 0,-0.455 0,0 M 0.554,2.553 V -1.244 H 0.002 v 0.338 h -0.01 c -0.183,-0.242 -0.46,-0.377 -0.818,-0.377 -0.697,0 -1.218,0.508 -1.218,1.285 0,0.762 0.521,1.307 1.213,1.307 0.33,0 0.607,-0.116 0.796,-0.34 h 0.012 v 1.584 z"
             style="fill:#ffffff;fill-opacity:1;fill-rule:nonzero;stroke:none"
             id="path804"
             inkscape:connector-curvature="0" /></g><g
           id="g806"
           transform="translate(65.6943,22.1091)"><path
             d="M 0,0 C 0,0.211 0.173,0.385 0.393,0.385 0.604,0.385 0.78,0.211 0.78,0 0.78,-0.213 0.604,-0.383 0.393,-0.383 0.173,-0.383 0,-0.213 0,0 M 0,1.824 C 0,2.035 0.173,2.209 0.393,2.209 0.604,2.209 0.78,2.035 0.78,1.824 0.78,1.613 0.604,1.441 0.393,1.441 0.173,1.441 0,1.613 0,1.824"
             style="fill:#ffffff;fill-opacity:1;fill-rule:nonzero;stroke:none"
             id="path808"
             inkscape:connector-curvature="0" /></g><g
           id="g810"
           transform="translate(70.5298,23.0934)"><path
             d="M 0,0 -0.556,1.586 H -0.561 L -1.118,0 Z M 0.189,-0.539 H -1.307 L -1.581,-1.328 H -2.23 l 1.367,3.664 h 0.606 L 1.118,-1.328 H 0.466 Z"
             style="fill:#ffffff;fill-opacity:1;fill-rule:nonzero;stroke:none"
             id="path812"
             inkscape:connector-curvature="0" /></g><g
           id="g814"
           transform="translate(74.1704,24.2809)"><path
             d="M 0,0 -0.997,-2.516 H -1.548 L -2.55,0 h 0.616 l 0.658,-1.793 h 0.01 L -0.622,0 Z"
             style="fill:#ffffff;fill-opacity:1;fill-rule:nonzero;stroke:none"
             id="path816"
             inkscape:connector-curvature="0" /></g><g
           id="g818"
           transform="translate(74.9458,23.2888)"><path
             d="M 0,0 H 1.259 C 1.186,0.305 0.977,0.506 0.647,0.506 0.332,0.506 0.083,0.328 0,0 M 1.823,-0.465 H -0.01 c 0.075,-0.357 0.347,-0.574 0.718,-0.574 0.292,0 0.498,0.135 0.626,0.297 L 1.737,-1.088 C 1.523,-1.361 1.17,-1.562 0.677,-1.562 c -0.733,0 -1.286,0.513 -1.286,1.298 0,0.77 0.526,1.293 1.226,1.293 0.742,0 1.221,-0.533 1.221,-1.265 0,-0.088 -0.008,-0.184 -0.015,-0.229"
             style="fill:#ffffff;fill-opacity:1;fill-rule:nonzero;stroke:none"
             id="path820"
             inkscape:connector-curvature="0" /></g><g
           id="g822"
           transform="translate(78.8096,24.3161)"><path
             d="m 0,0 v -0.643 c -0.066,0.006 -0.134,0.008 -0.174,0.008 -0.438,0 -0.687,-0.314 -0.687,-0.722 v -1.194 h -0.577 v 2.516 h 0.577 v -0.377 h 0.007 c 0.197,0.266 0.476,0.414 0.783,0.414 0.026,0 0.05,0 0.071,-0.002"
             style="fill:#ffffff;fill-opacity:1;fill-rule:nonzero;stroke:none"
             id="path824"
             inkscape:connector-curvature="0" /></g><g
           id="g826"
           transform="translate(79.332,22.5622)"><path
             d="m 0,0 v 1.229 h -0.307 v 0.49 H 0 V 2.555 L 0.577,2.617 V 1.719 h 0.74 V 1.229 H 0.577 V 0.053 c 0,-0.258 0.08,-0.352 0.241,-0.352 0.099,0 0.24,0.039 0.373,0.11 L 1.342,-0.687 C 1.191,-0.77 1.032,-0.836 0.703,-0.836 0.27,-0.836 0,-0.562 0,0"
             style="fill:#ffffff;fill-opacity:1;fill-rule:nonzero;stroke:none"
             id="path828"
             inkscape:connector-curvature="0" /></g><g
           id="g830"
           transform="translate(82.9243,23.0095)"><path
             d="m 0,0 c 0,0.445 -0.299,0.785 -0.712,0.785 -0.403,0 -0.725,-0.301 -0.725,-0.785 0,-0.445 0.297,-0.76 0.722,-0.76 C -0.325,-0.76 0,-0.455 0,0 M 0.554,1.271 V -1.244 H 0.002 v 0.338 h -0.007 c -0.183,-0.242 -0.453,-0.377 -0.801,-0.377 -0.697,0 -1.218,0.508 -1.218,1.285 0,0.762 0.521,1.307 1.213,1.307 0.32,0 0.59,-0.116 0.778,-0.34 h 0.011 v 0.302 z"
             style="fill:#ffffff;fill-opacity:1;fill-rule:nonzero;stroke:none"
             id="path832"
             inkscape:connector-curvature="0" /></g><g
           id="g834"
           transform="translate(85.4785,23.2888)"><path
             d="M 0,0 C 0,0.889 0.227,1.715 0.622,2.322 L 1.058,2.121 C 0.73,1.523 0.539,0.777 0.539,0 c 0,-0.795 0.194,-1.506 0.511,-2.119 L 0.607,-2.318 C 0.227,-1.691 0,-0.906 0,0"
             style="fill:#ffffff;fill-opacity:1;fill-rule:nonzero;stroke:none"
             id="path836"
             inkscape:connector-curvature="0" /></g><g
           id="g838"
           transform="translate(86.877,23.0192)"><path
             d="m 0,0 c 0,0.771 0.539,1.299 1.302,1.299 0.392,0 0.805,-0.158 1.057,-0.467 L 1.966,0.492 C 1.823,0.66 1.606,0.775 1.332,0.775 0.886,0.775 0.587,0.463 0.587,0.006 c 0,-0.463 0.304,-0.776 0.747,-0.776 0.28,0 0.504,0.124 0.637,0.272 L 2.369,-0.852 C 2.153,-1.098 1.768,-1.293 1.282,-1.293 0.542,-1.293 0,-0.77 0,0"
             style="fill:#ffffff;fill-opacity:1;fill-rule:nonzero;stroke:none"
             id="path840"
             inkscape:connector-curvature="0" /></g><g
           id="g842"
           transform="translate(91.665,23.0192)"><path
             d="m 0,0 c 0,0.461 -0.32,0.775 -0.733,0.775 -0.44,0 -0.735,-0.338 -0.735,-0.775 0,-0.43 0.302,-0.77 0.735,-0.77 C -0.325,-0.77 0,-0.453 0,0 m -2.055,0 c 0,0.742 0.527,1.299 1.322,1.299 0.771,0 1.319,-0.528 1.319,-1.299 0,-0.766 -0.548,-1.293 -1.319,-1.293 -0.795,0 -1.322,0.555 -1.322,1.293"
             style="fill:#ffffff;fill-opacity:1;fill-rule:nonzero;stroke:none"
             id="path844"
             inkscape:connector-curvature="0" /></g><g
           id="g846"
           transform="translate(96.7588,23.2204)"><path
             d="m 0,0 v -1.457 h -0.577 v 1.312 c 0,0.456 -0.148,0.719 -0.493,0.719 -0.325,0 -0.587,-0.281 -0.587,-0.775 v -1.256 h -0.576 v 1.312 c 0,0.456 -0.159,0.719 -0.501,0.719 -0.343,0 -0.604,-0.281 -0.604,-0.775 v -1.254 h -0.577 v 2.516 h 0.577 V 0.713 h 0.007 c 0.206,0.252 0.496,0.385 0.786,0.385 0.339,0 0.599,-0.135 0.75,-0.418 h 0.01 c 0.212,0.273 0.531,0.418 0.901,0.418 C -0.33,1.098 0,0.75 0,0"
             style="fill:#ffffff;fill-opacity:1;fill-rule:nonzero;stroke:none"
             id="path848"
             inkscape:connector-curvature="0" /></g><g
           id="g850"
           transform="translate(101.3696,23.2204)"><path
             d="m 0,0 v -1.457 h -0.577 v 1.312 c 0,0.456 -0.148,0.719 -0.493,0.719 -0.325,0 -0.587,-0.281 -0.587,-0.775 v -1.256 h -0.576 v 1.312 c 0,0.456 -0.159,0.719 -0.501,0.719 -0.343,0 -0.604,-0.281 -0.604,-0.775 v -1.254 h -0.577 v 2.516 h 0.577 V 0.713 h 0.007 c 0.206,0.252 0.496,0.385 0.786,0.385 0.339,0 0.599,-0.135 0.75,-0.418 h 0.01 c 0.212,0.273 0.531,0.418 0.901,0.418 C -0.33,1.098 0,0.75 0,0"
             style="fill:#ffffff;fill-opacity:1;fill-rule:nonzero;stroke:none"
             id="path852"
             inkscape:connector-curvature="0" /></g><g
           id="g854"
           transform="translate(102.5269,23.2888)"><path
             d="M 0,0 H 1.259 C 1.186,0.305 0.977,0.506 0.647,0.506 0.332,0.506 0.083,0.328 0,0 M 1.823,-0.465 H -0.01 c 0.075,-0.357 0.347,-0.574 0.718,-0.574 0.292,0 0.498,0.135 0.626,0.297 L 1.737,-1.088 C 1.523,-1.361 1.17,-1.562 0.677,-1.562 c -0.733,0 -1.286,0.513 -1.286,1.298 0,0.77 0.526,1.293 1.226,1.293 0.742,0 1.221,-0.533 1.221,-1.265 0,-0.088 -0.008,-0.184 -0.015,-0.229"
             style="fill:#ffffff;fill-opacity:1;fill-rule:nonzero;stroke:none"
             id="path856"
             inkscape:connector-curvature="0" /></g><g
           id="g858"
           transform="translate(106.3896,24.3161)"><path
             d="m 0,0 v -0.643 c -0.065,0.006 -0.133,0.008 -0.173,0.008 -0.438,0 -0.688,-0.314 -0.688,-0.722 v -1.194 h -0.576 v 2.516 h 0.576 v -0.377 h 0.007 c 0.197,0.266 0.477,0.414 0.784,0.414 0.025,0 0.05,0 0.07,-0.002"
             style="fill:#ffffff;fill-opacity:1;fill-rule:nonzero;stroke:none"
             id="path860"
             inkscape:connector-curvature="0" /></g><g
           id="g862"
           transform="translate(106.6489,23.0192)"><path
             d="m 0,0 c 0,0.771 0.539,1.299 1.302,1.299 0.392,0 0.805,-0.158 1.057,-0.467 L 1.966,0.492 C 1.823,0.66 1.606,0.775 1.332,0.775 0.886,0.775 0.587,0.463 0.587,0.006 c 0,-0.463 0.304,-0.776 0.747,-0.776 0.28,0 0.504,0.124 0.637,0.272 L 2.369,-0.852 C 2.153,-1.098 1.768,-1.293 1.282,-1.293 0.542,-1.293 0,-0.77 0,0"
             style="fill:#ffffff;fill-opacity:1;fill-rule:nonzero;stroke:none"
             id="path864"
             inkscape:connector-curvature="0" /></g><path
           d="m 109.569,24.281 h 0.576 v -2.516 h -0.576 z m -0.099,0.758 c 0,0.209 0.172,0.383 0.391,0.383 0.211,0 0.388,-0.174 0.388,-0.383 0,-0.211 -0.177,-0.383 -0.388,-0.383 -0.219,0 -0.391,0.172 -0.391,0.383"
           style="fill:#ffffff;fill-opacity:1;fill-rule:nonzero;stroke:none"
           id="path866"
           inkscape:connector-curvature="0" /><g
           id="g868"
           transform="translate(112.7993,23.0095)"><path
             d="m 0,0 c 0,0.445 -0.299,0.785 -0.712,0.785 -0.403,0 -0.725,-0.301 -0.725,-0.785 0,-0.445 0.297,-0.76 0.722,-0.76 C -0.325,-0.76 0,-0.455 0,0 M 0.554,1.271 V -1.244 H 0.002 v 0.338 h -0.007 c -0.183,-0.242 -0.453,-0.377 -0.801,-0.377 -0.697,0 -1.218,0.508 -1.218,1.285 0,0.762 0.521,1.307 1.213,1.307 0.32,0 0.59,-0.116 0.778,-0.34 h 0.011 v 0.302 z"
             style="fill:#ffffff;fill-opacity:1;fill-rule:nonzero;stroke:none"
             id="path870"
             inkscape:connector-curvature="0" /></g><path
           d="m 114.109,25.562 h 0.576 v -3.797 h -0.576 z"
           style="fill:#ffffff;fill-opacity:1;fill-rule:nonzero;stroke:none"
           id="path872"
           inkscape:connector-curvature="0" /><g
           id="g874"
           transform="translate(115.3364,21.1696)"><path
             d="m 0,0 c 0.317,0.613 0.511,1.324 0.511,2.119 0,0.777 -0.191,1.524 -0.519,2.121 L 0.428,4.441 C 0.823,3.834 1.05,3.008 1.05,2.119 1.05,1.213 0.823,0.428 0.443,-0.199 Z"
             style="fill:#ffffff;fill-opacity:1;fill-rule:nonzero;stroke:none"
             id="path876"
             inkscape:connector-curvature="0" /></g></g></g></g></svg>