<?xml version="1.0" encoding="UTF-8" standalone="no"?>
<!-- Created with Inkscape (http://www.inkscape.org/) -->

<svg
   xmlns:dc="http://purl.org/dc/elements/1.1/"
   xmlns:cc="http://creativecommons.org/ns#"
   xmlns:rdf="http://www.w3.org/1999/02/22-rdf-syntax-ns#"
   xmlns:svg="http://www.w3.org/2000/svg"
   xmlns="http://www.w3.org/2000/svg"
   xmlns:sodipodi="http://sodipodi.sourceforge.net/DTD/sodipodi-0.dtd"
   xmlns:inkscape="http://www.inkscape.org/namespaces/inkscape"
   version="1.1"
   id="svg10"
   xml:space="preserve"
   width="1532.6667"
   height="912.0907"
   viewBox="0 0 1532.6667 912.0907"
   sodipodi:docname="acf-4.svg"
   inkscape:version="0.92.2 (5c3e80d, 2017-08-06)"
   inkscape:export-filename="C:\Users\jens\Documents\GitHub\logo_contest\M-Dominguez-Silva\acf-4.png"
   inkscape:export-xdpi="11.85"
   inkscape:export-ydpi="11.85"><metadata
     id="metadata16"><rdf:RDF><cc:Work
         rdf:about=""><dc:format>image/svg+xml</dc:format><dc:type
           rdf:resource="http://purl.org/dc/dcmitype/StillImage" /><dc:title /></cc:Work></rdf:RDF></metadata><defs
     id="defs14"><clipPath
       clipPathUnits="userSpaceOnUse"
       id="clipPath30"><path
         d="M 0,684.068 H 1149.503 V 0 H 0 Z"
         id="path28"
         inkscape:connector-curvature="0" /></clipPath><clipPath
       clipPathUnits="userSpaceOnUse"
       id="clipPath40"><path
         d="M 0,684.068 H 1149.503 V 0 H 0 Z"
         id="path38"
         inkscape:connector-curvature="0" /></clipPath></defs><sodipodi:namedview
     pagecolor="#ffffff"
     bordercolor="#666666"
     borderopacity="1"
     objecttolerance="10"
     gridtolerance="10"
     guidetolerance="10"
     inkscape:pageopacity="0"
     inkscape:pageshadow="2"
     inkscape:window-width="2736"
     inkscape:window-height="1699"
     id="namedview12"
     showgrid="false"
     inkscape:zoom="1.1431056"
     inkscape:cx="401.53768"
     inkscape:cy="456.04535"
     inkscape:window-x="-13"
     inkscape:window-y="-13"
     inkscape:window-maximized="1"
     inkscape:current-layer="g18" /><g
     id="g18"
     inkscape:groupmode="layer"
     inkscape:label="acf_proposal_mdominguez(at)gmailcom"
     transform="matrix(1.3333333,0,0,-1.3333333,0,912.09067)"><path
       d="M 0,0 H 0.001 V 684.068 H 0 Z"
       style="fill:#00a79d;fill-opacity:1;fill-rule:nonzero;stroke:none"
       id="path20"
       inkscape:connector-curvature="0" /><path
       d="M 0.001,0 H 1149.504 V 684.068 H 10e-4 Z"
       style="fill:#414042;fill-opacity:1;fill-rule:nonzero;stroke:none"
       id="path22"
       inkscape:connector-curvature="0" /><g
       id="g24"><g
         id="g26"
         clip-path="url(#clipPath30)"><path
           d="M 2300.92,0 H 1149.503 V 684.068 H 2300.92 Z"
           style="fill:#00a79d;fill-opacity:1;fill-rule:nonzero;stroke:none"
           id="path32"
           inkscape:connector-curvature="0" /></g></g><g
       id="g34"><g
         id="g36"
         clip-path="url(#clipPath40)"><g
           id="g42"
           transform="translate(576.6655,525.9528)"><path
             d="m 0,0 c -92.608,0 -171.058,-60.57 -197.928,-144.251 32.721,73.105 109.02,124.369 197.928,124.369 88.908,0 165.206,-51.264 197.928,-124.369 C 171.058,-60.57 92.608,0 0,0"
             style="fill:#ffffff;fill-opacity:1;fill-rule:nonzero;stroke:none"
             id="path44"
             inkscape:connector-curvature="0" /></g><g
           id="g46"
           transform="translate(319.3852,168.7145)"><path
             d="m 0,0 -4.444,12.67 h -0.04 L -8.93,0 Z m 1.509,-4.304 h -11.947 l -2.192,-6.295 h -5.188 l 10.92,29.262 h 4.846 L 8.93,-10.599 H 3.721 Z"
             style="fill:#f1f2f2;fill-opacity:1;fill-rule:nonzero;stroke:none"
             id="path48"
             inkscape:connector-curvature="0" /></g><g
           id="g50"
           transform="translate(341.8969,173.0182)"><path
             d="m 0,0 h 4.747 c 4.002,0 5.932,2.052 5.932,4.968 0,3.076 -2.011,4.927 -5.59,4.927 H 0 Z M 10.921,-14.902 3.942,-4.465 H 0 v -10.437 h -4.967 v 29.261 h 10.8 c 6.938,0 9.995,-4.042 9.995,-9.492 0,-4.806 -2.454,-7.703 -6.416,-8.808 v -0.081 l 7.482,-10.88 z"
             style="fill:#f1f2f2;fill-opacity:1;fill-rule:nonzero;stroke:none"
             id="path52"
             inkscape:connector-curvature="0" /></g><g
           id="g54"
           transform="translate(376.2758,170.3229)"><path
             d="m 0,0 -3.299,-3.921 v -8.286 h -4.967 v 29.262 h 4.967 V 3.037 h 0.081 L 8.024,17.055 h 6.315 L 3.358,4.002 14.681,-12.207 H 8.507 L 0.08,0 Z"
             style="fill:#f1f2f2;fill-opacity:1;fill-rule:nonzero;stroke:none"
             id="path56"
             inkscape:connector-curvature="0" /></g><g
           id="g58"
           transform="translate(413.2807,172.6354)"><path
             d="m 0,0 c 0,8.346 5.289,15.063 14.762,15.063 4.002,0 8.326,-1.668 11.524,-5.611 L 22.625,6.355 c -1.89,2.333 -4.726,4.002 -7.863,4.002 C 9.091,10.357 5.189,6.215 5.189,0 c 0,-5.992 4.002,-10.096 9.573,-10.096 3.299,0 6.013,1.67 7.863,3.983 L 26.286,-9.23 C 23.771,-12.388 19.91,-14.781 14.762,-14.781 6.798,-14.781 0,-9.593 0,0"
             style="fill:#f1f2f2;fill-opacity:1;fill-rule:nonzero;stroke:none"
             id="path60"
             inkscape:connector-curvature="0" /></g><g
           id="g62"
           transform="translate(471.7114,172.7565)"><path
             d="m 0,0 c 0,5.993 -4.163,10.297 -9.573,10.297 -5.711,0 -9.633,-4.585 -9.633,-10.297 0,-5.731 3.922,-10.316 9.633,-10.316 C -4.163,-10.316 0,-5.992 0,0 m -24.375,0 c 0,8.588 6.014,14.942 14.802,14.942 8.447,0 14.742,-6.013 14.742,-14.942 0,-8.93 -6.295,-14.962 -14.742,-14.962 -8.788,0 -14.802,6.355 -14.802,14.962"
             style="fill:#f1f2f2;fill-opacity:1;fill-rule:nonzero;stroke:none"
             id="path64"
             inkscape:connector-curvature="0" /></g><g
           id="g66"
           transform="translate(516.143,187.3776)"><path
             d="m 0,0 v -29.262 h -4.968 v 19.609 h -0.06 l -8.004,-13.978 h -3.258 l -8.004,13.978 h -0.06 v -19.609 h -4.968 V 0 h 4.988 l 9.653,-17.518 h 0.08 L -4.987,0 Z"
             style="fill:#f1f2f2;fill-opacity:1;fill-rule:nonzero;stroke:none"
             id="path68"
             inkscape:connector-curvature="0" /></g><g
           id="g70"
           transform="translate(556.7338,187.3776)"><path
             d="m 0,0 v -29.262 h -4.968 v 19.609 h -0.06 l -8.004,-13.978 h -3.258 l -8.004,13.978 h -0.06 v -19.609 h -4.968 V 0 h 4.988 l 9.653,-17.518 h 0.08 L -4.987,0 Z"
             style="fill:#f1f2f2;fill-opacity:1;fill-rule:nonzero;stroke:none"
             id="path72"
             inkscape:connector-curvature="0" /></g><g
           id="g74"
           transform="translate(567.5795,170.1423)"><path
             d="M 0,0 V 17.235 H 4.968 V 0.382 c 0,-4.646 2.473,-8.025 6.656,-8.025 3.922,0 6.718,2.977 6.718,8.025 v 16.853 h 4.967 V 0 c 0,-7.582 -4.384,-12.348 -11.685,-12.348 C 4.706,-12.348 0,-7.884 0,0"
             style="fill:#f1f2f2;fill-opacity:1;fill-rule:nonzero;stroke:none"
             id="path76"
             inkscape:connector-curvature="0" /></g><g
           id="g78"
           transform="translate(626.0102,187.3776)"><path
             d="m 0,0 v -29.262 h -5.067 l -14.159,20.695 h -0.081 v -20.695 h -4.967 V 0 h 4.927 l 14.28,-20.996 h 0.099 l 0,20.996 z"
             style="fill:#f1f2f2;fill-opacity:1;fill-rule:nonzero;stroke:none"
             id="path80"
             inkscape:connector-curvature="0" /></g><path
           d="m 637.461,187.378 h 4.987 v -29.262 h -4.987 z"
           style="fill:#f1f2f2;fill-opacity:1;fill-rule:nonzero;stroke:none"
           id="path82"
           inkscape:connector-curvature="0" /><g
           id="g84"
           transform="translate(659.937,182.9128)"><path
             d="m 0,0 h -8.306 v 4.465 h 21.66 V 0 H 4.968 V -24.797 H 0 Z"
             style="fill:#f1f2f2;fill-opacity:1;fill-rule:nonzero;stroke:none"
             id="path86"
             inkscape:connector-curvature="0" /></g><g
           id="g88"
           transform="translate(704.7534,187.3776)"><path
             d="m 0,0 -9.834,-16.33 v -12.932 h -4.987 V -16.33 L -24.595,0 h 5.691 l 6.536,-11.343 h 0.121 L -5.751,0 Z"
             style="fill:#f1f2f2;fill-opacity:1;fill-rule:nonzero;stroke:none"
             id="path90"
             inkscape:connector-curvature="0" /></g><g
           id="g92"
           transform="translate(728.143,187.3776)"><path
             d="M 0,0 H 19.126 V -4.465 H 4.968 v -8.749 h 11.886 v -4.464 H 4.968 V -29.262 H 0 Z"
             style="fill:#f1f2f2;fill-opacity:1;fill-rule:nonzero;stroke:none"
             id="path94"
             inkscape:connector-curvature="0" /></g><g
           id="g96"
           transform="translate(756.3481,170.1423)"><path
             d="M 0,0 V 17.235 H 4.968 V 0.382 c 0,-4.646 2.473,-8.025 6.656,-8.025 3.922,0 6.718,2.977 6.718,8.025 v 16.853 h 4.967 V 0 c 0,-7.582 -4.384,-12.348 -11.685,-12.348 C 4.706,-12.348 0,-7.884 0,0"
             style="fill:#f1f2f2;fill-opacity:1;fill-rule:nonzero;stroke:none"
             id="path98"
             inkscape:connector-curvature="0" /></g><g
           id="g100"
           transform="translate(814.7787,187.3776)"><path
             d="m 0,0 v -29.262 h -5.067 l -14.159,20.695 h -0.081 v -20.695 h -4.967 V 0 h 4.927 l 14.28,-20.996 h 0.099 l 0,20.996 z"
             style="fill:#f1f2f2;fill-opacity:1;fill-rule:nonzero;stroke:none"
             id="path102"
             inkscape:connector-curvature="0" /></g><g
           id="g104"
           transform="translate(835.1791,162.5807)"><path
             d="m 0,0 c 6.194,0 10.236,4.323 10.236,10.116 0,5.933 -4.102,10.216 -9.955,10.216 H -4.163 L -4.163,0 Z m -9.131,24.797 h 9.312 c 9.271,0 15.184,-6.033 15.184,-14.682 0,-8.627 -5.672,-14.58 -15.063,-14.58 h -9.433 z"
             style="fill:#f1f2f2;fill-opacity:1;fill-rule:nonzero;stroke:none"
             id="path106"
             inkscape:connector-curvature="0" /></g><g
           id="g108"
           transform="translate(35.9223,43.5974)"><path
             d="m 0,0 v -3.662 h -0.621 v 2.455 h -0.008 l -1.002,-1.75 h -0.408 l -1.002,1.75 H -3.049 V -3.662 H -3.67 V 0 h 0.624 l 1.209,-2.191 h 0.01 L -0.624,0 Z"
             style="fill:#ffffff;fill-opacity:1;fill-rule:nonzero;stroke:none"
             id="path110"
             inkscape:connector-curvature="0" /></g><g
           id="g112"
           transform="translate(38.1499,42.8005)"><path
             d="M 0,0 H -0.587 L 0.005,0.744 0.64,0.748 Z m 0.453,-1.621 c 0,0.445 -0.3,0.785 -0.713,0.785 -0.402,0 -0.724,-0.303 -0.724,-0.785 0,-0.447 0.297,-0.762 0.722,-0.762 0.39,0 0.715,0.305 0.715,0.762 M 1.007,-0.35 V -2.865 H 0.455 v 0.336 H 0.448 c -0.183,-0.241 -0.453,-0.377 -0.801,-0.377 -0.697,0 -1.218,0.51 -1.218,1.287 0,0.76 0.521,1.307 1.214,1.307 0.319,0 0.588,-0.116 0.777,-0.34 h 0.011 v 0.302 z"
             style="fill:#ffffff;fill-opacity:1;fill-rule:nonzero;stroke:none"
             id="path114"
             inkscape:connector-curvature="0" /></g><g
           id="g116"
           transform="translate(41.313,42.486)"><path
             d="m 0,0 v -0.643 c -0.066,0.004 -0.134,0.008 -0.174,0.008 -0.438,0 -0.687,-0.314 -0.687,-0.722 v -1.194 h -0.577 v 2.516 h 0.577 v -0.379 h 0.007 c 0.197,0.268 0.476,0.416 0.783,0.416 0.025,0 0.05,0 0.071,-0.002"
             style="fill:#ffffff;fill-opacity:1;fill-rule:nonzero;stroke:none"
             id="path118"
             inkscape:connector-curvature="0" /></g><path
           d="m 41.826,42.451 h 0.576 v -2.516 h -0.576 z m -0.099,0.758 c 0,0.209 0.171,0.381 0.391,0.381 0.211,0 0.387,-0.172 0.387,-0.381 0,-0.213 -0.176,-0.383 -0.387,-0.383 -0.22,0 -0.391,0.17 -0.391,0.383"
           style="fill:#ffffff;fill-opacity:1;fill-rule:nonzero;stroke:none"
           id="path120"
           inkscape:connector-curvature="0" /><g
           id="g122"
           transform="translate(45.0923,41.1892)"><path
             d="m 0,0 c 0,0.461 -0.32,0.775 -0.733,0.775 -0.441,0 -0.736,-0.338 -0.736,-0.775 0,-0.432 0.303,-0.771 0.736,-0.771 C -0.325,-0.771 0,-0.453 0,0 m -2.055,0 c 0,0.742 0.527,1.299 1.322,1.299 0.77,0 1.319,-0.529 1.319,-1.299 0,-0.766 -0.549,-1.295 -1.319,-1.295 -0.795,0 -1.322,0.557 -1.322,1.295"
             style="fill:#ffffff;fill-opacity:1;fill-rule:nonzero;stroke:none"
             id="path124"
             inkscape:connector-curvature="0" /></g><g
           id="g126"
           transform="translate(48.8628,40.4939)"><path
             d="m 0,0 c 0.775,0 1.281,0.541 1.281,1.266 0,0.744 -0.513,1.279 -1.246,1.279 h -0.556 l 0,-2.545 z m -1.144,3.104 h 1.166 c 1.161,0 1.901,-0.754 1.901,-1.838 0,-1.08 -0.71,-1.825 -1.886,-1.825 h -1.181 z"
             style="fill:#ffffff;fill-opacity:1;fill-rule:nonzero;stroke:none"
             id="path128"
             inkscape:connector-curvature="0" /></g><g
           id="g130"
           transform="translate(53.3374,41.1892)"><path
             d="m 0,0 c 0,0.461 -0.319,0.775 -0.732,0.775 -0.441,0 -0.736,-0.338 -0.736,-0.775 0,-0.432 0.302,-0.771 0.736,-0.771 C -0.325,-0.771 0,-0.453 0,0 m -2.055,0 c 0,0.742 0.527,1.299 1.323,1.299 0.77,0 1.319,-0.529 1.319,-1.299 0,-0.766 -0.549,-1.295 -1.319,-1.295 -0.796,0 -1.323,0.557 -1.323,1.295"
             style="fill:#ffffff;fill-opacity:1;fill-rule:nonzero;stroke:none"
             id="path132"
             inkscape:connector-curvature="0" /></g><g
           id="g134"
           transform="translate(58.4311,41.3903)"><path
             d="m 0,0 v -1.459 h -0.576 v 1.313 c 0,0.455 -0.149,0.72 -0.493,0.72 -0.326,0 -0.587,-0.283 -0.587,-0.775 v -1.258 h -0.576 v 1.313 c 0,0.455 -0.16,0.72 -0.501,0.72 -0.343,0 -0.605,-0.283 -0.605,-0.775 v -1.254 h -0.577 v 2.516 h 0.577 V 0.713 h 0.008 c 0.206,0.252 0.495,0.385 0.785,0.385 0.34,0 0.599,-0.137 0.75,-0.418 h 0.01 c 0.212,0.271 0.531,0.418 0.901,0.418 C -0.329,1.098 0,0.75 0,0"
             style="fill:#ffffff;fill-opacity:1;fill-rule:nonzero;stroke:none"
             id="path136"
             inkscape:connector-curvature="0" /></g><path
           d="m 59.165,42.451 h 0.576 v -2.516 h -0.576 z m -0.098,0.758 c 0,0.209 0.171,0.381 0.39,0.381 0.211,0 0.388,-0.172 0.388,-0.381 0,-0.213 -0.177,-0.383 -0.388,-0.383 -0.219,0 -0.39,0.17 -0.39,0.383"
           style="fill:#ffffff;fill-opacity:1;fill-rule:nonzero;stroke:none"
           id="path138"
           inkscape:connector-curvature="0" /><g
           id="g140"
           transform="translate(62.8764,41.4157)"><path
             d="m 0,0 v -1.484 h -0.576 v 1.336 c 0,0.531 -0.199,0.697 -0.547,0.697 -0.39,0 -0.651,-0.272 -0.651,-0.766 V -1.48 h -0.578 v 2.515 h 0.578 V 0.689 h 0.006 c 0.215,0.25 0.52,0.383 0.844,0.383 C -0.372,1.072 0,0.754 0,0"
             style="fill:#ffffff;fill-opacity:1;fill-rule:nonzero;stroke:none"
             id="path142"
             inkscape:connector-curvature="0" /></g><g
           id="g144"
           transform="translate(65.4301,41.2439)"><path
             d="m 0,0 c 0,0.432 -0.31,0.715 -0.71,0.715 -0.428,0 -0.717,-0.297 -0.717,-0.723 0,-0.451 0.312,-0.726 0.717,-0.726 C -0.289,-0.734 0,-0.426 0,0 m 0.552,1.207 v -2.256 c 0,-0.763 -0.35,-1.318 -1.281,-1.318 -0.378,0 -0.744,0.094 -1.025,0.262 l 0.136,0.509 c 0.274,-0.146 0.498,-0.25 0.855,-0.25 0.496,0 0.751,0.284 0.751,0.619 v 0.268 h -0.01 c -0.189,-0.197 -0.449,-0.307 -0.763,-0.307 -0.705,0 -1.229,0.493 -1.229,1.241 0,0.736 0.498,1.271 1.199,1.271 0.29,0 0.569,-0.103 0.78,-0.305 h 0.011 v 0.266 z"
             style="fill:#ffffff;fill-opacity:1;fill-rule:nonzero;stroke:none"
             id="path146"
             inkscape:connector-curvature="0" /></g><g
           id="g148"
           transform="translate(68.9487,42.4509)"><path
             d="m 0,0 v -2.516 h -0.577 v 0.327 h -0.007 c -0.202,-0.241 -0.481,-0.368 -0.775,-0.368 -0.555,0 -0.94,0.278 -0.94,1.026 V 0 h 0.576 v -1.375 c 0,-0.504 0.152,-0.654 0.499,-0.654 0.337,0 0.647,0.281 0.647,0.824 l 0,1.205 z"
             style="fill:#ffffff;fill-opacity:1;fill-rule:nonzero;stroke:none"
             id="path150"
             inkscape:connector-curvature="0" /></g><g
           id="g152"
           transform="translate(70.1284,41.4587)"><path
             d="M 0,0 H 1.259 C 1.186,0.305 0.977,0.506 0.646,0.506 0.332,0.506 0.083,0.326 0,0 m 1.822,-0.467 h -1.833 c 0.076,-0.357 0.348,-0.574 0.718,-0.574 0.292,0 0.499,0.137 0.627,0.297 L 1.737,-1.088 C 1.522,-1.363 1.17,-1.564 0.677,-1.564 c -0.733,0 -1.286,0.513 -1.286,1.298 0,0.772 0.526,1.295 1.225,1.295 0.743,0 1.222,-0.533 1.222,-1.267 0,-0.088 -0.008,-0.184 -0.016,-0.229"
             style="fill:#ffffff;fill-opacity:1;fill-rule:nonzero;stroke:none"
             id="path154"
             inkscape:connector-curvature="0" /></g><g
           id="g156"
           transform="translate(73.1128,40.4333)"><path
             d="m 0,0 v -0.008 h 1.294 v -0.49 h -2.069 v 0.404 L 0.519,1.518 V 1.525 H -0.689 V 2.018 H 1.314 V 1.619 Z"
             style="fill:#ffffff;fill-opacity:1;fill-rule:nonzero;stroke:none"
             id="path158"
             inkscape:connector-curvature="0" /></g><g
           id="g160"
           transform="translate(35.7368,35.2712)"><path
             d="m 0,0 -0.202,-1.506 h -0.267 l 0.197,1.488 c 0.078,0.602 -0.109,0.789 -0.393,0.789 -0.396,0 -0.884,-0.539 -0.981,-1.212 l -0.142,-1.065 h -0.27 l 0.197,1.488 c 0.078,0.602 -0.101,0.789 -0.388,0.789 -0.395,0 -0.911,-0.548 -0.999,-1.226 l -0.129,-1.051 h -0.269 l 0.307,2.504 h 0.267 L -3.143,0.416 h 0.008 c 0.262,0.383 0.622,0.605 0.951,0.605 0.361,0 0.578,-0.187 0.61,-0.605 h 0.012 C -1.31,0.799 -0.954,1.021 -0.604,1.021 -0.131,1.021 0.093,0.713 0,0"
             style="fill:#ffffff;fill-opacity:1;fill-rule:nonzero;stroke:none"
             id="path162"
             inkscape:connector-curvature="0" /></g><g
           id="g164"
           transform="translate(38.2768,35.32)"><path
             d="m 0,0 0.05,0.402 c -0.179,0.254 -0.521,0.317 -0.736,0.317 -0.619,0 -1.011,-0.621 -1.011,-1.303 0,-0.434 0.217,-0.748 0.627,-0.748 0.544,0 0.981,0.629 1.07,1.332 M 0.541,2.242 0.078,-1.555 h -0.269 l 0.08,0.659 h -0.01 C -0.343,-1.289 -0.69,-1.58 -1.11,-1.58 c -0.565,0 -0.862,0.441 -0.862,1.002 0,0.822 0.501,1.551 1.277,1.551 0.284,0 0.587,-0.078 0.77,-0.274 h 0.01 l 0.189,1.543 z"
             style="fill:#ffffff;fill-opacity:1;fill-rule:nonzero;stroke:none"
             id="path166"
             inkscape:connector-curvature="0" /></g><g
           id="g168"
           transform="translate(39.4507,34.8103)"><path
             d="m 0,0 c 0,-0.504 0.29,-0.818 0.753,-0.818 0.6,0 1.025,0.523 1.025,1.261 0,0.539 -0.32,0.786 -0.751,0.786 C 0.423,1.229 0,0.678 0,0 m 1.038,1.482 c 0.607,0 1.015,-0.361 1.015,-1.021 0,-0.852 -0.487,-1.531 -1.305,-1.531 -0.614,0 -1.019,0.381 -1.019,1.045 0,0.8 0.498,1.507 1.308,1.507 z"
             style="fill:#ffffff;fill-opacity:1;fill-rule:nonzero;stroke:none"
             id="path170"
             inkscape:connector-curvature="0" /></g><g
           id="g172"
           transform="translate(45.6714,35.2712)"><path
             d="m 0,0 -0.201,-1.506 h -0.267 l 0.197,1.488 c 0.078,0.602 -0.109,0.789 -0.393,0.789 -0.396,0 -0.884,-0.539 -0.982,-1.212 l -0.141,-1.065 h -0.27 l 0.197,1.488 c 0.078,0.602 -0.101,0.789 -0.388,0.789 -0.396,0 -0.911,-0.548 -1,-1.226 l -0.128,-1.051 h -0.27 l 0.308,2.504 h 0.267 L -3.142,0.416 h 0.007 c 0.263,0.383 0.622,0.605 0.952,0.605 0.361,0 0.577,-0.187 0.61,-0.605 h 0.012 c 0.252,0.383 0.607,0.605 0.957,0.605 C -0.131,1.021 0.094,0.713 0,0"
             style="fill:#ffffff;fill-opacity:1;fill-rule:nonzero;stroke:none"
             id="path174"
             inkscape:connector-curvature="0" /></g><g
           id="g176"
           transform="translate(47.0434,37.0368)"><path
             d="m 0,0 c 0,-0.119 -0.088,-0.209 -0.209,-0.209 -0.113,0 -0.199,0.086 -0.199,0.201 0,0.121 0.088,0.209 0.207,0.209 C -0.086,0.201 0,0.115 0,0 M -0.177,-0.768 -0.481,-3.271 H -0.75 l 0.307,2.503 z"
             style="fill:#ffffff;fill-opacity:1;fill-rule:nonzero;stroke:none"
             id="path178"
             inkscape:connector-curvature="0" /></g><g
           id="g180"
           transform="translate(49.643,35.2712)"><path
             d="m 0,0 -0.199,-1.506 h -0.27 l 0.198,1.488 c 0.08,0.602 -0.107,0.786 -0.416,0.786 -0.461,0 -1.017,-0.545 -1.106,-1.223 L -1.921,-1.506 H -2.19 l 0.307,2.504 h 0.267 L -1.692,0.385 h 0.01 C -1.402,0.785 -1,1.021 -0.619,1.021 -0.131,1.021 0.096,0.713 0,0"
             style="fill:#ffffff;fill-opacity:1;fill-rule:nonzero;stroke:none"
             id="path182"
             inkscape:connector-curvature="0" /></g><g
           id="g184"
           transform="translate(52.1899,35.3298)"><path
             d="m 0,0 v -0.004 l 0.051,0.4 c -0.184,0.239 -0.522,0.313 -0.723,0.313 -0.619,0 -1.013,-0.621 -1.013,-1.227 0,-0.431 0.217,-0.746 0.627,-0.746 0.532,0 0.973,0.629 1.058,1.264 M 0.386,0.939 0.118,-1.234 c -0.138,-1.123 -0.681,-1.375 -1.359,-1.375 -0.294,0 -0.564,0.068 -0.821,0.213 l 0.088,0.248 c 0.262,-0.153 0.516,-0.209 0.745,-0.209 0.549,0 0.965,0.197 1.083,1.146 l 0.048,0.383 h -0.01 c -0.222,-0.387 -0.574,-0.684 -0.99,-0.684 -0.563,0 -0.861,0.442 -0.861,1 0,0.746 0.501,1.475 1.277,1.475 0.289,0 0.581,-0.096 0.755,-0.291 h 0.01 l 0.033,0.267 z"
             style="fill:#ffffff;fill-opacity:1;fill-rule:nonzero;stroke:none"
             id="path186"
             inkscape:connector-curvature="0" /></g><g
           id="g188"
           transform="translate(55.2885,36.2692)"><path
             d="m 0,0 -0.305,-2.504 h -0.269 l 0.07,0.584 h -0.01 c -0.237,-0.369 -0.584,-0.609 -0.96,-0.609 -0.507,0 -0.755,0.293 -0.667,1.015 L -1.954,0 h 0.269 l -0.183,-1.496 c -0.076,-0.617 0.128,-0.777 0.455,-0.777 0.423,0 0.925,0.525 1.013,1.177 L -0.268,0 Z"
             style="fill:#ffffff;fill-opacity:1;fill-rule:nonzero;stroke:none"
             id="path190"
             inkscape:connector-curvature="0" /></g><g
           id="g192"
           transform="translate(56.0473,34.9392)"><path
             d="M 0,0 C 0.652,0.061 1.504,0.262 1.504,0.732 1.504,1.025 1.204,1.1 1.013,1.1 0.499,1.1 0.061,0.656 0,0 M 1.433,-0.592 1.645,-0.748 C 1.393,-1.033 1.108,-1.195 0.708,-1.195 c -0.587,0 -0.982,0.388 -0.982,1.037 0,0.818 0.516,1.512 1.299,1.512 0.292,0 0.753,-0.151 0.753,-0.606 0,-0.658 -0.982,-0.914 -1.783,-0.992 0.033,-0.449 0.327,-0.699 0.721,-0.699 0.279,0 0.513,0.123 0.717,0.351"
             style="fill:#ffffff;fill-opacity:1;fill-rule:nonzero;stroke:none"
             id="path194"
             inkscape:connector-curvature="0" /></g><g
           id="g196"
           transform="translate(58.3598,34.0153)"><path
             d="M 0,0 V -0.01 C 0.664,-0.014 1.13,-0.023 1.475,-0.139 L 1.402,-0.373 C 0.994,-0.246 0.485,-0.25 -0.391,-0.25 l 0.023,0.215 1.677,2.041 v 0.008 h -1.357 l 0.027,0.24 h 1.73 L 1.684,2.049 Z"
             style="fill:#ffffff;fill-opacity:1;fill-rule:nonzero;stroke:none"
             id="path198"
             inkscape:connector-curvature="0" /></g><g
           id="g200"
           transform="translate(60.7876,33.9489)"><path
             d="m 0,0 c 0,-0.121 -0.088,-0.209 -0.209,-0.209 -0.113,0 -0.199,0.086 -0.199,0.201 0,0.121 0.088,0.209 0.206,0.209 C -0.086,0.201 0,0.117 0,0"
             style="fill:#ffffff;fill-opacity:1;fill-rule:nonzero;stroke:none"
             id="path202"
             inkscape:connector-curvature="0" /></g><g
           id="g204"
           transform="translate(62.2085,33.988)"><path
             d="m 0,0 c 0.346,0 0.603,0.166 0.603,0.447 0,0.276 -0.283,0.375 -0.595,0.51 -0.318,0.137 -0.602,0.307 -0.602,0.668 0,0.422 0.373,0.68 0.793,0.68 0.272,0 0.534,-0.08 0.748,-0.317 L 0.766,1.803 C 0.587,2.004 0.4,2.059 0.185,2.059 c -0.278,0 -0.504,-0.157 -0.504,-0.426 0,-0.227 0.223,-0.348 0.483,-0.461 C 0.489,1.027 0.874,0.881 0.877,0.479 0.879,-0.004 0.479,-0.248 0,-0.248 c -0.35,0 -0.649,0.131 -0.854,0.379 l 0.179,0.185 C -0.488,0.105 -0.267,0 0,0"
             style="fill:#ffffff;fill-opacity:1;fill-rule:nonzero;stroke:none"
             id="path206"
             inkscape:connector-curvature="0" /></g><g
           id="g208"
           transform="translate(64.4301,37.0368)"><path
             d="m 0,0 c 0,-0.119 -0.088,-0.209 -0.209,-0.209 -0.113,0 -0.198,0.086 -0.198,0.201 0,0.121 0.088,0.209 0.206,0.209 C -0.085,0.201 0,0.115 0,0 M -0.176,-0.768 -0.48,-3.271 h -0.27 l 0.308,2.503 z"
             style="fill:#ffffff;fill-opacity:1;fill-rule:nonzero;stroke:none"
             id="path210"
             inkscape:connector-curvature="0" /></g><g
           id="g212"
           transform="translate(65.603,37.5622)"><path
             d="M 0,0 -0.464,-3.797 H -0.733 L -0.27,0 Z"
             style="fill:#ffffff;fill-opacity:1;fill-rule:nonzero;stroke:none"
             id="path214"
             inkscape:connector-curvature="0" /></g><g
           id="g216"
           transform="translate(66.6997,33.7399)"><path
             d="m 0,0 c -0.509,0 -0.737,0.326 -0.645,1.08 l 0.182,1.449 h 0.267 L -0.375,1.098 C -0.456,0.439 -0.279,0.256 0.021,0.256 0.458,0.256 1.002,0.824 1.072,1.764 1.093,2.027 1.078,2.26 1.037,2.529 H 1.314 C 1.35,2.314 1.367,2.029 1.352,1.818 1.264,0.527 0.546,0 0,0"
             style="fill:#ffffff;fill-opacity:1;fill-rule:nonzero;stroke:none"
             id="path218"
             inkscape:connector-curvature="0" /></g><g
           id="g220"
           transform="translate(70.4282,35.3298)"><path
             d="m 0,0 v -0.004 l 0.051,0.4 c -0.184,0.241 -0.522,0.313 -0.723,0.313 -0.619,0 -1.012,-0.619 -1.012,-1.303 0,-0.433 0.216,-0.748 0.626,-0.748 0.532,0 0.973,0.629 1.058,1.342 M 0.383,0.939 0.078,-1.564 h -0.269 l 0.081,0.65 h -0.011 c -0.221,-0.389 -0.568,-0.676 -0.977,-0.676 -0.563,0 -0.861,0.442 -0.861,1.002 0,0.824 0.501,1.551 1.277,1.551 0.289,0 0.579,-0.096 0.755,-0.289 h 0.01 l 0.033,0.265 z"
             style="fill:#ffffff;fill-opacity:1;fill-rule:nonzero;stroke:none"
             id="path222"
             inkscape:connector-curvature="0" /></g><g
           id="g224"
           transform="translate(74.0298,35.2966)"><path
             d="m 0,0 0.051,0.389 c -0.164,0.16 -0.413,0.232 -0.622,0.232 -0.557,0 -0.871,-0.484 -0.871,-1.004 0,-0.377 0.178,-0.611 0.528,-0.611 0.405,0 0.849,0.443 0.914,0.994 m -0.085,-0.766 h -0.013 c -0.212,-0.295 -0.531,-0.478 -0.886,-0.478 -0.441,0 -0.738,0.301 -0.738,0.842 0,0.689 0.42,1.279 1.12,1.279 0.29,0 0.532,-0.102 0.67,-0.25 h 0.01 L 0.104,0.855 H 0.375 L 0.199,-0.568 c -0.025,-0.319 -0.017,-0.504 0.252,-0.504 0.519,0 0.735,0.664 0.735,1.08 0,0.965 -0.66,1.615 -1.631,1.615 -1.449,0 -2.033,-1.143 -2.033,-1.986 0,-0.959 0.696,-1.647 1.602,-1.647 0.433,0 0.831,0.1 1.148,0.274 l 0.114,-0.17 c -0.351,-0.209 -0.791,-0.323 -1.262,-0.323 -1.048,0 -1.828,0.768 -1.828,1.866 0,0.861 0.597,2.201 2.259,2.201 1.105,0 1.86,-0.731 1.86,-1.828 0,-0.526 -0.257,-1.315 -1.042,-1.315 -0.312,0 -0.464,0.237 -0.458,0.539"
             style="fill:#ffffff;fill-opacity:1;fill-rule:nonzero;stroke:none"
             id="path226"
             inkscape:connector-curvature="0" /></g><g
           id="g228"
           transform="translate(77.9008,35.3298)"><path
             d="m 0,0 v -0.004 l 0.05,0.4 c -0.184,0.239 -0.521,0.313 -0.723,0.313 -0.619,0 -1.012,-0.621 -1.012,-1.227 0,-0.431 0.217,-0.746 0.627,-0.746 0.532,0 0.972,0.629 1.058,1.264 M 0.385,0.939 0.118,-1.234 c -0.139,-1.123 -0.682,-1.375 -1.359,-1.375 -0.295,0 -0.565,0.068 -0.822,0.213 l 0.088,0.248 c 0.263,-0.153 0.517,-0.209 0.746,-0.209 0.549,0 0.964,0.197 1.083,1.146 l 0.047,0.383 h -0.009 c -0.222,-0.387 -0.575,-0.684 -0.99,-0.684 -0.564,0 -0.861,0.442 -0.861,1 0,0.746 0.501,1.475 1.276,1.475 0.29,0 0.582,-0.096 0.756,-0.291 h 0.01 l 0.032,0.267 z"
             style="fill:#ffffff;fill-opacity:1;fill-rule:nonzero;stroke:none"
             id="path230"
             inkscape:connector-curvature="0" /></g><g
           id="g232"
           transform="translate(82.4516,35.2712)"><path
             d="m 0,0 -0.201,-1.506 h -0.267 l 0.197,1.488 c 0.078,0.602 -0.109,0.789 -0.393,0.789 -0.396,0 -0.884,-0.539 -0.982,-1.212 l -0.141,-1.065 h -0.27 l 0.197,1.488 c 0.078,0.602 -0.101,0.789 -0.388,0.789 -0.396,0 -0.911,-0.548 -1,-1.226 l -0.128,-1.051 h -0.27 l 0.308,2.504 h 0.267 L -3.142,0.416 h 0.007 c 0.263,0.383 0.622,0.605 0.952,0.605 0.361,0 0.577,-0.187 0.61,-0.605 h 0.012 c 0.252,0.383 0.607,0.605 0.957,0.605 C -0.131,1.021 0.094,0.713 0,0"
             style="fill:#ffffff;fill-opacity:1;fill-rule:nonzero;stroke:none"
             id="path234"
             inkscape:connector-curvature="0" /></g><g
           id="g236"
           transform="translate(84.979,35.3298)"><path
             d="m 0,0 v -0.004 l 0.051,0.4 c -0.184,0.241 -0.522,0.313 -0.723,0.313 -0.619,0 -1.012,-0.619 -1.012,-1.303 0,-0.433 0.216,-0.748 0.626,-0.748 0.532,0 0.973,0.629 1.058,1.342 M 0.383,0.939 0.078,-1.564 h -0.269 l 0.081,0.65 h -0.011 c -0.221,-0.389 -0.568,-0.676 -0.977,-0.676 -0.563,0 -0.861,0.442 -0.861,1.002 0,0.824 0.501,1.551 1.277,1.551 0.289,0 0.579,-0.096 0.755,-0.289 h 0.01 l 0.033,0.265 z"
             style="fill:#ffffff;fill-opacity:1;fill-rule:nonzero;stroke:none"
             id="path238"
             inkscape:connector-curvature="0" /></g><g
           id="g240"
           transform="translate(86.6401,37.0368)"><path
             d="m 0,0 c 0,-0.119 -0.088,-0.209 -0.209,-0.209 -0.113,0 -0.199,0.086 -0.199,0.201 0,0.121 0.088,0.209 0.207,0.209 C -0.086,0.201 0,0.115 0,0 M -0.177,-0.768 -0.481,-3.271 H -0.75 l 0.307,2.503 z"
             style="fill:#ffffff;fill-opacity:1;fill-rule:nonzero;stroke:none"
             id="path242"
             inkscape:connector-curvature="0" /></g><g
           id="g244"
           transform="translate(87.812,37.5622)"><path
             d="M 0,0 -0.463,-3.797 H -0.732 L -0.27,0 Z"
             style="fill:#ffffff;fill-opacity:1;fill-rule:nonzero;stroke:none"
             id="path246"
             inkscape:connector-curvature="0" /></g><g
           id="g248"
           transform="translate(88.519,33.9489)"><path
             d="m 0,0 c 0,-0.121 -0.088,-0.209 -0.209,-0.209 -0.113,0 -0.199,0.086 -0.199,0.201 0,0.121 0.088,0.209 0.206,0.209 C -0.086,0.201 0,0.117 0,0"
             style="fill:#ffffff;fill-opacity:1;fill-rule:nonzero;stroke:none"
             id="path250"
             inkscape:connector-curvature="0" /></g><g
           id="g252"
           transform="translate(89.1548,34.7751)"><path
             d="m 0,0 c 0,0.816 0.496,1.518 1.317,1.518 0.33,0 0.655,-0.127 0.841,-0.407 L 1.939,0.949 c -0.143,0.219 -0.38,0.315 -0.627,0.315 -0.639,0 -1.04,-0.575 -1.04,-1.248 0,-0.496 0.31,-0.795 0.695,-0.795 0.317,0 0.574,0.107 0.783,0.351 L 1.959,-0.584 C 1.705,-0.881 1.393,-1.031 0.949,-1.031 0.438,-1.031 0,-0.674 0,0"
             style="fill:#ffffff;fill-opacity:1;fill-rule:nonzero;stroke:none"
             id="path254"
             inkscape:connector-curvature="0" /></g><g
           id="g256"
           transform="translate(91.9223,34.8103)"><path
             d="m 0,0 c 0,-0.504 0.289,-0.818 0.753,-0.818 0.599,0 1.024,0.523 1.024,1.261 0,0.539 -0.319,0.786 -0.75,0.786 C 0.423,1.229 0,0.678 0,0 m 1.037,1.482 c 0.607,0 1.015,-0.361 1.015,-1.021 0,-0.852 -0.487,-1.531 -1.304,-1.531 -0.615,0 -1.02,0.381 -1.02,1.045 0,0.8 0.499,1.507 1.309,1.507"
             style="fill:#ffffff;fill-opacity:1;fill-rule:nonzero;stroke:none"
             id="path258"
             inkscape:connector-curvature="0" /></g><g
           id="g260"
           transform="translate(98.1421,35.2712)"><path
             d="m 0,0 -0.201,-1.506 h -0.267 l 0.197,1.488 c 0.078,0.602 -0.109,0.789 -0.393,0.789 -0.396,0 -0.884,-0.539 -0.982,-1.212 l -0.141,-1.065 h -0.27 l 0.197,1.488 c 0.078,0.602 -0.101,0.789 -0.388,0.789 -0.396,0 -0.911,-0.548 -1,-1.226 l -0.128,-1.051 h -0.27 l 0.308,2.504 h 0.267 L -3.142,0.416 h 0.007 c 0.263,0.383 0.622,0.605 0.952,0.605 0.361,0 0.577,-0.187 0.61,-0.605 h 0.012 c 0.252,0.383 0.607,0.605 0.957,0.605 C -0.131,1.021 0.094,0.713 0,0"
             style="fill:#ffffff;fill-opacity:1;fill-rule:nonzero;stroke:none"
             id="path262"
             inkscape:connector-curvature="0" /></g><g
           id="g264"
           transform="translate(33.0073,24.8708)"><path
             d="M 0,0 H -1.04 V 0.559 H 1.672 V 0 H 0.622 V -3.105 H 0 Z"
             style="fill:#ffffff;fill-opacity:1;fill-rule:nonzero;stroke:none"
             id="path266"
             inkscape:connector-curvature="0" /></g><g
           id="g268"
           transform="translate(37.1382,24.2809)"><path
             d="m 0,0 -1.382,-3.535 h -0.607 l 0.454,1.16 L -2.558,0 h 0.607 l 0.695,-1.697 h 0.005 L -0.604,0 Z"
             style="fill:#ffffff;fill-opacity:1;fill-rule:nonzero;stroke:none"
             id="path270"
             inkscape:connector-curvature="0" /></g><g
           id="g272"
           transform="translate(39.6176,23.0095)"><path
             d="m 0,0 c 0,0.484 -0.322,0.785 -0.726,0.785 -0.432,0 -0.732,-0.34 -0.732,-0.785 0,-0.455 0.325,-0.76 0.735,-0.76 C -0.297,-0.76 0,-0.445 0,0 m 0.586,0.002 c 0,-0.777 -0.521,-1.285 -1.218,-1.285 -0.343,0 -0.612,0.125 -0.796,0.349 h -0.008 v -1.33 h -0.576 v 3.535 h 0.576 V 0.967 h 0.011 c 0.191,0.224 0.466,0.342 0.798,0.342 0.692,0 1.213,-0.545 1.213,-1.307"
             style="fill:#ffffff;fill-opacity:1;fill-rule:nonzero;stroke:none"
             id="path274"
             inkscape:connector-curvature="0" /></g><g
           id="g276"
           transform="translate(42.7026,23.0192)"><path
             d="m 0,0 c 0,0.461 -0.32,0.775 -0.733,0.775 -0.441,0 -0.736,-0.338 -0.736,-0.775 0,-0.43 0.303,-0.77 0.736,-0.77 C -0.325,-0.77 0,-0.453 0,0 m -2.055,0 c 0,0.742 0.527,1.299 1.322,1.299 0.77,0 1.319,-0.528 1.319,-1.299 0,-0.766 -0.549,-1.293 -1.319,-1.293 -0.795,0 -1.322,0.555 -1.322,1.293"
             style="fill:#ffffff;fill-opacity:1;fill-rule:nonzero;stroke:none"
             id="path278"
             inkscape:connector-curvature="0" /></g><g
           id="g280"
           transform="translate(45.7368,23.0759)"><path
             d="m 0,0 c 0,0.43 -0.31,0.715 -0.71,0.715 -0.428,0 -0.718,-0.297 -0.718,-0.723 0,-0.451 0.313,-0.728 0.718,-0.728 0.42,0 0.71,0.31 0.71,0.736 m 0.552,1.205 v -2.256 c 0,-0.763 -0.351,-1.316 -1.282,-1.316 -0.377,0 -0.743,0.094 -1.025,0.262 l 0.136,0.507 c 0.274,-0.144 0.499,-0.248 0.856,-0.248 0.496,0 0.75,0.282 0.75,0.619 v 0.266 h -0.009 c -0.19,-0.195 -0.449,-0.307 -0.763,-0.307 -0.705,0 -1.23,0.495 -1.23,1.243 0,0.734 0.499,1.271 1.2,1.271 0.289,0 0.568,-0.103 0.78,-0.305 h 0.01 v 0.264 z"
             style="fill:#ffffff;fill-opacity:1;fill-rule:nonzero;stroke:none"
             id="path282"
             inkscape:connector-curvature="0" /></g><g
           id="g284"
           transform="translate(48.4419,24.3161)"><path
             d="m 0,0 v -0.643 c -0.066,0.006 -0.134,0.008 -0.174,0.008 -0.438,0 -0.687,-0.314 -0.687,-0.722 v -1.194 h -0.577 v 2.516 h 0.577 v -0.377 h 0.007 c 0.197,0.266 0.476,0.414 0.783,0.414 0.025,0 0.05,0 0.071,-0.002"
             style="fill:#ffffff;fill-opacity:1;fill-rule:nonzero;stroke:none"
             id="path286"
             inkscape:connector-curvature="0" /></g><g
           id="g288"
           transform="translate(50.7163,23.0095)"><path
             d="m 0,0 c 0,0.445 -0.299,0.785 -0.712,0.785 -0.403,0 -0.725,-0.301 -0.725,-0.785 0,-0.445 0.297,-0.76 0.722,-0.76 C -0.324,-0.76 0,-0.455 0,0 M 0.555,1.271 V -1.244 H 0.003 v 0.338 h -0.008 c -0.183,-0.242 -0.453,-0.377 -0.801,-0.377 -0.697,0 -1.217,0.508 -1.217,1.285 0,0.762 0.52,1.307 1.212,1.307 0.321,0 0.59,-0.116 0.779,-0.34 h 0.01 v 0.302 z"
             style="fill:#ffffff;fill-opacity:1;fill-rule:nonzero;stroke:none"
             id="path290"
             inkscape:connector-curvature="0" /></g><g
           id="g292"
           transform="translate(54.0005,23.0095)"><path
             d="m 0,0 c 0,0.484 -0.322,0.785 -0.726,0.785 -0.432,0 -0.732,-0.34 -0.732,-0.785 0,-0.455 0.325,-0.76 0.735,-0.76 C -0.297,-0.76 0,-0.445 0,0 m 0.586,0.002 c 0,-0.777 -0.521,-1.285 -1.218,-1.285 -0.343,0 -0.612,0.125 -0.796,0.349 h -0.008 v -1.33 h -0.576 v 3.535 h 0.576 V 0.967 h 0.011 c 0.191,0.224 0.466,0.342 0.798,0.342 0.692,0 1.213,-0.545 1.213,-1.307"
             style="fill:#ffffff;fill-opacity:1;fill-rule:nonzero;stroke:none"
             id="path294"
             inkscape:connector-curvature="0" /></g><g
           id="g296"
           transform="translate(57.5561,23.2712)"><path
             d="m 0,0 v -1.508 h -0.577 v 1.36 c 0,0.502 -0.198,0.671 -0.546,0.671 -0.416,0 -0.678,-0.255 -0.678,-0.75 v -1.279 h -0.576 v 3.797 h 0.576 V 0.695 H -1.79 C -1.579,0.93 -1.274,1.047 -0.939,1.047 -0.386,1.047 0,0.75 0,0"
             style="fill:#ffffff;fill-opacity:1;fill-rule:nonzero;stroke:none"
             id="path298"
             inkscape:connector-curvature="0" /></g><g
           id="g300"
           transform="translate(60.4174,24.2809)"><path
             d="m 0,0 -1.383,-3.535 h -0.606 l 0.453,1.16 L -2.559,0 h 0.608 l 0.694,-1.697 h 0.005 L -0.604,0 Z"
             style="fill:#ffffff;fill-opacity:1;fill-rule:nonzero;stroke:none"
             id="path302"
             inkscape:connector-curvature="0" /></g><g
           id="g304"
           transform="translate(64.5112,24.2809)"><path
             d="m 0,0 v -2.516 h -0.577 v 0.328 h -0.007 c -0.202,-0.242 -0.481,-0.367 -0.775,-0.367 -0.555,0 -0.94,0.276 -0.94,1.024 V 0 h 0.576 v -1.375 c 0,-0.504 0.152,-0.654 0.499,-0.654 0.337,0 0.647,0.281 0.647,0.826 l 0,1.203 z"
             style="fill:#ffffff;fill-opacity:1;fill-rule:nonzero;stroke:none"
             id="path306"
             inkscape:connector-curvature="0" /></g><g
           id="g308"
           transform="translate(65.018,22.0934)"><path
             d="m 0,0 0.292,0.434 c 0.201,-0.2 0.415,-0.299 0.725,-0.299 0.221,0 0.352,0.101 0.352,0.248 0,0.131 -0.168,0.193 -0.498,0.306 C 0.458,0.83 0.104,1.02 0.104,1.514 c 0,0.41 0.372,0.711 0.885,0.711 0.32,0 0.61,-0.088 0.892,-0.315 L 1.591,1.457 C 1.387,1.646 1.158,1.727 0.959,1.727 0.846,1.727 0.685,1.664 0.685,1.51 0.685,1.385 0.844,1.299 1.085,1.203 1.619,0.992 1.956,0.896 1.956,0.395 1.956,-0.027 1.656,-0.367 1.017,-0.367 0.611,-0.367 0.267,-0.234 0,0"
             style="fill:#ffffff;fill-opacity:1;fill-rule:nonzero;stroke:none"
             id="path310"
             inkscape:connector-curvature="0" /></g><g
           id="g312"
           transform="translate(67.9741,23.2888)"><path
             d="M 0,0 H 1.259 C 1.186,0.305 0.977,0.506 0.647,0.506 0.332,0.506 0.083,0.328 0,0 M 1.823,-0.465 H -0.01 c 0.075,-0.357 0.348,-0.574 0.718,-0.574 0.292,0 0.498,0.135 0.627,0.297 L 1.737,-1.088 C 1.523,-1.361 1.171,-1.562 0.678,-1.562 c -0.734,0 -1.287,0.513 -1.287,1.298 0,0.77 0.526,1.293 1.226,1.293 0.742,0 1.221,-0.533 1.221,-1.265 0,-0.088 -0.008,-0.184 -0.015,-0.229"
             style="fill:#ffffff;fill-opacity:1;fill-rule:nonzero;stroke:none"
             id="path314"
             inkscape:connector-curvature="0" /></g><g
           id="g316"
           transform="translate(72.2934,23.0095)"><path
             d="m 0,0 c 0,0.445 -0.3,0.785 -0.732,0.785 -0.404,0 -0.726,-0.301 -0.726,-0.785 0,-0.445 0.298,-0.76 0.723,-0.76 C -0.324,-0.76 0,-0.455 0,0 M 0.554,2.553 V -1.244 H 0.003 v 0.338 h -0.011 c -0.183,-0.242 -0.46,-0.377 -0.817,-0.377 -0.698,0 -1.219,0.508 -1.219,1.285 0,0.762 0.521,1.307 1.213,1.307 0.33,0 0.607,-0.116 0.796,-0.34 h 0.013 v 1.584 z"
             style="fill:#ffffff;fill-opacity:1;fill-rule:nonzero;stroke:none"
             id="path318"
             inkscape:connector-curvature="0" /></g><g
           id="g320"
           transform="translate(73.4975,22.1091)"><path
             d="M 0,0 C 0,0.211 0.173,0.385 0.393,0.385 0.604,0.385 0.78,0.211 0.78,0 0.78,-0.213 0.604,-0.383 0.393,-0.383 0.173,-0.383 0,-0.213 0,0 M 0,1.824 C 0,2.035 0.173,2.209 0.393,2.209 0.604,2.209 0.78,2.035 0.78,1.824 0.78,1.613 0.604,1.441 0.393,1.441 0.173,1.441 0,1.613 0,1.824"
             style="fill:#ffffff;fill-opacity:1;fill-rule:nonzero;stroke:none"
             id="path322"
             inkscape:connector-curvature="0" /></g><g
           id="g324"
           transform="translate(78.3325,23.0934)"><path
             d="M 0,0 -0.556,1.586 H -0.561 L -1.117,0 Z M 0.189,-0.539 H -1.307 L -1.581,-1.328 H -2.23 l 1.367,3.664 h 0.606 L 1.118,-1.328 H 0.466 Z"
             style="fill:#ffffff;fill-opacity:1;fill-rule:nonzero;stroke:none"
             id="path326"
             inkscape:connector-curvature="0" /></g><g
           id="g328"
           transform="translate(81.9731,24.2809)"><path
             d="M 0,0 -0.996,-2.516 H -1.548 L -2.55,0 h 0.616 l 0.658,-1.793 h 0.01 L -0.621,0 Z"
             style="fill:#ffffff;fill-opacity:1;fill-rule:nonzero;stroke:none"
             id="path330"
             inkscape:connector-curvature="0" /></g><g
           id="g332"
           transform="translate(82.7485,23.2888)"><path
             d="M 0,0 H 1.259 C 1.186,0.305 0.977,0.506 0.647,0.506 0.332,0.506 0.083,0.328 0,0 M 1.823,-0.465 H -0.01 c 0.075,-0.357 0.348,-0.574 0.718,-0.574 0.292,0 0.498,0.135 0.627,0.297 L 1.737,-1.088 C 1.523,-1.361 1.171,-1.562 0.678,-1.562 c -0.734,0 -1.287,0.513 -1.287,1.298 0,0.77 0.526,1.293 1.226,1.293 0.742,0 1.221,-0.533 1.221,-1.265 0,-0.088 -0.008,-0.184 -0.015,-0.229"
             style="fill:#ffffff;fill-opacity:1;fill-rule:nonzero;stroke:none"
             id="path334"
             inkscape:connector-curvature="0" /></g><g
           id="g336"
           transform="translate(86.6128,24.3161)"><path
             d="m 0,0 v -0.643 c -0.066,0.006 -0.134,0.008 -0.174,0.008 -0.438,0 -0.687,-0.314 -0.687,-0.722 v -1.194 h -0.577 v 2.516 h 0.577 v -0.377 h 0.007 c 0.197,0.266 0.476,0.414 0.783,0.414 0.025,0 0.05,0 0.071,-0.002"
             style="fill:#ffffff;fill-opacity:1;fill-rule:nonzero;stroke:none"
             id="path338"
             inkscape:connector-curvature="0" /></g><g
           id="g340"
           transform="translate(87.1352,22.5622)"><path
             d="m 0,0 v 1.229 h -0.308 v 0.49 H 0 V 2.555 L 0.576,2.617 V 1.719 h 0.74 V 1.229 H 0.576 V 0.053 c 0,-0.258 0.081,-0.352 0.242,-0.352 0.098,0 0.24,0.039 0.372,0.11 L 1.342,-0.687 C 1.19,-0.77 1.032,-0.836 0.702,-0.836 0.27,-0.836 0,-0.562 0,0"
             style="fill:#ffffff;fill-opacity:1;fill-rule:nonzero;stroke:none"
             id="path342"
             inkscape:connector-curvature="0" /></g><g
           id="g344"
           transform="translate(90.727,23.0095)"><path
             d="m 0,0 c 0,0.445 -0.299,0.785 -0.712,0.785 -0.403,0 -0.725,-0.301 -0.725,-0.785 0,-0.445 0.297,-0.76 0.722,-0.76 C -0.324,-0.76 0,-0.455 0,0 M 0.555,1.271 V -1.244 H 0.003 v 0.338 h -0.008 c -0.183,-0.242 -0.453,-0.377 -0.801,-0.377 -0.697,0 -1.217,0.508 -1.217,1.285 0,0.762 0.52,1.307 1.212,1.307 0.321,0 0.59,-0.116 0.779,-0.34 h 0.01 v 0.302 z"
             style="fill:#ffffff;fill-opacity:1;fill-rule:nonzero;stroke:none"
             id="path346"
             inkscape:connector-curvature="0" /></g><g
           id="g348"
           transform="translate(93.2817,23.2888)"><path
             d="M 0,0 C 0,0.889 0.227,1.715 0.622,2.322 L 1.058,2.121 C 0.73,1.523 0.539,0.777 0.539,0 c 0,-0.795 0.193,-1.506 0.511,-2.119 L 0.606,-2.318 C 0.227,-1.691 0,-0.906 0,0"
             style="fill:#ffffff;fill-opacity:1;fill-rule:nonzero;stroke:none"
             id="path350"
             inkscape:connector-curvature="0" /></g><g
           id="g352"
           transform="translate(94.6801,23.0192)"><path
             d="m 0,0 c 0,0.771 0.539,1.299 1.302,1.299 0.392,0 0.805,-0.158 1.057,-0.467 L 1.966,0.492 C 1.822,0.66 1.606,0.775 1.332,0.775 0.886,0.775 0.587,0.463 0.587,0.006 c 0,-0.463 0.304,-0.776 0.747,-0.776 0.279,0 0.504,0.124 0.637,0.272 L 2.369,-0.852 C 2.152,-1.098 1.768,-1.293 1.281,-1.293 0.541,-1.293 0,-0.77 0,0"
             style="fill:#ffffff;fill-opacity:1;fill-rule:nonzero;stroke:none"
             id="path354"
             inkscape:connector-curvature="0" /></g><g
           id="g356"
           transform="translate(99.4682,23.0192)"><path
             d="m 0,0 c 0,0.461 -0.32,0.775 -0.733,0.775 -0.441,0 -0.736,-0.338 -0.736,-0.775 0,-0.43 0.303,-0.77 0.736,-0.77 C -0.325,-0.77 0,-0.453 0,0 m -2.055,0 c 0,0.742 0.527,1.299 1.322,1.299 0.77,0 1.319,-0.528 1.319,-1.299 0,-0.766 -0.549,-1.293 -1.319,-1.293 -0.795,0 -1.322,0.555 -1.322,1.293"
             style="fill:#ffffff;fill-opacity:1;fill-rule:nonzero;stroke:none"
             id="path358"
             inkscape:connector-curvature="0" /></g><g
           id="g360"
           transform="translate(104.562,23.2204)"><path
             d="m 0,0 v -1.457 h -0.577 v 1.312 c 0,0.456 -0.149,0.719 -0.493,0.719 -0.325,0 -0.587,-0.281 -0.587,-0.775 v -1.256 h -0.576 v 1.312 c 0,0.456 -0.159,0.719 -0.501,0.719 -0.343,0 -0.605,-0.281 -0.605,-0.775 v -1.254 h -0.576 v 2.516 h 0.576 V 0.713 h 0.008 c 0.206,0.252 0.496,0.385 0.785,0.385 0.34,0 0.6,-0.135 0.751,-0.418 h 0.01 c 0.212,0.273 0.531,0.418 0.901,0.418 C -0.33,1.098 0,0.75 0,0"
             style="fill:#ffffff;fill-opacity:1;fill-rule:nonzero;stroke:none"
             id="path362"
             inkscape:connector-curvature="0" /></g><g
           id="g364"
           transform="translate(109.1723,23.2204)"><path
             d="m 0,0 v -1.457 h -0.576 v 1.312 c 0,0.456 -0.149,0.719 -0.493,0.719 -0.326,0 -0.587,-0.281 -0.587,-0.775 v -1.256 h -0.576 v 1.312 c 0,0.456 -0.16,0.719 -0.501,0.719 -0.343,0 -0.605,-0.281 -0.605,-0.775 v -1.254 h -0.577 v 2.516 h 0.577 V 0.713 h 0.008 c 0.206,0.252 0.495,0.385 0.785,0.385 0.34,0 0.599,-0.135 0.75,-0.418 h 0.01 c 0.212,0.273 0.531,0.418 0.901,0.418 C -0.329,1.098 0,0.75 0,0"
             style="fill:#ffffff;fill-opacity:1;fill-rule:nonzero;stroke:none"
             id="path366"
             inkscape:connector-curvature="0" /></g><g
           id="g368"
           transform="translate(110.3296,23.2888)"><path
             d="M 0,0 H 1.259 C 1.186,0.305 0.977,0.506 0.647,0.506 0.332,0.506 0.083,0.328 0,0 M 1.823,-0.465 H -0.01 c 0.075,-0.357 0.348,-0.574 0.718,-0.574 0.292,0 0.498,0.135 0.627,0.297 L 1.737,-1.088 C 1.523,-1.361 1.171,-1.562 0.678,-1.562 c -0.734,0 -1.287,0.513 -1.287,1.298 0,0.77 0.526,1.293 1.226,1.293 0.742,0 1.221,-0.533 1.221,-1.265 0,-0.088 -0.008,-0.184 -0.015,-0.229"
             style="fill:#ffffff;fill-opacity:1;fill-rule:nonzero;stroke:none"
             id="path370"
             inkscape:connector-curvature="0" /></g><g
           id="g372"
           transform="translate(114.1928,24.3161)"><path
             d="m 0,0 v -0.643 c -0.065,0.006 -0.134,0.008 -0.174,0.008 -0.437,0 -0.687,-0.314 -0.687,-0.722 v -1.194 h -0.576 v 2.516 h 0.576 v -0.377 h 0.007 c 0.197,0.266 0.476,0.414 0.784,0.414 0.025,0 0.049,0 0.07,-0.002"
             style="fill:#ffffff;fill-opacity:1;fill-rule:nonzero;stroke:none"
             id="path374"
             inkscape:connector-curvature="0" /></g><g
           id="g376"
           transform="translate(114.4516,23.0192)"><path
             d="m 0,0 c 0,0.771 0.539,1.299 1.302,1.299 0.392,0 0.805,-0.158 1.057,-0.467 L 1.967,0.492 C 1.823,0.66 1.606,0.775 1.332,0.775 0.887,0.775 0.587,0.463 0.587,0.006 c 0,-0.463 0.305,-0.776 0.748,-0.776 0.279,0 0.503,0.124 0.637,0.272 L 2.369,-0.852 C 2.153,-1.098 1.768,-1.293 1.282,-1.293 0.542,-1.293 0,-0.77 0,0"
             style="fill:#ffffff;fill-opacity:1;fill-rule:nonzero;stroke:none"
             id="path378"
             inkscape:connector-curvature="0" /></g><path
           d="m 117.372,24.281 h 0.576 v -2.516 h -0.576 z m -0.099,0.758 c 0,0.209 0.172,0.383 0.391,0.383 0.211,0 0.387,-0.174 0.387,-0.383 0,-0.211 -0.176,-0.383 -0.387,-0.383 -0.219,0 -0.391,0.172 -0.391,0.383"
           style="fill:#ffffff;fill-opacity:1;fill-rule:nonzero;stroke:none"
           id="path380"
           inkscape:connector-curvature="0" /><g
           id="g382"
           transform="translate(120.602,23.0095)"><path
             d="m 0,0 c 0,0.445 -0.299,0.785 -0.712,0.785 -0.403,0 -0.725,-0.301 -0.725,-0.785 0,-0.445 0.297,-0.76 0.722,-0.76 C -0.324,-0.76 0,-0.455 0,0 M 0.555,1.271 V -1.244 H 0.003 v 0.338 h -0.008 c -0.183,-0.242 -0.453,-0.377 -0.801,-0.377 -0.697,0 -1.217,0.508 -1.217,1.285 0,0.762 0.52,1.307 1.212,1.307 0.321,0 0.59,-0.116 0.779,-0.34 h 0.01 v 0.302 z"
             style="fill:#ffffff;fill-opacity:1;fill-rule:nonzero;stroke:none"
             id="path384"
             inkscape:connector-curvature="0" /></g><path
           d="m 121.913,25.562 h 0.576 v -3.797 h -0.576 z"
           style="fill:#ffffff;fill-opacity:1;fill-rule:nonzero;stroke:none"
           id="path386"
           inkscape:connector-curvature="0" /><g
           id="g388"
           transform="translate(123.1391,21.1696)"><path
             d="m 0,0 c 0.317,0.613 0.512,1.324 0.512,2.119 0,0.777 -0.192,1.524 -0.52,2.121 L 0.429,4.441 C 0.823,3.834 1.05,3.008 1.05,2.119 1.05,1.213 0.823,0.428 0.443,-0.199 Z"
             style="fill:#ffffff;fill-opacity:1;fill-rule:nonzero;stroke:none"
             id="path390"
             inkscape:connector-curvature="0" /></g><g
           id="g392"
           transform="translate(485.5913,425.8854)"><path
             d="m 0,0 89.975,-50.912 v 21.119 z"
             style="fill:#ffffff;fill-opacity:1;fill-rule:nonzero;stroke:none"
             id="path394"
             inkscape:connector-curvature="0" /></g><g
           id="g396"
           transform="translate(483.6889,424.6638)"><path
             d="m 0,0 69.835,-62.834 10.569,17.157 z"
             style="fill:#ffffff;fill-opacity:1;fill-rule:nonzero;stroke:none"
             id="path398"
             inkscape:connector-curvature="0" /></g><g
           id="g400"
           transform="translate(566.1518,378.0261)"><path
             d="M 0,0 9.414,-5.095 -74.713,-119.081 Z"
             style="fill:#ffffff;fill-opacity:1;fill-rule:nonzero;stroke:none"
             id="path402"
             inkscape:connector-curvature="0" /></g><g
           id="g404"
           transform="translate(575.5659,370.2057)"><path
             d="M 0,0 V -29.996 L -89.982,-122.62 Z"
             style="fill:#ffffff;fill-opacity:1;fill-rule:nonzero;stroke:none"
             id="path406"
             inkscape:connector-curvature="0" /></g><g
           id="g408"
           transform="translate(575.5659,423.8474)"><path
             d="M 0,0 -21.588,-8.88 0,-26.31 Z"
             style="fill:#ffffff;fill-opacity:1;fill-rule:nonzero;stroke:none"
             id="path410"
             inkscape:connector-curvature="0" /></g><g
           id="g412"
           transform="translate(575.5659,426.3972)"><path
             d="M 0,0 V 25.833 L -21.588,-8.965 Z"
             style="fill:#ffffff;fill-opacity:1;fill-rule:nonzero;stroke:none"
             id="path414"
             inkscape:connector-curvature="0" /></g><g
           id="g416"
           transform="translate(667.7397,425.8854)"><path
             d="m 0,0 -89.975,-50.912 v 21.119 z"
             style="fill:#ffffff;fill-opacity:1;fill-rule:nonzero;stroke:none"
             id="path418"
             inkscape:connector-curvature="0" /></g><g
           id="g420"
           transform="translate(669.642,424.6638)"><path
             d="m 0,0 -69.836,-62.834 -10.568,17.157 z"
             style="fill:#ffffff;fill-opacity:1;fill-rule:nonzero;stroke:none"
             id="path422"
             inkscape:connector-curvature="0" /></g><g
           id="g424"
           transform="translate(587.1782,378.0261)"><path
             d="M 0,0 -9.413,-5.095 74.714,-119.081 Z"
             style="fill:#ffffff;fill-opacity:1;fill-rule:nonzero;stroke:none"
             id="path426"
             inkscape:connector-curvature="0" /></g><g
           id="g428"
           transform="translate(577.7651,370.2057)"><path
             d="M 0,0 V -29.996 L 89.982,-122.62 Z"
             style="fill:#ffffff;fill-opacity:1;fill-rule:nonzero;stroke:none"
             id="path430"
             inkscape:connector-curvature="0" /></g><g
           id="g432"
           transform="translate(577.7651,423.8474)"><path
             d="M 0,0 21.587,-8.88 0,-26.31 Z"
             style="fill:#ffffff;fill-opacity:1;fill-rule:nonzero;stroke:none"
             id="path434"
             inkscape:connector-curvature="0" /></g><g
           id="g436"
           transform="translate(577.7651,426.3972)"><path
             d="M 0,0 V 25.833 L 21.587,-8.965 Z"
             style="fill:#ffffff;fill-opacity:1;fill-rule:nonzero;stroke:none"
             id="path438"
             inkscape:connector-curvature="0" /></g></g></g></g></svg>